  0
SECTION
  2
HEADER
  9
$ACADVER
  1
AC1009
  9
$INSBASE
 10
0.0
 20
0.0
 30
0.0
  9
$EXTMIN
 10
0.0
 20
0.0
 30
0.0
  9
$EXTMAX
 10
1189.0
 20
841.0
 30
0.0
  9
$LIMMIN
 10
0.0
 20
0.0
  9
$LIMMAX
 10
1189.0
 20
841.0
  9
$ORTHOMODE
 70
     0
  9
$REGENMODE
 70
     1
  9
$FILLMODE
 70
     1
  9
$QTEXTMODE
 70
     0
  9
$MIRRTEXT
 70
     1
  9
$DRAGMODE
 70
     2
  9
$LTSCALE
 40
1.0
  9
$OSMODE
 70
    37
  9
$ATTMODE
 70
     1
  9
$TEXTSIZE
 40
3.5
  9
$TRACEWID
 40
1.0
  9
$TEXTSTYLE
  7
STANDARD
  9
$CLAYER
  8
0
  9
$CELTYPE
  6
BYLAYER
  9
$CECOLOR
 62
   256
  9
$DIMSCALE
 40
1.0
  9
$DIMASZ
 40
3.302
  9
$DIMEXO
 40
1.0
  9
$DIMDLI
 40
3.75
  9
$DIMRND
 40
0.0
  9
$DIMDLE
 40
0.0
  9
$DIMEXE
 40
1.0
  9
$DIMTP
 40
0.0
  9
$DIMTM
 40
0.0
  9
$DIMTXT
 40
9.1722222222000003
  9
$DIMCEN
 40
2.5
  9
$DIMTSZ
 40
0.0
  9
$DIMTOL
 70
     0
  9
$DIMLIM
 70
     0
  9
$DIMTIH
 70
     1
  9
$DIMTOH
 70
     1
  9
$DIMSE1
 70
     0
  9
$DIMSE2
 70
     0
  9
$DIMTAD
 70
     1
  9
$DIMZIN
 70
     1
  9
$DIMBLK
  1

  9
$DIMASO
 70
     1
  9
$DIMSHO
 70
     1
  9
$DIMPOST
  1

  9
$DIMAPOST
  1

  9
$DIMALT
 70
     0
  9
$DIMALTD
 70
     3
  9
$DIMALTF
 40
0.0393700787
  9
$DIMLFAC
 40
1.0
  9
$DIMTOFL
 70
     1
  9
$DIMTVP
 40
0.0
  9
$DIMTIX
 70
     0
  9
$DIMSOXD
 70
     0
  9
$DIMSAH
 70
     0
  9
$DIMBLK1
  1

  9
$DIMBLK2
  1

  9
$DIMSTYLE
  2
ISO-25
  9
$DIMCLRD
 70
     0
  9
$DIMCLRE
 70
     0
  9
$DIMCLRT
 70
     0
  9
$DIMTFAC
 40
1.0
  9
$DIMGAP
 40
1.524
  9
$LUNITS
 70
     2
  9
$LUPREC
 70
     2
  9
$SKETCHINC
 40
1.0
  9
$FILLETRAD
 40
10.0
  9
$AUNITS
 70
     0
  9
$AUPREC
 70
     2
  9
$MENU
  1
.
  9
$ELEVATION
 40
0.0
  9
$PELEVATION
 40
0.0
  9
$THICKNESS
 40
0.0
  9
$LIMCHECK
 70
     0
  9
$BLIPMODE
 70
     0
  9
$CHAMFERA
 40
0.0
  9
$CHAMFERB
 40
0.0
  9
$SKPOLY
 70
     0
  9
$TDCREATE
 40
2459583.7367245368659496
  9
$TDUPDATE
 40
2459584.4926504627801478
  9
$TDINDWG
 40
0.0026967708
  9
$TDUSRTIMER
 40
0.0026967708
  9
$USRTIMER
 70
     1
  9
$ANGBASE
 50
0.0
  9
$ANGDIR
 70
     0
  9
$PDMODE
 70
     0
  9
$PDSIZE
 40
-1.0
  9
$PLINEWID
 40
0.0
  9
$COORDS
 70
     1
  9
$SPLFRAME
 70
     0
  9
$SPLINETYPE
 70
     6
  9
$SPLINESEGS
 70
     8
  9
$ATTDIA
 70
     1
  9
$ATTREQ
 70
     1
  9
$HANDLING
 70
     1
  9
$HANDSEED
  5
9E2
  9
$SURFTAB1
 70
     6
  9
$SURFTAB2
 70
     6
  9
$SURFTYPE
 70
     6
  9
$SURFU
 70
     6
  9
$SURFV
 70
     6
  9
$UCSNAME
  2

  9
$UCSORG
 10
0.0
 20
0.0
 30
0.0
  9
$UCSXDIR
 10
1.0
 20
0.0
 30
0.0
  9
$UCSYDIR
 10
0.0
 20
1.0
 30
0.0
  9
$PUCSNAME
  2

  9
$PUCSORG
 10
0.0
 20
0.0
 30
0.0
  9
$PUCSXDIR
 10
1.0
 20
0.0
 30
0.0
  9
$PUCSYDIR
 10
0.0
 20
1.0
 30
0.0
  9
$USERI1
 70
     0
  9
$USERI2
 70
     0
  9
$USERI3
 70
     0
  9
$USERI4
 70
     0
  9
$USERI5
 70
     0
  9
$USERR1
 40
0.0
  9
$USERR2
 40
0.0
  9
$USERR3
 40
0.0
  9
$USERR4
 40
0.0
  9
$USERR5
 40
0.0
  9
$WORLDVIEW
 70
     1
  9
$SHADEDGE
 70
     3
  9
$SHADEDIF
 70
    70
  9
$TILEMODE
 70
     1
  9
$MAXACTVP
 70
    64
  9
$PLIMCHECK
 70
     0
  9
$PEXTMIN
 10
1.0000000000000000E+20
 20
1.0000000000000000E+20
 30
1.0000000000000000E+20
  9
$PEXTMAX
 10
-1.0000000000000000E+20
 20
-1.0000000000000000E+20
 30
-1.0000000000000000E+20
  9
$PLIMMIN
 10
0.0
 20
0.0
  9
$PLIMMAX
 10
420.0
 20
297.0
  9
$UNITMODE
 70
     0
  9
$VISRETAIN
 70
     1
  9
$PLINEGEN
 70
     0
  9
$PSLTSCALE
 70
     1
  0
ENDSEC
  0
SECTION
  2
TABLES
  0
TABLE
  2
VPORT
 70
     1
  0
VPORT
  2
*ACTIVE
 70
     0
 10
0.0
 20
0.0
 11
1.0
 21
1.0
 12
764.0631031264017565
 22
559.3643647725069741
 13
0.0
 23
0.0
 14
10.0
 24
10.0
 15
10.0
 25
10.0
 16
0.0
 26
0.0
 36
1.0
 17
0.0
 27
0.0
 37
0.0
 40
703.4047525093470767
 41
2.4830729166666661
 42
50.0
 43
0.0
 44
0.0
 50
0.0
 51
0.0
 71
     0
 72
  2000
 73
     1
 74
     3
 75
     0
 76
     0
 77
     0
 78
     0
  0
ENDTAB
  0
TABLE
  2
LTYPE
 70
    18
  0
LTYPE
  2
CONTINUOUS
 70
     0
  3
Solid line
 72
    65
 73
     0
 40
0.0
  0
LTYPE
  2
HIDDEN
 70
     0
  3
Hidden __ __ __ __ __ __ __ __ __ __ __ __ __ __
 72
    65
 73
     2
 40
1.905
 49
1.27
 49
-0.635
  0
LTYPE
  2
PHANTOM
 70
     0
  3
Phantom ______  __  __  ______  __  __  ______
 72
    65
 73
     6
 40
12.6999999999999993
 49
6.3499999999999979
 49
-1.27
 49
1.27
 49
-1.27
 49
1.27
 49
-1.27
  0
LTYPE
  2
CENTER
 70
     0
  3
Center ____ _ ____ _ ____ _ ____ _ ____ _ ____
 72
    65
 73
     4
 40
10.1600000000000001
 49
6.3499999999999979
 49
-1.27
 49
1.27
 49
-1.27
  0
LTYPE
  2
CENTERX2
 70
     0
  3
Center (2x) ________  __  ________  __  _____
 72
    65
 73
     4
 40
20.3200000000000003
 49
12.6999999999999993
 49
-2.54
 49
2.54
 49
-2.54
  0
LTYPE
  2
DOT2
 70
     0
  3
Dot (.5x) ........................................
 72
    65
 73
     2
 40
0.635
 49
0.0
 49
-0.635
  0
LTYPE
  2
PHANTOM2
 70
     0
  3
Phantom (.5x) ___ _ _ ___ _ _ ___ _ _ ___ _ _
 72
    65
 73
     6
 40
31.75
 49
15.875
 49
-3.174999999999998
 49
3.174999999999998
 49
-3.174999999999998
 49
3.174999999999998
 49
-3.174999999999998
  0
LTYPE
  2
AM_ISO02W050
 70
     0
  3
__ __ __ __ __ __ __ __ __ __ __ __ __ __ __
 72
    65
 73
     2
 40
7.5
 49
6.0
 49
-1.5
  0
LTYPE
  2
AM_ISO08W050
 70
     0
  3
____ . ____ . ____ . ____ . ____ . ____ . ____
 72
    65
 73
     4
 40
18.0
 49
12.0
 49
-1.5
 49
3.0
 49
-1.5
  0
LTYPE
  2
AM_ISO09W050
 70
     0
  3
_____ . . _____ . . _____ . . ____ .. ____
 72
    65
 73
     6
 40
22.5
 49
12.0
 49
-1.5
 49
3.0
 49
-1.5
 49
3.0
 49
-1.5
  0
LTYPE
  2
AMCONSTR
 70
     0
  3
_______________________
 72
    65
 73
     2
 40
9999.0
 49
9999.0
 49
0.0
  0
LTYPE
  2
AM_ISO08W050X2
 70
     0
  3
__ . __ . __ . __ . __ . __
 72
    65
 73
     4
 40
9.0
 49
6.0
 49
-0.75
 49
1.5
 49
-0.75
  0
LTYPE
  2
AM_ISO02W050X2
 70
     0
  3
 _ _ _ _ _ _ _ _ _ _ _ _
 72
    65
 73
     2
 40
3.75
 49
3.0
 49
-0.75
  0
LTYPE
  2
AMZIGZAG
 70
     0
  3
/\/-/\/-/\/-/\/-/\/-/\/
 72
    65
 73
     2
 40
11.0000999999999998
 49
0.0001
 49
-11.0
  0
LTYPE
  2
ACISOWELD
 70
     0
  3
_ _ _ _ _
 72
    65
 73
     2
 40
2.0
 49
2.0
 49
-1.0
  0
LTYPE
  2
ACISOTGL
 70
     0
  3
_ _ _ _ _
 72
    65
 73
     2
 40
3.0
 49
2.0
 49
-1.0
  0
LTYPE
  2
ACISOTGB
 70
     0
  3
__ . . __ . .
 72
    65
 73
     6
 40
9.0
 49
4.0
 49
-1.0
 49
1.0
 49
-1.0
 49
1.0
 49
-1.0
  0
ENDTAB
  0
TABLE
  2
LAYER
 70
     7
  0
LAYER
  2
0
 70
     0
 62
     7
  6
CONTINUOUS
  0
LAYER
  2
FORMAT
 70
     0
 62
     7
  6
CONTINUOUS
  0
LAYER
  2
BORDER
 70
     0
 62
     7
  6
CONTINUOUS
  0
LAYER
  2
TRIM
 70
     0
 62
     7
  6
CONTINUOUS
  0
LAYER
  2
TEXT
 70
     0
 62
     7
  6
CONTINUOUS
  0
LAYER
  2
DIMENSIONS
 70
     0
 62
     5
  6
CONTINUOUS
  0
LAYER
  2
AM_5
 70
     0
 62
     3
  6
CONTINUOUS
  0
ENDTAB
  0
TABLE
  2
STYLE
 70
     9
  0
STYLE
  2
STANDARD
 70
     0
 40
0.0
 41
1.0
 50
0.0
 71
     0
 42
3.5
  3
txt
  4

  0
STYLE
  2
SLDTEXTSTYLE0
 70
     0
 40
0.0
 41
0.605
 50
0.0
 71
     0
 42
3.5
  3
TXT
  4

  0
STYLE
  2
SLDTEXTSTYLE1
 70
     0
 40
0.0
 41
0.57
 50
0.0
 71
     0
 42
3.5
  3
TXT
  4

  0
STYLE
  2
SLDTEXTSTYLE2
 70
     0
 40
0.0
 41
0.75
 50
0.0
 71
     0
 42
3.5
  3
TXT
  4

  0
STYLE
  2
SLDTEXTSTYLE3
 70
     0
 40
0.0
 41
0.605
 50
0.0
 71
     0
 42
3.5
  3
TXT
  4
bigfont
  0
STYLE
  2

 70
     1
 40
0.0
 41
1.0
 50
0.0
 71
     0
 42
3.5
  3
genltshp.shx
  4

  0
STYLE
  2
ACISOTS
 70
     0
 40
0.0
 41
1.0
 50
0.0
 71
     0
 42
3.5
  3
isocp.shx
  4

  0
STYLE
  2
ACISOGDT
 70
     0
 40
0.0
 41
1.0
 50
0.0
 71
     0
 42
3.5
  3
amgdt.shx
  4

  0
STYLE
  2
MtXpl_MS_PGothic
 70
     0
 40
0.0
 41
1.0
 50
0.0
 71
     0
 42
3.5
  3
txt
  4

  0
ENDTAB
  0
TABLE
  2
VIEW
 70
     0
  0
ENDTAB
  0
TABLE
  2
UCS
 70
     0
  0
ENDTAB
  0
TABLE
  2
APPID
 70
    11
  0
APPID
  2
ACAD
 70
     0
  0
APPID
  2
MCAD_NO_VIS
 70
     0
  0
APPID
  2
ACAD_TEMP_GRAPHIC
 70
     0
  0
APPID
  2
ACATTRIBSERVICES
 70
     0
  0
APPID
  2
DESIGNERASSEMBLIES
 70
     0
  0
APPID
  2
ACAD_DSTYLE_DIMJAG
 70
     0
  0
APPID
  2
ACAD_DSTYLE_DIMBREAK
 70
     0
  0
APPID
  2
ACAD_NAV_VCDISPLAY
 70
     0
  0
APPID
  2
ACAD_EXEMPT_FROM_CAD_STANDARDS
 70
     0
  0
APPID
  2
ACAECLAYERSTANDARD
 70
     0
  0
APPID
  2
ACAD_MLEADERVER
 70
     0
  0
ENDTAB
  0
TABLE
  2
DIMSTYLE
 70
    11
  0
DIMSTYLE
  2
ISO-25
 70
     0
  3

  4

  5

  6

  7

 40
1.0
 41
2.5
 42
0.625
 43
3.75
 44
1.25
 45
0.0
 46
0.0
 47
0.0
 48
0.0
140
2.5
141
2.5
142
0.0
143
0.0393700787
144
1.0
145
0.0
146
1.0
147
0.625
 71
     0
 72
     0
 73
     0
 74
     0
 75
     0
 76
     0
 77
     1
 78
     8
170
     0
171
     3
172
     1
173
     0
174
     0
175
     0
176
     0
177
     0
178
     0
  0
DIMSTYLE
  2
SLDDIMSTYLE0
 70
     0
  3

  4

  5

  6
NONE
  7

 40
1.0
 41
3.302
 42
0.0625
 43
0.38
 44
0.0
 45
0.000000001
 46
0.0
 47
0.0
 48
0.0
140
6.8791666666999989
141
0.0
142
0.0
143
25.3999999999999986
144
1.0
145
0.0
146
1.0
147
1.7197916666999991
 71
     0
 72
     0
 73
     1
 74
     1
 75
     0
 76
     0
 77
     0
 78
     4
170
     0
171
     2
172
     1
173
     1
174
     0
175
     0
176
     0
177
     0
178
     0
  0
DIMSTYLE
  2
SLDDIMSTYLE1
 70
     0
  3

  4

  5

  6

  7

 40
1.0
 41
3.302
 42
0.0625
 43
0.38
 44
0.0
 45
0.000000001
 46
0.0
 47
0.0
 48
0.0
140
6.8791666666999989
141
0.09
142
0.0
143
25.3999999999999986
144
1.0
145
0.0
146
1.0
147
1.7197916666999991
 71
     0
 72
     0
 73
     0
 74
     0
 75
     0
 76
     0
 77
     1
 78
     4
170
     0
171
     2
172
     0
173
     1
174
     0
175
     0
176
     0
177
     0
178
     0
  0
DIMSTYLE
  2
SLDDIMSTYLE2
 70
     0
  3

  4

  5

  6
NONE
  7

 40
1.0
 41
3.302
 42
0.0625
 43
0.38
 44
0.0
 45
0.000000001
 46
0.0
 47
0.0
 48
0.0
140
6.8791666666999989
141
0.0
142
0.0
143
25.3999999999999986
144
1.0
145
0.0
146
1.0
147
1.7197916666999991
 71
     0
 72
     0
 73
     1
 74
     1
 75
     0
 76
     0
 77
     0
 78
     4
170
     0
171
     2
172
     1
173
     1
174
     0
175
     0
176
     0
177
     0
178
     0
  0
DIMSTYLE
  2
AM_ISO
 70
     0
  3

  4
"
  5

  6

  7

 40
1.0
 41
3.5
 42
1.0
 43
10.0
 44
1.0
 45
0.0
 46
0.0
 47
0.1
 48
0.1
140
3.5
141
0.0
142
0.0
143
0.0393701
144
1.0
145
0.0
146
0.71
147
1.5
 71
     0
 72
     0
 73
     0
 74
     0
 75
     0
 76
     0
 77
     1
 78
     8
170
     0
171
     2
172
     1
173
     0
174
     0
175
     0
176
   256
177
   256
178
     2
  0
DIMSTYLE
  2
AM_ISO$3
 70
     0
  3

  4
"
  5

  6

  7

 40
1.0
 41
3.5
 42
1.0
 43
10.0
 44
1.0
 45
0.0
 46
0.0
 47
0.1
 48
0.1
140
3.5
141
0.0
142
0.0
143
0.0393701
144
1.0
145
0.0
146
0.71
147
1.5
 71
     0
 72
     0
 73
     0
 74
     1
 75
     0
 76
     0
 77
     1
 78
     8
170
     0
171
     2
172
     0
173
     0
174
     0
175
     0
176
   256
177
   256
178
     2
  0
DIMSTYLE
  2
AM_ISO$4
 70
     0
  3

  4
"
  5

  6

  7

 40
1.0
 41
3.5
 42
1.0
 43
10.0
 44
1.0
 45
0.0
 46
0.0
 47
0.1
 48
0.1
140
3.5
141
0.0
142
0.0
143
0.0393701
144
1.0
145
0.0
146
0.71
147
1.5
 71
     0
 72
     0
 73
     0
 74
     1
 75
     0
 76
     0
 77
     1
 78
     8
170
     0
171
     2
172
     0
173
     0
174
     0
175
     0
176
   256
177
   256
178
     2
  0
DIMSTYLE
  2
AM_ISO$6
 70
     0
  3

  4
"
  5

  6

  7

 40
1.0
 41
3.5
 42
1.0
 43
10.0
 44
1.0
 45
0.0
 46
0.0
 47
0.1
 48
0.1
140
3.5
141
0.0
142
0.0
143
0.0393701
144
1.0
145
0.0
146
0.71
147
1.5
 71
     0
 72
     0
 73
     0
 74
     0
 75
     0
 76
     0
 77
     0
 78
     8
170
     0
171
     2
172
     1
173
     0
174
     0
175
     0
176
   256
177
   256
178
     2
  0
DIMSTYLE
  2
AM_ISO$7
 70
     0
  3

  4
"
  5

  6

  7

 40
1.0
 41
3.5
 42
1.0
 43
10.0
 44
1.0
 45
0.0
 46
0.0
 47
0.1
 48
0.1
140
3.5
141
0.0
142
0.0
143
0.0393701
144
1.0
145
0.0
146
0.71
147
1.5
 71
     0
 72
     0
 73
     0
 74
     0
 75
     0
 76
     0
 77
     1
 78
     8
170
     0
171
     2
172
     1
173
     0
174
     0
175
     0
176
   256
177
   256
178
     2
  0
DIMSTYLE
  2
AM_ISO$SF
 70
     0
  3

  4
"
  5

  6

  7

 40
1.0
 41
3.5
 42
1.0
 43
10.0
 44
1.0
 45
0.0
 46
0.0
 47
0.1
 48
0.1
140
3.5
141
0.0
142
0.0
143
0.0393701
144
1.0
145
0.0
146
0.71
147
1.5
 71
     0
 72
     0
 73
     0
 74
     0
 75
     1
 76
     1
 77
     1
 78
     8
170
     0
171
     2
172
     1
173
     0
174
     0
175
     0
176
   256
177
   256
178
     2
  0
DIMSTYLE
  2
AM_ISO$SH
 70
     0
  3

  4
"
  5

  6
GENAXEH
  7

 40
1.0
 41
3.5
 42
1.0
 43
10.0
 44
1.0
 45
0.0
 46
0.0
 47
0.1
 48
0.1
140
3.5
141
0.0
142
0.0
143
0.0393701
144
2.0
145
0.0
146
0.71
147
1.5
 71
     0
 72
     0
 73
     0
 74
     0
 75
     1
 76
     1
 77
     1
 78
     8
170
     0
171
     2
172
     1
173
     1
174
     0
175
     0
176
   256
177
   256
178
     2
  0
ENDTAB
  0
ENDSEC
  0
SECTION
  2
BLOCKS
  0
BLOCK
  8
0
  2
$MODEL_SPACE
 70
     0
 10
0.0
 20
0.0
 30
0.0
  3
$MODEL_SPACE
  1

  0
ENDBLK
  5
21
  8
0
  0
BLOCK
 67
     1
  8
0
  2
$PAPER_SPACE
 70
     0
 10
0.0
 20
0.0
 30
0.0
  3
$PAPER_SPACE
  1

  0
ENDBLK
  5
1D
 67
     1
  8
0
  0
BLOCK
  8
0
  2
SW_NOTE_0
 70
     0
 10
0.0
 20
0.0
 30
0.0
  3
SW_NOTE_0
  1

  0
INSERT
  5
1B0
  8
0
  2
*U128
 10
0.0
 20
0.0
 30
0.0
  0
INSERT
  5
1B1
  8
0
  2
*U129
 10
0.0
 20
0.0
 30
0.0
  0
ENDBLK
  5
1AF
  8
0
  0
BLOCK
  8
0
  2
SW_NOTE_1
 70
     0
 10
0.0
 20
0.0
 30
0.0
  3
SW_NOTE_1
  1

  0
INSERT
  5
21C
  8
0
  2
*U231
 10
0.0
 20
0.0
 30
0.0
  0
INSERT
  5
21E
  8
0
  2
*U232
 10
0.0
 20
0.0
 30
0.0
  0
INSERT
  5
21F
  8
0
  2
*U233
 10
0.0
 20
0.0
 30
0.0
  0
INSERT
  5
220
  8
0
  2
*U234
 10
0.0
 20
0.0
 30
0.0
  0
ENDBLK
  5
21B
  8
0
  0
BLOCK
  8
0
  2
_NONE
 70
     0
 10
0.0
 20
0.0
 30
0.0
  3
_NONE
  1

  0
ENDBLK
  5
33C
  8
0
  0
BLOCK
  8
0
  2
_D
 70
     0
 10
0.0
 20
0.0
 30
0.0
  3
_D
  1

  0
SOLID
  5
340
  8
BORDER
 10
843.4328716339998664
 20
552.940227197600052
 30
0.0
 11
846.7194970606000197
 21
553.5396947156998522
 31
0.0
 12
846.3873276133999752
 22
554.4998610858998518
 32
0.0
 13
846.3873276133999752
 23
554.4998610858998518
 33
0.0
  0
LINE
  5
341
  8
BORDER
 10
843.4328716339998664
 20
552.940227197600052
 30
0.0
 11
853.8461672383999712
 21
556.5427056339000274
 31
0.0
  0
LINE
  5
342
  8
BORDER
 10
370.9100516716999891
 20
389.4710110899999904
 30
0.0
 11
843.4328716339998664
 21
552.940227197600052
 31
0.0
  0
LINE
  5
343
  8
BORDER
 10
853.8461672383999712
 20
556.5427056339000274
 30
0.0
 11
893.7671838062999541
 21
556.5427056339000274
 31
0.0
  0
INSERT
  5
344
  8
0
  2
*U235
 10
0.0
 20
0.0
 30
0.0
  0
INSERT
  5
345
  8
0
  2
*U236
 10
0.0
 20
0.0
 30
0.0
  0
ENDBLK
  5
33F
  8
0
  0
BLOCK
  8
0
  2
_D_1
 70
     0
 10
0.0
 20
0.0
 30
0.0
  3
_D_1
  1

  0
SOLID
  5
34B
  8
BORDER
 10
522.1714616527998487
 20
737.1810195350999493
 30
0.0
 11
525.4734616527999833
 21
736.6730195350997974
 31
0.0
 12
525.4734616527999833
 22
737.6890195350998738
 32
0.0
 13
525.4734616527999833
 23
737.6890195350998738
 33
0.0
  0
SOLID
  5
34C
  8
BORDER
 10
692.1714616527998487
 20
737.1810195350999493
 30
0.0
 11
688.8694616527998278
 21
737.6890195350998738
 31
0.0
 12
688.8694616527998278
 22
736.6730195350997974
 32
0.0
 13
688.8694616527998278
 23
736.6730195350997974
 33
0.0
  0
LINE
  5
34D
  8
BORDER
 10
522.1714616527998487
 20
687.2056191438000496
 30
0.0
 11
522.1714616527998487
 21
738.1810195350999493
 31
0.0
  0
LINE
  5
34E
  8
BORDER
 10
692.1714616527998487
 20
687.2056191438000496
 30
0.0
 11
692.1714616527998487
 21
738.1810195350999493
 31
0.0
  0
LINE
  5
34F
  8
BORDER
 10
522.1714616527998487
 20
737.1810195350999493
 30
0.0
 11
692.1714616527998487
 21
737.1810195350999493
 31
0.0
  0
INSERT
  5
350
  8
0
  2
*U237
 10
0.0
 20
0.0
 30
0.0
  0
ENDBLK
  5
34A
  8
0
  0
BLOCK
  8
0
  2
_D_2
 70
     0
 10
0.0
 20
0.0
 30
0.0
  3
_D_2
  1

  0
SOLID
  5
356
  8
BORDER
 10
741.0832550244000458
 20
666.2499441170997443
 30
0.0
 11
744.0286338694996857
 21
667.826653176700006
 31
0.0
 12
743.4185072691998357
 22
668.6390579597999704
 32
0.0
 13
743.4185072691998357
 23
668.6390579597999704
 33
0.0
  0
LINE
  5
357
  8
BORDER
 10
741.0832550244000458
 20
666.2499441170997443
 30
0.0
 11
759.5840313141000024
 21
680.1442686911000237
 31
0.0
  0
LINE
  5
358
  8
BORDER
 10
738.364577600700045
 20
664.2081818717999795
 30
0.0
 11
741.0832550244000458
 21
666.2499441170997443
 31
0.0
  0
LINE
  5
359
  8
BORDER
 10
759.5840313141000024
 20
680.1442686911000237
 30
0.0
 11
789.339170241799934
 21
680.1442686911000237
 31
0.0
  0
INSERT
  5
35A
  8
0
  2
*U238
 10
0.0
 20
0.0
 30
0.0
  0
INSERT
  5
35B
  8
0
  2
*U239
 10
0.0
 20
0.0
 30
0.0
  0
ENDBLK
  5
355
  8
0
  0
BLOCK
  8
0
  2
SW_CENTERMARKSYMBOL_0
 70
     0
 10
0.0
 20
0.0
 30
0.0
  3
SW_CENTERMARKSYMBOL_0
  1

  0
ARC
  5
35F
  8
BORDER
 62
     0
 10
196.1866211358999976
 20
142.5379236809000076
 30
0.0
 40
242.500000000000199
 50
216.0
 51
216.590678139299996
  0
ARC
  5
360
  8
BORDER
 62
     0
 10
196.1866211358999976
 20
142.5379236809000076
 30
0.0
 40
242.5000000000001137
 50
215.409321860700004
 51
216.0
  0
ARC
  5
361
  8
BORDER
 62
     0
 10
196.1866211358999976
 20
142.5379236809000076
 30
0.0
 40
242.5000000000001137
 50
180.0
 51
180.590678139299996
  0
ARC
  5
362
  8
BORDER
 62
     0
 10
196.1866211358999976
 20
142.5379236809000076
 30
0.0
 40
242.5000000000001137
 50
179.409321860700004
 51
180.0
  0
ARC
  5
363
  8
BORDER
 62
     0
 10
196.1866211358999976
 20
142.5379236809000076
 30
0.0
 40
242.500000000000199
 50
252.0
 51
252.590678139299996
  0
ARC
  5
364
  8
BORDER
 62
     0
 10
196.1866211358999976
 20
142.5379236809000076
 30
0.0
 40
242.500000000000199
 50
251.409321860700004
 51
252.0
  0
ARC
  5
365
  8
BORDER
 62
     0
 10
196.1866211358999976
 20
142.5379236809000076
 30
0.0
 40
242.500000000000199
 50
288.0
 51
288.590678139299996
  0
ARC
  5
366
  8
BORDER
 62
     0
 10
196.1866211358999976
 20
142.5379236809000076
 30
0.0
 40
242.500000000000199
 50
287.409321860700004
 51
288.0
  0
ARC
  5
367
  8
BORDER
 62
     0
 10
196.1866211358999976
 20
142.5379236809000076
 30
0.0
 40
242.5000000000001137
 50
324.0
 51
324.590678139299996
  0
ARC
  5
368
  8
BORDER
 62
     0
 10
196.1866211358999976
 20
142.5379236809000076
 30
0.0
 40
242.5000000000001137
 50
323.409321860700004
 51
324.0
  0
ARC
  5
369
  8
BORDER
 62
     0
 10
196.1866211358999976
 20
142.5379236809000076
 30
0.0
 40
242.500000000000199
 50
0.0
 51
0.5906781393000001
  0
ARC
  5
36A
  8
BORDER
 62
     0
 10
196.1866211358999976
 20
142.5379236809000076
 30
0.0
 40
242.500000000000199
 50
359.409321860700004
 51
0.0
  0
ARC
  5
36B
  8
BORDER
 62
     0
 10
196.1866211358999976
 20
142.5379236809000076
 30
0.0
 40
242.5000000000001137
 50
36.0
 51
36.5906781393000031
  0
ARC
  5
36C
  8
BORDER
 62
     0
 10
196.1866211358999976
 20
142.5379236809000076
 30
0.0
 40
242.5000000000001137
 50
35.4093218606999969
 51
36.0
  0
ARC
  5
36D
  8
BORDER
 62
     0
 10
196.1866211358999976
 20
142.5379236809000076
 30
0.0
 40
242.500000000000199
 50
72.0
 51
72.5906781392999818
  0
ARC
  5
36E
  8
BORDER
 62
     0
 10
196.1866211358999976
 20
142.5379236809000076
 30
0.0
 40
242.5000000000001137
 50
71.409321860700004
 51
72.0
  0
ARC
  5
36F
  8
BORDER
 62
     0
 10
196.1866211358999976
 20
142.5379236809000076
 30
0.0
 40
242.5000000000001137
 50
108.0
 51
108.590678139299996
  0
ARC
  5
370
  8
BORDER
 62
     0
 10
196.1866211358999976
 20
142.5379236809000076
 30
0.0
 40
242.5000000000001137
 50
107.409321860700004
 51
108.0
  0
ARC
  5
371
  8
BORDER
 62
     0
 10
196.1866211358999976
 20
142.5379236809000076
 30
0.0
 40
242.5000000000001137
 50
144.0
 51
144.590678139299996
  0
ARC
  5
372
  8
BORDER
 62
     0
 10
196.1866211358999976
 20
142.5379236809000076
 30
0.0
 40
242.5000000000001137
 50
143.409321860700004
 51
144.0
  0
ARC
  5
373
  8
BORDER
 62
     0
 10
196.1866211358999976
 20
142.5379236809000076
 30
0.0
 40
242.5000000000001137
 50
1.1813562786
 51
34.8186437214000009
  0
ARC
  5
374
  8
BORDER
 62
     0
 10
196.1866211358999976
 20
142.5379236809000076
 30
0.0
 40
242.5000000000001137
 50
37.1813562785999991
 51
70.8186437213999938
  0
ARC
  5
375
  8
BORDER
 62
     0
 10
196.1866211358999976
 20
142.5379236809000076
 30
0.0
 40
242.5000000000001137
 50
73.181356278599992
 51
106.8186437213999938
  0
ARC
  5
376
  8
BORDER
 62
     0
 10
196.1866211358999976
 20
142.5379236809000076
 30
0.0
 40
242.5000000000001137
 50
109.1813562786000062
 51
142.818643721400008
  0
ARC
  5
377
  8
BORDER
 62
     0
 10
196.1866211358999976
 20
142.5379236809000076
 30
0.0
 40
242.5000000000001137
 50
145.181356278599992
 51
178.818643721400008
  0
ARC
  5
378
  8
BORDER
 62
     0
 10
196.1866211358999976
 20
142.5379236809000076
 30
0.0
 40
242.5000000000001137
 50
181.181356278599992
 51
214.818643721400008
  0
ARC
  5
379
  8
BORDER
 62
     0
 10
196.1866211358999976
 20
142.5379236809000076
 30
0.0
 40
242.500000000000199
 50
217.181356278599992
 51
250.818643721400008
  0
ARC
  5
37A
  8
BORDER
 62
     0
 10
196.1866211358999976
 20
142.5379236809000076
 30
0.0
 40
242.5000000000001137
 50
253.181356278599992
 51
286.818643721400008
  0
ARC
  5
37B
  8
BORDER
 62
     0
 10
196.1866211358999976
 20
142.5379236809000076
 30
0.0
 40
242.5000000000001137
 50
289.181356278599992
 51
322.818643721400008
  0
ARC
  5
37C
  8
BORDER
 62
     0
 10
196.1866211358999976
 20
142.5379236809000076
 30
0.0
 40
242.5000000000001137
 50
325.181356278599992
 51
358.818643721400008
  0
LINE
  5
37D
  8
BORDER
 62
     0
 10
0.0
 20
0.0
 30
0.0
 11
-2.0225424858999981
 21
-1.469463130699999
 31
0.0
  0
LINE
  5
37E
  8
BORDER
 62
     0
 10
0.0
 20
0.0
 30
0.0
 11
2.0225424858999981
 21
1.469463130699999
 31
0.0
  0
LINE
  5
37F
  8
BORDER
 62
     0
 10
-2.0225424858999981
 20
-1.469463130699999
 30
0.0
 11
-3.3978713763999981
 21
-2.4686980595999981
 31
0.0
  0
LINE
  5
380
  8
BORDER
 62
     0
 10
2.0225424858999981
 20
1.469463130699999
 30
0.0
 11
3.3978713763999981
 21
2.4686980595999981
 31
0.0
  0
LINE
  5
381
  8
BORDER
 62
     0
 10
196.1866211358999976
 20
142.5379236809000076
 30
0.0
 11
196.1866211358999976
 21
145.0379236809000076
 31
0.0
  0
LINE
  5
382
  8
BORDER
 62
     0
 10
196.1866211358999976
 20
142.5379236809000076
 30
0.0
 11
193.6866211358999976
 21
142.5379236809000076
 31
0.0
  0
LINE
  5
383
  8
BORDER
 62
     0
 10
196.1866211358999976
 20
142.5379236809000076
 30
0.0
 11
196.1866211358999976
 21
140.0379236809000076
 31
0.0
  0
LINE
  5
384
  8
BORDER
 62
     0
 10
196.1866211358999976
 20
142.5379236809000076
 30
0.0
 11
198.6866211358999976
 21
142.5379236809000076
 31
0.0
  0
LINE
  5
385
  8
BORDER
 62
     0
 10
196.1866211358999976
 20
147.5379236809000076
 30
0.0
 11
196.1866211358999976
 21
387.5379236809000076
 31
0.0
  0
LINE
  5
386
  8
BORDER
 62
     0
 10
191.1866211358999976
 20
142.5379236809000076
 30
0.0
 11
-48.8133788640999811
 21
142.5379236809000076
 31
0.0
  0
LINE
  5
387
  8
BORDER
 62
     0
 10
196.1866211358999976
 20
137.5379236809000076
 30
0.0
 11
196.1866211358999976
 21
-102.4620763191000066
 31
0.0
  0
LINE
  5
388
  8
BORDER
 62
     0
 10
201.1866211358999976
 20
142.5379236809000076
 30
0.0
 11
441.1866211358998271
 21
142.5379236809000076
 31
0.0
  0
LINE
  5
389
  8
BORDER
 62
     0
 10
-46.3133788640999811
 20
142.5379236809000076
 30
0.0
 11
-48.8133788640999811
 21
142.5379236809000076
 31
0.0
  0
LINE
  5
38A
  8
BORDER
 62
     0
 10
-46.3133788640999811
 20
142.5379236809000076
 30
0.0
 11
-43.8133788640999811
 21
142.5379236809000076
 31
0.0
  0
LINE
  5
38B
  8
BORDER
 62
     0
 10
-48.8133788640999811
 20
142.5379236809000076
 30
0.0
 11
-50.513378864099991
 21
142.5379236809000076
 31
0.0
  0
LINE
  5
38C
  8
BORDER
 62
     0
 10
-43.8133788640999811
 20
142.5379236809000076
 30
0.0
 11
-42.1133788640999924
 21
142.5379236809000076
 31
0.0
  0
LINE
  5
38D
  8
BORDER
 62
     0
 10
121.25
 20
-88.0932815206000015
 30
0.0
 11
120.4774575140999957
 21
-90.470922811399987
 31
0.0
  0
LINE
  5
38E
  8
BORDER
 62
     0
 10
121.25
 20
-88.0932815206000015
 30
0.0
 11
122.0225424859000043
 21
-85.7156402299000035
 31
0.0
  0
LINE
  5
38F
  8
BORDER
 62
     0
 10
120.4774575140999957
 20
-90.470922811399987
 30
0.0
 11
119.9521286236000037
 21
-92.0877188891000031
 31
0.0
  0
LINE
  5
390
  8
BORDER
 62
     0
 10
122.0225424859000043
 20
-85.7156402299000035
 30
0.0
 11
122.5478713763999963
 21
-84.0988441522000016
 31
0.0
  0
LINE
  5
391
  8
BORDER
 62
     0
 10
271.1232422718999828
 20
-88.0932815206000015
 30
0.0
 11
271.8957847578000155
 21
-90.470922811399987
 31
0.0
  0
LINE
  5
392
  8
BORDER
 62
     0
 10
271.1232422718999828
 20
-88.0932815206000015
 30
0.0
 11
270.3506997859000194
 21
-85.7156402299000035
 31
0.0
  0
LINE
  5
393
  8
BORDER
 62
     0
 10
271.8957847578000155
 20
-90.470922811399987
 30
0.0
 11
272.4211136481999915
 21
-92.0877188891000031
 31
0.0
  0
LINE
  5
394
  8
BORDER
 62
     0
 10
270.3506997859000194
 20
-85.7156402299000035
 30
0.0
 11
269.8253708954999865
 21
-84.0988441522000016
 31
0.0
  0
LINE
  5
395
  8
BORDER
 62
     0
 10
392.3732422718999828
 20
0.0
 30
0.0
 11
394.3957847578000155
 21
-1.469463130699999
 31
0.0
  0
LINE
  5
396
  8
BORDER
 62
     0
 10
392.3732422718999828
 20
0.0
 30
0.0
 11
390.3506997859000194
 21
1.469463130699999
 31
0.0
  0
LINE
  5
397
  8
BORDER
 62
     0
 10
394.3957847578000155
 20
-1.469463130699999
 30
0.0
 11
395.7711136482000143
 21
-2.4686980595999981
 31
0.0
  0
LINE
  5
398
  8
BORDER
 62
     0
 10
390.3506997859000194
 20
1.469463130699999
 30
0.0
 11
388.9753708955000207
 21
2.4686980595999981
 31
0.0
  0
LINE
  5
399
  8
BORDER
 62
     0
 10
438.6866211358998839
 20
142.5379236809000076
 30
0.0
 11
441.1866211358998271
 21
142.5379236809000076
 31
0.0
  0
LINE
  5
39A
  8
BORDER
 62
     0
 10
438.6866211358998839
 20
142.5379236809000076
 30
0.0
 11
436.1866211358998271
 21
142.5379236809000076
 31
0.0
  0
LINE
  5
39B
  8
BORDER
 62
     0
 10
441.1866211358998271
 20
142.5379236809000076
 30
0.0
 11
442.8866211358998157
 21
142.5379236809000076
 31
0.0
  0
LINE
  5
39C
  8
BORDER
 62
     0
 10
436.1866211358998271
 20
142.5379236809000076
 30
0.0
 11
434.4866211358998953
 21
142.5379236809000076
 31
0.0
  0
LINE
  5
39D
  8
BORDER
 62
     0
 10
392.3732422717999953
 20
285.0758473619000029
 30
0.0
 11
394.3957847578000155
 21
286.545310492599981
 31
0.0
  0
LINE
  5
39E
  8
BORDER
 62
     0
 10
392.3732422717999953
 20
285.0758473619000029
 30
0.0
 11
390.3506997859000194
 21
283.6063842310999803
 31
0.0
  0
LINE
  5
39F
  8
BORDER
 62
     0
 10
394.3957847578000155
 20
286.545310492599981
 30
0.0
 11
395.7711136482000143
 21
287.5445454215000041
 31
0.0
  0
LINE
  5
3A0
  8
BORDER
 62
     0
 10
390.3506997859000194
 20
283.6063842310999803
 30
0.0
 11
388.9753708955000207
 21
282.6071493022000141
 31
0.0
  0
LINE
  5
3A1
  8
BORDER
 62
     0
 10
271.1232422717999953
 20
373.1691288824999901
 30
0.0
 11
271.8957847578000155
 21
375.5467701732000023
 31
0.0
  0
LINE
  5
3A2
  8
BORDER
 62
     0
 10
271.1232422717999953
 20
373.1691288824999901
 30
0.0
 11
270.3506997859000194
 21
370.791487591799978
 31
0.0
  0
LINE
  5
3A3
  8
BORDER
 62
     0
 10
271.8957847578000155
 20
375.5467701732000023
 30
0.0
 11
272.4211136481999915
 21
377.1635662508999758
 31
0.0
  0
LINE
  5
3A4
  8
BORDER
 62
     0
 10
270.3506997859000194
 20
370.791487591799978
 30
0.0
 11
269.8253708954999865
 21
369.1746915141000045
 31
0.0
  0
LINE
  5
3A5
  8
BORDER
 62
     0
 10
121.25
 20
373.1691288824999901
 30
0.0
 11
120.4774575140999957
 21
375.5467701732000023
 31
0.0
  0
LINE
  5
3A6
  8
BORDER
 62
     0
 10
121.25
 20
373.1691288824999901
 30
0.0
 11
122.0225424859000043
 21
370.791487591799978
 31
0.0
  0
LINE
  5
3A7
  8
BORDER
 62
     0
 10
120.4774575140999957
 20
375.5467701732000023
 30
0.0
 11
119.9521286236000037
 21
377.1635662508999758
 31
0.0
  0
LINE
  5
3A8
  8
BORDER
 62
     0
 10
122.0225424859000043
 20
370.791487591799978
 30
0.0
 11
122.5478713763999963
 21
369.1746915141000045
 31
0.0
  0
LINE
  5
3A9
  8
BORDER
 62
     0
 10
0.0
 20
285.0758473618000153
 30
0.0
 11
-2.0225424858999981
 21
286.545310492599981
 31
0.0
  0
LINE
  5
3AA
  8
BORDER
 62
     0
 10
0.0
 20
285.0758473618000153
 30
0.0
 11
2.0225424858999981
 21
283.6063842310999803
 31
0.0
  0
LINE
  5
3AB
  8
BORDER
 62
     0
 10
-2.0225424858999981
 20
286.545310492599981
 30
0.0
 11
-3.3978713763999981
 21
287.5445454215000041
 31
0.0
  0
LINE
  5
3AC
  8
BORDER
 62
     0
 10
2.0225424858999981
 20
283.6063842310999803
 30
0.0
 11
3.3978713763999981
 21
282.6071493022000141
 31
0.0
  0
ENDBLK
  5
35E
  8
0
  0
BLOCK
  8
0
  2
SW_CENTERMARKSYMBOL_1
 70
     0
 10
0.0
 20
0.0
 30
0.0
  3
SW_CENTERMARKSYMBOL_1
  1

  0
LINE
  5
3B1
  8
BORDER
 62
     0
 10
0.0
 20
0.0
 30
0.0
 11
0.0
 21
2.5
 31
0.0
  0
LINE
  5
3B2
  8
BORDER
 62
     0
 10
0.0
 20
0.0
 30
0.0
 11
-2.5
 21
0.0
 31
0.0
  0
LINE
  5
3B3
  8
BORDER
 62
     0
 10
0.0
 20
0.0
 30
0.0
 11
0.0
 21
-2.5
 31
0.0
  0
LINE
  5
3B4
  8
BORDER
 62
     0
 10
0.0
 20
0.0
 30
0.0
 11
2.5
 21
0.0
 31
0.0
  0
LINE
  5
3B5
  8
BORDER
 62
     0
 10
0.0
 20
2.5
 30
0.0
 11
0.0
 21
4.2000000000000002
 31
0.0
  0
LINE
  5
3B6
  8
BORDER
 62
     0
 10
-2.5
 20
0.0
 30
0.0
 11
-4.2000000000000002
 21
0.0
 31
0.0
  0
LINE
  5
3B7
  8
BORDER
 62
     0
 10
0.0
 20
-2.5
 30
0.0
 11
0.0
 21
-4.2000000000000002
 31
0.0
  0
LINE
  5
3B8
  8
BORDER
 62
     0
 10
2.5
 20
0.0
 30
0.0
 11
4.2000000000000002
 21
0.0
 31
0.0
  0
ENDBLK
  5
3B0
  8
0
  0
BLOCK
  8
0
  2
SW_CENTERMARKSYMBOL_2
 70
     0
 10
0.0
 20
0.0
 30
0.0
  3
SW_CENTERMARKSYMBOL_2
  1

  0
LINE
  5
3BD
  8
BORDER
 62
     0
 10
0.0
 20
0.0
 30
0.0
 11
0.0
 21
2.5
 31
0.0
  0
LINE
  5
3BE
  8
BORDER
 62
     0
 10
0.0
 20
0.0
 30
0.0
 11
-2.5
 21
0.0
 31
0.0
  0
LINE
  5
3BF
  8
BORDER
 62
     0
 10
0.0
 20
0.0
 30
0.0
 11
0.0
 21
-2.5
 31
0.0
  0
LINE
  5
3C0
  8
BORDER
 62
     0
 10
0.0
 20
0.0
 30
0.0
 11
2.5
 21
0.0
 31
0.0
  0
LINE
  5
3C1
  8
BORDER
 62
     0
 10
0.0
 20
2.5
 30
0.0
 11
0.0
 21
4.2000000000000002
 31
0.0
  0
LINE
  5
3C2
  8
BORDER
 62
     0
 10
-2.5
 20
0.0
 30
0.0
 11
-4.2000000000000002
 21
0.0
 31
0.0
  0
LINE
  5
3C3
  8
BORDER
 62
     0
 10
0.0
 20
-2.5
 30
0.0
 11
0.0
 21
-4.2000000000000002
 31
0.0
  0
LINE
  5
3C4
  8
BORDER
 62
     0
 10
2.5
 20
0.0
 30
0.0
 11
4.2000000000000002
 21
0.0
 31
0.0
  0
ENDBLK
  5
3BC
  8
0
  0
BLOCK
  8
0
  2
SW_CENTERMARKSYMBOL_3
 70
     0
 10
0.0
 20
0.0
 30
0.0
  3
SW_CENTERMARKSYMBOL_3
  1

  0
LINE
  5
3C9
  8
BORDER
 62
     0
 10
0.0
 20
0.0
 30
0.0
 11
0.0
 21
2.5
 31
0.0
  0
LINE
  5
3CA
  8
BORDER
 62
     0
 10
0.0
 20
0.0
 30
0.0
 11
-2.5
 21
0.0
 31
0.0
  0
LINE
  5
3CB
  8
BORDER
 62
     0
 10
0.0
 20
0.0
 30
0.0
 11
0.0
 21
-2.5
 31
0.0
  0
LINE
  5
3CC
  8
BORDER
 62
     0
 10
0.0
 20
0.0
 30
0.0
 11
2.5
 21
0.0
 31
0.0
  0
LINE
  5
3CD
  8
BORDER
 62
     0
 10
0.0
 20
2.5
 30
0.0
 11
0.0
 21
4.2000000000000002
 31
0.0
  0
LINE
  5
3CE
  8
BORDER
 62
     0
 10
-2.5
 20
0.0
 30
0.0
 11
-4.2000000000000002
 21
0.0
 31
0.0
  0
LINE
  5
3CF
  8
BORDER
 62
     0
 10
0.0
 20
-2.5
 30
0.0
 11
0.0
 21
-4.2000000000000002
 31
0.0
  0
LINE
  5
3D0
  8
BORDER
 62
     0
 10
2.5
 20
0.0
 30
0.0
 11
4.2000000000000002
 21
0.0
 31
0.0
  0
ENDBLK
  5
3C8
  8
0
  0
BLOCK
  8
0
  2
SW_CENTERMARKSYMBOL_4
 70
     0
 10
0.0
 20
0.0
 30
0.0
  3
SW_CENTERMARKSYMBOL_4
  1

  0
LINE
  5
3D5
  8
BORDER
 62
     0
 10
0.0
 20
0.0
 30
0.0
 11
0.0
 21
2.5
 31
0.0
  0
LINE
  5
3D6
  8
BORDER
 62
     0
 10
0.0
 20
0.0
 30
0.0
 11
-2.5
 21
0.0
 31
0.0
  0
LINE
  5
3D7
  8
BORDER
 62
     0
 10
0.0
 20
0.0
 30
0.0
 11
0.0
 21
-2.5
 31
0.0
  0
LINE
  5
3D8
  8
BORDER
 62
     0
 10
0.0
 20
0.0
 30
0.0
 11
2.5
 21
0.0
 31
0.0
  0
LINE
  5
3D9
  8
BORDER
 62
     0
 10
0.0
 20
2.5
 30
0.0
 11
0.0
 21
4.2000000000000002
 31
0.0
  0
LINE
  5
3DA
  8
BORDER
 62
     0
 10
-2.5
 20
0.0
 30
0.0
 11
-4.2000000000000002
 21
0.0
 31
0.0
  0
LINE
  5
3DB
  8
BORDER
 62
     0
 10
0.0
 20
-2.5
 30
0.0
 11
0.0
 21
-4.2000000000000002
 31
0.0
  0
LINE
  5
3DC
  8
BORDER
 62
     0
 10
2.5
 20
0.0
 30
0.0
 11
4.2000000000000002
 21
0.0
 31
0.0
  0
ENDBLK
  5
3D4
  8
0
  0
BLOCK
  8
0
  2
SW_CENTERMARKSYMBOL_5
 70
     0
 10
0.0
 20
0.0
 30
0.0
  3
SW_CENTERMARKSYMBOL_5
  1

  0
LINE
  5
3E1
  8
BORDER
 62
     0
 10
0.0
 20
0.0
 30
0.0
 11
0.0
 21
2.5
 31
0.0
  0
LINE
  5
3E2
  8
BORDER
 62
     0
 10
0.0
 20
0.0
 30
0.0
 11
-2.5
 21
0.0
 31
0.0
  0
LINE
  5
3E3
  8
BORDER
 62
     0
 10
0.0
 20
0.0
 30
0.0
 11
0.0
 21
-2.5
 31
0.0
  0
LINE
  5
3E4
  8
BORDER
 62
     0
 10
0.0
 20
0.0
 30
0.0
 11
2.5
 21
0.0
 31
0.0
  0
LINE
  5
3E5
  8
BORDER
 62
     0
 10
0.0
 20
2.5
 30
0.0
 11
0.0
 21
4.2000000000000002
 31
0.0
  0
LINE
  5
3E6
  8
BORDER
 62
     0
 10
-2.5
 20
0.0
 30
0.0
 11
-4.2000000000000002
 21
0.0
 31
0.0
  0
LINE
  5
3E7
  8
BORDER
 62
     0
 10
0.0
 20
-2.5
 30
0.0
 11
0.0
 21
-4.2000000000000002
 31
0.0
  0
LINE
  5
3E8
  8
BORDER
 62
     0
 10
2.5
 20
0.0
 30
0.0
 11
4.2000000000000002
 21
0.0
 31
0.0
  0
ENDBLK
  5
3E0
  8
0
  0
BLOCK
  8
0
  2
SW_CENTERMARKSYMBOL_6
 70
     0
 10
0.0
 20
0.0
 30
0.0
  3
SW_CENTERMARKSYMBOL_6
  1

  0
LINE
  5
3ED
  8
BORDER
 62
     0
 10
0.0
 20
0.0
 30
0.0
 11
0.0
 21
2.5
 31
0.0
  0
LINE
  5
3EE
  8
BORDER
 62
     0
 10
0.0
 20
0.0
 30
0.0
 11
-2.5
 21
0.0
 31
0.0
  0
LINE
  5
3EF
  8
BORDER
 62
     0
 10
0.0
 20
0.0
 30
0.0
 11
0.0
 21
-2.5
 31
0.0
  0
LINE
  5
3F0
  8
BORDER
 62
     0
 10
0.0
 20
0.0
 30
0.0
 11
2.5
 21
0.0
 31
0.0
  0
LINE
  5
3F1
  8
BORDER
 62
     0
 10
0.0
 20
2.5
 30
0.0
 11
0.0
 21
4.2000000000000002
 31
0.0
  0
LINE
  5
3F2
  8
BORDER
 62
     0
 10
-2.5
 20
0.0
 30
0.0
 11
-4.2000000000000002
 21
0.0
 31
0.0
  0
LINE
  5
3F3
  8
BORDER
 62
     0
 10
0.0
 20
-2.5
 30
0.0
 11
0.0
 21
-4.2000000000000002
 31
0.0
  0
LINE
  5
3F4
  8
BORDER
 62
     0
 10
2.5
 20
0.0
 30
0.0
 11
4.2000000000000002
 21
0.0
 31
0.0
  0
ENDBLK
  5
3EC
  8
0
  0
BLOCK
  8
0
  2
SW_CENTERMARKSYMBOL_7
 70
     0
 10
0.0
 20
0.0
 30
0.0
  3
SW_CENTERMARKSYMBOL_7
  1

  0
LINE
  5
3F9
  8
BORDER
 62
     0
 10
0.0
 20
0.0
 30
0.0
 11
0.0
 21
2.5
 31
0.0
  0
LINE
  5
3FA
  8
BORDER
 62
     0
 10
0.0
 20
0.0
 30
0.0
 11
-2.5
 21
0.0
 31
0.0
  0
LINE
  5
3FB
  8
BORDER
 62
     0
 10
0.0
 20
0.0
 30
0.0
 11
0.0
 21
-2.5
 31
0.0
  0
LINE
  5
3FC
  8
BORDER
 62
     0
 10
0.0
 20
0.0
 30
0.0
 11
2.5
 21
0.0
 31
0.0
  0
LINE
  5
3FD
  8
BORDER
 62
     0
 10
0.0
 20
2.5
 30
0.0
 11
0.0
 21
4.2000000000000002
 31
0.0
  0
LINE
  5
3FE
  8
BORDER
 62
     0
 10
-2.5
 20
0.0
 30
0.0
 11
-4.2000000000000002
 21
0.0
 31
0.0
  0
LINE
  5
3FF
  8
BORDER
 62
     0
 10
0.0
 20
-2.5
 30
0.0
 11
0.0
 21
-4.2000000000000002
 31
0.0
  0
LINE
  5
400
  8
BORDER
 62
     0
 10
2.5
 20
0.0
 30
0.0
 11
4.2000000000000002
 21
0.0
 31
0.0
  0
ENDBLK
  5
3F8
  8
0
  0
BLOCK
  8
0
  2
SW_CENTERMARKSYMBOL_8
 70
     0
 10
0.0
 20
0.0
 30
0.0
  3
SW_CENTERMARKSYMBOL_8
  1

  0
LINE
  5
405
  8
BORDER
 62
     0
 10
0.0
 20
0.0
 30
0.0
 11
0.0
 21
2.5
 31
0.0
  0
LINE
  5
406
  8
BORDER
 62
     0
 10
0.0
 20
0.0
 30
0.0
 11
-2.5
 21
0.0
 31
0.0
  0
LINE
  5
407
  8
BORDER
 62
     0
 10
0.0
 20
0.0
 30
0.0
 11
0.0
 21
-2.5
 31
0.0
  0
LINE
  5
408
  8
BORDER
 62
     0
 10
0.0
 20
0.0
 30
0.0
 11
2.5
 21
0.0
 31
0.0
  0
LINE
  5
409
  8
BORDER
 62
     0
 10
0.0
 20
2.5
 30
0.0
 11
0.0
 21
4.2000000000000002
 31
0.0
  0
LINE
  5
40A
  8
BORDER
 62
     0
 10
-2.5
 20
0.0
 30
0.0
 11
-4.2000000000000002
 21
0.0
 31
0.0
  0
LINE
  5
40B
  8
BORDER
 62
     0
 10
0.0
 20
-2.5
 30
0.0
 11
0.0
 21
-4.2000000000000002
 31
0.0
  0
LINE
  5
40C
  8
BORDER
 62
     0
 10
2.5
 20
0.0
 30
0.0
 11
4.2000000000000002
 21
0.0
 31
0.0
  0
ENDBLK
  5
404
  8
0
  0
BLOCK
  8
0
  2
SW_CENTERMARKSYMBOL_9
 70
     0
 10
0.0
 20
0.0
 30
0.0
  3
SW_CENTERMARKSYMBOL_9
  1

  0
LINE
  5
411
  8
BORDER
 62
     0
 10
0.0
 20
0.0
 30
0.0
 11
0.0
 21
2.5
 31
0.0
  0
LINE
  5
412
  8
BORDER
 62
     0
 10
0.0
 20
0.0
 30
0.0
 11
-2.5
 21
0.0
 31
0.0
  0
LINE
  5
413
  8
BORDER
 62
     0
 10
0.0
 20
0.0
 30
0.0
 11
0.0
 21
-2.5
 31
0.0
  0
LINE
  5
414
  8
BORDER
 62
     0
 10
0.0
 20
0.0
 30
0.0
 11
2.5
 21
0.0
 31
0.0
  0
LINE
  5
415
  8
BORDER
 62
     0
 10
0.0
 20
2.5
 30
0.0
 11
0.0
 21
4.2000000000000002
 31
0.0
  0
LINE
  5
416
  8
BORDER
 62
     0
 10
-2.5
 20
0.0
 30
0.0
 11
-4.2000000000000002
 21
0.0
 31
0.0
  0
LINE
  5
417
  8
BORDER
 62
     0
 10
0.0
 20
-2.5
 30
0.0
 11
0.0
 21
-4.2000000000000002
 31
0.0
  0
LINE
  5
418
  8
BORDER
 62
     0
 10
2.5
 20
0.0
 30
0.0
 11
4.2000000000000002
 21
0.0
 31
0.0
  0
ENDBLK
  5
410
  8
0
  0
BLOCK
  8
0
  2
SW_CENTERMARKSYMBOL_10
 70
     0
 10
0.0
 20
0.0
 30
0.0
  3
SW_CENTERMARKSYMBOL_10
  1

  0
LINE
  5
41D
  8
BORDER
 62
     0
 10
0.0
 20
0.0
 30
0.0
 11
0.0
 21
2.5
 31
0.0
  0
LINE
  5
41E
  8
BORDER
 62
     0
 10
0.0
 20
0.0
 30
0.0
 11
-2.5
 21
0.0
 31
0.0
  0
LINE
  5
41F
  8
BORDER
 62
     0
 10
0.0
 20
0.0
 30
0.0
 11
0.0
 21
-2.5
 31
0.0
  0
LINE
  5
420
  8
BORDER
 62
     0
 10
0.0
 20
0.0
 30
0.0
 11
2.5
 21
0.0
 31
0.0
  0
LINE
  5
421
  8
BORDER
 62
     0
 10
0.0
 20
2.5
 30
0.0
 11
0.0
 21
4.2000000000000002
 31
0.0
  0
LINE
  5
422
  8
BORDER
 62
     0
 10
-2.5
 20
0.0
 30
0.0
 11
-4.2000000000000002
 21
0.0
 31
0.0
  0
LINE
  5
423
  8
BORDER
 62
     0
 10
0.0
 20
-2.5
 30
0.0
 11
0.0
 21
-4.2000000000000002
 31
0.0
  0
LINE
  5
424
  8
BORDER
 62
     0
 10
2.5
 20
0.0
 30
0.0
 11
4.2000000000000002
 21
0.0
 31
0.0
  0
ENDBLK
  5
41C
  8
0
  0
BLOCK
  8
0
  2
SW_CENTERMARKSYMBOL_11
 70
     0
 10
0.0
 20
0.0
 30
0.0
  3
SW_CENTERMARKSYMBOL_11
  1

  0
LINE
  5
429
  8
BORDER
 62
     0
 10
0.0
 20
0.0
 30
0.0
 11
0.0
 21
2.5
 31
0.0
  0
LINE
  5
42A
  8
BORDER
 62
     0
 10
0.0
 20
0.0
 30
0.0
 11
-2.5
 21
0.0
 31
0.0
  0
LINE
  5
42B
  8
BORDER
 62
     0
 10
0.0
 20
0.0
 30
0.0
 11
0.0
 21
-2.5
 31
0.0
  0
LINE
  5
42C
  8
BORDER
 62
     0
 10
0.0
 20
0.0
 30
0.0
 11
2.5
 21
0.0
 31
0.0
  0
LINE
  5
42D
  8
BORDER
 62
     0
 10
0.0
 20
2.5
 30
0.0
 11
0.0
 21
4.299999999999998
 31
0.0
  0
LINE
  5
42E
  8
BORDER
 62
     0
 10
-2.5
 20
0.0
 30
0.0
 11
-4.299999999999998
 21
0.0
 31
0.0
  0
LINE
  5
42F
  8
BORDER
 62
     0
 10
0.0
 20
-2.5
 30
0.0
 11
0.0
 21
-4.299999999999998
 31
0.0
  0
LINE
  5
430
  8
BORDER
 62
     0
 10
2.5
 20
0.0
 30
0.0
 11
4.299999999999998
 21
0.0
 31
0.0
  0
ENDBLK
  5
428
  8
0
  0
BLOCK
  8
0
  2
SW_CENTERMARKSYMBOL_12
 70
     0
 10
0.0
 20
0.0
 30
0.0
  3
SW_CENTERMARKSYMBOL_12
  1

  0
LINE
  5
435
  8
BORDER
 62
     0
 10
0.0
 20
0.0
 30
0.0
 11
0.0
 21
2.5
 31
0.0
  0
LINE
  5
436
  8
BORDER
 62
     0
 10
0.0
 20
0.0
 30
0.0
 11
-2.5
 21
0.0
 31
0.0
  0
LINE
  5
437
  8
BORDER
 62
     0
 10
0.0
 20
0.0
 30
0.0
 11
0.0
 21
-2.5
 31
0.0
  0
LINE
  5
438
  8
BORDER
 62
     0
 10
0.0
 20
0.0
 30
0.0
 11
2.5
 21
0.0
 31
0.0
  0
LINE
  5
439
  8
BORDER
 62
     0
 10
0.0
 20
2.5
 30
0.0
 11
0.0
 21
4.299999999999998
 31
0.0
  0
LINE
  5
43A
  8
BORDER
 62
     0
 10
-2.5
 20
0.0
 30
0.0
 11
-4.299999999999998
 21
0.0
 31
0.0
  0
LINE
  5
43B
  8
BORDER
 62
     0
 10
0.0
 20
-2.5
 30
0.0
 11
0.0
 21
-4.299999999999998
 31
0.0
  0
LINE
  5
43C
  8
BORDER
 62
     0
 10
2.5
 20
0.0
 30
0.0
 11
4.299999999999998
 21
0.0
 31
0.0
  0
ENDBLK
  5
434
  8
0
  0
BLOCK
  8
0
  2
SW_CENTERMARKSYMBOL_13
 70
     0
 10
0.0
 20
0.0
 30
0.0
  3
SW_CENTERMARKSYMBOL_13
  1

  0
LINE
  5
441
  8
BORDER
 62
     0
 10
0.0
 20
0.0
 30
0.0
 11
0.0
 21
2.5
 31
0.0
  0
LINE
  5
442
  8
BORDER
 62
     0
 10
0.0
 20
0.0
 30
0.0
 11
-2.5
 21
0.0
 31
0.0
  0
LINE
  5
443
  8
BORDER
 62
     0
 10
0.0
 20
0.0
 30
0.0
 11
0.0
 21
-2.5
 31
0.0
  0
LINE
  5
444
  8
BORDER
 62
     0
 10
0.0
 20
0.0
 30
0.0
 11
2.5
 21
0.0
 31
0.0
  0
LINE
  5
445
  8
BORDER
 62
     0
 10
0.0
 20
2.5
 30
0.0
 11
0.0
 21
4.299999999999998
 31
0.0
  0
LINE
  5
446
  8
BORDER
 62
     0
 10
-2.5
 20
0.0
 30
0.0
 11
-4.299999999999998
 21
0.0
 31
0.0
  0
LINE
  5
447
  8
BORDER
 62
     0
 10
0.0
 20
-2.5
 30
0.0
 11
0.0
 21
-4.299999999999998
 31
0.0
  0
LINE
  5
448
  8
BORDER
 62
     0
 10
2.5
 20
0.0
 30
0.0
 11
4.299999999999998
 21
0.0
 31
0.0
  0
ENDBLK
  5
440
  8
0
  0
BLOCK
  8
0
  2
SW_CENTERMARKSYMBOL_14
 70
     0
 10
0.0
 20
0.0
 30
0.0
  3
SW_CENTERMARKSYMBOL_14
  1

  0
LINE
  5
44D
  8
BORDER
 62
     0
 10
0.0
 20
0.0
 30
0.0
 11
0.0
 21
2.5
 31
0.0
  0
LINE
  5
44E
  8
BORDER
 62
     0
 10
0.0
 20
0.0
 30
0.0
 11
-2.5
 21
0.0
 31
0.0
  0
LINE
  5
44F
  8
BORDER
 62
     0
 10
0.0
 20
0.0
 30
0.0
 11
0.0
 21
-2.5
 31
0.0
  0
LINE
  5
450
  8
BORDER
 62
     0
 10
0.0
 20
0.0
 30
0.0
 11
2.5
 21
0.0
 31
0.0
  0
LINE
  5
451
  8
BORDER
 62
     0
 10
0.0
 20
2.5
 30
0.0
 11
0.0
 21
4.299999999999998
 31
0.0
  0
LINE
  5
452
  8
BORDER
 62
     0
 10
-2.5
 20
0.0
 30
0.0
 11
-4.299999999999998
 21
0.0
 31
0.0
  0
LINE
  5
453
  8
BORDER
 62
     0
 10
0.0
 20
-2.5
 30
0.0
 11
0.0
 21
-4.299999999999998
 31
0.0
  0
LINE
  5
454
  8
BORDER
 62
     0
 10
2.5
 20
0.0
 30
0.0
 11
4.299999999999998
 21
0.0
 31
0.0
  0
ENDBLK
  5
44C
  8
0
  0
BLOCK
  8
0
  2
SW_CENTERMARKSYMBOL_15
 70
     0
 10
0.0
 20
0.0
 30
0.0
  3
SW_CENTERMARKSYMBOL_15
  1

  0
LINE
  5
459
  8
BORDER
 62
     0
 10
0.0
 20
0.0
 30
0.0
 11
0.0
 21
2.5
 31
0.0
  0
LINE
  5
45A
  8
BORDER
 62
     0
 10
0.0
 20
0.0
 30
0.0
 11
-2.5
 21
0.0
 31
0.0
  0
LINE
  5
45B
  8
BORDER
 62
     0
 10
0.0
 20
0.0
 30
0.0
 11
0.0
 21
-2.5
 31
0.0
  0
LINE
  5
45C
  8
BORDER
 62
     0
 10
0.0
 20
0.0
 30
0.0
 11
2.5
 21
0.0
 31
0.0
  0
LINE
  5
45D
  8
BORDER
 62
     0
 10
0.0
 20
2.5
 30
0.0
 11
0.0
 21
4.299999999999998
 31
0.0
  0
LINE
  5
45E
  8
BORDER
 62
     0
 10
-2.5
 20
0.0
 30
0.0
 11
-4.299999999999998
 21
0.0
 31
0.0
  0
LINE
  5
45F
  8
BORDER
 62
     0
 10
0.0
 20
-2.5
 30
0.0
 11
0.0
 21
-4.299999999999998
 31
0.0
  0
LINE
  5
460
  8
BORDER
 62
     0
 10
2.5
 20
0.0
 30
0.0
 11
4.299999999999998
 21
0.0
 31
0.0
  0
ENDBLK
  5
458
  8
0
  0
BLOCK
  8
0
  2
SW_CENTERMARKSYMBOL_16
 70
     0
 10
0.0
 20
0.0
 30
0.0
  3
SW_CENTERMARKSYMBOL_16
  1

  0
LINE
  5
465
  8
BORDER
 62
     0
 10
0.0
 20
0.0
 30
0.0
 11
0.0
 21
2.5
 31
0.0
  0
LINE
  5
466
  8
BORDER
 62
     0
 10
0.0
 20
0.0
 30
0.0
 11
-2.5
 21
0.0
 31
0.0
  0
LINE
  5
467
  8
BORDER
 62
     0
 10
0.0
 20
0.0
 30
0.0
 11
0.0
 21
-2.5
 31
0.0
  0
LINE
  5
468
  8
BORDER
 62
     0
 10
0.0
 20
0.0
 30
0.0
 11
2.5
 21
0.0
 31
0.0
  0
LINE
  5
469
  8
BORDER
 62
     0
 10
0.0
 20
2.5
 30
0.0
 11
0.0
 21
4.299999999999998
 31
0.0
  0
LINE
  5
46A
  8
BORDER
 62
     0
 10
-2.5
 20
0.0
 30
0.0
 11
-4.299999999999998
 21
0.0
 31
0.0
  0
LINE
  5
46B
  8
BORDER
 62
     0
 10
0.0
 20
-2.5
 30
0.0
 11
0.0
 21
-4.299999999999998
 31
0.0
  0
LINE
  5
46C
  8
BORDER
 62
     0
 10
2.5
 20
0.0
 30
0.0
 11
4.299999999999998
 21
0.0
 31
0.0
  0
ENDBLK
  5
464
  8
0
  0
BLOCK
  8
0
  2
SW_CENTERMARKSYMBOL_17
 70
     0
 10
0.0
 20
0.0
 30
0.0
  3
SW_CENTERMARKSYMBOL_17
  1

  0
LINE
  5
471
  8
BORDER
 62
     0
 10
0.0
 20
0.0
 30
0.0
 11
0.0
 21
2.5
 31
0.0
  0
LINE
  5
472
  8
BORDER
 62
     0
 10
0.0
 20
0.0
 30
0.0
 11
-2.5
 21
0.0
 31
0.0
  0
LINE
  5
473
  8
BORDER
 62
     0
 10
0.0
 20
0.0
 30
0.0
 11
0.0
 21
-2.5
 31
0.0
  0
LINE
  5
474
  8
BORDER
 62
     0
 10
0.0
 20
0.0
 30
0.0
 11
2.5
 21
0.0
 31
0.0
  0
LINE
  5
475
  8
BORDER
 62
     0
 10
0.0
 20
2.5
 30
0.0
 11
0.0
 21
4.299999999999998
 31
0.0
  0
LINE
  5
476
  8
BORDER
 62
     0
 10
-2.5
 20
0.0
 30
0.0
 11
-4.299999999999998
 21
0.0
 31
0.0
  0
LINE
  5
477
  8
BORDER
 62
     0
 10
0.0
 20
-2.5
 30
0.0
 11
0.0
 21
-4.299999999999998
 31
0.0
  0
LINE
  5
478
  8
BORDER
 62
     0
 10
2.5
 20
0.0
 30
0.0
 11
4.299999999999998
 21
0.0
 31
0.0
  0
ENDBLK
  5
470
  8
0
  0
BLOCK
  8
0
  2
SW_CENTERMARKSYMBOL_18
 70
     0
 10
0.0
 20
0.0
 30
0.0
  3
SW_CENTERMARKSYMBOL_18
  1

  0
LINE
  5
47D
  8
BORDER
 62
     0
 10
0.0
 20
0.0
 30
0.0
 11
0.0
 21
2.5
 31
0.0
  0
LINE
  5
47E
  8
BORDER
 62
     0
 10
0.0
 20
0.0
 30
0.0
 11
-2.5
 21
0.0
 31
0.0
  0
LINE
  5
47F
  8
BORDER
 62
     0
 10
0.0
 20
0.0
 30
0.0
 11
0.0
 21
-2.5
 31
0.0
  0
LINE
  5
480
  8
BORDER
 62
     0
 10
0.0
 20
0.0
 30
0.0
 11
2.5
 21
0.0
 31
0.0
  0
LINE
  5
481
  8
BORDER
 62
     0
 10
0.0
 20
2.5
 30
0.0
 11
0.0
 21
4.299999999999998
 31
0.0
  0
LINE
  5
482
  8
BORDER
 62
     0
 10
-2.5
 20
0.0
 30
0.0
 11
-4.299999999999998
 21
0.0
 31
0.0
  0
LINE
  5
483
  8
BORDER
 62
     0
 10
0.0
 20
-2.5
 30
0.0
 11
0.0
 21
-4.299999999999998
 31
0.0
  0
LINE
  5
484
  8
BORDER
 62
     0
 10
2.5
 20
0.0
 30
0.0
 11
4.299999999999998
 21
0.0
 31
0.0
  0
ENDBLK
  5
47C
  8
0
  0
BLOCK
  8
0
  2
SW_CENTERMARKSYMBOL_19
 70
     0
 10
0.0
 20
0.0
 30
0.0
  3
SW_CENTERMARKSYMBOL_19
  1

  0
LINE
  5
489
  8
BORDER
 62
     0
 10
0.0
 20
0.0
 30
0.0
 11
0.0
 21
2.5
 31
0.0
  0
LINE
  5
48A
  8
BORDER
 62
     0
 10
0.0
 20
0.0
 30
0.0
 11
-2.5
 21
0.0
 31
0.0
  0
LINE
  5
48B
  8
BORDER
 62
     0
 10
0.0
 20
0.0
 30
0.0
 11
0.0
 21
-2.5
 31
0.0
  0
LINE
  5
48C
  8
BORDER
 62
     0
 10
0.0
 20
0.0
 30
0.0
 11
2.5
 21
0.0
 31
0.0
  0
LINE
  5
48D
  8
BORDER
 62
     0
 10
0.0
 20
2.5
 30
0.0
 11
0.0
 21
4.299999999999998
 31
0.0
  0
LINE
  5
48E
  8
BORDER
 62
     0
 10
-2.5
 20
0.0
 30
0.0
 11
-4.299999999999998
 21
0.0
 31
0.0
  0
LINE
  5
48F
  8
BORDER
 62
     0
 10
0.0
 20
-2.5
 30
0.0
 11
0.0
 21
-4.299999999999998
 31
0.0
  0
LINE
  5
490
  8
BORDER
 62
     0
 10
2.5
 20
0.0
 30
0.0
 11
4.299999999999998
 21
0.0
 31
0.0
  0
ENDBLK
  5
488
  8
0
  0
BLOCK
  8
0
  2
SW_CENTERMARKSYMBOL_20
 70
     0
 10
0.0
 20
0.0
 30
0.0
  3
SW_CENTERMARKSYMBOL_20
  1

  0
LINE
  5
495
  8
BORDER
 62
     0
 10
0.0
 20
0.0
 30
0.0
 11
0.0
 21
2.5
 31
0.0
  0
LINE
  5
496
  8
BORDER
 62
     0
 10
0.0
 20
0.0
 30
0.0
 11
-2.5
 21
0.0
 31
0.0
  0
LINE
  5
497
  8
BORDER
 62
     0
 10
0.0
 20
0.0
 30
0.0
 11
0.0
 21
-2.5
 31
0.0
  0
LINE
  5
498
  8
BORDER
 62
     0
 10
0.0
 20
0.0
 30
0.0
 11
2.5
 21
0.0
 31
0.0
  0
LINE
  5
499
  8
BORDER
 62
     0
 10
0.0
 20
2.5
 30
0.0
 11
0.0
 21
4.299999999999998
 31
0.0
  0
LINE
  5
49A
  8
BORDER
 62
     0
 10
-2.5
 20
0.0
 30
0.0
 11
-4.299999999999998
 21
0.0
 31
0.0
  0
LINE
  5
49B
  8
BORDER
 62
     0
 10
0.0
 20
-2.5
 30
0.0
 11
0.0
 21
-4.299999999999998
 31
0.0
  0
LINE
  5
49C
  8
BORDER
 62
     0
 10
2.5
 20
0.0
 30
0.0
 11
4.299999999999998
 21
0.0
 31
0.0
  0
ENDBLK
  5
494
  8
0
  0
BLOCK
  8
0
  2
SW_CENTERMARKSYMBOL_21
 70
     0
 10
0.0
 20
0.0
 30
0.0
  3
SW_CENTERMARKSYMBOL_21
  1

  0
LINE
  5
4A1
  8
BORDER
 62
     0
 10
0.0
 20
0.0
 30
0.0
 11
0.0
 21
2.5
 31
0.0
  0
LINE
  5
4A2
  8
BORDER
 62
     0
 10
0.0
 20
0.0
 30
0.0
 11
-2.5
 21
0.0
 31
0.0
  0
LINE
  5
4A3
  8
BORDER
 62
     0
 10
0.0
 20
0.0
 30
0.0
 11
0.0
 21
-2.5
 31
0.0
  0
LINE
  5
4A4
  8
BORDER
 62
     0
 10
0.0
 20
0.0
 30
0.0
 11
2.5
 21
0.0
 31
0.0
  0
LINE
  5
4A5
  8
BORDER
 62
     0
 10
0.0
 20
2.5
 30
0.0
 11
0.0
 21
4.299999999999998
 31
0.0
  0
LINE
  5
4A6
  8
BORDER
 62
     0
 10
-2.5
 20
0.0
 30
0.0
 11
-4.299999999999998
 21
0.0
 31
0.0
  0
LINE
  5
4A7
  8
BORDER
 62
     0
 10
0.0
 20
-2.5
 30
0.0
 11
0.0
 21
-4.299999999999998
 31
0.0
  0
LINE
  5
4A8
  8
BORDER
 62
     0
 10
2.5
 20
0.0
 30
0.0
 11
4.299999999999998
 21
0.0
 31
0.0
  0
ENDBLK
  5
4A0
  8
0
  0
BLOCK
  8
0
  2
SW_CENTERMARKSYMBOL_22
 70
     0
 10
0.0
 20
0.0
 30
0.0
  3
SW_CENTERMARKSYMBOL_22
  1

  0
LINE
  5
4AD
  8
BORDER
 62
     0
 10
0.0
 20
0.0
 30
0.0
 11
0.0
 21
2.5
 31
0.0
  0
LINE
  5
4AE
  8
BORDER
 62
     0
 10
0.0
 20
0.0
 30
0.0
 11
-2.5
 21
0.0
 31
0.0
  0
LINE
  5
4AF
  8
BORDER
 62
     0
 10
0.0
 20
0.0
 30
0.0
 11
0.0
 21
-2.5
 31
0.0
  0
LINE
  5
4B0
  8
BORDER
 62
     0
 10
0.0
 20
0.0
 30
0.0
 11
2.5
 21
0.0
 31
0.0
  0
LINE
  5
4B1
  8
BORDER
 62
     0
 10
0.0
 20
2.5
 30
0.0
 11
0.0
 21
4.299999999999998
 31
0.0
  0
LINE
  5
4B2
  8
BORDER
 62
     0
 10
-2.5
 20
0.0
 30
0.0
 11
-4.299999999999998
 21
0.0
 31
0.0
  0
LINE
  5
4B3
  8
BORDER
 62
     0
 10
0.0
 20
-2.5
 30
0.0
 11
0.0
 21
-4.299999999999998
 31
0.0
  0
LINE
  5
4B4
  8
BORDER
 62
     0
 10
2.5
 20
0.0
 30
0.0
 11
4.299999999999998
 21
0.0
 31
0.0
  0
ENDBLK
  5
4AC
  8
0
  0
BLOCK
  8
0
  2
SW_CENTERMARKSYMBOL_23
 70
     0
 10
0.0
 20
0.0
 30
0.0
  3
SW_CENTERMARKSYMBOL_23
  1

  0
LINE
  5
4B9
  8
BORDER
 62
     0
 10
0.0
 20
0.0
 30
0.0
 11
0.0
 21
2.5
 31
0.0
  0
LINE
  5
4BA
  8
BORDER
 62
     0
 10
0.0
 20
0.0
 30
0.0
 11
-2.5
 21
0.0
 31
0.0
  0
LINE
  5
4BB
  8
BORDER
 62
     0
 10
0.0
 20
0.0
 30
0.0
 11
0.0
 21
-2.5
 31
0.0
  0
LINE
  5
4BC
  8
BORDER
 62
     0
 10
0.0
 20
0.0
 30
0.0
 11
2.5
 21
0.0
 31
0.0
  0
LINE
  5
4BD
  8
BORDER
 62
     0
 10
0.0
 20
2.5
 30
0.0
 11
0.0
 21
4.299999999999998
 31
0.0
  0
LINE
  5
4BE
  8
BORDER
 62
     0
 10
-2.5
 20
0.0
 30
0.0
 11
-4.299999999999998
 21
0.0
 31
0.0
  0
LINE
  5
4BF
  8
BORDER
 62
     0
 10
0.0
 20
-2.5
 30
0.0
 11
0.0
 21
-4.299999999999998
 31
0.0
  0
LINE
  5
4C0
  8
BORDER
 62
     0
 10
2.5
 20
0.0
 30
0.0
 11
4.299999999999998
 21
0.0
 31
0.0
  0
ENDBLK
  5
4B8
  8
0
  0
BLOCK
  8
0
  2
SW_CENTERMARKSYMBOL_24
 70
     0
 10
0.0
 20
0.0
 30
0.0
  3
SW_CENTERMARKSYMBOL_24
  1

  0
LINE
  5
4C5
  8
BORDER
 62
     0
 10
0.0
 20
0.0
 30
0.0
 11
0.0
 21
2.5
 31
0.0
  0
LINE
  5
4C6
  8
BORDER
 62
     0
 10
0.0
 20
0.0
 30
0.0
 11
-2.5
 21
0.0
 31
0.0
  0
LINE
  5
4C7
  8
BORDER
 62
     0
 10
0.0
 20
0.0
 30
0.0
 11
0.0
 21
-2.5
 31
0.0
  0
LINE
  5
4C8
  8
BORDER
 62
     0
 10
0.0
 20
0.0
 30
0.0
 11
2.5
 21
0.0
 31
0.0
  0
LINE
  5
4C9
  8
BORDER
 62
     0
 10
0.0
 20
2.5
 30
0.0
 11
0.0
 21
4.299999999999998
 31
0.0
  0
LINE
  5
4CA
  8
BORDER
 62
     0
 10
-2.5
 20
0.0
 30
0.0
 11
-4.299999999999998
 21
0.0
 31
0.0
  0
LINE
  5
4CB
  8
BORDER
 62
     0
 10
0.0
 20
-2.5
 30
0.0
 11
0.0
 21
-4.299999999999998
 31
0.0
  0
LINE
  5
4CC
  8
BORDER
 62
     0
 10
2.5
 20
0.0
 30
0.0
 11
4.299999999999998
 21
0.0
 31
0.0
  0
ENDBLK
  5
4C4
  8
0
  0
BLOCK
  8
0
  2
SW_CENTERMARKSYMBOL_25
 70
     0
 10
0.0
 20
0.0
 30
0.0
  3
SW_CENTERMARKSYMBOL_25
  1

  0
LINE
  5
4D1
  8
BORDER
 62
     0
 10
0.0
 20
0.0
 30
0.0
 11
0.0
 21
2.5
 31
0.0
  0
LINE
  5
4D2
  8
BORDER
 62
     0
 10
0.0
 20
0.0
 30
0.0
 11
-2.5
 21
0.0
 31
0.0
  0
LINE
  5
4D3
  8
BORDER
 62
     0
 10
0.0
 20
0.0
 30
0.0
 11
0.0
 21
-2.5
 31
0.0
  0
LINE
  5
4D4
  8
BORDER
 62
     0
 10
0.0
 20
0.0
 30
0.0
 11
2.5
 21
0.0
 31
0.0
  0
LINE
  5
4D5
  8
BORDER
 62
     0
 10
0.0
 20
2.5
 30
0.0
 11
0.0
 21
4.299999999999998
 31
0.0
  0
LINE
  5
4D6
  8
BORDER
 62
     0
 10
-2.5
 20
0.0
 30
0.0
 11
-4.299999999999998
 21
0.0
 31
0.0
  0
LINE
  5
4D7
  8
BORDER
 62
     0
 10
0.0
 20
-2.5
 30
0.0
 11
0.0
 21
-4.299999999999998
 31
0.0
  0
LINE
  5
4D8
  8
BORDER
 62
     0
 10
2.5
 20
0.0
 30
0.0
 11
4.299999999999998
 21
0.0
 31
0.0
  0
ENDBLK
  5
4D0
  8
0
  0
BLOCK
  8
0
  2
SW_CENTERMARKSYMBOL_26
 70
     0
 10
0.0
 20
0.0
 30
0.0
  3
SW_CENTERMARKSYMBOL_26
  1

  0
LINE
  5
4DD
  8
BORDER
 62
     0
 10
0.0
 20
0.0
 30
0.0
 11
0.0
 21
2.5
 31
0.0
  0
LINE
  5
4DE
  8
BORDER
 62
     0
 10
0.0
 20
0.0
 30
0.0
 11
-2.5
 21
0.0
 31
0.0
  0
LINE
  5
4DF
  8
BORDER
 62
     0
 10
0.0
 20
0.0
 30
0.0
 11
0.0
 21
-2.5
 31
0.0
  0
LINE
  5
4E0
  8
BORDER
 62
     0
 10
0.0
 20
0.0
 30
0.0
 11
2.5
 21
0.0
 31
0.0
  0
LINE
  5
4E1
  8
BORDER
 62
     0
 10
0.0
 20
2.5
 30
0.0
 11
0.0
 21
4.299999999999998
 31
0.0
  0
LINE
  5
4E2
  8
BORDER
 62
     0
 10
-2.5
 20
0.0
 30
0.0
 11
-4.299999999999998
 21
0.0
 31
0.0
  0
LINE
  5
4E3
  8
BORDER
 62
     0
 10
0.0
 20
-2.5
 30
0.0
 11
0.0
 21
-4.299999999999998
 31
0.0
  0
LINE
  5
4E4
  8
BORDER
 62
     0
 10
2.5
 20
0.0
 30
0.0
 11
4.299999999999998
 21
0.0
 31
0.0
  0
ENDBLK
  5
4DC
  8
0
  0
BLOCK
  8
0
  2
SW_CENTERMARKSYMBOL_27
 70
     0
 10
0.0
 20
0.0
 30
0.0
  3
SW_CENTERMARKSYMBOL_27
  1

  0
LINE
  5
4E9
  8
BORDER
 62
     0
 10
0.0
 20
0.0
 30
0.0
 11
0.0
 21
2.5
 31
0.0
  0
LINE
  5
4EA
  8
BORDER
 62
     0
 10
0.0
 20
0.0
 30
0.0
 11
-2.5
 21
0.0
 31
0.0
  0
LINE
  5
4EB
  8
BORDER
 62
     0
 10
0.0
 20
0.0
 30
0.0
 11
0.0
 21
-2.5
 31
0.0
  0
LINE
  5
4EC
  8
BORDER
 62
     0
 10
0.0
 20
0.0
 30
0.0
 11
2.5
 21
0.0
 31
0.0
  0
LINE
  5
4ED
  8
BORDER
 62
     0
 10
0.0
 20
2.5
 30
0.0
 11
0.0
 21
4.299999999999998
 31
0.0
  0
LINE
  5
4EE
  8
BORDER
 62
     0
 10
-2.5
 20
0.0
 30
0.0
 11
-4.299999999999998
 21
0.0
 31
0.0
  0
LINE
  5
4EF
  8
BORDER
 62
     0
 10
0.0
 20
-2.5
 30
0.0
 11
0.0
 21
-4.299999999999998
 31
0.0
  0
LINE
  5
4F0
  8
BORDER
 62
     0
 10
2.5
 20
0.0
 30
0.0
 11
4.299999999999998
 21
0.0
 31
0.0
  0
ENDBLK
  5
4E8
  8
0
  0
BLOCK
  8
0
  2
SW_CENTERMARKSYMBOL_28
 70
     0
 10
0.0
 20
0.0
 30
0.0
  3
SW_CENTERMARKSYMBOL_28
  1

  0
LINE
  5
4F5
  8
BORDER
 62
     0
 10
0.0
 20
0.0
 30
0.0
 11
0.0
 21
2.5
 31
0.0
  0
LINE
  5
4F6
  8
BORDER
 62
     0
 10
0.0
 20
0.0
 30
0.0
 11
-2.5
 21
0.0
 31
0.0
  0
LINE
  5
4F7
  8
BORDER
 62
     0
 10
0.0
 20
0.0
 30
0.0
 11
0.0
 21
-2.5
 31
0.0
  0
LINE
  5
4F8
  8
BORDER
 62
     0
 10
0.0
 20
0.0
 30
0.0
 11
2.5
 21
0.0
 31
0.0
  0
LINE
  5
4F9
  8
BORDER
 62
     0
 10
0.0
 20
2.5
 30
0.0
 11
0.0
 21
4.299999999999998
 31
0.0
  0
LINE
  5
4FA
  8
BORDER
 62
     0
 10
-2.5
 20
0.0
 30
0.0
 11
-4.299999999999998
 21
0.0
 31
0.0
  0
LINE
  5
4FB
  8
BORDER
 62
     0
 10
0.0
 20
-2.5
 30
0.0
 11
0.0
 21
-4.299999999999998
 31
0.0
  0
LINE
  5
4FC
  8
BORDER
 62
     0
 10
2.5
 20
0.0
 30
0.0
 11
4.299999999999998
 21
0.0
 31
0.0
  0
ENDBLK
  5
4F4
  8
0
  0
BLOCK
  8
0
  2
GENAXEH
 70
     0
 10
0.0
 20
0.0
 30
0.0
  3
GENAXEH
  1

  0
LINE
  5
599
  8
0
 10
-1.0
 20
0.0
 30
0.0
 11
1.0
 21
0.0
 31
0.0
  0
ENDBLK
  5
59B
  8
0
  0
BLOCK
  8
0
  2
*S38
 70
     1
 10
0.0
 20
0.0
 30
0.0
  3
*S38
  1

  0
LINE
  5
636
  8
AM_5
 10
873.5880708209168688
 20
615.3617580911979985
 30
0.0
 11
859.0047374875834976
 21
615.3617580911979985
 31
0.0
  0
LINE
  5
637
  8
AM_5
 10
859.0047374875834976
 20
615.3617580911979985
 30
0.0
 11
804.3974946470824534
 21
568.7432625538527873
 31
0.0
  0
TRACE
  5
638
  8
AM_5
  6
CONTINUOUS
 10
804.0187462456856338
 20
569.1869149216983033
 30
0.0
 11
804.7762430484795004
 21
568.2996101860074987
 31
0.0
 12
801.7355804293624715
 22
566.4707721363813562
 32
0.0
 13
801.7355804293624715
 23
566.4707721363813562
 33
0.0
  0
INSERT
  5
639
  8
0
  2
*U240
 10
0.0
 20
0.0
 30
0.0
  0
ENDBLK
  5
63B
  8
0
  0
BLOCK
  8
0
  2
*U39
 70
     1
 10
0.0
 20
0.0
 30
0.0
  3
*U39
  1

  0
SOLID
  5
654
  8
TRIM
  6
CONTINUOUS
 10
0.0
 20
9.9999999999999982
 30
0.0
 11
-5.0000000000000009
 21
4.9999999999999991
 31
0.0
 12
0.0
 22
4.9999999999999991
 32
0.0
 13
0.0
 23
4.9999999999999991
 33
0.0
210
0.0
220
0.0
230
-1.0
  0
SOLID
  5
655
  8
TRIM
  6
CONTINUOUS
 10
0.0
 20
9.9999999999999982
 30
0.0
 11
-5.0
 21
9.9999999999999982
 31
0.0
 12
-5.0000000000000009
 22
4.9999999999999991
 32
0.0
 13
-5.0000000000000009
 23
4.9999999999999991
 33
0.0
210
0.0
220
0.0
230
-1.0
  0
SOLID
  5
656
  8
TRIM
  6
CONTINUOUS
 10
0.0
 20
4.9999999999999991
 30
0.0
 11
-10.0
 21
0.0
 31
0.0
 12
0.0
 22
0.0
 32
0.0
 13
0.0
 23
0.0
 33
0.0
210
0.0
220
0.0
230
-1.0
  0
SOLID
  5
657
  8
TRIM
  6
CONTINUOUS
 10
0.0
 20
4.9999999999999991
 30
0.0
 11
-10.0
 21
4.9999999999999991
 31
0.0
 12
-10.0
 22
0.0
 32
0.0
 13
-10.0
 23
0.0
 33
0.0
210
0.0
220
0.0
230
-1.0
  0
LINE
  5
658
  8
TRIM
  6
CONTINUOUS
 10
0.0
 20
4.9999999999999991
 30
0.0
 11
0.0
 21
9.9999999999999982
 31
0.0
  0
LINE
  5
659
  8
TRIM
  6
CONTINUOUS
 10
5.0
 20
9.9999999999999982
 30
0.0
 11
5.0000000000000009
 21
4.9999999999999991
 31
0.0
  0
LINE
  5
65A
  8
TRIM
  6
CONTINUOUS
 10
0.0
 20
0.0
 30
0.0
 11
0.0
 21
4.9999999999999991
 31
0.0
  0
LINE
  5
65B
  8
TRIM
  6
CONTINUOUS
 10
10.0
 20
4.9999999999999991
 30
0.0
 11
10.0
 21
0.0
 31
0.0
  0
ENDBLK
  5
65D
  8
0
  0
BLOCK
  8
0
  2
*U40
 70
     1
 10
0.0
 20
0.0
 30
0.0
  3
*U40
  1

  0
SOLID
  5
65F
  8
TRIM
  6
CONTINUOUS
 10
0.0
 20
841.0
 30
0.0
 11
-9.999999999999801
 21
836.0
 31
0.0
 12
0.0
 22
836.0
 32
0.0
 13
0.0
 23
836.0
 33
0.0
210
0.0
220
0.0
230
-1.0
  0
SOLID
  5
660
  8
TRIM
  6
CONTINUOUS
 10
0.0
 20
841.0
 30
0.0
 11
-9.9999999999997975
 21
841.0
 31
0.0
 12
-9.999999999999801
 22
836.0
 32
0.0
 13
-9.999999999999801
 23
836.0
 33
0.0
210
0.0
220
0.0
230
-1.0
  0
SOLID
  5
661
  8
TRIM
  6
CONTINUOUS
 10
0.0
 20
836.0
 30
0.0
 11
-4.9999999999999014
 21
831.0
 31
0.0
 12
0.0
 22
831.0
 32
0.0
 13
0.0
 23
831.0
 33
0.0
210
0.0
220
0.0
230
-1.0
  0
SOLID
  5
662
  8
TRIM
  6
CONTINUOUS
 10
0.0
 20
836.0
 30
0.0
 11
-4.9999999999999014
 21
836.0
 31
0.0
 12
-4.9999999999999014
 22
831.0
 32
0.0
 13
-4.9999999999999014
 23
831.0
 33
0.0
210
0.0
220
0.0
230
-1.0
  0
LINE
  5
663
  8
TRIM
  6
CONTINUOUS
 10
0.0
 20
836.0
 30
0.0
 11
0.0
 21
841.0
 31
0.0
  0
LINE
  5
664
  8
TRIM
  6
CONTINUOUS
 10
9.9999999999997975
 20
841.0
 30
0.0
 11
9.999999999999801
 21
836.0
 31
0.0
  0
LINE
  5
665
  8
TRIM
  6
CONTINUOUS
 10
0.0
 20
831.0
 30
0.0
 11
0.0
 21
836.0
 31
0.0
  0
LINE
  5
666
  8
TRIM
  6
CONTINUOUS
 10
4.9999999999999014
 20
836.0
 30
0.0
 11
4.9999999999999014
 21
831.0
 31
0.0
  0
ENDBLK
  5
668
  8
0
  0
BLOCK
  8
0
  2
*U41
 70
     1
 10
0.0
 20
0.0
 30
0.0
  3
*U41
  1

  0
SOLID
  5
66A
  8
TRIM
  6
CONTINUOUS
 10
-1179.0
 20
841.0
 30
0.0
 11
-1189.0
 21
836.0
 31
0.0
 12
-1179.0
 22
836.0
 32
0.0
 13
-1179.0
 23
836.0
 33
0.0
210
0.0
220
0.0
230
-1.0
  0
SOLID
  5
66B
  8
TRIM
  6
CONTINUOUS
 10
-1179.0
 20
841.0
 30
0.0
 11
-1189.0
 21
841.0
 31
0.0
 12
-1189.0
 22
836.0
 32
0.0
 13
-1189.0
 23
836.0
 33
0.0
210
0.0
220
0.0
230
-1.0
  0
SOLID
  5
66C
  8
TRIM
  6
CONTINUOUS
 10
-1184.0
 20
836.0
 30
0.0
 11
-1189.0
 21
831.0
 31
0.0
 12
-1184.0
 22
831.0
 32
0.0
 13
-1184.0
 23
831.0
 33
0.0
210
0.0
220
0.0
230
-1.0
  0
SOLID
  5
66D
  8
TRIM
  6
CONTINUOUS
 10
-1184.0
 20
836.0
 30
0.0
 11
-1189.0
 21
836.0
 31
0.0
 12
-1189.0
 22
831.0
 32
0.0
 13
-1189.0
 23
831.0
 33
0.0
210
0.0
220
0.0
230
-1.0
  0
LINE
  5
66E
  8
TRIM
  6
CONTINUOUS
 10
1179.0
 20
836.0
 30
0.0
 11
1179.0
 21
841.0
 31
0.0
  0
LINE
  5
66F
  8
TRIM
  6
CONTINUOUS
 10
1189.0
 20
841.0
 30
0.0
 11
1189.0
 21
836.0
 31
0.0
  0
LINE
  5
670
  8
TRIM
  6
CONTINUOUS
 10
1184.0
 20
831.0
 30
0.0
 11
1184.0
 21
836.0
 31
0.0
  0
LINE
  5
671
  8
TRIM
  6
CONTINUOUS
 10
1189.0
 20
836.0
 30
0.0
 11
1189.0
 21
831.0
 31
0.0
  0
ENDBLK
  5
673
  8
0
  0
BLOCK
  8
0
  2
*U42
 70
     1
 10
0.0
 20
0.0
 30
0.0
  3
*U42
  1

  0
SOLID
  5
675
  8
TRIM
  6
CONTINUOUS
 10
-1184.0
 20
10.0000000000000107
 30
0.0
 11
-1189.0
 21
5.0
 31
0.0
 12
-1184.0
 22
5.0
 32
0.0
 13
-1184.0
 23
5.0
 33
0.0
210
0.0
220
0.0
230
-1.0
  0
SOLID
  5
676
  8
TRIM
  6
CONTINUOUS
 10
-1184.0
 20
10.0000000000000107
 30
0.0
 11
-1189.0
 21
10.0000000000000107
 31
0.0
 12
-1189.0
 22
5.0
 32
0.0
 13
-1189.0
 23
5.0
 33
0.0
210
0.0
220
0.0
230
-1.0
  0
SOLID
  5
677
  8
TRIM
  6
CONTINUOUS
 10
-1179.0
 20
5.0
 30
0.0
 11
-1189.0
 21
0.0
 31
0.0
 12
-1179.0
 22
0.0
 32
0.0
 13
-1179.0
 23
0.0
 33
0.0
210
0.0
220
0.0
230
-1.0
  0
SOLID
  5
678
  8
TRIM
  6
CONTINUOUS
 10
-1179.0
 20
5.0
 30
0.0
 11
-1189.0
 21
5.0
 31
0.0
 12
-1189.0
 22
0.0
 32
0.0
 13
-1189.0
 23
0.0
 33
0.0
210
0.0
220
0.0
230
-1.0
  0
LINE
  5
679
  8
TRIM
  6
CONTINUOUS
 10
1184.0
 20
5.0
 30
0.0
 11
1184.0
 21
10.0000000000000107
 31
0.0
  0
LINE
  5
67A
  8
TRIM
  6
CONTINUOUS
 10
1189.0
 20
10.0000000000000107
 30
0.0
 11
1189.0
 21
5.0
 31
0.0
  0
LINE
  5
67B
  8
TRIM
  6
CONTINUOUS
 10
1179.0
 20
0.0
 30
0.0
 11
1179.0
 21
5.0
 31
0.0
  0
LINE
  5
67C
  8
TRIM
  6
CONTINUOUS
 10
1189.0
 20
5.0
 30
0.0
 11
1189.0
 21
0.0
 31
0.0
  0
ENDBLK
  5
67E
  8
0
  0
BLOCK
  8
0
  2
*U43
 70
     1
 10
0.0
 20
0.0
 30
0.0
  3
*U43
  1

  0
TEXT
  5
680
  8
BORDER
 62
     7
 10
16.7987239064666589
 20
344.2394318762999887
 30
0.0
 40
3.5
  1
K
 41
0.605
  7
SLDTEXTSTYLE0
  0
ENDBLK
  5
682
  8
0
  0
BLOCK
  8
0
  2
*U44
 70
     1
 10
0.0
 20
0.0
 30
0.0
  3
*U44
  1

  0
TEXT
  5
684
  8
BORDER
 62
     7
 10
16.8254600429666716
 20
394.2394318762999887
 30
0.0
 40
3.5
  1
J
 41
0.605
  7
SLDTEXTSTYLE0
  0
ENDBLK
  5
686
  8
0
  0
BLOCK
  8
0
  2
*U45
 70
     1
 10
0.0
 20
0.0
 30
0.0
  3
*U45
  1

  0
TEXT
  5
688
  8
BORDER
 62
     7
 10
16.8026736566666592
 20
444.2394318762999887
 30
0.0
 40
3.5
  1
H
 41
0.605
  7
SLDTEXTSTYLE0
  0
ENDBLK
  5
68A
  8
0
  0
BLOCK
  8
0
  2
*U46
 70
     1
 10
0.0
 20
0.0
 30
0.0
  3
*U46
  1

  0
TEXT
  5
68C
  8
BORDER
 62
     7
 10
16.7646961959666712
 20
494.2394318762999887
 30
0.0
 40
3.5
  1
G
 41
0.605
  7
SLDTEXTSTYLE0
  0
ENDBLK
  5
68E
  8
0
  0
BLOCK
  8
0
  2
*U47
 70
     1
 10
0.0
 20
0.0
 30
0.0
  3
*U47
  1

  0
TEXT
  5
690
  8
BORDER
 62
     7
 10
16.8157378893666589
 20
594.2394318762999319
 30
0.0
 40
3.5
  1
E
 41
0.605
  7
SLDTEXTSTYLE0
  0
ENDBLK
  5
692
  8
0
  0
BLOCK
  8
0
  2
*U48
 70
     1
 10
0.0
 20
0.0
 30
0.0
  3
*U48
  1

  0
TEXT
  5
694
  8
BORDER
 62
     7
 10
16.786267333866661
 20
544.2394318762999319
 30
0.0
 40
3.5
  1
F
 41
0.605
  7
SLDTEXTSTYLE0
  0
ENDBLK
  5
696
  8
0
  0
BLOCK
  8
0
  2
*U49
 70
     1
 10
0.0
 20
0.0
 30
0.0
  3
*U49
  1

  0
TEXT
  5
698
  8
BORDER
 62
     7
 10
16.8023697735666602
 20
294.2394318762999887
 30
0.0
 40
3.5
  1
L
 41
0.605
  7
SLDTEXTSTYLE0
  0
ENDBLK
  5
69A
  8
0
  0
BLOCK
  8
0
  2
*U50
 70
     1
 10
0.0
 20
0.0
 30
0.0
  3
*U50
  1

  0
TEXT
  5
69C
  8
BORDER
 62
     7
 10
268.7947742559666722
 20
5.7213323683999997
 30
0.0
 40
3.5
  1
6
 41
0.605
  7
SLDTEXTSTYLE0
  0
ENDBLK
  5
69E
  8
0
  0
BLOCK
  8
0
  2
*U51
 70
     1
 10
0.0
 20
0.0
 30
0.0
  3
*U51
  1

  0
TEXT
  5
6A0
  8
BORDER
 62
     7
 10
518.5682465785998829
 20
5.7706814009
 30
0.0
 40
3.5
  1
11
 41
0.605
  7
SLDTEXTSTYLE0
  0
ENDBLK
  5
6A2
  8
0
  0
BLOCK
  8
0
  2
*U52
 70
     1
 10
0.0
 20
0.0
 30
0.0
  3
*U52
  1

  0
TEXT
  5
6A4
  8
BORDER
 62
     7
 10
418.7953819438665164
 20
5.7213323683999997
 30
0.0
 40
3.5
  1
9
 41
0.605
  7
SLDTEXTSTYLE0
  0
ENDBLK
  5
6A6
  8
0
  0
BLOCK
  8
0
  2
*U53
 70
     1
 10
0.0
 20
0.0
 30
0.0
  3
*U53
  1

  0
TEXT
  5
6A8
  8
BORDER
 62
     7
 10
68.7941666843666724
 20
5.7394318762999994
 30
0.0
 40
3.5
  1
2
 41
0.605
  7
SLDTEXTSTYLE0
  0
ENDBLK
  5
6AA
  8
0
  0
BLOCK
  8
0
  2
*U54
 70
     1
 10
0.0
 20
0.0
 30
0.0
  3
*U54
  1

  0
TEXT
  5
6AC
  8
BORDER
 62
     7
 10
31.7105816226333417
 20
5.7394318762999994
 30
0.0
 40
3.5
  1
1
 41
0.605
  7
SLDTEXTSTYLE0
  0
ENDBLK
  5
6AE
  8
0
  0
BLOCK
  8
0
  2
*U55
 70
     1
 10
0.0
 20
0.0
 30
0.0
  3
*U55
  1

  0
TEXT
  5
6B0
  8
BORDER
 62
     7
 10
218.7944705283665883
 20
5.7706814009
 30
0.0
 40
3.5
  1
5
 41
0.605
  7
SLDTEXTSTYLE0
  0
ENDBLK
  5
6B2
  8
0
  0
BLOCK
  8
0
  2
*U56
 70
     1
 10
0.0
 20
0.0
 30
0.0
  3
*U56
  1

  0
TEXT
  5
6B4
  8
BORDER
 62
     7
 10
568.1518316403332847
 20
5.774629323500001
 30
0.0
 40
3.5
  1
12
 41
0.605
  7
SLDTEXTSTYLE0
  0
ENDBLK
  5
6B6
  8
0
  0
BLOCK
  8
0
  2
*U57
 70
     1
 10
0.0
 20
0.0
 30
0.0
  3
*U57
  1

  0
TEXT
  5
6B8
  8
BORDER
 62
     7
 10
118.7962933594667021
 20
5.7667334782999999
 30
0.0
 40
3.5
  1
3
 41
0.605
  7
SLDTEXTSTYLE0
  0
ENDBLK
  5
6BA
  8
0
  0
BLOCK
  8
0
  2
*U58
 70
     1
 10
0.0
 20
0.0
 30
0.0
  3
*U58
  1

  0
TEXT
  5
6BC
  8
BORDER
 62
     7
 10
468.3307204927664884
 20
5.7213323683999997
 30
0.0
 40
3.5
  1
10
 41
0.605
  7
SLDTEXTSTYLE0
  0
ENDBLK
  5
6BE
  8
0
  0
BLOCK
  8
0
  2
*U59
 70
     1
 10
0.0
 20
0.0
 30
0.0
  3
*U59
  1

  0
TEXT
  5
6C0
  8
BORDER
 62
     7
 10
168.7880902702665935
 20
5.7213323683999997
 30
0.0
 40
3.5
  1
4
 41
0.605
  7
SLDTEXTSTYLE0
  0
ENDBLK
  5
6C2
  8
0
  0
BLOCK
  8
0
  2
*U60
 70
     1
 10
0.0
 20
0.0
 30
0.0
  3
*U60
  1

  0
TEXT
  5
6C4
  8
BORDER
 62
     7
 10
318.7978124629667036
 20
5.7706814009
 30
0.0
 40
3.5
  1
7
 41
0.605
  7
SLDTEXTSTYLE0
  0
ENDBLK
  5
6C6
  8
0
  0
BLOCK
  8
0
  2
*U61
 70
     1
 10
0.0
 20
0.0
 30
0.0
  3
*U61
  1

  0
TEXT
  5
6C8
  8
BORDER
 62
     7
 10
368.7950780998666005
 20
5.7706814009
 30
0.0
 40
3.5
  1
8
 41
0.605
  7
SLDTEXTSTYLE0
  0
ENDBLK
  5
6CA
  8
0
  0
BLOCK
  8
0
  2
*U62
 70
     1
 10
0.0
 20
0.0
 30
0.0
  3
*U62
  1

  0
TEXT
  5
6CC
  8
BORDER
 62
     7
 10
16.7932551914666597
 20
644.2394318762999319
 30
0.0
 40
3.5
  1
D
 41
0.605
  7
SLDTEXTSTYLE0
  0
ENDBLK
  5
6CE
  8
0
  0
BLOCK
  8
0
  2
*U63
 70
     1
 10
0.0
 20
0.0
 30
0.0
  3
*U63
  1

  0
TEXT
  5
6D0
  8
BORDER
 62
     7
 10
16.8139149418666705
 20
744.2394318763000456
 30
0.0
 40
3.5
  1
B
 41
0.605
  7
SLDTEXTSTYLE0
  0
ENDBLK
  5
6D2
  8
0
  0
BLOCK
  8
0
  2
*U64
 70
     1
 10
0.0
 20
0.0
 30
0.0
  3
*U64
  1

  0
TEXT
  5
6D4
  8
BORDER
 62
     7
 10
16.7807986356666596
 20
694.2394318763000456
 30
0.0
 40
3.5
  1
C
 41
0.605
  7
SLDTEXTSTYLE0
  0
ENDBLK
  5
6D6
  8
0
  0
BLOCK
  8
0
  2
*U65
 70
     1
 10
0.0
 20
0.0
 30
0.0
  3
*U65
  1

  0
TEXT
  5
6D8
  8
BORDER
 62
     7
 10
16.775329898366671
 20
794.2394318763000456
 30
0.0
 40
3.5
  1
A
 41
0.605
  7
SLDTEXTSTYLE0
  0
ENDBLK
  5
6DA
  8
0
  0
BLOCK
  8
0
  2
*U66
 70
     1
 10
0.0
 20
0.0
 30
0.0
  3
*U66
  1

  0
TEXT
  5
6DC
  8
BORDER
 62
     7
 10
668.1457552262334048
 20
5.7357343241999992
 30
0.0
 40
3.5
  1
14
 41
0.605
  7
SLDTEXTSTYLE0
  0
ENDBLK
  5
6DE
  8
0
  0
BLOCK
  8
0
  2
*U67
 70
     1
 10
0.0
 20
0.0
 30
0.0
  3
*U67
  1

  0
TEXT
  5
6E0
  8
BORDER
 62
     7
 10
718.1521354843331437
 20
5.7916120345999991
 30
0.0
 40
3.5
  1
15
 41
0.605
  7
SLDTEXTSTYLE0
  0
ENDBLK
  5
6E2
  8
0
  0
BLOCK
  8
0
  2
*U68
 70
     1
 10
0.0
 20
0.0
 30
0.0
  3
*U68
  1

  0
TEXT
  5
6E4
  8
BORDER
 62
     7
 10
618.1539583154332149
 20
5.7916120345999991
 30
0.0
 40
3.5
  1
13
 41
0.605
  7
SLDTEXTSTYLE0
  0
ENDBLK
  5
6E6
  8
0
  0
BLOCK
  8
0
  2
*U69
 70
     1
 10
0.0
 20
0.0
 30
0.0
  3
*U69
  1

  0
TEXT
  5
6E8
  8
BORDER
 62
     7
 10
768.1524393283332302
 20
5.7905541747999996
 30
0.0
 40
3.5
  1
16
 41
0.605
  7
SLDTEXTSTYLE0
  0
ENDBLK
  5
6EA
  8
0
  0
BLOCK
  8
0
  2
*U70
 70
     1
 10
0.0
 20
0.0
 30
0.0
  3
*U70
  1

  0
TEXT
  5
6EC
  8
BORDER
 62
     7
 10
918.153047016333403
 20
5.7569479534000001
 30
0.0
 40
3.5
  1
19
 41
0.605
  7
SLDTEXTSTYLE0
  0
ENDBLK
  5
6EE
  8
0
  0
BLOCK
  8
0
  2
*U71
 70
     1
 10
0.0
 20
0.0
 30
0.0
  3
*U71
  1

  0
TEXT
  5
6F0
  8
BORDER
 62
     7
 10
868.1527429395333684
 20
5.7569479534000001
 30
0.0
 40
3.5
  1
18
 41
0.605
  7
SLDTEXTSTYLE0
  0
ENDBLK
  5
6F2
  8
0
  0
BLOCK
  8
0
  2
*U72
 70
     1
 10
0.0
 20
0.0
 30
0.0
  3
*U72
  1

  0
TEXT
  5
6F4
  8
BORDER
 62
     7
 10
818.1554773025331997
 20
5.731838065299999
 30
0.0
 40
3.5
  1
17
 41
0.605
  7
SLDTEXTSTYLE0
  0
ENDBLK
  5
6F6
  8
0
  0
BLOCK
  8
0
  2
*U73
 70
     1
 10
0.0
 20
0.0
 30
0.0
  3
*U73
  1

  0
TEXT
  5
6F8
  8
BORDER
 62
     7
 10
1067.7354167020660043
 20
5.7310462972999989
 30
0.0
 40
3.5
  1
22
 41
0.605
  7
SLDTEXTSTYLE0
  0
ENDBLK
  5
6FA
  8
0
  0
BLOCK
  8
0
  2
*U74
 70
     1
 10
0.0
 20
0.0
 30
0.0
  3
*U74
  1

  0
TEXT
  5
6FC
  8
BORDER
 62
     7
 10
1018.1518316403329436
 20
5.7569479534000001
 30
0.0
 40
3.5
  1
21
 41
0.605
  7
SLDTEXTSTYLE0
  0
ENDBLK
  5
6FE
  8
0
  0
BLOCK
  8
0
  2
*U75
 70
     1
 10
0.0
 20
0.0
 30
0.0
  3
*U75
  1

  0
TEXT
  5
700
  8
BORDER
 62
     7
 10
967.914305554499947
 20
5.7569479534000001
 30
0.0
 40
3.5
  1
20
 41
0.605
  7
SLDTEXTSTYLE0
  0
ENDBLK
  5
702
  8
0
  0
BLOCK
  8
0
  2
*U76
 70
     1
 10
0.0
 20
0.0
 30
0.0
  3
*U76
  1

  0
TEXT
  5
704
  8
BORDER
 62
     7
 10
1117.7375433771669577
 20
5.7310462972999989
 30
0.0
 40
3.5
  1
23
 41
0.605
  7
SLDTEXTSTYLE0
  0
ENDBLK
  5
706
  8
0
  0
BLOCK
  8
0
  2
*U77
 70
     1
 10
0.0
 20
0.0
 30
0.0
  3
*U77
  1

  0
TEXT
  5
708
  8
BORDER
 62
     7
 10
1167.7293402879670339
 20
5.7310462972999998
 30
0.0
 40
3.5
  1
24
 41
0.605
  7
SLDTEXTSTYLE0
  0
ENDBLK
  5
70A
  8
0
  0
BLOCK
  8
0
  2
*U78
 70
     1
 10
0.0
 20
0.0
 30
0.0
  3
*U78
  1

  0
TEXT
  5
70C
  8
BORDER
 62
     7
 10
16.7537586271666612
 20
94.2394318762999887
 30
0.0
 40
3.5
  1
Q
 41
0.605
  7
SLDTEXTSTYLE0
  0
ENDBLK
  5
70E
  8
0
  0
BLOCK
  8
0
  2
*U79
 70
     1
 10
0.0
 20
0.0
 30
0.0
  3
*U79
  1

  0
TEXT
  5
710
  8
BORDER
 62
     7
 10
16.8120919942666589
 20
144.2394318762999887
 30
0.0
 40
3.5
  1
P
 41
0.605
  7
SLDTEXTSTYLE0
  0
ENDBLK
  5
712
  8
0
  0
BLOCK
  8
0
  2
*U80
 70
     1
 10
0.0
 20
0.0
 30
0.0
  3
*U80
  1

  0
TEXT
  5
714
  8
BORDER
 62
     7
 10
16.8014582807666706
 20
194.2394318762999887
 30
0.0
 40
3.5
  1
N
 41
0.605
  7
SLDTEXTSTYLE0
  0
ENDBLK
  5
716
  8
0
  0
BLOCK
  8
0
  2
*U81
 70
     1
 10
0.0
 20
0.0
 30
0.0
  3
*U81
  1

  0
TEXT
  5
718
  8
BORDER
 62
     7
 10
16.7504165873666615
 20
244.2394318762999887
 30
0.0
 40
3.5
  1
M
 41
0.605
  7
SLDTEXTSTYLE0
  0
ENDBLK
  5
71A
  8
0
  0
BLOCK
  8
0
  2
*U82
 70
     1
 10
0.0
 20
0.0
 30
0.0
  3
*U82
  1

  0
TEXT
  5
71C
  8
BORDER
 62
     7
 10
16.78201389516666
 20
44.239431876300003
 30
0.0
 40
3.5
  1
R
 41
0.605
  7
SLDTEXTSTYLE0
  0
ENDBLK
  5
71E
  8
0
  0
BLOCK
  8
0
  2
*U83
 70
     1
 10
0.0
 20
0.0
 30
0.0
  3
*U83
  1

  0
TEXT
  5
720
  8
BORDER
 62
     7
 10
868.1527429395333684
 20
831.7738736198999732
 30
0.0
 40
3.5
  1
18
 41
0.605
  7
SLDTEXTSTYLE0
  0
ENDBLK
  5
722
  8
0
  0
BLOCK
  8
0
  2
*U84
 70
     1
 10
0.0
 20
0.0
 30
0.0
  3
*U84
  1

  0
TEXT
  5
724
  8
BORDER
 62
     7
 10
1167.7293402879670339
 20
831.7738736198999732
 30
0.0
 40
3.5
  1
24
 41
0.605
  7
SLDTEXTSTYLE0
  0
ENDBLK
  5
726
  8
0
  0
BLOCK
  8
0
  2
*U85
 70
     1
 10
0.0
 20
0.0
 30
0.0
  3
*U85
  1

  0
TEXT
  5
728
  8
BORDER
 62
     7
 10
1117.7375433771669577
 20
831.7738736198999732
 30
0.0
 40
3.5
  1
23
 41
0.605
  7
SLDTEXTSTYLE0
  0
ENDBLK
  5
72A
  8
0
  0
BLOCK
  8
0
  2
*U86
 70
     1
 10
0.0
 20
0.0
 30
0.0
  3
*U86
  1

  0
TEXT
  5
72C
  8
BORDER
 62
     7
 10
967.914305554499947
 20
831.7738736198999732
 30
0.0
 40
3.5
  1
20
 41
0.605
  7
SLDTEXTSTYLE0
  0
ENDBLK
  5
72E
  8
0
  0
BLOCK
  8
0
  2
*U87
 70
     1
 10
0.0
 20
0.0
 30
0.0
  3
*U87
  1

  0
TEXT
  5
730
  8
BORDER
 62
     7
 10
1018.1518316403329436
 20
831.7738736198999732
 30
0.0
 40
3.5
  1
21
 41
0.605
  7
SLDTEXTSTYLE0
  0
ENDBLK
  5
732
  8
0
  0
BLOCK
  8
0
  2
*U88
 70
     1
 10
0.0
 20
0.0
 30
0.0
  3
*U88
  1

  0
TEXT
  5
734
  8
BORDER
 62
     7
 10
1067.7354167020660043
 20
831.7738736198999732
 30
0.0
 40
3.5
  1
22
 41
0.605
  7
SLDTEXTSTYLE0
  0
ENDBLK
  5
736
  8
0
  0
BLOCK
  8
0
  2
*U89
 70
     1
 10
0.0
 20
0.0
 30
0.0
  3
*U89
  1

  0
TEXT
  5
738
  8
BORDER
 62
     7
 10
918.153047016333403
 20
831.7738736198999732
 30
0.0
 40
3.5
  1
19
 41
0.605
  7
SLDTEXTSTYLE0
  0
ENDBLK
  5
73A
  8
0
  0
BLOCK
  8
0
  2
*U90
 70
     1
 10
0.0
 20
0.0
 30
0.0
  3
*U90
  1

  0
TEXT
  5
73C
  8
BORDER
 62
     7
 10
68.7941666843666724
 20
831.7394318763000456
 30
0.0
 40
3.5
  1
2
 41
0.605
  7
SLDTEXTSTYLE0
  0
ENDBLK
  5
73E
  8
0
  0
BLOCK
  8
0
  2
*U91
 70
     1
 10
0.0
 20
0.0
 30
0.0
  3
*U91
  1

  0
TEXT
  5
740
  8
BORDER
 62
     7
 10
31.7105816226333417
 20
831.7394318763000456
 30
0.0
 40
3.5
  1
1
 41
0.605
  7
SLDTEXTSTYLE0
  0
ENDBLK
  5
742
  8
0
  0
BLOCK
  8
0
  2
*U92
 70
     1
 10
0.0
 20
0.0
 30
0.0
  3
*U92
  1

  0
TEXT
  5
744
  8
BORDER
 62
     7
 10
118.7962933594667021
 20
831.7361709749000056
 30
0.0
 40
3.5
  1
3
 41
0.605
  7
SLDTEXTSTYLE0
  0
ENDBLK
  5
746
  8
0
  0
BLOCK
  8
0
  2
*U93
 70
     1
 10
0.0
 20
0.0
 30
0.0
  3
*U93
  1

  0
TEXT
  5
748
  8
BORDER
 62
     7
 10
268.7947742559666722
 20
831.7361709749000056
 30
0.0
 40
3.5
  1
6
 41
0.605
  7
SLDTEXTSTYLE0
  0
ENDBLK
  5
74A
  8
0
  0
BLOCK
  8
0
  2
*U94
 70
     1
 10
0.0
 20
0.0
 30
0.0
  3
*U94
  1

  0
TEXT
  5
74C
  8
BORDER
 62
     7
 10
218.7944705283665883
 20
831.7361709749000056
 30
0.0
 40
3.5
  1
5
 41
0.605
  7
SLDTEXTSTYLE0
  0
ENDBLK
  5
74E
  8
0
  0
BLOCK
  8
0
  2
*U95
 70
     1
 10
0.0
 20
0.0
 30
0.0
  3
*U95
  1

  0
TEXT
  5
750
  8
BORDER
 62
     7
 10
168.7880902702665935
 20
831.7361709749000056
 30
0.0
 40
3.5
  1
4
 41
0.605
  7
SLDTEXTSTYLE0
  0
ENDBLK
  5
752
  8
0
  0
BLOCK
  8
0
  2
*U96
 70
     1
 10
0.0
 20
0.0
 30
0.0
  3
*U96
  1

  0
TEXT
  5
754
  8
BORDER
 62
     7
 10
318.7978124629667036
 20
831.7361709749000056
 30
0.0
 40
3.5
  1
7
 41
0.605
  7
SLDTEXTSTYLE0
  0
ENDBLK
  5
756
  8
0
  0
BLOCK
  8
0
  2
*U97
 70
     1
 10
0.0
 20
0.0
 30
0.0
  3
*U97
  1

  0
TEXT
  5
758
  8
BORDER
 62
     7
 10
518.5682465785998829
 20
831.7361709749000056
 30
0.0
 40
3.5
  1
11
 41
0.605
  7
SLDTEXTSTYLE0
  0
ENDBLK
  5
75A
  8
0
  0
BLOCK
  8
0
  2
*U98
 70
     1
 10
0.0
 20
0.0
 30
0.0
  3
*U98
  1

  0
TEXT
  5
75C
  8
BORDER
 62
     7
 10
468.3307204927664884
 20
831.7361709749000056
 30
0.0
 40
3.5
  1
10
 41
0.605
  7
SLDTEXTSTYLE0
  0
ENDBLK
  5
75E
  8
0
  0
BLOCK
  8
0
  2
*U99
 70
     1
 10
0.0
 20
0.0
 30
0.0
  3
*U99
  1

  0
TEXT
  5
760
  8
BORDER
 62
     7
 10
418.7953819438665164
 20
831.7361709749000056
 30
0.0
 40
3.5
  1
9
 41
0.605
  7
SLDTEXTSTYLE0
  0
ENDBLK
  5
762
  8
0
  0
BLOCK
  8
0
  2
*U100
 70
     1
 10
0.0
 20
0.0
 30
0.0
  3
*U100
  1

  0
TEXT
  5
764
  8
BORDER
 62
     7
 10
368.7950780998666005
 20
831.7361709749000056
 30
0.0
 40
3.5
  1
8
 41
0.605
  7
SLDTEXTSTYLE0
  0
ENDBLK
  5
766
  8
0
  0
BLOCK
  8
0
  2
*U101
 70
     1
 10
0.0
 20
0.0
 30
0.0
  3
*U101
  1

  0
TEXT
  5
768
  8
BORDER
 62
     7
 10
568.1518316403332847
 20
831.7361709749000056
 30
0.0
 40
3.5
  1
12
 41
0.605
  7
SLDTEXTSTYLE0
  0
ENDBLK
  5
76A
  8
0
  0
BLOCK
  8
0
  2
*U102
 70
     1
 10
0.0
 20
0.0
 30
0.0
  3
*U102
  1

  0
TEXT
  5
76C
  8
BORDER
 62
     7
 10
818.1554773025331997
 20
831.7738736198999732
 30
0.0
 40
3.5
  1
17
 41
0.605
  7
SLDTEXTSTYLE0
  0
ENDBLK
  5
76E
  8
0
  0
BLOCK
  8
0
  2
*U103
 70
     1
 10
0.0
 20
0.0
 30
0.0
  3
*U103
  1

  0
TEXT
  5
770
  8
BORDER
 62
     7
 10
768.1524393283332302
 20
831.7738736198999732
 30
0.0
 40
3.5
  1
16
 41
0.605
  7
SLDTEXTSTYLE0
  0
ENDBLK
  5
772
  8
0
  0
BLOCK
  8
0
  2
*U104
 70
     1
 10
0.0
 20
0.0
 30
0.0
  3
*U104
  1

  0
TEXT
  5
774
  8
BORDER
 62
     7
 10
718.1521354843331437
 20
831.7738736198999732
 30
0.0
 40
3.5
  1
15
 41
0.605
  7
SLDTEXTSTYLE0
  0
ENDBLK
  5
776
  8
0
  0
BLOCK
  8
0
  2
*U105
 70
     1
 10
0.0
 20
0.0
 30
0.0
  3
*U105
  1

  0
TEXT
  5
778
  8
BORDER
 62
     7
 10
668.1457552262334048
 20
831.7738736198999732
 30
0.0
 40
3.5
  1
14
 41
0.605
  7
SLDTEXTSTYLE0
  0
ENDBLK
  5
77A
  8
0
  0
BLOCK
  8
0
  2
*U106
 70
     1
 10
0.0
 20
0.0
 30
0.0
  3
*U106
  1

  0
TEXT
  5
77C
  8
BORDER
 62
     7
 10
618.1539583154332149
 20
831.7361709749000056
 30
0.0
 40
3.5
  1
13
 41
0.605
  7
SLDTEXTSTYLE0
  0
ENDBLK
  5
77E
  8
0
  0
BLOCK
  8
0
  2
*U107
 70
     1
 10
0.0
 20
0.0
 30
0.0
  3
*U107
  1

  0
TEXT
  5
780
  8
BORDER
 62
     7
 10
1180.7753298983659533
 20
794.2394318763000456
 30
0.0
 40
3.5
  1
A
 41
0.605
  7
SLDTEXTSTYLE0
  0
ENDBLK
  5
782
  8
0
  0
BLOCK
  8
0
  2
*U108
 70
     1
 10
0.0
 20
0.0
 30
0.0
  3
*U108
  1

  0
TEXT
  5
784
  8
BORDER
 62
     7
 10
1180.7862673338659079
 20
544.2394318762999319
 30
0.0
 40
3.5
  1
F
 41
0.605
  7
SLDTEXTSTYLE0
  0
ENDBLK
  5
786
  8
0
  0
BLOCK
  8
0
  2
*U109
 70
     1
 10
0.0
 20
0.0
 30
0.0
  3
*U109
  1

  0
TEXT
  5
788
  8
BORDER
 62
     7
 10
1180.8157378893658915
 20
594.2394318762999319
 30
0.0
 40
3.5
  1
E
 41
0.605
  7
SLDTEXTSTYLE0
  0
ENDBLK
  5
78A
  8
0
  0
BLOCK
  8
0
  2
*U110
 70
     1
 10
0.0
 20
0.0
 30
0.0
  3
*U110
  1

  0
TEXT
  5
78C
  8
BORDER
 62
     7
 10
1180.7932551914659598
 20
644.2394318762999319
 30
0.0
 40
3.5
  1
D
 41
0.605
  7
SLDTEXTSTYLE0
  0
ENDBLK
  5
78E
  8
0
  0
BLOCK
  8
0
  2
*U111
 70
     1
 10
0.0
 20
0.0
 30
0.0
  3
*U111
  1

  0
TEXT
  5
790
  8
BORDER
 62
     7
 10
1180.7807986356660876
 20
694.2394318763000456
 30
0.0
 40
3.5
  1
C
 41
0.605
  7
SLDTEXTSTYLE0
  0
ENDBLK
  5
792
  8
0
  0
BLOCK
  8
0
  2
*U112
 70
     1
 10
0.0
 20
0.0
 30
0.0
  3
*U112
  1

  0
TEXT
  5
794
  8
BORDER
 62
     7
 10
1180.8139149418659599
 20
744.2394318763000456
 30
0.0
 40
3.5
  1
B
 41
0.605
  7
SLDTEXTSTYLE0
  0
ENDBLK
  5
796
  8
0
  0
BLOCK
  8
0
  2
*U113
 70
     1
 10
0.0
 20
0.0
 30
0.0
  3
*U113
  1

  0
TEXT
  5
798
  8
BORDER
 62
     7
 10
1180.764696195966053
 20
494.2394318762999887
 30
0.0
 40
3.5
  1
G
 41
0.605
  7
SLDTEXTSTYLE0
  0
ENDBLK
  5
79A
  8
0
  0
BLOCK
  8
0
  2
*U114
 70
     1
 10
0.0
 20
0.0
 30
0.0
  3
*U114
  1

  0
TEXT
  5
79C
  8
BORDER
 62
     7
 10
1180.802673656666002
 20
444.2394318762999887
 30
0.0
 40
3.5
  1
H
 41
0.605
  7
SLDTEXTSTYLE0
  0
ENDBLK
  5
79E
  8
0
  0
BLOCK
  8
0
  2
*U115
 70
     1
 10
0.0
 20
0.0
 30
0.0
  3
*U115
  1

  0
TEXT
  5
7A0
  8
BORDER
 62
     7
 10
1180.8254600429659149
 20
394.2394318762999887
 30
0.0
 40
3.5
  1
J
 41
0.605
  7
SLDTEXTSTYLE0
  0
ENDBLK
  5
7A2
  8
0
  0
BLOCK
  8
0
  2
*U116
 70
     1
 10
0.0
 20
0.0
 30
0.0
  3
*U116
  1

  0
TEXT
  5
7A4
  8
BORDER
 62
     7
 10
1180.7987239064659661
 20
344.2394318762999887
 30
0.0
 40
3.5
  1
K
 41
0.605
  7
SLDTEXTSTYLE0
  0
ENDBLK
  5
7A6
  8
0
  0
BLOCK
  8
0
  2
*U117
 70
     1
 10
0.0
 20
0.0
 30
0.0
  3
*U117
  1

  0
TEXT
  5
7A8
  8
BORDER
 62
     7
 10
1180.8023697735670794
 20
294.2394318762999887
 30
0.0
 40
3.5
  1
L
 41
0.605
  7
SLDTEXTSTYLE0
  0
ENDBLK
  5
7AA
  8
0
  0
BLOCK
  8
0
  2
*U118
 70
     1
 10
0.0
 20
0.0
 30
0.0
  3
*U118
  1

  0
TEXT
  5
7AC
  8
BORDER
 62
     7
 10
1180.7504165873660895
 20
244.2394318762999887
 30
0.0
 40
3.5
  1
M
 41
0.605
  7
SLDTEXTSTYLE0
  0
ENDBLK
  5
7AE
  8
0
  0
BLOCK
  8
0
  2
*U119
 70
     1
 10
0.0
 20
0.0
 30
0.0
  3
*U119
  1

  0
TEXT
  5
7B0
  8
BORDER
 62
     7
 10
1180.8120919942659839
 20
144.2394318762999887
 30
0.0
 40
3.5
  1
P
 41
0.605
  7
SLDTEXTSTYLE0
  0
ENDBLK
  5
7B2
  8
0
  0
BLOCK
  8
0
  2
*U120
 70
     1
 10
0.0
 20
0.0
 30
0.0
  3
*U120
  1

  0
TEXT
  5
7B4
  8
BORDER
 62
     7
 10
1180.753758627166917
 20
94.2394318762999887
 30
0.0
 40
3.5
  1
Q
 41
0.605
  7
SLDTEXTSTYLE0
  0
ENDBLK
  5
7B6
  8
0
  0
BLOCK
  8
0
  2
*U121
 70
     1
 10
0.0
 20
0.0
 30
0.0
  3
*U121
  1

  0
TEXT
  5
7B8
  8
BORDER
 62
     7
 10
1180.7820138951660738
 20
44.239431876300003
 30
0.0
 40
3.5
  1
R
 41
0.605
  7
SLDTEXTSTYLE0
  0
ENDBLK
  5
7BA
  8
0
  0
BLOCK
  8
0
  2
*U122
 70
     1
 10
0.0
 20
0.0
 30
0.0
  3
*U122
  1

  0
TEXT
  5
7BC
  8
BORDER
 62
     7
 10
1180.8014582807659281
 20
194.2394318762999887
 30
0.0
 40
3.5
  1
N
 41
0.605
  7
SLDTEXTSTYLE0
  0
ENDBLK
  5
7BE
  8
0
  0
BLOCK
  8
0
  2
*U123
 70
     1
 10
0.0
 20
0.0
 30
0.0
  3
*U123
  1

  0
TEXT
  5
7C0
  8
BORDER
 10
1153.9469767685000079
 20
22.044387424
 30
0.0
 40
1.8
  1
Sheet:
 41
0.605
  7
SLDTEXTSTYLE0
  0
ENDBLK
  5
7C2
  8
0
  0
BLOCK
  8
0
  2
*U124
 70
     1
 10
0.0
 20
0.0
 30
0.0
  3
*U124
  1

  0
TEXT
  5
7C4
  8
BORDER
 10
1168.3555403806999493
 20
22.044387424
 30
0.0
 40
1.8
  1
Revision:
 41
0.605
  7
SLDTEXTSTYLE0
  0
ENDBLK
  5
7C6
  8
0
  0
BLOCK
  8
0
  2
*U125
 70
     1
 10
0.0
 20
0.0
 30
0.0
  3
*U125
  1

  0
TEXT
  5
7C8
  8
BORDER
 10
1117.6126923287999944
 20
22.044387424
 30
0.0
 40
1.8
  1
Material:
 41
0.605
  7
SLDTEXTSTYLE0
  0
ENDBLK
  5
7CA
  8
0
  0
BLOCK
  8
0
  2
*U126
 70
     1
 10
0.0
 20
0.0
 30
0.0
  3
*U126
  1

  0
TEXT
  5
7CC
  8
BORDER
 10
1154.5373266332999265
 20
15.5329388307999992
 30
0.0
 40
2.5
  1
1 of 1
 41
0.57
  7
SLDTEXTSTYLE1
  0
ENDBLK
  5
7CE
  8
0
  0
BLOCK
  8
0
  2
*U127
 70
     1
 10
0.0
 20
0.0
 30
0.0
  3
*U127
  1

  0
TEXT
  5
7D0
  8
BORDER
 10
1117.4423007072000473
 20
39.7778074246999935
 30
0.0
 40
1.8
  1
Checked/Approved by:
 41
0.605
  7
SLDTEXTSTYLE0
  0
ENDBLK
  5
7D2
  8
0
  0
BLOCK
  8
0
  2
*U128
 70
     1
 10
0.0
 20
0.0
 30
0.0
  3
*U128
  1

  0
TEXT
  5
7D4
  8
BORDER
 62
     0
 10
0.0
 20
0.5203219316000001
 30
0.0
 40
1.8
  1
Projection Method:
 41
0.605
  7
SLDTEXTSTYLE0
  0
ENDBLK
  5
7D6
  8
0
  0
BLOCK
  8
0
  2
*U129
 70
     1
 10
0.0
 20
0.0
 30
0.0
  3
*U129
  1

  0
TEXT
  5
7D8
  8
BORDER
 62
     0
 10
5.4000000000000004
 20
-2.2796779686000002
 30
0.0
 40
1.8
  1
THIRD ANGLE
 41
0.605
  7
SLDTEXTSTYLE0
  0
ENDBLK
  5
7DA
  8
0
  0
BLOCK
  8
0
  2
*U130
 70
     1
 10
0.0
 20
0.0
 30
0.0
  3
*U130
  1

  0
TEXT
  5
7DC
  8
BORDER
 10
1092.1822359313000561
 20
22.1868716954000007
 30
0.0
 40
1.8
  1
Sheet Size:
 41
0.605
  7
SLDTEXTSTYLE0
  0
ENDBLK
  5
7DE
  8
0
  0
BLOCK
  8
0
  2
*U131
 70
     1
 10
0.0
 20
0.0
 30
0.0
  3
*U131
  1

  0
TEXT
  5
7E0
  8
BORDER
 10
1100.8066254967000077
 20
13.2402228606999994
 30
0.0
 40
5.0
  1
A0
 41
0.75
  7
SLDTEXTSTYLE2
  0
ENDBLK
  5
7E2
  8
0
  0
BLOCK
  8
0
  2
*U132
 70
     1
 10
0.0
 20
0.0
 30
0.0
  3
*U132
  1

  0
TEXT
  5
7E4
  8
BORDER
 10
1117.2543782092000129
 20
48.422242332899998
 30
0.0
 40
1.8
  1
Drawn by:
 41
0.605
  7
SLDTEXTSTYLE0
  0
ENDBLK
  5
7E6
  8
0
  0
BLOCK
  8
0
  2
*U133
 70
     1
 10
0.0
 20
0.0
 30
0.0
  3
*U133
  1

  0
TEXT
  5
7E8
  8
BORDER
 10
1148.6488980137999079
 20
48.4325409814999972
 30
0.0
 40
1.8520833333
  1
Drawn Date:
 41
0.605
  7
SLDTEXTSTYLE0
  0
ENDBLK
  5
7EA
  8
0
  0
BLOCK
  8
0
  2
*U134
 70
     1
 10
0.0
 20
0.0
 30
0.0
  3
*U134
  1

  0
TEXT
  5
7EC
  8
BORDER
 10
1148.6488980137999079
 20
39.7881060732999998
 30
0.0
 40
1.8520833333
  1
Checked/Approved Date:
 41
0.605
  7
SLDTEXTSTYLE0
  0
ENDBLK
  5
7EE
  8
0
  0
BLOCK
  8
0
  2
*U135
 70
     1
 10
0.0
 20
0.0
 30
0.0
  3
*U135
  1

  0
TEXT
  5
7F0
  8
BORDER
 10
1138.1722245712999211
 20
28.5209622606999993
 30
0.0
 40
1.8520833333
  1
Drawing Scale:
 41
0.605
  7
SLDTEXTSTYLE0
  0
ENDBLK
  5
7F2
  8
0
  0
BLOCK
  8
0
  2
*U136
 70
     1
 10
0.0
 20
0.0
 30
0.0
  3
*U136
  1

  0
TEXT
  5
7F4
  8
BORDER
 10
1117.2543782092000129
 20
44.0606398143000035
 30
0.0
 40
2.5
  1
Le Xuan Tung
 41
0.605
  7
SLDTEXTSTYLE0
  0
ENDBLK
  5
7F6
  8
0
  0
BLOCK
  8
0
  2
*U137
 70
     1
 10
0.0
 20
0.0
 30
0.0
  3
*U137
  1

  0
TEXT
  5
7F8
  8
BORDER
 10
1148.6488980137999079
 20
44.0606398143000035
 30
0.0
 40
2.5
  1
2021
 41
0.605
  7
SLDTEXTSTYLE0
  0
ENDBLK
  5
7FA
  8
0
  0
BLOCK
  8
0
  2
*U138
 70
     1
 10
0.0
 20
0.0
 30
0.0
  3
*U138
  1

  0
TEXT
  5
7FC
  8
BORDER
 10
1117.4423007072000473
 20
34.7476544518999972
 30
0.0
 40
2.5
  1
Nguyen Van Tung
 41
0.605
  7
SLDTEXTSTYLE0
  0
ENDBLK
  5
7FE
  8
0
  0
BLOCK
  8
0
  2
*U139
 70
     1
 10
0.0
 20
0.0
 30
0.0
  3
*U139
  1

  0
TEXT
  5
800
  8
BORDER
 10
1148.6488980137999079
 20
34.7476544518999972
 30
0.0
 40
2.5
  1
2021
 41
0.605
  7
SLDTEXTSTYLE0
  0
ENDBLK
  5
802
  8
0
  0
BLOCK
  8
0
  2
*U140
 70
     1
 10
0.0
 20
0.0
 30
0.0
  3
*U140
  1

  0
TEXT
  5
804
  8
BORDER
 10
1170.8112289400000918
 20
15.8028126099000001
 30
0.0
 40
2.6458333333000001
  1
0A
 41
0.605
  7
SLDTEXTSTYLE0
  0
ENDBLK
  5
806
  8
0
  0
BLOCK
  8
0
  2
*U141
 70
     1
 10
0.0
 20
0.0
 30
0.0
  3
*U141
  1

  0
TEXT
  5
808
  8
BORDER
 10
1156.7758558640000501
 20
28.5038443615999988
 30
0.0
 40
2.5
  1
1:1
 41
0.605
  7
SLDTEXTSTYLE0
  0
ENDBLK
  5
80A
  8
0
  0
BLOCK
  8
0
  2
*U142
 70
     1
 10
0.0
 20
0.0
 30
0.0
  3
*U142
  1

  0
TEXT
  5
80C
  8
BORDER
 10
1136.4840424281001106
 20
22.044387424
 30
0.0
 40
1.8
  1
Qty:
 41
0.605
  7
SLDTEXTSTYLE0
  0
ENDBLK
  5
80E
  8
0
  0
BLOCK
  8
0
  2
*U143
 70
     1
 10
0.0
 20
0.0
 30
0.0
  3
*U143
  1

  0
TEXT
  5
810
  8
BORDER
 10
1141.7267976308999096
 20
15.5329388307999992
 30
0.0
 40
2.5
  1
01
 41
0.605
  7
SLDTEXTSTYLE0
  0
ENDBLK
  5
812
  8
0
  0
BLOCK
  8
0
  2
*U144
 70
     1
 10
0.0
 20
0.0
 30
0.0
  3
*U144
  1

  0
TEXT
  5
814
  8
BORDER
 10
1119.704857625700015
 20
16.1972530791999993
 30
0.0
 40
2.5
  1
SS400
 41
0.605
  7
SLDTEXTSTYLE0
  0
TEXT
  5
815
  8
BORDER
 10
1126.7631909590329542
 20
16.1972530791999993
 30
0.0
 40
2.5
  1
t4
 41
0.61
  7
SLDTEXTSTYLE0
  0
ENDBLK
  5
817
  8
0
  0
BLOCK
  8
0
  2
*U145
 70
     1
 10
0.0
 20
0.0
 30
0.0
  3
*U145
  1

  0
TEXT
  5
819
  8
BORDER
 10
1125.5672099915000217
 20
28.5038443615999988
 30
0.0
 40
2.5
  1
mm
 41
0.605
  7
SLDTEXTSTYLE0
  0
ENDBLK
  5
81B
  8
0
  0
BLOCK
  8
0
  2
*U146
 70
     1
 10
0.0
 20
0.0
 30
0.0
  3
*U146
  1

  0
TEXT
  5
81D
  8
BORDER
 10
1117.6463813350999317
 20
28.5209622606999993
 30
0.0
 40
1.8520833333
  1
Unit:
 41
0.605
  7
SLDTEXTSTYLE0
  0
ENDBLK
  5
81F
  8
0
  0
BLOCK
  8
0
  2
*U147
 70
     1
 10
0.0
 20
0.0
 30
0.0
  3
*U147
  1

  0
TEXT
  5
821
  8
BORDER
 10
1061.0827781831999346
 20
27.0027489040000006
 30
0.0
 40
2.5
  1
001_Base_SR
 41
0.75
  7
SLDTEXTSTYLE2
  0
ENDBLK
  5
823
  8
0
  0
BLOCK
  8
0
  2
*U148
 70
     1
 10
0.0
 20
0.0
 30
0.0
  3
*U148
  1

  0
TEXT
  5
825
  8
BORDER
 10
1060.9040651123000316
 20
30.5841853028000017
 30
0.0
 40
1.8
  1
Description:
 41
0.605
  7
SLDTEXTSTYLE0
  0
ENDBLK
  5
827
  8
0
  0
BLOCK
  8
0
  2
*U149
 70
     1
 10
0.0
 20
0.0
 30
0.0
  3
*U149
  1

  0
TEXT
  5
829
  8
BORDER
 10
1061.2335972963001041
 20
40.2271810212999767
 30
0.0
 40
2.5
  1
SERVICE ROBOT
 41
0.75
  7
SLDTEXTSTYLE2
  0
ENDBLK
  5
82B
  8
0
  0
BLOCK
  8
0
  2
*U150
 70
     1
 10
0.0
 20
0.0
 30
0.0
  3
*U150
  1

  0
TEXT
  5
82D
  8
BORDER
 10
1061.0058789697000066
 20
44.5271241153999995
 30
0.0
 40
1.8
  1
Project:
 41
0.605
  7
SLDTEXTSTYLE0
  0
ENDBLK
  5
82F
  8
0
  0
BLOCK
  8
0
  2
*U151
 70
     1
 10
0.0
 20
0.0
 30
0.0
  3
*U151
  1

  0
TEXT
  5
831
  8
0
 62
     7
 10
6.3475006428
 20
38.8414040899999975
 30
0.0
 40
3.96875
  1
A
 41
0.75
  7
SLDTEXTSTYLE2
  0
ENDBLK
  5
833
  8
0
  0
BLOCK
  8
0
  2
*U152
 70
     1
 10
0.0
 20
0.0
 30
0.0
  3
*U152
  1

  0
TEXT
  5
835
  8
0
 62
     7
 10
1180.3475006428000142
 20
38.8414040899999975
 30
0.0
 40
3.96875
  1
A
 41
0.75
  7
SLDTEXTSTYLE2
  0
ENDBLK
  5
837
  8
0
  0
BLOCK
  8
0
  2
*U153
 70
     1
 10
0.0
 20
0.0
 30
0.0
  3
*U153
  1

  0
TEXT
  5
839
  8
0
 62
     7
 10
6.4784143241000001
 20
94.0914040899999975
 30
0.0
 40
3.96875
  1
B
 41
0.75
  7
SLDTEXTSTYLE2
  0
ENDBLK
  5
83B
  8
0
  0
BLOCK
  8
0
  2
*U154
 70
     1
 10
0.0
 20
0.0
 30
0.0
  3
*U154
  1

  0
TEXT
  5
83D
  8
0
 62
     7
 10
1180.4784143240999583
 20
94.0914040899999975
 30
0.0
 40
3.96875
  1
B
 41
0.75
  7
SLDTEXTSTYLE2
  0
ENDBLK
  5
83F
  8
0
  0
BLOCK
  8
0
  2
*U155
 70
     1
 10
0.0
 20
0.0
 30
0.0
  3
*U155
  1

  0
TEXT
  5
841
  8
0
 62
     7
 10
6.4664714019999998
 20
144.0914040899999975
 30
0.0
 40
3.96875
  1
C
 41
0.75
  7
SLDTEXTSTYLE2
  0
ENDBLK
  5
843
  8
0
  0
BLOCK
  8
0
  2
*U156
 70
     1
 10
0.0
 20
0.0
 30
0.0
  3
*U156
  1

  0
TEXT
  5
845
  8
0
 62
     7
 10
1180.4664714020000247
 20
144.0914040899999975
 30
0.0
 40
3.96875
  1
C
 41
0.75
  7
SLDTEXTSTYLE2
  0
ENDBLK
  5
847
  8
0
  0
BLOCK
  8
0
  2
*U157
 70
     1
 10
0.0
 20
0.0
 30
0.0
  3
*U157
  1

  0
TEXT
  5
849
  8
0
 62
     7
 10
6.4604997821000003
 20
194.0914040899999975
 30
0.0
 40
3.96875
  1
D
 41
0.75
  7
SLDTEXTSTYLE2
  0
ENDBLK
  5
84B
  8
0
  0
BLOCK
  8
0
  2
*U158
 70
     1
 10
0.0
 20
0.0
 30
0.0
  3
*U158
  1

  0
TEXT
  5
84D
  8
0
 62
     7
 10
1180.460499782099987
 20
194.0914040899999975
 30
0.0
 40
3.96875
  1
D
 41
0.75
  7
SLDTEXTSTYLE2
  0
ENDBLK
  5
84F
  8
0
  0
BLOCK
  8
0
  2
*U159
 70
     1
 10
0.0
 20
0.0
 30
0.0
  3
*U159
  1

  0
TEXT
  5
851
  8
0
 62
     7
 10
6.5156214051000001
 20
244.0914040899999975
 30
0.0
 40
3.96875
  1
E
 41
0.75
  7
SLDTEXTSTYLE2
  0
ENDBLK
  5
853
  8
0
  0
BLOCK
  8
0
  2
*U160
 70
     1
 10
0.0
 20
0.0
 30
0.0
  3
*U160
  1

  0
TEXT
  5
855
  8
0
 62
     7
 10
1180.5156214051000916
 20
244.0914040899999975
 30
0.0
 40
3.96875
  1
E
 41
0.75
  7
SLDTEXTSTYLE2
  0
ENDBLK
  5
857
  8
0
  0
BLOCK
  8
0
  2
*U161
 70
     1
 10
0.0
 20
0.0
 30
0.0
  3
*U161
  1

  0
TEXT
  5
859
  8
0
 62
     7
 10
6.465552709099998
 20
294.0914040900000259
 30
0.0
 40
3.96875
  1
F
 41
0.75
  7
SLDTEXTSTYLE2
  0
ENDBLK
  5
85B
  8
0
  0
BLOCK
  8
0
  2
*U162
 70
     1
 10
0.0
 20
0.0
 30
0.0
  3
*U162
  1

  0
TEXT
  5
85D
  8
0
 62
     7
 10
1180.4655527090999385
 20
294.0914040900000259
 30
0.0
 40
3.96875
  1
F
 41
0.75
  7
SLDTEXTSTYLE2
  0
ENDBLK
  5
85F
  8
0
  0
BLOCK
  8
0
  2
*U163
 70
     1
 10
0.0
 20
0.0
 30
0.0
  3
*U163
  1

  0
TEXT
  5
861
  8
0
 62
     7
 10
6.4944913852999981
 20
344.0914040900000259
 30
0.0
 40
3.96875
  1
G
 41
0.75
  7
SLDTEXTSTYLE2
  0
ENDBLK
  5
863
  8
0
  0
BLOCK
  8
0
  2
*U164
 70
     1
 10
0.0
 20
0.0
 30
0.0
  3
*U164
  1

  0
TEXT
  5
865
  8
0
 62
     7
 10
1180.4944913853000799
 20
344.0914040900000259
 30
0.0
 40
3.96875
  1
G
 41
0.75
  7
SLDTEXTSTYLE2
  0
ENDBLK
  5
867
  8
0
  0
BLOCK
  8
0
  2
*U165
 70
     1
 10
0.0
 20
0.0
 30
0.0
  3
*U165
  1

  0
TEXT
  5
869
  8
0
 62
     7
 10
6.498166283599998
 20
394.0914040900000259
 30
0.0
 40
3.96875
  1
H
 41
0.75
  7
SLDTEXTSTYLE2
  0
ENDBLK
  5
86B
  8
0
  0
BLOCK
  8
0
  2
*U166
 70
     1
 10
0.0
 20
0.0
 30
0.0
  3
*U166
  1

  0
TEXT
  5
86D
  8
0
 62
     7
 10
1180.4981662836000851
 20
394.0914040900000259
 30
0.0
 40
3.96875
  1
H
 41
0.75
  7
SLDTEXTSTYLE2
  0
ENDBLK
  5
86F
  8
0
  0
BLOCK
  8
0
  2
*U167
 70
     1
 10
0.0
 20
0.0
 30
0.0
  3
*U167
  1

  0
TEXT
  5
871
  8
0
 62
     7
 10
6.472902241199999
 20
444.0914040900000259
 30
0.0
 40
3.96875
  1
J
 41
0.75
  7
SLDTEXTSTYLE2
  0
ENDBLK
  5
873
  8
0
  0
BLOCK
  8
0
  2
*U168
 70
     1
 10
0.0
 20
0.0
 30
0.0
  3
*U168
  1

  0
TEXT
  5
875
  8
0
 62
     7
 10
1180.4729022412000177
 20
444.0914040900000259
 30
0.0
 40
3.96875
  1
J
 41
0.75
  7
SLDTEXTSTYLE2
  0
ENDBLK
  5
877
  8
0
  0
BLOCK
  8
0
  2
*U169
 70
     1
 10
0.0
 20
0.0
 30
0.0
  3
*U169
  1

  0
TEXT
  5
879
  8
0
 62
     7
 10
6.4963288502999976
 20
494.0914040900000259
 30
0.0
 40
3.96875
  1
K
 41
0.75
  7
SLDTEXTSTYLE2
  0
ENDBLK
  5
87B
  8
0
  0
BLOCK
  8
0
  2
*U170
 70
     1
 10
0.0
 20
0.0
 30
0.0
  3
*U170
  1

  0
TEXT
  5
87D
  8
0
 62
     7
 10
1180.4963288502999603
 20
494.0914040900000259
 30
0.0
 40
3.96875
  1
K
 41
0.75
  7
SLDTEXTSTYLE2
  0
ENDBLK
  5
87F
  8
0
  0
BLOCK
  8
0
  2
*U171
 70
     1
 10
0.0
 20
0.0
 30
0.0
  3
*U171
  1

  0
TEXT
  5
881
  8
0
 62
     7
 10
6.4623372470999998
 20
544.0914040899998554
 30
0.0
 40
3.96875
  1
L
 41
0.75
  7
SLDTEXTSTYLE2
  0
ENDBLK
  5
883
  8
0
  0
BLOCK
  8
0
  2
*U172
 70
     1
 10
0.0
 20
0.0
 30
0.0
  3
*U172
  1

  0
TEXT
  5
885
  8
0
 62
     7
 10
1180.4623372471000948
 20
544.0914040899998554
 30
0.0
 40
3.96875
  1
L
 41
0.75
  7
SLDTEXTSTYLE2
  0
ENDBLK
  5
887
  8
0
  0
BLOCK
  8
0
  2
*U173
 70
     1
 10
0.0
 20
0.0
 30
0.0
  3
*U173
  1

  0
TEXT
  5
889
  8
0
 62
     7
 10
6.3695493395999998
 20
594.0914040899998554
 30
0.0
 40
3.96875
  1
M
 41
0.75
  7
SLDTEXTSTYLE2
  0
ENDBLK
  5
88B
  8
0
  0
BLOCK
  8
0
  2
*U174
 70
     1
 10
0.0
 20
0.0
 30
0.0
  3
*U174
  1

  0
TEXT
  5
88D
  8
0
 62
     7
 10
1180.3695493396000984
 20
594.0914040899998554
 30
0.0
 40
3.96875
  1
M
 41
0.75
  7
SLDTEXTSTYLE2
  0
ENDBLK
  5
88F
  8
0
  0
BLOCK
  8
0
  2
*U175
 70
     1
 10
0.0
 20
0.0
 30
0.0
  3
*U175
  1

  0
TEXT
  5
891
  8
0
 62
     7
 10
6.4715240803
 20
644.0914040899998554
 30
0.0
 40
3.96875
  1
N
 41
0.75
  7
SLDTEXTSTYLE2
  0
ENDBLK
  5
893
  8
0
  0
BLOCK
  8
0
  2
*U176
 70
     1
 10
0.0
 20
0.0
 30
0.0
  3
*U176
  1

  0
TEXT
  5
895
  8
0
 62
     7
 10
1180.4715240803000142
 20
644.0914040899998554
 30
0.0
 40
3.96875
  1
N
 41
0.75
  7
SLDTEXTSTYLE2
  0
ENDBLK
  5
897
  8
0
  0
BLOCK
  8
0
  2
*U177
 70
     1
 10
0.0
 20
0.0
 30
0.0
  3
*U177
  1

  0
TEXT
  5
899
  8
0
 62
     7
 10
6.4926540841999989
 20
694.0914040899998554
 30
0.0
 40
3.96875
  1
P
 41
0.75
  7
SLDTEXTSTYLE2
  0
ENDBLK
  5
89B
  8
0
  0
BLOCK
  8
0
  2
*U178
 70
     1
 10
0.0
 20
0.0
 30
0.0
  3
*U178
  1

  0
TEXT
  5
89D
  8
0
 62
     7
 10
1180.4926540842000122
 20
694.0914040899998554
 30
0.0
 40
3.96875
  1
P
 41
0.75
  7
SLDTEXTSTYLE2
  0
ENDBLK
  5
89F
  8
0
  0
BLOCK
  8
0
  2
*U179
 70
     1
 10
0.0
 20
0.0
 30
0.0
  3
*U179
  1

  0
TEXT
  5
8A1
  8
0
 62
     7
 10
6.4522316576999978
 20
744.0914040899998554
 30
0.0
 40
3.96875
  1
R
 41
0.75
  7
SLDTEXTSTYLE2
  0
ENDBLK
  5
8A3
  8
0
  0
BLOCK
  8
0
  2
*U180
 70
     1
 10
0.0
 20
0.0
 30
0.0
  3
*U180
  1

  0
TEXT
  5
8A5
  8
0
 62
     7
 10
1180.4522316576999401
 20
744.0914040899998554
 30
0.0
 40
3.96875
  1
R
 41
0.75
  7
SLDTEXTSTYLE2
  0
ENDBLK
  5
8A7
  8
0
  0
BLOCK
  8
0
  2
*U181
 70
     1
 10
0.0
 20
0.0
 30
0.0
  3
*U181
  1

  0
TEXT
  5
8A9
  8
0
 62
     7
 10
6.4958694455999986
 20
799.3414040899999691
 30
0.0
 40
3.96875
  1
T
 41
0.75
  7
SLDTEXTSTYLE2
  0
ENDBLK
  5
8AB
  8
0
  0
BLOCK
  8
0
  2
*U182
 70
     1
 10
0.0
 20
0.0
 30
0.0
  3
*U182
  1

  0
TEXT
  5
8AD
  8
0
 62
     7
 10
1180.4958694455999648
 20
799.3414040899999691
 30
0.0
 40
3.96875
  1
T
 41
0.75
  7
SLDTEXTSTYLE2
  0
ENDBLK
  5
8AF
  8
0
  0
BLOCK
  8
0
  2
*U183
 70
     1
 10
0.0
 20
0.0
 30
0.0
  3
*U183
  1

  0
TEXT
  5
8B1
  8
0
 62
     7
 10
24.6896051428999996
 20
6.0914040899999993
 30
0.0
 40
3.96875
  1
24
 41
0.75
  7
SLDTEXTSTYLE2
  0
ENDBLK
  5
8B3
  8
0
  0
BLOCK
  8
0
  2
*U184
 70
     1
 10
0.0
 20
0.0
 30
0.0
  3
*U184
  1

  0
TEXT
  5
8B5
  8
0
 62
     7
 10
24.6896051428999996
 20
832.0914040899998554
 30
0.0
 40
3.96875
  1
24
 41
0.75
  7
SLDTEXTSTYLE2
  0
ENDBLK
  5
8B7
  8
0
  0
BLOCK
  8
0
  2
*U185
 70
     1
 10
0.0
 20
0.0
 30
0.0
  3
*U185
  1

  0
TEXT
  5
8B9
  8
0
 62
     7
 10
66.9396051428999925
 20
6.0914040899999984
 30
0.0
 40
3.96875
  1
23
 41
0.75
  7
SLDTEXTSTYLE2
  0
ENDBLK
  5
8BB
  8
0
  0
BLOCK
  8
0
  2
*U186
 70
     1
 10
0.0
 20
0.0
 30
0.0
  3
*U186
  1

  0
TEXT
  5
8BD
  8
0
 62
     7
 10
66.9396051428999925
 20
832.0914040899998554
 30
0.0
 40
3.96875
  1
23
 41
0.75
  7
SLDTEXTSTYLE2
  0
ENDBLK
  5
8BF
  8
0
  0
BLOCK
  8
0
  2
*U187
 70
     1
 10
0.0
 20
0.0
 30
0.0
  3
*U187
  1

  0
TEXT
  5
8C1
  8
0
 62
     7
 10
116.9396051429000067
 20
6.0914040899999984
 30
0.0
 40
3.96875
  1
22
 41
0.75
  7
SLDTEXTSTYLE2
  0
ENDBLK
  5
8C3
  8
0
  0
BLOCK
  8
0
  2
*U188
 70
     1
 10
0.0
 20
0.0
 30
0.0
  3
*U188
  1

  0
TEXT
  5
8C5
  8
0
 62
     7
 10
116.9396051429000067
 20
832.0914040899998554
 30
0.0
 40
3.96875
  1
22
 41
0.75
  7
SLDTEXTSTYLE2
  0
ENDBLK
  5
8C7
  8
0
  0
BLOCK
  8
0
  2
*U189
 70
     1
 10
0.0
 20
0.0
 30
0.0
  3
*U189
  1

  0
TEXT
  5
8C9
  8
0
 62
     7
 10
167.4356988929000067
 20
6.0914040899999984
 30
0.0
 40
3.96875
  1
21
 41
0.75
  7
SLDTEXTSTYLE2
  0
ENDBLK
  5
8CB
  8
0
  0
BLOCK
  8
0
  2
*U190
 70
     1
 10
0.0
 20
0.0
 30
0.0
  3
*U190
  1

  0
TEXT
  5
8CD
  8
0
 62
     7
 10
167.4356988929000067
 20
832.0914040899998554
 30
0.0
 40
3.96875
  1
21
 41
0.75
  7
SLDTEXTSTYLE2
  0
ENDBLK
  5
8CF
  8
0
  0
BLOCK
  8
0
  2
*U191
 70
     1
 10
0.0
 20
0.0
 30
0.0
  3
*U191
  1

  0
TEXT
  5
8D1
  8
0
 62
     7
 10
217.1876520179000067
 20
6.0914040899999993
 30
0.0
 40
3.96875
  1
20
 41
0.75
  7
SLDTEXTSTYLE2
  0
ENDBLK
  5
8D3
  8
0
  0
BLOCK
  8
0
  2
*U192
 70
     1
 10
0.0
 20
0.0
 30
0.0
  3
*U192
  1

  0
TEXT
  5
8D5
  8
0
 62
     7
 10
217.1876520179000067
 20
832.0914040899998554
 30
0.0
 40
3.96875
  1
20
 41
0.75
  7
SLDTEXTSTYLE2
  0
ENDBLK
  5
8D7
  8
0
  0
BLOCK
  8
0
  2
*U193
 70
     1
 10
0.0
 20
0.0
 30
0.0
  3
*U193
  1

  0
TEXT
  5
8D9
  8
0
 62
     7
 10
267.4356988929000067
 20
6.0914040899999993
 30
0.0
 40
3.96875
  1
19
 41
0.75
  7
SLDTEXTSTYLE2
  0
ENDBLK
  5
8DB
  8
0
  0
BLOCK
  8
0
  2
*U194
 70
     1
 10
0.0
 20
0.0
 30
0.0
  3
*U194
  1

  0
TEXT
  5
8DD
  8
0
 62
     7
 10
267.4356988929000067
 20
832.0914040899998554
 30
0.0
 40
3.96875
  1
19
 41
0.75
  7
SLDTEXTSTYLE2
  0
ENDBLK
  5
8DF
  8
0
  0
BLOCK
  8
0
  2
*U195
 70
     1
 10
0.0
 20
0.0
 30
0.0
  3
*U195
  1

  0
TEXT
  5
8E1
  8
0
 62
     7
 10
317.4356988929000067
 20
6.0914040899999993
 30
0.0
 40
3.96875
  1
18
 41
0.75
  7
SLDTEXTSTYLE2
  0
ENDBLK
  5
8E3
  8
0
  0
BLOCK
  8
0
  2
*U196
 70
     1
 10
0.0
 20
0.0
 30
0.0
  3
*U196
  1

  0
TEXT
  5
8E5
  8
0
 62
     7
 10
317.4356988929000067
 20
832.0914040899998554
 30
0.0
 40
3.96875
  1
18
 41
0.75
  7
SLDTEXTSTYLE2
  0
ENDBLK
  5
8E7
  8
0
  0
BLOCK
  8
0
  2
*U197
 70
     1
 10
0.0
 20
0.0
 30
0.0
  3
*U197
  1

  0
TEXT
  5
8E9
  8
0
 62
     7
 10
367.4356988929000067
 20
6.0914040899999993
 30
0.0
 40
3.96875
  1
17
 41
0.75
  7
SLDTEXTSTYLE2
  0
ENDBLK
  5
8EB
  8
0
  0
BLOCK
  8
0
  2
*U198
 70
     1
 10
0.0
 20
0.0
 30
0.0
  3
*U198
  1

  0
TEXT
  5
8ED
  8
0
 62
     7
 10
367.4356988929000067
 20
832.0914040899998554
 30
0.0
 40
3.96875
  1
17
 41
0.75
  7
SLDTEXTSTYLE2
  0
ENDBLK
  5
8EF
  8
0
  0
BLOCK
  8
0
  2
*U199
 70
     1
 10
0.0
 20
0.0
 30
0.0
  3
*U199
  1

  0
TEXT
  5
8F1
  8
0
 62
     7
 10
417.4356988929000067
 20
6.0914040899999993
 30
0.0
 40
3.96875
  1
16
 41
0.75
  7
SLDTEXTSTYLE2
  0
ENDBLK
  5
8F3
  8
0
  0
BLOCK
  8
0
  2
*U200
 70
     1
 10
0.0
 20
0.0
 30
0.0
  3
*U200
  1

  0
TEXT
  5
8F5
  8
0
 62
     7
 10
417.4356988929000067
 20
832.0914040899998554
 30
0.0
 40
3.96875
  1
16
 41
0.75
  7
SLDTEXTSTYLE2
  0
ENDBLK
  5
8F7
  8
0
  0
BLOCK
  8
0
  2
*U201
 70
     1
 10
0.0
 20
0.0
 30
0.0
  3
*U201
  1

  0
TEXT
  5
8F9
  8
0
 62
     7
 10
467.4356988929000067
 20
6.0914040899999993
 30
0.0
 40
3.96875
  1
15
 41
0.75
  7
SLDTEXTSTYLE2
  0
ENDBLK
  5
8FB
  8
0
  0
BLOCK
  8
0
  2
*U202
 70
     1
 10
0.0
 20
0.0
 30
0.0
  3
*U202
  1

  0
TEXT
  5
8FD
  8
0
 62
     7
 10
467.4356988929000067
 20
832.0914040899998554
 30
0.0
 40
3.96875
  1
15
 41
0.75
  7
SLDTEXTSTYLE2
  0
ENDBLK
  5
8FF
  8
0
  0
BLOCK
  8
0
  2
*U203
 70
     1
 10
0.0
 20
0.0
 30
0.0
  3
*U203
  1

  0
TEXT
  5
901
  8
0
 62
     7
 10
517.4356988929001773
 20
6.0914040899999993
 30
0.0
 40
3.96875
  1
14
 41
0.75
  7
SLDTEXTSTYLE2
  0
ENDBLK
  5
903
  8
0
  0
BLOCK
  8
0
  2
*U204
 70
     1
 10
0.0
 20
0.0
 30
0.0
  3
*U204
  1

  0
TEXT
  5
905
  8
0
 62
     7
 10
517.4356988929001773
 20
832.0914040899998554
 30
0.0
 40
3.96875
  1
14
 41
0.75
  7
SLDTEXTSTYLE2
  0
ENDBLK
  5
907
  8
0
  0
BLOCK
  8
0
  2
*U205
 70
     1
 10
0.0
 20
0.0
 30
0.0
  3
*U205
  1

  0
TEXT
  5
909
  8
0
 62
     7
 10
567.4356988929001773
 20
6.0914040899999993
 30
0.0
 40
3.96875
  1
13
 41
0.75
  7
SLDTEXTSTYLE2
  0
ENDBLK
  5
90B
  8
0
  0
BLOCK
  8
0
  2
*U206
 70
     1
 10
0.0
 20
0.0
 30
0.0
  3
*U206
  1

  0
TEXT
  5
90D
  8
0
 62
     7
 10
567.4356988929001773
 20
832.0914040899998554
 30
0.0
 40
3.96875
  1
13
 41
0.75
  7
SLDTEXTSTYLE2
  0
ENDBLK
  5
90F
  8
0
  0
BLOCK
  8
0
  2
*U207
 70
     1
 10
0.0
 20
0.0
 30
0.0
  3
*U207
  1

  0
TEXT
  5
911
  8
0
 62
     7
 10
617.4356988929001773
 20
6.0914040899999993
 30
0.0
 40
3.96875
  1
12
 41
0.75
  7
SLDTEXTSTYLE2
  0
ENDBLK
  5
913
  8
0
  0
BLOCK
  8
0
  2
*U208
 70
     1
 10
0.0
 20
0.0
 30
0.0
  3
*U208
  1

  0
TEXT
  5
915
  8
0
 62
     7
 10
617.4356988929001773
 20
832.0914040899998554
 30
0.0
 40
3.96875
  1
12
 41
0.75
  7
SLDTEXTSTYLE2
  0
ENDBLK
  5
917
  8
0
  0
BLOCK
  8
0
  2
*U209
 70
     1
 10
0.0
 20
0.0
 30
0.0
  3
*U209
  1

  0
TEXT
  5
919
  8
0
 62
     7
 10
667.9317926429001773
 20
6.0914040899999993
 30
0.0
 40
3.96875
  1
11
 41
0.75
  7
SLDTEXTSTYLE2
  0
ENDBLK
  5
91B
  8
0
  0
BLOCK
  8
0
  2
*U210
 70
     1
 10
0.0
 20
0.0
 30
0.0
  3
*U210
  1

  0
TEXT
  5
91D
  8
0
 62
     7
 10
667.9317926429001773
 20
832.0914040899998554
 30
0.0
 40
3.96875
  1
11
 41
0.75
  7
SLDTEXTSTYLE2
  0
ENDBLK
  5
91F
  8
0
  0
BLOCK
  8
0
  2
*U211
 70
     1
 10
0.0
 20
0.0
 30
0.0
  3
*U211
  1

  0
TEXT
  5
921
  8
0
 62
     7
 10
717.6837457678999499
 20
6.0914040899999993
 30
0.0
 40
3.96875
  1
10
 41
0.75
  7
SLDTEXTSTYLE2
  0
ENDBLK
  5
923
  8
0
  0
BLOCK
  8
0
  2
*U212
 70
     1
 10
0.0
 20
0.0
 30
0.0
  3
*U212
  1

  0
TEXT
  5
925
  8
0
 62
     7
 10
717.6837457678999499
 20
832.0914040899998554
 30
0.0
 40
3.96875
  1
10
 41
0.75
  7
SLDTEXTSTYLE2
  0
ENDBLK
  5
927
  8
0
  0
BLOCK
  8
0
  2
*U213
 70
     1
 10
0.0
 20
0.0
 30
0.0
  3
*U213
  1

  0
TEXT
  5
929
  8
0
 62
     7
 10
768.4678494464999403
 20
6.0914040899999993
 30
0.0
 40
3.96875
  1
9
 41
0.75
  7
SLDTEXTSTYLE2
  0
ENDBLK
  5
92B
  8
0
  0
BLOCK
  8
0
  2
*U214
 70
     1
 10
0.0
 20
0.0
 30
0.0
  3
*U214
  1

  0
TEXT
  5
92D
  8
0
 62
     7
 10
768.4678494464999403
 20
832.0914040899998554
 30
0.0
 40
3.96875
  1
9
 41
0.75
  7
SLDTEXTSTYLE2
  0
ENDBLK
  5
92F
  8
0
  0
BLOCK
  8
0
  2
*U215
 70
     1
 10
0.0
 20
0.0
 30
0.0
  3
*U215
  1

  0
TEXT
  5
931
  8
0
 62
     7
 10
818.467849446500054
 20
6.0914040899999993
 30
0.0
 40
3.96875
  1
8
 41
0.75
  7
SLDTEXTSTYLE2
  0
ENDBLK
  5
933
  8
0
  0
BLOCK
  8
0
  2
*U216
 70
     1
 10
0.0
 20
0.0
 30
0.0
  3
*U216
  1

  0
TEXT
  5
935
  8
0
 62
     7
 10
818.467849446500054
 20
832.0914040899998554
 30
0.0
 40
3.96875
  1
8
 41
0.75
  7
SLDTEXTSTYLE2
  0
ENDBLK
  5
937
  8
0
  0
BLOCK
  8
0
  2
*U217
 70
     1
 10
0.0
 20
0.0
 30
0.0
  3
*U217
  1

  0
TEXT
  5
939
  8
0
 62
     7
 10
868.467849446500054
 20
6.0914040899999993
 30
0.0
 40
3.96875
  1
7
 41
0.75
  7
SLDTEXTSTYLE2
  0
ENDBLK
  5
93B
  8
0
  0
BLOCK
  8
0
  2
*U218
 70
     1
 10
0.0
 20
0.0
 30
0.0
  3
*U218
  1

  0
TEXT
  5
93D
  8
0
 62
     7
 10
868.467849446500054
 20
832.0914040899998554
 30
0.0
 40
3.96875
  1
7
 41
0.75
  7
SLDTEXTSTYLE2
  0
ENDBLK
  5
93F
  8
0
  0
BLOCK
  8
0
  2
*U219
 70
     1
 10
0.0
 20
0.0
 30
0.0
  3
*U219
  1

  0
TEXT
  5
941
  8
0
 62
     7
 10
918.467849446500054
 20
6.0914040899999993
 30
0.0
 40
3.96875
  1
6
 41
0.75
  7
SLDTEXTSTYLE2
  0
ENDBLK
  5
943
  8
0
  0
BLOCK
  8
0
  2
*U220
 70
     1
 10
0.0
 20
0.0
 30
0.0
  3
*U220
  1

  0
TEXT
  5
945
  8
0
 62
     7
 10
918.467849446500054
 20
832.0914040899998554
 30
0.0
 40
3.96875
  1
6
 41
0.75
  7
SLDTEXTSTYLE2
  0
ENDBLK
  5
947
  8
0
  0
BLOCK
  8
0
  2
*U221
 70
     1
 10
0.0
 20
0.0
 30
0.0
  3
*U221
  1

  0
TEXT
  5
949
  8
0
 62
     7
 10
968.467849446500054
 20
6.0914040899999993
 30
0.0
 40
3.96875
  1
5
 41
0.75
  7
SLDTEXTSTYLE2
  0
ENDBLK
  5
94B
  8
0
  0
BLOCK
  8
0
  2
*U222
 70
     1
 10
0.0
 20
0.0
 30
0.0
  3
*U222
  1

  0
TEXT
  5
94D
  8
0
 62
     7
 10
968.467849446500054
 20
832.0914040899998554
 30
0.0
 40
3.96875
  1
5
 41
0.75
  7
SLDTEXTSTYLE2
  0
ENDBLK
  5
94F
  8
0
  0
BLOCK
  8
0
  2
*U223
 70
     1
 10
0.0
 20
0.0
 30
0.0
  3
*U223
  1

  0
TEXT
  5
951
  8
0
 62
     7
 10
1018.467849446500054
 20
6.0914040899999993
 30
0.0
 40
3.96875
  1
4
 41
0.75
  7
SLDTEXTSTYLE2
  0
ENDBLK
  5
953
  8
0
  0
BLOCK
  8
0
  2
*U224
 70
     1
 10
0.0
 20
0.0
 30
0.0
  3
*U224
  1

  0
TEXT
  5
955
  8
0
 62
     7
 10
1018.467849446500054
 20
832.0914040899998554
 30
0.0
 40
3.96875
  1
4
 41
0.75
  7
SLDTEXTSTYLE2
  0
ENDBLK
  5
957
  8
0
  0
BLOCK
  8
0
  2
*U225
 70
     1
 10
0.0
 20
0.0
 30
0.0
  3
*U225
  1

  0
TEXT
  5
959
  8
0
 62
     7
 10
1068.4678494464999403
 20
6.0914040899999993
 30
0.0
 40
3.96875
  1
3
 41
0.75
  7
SLDTEXTSTYLE2
  0
ENDBLK
  5
95B
  8
0
  0
BLOCK
  8
0
  2
*U226
 70
     1
 10
0.0
 20
0.0
 30
0.0
  3
*U226
  1

  0
TEXT
  5
95D
  8
0
 62
     7
 10
1068.4678494464999403
 20
832.0914040899998554
 30
0.0
 40
3.96875
  1
3
 41
0.75
  7
SLDTEXTSTYLE2
  0
ENDBLK
  5
95F
  8
0
  0
BLOCK
  8
0
  2
*U227
 70
     1
 10
0.0
 20
0.0
 30
0.0
  3
*U227
  1

  0
TEXT
  5
961
  8
0
 62
     7
 10
1118.4678494464999403
 20
6.0914040899999993
 30
0.0
 40
3.96875
  1
2
 41
0.75
  7
SLDTEXTSTYLE2
  0
ENDBLK
  5
963
  8
0
  0
BLOCK
  8
0
  2
*U228
 70
     1
 10
0.0
 20
0.0
 30
0.0
  3
*U228
  1

  0
TEXT
  5
965
  8
0
 62
     7
 10
1118.4678494464999403
 20
832.0914040899998554
 30
0.0
 40
3.96875
  1
2
 41
0.75
  7
SLDTEXTSTYLE2
  0
ENDBLK
  5
967
  8
0
  0
BLOCK
  8
0
  2
*U229
 70
     1
 10
0.0
 20
0.0
 30
0.0
  3
*U229
  1

  0
TEXT
  5
969
  8
0
 62
     7
 10
1161.2139431964999403
 20
6.0914040899999993
 30
0.0
 40
3.96875
  1
1
 41
0.75
  7
SLDTEXTSTYLE2
  0
ENDBLK
  5
96B
  8
0
  0
BLOCK
  8
0
  2
*U230
 70
     1
 10
0.0
 20
0.0
 30
0.0
  3
*U230
  1

  0
TEXT
  5
96D
  8
0
 62
     7
 10
1161.2139431964999403
 20
832.0914040899998554
 30
0.0
 40
3.96875
  1
1
 41
0.75
  7
SLDTEXTSTYLE2
  0
ENDBLK
  5
96F
  8
0
  0
BLOCK
  8
0
  2
*U231
 70
     1
 10
0.0
 20
0.0
 30
0.0
  3
*U231
  1

  0
TEXT
  5
971
  8
BORDER
 62
     0
 10
0.0
 20
0.7226693493999991
 30
0.0
 40
2.5
  1
NOTES:
 41
0.605
  7
SLDTEXTSTYLE0
  0
ENDBLK
  5
973
  8
0
  0
BLOCK
  8
0
  2
*U232
 70
     1
 10
0.0
 20
0.0
 30
0.0
  3
*U232
  1

  0
TEXT
  5
976
  8
BORDER
 62
     0
 10
0.0
 20
-2.9436411208000002
 30
0.0
 40
2.5
  1
1. Lm s
 41
0.605
  7
SLDTEXTSTYLE3
  0
TEXT
  5
977
  8
BORDER
 62
     0
 10
9.3774999999999995
 20
-2.9436411208000002
 30
0.0
 40
2.5
  1
\U+1EA1
 41
0.605
  7
MtXpl_MS_PGothic
  0
TEXT
  5
979
  8
BORDER
 62
     0
 10
11.5775000000000006
 20
-2.9436411208000002
 30
0.0
 40
2.5
  1
ch ba via, lm t c
 41
0.605
  7
SLDTEXTSTYLE3
  0
TEXT
  5
97A
  8
BORDER
 62
     0
 10
34.7691666666666634
 20
-2.9436411208000002
 30
0.0
 40
2.5
  1
\U+1EA1
 41
0.605
  7
MtXpl_MS_PGothic
  0
TEXT
  5
97B
  8
BORDER
 62
     0
 10
36.9691666666666734
 20
-2.9436411208000002
 30
0.0
 40
2.5
  1
nh s
 41
0.605
  7
SLDTEXTSTYLE3
  0
TEXT
  5
97C
  8
BORDER
 62
     0
 10
42.4141666666666595
 20
-2.9436411208000002
 30
0.0
 40
2.5
  1
\U+1EAF
 41
0.605
  7
MtXpl_MS_PGothic
  0
TEXT
  5
97D
  8
BORDER
 62
     0
 10
44.6141666666666694
 20
-2.9436411208000002
 30
0.0
 40
2.5
  1
c sau khi gia cng.
 41
0.605
  7
SLDTEXTSTYLE3
  0
ENDBLK
  5
97F
  8
0
  0
BLOCK
  8
0
  2
*U233
 70
     1
 10
0.0
 20
0.0
 30
0.0
  3
*U233
  1

  0
TEXT
  5
981
  8
BORDER
 62
     0
 10
0.0
 20
-6.443641228799998
 30
0.0
 40
2.5
  1
2. Kch th
 41
0.605
  7
SLDTEXTSTYLE3
  0
TEXT
  5
982
  8
BORDER
 62
     0
 10
12.4024999999999999
 20
-6.443641228799998
 30
0.0
 40
2.5
  1
\U+01B0
 41
0.605
  7
SLDTEXTSTYLE3
  0
TEXT
  5
983
  8
BORDER
 62
     0
 10
13.8169866984993099
 20
-6.443641228799998
 30
0.0
 40
2.5
  1
\U+1EDB
 41
0.605
  7
MtXpl_MS_PGothic
  0
TEXT
  5
984
  8
BORDER
 62
     0
 10
16.0169866984993092
 20
-6.443641228799998
 30
0.0
 40
2.5
  1
c ch
 41
0.605
  7
SLDTEXTSTYLE3
  0
TEXT
  5
985
  8
BORDER
 62
     0
 10
21.4619866984993202
 20
-6.443641228799998
 30
0.0
 40
2.5
  1
\U+01B0
 41
0.605
  7
SLDTEXTSTYLE3
  0
TEXT
  5
986
  8
BORDER
 62
     0
 10
22.8764733969986409
 20
-6.443641228799998
 30
0.0
 40
2.5
  1
a r tun theo b
 41
0.605
  7
SLDTEXTSTYLE3
  0
TEXT
  5
987
  8
BORDER
 62
     0
 10
44.6564733969986278
 20
-6.443641228799998
 30
0.0
 40
2.5
  1
\U+1EA3
 41
0.605
  7
MtXpl_MS_PGothic
  0
TEXT
  5
988
  8
BORDER
 62
     0
 10
46.8564733969986378
 20
-6.443641228799998
 30
0.0
 40
2.5
  1
n 3D
 41
0.605
  7
SLDTEXTSTYLE3
  0
ENDBLK
  5
98A
  8
0
  0
BLOCK
  8
0
  2
*U234
 70
     1
 10
0.0
 20
0.0
 30
0.0
  3
*U234
  1

  0
TEXT
  5
98C
  8
BORDER
 62
     0
 10
0.0
 20
-9.7873913367999972
 30
0.0
 40
2.5
  1
3. Dung sai ch
 41
0.605
  7
SLDTEXTSTYLE3
  0
TEXT
  5
98D
  8
BORDER
 62
     0
 10
17.3433333333333302
 20
-9.7873913367999972
 30
0.0
 40
2.5
  1
\U+01B0
 41
0.605
  7
SLDTEXTSTYLE3
  0
TEXT
  5
98E
  8
BORDER
 62
     0
 10
18.7578200318326509
 20
-9.7873913367999972
 30
0.0
 40
2.5
  1
a r tun theo ISO 2768-m
 41
0.605
  7
SLDTEXTSTYLE3
  0
ENDBLK
  5
990
  8
0
  0
BLOCK
  8
0
  2
*U235
 70
     1
 10
0.0
 20
0.0
 30
0.0
  3
*U235
  1

  0
TEXT
  5
992
  8
BORDER
 10
855.4336672383999485
 20
558.5312510264998309
 30
0.0
 40
6.8791666666999989
  1
\U+2205
 41
0.75
  7
SLDTEXTSTYLE2
  0
ENDBLK
  5
994
  8
0
  0
BLOCK
  8
0
  2
*U236
 70
     1
 10
0.0
 20
0.0
 30
0.0
  3
*U236
  1

  0
TEXT
  5
996
  8
BORDER
 10
865.8173868167998535
 20
558.5312510264998309
 30
0.0
 40
6.8791666666999989
  1
500.00
 41
0.75
  7
SLDTEXTSTYLE2
  0
ENDBLK
  5
998
  8
0
  0
BLOCK
  8
0
  2
*U237
 70
     1
 10
0.0
 20
0.0
 30
0.0
  3
*U237
  1

  0
TEXT
  5
99A
  8
BORDER
 10
592.1383027036997646
 20
739.1695649276998665
 30
0.0
 40
6.8791666666999989
  1
170.00
 41
0.75
  7
SLDTEXTSTYLE2
  0
ENDBLK
  5
99C
  8
0
  0
BLOCK
  8
0
  2
*U238
 70
     1
 10
0.0
 20
0.0
 30
0.0
  3
*U238
  1

  0
TEXT
  5
99E
  8
BORDER
 10
761.1715313141002071
 20
682.1328140837999854
 30
0.0
 40
6.8791666666999989
  1
\U+2205
 41
0.75
  7
SLDTEXTSTYLE2
  0
ENDBLK
  5
9A0
  8
0
  0
BLOCK
  8
0
  2
*U239
 70
     1
 10
0.0
 20
0.0
 30
0.0
  3
*U239
  1

  0
TEXT
  5
9A2
  8
BORDER
 10
771.5552508924999984
 20
682.1328140837999854
 30
0.0
 40
6.8791666666999989
  1
3.40
 41
0.75
  7
SLDTEXTSTYLE2
  0
ENDBLK
  5
9A4
  8
0
  0
BLOCK
  8
0
  2
*U240
 70
     1
 10
0.0
 20
0.0
 30
0.0
  3
*U240
  1

  0
TEXT
  5
9DF
  8
AM_5
 62
     2
 10
862.5047374875834976
 20
617.1117580911979985
 30
0.0
 40
6.6499999999999986
  1
t4
  0
ENDBLK
  5
9E1
  8
0
  0
ENDSEC
  0
SECTION
  2
ENTITIES
  0
INSERT
  5
78
  8
TRIM
  6
CONTINUOUS
  2
*U39
 10
0.0
 20
0.0
 30
0.0
1001
ACAD
1002
{
1000
R14_HATCH_DATA
1000
78
1011
1.0
1021
0.0
1031
0.0
1021
0.0
1031
0.0
1011
0.0
1021
0.0
1031
0.0
1021
1.0
1031
0.0
1011
0.0
1021
0.0
1031
0.0
1021
0.0
1031
1.0
1040
0.0
1010
0.0
1020
0.0
1030
1.0
1000
SOLID
1070
     1
1070
     0
1071
        1
1071
        0
1071
        6
1070
     1
1040
10.0
1040
0.0
1040
10.0
1040
5.0
1070
     1
1040
10.0
1040
5.0
1040
5.0000000000000009
1040
4.9999999999999991
1070
     1
1040
5.0000000000000009
1040
4.9999999999999991
1040
5.0
1040
9.9999999999999982
1070
     1
1040
5.0
1040
9.9999999999999982
1040
0.0
1040
9.9999999999999982
1070
     1
1040
0.0
1040
9.9999999999999982
1040
0.0
1040
0.0
1070
     1
1040
0.0
1040
0.0
1040
10.0
1040
0.0
1071
        0
1070
     0
1070
     1
1071
        1
1040
0.0
1040
0.0
1040
0.0
1002
}
  0
INSERT
  5
79
  8
TRIM
  6
CONTINUOUS
  2
*U40
 10
0.0
 20
0.0
 30
0.0
1001
ACAD
1002
{
1000
R14_HATCH_DATA
1000
79
1011
1.0
1021
0.0
1031
0.0
1021
0.0
1031
0.0
1011
0.0
1021
0.0
1031
0.0
1021
1.0
1031
0.0
1011
0.0
1021
0.0
1031
0.0
1021
0.0
1031
1.0
1040
0.0
1010
0.0
1020
0.0
1030
1.0
1000
SOLID
1070
     1
1070
     0
1071
        1
1071
        0
1071
        6
1070
     1
1040
0.0
1040
831.0
1040
4.9999999999999014
1040
831.0
1070
     1
1040
4.9999999999999014
1040
831.0
1040
4.9999999999999014
1040
836.0
1070
     1
1040
4.9999999999999014
1040
836.0
1040
9.999999999999801
1040
836.0
1070
     1
1040
9.999999999999801
1040
836.0
1040
9.9999999999997975
1040
841.0
1070
     1
1040
9.9999999999997975
1040
841.0
1040
0.0
1040
841.0
1070
     1
1040
0.0
1040
841.0
1040
0.0
1040
831.0
1071
        0
1070
     0
1070
     1
1071
        1
1040
0.0
1040
0.0
1040
0.0
1002
}
  0
INSERT
  5
7A
  8
TRIM
  6
CONTINUOUS
  2
*U41
 10
0.0
 20
0.0
 30
0.0
1001
ACAD
1002
{
1000
R14_HATCH_DATA
1000
7A
1011
1.0
1021
0.0
1031
0.0
1021
0.0
1031
0.0
1011
0.0
1021
0.0
1031
0.0
1021
1.0
1031
0.0
1011
0.0
1021
0.0
1031
0.0
1021
0.0
1031
1.0
1040
0.0
1010
0.0
1020
0.0
1030
1.0
1000
SOLID
1070
     1
1070
     0
1071
        1
1071
        0
1071
        6
1070
     1
1040
1184.0
1040
836.0
1040
1184.0
1040
831.0
1070
     1
1040
1184.0
1040
831.0
1040
1189.0
1040
831.0
1070
     1
1040
1189.0
1040
831.0
1040
1189.0
1040
841.0
1070
     1
1040
1189.0
1040
841.0
1040
1179.0
1040
841.0
1070
     1
1040
1179.0
1040
841.0
1040
1179.0
1040
836.0
1070
     1
1040
1179.0
1040
836.0
1040
1184.0
1040
836.0
1071
        0
1070
     0
1070
     1
1071
        1
1040
0.0
1040
0.0
1040
0.0
1002
}
  0
INSERT
  5
7B
  8
TRIM
  6
CONTINUOUS
  2
*U42
 10
0.0
 20
0.0
 30
0.0
1001
ACAD
1002
{
1000
R14_HATCH_DATA
1000
7B
1011
1.0
1021
0.0
1031
0.0
1021
0.0
1031
0.0
1011
0.0
1021
0.0
1031
0.0
1021
1.0
1031
0.0
1011
0.0
1021
0.0
1031
0.0
1021
0.0
1031
1.0
1040
0.0
1010
0.0
1020
0.0
1030
1.0
1000
SOLID
1070
     1
1070
     0
1071
        1
1071
        0
1071
        6
1070
     1
1040
1189.0
1040
10.0000000000000107
1040
1184.0
1040
10.0000000000000107
1070
     1
1040
1184.0
1040
10.0000000000000107
1040
1184.0
1040
5.0
1070
     1
1040
1184.0
1040
5.0
1040
1179.0
1040
5.0
1070
     1
1040
1179.0
1040
5.0
1040
1179.0
1040
0.0
1070
     1
1040
1179.0
1040
0.0
1040
1189.0
1040
0.0
1070
     1
1040
1189.0
1040
0.0
1040
1189.0
1040
10.0000000000000107
1071
        0
1070
     0
1070
     1
1071
        1
1040
0.0
1040
0.0
1040
0.0
1002
}
  0
LINE
  5
7C
  8
BORDER
 10
544.5
 20
836.0
 30
0.0
 11
544.5
 21
831.0
 31
0.0
  0
LINE
  5
7D
  8
BORDER
 10
494.5
 20
836.0
 30
0.0
 11
494.5
 21
831.0
 31
0.0
  0
LINE
  5
7E
  8
BORDER
 10
444.5
 20
836.0
 30
0.0
 11
444.5
 21
831.0
 31
0.0
  0
LINE
  5
7F
  8
BORDER
 10
394.5
 20
836.0
 30
0.0
 11
394.5
 21
831.0
 31
0.0
  0
LINE
  5
80
  8
BORDER
 10
344.5
 20
836.0
 30
0.0
 11
344.5
 21
831.0
 31
0.0
  0
LINE
  5
81
  8
BORDER
 10
294.5
 20
836.0
 30
0.0
 11
294.5
 21
831.0
 31
0.0
  0
LINE
  5
82
  8
BORDER
 10
244.5
 20
836.0
 30
0.0
 11
244.5
 21
831.0
 31
0.0
  0
LINE
  5
83
  8
BORDER
 10
194.5
 20
836.0
 30
0.0
 11
194.5
 21
831.0
 31
0.0
  0
LINE
  5
84
  8
BORDER
 10
144.5
 20
836.0
 30
0.0
 11
144.5
 21
831.0
 31
0.0
  0
LINE
  5
85
  8
BORDER
 10
94.5000000000000142
 20
836.0
 30
0.0
 11
94.5000000000000142
 21
831.0
 31
0.0
  0
LINE
  5
86
  8
BORDER
 10
44.5
 20
836.0
 30
0.0
 11
44.5
 21
831.0
 31
0.0
  0
LINE
  5
87
  8
BORDER
 10
644.5
 20
836.0
 30
0.0
 11
644.5
 21
831.0
 31
0.0
  0
LINE
  5
88
  8
BORDER
 10
694.5
 20
836.0
 30
0.0
 11
694.5
 21
831.0
 31
0.0
  0
LINE
  5
89
  8
BORDER
 10
744.5
 20
836.0
 30
0.0
 11
744.5
 21
831.0
 31
0.0
  0
LINE
  5
8A
  8
BORDER
 10
794.5
 20
836.0
 30
0.0
 11
794.5
 21
831.0
 31
0.0
  0
LINE
  5
8B
  8
BORDER
 10
844.5
 20
836.0
 30
0.0
 11
844.5
 21
831.0
 31
0.0
  0
LINE
  5
8C
  8
BORDER
 10
894.5
 20
836.0
 30
0.0
 11
894.5
 21
831.0
 31
0.0
  0
LINE
  5
8D
  8
BORDER
 10
944.5
 20
836.0
 30
0.0
 11
944.5
 21
831.0
 31
0.0
  0
LINE
  5
8E
  8
BORDER
 10
994.5
 20
836.0
 30
0.0
 11
994.5
 21
831.0
 31
0.0
  0
LINE
  5
8F
  8
BORDER
 10
1044.5
 20
836.0
 30
0.0
 11
1044.5
 21
831.0
 31
0.0
  0
LINE
  5
90
  8
BORDER
 10
1094.5
 20
836.0
 30
0.0
 11
1094.5
 21
831.0
 31
0.0
  0
LINE
  5
91
  8
BORDER
 10
1144.5
 20
836.0
 30
0.0
 11
1144.5
 21
831.0
 31
0.0
  0
LINE
  5
92
  8
BORDER
 10
1116.015891910900109
 20
33.5701816129000008
 30
0.0
 11
1058.9982143847000771
 21
33.5701816129000008
 31
0.0
  0
LINE
  5
93
  8
BORDER
 10
1147.5699836286000846
 20
52.0
 30
0.0
 11
1147.5699836286000846
 21
33.5701816129000008
 31
0.0
  0
LINE
  5
94
  8
BORDER
  6
CONTINUOUS
 10
1134.9813812183999744
 20
10.0
 30
0.0
 11
1134.9813812183999744
 21
33.5701816129000008
 31
0.0
  0
LINE
  5
95
  8
BORDER
 10
1179.0
 20
42.5701816129000008
 30
0.0
 11
1116.015891910900109
 21
42.5701816129000008
 31
0.0
  0
LINE
  5
96
  8
BORDER
 10
1116.015891910900109
 20
24.5701816129000008
 30
0.0
 11
1088.9982143847000771
 21
24.5701816129000008
 31
0.0
  0
LINE
  5
97
  8
0
  6
CONTINUOUS
 62
     7
 10
10.0
 20
10.0
 30
0.0
 11
10.0
 21
831.0
 31
0.0
  0
LINE
  5
98
  8
BORDER
  6
CONTINUOUS
 10
1167.2000000000000455
 20
10.0
 30
0.0
 11
1167.2000000000000455
 21
24.5701816129000008
 31
0.0
  0
LINE
  5
99
  8
BORDER
  6
CONTINUOUS
 10
1179.0
 20
24.5701816129000008
 30
0.0
 11
1116.015891910900109
 21
24.5701816129000008
 31
0.0
  0
LINE
  5
9A
  8
BORDER
  6
CONTINUOUS
 10
1152.2000000000000455
 20
10.0
 30
0.0
 11
1152.2000000000000455
 21
24.5701816129000008
 31
0.0
  0
LINE
  5
9B
  8
BORDER
 10
1067.714658106800016
 20
14.8656048576999993
 30
0.0
 11
1079.7284011771000678
 21
14.8656048576999993
 31
0.0
  0
LINE
  5
9C
  8
BORDER
 10
1058.9982143847000771
 20
52.0
 30
0.0
 11
1178.9982143847000771
 21
52.0
 31
0.0
  0
LINE
  5
9D
  8
BORDER
  6
CONTINUOUS
 10
1058.9982143847000771
 20
52.0
 30
0.0
 11
1058.9982143847000771
 21
10.0
 31
0.0
  0
LINE
  5
9E
  8
0
  6
CONTINUOUS
 62
     7
 10
10.0
 20
831.0
 30
0.0
 11
1179.0
 21
831.0
 31
0.0
  0
LINE
  5
9F
  8
0
  6
CONTINUOUS
 62
     7
 10
1179.0
 20
831.0
 30
0.0
 11
1179.0
 21
10.0
 31
0.0
  0
LINE
  5
A0
  8
0
  6
CONTINUOUS
 62
     7
 10
1179.0
 20
10.0
 30
0.0
 11
10.0
 21
10.0
 31
0.0
  0
LINE
  5
A1
  8
BORDER
 10
1116.015891910900109
 20
52.0
 30
0.0
 11
1116.015891910900109
 21
10.0
 31
0.0
  0
LINE
  5
A2
  8
BORDER
 10
1179.0
 20
470.5
 30
0.0
 11
1184.0
 21
470.5
 31
0.0
  0
LINE
  5
A3
  8
BORDER
 10
1179.0
 20
520.5
 30
0.0
 11
1184.0
 21
520.5
 31
0.0
  0
LINE
  5
A4
  8
BORDER
 10
1179.0
 20
570.5
 30
0.0
 11
1184.0
 21
570.5
 31
0.0
  0
LINE
  5
A5
  8
BORDER
 10
1179.0
 20
620.5
 30
0.0
 11
1184.0
 21
620.5
 31
0.0
  0
LINE
  5
A6
  8
BORDER
 10
1179.0
 20
670.5
 30
0.0
 11
1184.0
 21
670.5
 31
0.0
  0
LINE
  5
A7
  8
BORDER
 10
1179.0
 20
720.5
 30
0.0
 11
1184.0
 21
720.5
 31
0.0
  0
LINE
  5
A8
  8
BORDER
 10
1179.0
 20
770.5
 30
0.0
 11
1184.0
 21
770.5
 31
0.0
  0
LINE
  5
A9
  8
BORDER
 10
1179.0
 20
370.5
 30
0.0
 11
1184.0
 21
370.5
 31
0.0
  0
LINE
  5
AA
  8
BORDER
 10
1179.0
 20
320.5
 30
0.0
 11
1184.0
 21
320.5
 31
0.0
  0
LINE
  5
AB
  8
0
  6
CONTINUOUS
 62
     7
 10
5.0
 20
5.0
 30
0.0
 11
5.0
 21
836.0
 31
0.0
  0
LINE
  5
AC
  8
BORDER
  6
CONTINUOUS
 10
1074.1558991771000819
 20
16.1156048576999993
 30
0.0
 11
1074.1558991771000819
 21
13.6156048576999993
 31
0.0
  0
LINE
  5
AD
  8
BORDER
  6
CONTINUOUS
 10
1074.1558991771000819
 20
13.6156048576999993
 30
0.0
 11
1079.1558991771000819
 21
12.3656048576999993
 31
0.0
  0
LINE
  5
AE
  8
BORDER
  6
CONTINUOUS
 10
1079.1558991771000819
 20
12.3656048576999993
 30
0.0
 11
1079.1558991771000819
 21
17.3656048576999993
 31
0.0
  0
LINE
  5
AF
  8
BORDER
 10
1179.0
 20
270.5
 30
0.0
 11
1184.0
 21
270.5
 31
0.0
  0
LINE
  5
B0
  8
BORDER
 10
15.0
 20
836.0
 30
0.0
 11
1184.0
 21
836.0
 31
0.0
  0
LINE
  5
B1
  8
BORDER
 10
15.0
 20
836.0
 30
0.0
 11
15.0
 21
5.0
 31
0.0
  0
LINE
  5
B2
  8
BORDER
 10
15.0
 20
5.0
 30
0.0
 11
1184.0
 21
5.0
 31
0.0
  0
LINE
  5
B3
  8
BORDER
 10
1184.0
 20
836.0
 30
0.0
 11
1184.0
 21
5.0
 31
0.0
  0
LINE
  5
B4
  8
BORDER
 10
20.0
 20
831.0
 30
0.0
 11
1179.0
 21
831.0
 31
0.0
  0
LINE
  5
B5
  8
BORDER
 10
20.0
 20
831.0
 30
0.0
 11
20.0
 21
10.0
 31
0.0
  0
LINE
  5
B6
  8
BORDER
 10
20.0
 20
10.0
 30
0.0
 11
1179.0
 21
10.0
 31
0.0
  0
LINE
  5
B7
  8
BORDER
 10
1179.0
 20
831.0
 30
0.0
 11
1179.0
 21
10.0
 31
0.0
  0
LINE
  5
B8
  8
BORDER
 10
1179.0
 20
220.5
 30
0.0
 11
1184.0
 21
220.5
 31
0.0
  0
LINE
  5
B9
  8
BORDER
 10
594.5
 20
836.0
 30
0.0
 11
594.5
 21
826.0
 31
0.0
  0
LINE
  5
BA
  8
BORDER
 10
594.5
 20
5.0
 30
0.0
 11
594.5
 21
15.0
 31
0.0
  0
LINE
  5
BB
  8
BORDER
 10
15.0
 20
420.5
 30
0.0
 11
25.0
 21
420.5
 31
0.0
  0
LINE
  5
BC
  8
BORDER
 10
1184.0
 20
420.5
 30
0.0
 11
1174.0
 21
420.5
 31
0.0
  0
LINE
  5
BD
  8
BORDER
 10
544.5
 20
10.0
 30
0.0
 11
544.5
 21
5.0
 31
0.0
  0
LINE
  5
BE
  8
BORDER
 10
494.5
 20
10.0
 30
0.0
 11
494.5
 21
5.0
 31
0.0
  0
LINE
  5
BF
  8
BORDER
 10
444.5
 20
10.0
 30
0.0
 11
444.5
 21
5.0
 31
0.0
  0
LINE
  5
C0
  8
BORDER
 10
394.5
 20
10.0
 30
0.0
 11
394.5
 21
5.0
 31
0.0
  0
LINE
  5
C1
  8
BORDER
  6
CONTINUOUS
 10
1079.1558991771000819
 20
17.3656048576999993
 30
0.0
 11
1074.1558991771000819
 21
16.1156048576999993
 31
0.0
  0
LINE
  5
C2
  8
BORDER
 10
1179.1240753463000601
 20
33.5701816129000008
 30
0.0
 11
1116.015891910900109
 21
33.5701816129000008
 31
0.0
  0
LINE
  5
C3
  8
BORDER
 10
344.5
 20
10.0
 30
0.0
 11
344.5
 21
5.0
 31
0.0
  0
LINE
  5
C4
  8
0
  6
CONTINUOUS
 62
     7
 10
5.0
 20
836.0
 30
0.0
 11
1184.0
 21
836.0
 31
0.0
  0
LINE
  5
C5
  8
0
  6
CONTINUOUS
 62
     7
 10
1184.0
 20
836.0
 30
0.0
 11
1184.0
 21
5.0
 31
0.0
  0
LINE
  5
C6
  8
BORDER
 10
294.5
 20
10.0
 30
0.0
 11
294.5
 21
5.0
 31
0.0
  0
LINE
  5
C7
  8
BORDER
 10
244.5
 20
10.0
 30
0.0
 11
244.5
 21
5.0
 31
0.0
  0
LINE
  5
C8
  8
BORDER
 10
194.5
 20
10.0
 30
0.0
 11
194.5
 21
5.0
 31
0.0
  0
LINE
  5
C9
  8
BORDER
 10
144.5
 20
10.0
 30
0.0
 11
144.5
 21
5.0
 31
0.0
  0
LINE
  5
CA
  8
BORDER
 10
94.5000000000000142
 20
10.0
 30
0.0
 11
94.5000000000000142
 21
5.0
 31
0.0
  0
LINE
  5
CB
  8
BORDER
 10
1179.0
 20
170.5
 30
0.0
 11
1184.0
 21
170.5
 31
0.0
  0
LINE
  5
CC
  8
BORDER
 10
44.5
 20
10.0
 30
0.0
 11
44.5
 21
5.0
 31
0.0
  0
LINE
  5
CD
  8
BORDER
 10
644.5
 20
10.0
 30
0.0
 11
644.5
 21
5.0
 31
0.0
  0
LINE
  5
CE
  8
BORDER
 10
694.5
 20
10.0
 30
0.0
 11
694.5
 21
5.0
 31
0.0
  0
LINE
  5
CF
  8
BORDER
 10
744.5
 20
10.0
 30
0.0
 11
744.5
 21
5.0
 31
0.0
  0
LINE
  5
D0
  8
BORDER
 10
794.5
 20
10.0
 30
0.0
 11
794.5
 21
5.0
 31
0.0
  0
LINE
  5
D1
  8
BORDER
 10
844.5
 20
10.0
 30
0.0
 11
844.5
 21
5.0
 31
0.0
  0
LINE
  5
D2
  8
BORDER
 10
894.5
 20
10.0
 30
0.0
 11
894.5
 21
5.0
 31
0.0
  0
LINE
  5
D3
  8
BORDER
 10
944.5
 20
10.0
 30
0.0
 11
944.5
 21
5.0
 31
0.0
  0
LINE
  5
D4
  8
BORDER
 10
994.5
 20
10.0
 30
0.0
 11
994.5
 21
5.0
 31
0.0
  0
LINE
  5
D5
  8
BORDER
 10
1044.5
 20
10.0
 30
0.0
 11
1044.5
 21
5.0
 31
0.0
  0
LINE
  5
D6
  8
BORDER
 10
1094.5
 20
10.0
 30
0.0
 11
1094.5
 21
5.0
 31
0.0
  0
LINE
  5
D7
  8
BORDER
 10
1144.5
 20
10.0
 30
0.0
 11
1144.5
 21
5.0
 31
0.0
  0
LINE
  5
D8
  8
TRIM
 10
0.0
 20
0.0
 30
0.0
 11
0.0
 21
10.0
 31
0.0
  0
LINE
  5
D9
  8
BORDER
 10
1179.0
 20
120.5
 30
0.0
 11
1184.0
 21
120.5
 31
0.0
  0
LINE
  5
DA
  8
BORDER
 10
1179.0
 20
70.5
 30
0.0
 11
1184.0
 21
70.5
 31
0.0
  0
LINE
  5
DB
  8
TRIM
 10
0.0
 20
10.0
 30
0.0
 11
5.0
 21
10.0
 31
0.0
  0
LINE
  5
DC
  8
TRIM
 10
5.0
 20
10.0
 30
0.0
 11
5.0
 21
5.0
 31
0.0
  0
LINE
  5
DD
  8
0
  6
CONTINUOUS
 62
     7
 10
1184.0
 20
5.0
 30
0.0
 11
5.0
 21
5.0
 31
0.0
  0
LINE
  5
DE
  8
TRIM
 10
5.0
 20
5.0
 30
0.0
 11
10.0
 21
5.0
 31
0.0
  0
LINE
  5
DF
  8
TRIM
 10
10.0
 20
5.0
 30
0.0
 11
10.0
 21
0.0
 31
0.0
  0
LINE
  5
E0
  8
TRIM
 10
0.0
 20
841.0
 30
0.0
 11
10.0
 21
841.0
 31
0.0
  0
LINE
  5
E1
  8
TRIM
 10
10.0
 20
0.0
 30
0.0
 11
0.0
 21
0.0
 31
0.0
  0
LINE
  5
E2
  8
BORDER
 10
15.0
 20
370.5
 30
0.0
 11
20.0
 21
370.5
 31
0.0
  0
LINE
  5
E3
  8
BORDER
 10
15.0
 20
320.5
 30
0.0
 11
20.0
 21
320.5
 31
0.0
  0
LINE
  5
E4
  8
BORDER
 10
15.0
 20
270.5
 30
0.0
 11
20.0
 21
270.5
 31
0.0
  0
LINE
  5
E5
  8
BORDER
 10
15.0
 20
220.5
 30
0.0
 11
20.0
 21
220.5
 31
0.0
  0
LINE
  5
E6
  8
BORDER
 10
15.0
 20
170.5
 30
0.0
 11
20.0
 21
170.5
 31
0.0
  0
LINE
  5
E7
  8
BORDER
 10
15.0
 20
120.5
 30
0.0
 11
20.0
 21
120.5
 31
0.0
  0
LINE
  5
E8
  8
BORDER
 10
15.0
 20
70.5
 30
0.0
 11
20.0
 21
70.5
 31
0.0
  0
LINE
  5
E9
  8
BORDER
 10
15.0
 20
470.5
 30
0.0
 11
20.0
 21
470.5
 31
0.0
  0
LINE
  5
EA
  8
TRIM
 10
10.0
 20
841.0
 30
0.0
 11
10.0
 21
836.0
 31
0.0
  0
LINE
  5
EB
  8
TRIM
 10
10.0
 20
836.0
 30
0.0
 11
5.0
 21
836.0
 31
0.0
  0
LINE
  5
EC
  8
TRIM
 10
5.0
 20
836.0
 30
0.0
 11
5.0
 21
831.0
 31
0.0
  0
LINE
  5
ED
  8
TRIM
 10
5.0
 20
831.0
 30
0.0
 11
0.0
 21
831.0
 31
0.0
  0
LINE
  5
EE
  8
BORDER
 10
15.0
 20
520.5
 30
0.0
 11
20.0
 21
520.5
 31
0.0
  0
LINE
  5
EF
  8
BORDER
 10
15.0
 20
570.5
 30
0.0
 11
20.0
 21
570.5
 31
0.0
  0
LINE
  5
F0
  8
BORDER
 10
15.0
 20
620.5
 30
0.0
 11
20.0
 21
620.5
 31
0.0
  0
LINE
  5
F1
  8
BORDER
 10
15.0
 20
670.5
 30
0.0
 11
20.0
 21
670.5
 31
0.0
  0
LINE
  5
F2
  8
BORDER
 10
15.0
 20
720.5
 30
0.0
 11
20.0
 21
720.5
 31
0.0
  0
LINE
  5
F3
  8
BORDER
 10
15.0
 20
770.5
 30
0.0
 11
20.0
 21
770.5
 31
0.0
  0
LINE
  5
F4
  8
TRIM
 10
0.0
 20
831.0
 30
0.0
 11
0.0
 21
841.0
 31
0.0
  0
LINE
  5
F5
  8
TRIM
 10
1179.0
 20
841.0
 30
0.0
 11
1179.0
 21
836.0
 31
0.0
  0
LINE
  5
F6
  8
TRIM
 10
1179.0
 20
836.0
 30
0.0
 11
1184.0
 21
836.0
 31
0.0
  0
LINE
  5
F7
  8
TRIM
 10
1184.0
 20
831.0
 30
0.0
 11
1189.0
 21
831.0
 31
0.0
  0
LINE
  5
F8
  8
TRIM
 10
1189.0
 20
831.0
 30
0.0
 11
1189.0
 21
841.0
 31
0.0
  0
LINE
  5
F9
  8
TRIM
 10
1189.0
 20
841.0
 30
0.0
 11
1179.0
 21
841.0
 31
0.0
  0
LINE
  5
FA
  8
TRIM
 10
1184.0
 20
836.0
 30
0.0
 11
1184.0
 21
831.0
 31
0.0
  0
LINE
  5
FB
  8
TRIM
 10
1179.0
 20
0.0
 30
0.0
 11
1179.0
 21
5.0
 31
0.0
  0
LINE
  5
FC
  8
BORDER
 10
1088.9982143847000771
 20
24.5701816129000008
 30
0.0
 11
1059.0
 21
24.5701816129000008
 31
0.0
  0
LINE
  5
FD
  8
BORDER
 10
1071.255899177099991
 20
18.0427931076999997
 30
0.0
 11
1071.255899177099991
 21
11.5891294748
 31
0.0
  0
LINE
  5
FE
  8
BORDER
 10
1088.9982143847000771
 20
24.5701816129000008
 30
0.0
 11
1088.9982143847000771
 21
10.0
 31
0.0
  0
LINE
  5
FF
  8
0
  6
CONTINUOUS
 62
     7
 10
4.9989999999999979
 20
420.5
 30
0.0
 11
15.0009999999999994
 21
420.5
 31
0.0
  0
LINE
  5
100
  8
0
  6
CONTINUOUS
 62
     7
 10
594.5
 20
836.0009999999999764
 30
0.0
 11
594.5
 21
825.9989999999995689
 31
0.0
  0
LINE
  5
101
  8
0
  6
CONTINUOUS
 62
     7
 10
1184.0009999999999764
 20
420.5
 30
0.0
 11
1173.9990000000000236
 21
420.5
 31
0.0
  0
LINE
  5
102
  8
0
  6
CONTINUOUS
 62
     7
 10
594.5
 20
4.9989999999999979
 30
0.0
 11
594.5
 21
15.0009999999999994
 31
0.0
  0
LINE
  5
103
  8
0
  6
CONTINUOUS
 62
     7
 10
10.0
 20
70.5
 30
0.0
 11
5.0
 21
70.5
 31
0.0
  0
LINE
  5
104
  8
0
  6
CONTINUOUS
 62
     7
 10
1179.0
 20
70.5
 30
0.0
 11
1184.0
 21
70.5
 31
0.0
  0
LINE
  5
105
  8
0
  6
CONTINUOUS
 62
     7
 10
10.0
 20
120.5
 30
0.0
 11
5.0
 21
120.5
 31
0.0
  0
LINE
  5
106
  8
0
  6
CONTINUOUS
 62
     7
 10
1179.0
 20
120.5
 30
0.0
 11
1184.0
 21
120.5
 31
0.0
  0
LINE
  5
107
  8
0
  6
CONTINUOUS
 62
     7
 10
10.0
 20
170.5
 30
0.0
 11
5.0
 21
170.5
 31
0.0
  0
LINE
  5
108
  8
0
  6
CONTINUOUS
 62
     7
 10
1179.0
 20
170.5
 30
0.0
 11
1184.0
 21
170.5
 31
0.0
  0
LINE
  5
109
  8
0
  6
CONTINUOUS
 62
     7
 10
10.0
 20
220.5
 30
0.0
 11
5.0
 21
220.5
 31
0.0
  0
LINE
  5
10A
  8
0
  6
CONTINUOUS
 62
     7
 10
1179.0
 20
220.5
 30
0.0
 11
1184.0
 21
220.5
 31
0.0
  0
LINE
  5
10B
  8
0
  6
CONTINUOUS
 62
     7
 10
10.0
 20
270.5
 30
0.0
 11
5.0
 21
270.5
 31
0.0
  0
LINE
  5
10C
  8
0
  6
CONTINUOUS
 62
     7
 10
1179.0
 20
270.5
 30
0.0
 11
1184.0
 21
270.5
 31
0.0
  0
LINE
  5
10D
  8
0
  6
CONTINUOUS
 62
     7
 10
10.0
 20
320.5
 30
0.0
 11
5.0
 21
320.5
 31
0.0
  0
LINE
  5
10E
  8
0
  6
CONTINUOUS
 62
     7
 10
1179.0
 20
320.5
 30
0.0
 11
1184.0
 21
320.5
 31
0.0
  0
LINE
  5
10F
  8
0
  6
CONTINUOUS
 62
     7
 10
10.0
 20
370.5
 30
0.0
 11
5.0
 21
370.5
 31
0.0
  0
LINE
  5
110
  8
0
  6
CONTINUOUS
 62
     7
 10
1179.0
 20
370.5
 30
0.0
 11
1184.0
 21
370.5
 31
0.0
  0
LINE
  5
111
  8
0
  6
CONTINUOUS
 62
     7
 10
10.0
 20
420.5
 30
0.0
 11
5.0
 21
420.5
 31
0.0
  0
LINE
  5
112
  8
TRIM
 10
1179.0
 20
5.0
 30
0.0
 11
1184.0
 21
5.0
 31
0.0
  0
LINE
  5
113
  8
TRIM
 10
1184.0
 20
5.0
 30
0.0
 11
1184.0
 21
10.0
 31
0.0
  0
LINE
  5
114
  8
TRIM
 10
1184.0
 20
10.0
 30
0.0
 11
1189.0
 21
10.0
 31
0.0
  0
LINE
  5
115
  8
TRIM
 10
1189.0
 20
10.0
 30
0.0
 11
1189.0
 21
0.0
 31
0.0
  0
LINE
  5
116
  8
TRIM
 10
1189.0
 20
0.0
 30
0.0
 11
1179.0
 21
0.0
 31
0.0
  0
LINE
  5
117
  8
0
  6
CONTINUOUS
 62
     7
 10
1179.0
 20
420.5
 30
0.0
 11
1184.0
 21
420.5
 31
0.0
  0
LINE
  5
118
  8
0
  6
CONTINUOUS
 62
     7
 10
10.0
 20
470.5
 30
0.0
 11
5.0
 21
470.5
 31
0.0
  0
LINE
  5
119
  8
0
  6
CONTINUOUS
 62
     7
 10
1179.0
 20
470.5
 30
0.0
 11
1184.0
 21
470.5
 31
0.0
  0
LINE
  5
11A
  8
0
  6
CONTINUOUS
 62
     7
 10
10.0
 20
520.5
 30
0.0
 11
5.0
 21
520.5
 31
0.0
  0
LINE
  5
11B
  8
0
  6
CONTINUOUS
 62
     7
 10
1179.0
 20
520.5
 30
0.0
 11
1184.0
 21
520.5
 31
0.0
  0
LINE
  5
11C
  8
0
  6
CONTINUOUS
 62
     7
 10
10.0
 20
570.5
 30
0.0
 11
5.0
 21
570.5
 31
0.0
  0
LINE
  5
11D
  8
0
  6
CONTINUOUS
 62
     7
 10
1179.0
 20
570.5
 30
0.0
 11
1184.0
 21
570.5
 31
0.0
  0
LINE
  5
11E
  8
0
  6
CONTINUOUS
 62
     7
 10
10.0
 20
620.5
 30
0.0
 11
5.0
 21
620.5
 31
0.0
  0
LINE
  5
11F
  8
0
  6
CONTINUOUS
 62
     7
 10
1179.0
 20
620.5
 30
0.0
 11
1184.0
 21
620.5
 31
0.0
  0
LINE
  5
120
  8
0
  6
CONTINUOUS
 62
     7
 10
10.0
 20
670.5
 30
0.0
 11
5.0
 21
670.5
 31
0.0
  0
LINE
  5
121
  8
0
  6
CONTINUOUS
 62
     7
 10
1179.0
 20
670.5
 30
0.0
 11
1184.0
 21
670.5
 31
0.0
  0
LINE
  5
122
  8
0
  6
CONTINUOUS
 62
     7
 10
10.0
 20
720.5
 30
0.0
 11
5.0
 21
720.5
 31
0.0
  0
LINE
  5
123
  8
0
  6
CONTINUOUS
 62
     7
 10
1179.0
 20
720.5
 30
0.0
 11
1184.0
 21
720.5
 31
0.0
  0
LINE
  5
124
  8
0
  6
CONTINUOUS
 62
     7
 10
10.0
 20
770.5
 30
0.0
 11
5.0
 21
770.5
 31
0.0
  0
LINE
  5
125
  8
0
  6
CONTINUOUS
 62
     7
 10
1179.0
 20
770.5
 30
0.0
 11
1184.0
 21
770.5
 31
0.0
  0
LINE
  5
126
  8
0
  6
CONTINUOUS
 62
     7
 10
44.5
 20
831.0
 30
0.0
 11
44.5
 21
836.0
 31
0.0
  0
LINE
  5
127
  8
0
  6
CONTINUOUS
 62
     7
 10
44.5
 20
10.0
 30
0.0
 11
44.5
 21
5.0
 31
0.0
  0
LINE
  5
128
  8
0
  6
CONTINUOUS
 62
     7
 10
94.5000000000000142
 20
831.0
 30
0.0
 11
94.5000000000000142
 21
836.0
 31
0.0
  0
LINE
  5
129
  8
0
  6
CONTINUOUS
 62
     7
 10
94.5000000000000142
 20
10.0
 30
0.0
 11
94.5000000000000142
 21
5.0
 31
0.0
  0
LINE
  5
12A
  8
0
  6
CONTINUOUS
 62
     7
 10
144.5
 20
831.0
 30
0.0
 11
144.5
 21
836.0
 31
0.0
  0
LINE
  5
12B
  8
0
  6
CONTINUOUS
 62
     7
 10
144.5
 20
10.0
 30
0.0
 11
144.5
 21
5.0
 31
0.0
  0
LINE
  5
12C
  8
0
  6
CONTINUOUS
 62
     7
 10
194.5
 20
831.0
 30
0.0
 11
194.5
 21
836.0
 31
0.0
  0
LINE
  5
12D
  8
0
  6
CONTINUOUS
 62
     7
 10
194.5
 20
10.0
 30
0.0
 11
194.5
 21
5.0
 31
0.0
  0
LINE
  5
12E
  8
0
  6
CONTINUOUS
 62
     7
 10
244.5
 20
831.0
 30
0.0
 11
244.5
 21
836.0
 31
0.0
  0
LINE
  5
12F
  8
0
  6
CONTINUOUS
 62
     7
 10
244.5
 20
10.0
 30
0.0
 11
244.5
 21
5.0
 31
0.0
  0
LINE
  5
130
  8
0
  6
CONTINUOUS
 62
     7
 10
294.5
 20
831.0
 30
0.0
 11
294.5
 21
836.0
 31
0.0
  0
LINE
  5
131
  8
0
  6
CONTINUOUS
 62
     7
 10
294.5
 20
10.0
 30
0.0
 11
294.5
 21
5.0
 31
0.0
  0
LINE
  5
132
  8
0
  6
CONTINUOUS
 62
     7
 10
344.5
 20
831.0
 30
0.0
 11
344.5
 21
836.0
 31
0.0
  0
LINE
  5
133
  8
0
  6
CONTINUOUS
 62
     7
 10
344.5
 20
10.0
 30
0.0
 11
344.5
 21
5.0
 31
0.0
  0
LINE
  5
134
  8
0
  6
CONTINUOUS
 62
     7
 10
394.5
 20
831.0
 30
0.0
 11
394.5
 21
836.0
 31
0.0
  0
LINE
  5
135
  8
0
  6
CONTINUOUS
 62
     7
 10
394.5
 20
10.0
 30
0.0
 11
394.5
 21
5.0
 31
0.0
  0
LINE
  5
136
  8
0
  6
CONTINUOUS
 62
     7
 10
444.5
 20
831.0
 30
0.0
 11
444.5
 21
836.0
 31
0.0
  0
LINE
  5
137
  8
0
  6
CONTINUOUS
 62
     7
 10
444.5
 20
10.0
 30
0.0
 11
444.5
 21
5.0
 31
0.0
  0
LINE
  5
138
  8
0
  6
CONTINUOUS
 62
     7
 10
494.5
 20
831.0
 30
0.0
 11
494.5
 21
836.0
 31
0.0
  0
LINE
  5
139
  8
0
  6
CONTINUOUS
 62
     7
 10
494.5
 20
10.0
 30
0.0
 11
494.5
 21
5.0
 31
0.0
  0
LINE
  5
13A
  8
0
  6
CONTINUOUS
 62
     7
 10
544.5
 20
831.0
 30
0.0
 11
544.5
 21
836.0
 31
0.0
  0
LINE
  5
13B
  8
0
  6
CONTINUOUS
 62
     7
 10
544.5
 20
10.0
 30
0.0
 11
544.5
 21
5.0
 31
0.0
  0
LINE
  5
13C
  8
0
  6
CONTINUOUS
 62
     7
 10
594.5
 20
831.0
 30
0.0
 11
594.5
 21
836.0
 31
0.0
  0
LINE
  5
13D
  8
0
  6
CONTINUOUS
 62
     7
 10
594.5
 20
10.0
 30
0.0
 11
594.5
 21
5.0
 31
0.0
  0
LINE
  5
13E
  8
0
  6
CONTINUOUS
 62
     7
 10
644.5
 20
831.0
 30
0.0
 11
644.5
 21
836.0
 31
0.0
  0
LINE
  5
13F
  8
0
  6
CONTINUOUS
 62
     7
 10
644.5
 20
10.0
 30
0.0
 11
644.5
 21
5.0
 31
0.0
  0
LINE
  5
140
  8
0
  6
CONTINUOUS
 62
     7
 10
694.5
 20
831.0
 30
0.0
 11
694.5
 21
836.0
 31
0.0
  0
LINE
  5
141
  8
0
  6
CONTINUOUS
 62
     7
 10
694.5
 20
10.0
 30
0.0
 11
694.5
 21
5.0
 31
0.0
  0
LINE
  5
142
  8
0
  6
CONTINUOUS
 62
     7
 10
744.5
 20
831.0
 30
0.0
 11
744.5
 21
836.0
 31
0.0
  0
LINE
  5
143
  8
0
  6
CONTINUOUS
 62
     7
 10
744.5
 20
10.0
 30
0.0
 11
744.5
 21
5.0
 31
0.0
  0
LINE
  5
144
  8
0
  6
CONTINUOUS
 62
     7
 10
794.5
 20
831.0
 30
0.0
 11
794.5
 21
836.0
 31
0.0
  0
LINE
  5
145
  8
0
  6
CONTINUOUS
 62
     7
 10
794.5
 20
10.0
 30
0.0
 11
794.5
 21
5.0
 31
0.0
  0
LINE
  5
146
  8
0
  6
CONTINUOUS
 62
     7
 10
844.5
 20
831.0
 30
0.0
 11
844.5
 21
836.0
 31
0.0
  0
LINE
  5
147
  8
0
  6
CONTINUOUS
 62
     7
 10
844.5
 20
10.0
 30
0.0
 11
844.5
 21
5.0
 31
0.0
  0
LINE
  5
148
  8
0
  6
CONTINUOUS
 62
     7
 10
894.5
 20
831.0
 30
0.0
 11
894.5
 21
836.0
 31
0.0
  0
LINE
  5
149
  8
0
  6
CONTINUOUS
 62
     7
 10
894.5
 20
10.0
 30
0.0
 11
894.5
 21
5.0
 31
0.0
  0
LINE
  5
14A
  8
0
  6
CONTINUOUS
 62
     7
 10
944.5
 20
831.0
 30
0.0
 11
944.5
 21
836.0
 31
0.0
  0
LINE
  5
14B
  8
0
  6
CONTINUOUS
 62
     7
 10
944.5
 20
10.0
 30
0.0
 11
944.5
 21
5.0
 31
0.0
  0
LINE
  5
14C
  8
0
  6
CONTINUOUS
 62
     7
 10
994.5
 20
831.0
 30
0.0
 11
994.5
 21
836.0
 31
0.0
  0
LINE
  5
14D
  8
0
  6
CONTINUOUS
 62
     7
 10
994.5
 20
10.0
 30
0.0
 11
994.5
 21
5.0
 31
0.0
  0
LINE
  5
14E
  8
0
  6
CONTINUOUS
 62
     7
 10
1044.5
 20
831.0
 30
0.0
 11
1044.5
 21
836.0
 31
0.0
  0
LINE
  5
14F
  8
0
  6
CONTINUOUS
 62
     7
 10
1044.5
 20
10.0
 30
0.0
 11
1044.5
 21
5.0
 31
0.0
  0
LINE
  5
150
  8
0
  6
CONTINUOUS
 62
     7
 10
1094.5
 20
831.0
 30
0.0
 11
1094.5
 21
836.0
 31
0.0
  0
LINE
  5
151
  8
0
  6
CONTINUOUS
 62
     7
 10
1094.5
 20
10.0
 30
0.0
 11
1094.5
 21
5.0
 31
0.0
  0
LINE
  5
152
  8
0
  6
CONTINUOUS
 62
     7
 10
1144.5
 20
831.0
 30
0.0
 11
1144.5
 21
836.0
 31
0.0
  0
LINE
  5
153
  8
0
  6
CONTINUOUS
 62
     7
 10
1144.5
 20
10.0
 30
0.0
 11
1144.5
 21
5.0
 31
0.0
  0
CIRCLE
  5
154
  8
BORDER
  6
CONTINUOUS
 10
1071.255899177099991
 20
14.8656048576999993
 30
0.0
 40
1.249999999999946
  0
CIRCLE
  5
155
  8
BORDER
  6
CONTINUOUS
 10
1071.255899177099991
 20
14.8656048576999993
 30
0.0
 40
2.4999999999998921
  0
INSERT
  5
157
  8
0
  2
*U43
 10
0.0
 20
0.0
 30
0.0
  0
INSERT
  5
158
  8
0
  2
*U44
 10
0.0
 20
0.0
 30
0.0
  0
INSERT
  5
159
  8
0
  2
*U45
 10
0.0
 20
0.0
 30
0.0
  0
INSERT
  5
15A
  8
0
  2
*U46
 10
0.0
 20
0.0
 30
0.0
  0
INSERT
  5
15B
  8
0
  2
*U47
 10
0.0
 20
0.0
 30
0.0
  0
INSERT
  5
15C
  8
0
  2
*U48
 10
0.0
 20
0.0
 30
0.0
  0
INSERT
  5
15D
  8
0
  2
*U49
 10
0.0
 20
0.0
 30
0.0
  0
INSERT
  5
15E
  8
0
  2
*U50
 10
0.0
 20
0.0
 30
0.0
  0
INSERT
  5
15F
  8
0
  2
*U51
 10
0.0
 20
0.0
 30
0.0
  0
INSERT
  5
160
  8
0
  2
*U52
 10
0.0
 20
0.0
 30
0.0
  0
INSERT
  5
161
  8
0
  2
*U53
 10
0.0
 20
0.0
 30
0.0
  0
INSERT
  5
162
  8
0
  2
*U54
 10
0.0
 20
0.0
 30
0.0
  0
INSERT
  5
163
  8
0
  2
*U55
 10
0.0
 20
0.0
 30
0.0
  0
INSERT
  5
164
  8
0
  2
*U56
 10
0.0
 20
0.0
 30
0.0
  0
INSERT
  5
165
  8
0
  2
*U57
 10
0.0
 20
0.0
 30
0.0
  0
INSERT
  5
166
  8
0
  2
*U58
 10
0.0
 20
0.0
 30
0.0
  0
INSERT
  5
167
  8
0
  2
*U59
 10
0.0
 20
0.0
 30
0.0
  0
INSERT
  5
168
  8
0
  2
*U60
 10
0.0
 20
0.0
 30
0.0
  0
INSERT
  5
169
  8
0
  2
*U61
 10
0.0
 20
0.0
 30
0.0
  0
INSERT
  5
16A
  8
0
  2
*U62
 10
0.0
 20
0.0
 30
0.0
  0
INSERT
  5
16B
  8
0
  2
*U63
 10
0.0
 20
0.0
 30
0.0
  0
INSERT
  5
16C
  8
0
  2
*U64
 10
0.0
 20
0.0
 30
0.0
  0
INSERT
  5
16D
  8
0
  2
*U65
 10
0.0
 20
0.0
 30
0.0
  0
INSERT
  5
16E
  8
0
  2
*U66
 10
0.0
 20
0.0
 30
0.0
  0
INSERT
  5
16F
  8
0
  2
*U67
 10
0.0
 20
0.0
 30
0.0
  0
INSERT
  5
170
  8
0
  2
*U68
 10
0.0
 20
0.0
 30
0.0
  0
INSERT
  5
171
  8
0
  2
*U69
 10
0.0
 20
0.0
 30
0.0
  0
INSERT
  5
172
  8
0
  2
*U70
 10
0.0
 20
0.0
 30
0.0
  0
INSERT
  5
173
  8
0
  2
*U71
 10
0.0
 20
0.0
 30
0.0
  0
INSERT
  5
174
  8
0
  2
*U72
 10
0.0
 20
0.0
 30
0.0
  0
INSERT
  5
175
  8
0
  2
*U73
 10
0.0
 20
0.0
 30
0.0
  0
INSERT
  5
176
  8
0
  2
*U74
 10
0.0
 20
0.0
 30
0.0
  0
INSERT
  5
177
  8
0
  2
*U75
 10
0.0
 20
0.0
 30
0.0
  0
INSERT
  5
178
  8
0
  2
*U76
 10
0.0
 20
0.0
 30
0.0
  0
INSERT
  5
179
  8
0
  2
*U77
 10
0.0
 20
0.0
 30
0.0
  0
INSERT
  5
17A
  8
0
  2
*U78
 10
0.0
 20
0.0
 30
0.0
  0
INSERT
  5
17B
  8
0
  2
*U79
 10
0.0
 20
0.0
 30
0.0
  0
INSERT
  5
17C
  8
0
  2
*U80
 10
0.0
 20
0.0
 30
0.0
  0
INSERT
  5
17D
  8
0
  2
*U81
 10
0.0
 20
0.0
 30
0.0
  0
INSERT
  5
17E
  8
0
  2
*U82
 10
0.0
 20
0.0
 30
0.0
  0
INSERT
  5
17F
  8
0
  2
*U83
 10
0.0
 20
0.0
 30
0.0
  0
INSERT
  5
180
  8
0
  2
*U84
 10
0.0
 20
0.0
 30
0.0
  0
INSERT
  5
181
  8
0
  2
*U85
 10
0.0
 20
0.0
 30
0.0
  0
INSERT
  5
182
  8
0
  2
*U86
 10
0.0
 20
0.0
 30
0.0
  0
INSERT
  5
183
  8
0
  2
*U87
 10
0.0
 20
0.0
 30
0.0
  0
INSERT
  5
184
  8
0
  2
*U88
 10
0.0
 20
0.0
 30
0.0
  0
INSERT
  5
185
  8
0
  2
*U89
 10
0.0
 20
0.0
 30
0.0
  0
INSERT
  5
186
  8
0
  2
*U90
 10
0.0
 20
0.0
 30
0.0
  0
INSERT
  5
187
  8
0
  2
*U91
 10
0.0
 20
0.0
 30
0.0
  0
INSERT
  5
188
  8
0
  2
*U92
 10
0.0
 20
0.0
 30
0.0
  0
INSERT
  5
189
  8
0
  2
*U93
 10
0.0
 20
0.0
 30
0.0
  0
INSERT
  5
18A
  8
0
  2
*U94
 10
0.0
 20
0.0
 30
0.0
  0
INSERT
  5
18B
  8
0
  2
*U95
 10
0.0
 20
0.0
 30
0.0
  0
INSERT
  5
18C
  8
0
  2
*U96
 10
0.0
 20
0.0
 30
0.0
  0
INSERT
  5
18D
  8
0
  2
*U97
 10
0.0
 20
0.0
 30
0.0
  0
INSERT
  5
18E
  8
0
  2
*U98
 10
0.0
 20
0.0
 30
0.0
  0
INSERT
  5
18F
  8
0
  2
*U99
 10
0.0
 20
0.0
 30
0.0
  0
INSERT
  5
190
  8
0
  2
*U100
 10
0.0
 20
0.0
 30
0.0
  0
INSERT
  5
191
  8
0
  2
*U101
 10
0.0
 20
0.0
 30
0.0
  0
INSERT
  5
192
  8
0
  2
*U102
 10
0.0
 20
0.0
 30
0.0
  0
INSERT
  5
193
  8
0
  2
*U103
 10
0.0
 20
0.0
 30
0.0
  0
INSERT
  5
194
  8
0
  2
*U104
 10
0.0
 20
0.0
 30
0.0
  0
INSERT
  5
195
  8
0
  2
*U105
 10
0.0
 20
0.0
 30
0.0
  0
INSERT
  5
196
  8
0
  2
*U106
 10
0.0
 20
0.0
 30
0.0
  0
INSERT
  5
197
  8
0
  2
*U107
 10
0.0
 20
0.0
 30
0.0
  0
INSERT
  5
198
  8
0
  2
*U108
 10
0.0
 20
0.0
 30
0.0
  0
INSERT
  5
199
  8
0
  2
*U109
 10
0.0
 20
0.0
 30
0.0
  0
INSERT
  5
19A
  8
0
  2
*U110
 10
0.0
 20
0.0
 30
0.0
  0
INSERT
  5
19B
  8
0
  2
*U111
 10
0.0
 20
0.0
 30
0.0
  0
INSERT
  5
19C
  8
0
  2
*U112
 10
0.0
 20
0.0
 30
0.0
  0
INSERT
  5
19D
  8
0
  2
*U113
 10
0.0
 20
0.0
 30
0.0
  0
INSERT
  5
19E
  8
0
  2
*U114
 10
0.0
 20
0.0
 30
0.0
  0
INSERT
  5
19F
  8
0
  2
*U115
 10
0.0
 20
0.0
 30
0.0
  0
INSERT
  5
1A0
  8
0
  2
*U116
 10
0.0
 20
0.0
 30
0.0
  0
INSERT
  5
1A1
  8
0
  2
*U117
 10
0.0
 20
0.0
 30
0.0
  0
INSERT
  5
1A2
  8
0
  2
*U118
 10
0.0
 20
0.0
 30
0.0
  0
INSERT
  5
1A3
  8
0
  2
*U119
 10
0.0
 20
0.0
 30
0.0
  0
INSERT
  5
1A4
  8
0
  2
*U120
 10
0.0
 20
0.0
 30
0.0
  0
INSERT
  5
1A5
  8
0
  2
*U121
 10
0.0
 20
0.0
 30
0.0
  0
INSERT
  5
1A6
  8
0
  2
*U122
 10
0.0
 20
0.0
 30
0.0
  0
INSERT
  5
1A7
  8
0
  2
*U123
 10
0.0
 20
0.0
 30
0.0
  0
INSERT
  5
1A8
  8
0
  2
*U124
 10
0.0
 20
0.0
 30
0.0
  0
INSERT
  5
1A9
  8
0
  2
*U125
 10
0.0
 20
0.0
 30
0.0
  0
INSERT
  5
1AB
  8
0
  2
*U126
 10
0.0
 20
0.0
 30
0.0
  0
INSERT
  5
1AC
  8
0
  2
*U127
 10
0.0
 20
0.0
 30
0.0
  0
INSERT
  5
1B2
  8
BORDER
  2
SW_NOTE_0
 10
1061.0713434944000255
 20
21.6258903222000001
 30
0.0
  0
INSERT
  5
1B3
  8
0
  2
*U130
 10
0.0
 20
0.0
 30
0.0
  0
INSERT
  5
1B5
  8
0
  2
*U131
 10
0.0
 20
0.0
 30
0.0
  0
INSERT
  5
1B6
  8
0
  2
*U132
 10
0.0
 20
0.0
 30
0.0
  0
INSERT
  5
1B7
  8
0
  2
*U133
 10
0.0
 20
0.0
 30
0.0
  0
INSERT
  5
1B8
  8
0
  2
*U134
 10
0.0
 20
0.0
 30
0.0
  0
INSERT
  5
1B9
  8
0
  2
*U135
 10
0.0
 20
0.0
 30
0.0
  0
INSERT
  5
1BA
  8
0
  2
*U136
 10
0.0
 20
0.0
 30
0.0
  0
INSERT
  5
1BB
  8
0
  2
*U137
 10
0.0
 20
0.0
 30
0.0
  0
INSERT
  5
1BC
  8
0
  2
*U138
 10
0.0
 20
0.0
 30
0.0
  0
INSERT
  5
1BD
  8
0
  2
*U139
 10
0.0
 20
0.0
 30
0.0
  0
INSERT
  5
1BE
  8
0
  2
*U140
 10
0.0
 20
0.0
 30
0.0
  0
INSERT
  5
1BF
  8
0
  2
*U141
 10
0.0
 20
0.0
 30
0.0
  0
INSERT
  5
1C0
  8
0
  2
*U142
 10
0.0
 20
0.0
 30
0.0
  0
INSERT
  5
1C1
  8
0
  2
*U143
 10
0.0
 20
0.0
 30
0.0
  0
INSERT
  5
1C2
  8
0
  2
*U144
 10
0.0
 20
0.0
 30
0.0
  0
INSERT
  5
1C3
  8
0
  2
*U145
 10
0.0
 20
0.0
 30
0.0
  0
INSERT
  5
1C4
  8
0
  2
*U146
 10
0.0
 20
0.0
 30
0.0
  0
INSERT
  5
1C5
  8
0
  2
*U147
 10
0.0
 20
0.0
 30
0.0
  0
INSERT
  5
1C6
  8
0
  2
*U148
 10
0.0
 20
0.0
 30
0.0
  0
INSERT
  5
1C7
  8
0
  2
*U149
 10
0.0
 20
0.0
 30
0.0
  0
INSERT
  5
1C8
  8
0
  2
*U150
 10
0.0
 20
0.0
 30
0.0
  0
INSERT
  5
1C9
  8
0
  2
*U151
 10
0.0
 20
0.0
 30
0.0
  0
INSERT
  5
1CA
  8
0
  2
*U152
 10
0.0
 20
0.0
 30
0.0
  0
INSERT
  5
1CB
  8
0
  2
*U153
 10
0.0
 20
0.0
 30
0.0
  0
INSERT
  5
1CC
  8
0
  2
*U154
 10
0.0
 20
0.0
 30
0.0
  0
INSERT
  5
1CD
  8
0
  2
*U155
 10
0.0
 20
0.0
 30
0.0
  0
INSERT
  5
1CE
  8
0
  2
*U156
 10
0.0
 20
0.0
 30
0.0
  0
INSERT
  5
1CF
  8
0
  2
*U157
 10
0.0
 20
0.0
 30
0.0
  0
INSERT
  5
1D0
  8
0
  2
*U158
 10
0.0
 20
0.0
 30
0.0
  0
INSERT
  5
1D1
  8
0
  2
*U159
 10
0.0
 20
0.0
 30
0.0
  0
INSERT
  5
1D2
  8
0
  2
*U160
 10
0.0
 20
0.0
 30
0.0
  0
INSERT
  5
1D3
  8
0
  2
*U161
 10
0.0
 20
0.0
 30
0.0
  0
INSERT
  5
1D4
  8
0
  2
*U162
 10
0.0
 20
0.0
 30
0.0
  0
INSERT
  5
1D5
  8
0
  2
*U163
 10
0.0
 20
0.0
 30
0.0
  0
INSERT
  5
1D6
  8
0
  2
*U164
 10
0.0
 20
0.0
 30
0.0
  0
INSERT
  5
1D7
  8
0
  2
*U165
 10
0.0
 20
0.0
 30
0.0
  0
INSERT
  5
1D8
  8
0
  2
*U166
 10
0.0
 20
0.0
 30
0.0
  0
INSERT
  5
1D9
  8
0
  2
*U167
 10
0.0
 20
0.0
 30
0.0
  0
INSERT
  5
1DA
  8
0
  2
*U168
 10
0.0
 20
0.0
 30
0.0
  0
INSERT
  5
1DB
  8
0
  2
*U169
 10
0.0
 20
0.0
 30
0.0
  0
INSERT
  5
1DC
  8
0
  2
*U170
 10
0.0
 20
0.0
 30
0.0
  0
INSERT
  5
1DD
  8
0
  2
*U171
 10
0.0
 20
0.0
 30
0.0
  0
INSERT
  5
1DE
  8
0
  2
*U172
 10
0.0
 20
0.0
 30
0.0
  0
INSERT
  5
1DF
  8
0
  2
*U173
 10
0.0
 20
0.0
 30
0.0
  0
INSERT
  5
1E0
  8
0
  2
*U174
 10
0.0
 20
0.0
 30
0.0
  0
INSERT
  5
1E1
  8
0
  2
*U175
 10
0.0
 20
0.0
 30
0.0
  0
INSERT
  5
1E2
  8
0
  2
*U176
 10
0.0
 20
0.0
 30
0.0
  0
INSERT
  5
1E3
  8
0
  2
*U177
 10
0.0
 20
0.0
 30
0.0
  0
INSERT
  5
1E4
  8
0
  2
*U178
 10
0.0
 20
0.0
 30
0.0
  0
INSERT
  5
1E5
  8
0
  2
*U179
 10
0.0
 20
0.0
 30
0.0
  0
INSERT
  5
1E6
  8
0
  2
*U180
 10
0.0
 20
0.0
 30
0.0
  0
INSERT
  5
1E7
  8
0
  2
*U181
 10
0.0
 20
0.0
 30
0.0
  0
INSERT
  5
1E8
  8
0
  2
*U182
 10
0.0
 20
0.0
 30
0.0
  0
INSERT
  5
1E9
  8
0
  2
*U183
 10
0.0
 20
0.0
 30
0.0
  0
INSERT
  5
1EA
  8
0
  2
*U184
 10
0.0
 20
0.0
 30
0.0
  0
INSERT
  5
1EB
  8
0
  2
*U185
 10
0.0
 20
0.0
 30
0.0
  0
INSERT
  5
1EC
  8
0
  2
*U186
 10
0.0
 20
0.0
 30
0.0
  0
INSERT
  5
1ED
  8
0
  2
*U187
 10
0.0
 20
0.0
 30
0.0
  0
INSERT
  5
1EE
  8
0
  2
*U188
 10
0.0
 20
0.0
 30
0.0
  0
INSERT
  5
1EF
  8
0
  2
*U189
 10
0.0
 20
0.0
 30
0.0
  0
INSERT
  5
1F0
  8
0
  2
*U190
 10
0.0
 20
0.0
 30
0.0
  0
INSERT
  5
1F1
  8
0
  2
*U191
 10
0.0
 20
0.0
 30
0.0
  0
INSERT
  5
1F2
  8
0
  2
*U192
 10
0.0
 20
0.0
 30
0.0
  0
INSERT
  5
1F3
  8
0
  2
*U193
 10
0.0
 20
0.0
 30
0.0
  0
INSERT
  5
1F4
  8
0
  2
*U194
 10
0.0
 20
0.0
 30
0.0
  0
INSERT
  5
1F5
  8
0
  2
*U195
 10
0.0
 20
0.0
 30
0.0
  0
INSERT
  5
1F6
  8
0
  2
*U196
 10
0.0
 20
0.0
 30
0.0
  0
INSERT
  5
1F7
  8
0
  2
*U197
 10
0.0
 20
0.0
 30
0.0
  0
INSERT
  5
1F8
  8
0
  2
*U198
 10
0.0
 20
0.0
 30
0.0
  0
INSERT
  5
1F9
  8
0
  2
*U199
 10
0.0
 20
0.0
 30
0.0
  0
INSERT
  5
1FA
  8
0
  2
*U200
 10
0.0
 20
0.0
 30
0.0
  0
INSERT
  5
1FB
  8
0
  2
*U201
 10
0.0
 20
0.0
 30
0.0
  0
INSERT
  5
1FC
  8
0
  2
*U202
 10
0.0
 20
0.0
 30
0.0
  0
INSERT
  5
1FD
  8
0
  2
*U203
 10
0.0
 20
0.0
 30
0.0
  0
INSERT
  5
1FE
  8
0
  2
*U204
 10
0.0
 20
0.0
 30
0.0
  0
INSERT
  5
1FF
  8
0
  2
*U205
 10
0.0
 20
0.0
 30
0.0
  0
INSERT
  5
200
  8
0
  2
*U206
 10
0.0
 20
0.0
 30
0.0
  0
INSERT
  5
201
  8
0
  2
*U207
 10
0.0
 20
0.0
 30
0.0
  0
INSERT
  5
202
  8
0
  2
*U208
 10
0.0
 20
0.0
 30
0.0
  0
INSERT
  5
203
  8
0
  2
*U209
 10
0.0
 20
0.0
 30
0.0
  0
INSERT
  5
204
  8
0
  2
*U210
 10
0.0
 20
0.0
 30
0.0
  0
INSERT
  5
205
  8
0
  2
*U211
 10
0.0
 20
0.0
 30
0.0
  0
INSERT
  5
206
  8
0
  2
*U212
 10
0.0
 20
0.0
 30
0.0
  0
INSERT
  5
207
  8
0
  2
*U213
 10
0.0
 20
0.0
 30
0.0
  0
INSERT
  5
208
  8
0
  2
*U214
 10
0.0
 20
0.0
 30
0.0
  0
INSERT
  5
209
  8
0
  2
*U215
 10
0.0
 20
0.0
 30
0.0
  0
INSERT
  5
20A
  8
0
  2
*U216
 10
0.0
 20
0.0
 30
0.0
  0
INSERT
  5
20B
  8
0
  2
*U217
 10
0.0
 20
0.0
 30
0.0
  0
INSERT
  5
20C
  8
0
  2
*U218
 10
0.0
 20
0.0
 30
0.0
  0
INSERT
  5
20D
  8
0
  2
*U219
 10
0.0
 20
0.0
 30
0.0
  0
INSERT
  5
20E
  8
0
  2
*U220
 10
0.0
 20
0.0
 30
0.0
  0
INSERT
  5
20F
  8
0
  2
*U221
 10
0.0
 20
0.0
 30
0.0
  0
INSERT
  5
210
  8
0
  2
*U222
 10
0.0
 20
0.0
 30
0.0
  0
INSERT
  5
211
  8
0
  2
*U223
 10
0.0
 20
0.0
 30
0.0
  0
INSERT
  5
212
  8
0
  2
*U224
 10
0.0
 20
0.0
 30
0.0
  0
INSERT
  5
213
  8
0
  2
*U225
 10
0.0
 20
0.0
 30
0.0
  0
INSERT
  5
214
  8
0
  2
*U226
 10
0.0
 20
0.0
 30
0.0
  0
INSERT
  5
215
  8
0
  2
*U227
 10
0.0
 20
0.0
 30
0.0
  0
INSERT
  5
216
  8
0
  2
*U228
 10
0.0
 20
0.0
 30
0.0
  0
INSERT
  5
217
  8
0
  2
*U229
 10
0.0
 20
0.0
 30
0.0
  0
INSERT
  5
218
  8
0
  2
*U230
 10
0.0
 20
0.0
 30
0.0
  0
INSERT
  5
221
  8
BORDER
  2
SW_NOTE_1
 10
1058.9933324194000761
 20
71.597712753799982
 30
0.0
  0
LINE
  5
222
  8
0
  6
CONTINUOUS
 62
     7
 10
566.1714605203000019
 20
361.2056197398999871
 30
0.0
 11
566.1714605203000019
 21
376.20562033589988
 31
0.0
  0
LINE
  5
223
  8
0
  6
CONTINUOUS
 62
     7
 10
566.1714605203000019
 20
376.20562033589988
 30
0.0
 11
562.1714598647000685
 21
376.20562033589988
 31
0.0
  0
LINE
  5
224
  8
0
  6
CONTINUOUS
 62
     7
 10
562.1714598647000685
 20
361.2056197398999871
 30
0.0
 11
562.1714598647000685
 21
376.20562033589988
 31
0.0
  0
LINE
  5
225
  8
0
  6
CONTINUOUS
 62
     7
 10
566.1714605203000019
 20
361.2056197398999871
 30
0.0
 11
562.1714598647000685
 21
361.2056197398999871
 31
0.0
  0
LINE
  5
226
  8
0
  6
CONTINUOUS
 62
     7
 10
562.1714598647000685
 20
581.2056185477999861
 30
0.0
 11
562.1714598647000685
 21
566.2056179516999919
 31
0.0
  0
LINE
  5
227
  8
0
  6
CONTINUOUS
 62
     7
 10
566.1714605203000019
 20
566.2056179516999919
 30
0.0
 11
562.1714598647000685
 21
566.2056179516999919
 31
0.0
  0
LINE
  5
228
  8
0
  6
CONTINUOUS
 62
     7
 10
566.1714605203000019
 20
581.2056185477999861
 30
0.0
 11
566.1714605203000019
 21
566.2056179516999919
 31
0.0
  0
LINE
  5
229
  8
0
  6
CONTINUOUS
 62
     7
 10
566.1714605203000019
 20
581.2056185477999861
 30
0.0
 11
562.1714598647000685
 21
581.2056185477999861
 31
0.0
  0
LINE
  5
22A
  8
0
  6
CONTINUOUS
 62
     7
 10
562.1714598647000685
 20
596.205619143799936
 30
0.0
 11
566.1714605203000019
 21
596.205619143799936
 31
0.0
  0
LINE
  5
22B
  8
0
  6
CONTINUOUS
 62
     7
 10
566.1714605203000019
 20
611.2056197398999302
 30
0.0
 11
566.1714605203000019
 21
596.205619143799936
 31
0.0
  0
LINE
  5
22C
  8
0
  6
CONTINUOUS
 62
     7
 10
562.1714598647000685
 20
611.2056197398999302
 30
0.0
 11
566.1714605203000019
 21
611.2056197398999302
 31
0.0
  0
LINE
  5
22D
  8
0
  6
CONTINUOUS
 62
     7
 10
562.1714598647000685
 20
611.2056197398999302
 30
0.0
 11
562.1714598647000685
 21
596.205619143799936
 31
0.0
  0
LINE
  5
22E
  8
0
  6
CONTINUOUS
 62
     7
 10
648.1714627853000366
 20
581.2056185477999861
 30
0.0
 11
648.1714627853000366
 21
566.2056179516999919
 31
0.0
  0
LINE
  5
22F
  8
0
  6
CONTINUOUS
 62
     7
 10
648.1714627853000366
 20
566.2056179516999919
 30
0.0
 11
652.1714634410000144
 21
566.2056179516999919
 31
0.0
  0
LINE
  5
230
  8
0
  6
CONTINUOUS
 62
     7
 10
652.1714634410000144
 20
581.2056185477999861
 30
0.0
 11
652.1714634410000144
 21
566.2056179516999919
 31
0.0
  0
LINE
  5
231
  8
0
  6
CONTINUOUS
 62
     7
 10
648.1714627853000366
 20
581.2056185477999861
 30
0.0
 11
652.1714634410000144
 21
581.2056185477999861
 31
0.0
  0
LINE
  5
232
  8
0
  6
CONTINUOUS
 62
     7
 10
652.1714634410000144
 20
346.2056191437999928
 30
0.0
 11
648.1714627853000366
 21
346.2056191437999928
 31
0.0
  0
LINE
  5
233
  8
0
  6
CONTINUOUS
 62
     7
 10
648.1714627853000366
 20
331.2056185477999861
 30
0.0
 11
648.1714627853000366
 21
346.2056191437999928
 31
0.0
  0
LINE
  5
234
  8
0
  6
CONTINUOUS
 62
     7
 10
652.1714634410000144
 20
331.2056185477999861
 30
0.0
 11
648.1714627853000366
 21
331.2056185477999861
 31
0.0
  0
LINE
  5
235
  8
0
  6
CONTINUOUS
 62
     7
 10
652.1714634410000144
 20
331.2056185477999861
 30
0.0
 11
652.1714634410000144
 21
346.2056191437999928
 31
0.0
  0
LINE
  5
236
  8
0
  6
CONTINUOUS
 62
     7
 10
652.1714634410000144
 20
361.2056197398999871
 30
0.0
 11
652.1714634410000144
 21
376.20562033589988
 31
0.0
  0
LINE
  5
237
  8
0
  6
CONTINUOUS
 62
     7
 10
648.1714627853000366
 20
376.20562033589988
 30
0.0
 11
652.1714634410000144
 21
376.20562033589988
 31
0.0
  0
LINE
  5
238
  8
0
  6
CONTINUOUS
 62
     7
 10
648.1714627853000366
 20
361.2056197398999871
 30
0.0
 11
648.1714627853000366
 21
376.20562033589988
 31
0.0
  0
LINE
  5
239
  8
0
  6
CONTINUOUS
 62
     7
 10
648.1714627853000366
 20
361.2056197398999871
 30
0.0
 11
652.1714634410000144
 21
361.2056197398999871
 31
0.0
  0
ARC
  5
23A
  8
0
  6
CONTINUOUS
 62
     7
 10
687.1714616527999624
 20
636.205619143799936
 30
0.0
 40
5.0
 50
270.0
 51
0.0
  0
LINE
  5
23B
  8
0
  6
CONTINUOUS
 62
     7
 10
692.171462546899761
 20
636.2056257002999473
 30
0.0
 11
692.171462546899761
 21
686.2056227200999956
 31
0.0
  0
ARC
  5
23C
  8
0
  6
CONTINUOUS
 62
     7
 10
687.1714616527999624
 20
686.205619143799936
 30
0.0
 40
5.0000000000001128
 50
0.0
 51
90.0
  0
LINE
  5
23D
  8
0
  6
CONTINUOUS
 62
     7
 10
687.1714598647000685
 20
691.2056179516999919
 30
0.0
 11
527.1714634410000144
 21
691.2056179516999919
 31
0.0
  0
ARC
  5
23E
  8
0
  6
CONTINUOUS
 62
     7
 10
527.1714616527998487
 20
686.205619143799936
 30
0.0
 40
5.0000000000001128
 50
90.0
 51
180.0
  0
LINE
  5
23F
  8
0
  6
CONTINUOUS
 62
     7
 10
522.1714607587000501
 20
686.2056227200999956
 30
0.0
 11
522.1714607587000501
 21
636.2056257002999473
 31
0.0
  0
ARC
  5
240
  8
0
  6
CONTINUOUS
 62
     7
 10
527.1714616527998487
 20
636.205619143799936
 30
0.0
 40
5.0
 50
180.0
 51
270.0
  0
LINE
  5
241
  8
0
  6
CONTINUOUS
 62
     7
 10
527.1714634410000144
 20
631.20561556749999
 30
0.0
 11
562.1714598647000685
 21
631.20561556749999
 31
0.0
  0
LINE
  5
242
  8
0
  6
CONTINUOUS
 62
     7
 10
562.1714598647000685
 20
631.20561556749999
 30
0.0
 11
562.1714598647000685
 21
627.2056223624999802
 31
0.0
  0
LINE
  5
243
  8
0
  6
CONTINUOUS
 62
     7
 10
562.1714598647000685
 20
627.2056223624999802
 30
0.0
 11
587.1714620998999408
 21
627.2056223624999802
 31
0.0
  0
LINE
  5
244
  8
0
  6
CONTINUOUS
 62
     7
 10
587.1714620998999408
 20
631.20561556749999
 30
0.0
 11
587.1714620998999408
 21
627.2056223624999802
 31
0.0
  0
LINE
  5
245
  8
0
  6
CONTINUOUS
 62
     7
 10
587.1714620998999408
 20
631.20561556749999
 30
0.0
 11
627.1714612058000284
 21
631.20561556749999
 31
0.0
  0
LINE
  5
246
  8
0
  6
CONTINUOUS
 62
     7
 10
627.1714612058000284
 20
631.20561556749999
 30
0.0
 11
627.1714612058000284
 21
627.2056223624999802
 31
0.0
  0
LINE
  5
247
  8
0
  6
CONTINUOUS
 62
     7
 10
652.1714634410000144
 20
627.2056223624999802
 30
0.0
 11
627.1714612058000284
 21
627.2056223624999802
 31
0.0
  0
LINE
  5
248
  8
0
  6
CONTINUOUS
 62
     7
 10
652.1714634410000144
 20
631.20561556749999
 30
0.0
 11
652.1714634410000144
 21
627.2056223624999802
 31
0.0
  0
LINE
  5
249
  8
0
  6
CONTINUOUS
 62
     7
 10
652.1714634410000144
 20
631.20561556749999
 30
0.0
 11
687.1714598647000685
 21
631.20561556749999
 31
0.0
  0
ARC
  5
24A
  8
0
  6
CONTINUOUS
 62
     7
 10
527.1714616527998487
 20
306.2056191437999928
 30
0.0
 40
5.0000000000001128
 50
90.0
 51
180.0
  0
LINE
  5
24B
  8
0
  6
CONTINUOUS
 62
     7
 10
522.1714607587000501
 20
306.2056125872999814
 30
0.0
 11
522.1714607587000501
 21
256.20561556749999
 31
0.0
  0
ARC
  5
24C
  8
0
  6
CONTINUOUS
 62
     7
 10
527.1714616527998487
 20
256.2056191437999928
 30
0.0
 40
5.0000000000001128
 50
180.0
 51
270.0
  0
LINE
  5
24D
  8
0
  6
CONTINUOUS
 62
     7
 10
527.1714634410000144
 20
251.2056203358999937
 30
0.0
 11
687.1714598647000685
 21
251.2056203358999937
 31
0.0
  0
ARC
  5
24E
  8
0
  6
CONTINUOUS
 62
     7
 10
687.1714616527999624
 20
256.2056191437999928
 30
0.0
 40
5.0
 50
270.0
 51
0.0
  0
LINE
  5
24F
  8
0
  6
CONTINUOUS
 62
     7
 10
692.171462546899761
 20
256.20561556749999
 30
0.0
 11
692.171462546899761
 21
306.2056125872999814
 31
0.0
  0
ARC
  5
250
  8
0
  6
CONTINUOUS
 62
     7
 10
687.1714616527999624
 20
306.2056191437999928
 30
0.0
 40
5.0
 50
0.0
 51
90.0
  0
LINE
  5
251
  8
0
  6
CONTINUOUS
 62
     7
 10
687.1714598647000685
 20
311.2056227200999956
 30
0.0
 11
652.1714634410000144
 21
311.2056227200999956
 31
0.0
  0
LINE
  5
252
  8
0
  6
CONTINUOUS
 62
     7
 10
652.1714634410000144
 20
311.2056227200999956
 30
0.0
 11
652.1714634410000144
 21
315.2056159251999929
 31
0.0
  0
LINE
  5
253
  8
0
  6
CONTINUOUS
 62
     7
 10
652.1714634410000144
 20
315.2056159251999929
 30
0.0
 11
627.1714612058000284
 21
315.2056159251999929
 31
0.0
  0
LINE
  5
254
  8
0
  6
CONTINUOUS
 62
     7
 10
627.1714612058000284
 20
311.2056227200999956
 30
0.0
 11
627.1714612058000284
 21
315.2056159251999929
 31
0.0
  0
LINE
  5
255
  8
0
  6
CONTINUOUS
 62
     7
 10
627.1714612058000284
 20
311.2056227200999956
 30
0.0
 11
587.1714620998999408
 21
311.2056227200999956
 31
0.0
  0
LINE
  5
256
  8
0
  6
CONTINUOUS
 62
     7
 10
587.1714620998999408
 20
311.2056227200999956
 30
0.0
 11
587.1714620998999408
 21
315.2056159251999929
 31
0.0
  0
LINE
  5
257
  8
0
  6
CONTINUOUS
 62
     7
 10
562.1714598647000685
 20
315.2056159251999929
 30
0.0
 11
587.1714620998999408
 21
315.2056159251999929
 31
0.0
  0
LINE
  5
258
  8
0
  6
CONTINUOUS
 62
     7
 10
562.1714598647000685
 20
311.2056227200999956
 30
0.0
 11
562.1714598647000685
 21
315.2056159251999929
 31
0.0
  0
LINE
  5
259
  8
0
  6
CONTINUOUS
 62
     7
 10
562.1714598647000685
 20
311.2056227200999956
 30
0.0
 11
527.1714634410000144
 21
311.2056227200999956
 31
0.0
  0
LINE
  5
25A
  8
0
  6
CONTINUOUS
 62
     7
 10
648.1714627853000366
 20
611.2056197398999302
 30
0.0
 11
648.1714627853000366
 21
596.205619143799936
 31
0.0
  0
LINE
  5
25B
  8
0
  6
CONTINUOUS
 62
     7
 10
652.1714634410000144
 20
596.205619143799936
 30
0.0
 11
648.1714627853000366
 21
596.205619143799936
 31
0.0
  0
LINE
  5
25C
  8
0
  6
CONTINUOUS
 62
     7
 10
652.1714634410000144
 20
611.2056197398999302
 30
0.0
 11
652.1714634410000144
 21
596.205619143799936
 31
0.0
  0
LINE
  5
25D
  8
0
  6
CONTINUOUS
 62
     7
 10
652.1714634410000144
 20
611.2056197398999302
 30
0.0
 11
648.1714627853000366
 21
611.2056197398999302
 31
0.0
  0
LINE
  5
25E
  8
0
  6
CONTINUOUS
 62
     7
 10
566.1714605203000019
 20
331.2056185477999861
 30
0.0
 11
566.1714605203000019
 21
346.2056191437999928
 31
0.0
  0
LINE
  5
25F
  8
0
  6
CONTINUOUS
 62
     7
 10
562.1714598647000685
 20
346.2056191437999928
 30
0.0
 11
566.1714605203000019
 21
346.2056191437999928
 31
0.0
  0
LINE
  5
260
  8
0
  6
CONTINUOUS
 62
     7
 10
562.1714598647000685
 20
331.2056185477999861
 30
0.0
 11
562.1714598647000685
 21
346.2056191437999928
 31
0.0
  0
LINE
  5
261
  8
0
  6
CONTINUOUS
 62
     7
 10
562.1714598647000685
 20
331.2056185477999861
 30
0.0
 11
566.1714605203000019
 21
331.2056185477999861
 31
0.0
  0
ARC
  5
262
  8
0
  6
CONTINUOUS
 62
     7
 10
436.1714616527999056
 20
626.205619143799936
 30
0.0
 40
10.0000000000001101
 50
90.0
 51
180.0
  0
LINE
  5
263
  8
0
  6
CONTINUOUS
 62
     7
 10
429.1714585533998161
 20
603.7056119912999748
 30
0.0
 11
426.1714673748999758
 21
603.7056119912999748
 31
0.0
  0
LINE
  5
264
  8
0
  6
CONTINUOUS
 62
     7
 10
429.1714585533998161
 20
578.705620931999988
 30
0.0
 11
429.1714585533998161
 21
603.7056119912999748
 31
0.0
  0
LINE
  5
265
  8
0
  6
CONTINUOUS
 62
     7
 10
426.1714673748999758
 20
578.705620931999988
 30
0.0
 11
429.1714585533998161
 21
578.705620931999988
 31
0.0
  0
LINE
  5
266
  8
0
  6
CONTINUOUS
 62
     7
 10
426.1714673748999758
 20
578.705620931999988
 30
0.0
 11
426.1714673748999758
 21
556.2056200378998483
 31
0.0
  0
ARC
  5
267
  8
0
  6
CONTINUOUS
 62
     7
 10
436.1714616527999056
 20
556.205619143799936
 30
0.0
 40
10.0
 50
180.0
 51
270.0
  0
LINE
  5
268
  8
0
  6
CONTINUOUS
 62
     7
 10
436.1714578381000251
 20
546.2056221241000458
 30
0.0
 11
506.1714581361
 21
546.2056221241000458
 31
0.0
  0
ARC
  5
269
  8
0
  6
CONTINUOUS
 62
     7
 10
506.1714616527999056
 20
556.205619143799936
 30
0.0
 40
10.0000000000000604
 50
270.0
 51
0.0
  0
LINE
  5
26A
  8
0
  6
CONTINUOUS
 62
     7
 10
516.1714635005997707
 20
556.2056200378998483
 30
0.0
 11
516.1714635005997707
 21
626.2056203358999937
 31
0.0
  0
ARC
  5
26B
  8
0
  6
CONTINUOUS
 62
     7
 10
506.1714616527999056
 20
626.205619143799936
 30
0.0
 40
10.0000000000001101
 50
0.0
 51
90.0
  0
LINE
  5
26C
  8
0
  6
CONTINUOUS
 62
     7
 10
506.1714581361
 20
636.2056257002999473
 30
0.0
 11
483.6714646926997716
 21
636.2056257002999473
 31
0.0
  0
LINE
  5
26D
  8
0
  6
CONTINUOUS
 62
     7
 10
483.6714646926997716
 20
633.2056196206998493
 30
0.0
 11
483.6714646926997716
 21
636.2056257002999473
 31
0.0
  0
LINE
  5
26E
  8
0
  6
CONTINUOUS
 62
     7
 10
458.6714661827999748
 20
633.2056196206998493
 30
0.0
 11
483.6714646926997716
 21
633.2056196206998493
 31
0.0
  0
LINE
  5
26F
  8
0
  6
CONTINUOUS
 62
     7
 10
458.6714661827999748
 20
636.2056257002999473
 30
0.0
 11
458.6714661827999748
 21
633.2056196206998493
 31
0.0
  0
ARC
  5
270
  8
0
  6
CONTINUOUS
 62
     7
 10
778.1714616527999624
 20
626.205619143799936
 30
0.0
 40
10.0000000000001101
 50
0.0
 51
90.0
  0
LINE
  5
271
  8
0
  6
CONTINUOUS
 62
     7
 10
778.1714654674998428
 20
636.2056257002999473
 30
0.0
 11
755.6714571228999375
 21
636.2056257002999473
 31
0.0
  0
LINE
  5
272
  8
0
  6
CONTINUOUS
 62
     7
 10
755.6714571228999375
 20
633.2056196206998493
 30
0.0
 11
755.6714571228999375
 21
636.2056257002999473
 31
0.0
  0
LINE
  5
273
  8
0
  6
CONTINUOUS
 62
     7
 10
730.6714586130000271
 20
633.2056196206998493
 30
0.0
 11
755.6714571228999375
 21
633.2056196206998493
 31
0.0
  0
LINE
  5
274
  8
0
  6
CONTINUOUS
 62
     7
 10
730.6714586130000271
 20
636.2056257002999473
 30
0.0
 11
730.6714586130000271
 21
633.2056196206998493
 31
0.0
  0
ARC
  5
275
  8
0
  6
CONTINUOUS
 62
     7
 10
708.1714616527999624
 20
626.205619143799936
 30
0.0
 40
10.0000000000001101
 50
90.0
 51
180.0
  0
LINE
  5
276
  8
0
  6
CONTINUOUS
 62
     7
 10
698.1714598050999712
 20
626.2056203358999937
 30
0.0
 11
698.1714598050999712
 21
556.2056200378998483
 31
0.0
  0
ARC
  5
277
  8
0
  6
CONTINUOUS
 62
     7
 10
708.1714616527999624
 20
556.205619143799936
 30
0.0
 40
10.0
 50
180.0
 51
270.0
  0
LINE
  5
278
  8
0
  6
CONTINUOUS
 62
     7
 10
708.1714651694998111
 20
546.2056221241000458
 30
0.0
 11
778.1714654674998428
 21
546.2056221241000458
 31
0.0
  0
ARC
  5
279
  8
0
  6
CONTINUOUS
 62
     7
 10
778.1714616527999624
 20
556.205619143799936
 30
0.0
 40
10.0
 50
270.0
 51
0.0
  0
LINE
  5
27A
  8
0
  6
CONTINUOUS
 62
     7
 10
788.1714559307999934
 20
556.2056200378998483
 30
0.0
 11
788.1714559307999934
 21
578.705620931999988
 31
0.0
  0
LINE
  5
27B
  8
0
  6
CONTINUOUS
 62
     7
 10
785.1714647522998121
 20
578.705620931999988
 30
0.0
 11
788.1714559307999934
 21
578.705620931999988
 31
0.0
  0
LINE
  5
27C
  8
0
  6
CONTINUOUS
 62
     7
 10
785.1714647522998121
 20
603.7056119912999748
 30
0.0
 11
785.1714647522998121
 21
578.705620931999988
 31
0.0
  0
LINE
  5
27D
  8
0
  6
CONTINUOUS
 62
     7
 10
788.1714559307999934
 20
603.7056119912999748
 30
0.0
 11
785.1714647522998121
 21
603.7056119912999748
 31
0.0
  0
ARC
  5
27E
  8
0
  6
CONTINUOUS
 62
     7
 10
778.1714616527999624
 20
316.2056191437999928
 30
0.0
 40
10.0
 50
270.0
 51
0.0
  0
LINE
  5
27F
  8
0
  6
CONTINUOUS
 62
     7
 10
788.1714559307999934
 20
316.2056179516999919
 30
0.0
 11
788.1714559307999934
 21
338.7056262963999984
 31
0.0
  0
LINE
  5
280
  8
0
  6
CONTINUOUS
 62
     7
 10
785.1714647522998121
 20
338.7056262963999984
 30
0.0
 11
788.1714559307999934
 21
338.7056262963999984
 31
0.0
  0
LINE
  5
281
  8
0
  6
CONTINUOUS
 62
     7
 10
785.1714647522998121
 20
363.7056173556999852
 30
0.0
 11
785.1714647522998121
 21
338.7056262963999984
 31
0.0
  0
LINE
  5
282
  8
0
  6
CONTINUOUS
 62
     7
 10
788.1714559307999934
 20
363.7056173556999852
 30
0.0
 11
785.1714647522998121
 21
363.7056173556999852
 31
0.0
  0
ARC
  5
283
  8
0
  6
CONTINUOUS
 62
     7
 10
778.1714616527999624
 20
386.2056191437999928
 30
0.0
 40
10.0
 50
0.0
 51
90.0
  0
LINE
  5
284
  8
0
  6
CONTINUOUS
 62
     7
 10
778.1714654674998428
 20
396.2056161635999842
 30
0.0
 11
708.1714651694998111
 21
396.2056161635999842
 31
0.0
  0
ARC
  5
285
  8
0
  6
CONTINUOUS
 62
     7
 10
708.1714616527999624
 20
386.2056191437999928
 30
0.0
 40
10.0
 50
90.0
 51
180.0
  0
LINE
  5
286
  8
0
  6
CONTINUOUS
 62
     7
 10
698.1714598050999712
 20
386.2056182498000112
 30
0.0
 11
698.1714598050999712
 21
316.2056179516999919
 31
0.0
  0
ARC
  5
287
  8
0
  6
CONTINUOUS
 62
     7
 10
708.1714616527999624
 20
316.2056191437999928
 30
0.0
 40
10.0
 50
180.0
 51
270.0
  0
LINE
  5
288
  8
0
  6
CONTINUOUS
 62
     7
 10
730.6714586130000271
 20
309.2056186670000102
 30
0.0
 11
730.6714586130000271
 21
306.2056125872999814
 31
0.0
  0
LINE
  5
289
  8
0
  6
CONTINUOUS
 62
     7
 10
755.6714571228999375
 20
309.2056186670000102
 30
0.0
 11
730.6714586130000271
 21
309.2056186670000102
 31
0.0
  0
LINE
  5
28A
  8
0
  6
CONTINUOUS
 62
     7
 10
755.6714571228999375
 20
306.2056125872999814
 30
0.0
 11
755.6714571228999375
 21
309.2056186670000102
 31
0.0
  0
LINE
  5
28B
  8
0
  6
CONTINUOUS
 62
     7
 10
755.6714571228999375
 20
306.2056125872999814
 30
0.0
 11
778.1714654674998428
 21
306.2056125872999814
 31
0.0
  0
ARC
  5
28C
  8
0
  6
CONTINUOUS
 62
     7
 10
436.1714616527999056
 20
316.2056191437999928
 30
0.0
 40
10.0
 50
180.0
 51
270.0
  0
LINE
  5
28D
  8
0
  6
CONTINUOUS
 62
     7
 10
436.1714578381000251
 20
306.2056125872999814
 30
0.0
 11
458.6714661827999748
 21
306.2056125872999814
 31
0.0
  0
LINE
  5
28E
  8
0
  6
CONTINUOUS
 62
     7
 10
458.6714661827999748
 20
309.2056186670000102
 30
0.0
 11
458.6714661827999748
 21
306.2056125872999814
 31
0.0
  0
LINE
  5
28F
  8
0
  6
CONTINUOUS
 62
     7
 10
483.6714646926997716
 20
309.2056186670000102
 30
0.0
 11
458.6714661827999748
 21
309.2056186670000102
 31
0.0
  0
LINE
  5
290
  8
0
  6
CONTINUOUS
 62
     7
 10
483.6714646926997716
 20
306.2056125872999814
 30
0.0
 11
483.6714646926997716
 21
309.2056186670000102
 31
0.0
  0
ARC
  5
291
  8
0
  6
CONTINUOUS
 62
     7
 10
506.1714616527999056
 20
316.2056191437999928
 30
0.0
 40
10.0000000000000604
 50
270.0
 51
0.0
  0
LINE
  5
292
  8
0
  6
CONTINUOUS
 62
     7
 10
516.1714635005997707
 20
316.2056179516999919
 30
0.0
 11
516.1714635005997707
 21
386.2056182498000112
 31
0.0
  0
ARC
  5
293
  8
0
  6
CONTINUOUS
 62
     7
 10
506.1714616527999056
 20
386.2056191437999928
 30
0.0
 40
10.0000000000000604
 50
0.0
 51
90.0
  0
LINE
  5
294
  8
0
  6
CONTINUOUS
 62
     7
 10
506.1714581361
 20
396.2056161635999842
 30
0.0
 11
436.1714578381000251
 21
396.2056161635999842
 31
0.0
  0
ARC
  5
295
  8
0
  6
CONTINUOUS
 62
     7
 10
436.1714616527999056
 20
386.2056191437999928
 30
0.0
 40
10.0
 50
90.0
 51
180.0
  0
LINE
  5
296
  8
0
  6
CONTINUOUS
 62
     7
 10
426.1714673748999758
 20
386.2056182498000112
 30
0.0
 11
426.1714673748999758
 21
363.7056173556999852
 31
0.0
  0
LINE
  5
297
  8
0
  6
CONTINUOUS
 62
     7
 10
429.1714585533998161
 20
363.7056173556999852
 30
0.0
 11
426.1714673748999758
 21
363.7056173556999852
 31
0.0
  0
LINE
  5
298
  8
0
  6
CONTINUOUS
 62
     7
 10
429.1714585533998161
 20
338.7056262963999984
 30
0.0
 11
429.1714585533998161
 21
363.7056173556999852
 31
0.0
  0
LINE
  5
299
  8
0
  6
CONTINUOUS
 62
     7
 10
426.1714673748999758
 20
338.7056262963999984
 30
0.0
 11
429.1714585533998161
 21
338.7056262963999984
 31
0.0
  0
ARC
  5
29A
  8
0
  6
CONTINUOUS
 62
     7
 10
603.6714616527999624
 20
720.1810195350999493
 30
0.0
 40
1.0000000000000491
 50
0.0
 51
90.8053888852000171
  0
LINE
  5
29B
  8
0
  6
CONTINUOUS
 62
     7
 10
604.6714617086997805
 20
720.1810153000999435
 30
0.0
 11
604.6714617086997805
 21
717.2056259386999955
 31
0.0
  0
ARC
  5
29C
  8
0
  6
CONTINUOUS
 62
     7
 10
605.6714616527998487
 20
717.2056191438000496
 30
0.0
 40
1.000000000000113
 50
180.0
 51
270.0
  0
LINE
  5
29D
  8
0
  6
CONTINUOUS
 62
     7
 10
605.6714616397997588
 20
716.2056239122000534
 30
0.0
 11
608.671461665899983
 21
716.2056239122000534
 31
0.0
  0
ARC
  5
29E
  8
0
  6
CONTINUOUS
 62
     7
 10
608.6714616527998487
 20
717.2056191438000496
 30
0.0
 40
1.000000000000113
 50
270.0
 51
0.0
  0
LINE
  5
29F
  8
0
  6
CONTINUOUS
 62
     7
 10
609.6714615969000306
 20
717.2056259386999955
 30
0.0
 11
609.6714615969000306
 21
720.1810153000999435
 31
0.0
  0
ARC
  5
2A0
  8
0
  6
CONTINUOUS
 62
     7
 10
610.6714616527998487
 20
720.1810195350999493
 30
0.0
 40
1.000000000000046
 50
89.1946111147999972
 51
180.0
  0
ARC
  5
2A1
  8
0
  6
CONTINUOUS
 62
     7
 10
712.0444482852000192
 20
697.0432968567996568
 30
0.0
 40
0.9999999999999708
 50
334.2857142857000099
 51
65.0911031710000003
  0
LINE
  5
2A2
  8
0
  6
CONTINUOUS
 62
     7
 10
712.9454172363997486
 20
696.6094197505000238
 30
0.0
 11
711.6544402351998997
 21
693.928671049499826
 31
0.0
  0
ARC
  5
2A3
  8
0
  6
CONTINUOUS
 62
     7
 10
712.5554081738997638
 20
693.4947862564999923
 30
0.0
 40
1.000000000000117
 50
154.2857142857000099
 51
244.2857142857000099
  0
LINE
  5
2A4
  8
0
  6
CONTINUOUS
 62
     7
 10
712.1215245833998324
 20
692.5938101285000812
 30
0.0
 11
714.8244313111999872
 21
691.2921638958999893
 31
0.0
  0
ARC
  5
2A5
  8
0
  6
CONTINUOUS
 62
     7
 10
715.258314777599935
 20
692.1931350390999569
 30
0.0
 40
1.000000000000117
 50
244.2857142857000099
 51
334.2857142857000099
  0
LINE
  5
2A6
  8
0
  6
CONTINUOUS
 62
     7
 10
716.1592847814999914
 20
691.7592556946998457
 30
0.0
 11
717.450261782699954
 21
694.4399894946999439
 31
0.0
  0
ARC
  5
2A7
  8
0
  6
CONTINUOUS
 62
     7
 10
718.3512303605000398
 20
694.0061106829998607
 30
0.0
 40
1.000000000000107
 50
63.4803254004999928
 51
154.2857142857000099
  0
ARC
  5
2A8
  8
0
  6
CONTINUOUS
 62
     7
 10
799.6460537322998334
 20
629.1756523901000264
 30
0.0
 40
1.000000000000077
 50
308.5714285714000198
 51
39.3768174567000031
  0
LINE
  5
2A9
  8
0
  6
CONTINUOUS
 62
     7
 10
800.2695447912999498
 20
628.3938260548999324
 30
0.0
 11
797.943279813800018
 21
626.538691090899988
 31
0.0
  0
ARC
  5
2AA
  8
0
  6
CONTINUOUS
 62
     7
 10
798.5667716371999632
 20
625.7568576247997498
 30
0.0
 40
1.000000000000077
 50
128.5714285713999914
 51
218.5714285713999914
  0
LINE
  5
2AB
  8
0
  6
CONTINUOUS
 62
     7
 10
797.7849400750000086
 20
625.1333625787000301
 30
0.0
 11
799.6554083338000964
 21
622.7878751033000526
 31
0.0
  0
ARC
  5
2AC
  8
0
  6
CONTINUOUS
 62
     7
 10
800.4372410426999522
 20
623.4113631773999487
 30
0.0
 40
0.9999999999999875
 50
218.5714285713999914
 51
308.5714285714000198
  0
LINE
  5
2AD
  8
0
  6
CONTINUOUS
 62
     7
 10
801.0607368460000544
 20
622.6295353644999295
 30
0.0
 11
803.3869869222997977
 21
624.4846703284998739
 31
0.0
  0
ARC
  5
2AE
  8
0
  6
CONTINUOUS
 62
     7
 10
804.0104823453001472
 20
623.702832012799945
 30
0.0
 40
1.0000000000000591
 50
37.7660396862000027
 51
128.5714285713999914
  0
ARC
  5
2AF
  8
0
  6
CONTINUOUS
 62
     7
 10
849.1257056721000254
 20
530.0201054637000198
 30
0.0
 40
1.0000000000000879
 50
282.8571428570999728
 51
13.6625317424000006
  0
LINE
  5
2B0
  8
0
  6
CONTINUOUS
 62
     7
 10
849.3482328167998503
 20
529.0451766723000446
 30
0.0
 11
846.4474237672000072
 21
528.3830882782000344
 31
0.0
  0
ARC
  5
2B1
  8
0
  6
CONTINUOUS
 62
     7
 10
846.6699466485999892
 20
527.4081607652999537
 30
0.0
 40
1.0000000000000631
 50
102.8571428571000013
 51
192.8571428571000013
  0
LINE
  5
2B2
  8
0
  6
CONTINUOUS
 62
     7
 10
845.6950194349999492
 20
527.1856384151999464
 30
0.0
 11
846.3625765552999383
 21
524.260857122500056
 31
0.0
  0
ARC
  5
2B3
  8
0
  6
CONTINUOUS
 62
     7
 10
847.3375094504999652
 20
524.4833770287998505
 30
0.0
 40
1.0000000000000879
 50
192.8571428571000013
 51
282.8571428570999728
  0
LINE
  5
2B4
  8
0
  6
CONTINUOUS
 62
     7
 10
847.56003386889995
 20
523.5084490650998532
 30
0.0
 11
850.460828017299832
 21
524.1705374591997497
 31
0.0
  0
ARC
  5
2B5
  8
0
  6
CONTINUOUS
 62
     7
 10
850.6833522097999776
 20
523.1956100783999091
 30
0.0
 40
1.0000000000000631
 50
12.0517539719000002
 51
102.8571428571000013
  0
ARC
  5
2B6
  8
0
  6
CONTINUOUS
 62
     7
 10
850.6833522097999776
 20
419.215628209199906
 30
0.0
 40
1.0000000000000311
 50
257.1428571429000272
 51
347.9482460280999021
  0
LINE
  5
2B7
  8
0
  6
CONTINUOUS
 62
     7
 10
850.460828017299832
 20
418.2407008283997811
 30
0.0
 11
847.56003386889995
 21
418.9027892226000063
 31
0.0
  0
ARC
  5
2B8
  8
0
  6
CONTINUOUS
 62
     7
 10
847.3375094504999652
 20
417.9278612587999078
 30
0.0
 40
1.0000000000000071
 50
77.1428571428999845
 51
167.1428571428999987
  0
LINE
  5
2B9
  8
0
  6
CONTINUOUS
 62
     7
 10
846.3625765552999383
 20
418.1503811650999864
 30
0.0
 11
845.6950194349999492
 21
415.2255998723999255
 31
0.0
  0
ARC
  5
2BA
  8
0
  6
CONTINUOUS
 62
     7
 10
846.6699466485999892
 20
415.003077522299975
 30
0.0
 40
0.9999999999999776
 50
167.1428571428999987
 51
257.1428571429000272
  0
LINE
  5
2BB
  8
0
  6
CONTINUOUS
 62
     7
 10
846.4474237672000072
 20
414.0281500094998819
 30
0.0
 11
849.3482328167998503
 21
413.3660616152998273
 31
0.0
  0
ARC
  5
2BC
  8
0
  6
CONTINUOUS
 62
     7
 10
849.1257056721000254
 20
412.3911328240000103
 30
0.0
 40
1.0000000000001219
 50
346.3374682575999941
 51
77.1428571428999845
  0
ARC
  5
2BD
  8
0
  6
CONTINUOUS
 62
     7
 10
804.0104823453001472
 20
318.7084062747999837
 30
0.0
 40
1.000000000000077
 50
231.4285714286000086
 51
322.2339603138000257
  0
LINE
  5
2BE
  8
0
  6
CONTINUOUS
 62
     7
 10
803.3869869222997977
 20
317.9265679591999856
 30
0.0
 11
801.0607368460000544
 21
319.7817029231999868
 31
0.0
  0
ARC
  5
2BF
  8
0
  6
CONTINUOUS
 62
     7
 10
800.4372410426999522
 20
318.9998751103000245
 30
0.0
 40
1.0000000000000051
 50
51.4285714285999873
 51
141.4285714286000086
  0
LINE
  5
2C0
  8
0
  6
CONTINUOUS
 62
     7
 10
799.6554083338000964
 20
319.6233631842999898
 30
0.0
 11
797.7849400750000086
 21
317.2778757089000123
 31
0.0
  0
ARC
  5
2C1
  8
0
  6
CONTINUOUS
 62
     7
 10
798.5667716371999632
 20
316.654380662899996
 30
0.0
 40
0.9999999999999613
 50
141.4285714286000086
 51
231.4285714286000086
  0
LINE
  5
2C2
  8
0
  6
CONTINUOUS
 62
     7
 10
797.943279813800018
 20
315.8725471966999976
 30
0.0
 11
800.2695447912999498
 21
314.0174122326999964
 31
0.0
  0
ARC
  5
2C3
  8
0
  6
CONTINUOUS
 62
     7
 10
799.6460537322998334
 20
313.235585897500016
 30
0.0
 40
1.0000000000000451
 50
320.623182543300004
 51
51.4285714285999873
  0
ARC
  5
2C4
  8
0
  6
CONTINUOUS
 62
     7
 10
718.3512303605000398
 20
248.4051276046000112
 30
0.0
 40
1.000000000000093
 50
205.7142857142999901
 51
296.5196745995000924
  0
LINE
  5
2C5
  8
0
  6
CONTINUOUS
 62
     7
 10
717.450261782699954
 20
247.9712487930000009
 30
0.0
 11
716.1592847814999914
 21
250.6519825928999978
 31
0.0
  0
ARC
  5
2C6
  8
0
  6
CONTINUOUS
 62
     7
 10
715.258314777599935
 20
250.2181032485000003
 30
0.0
 40
1.0000000000000171
 50
25.7142857143000008
 51
115.7142857143000043
  0
LINE
  5
2C7
  8
0
  6
CONTINUOUS
 62
     7
 10
714.8244313111999872
 20
251.1190743916999963
 30
0.0
 11
712.1215245833998324
 21
249.8174281590999897
 31
0.0
  0
ARC
  5
2C8
  8
0
  6
CONTINUOUS
 62
     7
 10
712.5554081738997638
 20
248.9164520310999933
 30
0.0
 40
0.9999999999999912
 50
115.7142857143000043
 51
205.7142857142999901
  0
LINE
  5
2C9
  8
0
  6
CONTINUOUS
 62
     7
 10
711.6544402351998997
 20
248.482567238200005
 30
0.0
 11
712.9454172363997486
 21
245.8018185370999902
 31
0.0
  0
ARC
  5
2CA
  8
0
  6
CONTINUOUS
 62
     7
 10
712.0444482852000192
 20
245.3679414307999878
 30
0.0
 40
1.000000000000093
 50
294.9088968291000015
 51
25.7142857143000008
  0
ARC
  5
2CB
  8
0
  6
CONTINUOUS
 62
     7
 10
610.6714616527998487
 20
222.2302187525000079
 30
0.0
 40
1.0000000000000211
 50
180.0
 51
270.8053888851999886
  0
LINE
  5
2CC
  8
0
  6
CONTINUOUS
 62
     7
 10
609.6714615969000306
 20
222.2302229875000137
 30
0.0
 11
609.6714615969000306
 21
225.2056123488999901
 31
0.0
  0
ARC
  5
2CD
  8
0
  6
CONTINUOUS
 62
     7
 10
608.6714616527998487
 20
225.2056191437999928
 30
0.0
 40
1.0
 50
0.0
 51
90.0
  0
LINE
  5
2CE
  8
0
  6
CONTINUOUS
 62
     7
 10
608.671461665899983
 20
226.2056143753999891
 30
0.0
 11
605.6714616397997588
 21
226.2056143753999891
 31
0.0
  0
ARC
  5
2CF
  8
0
  6
CONTINUOUS
 62
     7
 10
605.6714616527998487
 20
225.2056191437999928
 30
0.0
 40
1.0
 50
90.0
 51
180.0
  0
LINE
  5
2D0
  8
0
  6
CONTINUOUS
 62
     7
 10
604.6714617086997805
 20
225.2056123488999901
 30
0.0
 11
604.6714617086997805
 21
222.2302229875000137
 31
0.0
  0
ARC
  5
2D1
  8
0
  6
CONTINUOUS
 62
     7
 10
603.6714616527999624
 20
222.2302187525000079
 30
0.0
 40
1.0000000000000191
 50
269.1946111148000114
 51
0.0
  0
ARC
  5
2D2
  8
0
  6
CONTINUOUS
 62
     7
 10
502.2984750204000193
 20
245.3679414307999878
 30
0.0
 40
1.0000000000000411
 50
154.2857142857000099
 51
245.0911031708999985
  0
LINE
  5
2D3
  8
0
  6
CONTINUOUS
 62
     7
 10
501.3975060692000056
 20
245.8018185370999902
 30
0.0
 11
502.6884830704000251
 21
248.482567238200005
 31
0.0
  0
ARC
  5
2D4
  8
0
  6
CONTINUOUS
 62
     7
 10
501.7875151317999212
 20
248.9164520310999933
 30
0.0
 40
0.9999999999999902
 50
334.2857142857000099
 51
64.2857142856999957
  0
LINE
  5
2D5
  8
0
  6
CONTINUOUS
 62
     7
 10
502.2213987221999787
 20
249.8174281590999897
 30
0.0
 11
499.5184919944001081
 21
251.1190743916999963
 31
0.0
  0
ARC
  5
2D6
  8
0
  6
CONTINUOUS
 62
     7
 10
499.0846085279999897
 20
250.2181032485000003
 30
0.0
 40
0.9999999999999902
 50
64.2857142856999957
 51
154.2857142857000099
  0
LINE
  5
2D7
  8
0
  6
CONTINUOUS
 62
     7
 10
498.1836385240999903
 20
250.6519825928999978
 30
0.0
 11
496.8926615229000276
 21
247.9712487930000009
 31
0.0
  0
ARC
  5
2D8
  8
0
  6
CONTINUOUS
 62
     7
 10
495.9916929450999987
 20
248.4051276046000112
 30
0.0
 40
1.00000000000003
 50
243.4803254004999928
 51
334.2857142857000099
  0
ARC
  5
2D9
  8
0
  6
CONTINUOUS
 62
     7
 10
414.6968695732999777
 20
313.235585897500016
 30
0.0
 40
1.000000000000077
 50
128.5714285713999914
 51
219.376817456699996
  0
LINE
  5
2DA
  8
0
  6
CONTINUOUS
 62
     7
 10
414.0733785144000194
 20
314.0174122326999964
 30
0.0
 11
416.3996434918000205
 21
315.8725471966999976
 31
0.0
  0
ARC
  5
2DB
  8
0
  6
CONTINUOUS
 62
     7
 10
415.7761516685000061
 20
316.654380662899996
 30
0.0
 40
0.9999999999999968
 50
308.5714285714000198
 51
38.5714285713999985
  0
LINE
  5
2DC
  8
0
  6
CONTINUOUS
 62
     7
 10
416.5579832307000174
 20
317.2778757089000123
 30
0.0
 11
414.6875149717999989
 21
319.6233631842999898
 31
0.0
  0
ARC
  5
2DD
  8
0
  6
CONTINUOUS
 62
     7
 10
413.9056822628999726
 20
318.9998751103000245
 30
0.0
 40
1.00000000000004
 50
38.5714285713999985
 51
128.5714285713999914
  0
LINE
  5
2DE
  8
0
  6
CONTINUOUS
 62
     7
 10
413.2821864595998136
 20
319.7817029231999868
 30
0.0
 11
410.9559363833000134
 21
317.9265679591999856
 31
0.0
  0
ARC
  5
2DF
  8
0
  6
CONTINUOUS
 62
     7
 10
410.3324409603000049
 20
318.7084062747999837
 30
0.0
 40
1.0000000000000511
 50
217.7660396862000027
 51
308.5714285714000198
  0
ARC
  5
2E0
  8
0
  6
CONTINUOUS
 62
     7
 10
365.2172176336000007
 20
412.3911328240000103
 30
0.0
 40
1.0000000000000671
 50
102.8571428571000013
 51
193.6625317424000059
  0
LINE
  5
2E1
  8
0
  6
CONTINUOUS
 62
     7
 10
364.9946904889000052
 20
413.3660616152998273
 30
0.0
 11
367.8954995385000188
 21
414.0281500094998819
 31
0.0
  0
ARC
  5
2E2
  8
0
  6
CONTINUOUS
 62
     7
 10
367.6729766569999924
 20
415.003077522299975
 30
0.0
 40
1.0000000000000191
 50
282.8571428570999728
 51
12.8571428570999995
  0
LINE
  5
2E3
  8
0
  6
CONTINUOUS
 62
     7
 10
368.6479038705999756
 20
415.2255998723999255
 30
0.0
 11
367.9803467502999865
 21
418.1503811650999864
 31
0.0
  0
ARC
  5
2E4
  8
0
  6
CONTINUOUS
 62
     7
 10
367.005413855200004
 20
417.9278612587999078
 30
0.0
 40
1.0000000000000191
 50
12.8571428570999995
 51
102.8571428571000013
  0
LINE
  5
2E5
  8
0
  6
CONTINUOUS
 62
     7
 10
366.7828894368000192
 20
418.9027892226000063
 30
0.0
 11
363.8820952882999791
 21
418.2407008283997811
 31
0.0
  0
ARC
  5
2E6
  8
0
  6
CONTINUOUS
 62
     7
 10
363.6595710958999916
 20
419.215628209199906
 30
0.0
 40
1.000000000000036
 50
192.0517539719000126
 51
282.8571428570999728
  0
ARC
  5
2E7
  8
0
  6
CONTINUOUS
 62
     7
 10
363.6595710958999916
 20
523.1956100783999091
 30
0.0
 40
1.0000000000000751
 50
77.1428571428999845
 51
167.9482460280999874
  0
LINE
  5
2E8
  8
0
  6
CONTINUOUS
 62
     7
 10
363.8820952882999791
 20
524.1705374591997497
 30
0.0
 11
366.7828894368000192
 21
523.5084490650998532
 31
0.0
  0
ARC
  5
2E9
  8
0
  6
CONTINUOUS
 62
     7
 10
367.005413855200004
 20
524.4833770287998505
 30
0.0
 40
0.9999999999999823
 50
257.1428571429000272
 51
347.1428571429000272
  0
LINE
  5
2EA
  8
0
  6
CONTINUOUS
 62
     7
 10
367.9803467502999865
 20
524.260857122500056
 30
0.0
 11
368.6479038705999756
 21
527.1856384151999464
 31
0.0
  0
ARC
  5
2EB
  8
0
  6
CONTINUOUS
 62
     7
 10
367.6729766569999924
 20
527.4081607652999537
 30
0.0
 40
1.0000000000000311
 50
347.1428571429000272
 51
77.1428571428999845
  0
LINE
  5
2EC
  8
0
  6
CONTINUOUS
 62
     7
 10
367.8954995385000188
 20
528.3830882782000344
 30
0.0
 11
364.9946904889000052
 21
529.0451766723000446
 31
0.0
  0
ARC
  5
2ED
  8
0
  6
CONTINUOUS
 62
     7
 10
365.2172176336000007
 20
530.0201054637000198
 30
0.0
 40
0.9999999999999699
 50
166.3374682575999941
 51
257.1428571429000272
  0
ARC
  5
2EE
  8
0
  6
CONTINUOUS
 62
     7
 10
410.3324409603000049
 20
623.702832012799945
 30
0.0
 40
0.9999999999999875
 50
51.4285714285999873
 51
142.2339603137999973
  0
LINE
  5
2EF
  8
0
  6
CONTINUOUS
 62
     7
 10
410.9559363833000134
 20
624.4846703284998739
 30
0.0
 11
413.2821864595998136
 21
622.6295353644999295
 31
0.0
  0
ARC
  5
2F0
  8
0
  6
CONTINUOUS
 62
     7
 10
413.9056822628999726
 20
623.4113631773999487
 30
0.0
 40
1.00000000000004
 50
231.4285714286000086
 51
321.4285714285999802
  0
LINE
  5
2F1
  8
0
  6
CONTINUOUS
 62
     7
 10
414.6875149717999989
 20
622.7878751033000526
 30
0.0
 11
416.5579832307000174
 21
625.1333625787000301
 31
0.0
  0
ARC
  5
2F2
  8
0
  6
CONTINUOUS
 62
     7
 10
415.7761516685000061
 20
625.7568576247997498
 30
0.0
 40
1.00000000000004
 50
321.4285714285999802
 51
51.4285714285999873
  0
LINE
  5
2F3
  8
0
  6
CONTINUOUS
 62
     7
 10
416.3996434918000205
 20
626.538691090899988
 30
0.0
 11
414.0733785144000194
 21
628.3938260548999324
 31
0.0
  0
ARC
  5
2F4
  8
0
  6
CONTINUOUS
 62
     7
 10
414.6968695732999777
 20
629.1756523901000264
 30
0.0
 40
1.0000000000000451
 50
140.623182543300004
 51
231.4285714286000086
  0
ARC
  5
2F5
  8
0
  6
CONTINUOUS
 62
     7
 10
495.9916929450999987
 20
694.0061106829998607
 30
0.0
 40
1.0000000000000051
 50
25.7142857143000008
 51
116.519674599499993
  0
LINE
  5
2F6
  8
0
  6
CONTINUOUS
 62
     7
 10
496.8926615229000276
 20
694.4399894946999439
 30
0.0
 11
498.1836385240999903
 21
691.7592556946998457
 31
0.0
  0
ARC
  5
2F7
  8
0
  6
CONTINUOUS
 62
     7
 10
499.0846085279999897
 20
692.1931350390999569
 30
0.0
 40
0.9999999999999158
 50
205.7142857142999901
 51
295.7142857142999901
  0
LINE
  5
2F8
  8
0
  6
CONTINUOUS
 62
     7
 10
499.5184919944001081
 20
691.2921638958999893
 30
0.0
 11
502.2213987221999787
 21
692.5938101285000812
 31
0.0
  0
ARC
  5
2F9
  8
0
  6
CONTINUOUS
 62
     7
 10
501.7875151317999212
 20
693.4947862564999923
 30
0.0
 40
0.9999999999999902
 50
295.7142857142999901
 51
25.7142857143000008
  0
LINE
  5
2FA
  8
0
  6
CONTINUOUS
 62
     7
 10
502.6884830704000251
 20
693.928671049499826
 30
0.0
 11
501.3975060692000056
 21
696.6094197505000238
 31
0.0
  0
ARC
  5
2FB
  8
0
  6
CONTINUOUS
 62
     7
 10
502.2984750204000193
 20
697.0432968567996568
 30
0.0
 40
1.000000000000117
 50
114.9088968291000015
 51
205.7142857142999901
  0
ARC
  5
2FC
  8
0
  6
CONTINUOUS
 62
     7
 10
607.1714616527998487
 20
471.2056191437999928
 30
0.0
 40
250.0000000000001137
 50
90.8053888852000171
 51
114.9088968291000015
  0
CIRCLE
  5
2FD
  8
0
  6
CONTINUOUS
 62
     7
 10
364.6714616527999056
 20
471.2056191437999928
 30
0.0
 40
1.6999999999999891
  0
CIRCLE
  5
2FE
  8
0
  6
CONTINUOUS
 62
     7
 10
410.9848405169000216
 20
328.6676954628999852
 30
0.0
 40
1.700000000000025
  0
CIRCLE
  5
2FF
  8
0
  6
CONTINUOUS
 62
     7
 10
532.2348405169000216
 20
240.5744139422000103
 30
0.0
 40
1.700000000000027
  0
CIRCLE
  5
300
  8
0
  6
CONTINUOUS
 62
     7
 10
682.1080827887000169
 20
240.5744139422000103
 30
0.0
 40
1.6999999999999209
  0
CIRCLE
  5
301
  8
0
  6
CONTINUOUS
 62
     7
 10
803.3580827886997895
 20
328.6676954628999852
 30
0.0
 40
1.700000000000025
  0
CIRCLE
  5
302
  8
0
  6
CONTINUOUS
 62
     7
 10
849.6714616527998487
 20
471.2056191437999928
 30
0.0
 40
1.700000000000045
  0
CIRCLE
  5
303
  8
0
  6
CONTINUOUS
 62
     7
 10
803.3580827886997895
 20
613.7435428246999436
 30
0.0
 40
1.700000000000025
  0
CIRCLE
  5
304
  8
0
  6
CONTINUOUS
 62
     7
 10
682.1080827887000169
 20
701.8368243453998048
 30
0.0
 40
1.7000000000001461
  0
CIRCLE
  5
305
  8
0
  6
CONTINUOUS
 62
     7
 10
532.2348405169000216
 20
701.8368243453998048
 30
0.0
 40
1.69999999999993
  0
CIRCLE
  5
306
  8
0
  6
CONTINUOUS
 62
     7
 10
410.9848405169000216
 20
613.7435428246999436
 30
0.0
 40
1.6999999999999329
  0
CIRCLE
  5
307
  8
0
  6
CONTINUOUS
 62
     7
 10
841.6714616527998487
 20
486.2056191437998223
 30
0.0
 40
1.700000000000045
  0
CIRCLE
  5
308
  8
0
  6
CONTINUOUS
 62
     7
 10
763.3642389207999486
 20
646.7592187346998571
 30
0.0
 40
1.700000000008117
  0
CIRCLE
  5
309
  8
0
  6
CONTINUOUS
 62
     7
 10
841.6714616527998487
 20
456.2056191437998223
 30
0.0
 40
1.700000000000045
  0
CIRCLE
  5
30A
  8
0
  6
CONTINUOUS
 62
     7
 10
824.5142327117998775
 20
381.889495916299893
 30
0.0
 40
1.6999999999843001
  0
CIRCLE
  5
30B
  8
0
  6
CONTINUOUS
 62
     7
 10
811.3630983082000512
 20
354.9256745272999751
 30
0.0
 40
1.6999999999850379
  0
CIRCLE
  5
30C
  8
0
  6
CONTINUOUS
 62
     7
 10
763.3642389207999486
 20
295.6520195529000148
 30
0.0
 40
1.699999999973272
  0
CIRCLE
  5
30D
  8
0
  6
CONTINUOUS
 62
     7
 10
739.7239163125999539
 20
665.2290629944999409
 30
0.0
 40
1.7000000000080031
  0
CIRCLE
  5
30E
  8
0
  6
CONTINUOUS
 62
     7
 10
824.5142327117998775
 20
560.5217423714000233
 30
0.0
 40
1.700000000005957
  0
CIRCLE
  5
30F
  8
0
  6
CONTINUOUS
 62
     7
 10
811.3630983081000068
 20
587.4855637602998968
 30
0.0
 40
1.7000000000058431
  0
CIRCLE
  5
310
  8
0
  6
CONTINUOUS
 62
     7
 10
739.7239163125999539
 20
277.1821752931999754
 30
0.0
 40
1.6999999999745801
  0
CIRCLE
  5
311
  8
0
  6
CONTINUOUS
 62
     7
 10
387.1714616528000192
 20
491.2056191437999928
 30
0.0
 40
1.800000000000068
  0
CIRCLE
  5
312
  8
0
  6
CONTINUOUS
 62
     7
 10
787.1714616527999624
 20
451.2056191437998791
 30
0.0
 40
1.8000000000000109
  0
CIRCLE
  5
313
  8
0
  6
CONTINUOUS
 62
     7
 10
587.1714616527999624
 20
491.2056191437999928
 30
0.0
 40
1.800000000000068
  0
CIRCLE
  5
314
  8
0
  6
CONTINUOUS
 62
     7
 10
487.1714616528000192
 20
451.2056191437998791
 30
0.0
 40
1.8000000000000109
  0
CIRCLE
  5
315
  8
0
  6
CONTINUOUS
 62
     7
 10
487.1714616528000192
 20
491.2056191437999928
 30
0.0
 40
1.800000000000068
  0
CIRCLE
  5
316
  8
0
  6
CONTINUOUS
 62
     7
 10
387.1714616528000192
 20
451.2056191437998791
 30
0.0
 40
1.8000000000000109
  0
CIRCLE
  5
317
  8
0
  6
CONTINUOUS
 62
     7
 10
787.1714616527999624
 20
491.2056191437999928
 30
0.0
 40
1.800000000000068
  0
CIRCLE
  5
318
  8
0
  6
CONTINUOUS
 62
     7
 10
687.1714616527999624
 20
451.2056191437998791
 30
0.0
 40
1.8000000000000109
  0
CIRCLE
  5
319
  8
0
  6
CONTINUOUS
 62
     7
 10
687.1714616527999624
 20
491.2056191437999928
 30
0.0
 40
1.800000000000068
  0
CIRCLE
  5
31A
  8
0
  6
CONTINUOUS
 62
     7
 10
587.1714616527999624
 20
451.2056191437998791
 30
0.0
 40
1.8000000000000109
  0
CIRCLE
  5
31B
  8
0
  6
CONTINUOUS
 62
     7
 10
547.1714616527998487
 20
246.2056191437999928
 30
0.0
 40
1.8000000000000109
  0
CIRCLE
  5
31C
  8
0
  6
CONTINUOUS
 62
     7
 10
547.1714616527998487
 20
626.205619143799936
 30
0.0
 40
1.800000000000068
  0
CIRCLE
  5
31D
  8
0
  6
CONTINUOUS
 62
     7
 10
667.1714616527998487
 20
696.2056191438000496
 30
0.0
 40
1.7999999999999541
  0
CIRCLE
  5
31E
  8
0
  6
CONTINUOUS
 62
     7
 10
547.1714616527998487
 20
696.2056191438000496
 30
0.0
 40
1.800000000000068
  0
CIRCLE
  5
31F
  8
0
  6
CONTINUOUS
 62
     7
 10
667.1714616527998487
 20
246.2056191437999928
 30
0.0
 40
1.7999999999999809
  0
CIRCLE
  5
320
  8
0
  6
CONTINUOUS
 62
     7
 10
547.1714616527998487
 20
316.2056191437999928
 30
0.0
 40
1.8000000000000109
  0
CIRCLE
  5
321
  8
0
  6
CONTINUOUS
 62
     7
 10
667.1714616527998487
 20
316.2056191437999928
 30
0.0
 40
1.8000000000000109
  0
CIRCLE
  5
322
  8
0
  6
CONTINUOUS
 62
     7
 10
667.1714616527998487
 20
626.205619143799936
 30
0.0
 40
1.7999999999999541
  0
LINE
  5
323
  8
0
  6
CONTINUOUS
 62
     7
 10
426.1714673748999758
 20
626.2056203358999937
 30
0.0
 11
426.1714673748999758
 21
603.7056119912999748
 31
0.0
  0
LINE
  5
324
  8
0
  6
CONTINUOUS
 62
     7
 10
458.6714661827999748
 20
636.2056257002999473
 30
0.0
 11
436.1714578381000251
 21
636.2056257002999473
 31
0.0
  0
LINE
  5
325
  8
0
  6
CONTINUOUS
 62
     7
 10
730.6714586130000271
 20
636.2056257002999473
 30
0.0
 11
708.1714651694998111
 21
636.2056257002999473
 31
0.0
  0
LINE
  5
326
  8
0
  6
CONTINUOUS
 62
     7
 10
788.1714559307999934
 20
603.7056119912999748
 30
0.0
 11
788.1714559307999934
 21
626.2056203358999937
 31
0.0
  0
LINE
  5
327
  8
0
  6
CONTINUOUS
 62
     7
 10
788.1714559307999934
 20
363.7056173556999852
 30
0.0
 11
788.1714559307999934
 21
386.2056182498000112
 31
0.0
  0
LINE
  5
328
  8
0
  6
CONTINUOUS
 62
     7
 10
708.1714651694998111
 20
306.2056125872999814
 30
0.0
 11
730.6714586130000271
 21
306.2056125872999814
 31
0.0
  0
LINE
  5
329
  8
0
  6
CONTINUOUS
 62
     7
 10
483.6714646926997716
 20
306.2056125872999814
 30
0.0
 11
506.1714581361
 21
306.2056125872999814
 31
0.0
  0
LINE
  5
32A
  8
0
  6
CONTINUOUS
 62
     7
 10
426.1714673748999758
 20
338.7056262963999984
 30
0.0
 11
426.1714673748999758
 21
316.2056179516999919
 31
0.0
  0
ARC
  5
32B
  8
0
  6
CONTINUOUS
 62
     7
 10
607.1714616527998487
 20
471.2056191437999928
 30
0.0
 40
250.0000000000001137
 50
65.0911031708999985
 51
89.1946111147999972
  0
ARC
  5
32C
  8
0
  6
CONTINUOUS
 62
     7
 10
607.1714616527998487
 20
471.2056191437999928
 30
0.0
 40
250.0000000000001137
 50
116.519674599499993
 51
140.623182543300004
  0
ARC
  5
32D
  8
0
  6
CONTINUOUS
 62
     7
 10
607.1714616527998487
 20
471.2056191437999928
 30
0.0
 40
250.0
 50
142.2339603137999973
 51
166.3374682575999941
  0
ARC
  5
32E
  8
0
  6
CONTINUOUS
 62
     7
 10
607.1714616527998487
 20
471.2056191437999928
 30
0.0
 40
250.0000000000001137
 50
167.9482460280999874
 51
192.0517539719000126
  0
ARC
  5
32F
  8
0
  6
CONTINUOUS
 62
     7
 10
607.1714616527998487
 20
471.2056191437999928
 30
0.0
 40
250.0000000000001137
 50
193.6625317424000059
 51
217.7660396862000027
  0
ARC
  5
330
  8
0
  6
CONTINUOUS
 62
     7
 10
607.1714616527998487
 20
471.2056191437999928
 30
0.0
 40
250.0000000000001137
 50
219.376817456699996
 51
243.4803254004999928
  0
ARC
  5
331
  8
0
  6
CONTINUOUS
 62
     7
 10
607.1714616527998487
 20
471.2056191437999928
 30
0.0
 40
250.0000000000001137
 50
245.0911031708999985
 51
269.1946111148000114
  0
ARC
  5
332
  8
0
  6
CONTINUOUS
 62
     7
 10
607.1714616527998487
 20
471.2056191437999928
 30
0.0
 40
250.0
 50
270.8053888851999886
 51
294.9088968291000015
  0
ARC
  5
333
  8
0
  6
CONTINUOUS
 62
     7
 10
607.1714616527998487
 20
471.2056191437999928
 30
0.0
 40
250.0
 50
296.5196745995000924
 51
320.623182543300004
  0
ARC
  5
334
  8
0
  6
CONTINUOUS
 62
     7
 10
607.1714616527998487
 20
471.2056191437999928
 30
0.0
 40
250.0
 50
322.2339603138000257
 51
346.3374682575999941
  0
ARC
  5
335
  8
0
  6
CONTINUOUS
 62
     7
 10
607.1714616527998487
 20
471.2056191437999928
 30
0.0
 40
250.0
 50
347.9482460280999021
 51
12.0517539719000002
  0
ARC
  5
336
  8
0
  6
CONTINUOUS
 62
     7
 10
607.1714616527998487
 20
471.2056191437999928
 30
0.0
 40
249.9999999999998863
 50
13.6625317424000006
 51
37.7660396862000027
  0
ARC
  5
337
  8
0
  6
CONTINUOUS
 62
     7
 10
607.1714616527998487
 20
471.2056191437999928
 30
0.0
 40
250.0
 50
39.3768174567000031
 51
63.4803254004999928
  0
DIMENSION
  5
338
  8
BORDER
  2
_D
 10
370.9100516716999891
 20
389.4710110899999904
 30
0.0
 11
874.6004255224000872
 21
562.1415831904997731
 31
0.0
 70
   131
  1
<>
 15
843.4328716339998664
 25
552.940227197600052
 35
0.0
 40
0.0
  0
DIMENSION
  5
346
  8
BORDER
  2
_D_1
 10
692.1714616527998487
 20
737.1810195350999493
 30
0.0
 11
606.1132021298000154
 21
737.1810195350999493
 31
0.0
 70
   128
  1
<>
 13
522.1714616527998487
 23
686.205619143799936
 33
0.0
 14
692.1714616527998487
 24
686.205619143799936
 34
0.0
  0
DIMENSION
  5
351
  8
BORDER
  2
_D_2
 10
738.364577600700045
 20
664.2081818717999795
 30
0.0
 11
775.2553507778999347
 21
685.7431462478000412
 31
0.0
 70
   131
  1
<>
 15
741.0832550244000458
 25
666.2499441170997443
 35
0.0
 40
0.0
  0
INSERT
  5
3AD
  8
BORDER
  2
SW_CENTERMARKSYMBOL_0
 10
410.9848405169000216
 20
328.6676954628999852
 30
0.0
  0
INSERT
  5
3B9
  8
BORDER
  2
SW_CENTERMARKSYMBOL_1
 10
841.6714616527998487
 20
486.2056191437998223
 30
0.0
  0
INSERT
  5
3C5
  8
BORDER
  2
SW_CENTERMARKSYMBOL_2
 10
763.3642389207999486
 20
646.7592187346998571
 30
0.0
  0
INSERT
  5
3D1
  8
BORDER
  2
SW_CENTERMARKSYMBOL_3
 10
841.6714616527998487
 20
456.2056191437998223
 30
0.0
  0
INSERT
  5
3DD
  8
BORDER
  2
SW_CENTERMARKSYMBOL_4
 10
824.5142327117998775
 20
381.889495916299893
 30
0.0
  0
INSERT
  5
3E9
  8
BORDER
  2
SW_CENTERMARKSYMBOL_5
 10
811.3630983082000512
 20
354.9256745272999751
 30
0.0
  0
INSERT
  5
3F5
  8
BORDER
  2
SW_CENTERMARKSYMBOL_6
 10
763.3642389207999486
 20
295.6520195529000148
 30
0.0
  0
INSERT
  5
401
  8
BORDER
  2
SW_CENTERMARKSYMBOL_7
 10
739.7239163125999539
 20
665.2290629944999409
 30
0.0
  0
INSERT
  5
40D
  8
BORDER
  2
SW_CENTERMARKSYMBOL_8
 10
824.5142327117998775
 20
560.5217423714000233
 30
0.0
  0
INSERT
  5
419
  8
BORDER
  2
SW_CENTERMARKSYMBOL_9
 10
811.3630983081000068
 20
587.4855637602998968
 30
0.0
  0
INSERT
  5
425
  8
BORDER
  2
SW_CENTERMARKSYMBOL_10
 10
739.7239163125999539
 20
277.1821752931999754
 30
0.0
  0
INSERT
  5
431
  8
BORDER
  2
SW_CENTERMARKSYMBOL_11
 10
387.1714616528000192
 20
491.2056191437999928
 30
0.0
  0
INSERT
  5
43D
  8
BORDER
  2
SW_CENTERMARKSYMBOL_12
 10
787.1714616527999624
 20
451.2056191437998791
 30
0.0
  0
INSERT
  5
449
  8
BORDER
  2
SW_CENTERMARKSYMBOL_13
 10
587.1714616527999624
 20
491.2056191437999928
 30
0.0
  0
INSERT
  5
455
  8
BORDER
  2
SW_CENTERMARKSYMBOL_14
 10
487.1714616528000192
 20
451.2056191437998791
 30
0.0
  0
INSERT
  5
461
  8
BORDER
  2
SW_CENTERMARKSYMBOL_15
 10
487.1714616528000192
 20
491.2056191437999928
 30
0.0
  0
INSERT
  5
46D
  8
BORDER
  2
SW_CENTERMARKSYMBOL_16
 10
387.1714616528000192
 20
451.2056191437998791
 30
0.0
  0
INSERT
  5
479
  8
BORDER
  2
SW_CENTERMARKSYMBOL_17
 10
787.1714616527999624
 20
491.2056191437999928
 30
0.0
  0
INSERT
  5
485
  8
BORDER
  2
SW_CENTERMARKSYMBOL_18
 10
687.1714616527999624
 20
451.2056191437998791
 30
0.0
  0
INSERT
  5
491
  8
BORDER
  2
SW_CENTERMARKSYMBOL_19
 10
687.1714616527999624
 20
491.2056191437999928
 30
0.0
  0
INSERT
  5
49D
  8
BORDER
  2
SW_CENTERMARKSYMBOL_20
 10
587.1714616527999624
 20
451.2056191437998791
 30
0.0
  0
INSERT
  5
4A9
  8
BORDER
  2
SW_CENTERMARKSYMBOL_21
 10
547.1714616527998487
 20
246.2056191437999928
 30
0.0
  0
INSERT
  5
4B5
  8
BORDER
  2
SW_CENTERMARKSYMBOL_22
 10
547.1714616527998487
 20
626.205619143799936
 30
0.0
  0
INSERT
  5
4C1
  8
BORDER
  2
SW_CENTERMARKSYMBOL_23
 10
667.1714616527998487
 20
696.2056191438000496
 30
0.0
  0
INSERT
  5
4CD
  8
BORDER
  2
SW_CENTERMARKSYMBOL_24
 10
547.1714616527998487
 20
696.2056191438000496
 30
0.0
  0
INSERT
  5
4D9
  8
BORDER
  2
SW_CENTERMARKSYMBOL_25
 10
667.1714616527998487
 20
246.2056191437999928
 30
0.0
  0
INSERT
  5
4E5
  8
BORDER
  2
SW_CENTERMARKSYMBOL_26
 10
547.1714616527998487
 20
316.2056191437999928
 30
0.0
  0
INSERT
  5
4F1
  8
BORDER
  2
SW_CENTERMARKSYMBOL_27
 10
667.1714616527998487
 20
316.2056191437999928
 30
0.0
  0
INSERT
  5
4FD
  8
BORDER
  2
SW_CENTERMARKSYMBOL_28
 10
667.1714616527998487
 20
626.205619143799936
 30
0.0
  0
INSERT
  5
632
  8
AM_5
  2
*S38
 10
0.0
 20
0.0
 30
0.0
  0
ENDSEC
  0
EOF
