  0
SECTION
  2
HEADER
  9
$ACADVER
  1
AC1015
  9
$ACADMAINTVER
 70
     6
  9
$DWGCODEPAGE
  3
ANSI_1252
  9
$INSBASE
 10
0.0
 20
0.0
 30
0.0
  9
$EXTMIN
 10
0.0
 20
0.0
 30
0.0
  9
$EXTMAX
 10
420.0
 20
297.0
 30
0.0
  9
$LIMMIN
 10
0.0
 20
0.0
  9
$LIMMAX
 10
420.0
 20
297.0
  9
$ORTHOMODE
 70
     0
  9
$REGENMODE
 70
     1
  9
$FILLMODE
 70
     1
  9
$QTEXTMODE
 70
     0
  9
$MIRRTEXT
 70
     1
  9
$LTSCALE
 40
1.0
  9
$ATTMODE
 70
     1
  9
$TEXTSIZE
 40
3.175
  9
$TRACEWID
 40
1.0
  9
$TEXTSTYLE
  7
Standard
  9
$CLAYER
  8
0
  9
$CELTYPE
  6
ByLayer
  9
$CECOLOR
 62
   256
  9
$CELTSCALE
 40
1.0
  9
$DISPSILH
 70
     0
  9
$DIMSCALE
 40
1.0
  9
$DIMASZ
 40
3.302
  9
$DIMEXO
 40
1.27
  9
$DIMDLI
 40
3.75
  9
$DIMRND
 40
0.0
  9
$DIMDLE
 40
0.0
  9
$DIMEXE
 40
3.175
  9
$DIMTP
 40
0.0
  9
$DIMTM
 40
0.0
  9
$DIMTXT
 40
3.175
  9
$DIMCEN
 40
2.5
  9
$DIMTSZ
 40
0.0
  9
$DIMTOL
 70
     0
  9
$DIMLIM
 70
     0
  9
$DIMTIH
 70
     1
  9
$DIMTOH
 70
     1
  9
$DIMSE1
 70
     0
  9
$DIMSE2
 70
     0
  9
$DIMTAD
 70
     0
  9
$DIMZIN
 70
     1
  9
$DIMBLK
  1

  9
$DIMASO
 70
     1
  9
$DIMSHO
 70
     1
  9
$DIMPOST
  1

  9
$DIMAPOST
  1

  9
$DIMALT
 70
     0
  9
$DIMALTD
 70
     3
  9
$DIMALTF
 40
0.0393700787
  9
$DIMLFAC
 40
1.0
  9
$DIMTOFL
 70
     1
  9
$DIMTVP
 40
0.0
  9
$DIMTIX
 70
     0
  9
$DIMSOXD
 70
     0
  9
$DIMSAH
 70
     0
  9
$DIMBLK1
  1

  9
$DIMBLK2
  1

  9
$DIMSTYLE
  2
ISO-25
  9
$DIMCLRD
 70
     0
  9
$DIMCLRE
 70
     0
  9
$DIMCLRT
 70
     0
  9
$DIMTFAC
 40
1.0
  9
$DIMGAP
 40
1.524
  9
$DIMJUST
 70
     0
  9
$DIMSD1
 70
     0
  9
$DIMSD2
 70
     0
  9
$DIMTOLJ
 70
     0
  9
$DIMTZIN
 70
     1
  9
$DIMALTZ
 70
     0
  9
$DIMALTTZ
 70
     0
  9
$DIMUPT
 70
     0
  9
$DIMDEC
 70
     2
  9
$DIMTDEC
 70
     2
  9
$DIMALTU
 70
     2
  9
$DIMALTTD
 70
     3
  9
$DIMTXSTY
  7
Standard
  9
$DIMAUNIT
 70
     0
  9
$DIMADEC
 70
     2
  9
$DIMALTRND
 40
0.0
  9
$DIMAZIN
 70
     0
  9
$DIMDSEP
 70
    44
  9
$DIMATFIT
 70
     3
  9
$DIMFRAC
 70
     0
  9
$DIMLDRBLK
  1

  9
$DIMLUNIT
 70
     2
  9
$DIMLWD
 70
    -2
  9
$DIMLWE
 70
    -2
  9
$DIMTMOVE
 70
     0
  9
$LUNITS
 70
     2
  9
$LUPREC
 70
     2
  9
$SKETCHINC
 40
1.0
  9
$FILLETRAD
 40
10.0
  9
$AUNITS
 70
     0
  9
$AUPREC
 70
     2
  9
$MENU
  1
.
  9
$ELEVATION
 40
0.0
  9
$PELEVATION
 40
0.0
  9
$THICKNESS
 40
0.0
  9
$LIMCHECK
 70
     0
  9
$CHAMFERA
 40
0.0
  9
$CHAMFERB
 40
0.0
  9
$CHAMFERC
 40
0.0
  9
$CHAMFERD
 40
0.0
  9
$SKPOLY
 70
     0
  9
$TDCREATE
 40
2459583.73843272
  9
$TDUCREATE
 40
2459583.446766053
  9
$TDUPDATE
 40
2459583.738437407
  9
$TDUUPDATE
 40
2459583.446770741
  9
$TDINDWG
 40
0.0000000116
  9
$TDUSRTIMER
 40
0.0000000116
  9
$USRTIMER
 70
     1
  9
$ANGBASE
 50
0.0
  9
$ANGDIR
 70
     0
  9
$PDMODE
 70
     0
  9
$PDSIZE
 40
-1.0
  9
$PLINEWID
 40
0.0
  9
$SPLFRAME
 70
     0
  9
$SPLINETYPE
 70
     6
  9
$SPLINESEGS
 70
     8
  9
$HANDSEED
  5
163
  9
$SURFTAB1
 70
     6
  9
$SURFTAB2
 70
     6
  9
$SURFTYPE
 70
     6
  9
$SURFU
 70
     6
  9
$SURFV
 70
     6
  9
$UCSBASE
  2

  9
$UCSNAME
  2

  9
$UCSORG
 10
0.0
 20
0.0
 30
0.0
  9
$UCSXDIR
 10
1.0
 20
0.0
 30
0.0
  9
$UCSYDIR
 10
0.0
 20
1.0
 30
0.0
  9
$UCSORTHOREF
  2

  9
$UCSORTHOVIEW
 70
     0
  9
$UCSORGTOP
 10
0.0
 20
0.0
 30
0.0
  9
$UCSORGBOTTOM
 10
0.0
 20
0.0
 30
0.0
  9
$UCSORGLEFT
 10
0.0
 20
0.0
 30
0.0
  9
$UCSORGRIGHT
 10
0.0
 20
0.0
 30
0.0
  9
$UCSORGFRONT
 10
0.0
 20
0.0
 30
0.0
  9
$UCSORGBACK
 10
0.0
 20
0.0
 30
0.0
  9
$PUCSBASE
  2

  9
$PUCSNAME
  2

  9
$PUCSORG
 10
0.0
 20
0.0
 30
0.0
  9
$PUCSXDIR
 10
1.0
 20
0.0
 30
0.0
  9
$PUCSYDIR
 10
0.0
 20
1.0
 30
0.0
  9
$PUCSORTHOREF
  2

  9
$PUCSORTHOVIEW
 70
     0
  9
$PUCSORGTOP
 10
0.0
 20
0.0
 30
0.0
  9
$PUCSORGBOTTOM
 10
0.0
 20
0.0
 30
0.0
  9
$PUCSORGLEFT
 10
0.0
 20
0.0
 30
0.0
  9
$PUCSORGRIGHT
 10
0.0
 20
0.0
 30
0.0
  9
$PUCSORGFRONT
 10
0.0
 20
0.0
 30
0.0
  9
$PUCSORGBACK
 10
0.0
 20
0.0
 30
0.0
  9
$USERI1
 70
     0
  9
$USERI2
 70
     0
  9
$USERI3
 70
     0
  9
$USERI4
 70
     0
  9
$USERI5
 70
     0
  9
$USERR1
 40
0.0
  9
$USERR2
 40
0.0
  9
$USERR3
 40
0.0
  9
$USERR4
 40
0.0
  9
$USERR5
 40
0.0
  9
$WORLDVIEW
 70
     1
  9
$SHADEDGE
 70
     3
  9
$SHADEDIF
 70
    70
  9
$TILEMODE
 70
     1
  9
$MAXACTVP
 70
    64
  9
$PINSBASE
 10
0.0
 20
0.0
 30
0.0
  9
$PLIMCHECK
 70
     0
  9
$PEXTMIN
 10
1.0000000000E+20
 20
1.0000000000E+20
 30
1.0000000000E+20
  9
$PEXTMAX
 10
-1.0000000000E+20
 20
-1.0000000000E+20
 30
-1.0000000000E+20
  9
$PLIMMIN
 10
0.0
 20
0.0
  9
$PLIMMAX
 10
420.0
 20
297.0
  9
$UNITMODE
 70
     0
  9
$VISRETAIN
 70
     1
  9
$PLINEGEN
 70
     0
  9
$PSLTSCALE
 70
     1
  9
$TREEDEPTH
 70
  3020
  9
$CMLSTYLE
  2
Standard
  9
$CMLJUST
 70
     0
  9
$CMLSCALE
 40
20.0
  9
$PROXYGRAPHICS
 70
     1
  9
$MEASUREMENT
 70
     1
  9
$CELWEIGHT
370
    -1
  9
$ENDCAPS
280
     0
  9
$JOINSTYLE
280
     0
  9
$LWDISPLAY
290
     1
  9
$INSUNITS
 70
     4
  9
$HYPERLINKBASE
  1

  9
$STYLESHEET
  1

  9
$XEDIT
290
     1
  9
$CEPSNTYPE
380
     0
  9
$PSTYLEMODE
290
     1
  9
$FINGERPRINTGUID
  2
{1948b9d7-c573-477f-bde0-3f69c2613565}
  9
$VERSIONGUID
  2
{FAEB1C32-E019-11D5-929B-00C0DF256EC4}
  9
$EXTNAMES
290
     1
  9
$PSVPSCALE
 40
0.0
  9
$OLESTARTUP
290
     0
  0
ENDSEC
  0
SECTION
  2
CLASSES
  0
CLASS
  1
ACDBDICTIONARYWDFLT
  2
AcDbDictionaryWithDefault
  3
ObjectDBX Classes
 90
        0
280
     0
281
     0
  0
CLASS
  1
VISUALSTYLE
  2
AcDbVisualStyle
  3
ObjectDBX Classes
 90
     4095
280
     0
281
     0
  0
CLASS
  1
MATERIAL
  2
AcDbMaterial
  3
ObjectDBX Classes
 90
     1153
280
     0
281
     0
  0
CLASS
  1
SCALE
  2
AcDbScale
  3
ObjectDBX Classes
 90
     1153
280
     0
281
     0
  0
CLASS
  1
TABLESTYLE
  2
AcDbTableStyle
  3
ObjectDBX Classes
 90
     4095
280
     0
281
     0
  0
CLASS
  1
MLEADERSTYLE
  2
AcDbMLeaderStyle
  3
ACDB_MLEADERSTYLE_CLASS
 90
     4095
280
     0
281
     0
  0
CLASS
  1
SUN
  2
AcDbSun
  3
SCENEOE
 90
     1153
280
     0
281
     0
  0
CLASS
  1
ACDBPLACEHOLDER
  2
AcDbPlaceHolder
  3
ObjectDBX Classes
 90
        0
280
     0
281
     0
  0
CLASS
  1
LAYOUT
  2
AcDbLayout
  3
ObjectDBX Classes
 90
        0
280
     0
281
     0
  0
ENDSEC
  0
SECTION
  2
TABLES
  0
TABLE
  2
VPORT
  5
8
330
0
100
AcDbSymbolTable
 70
     1
  0
VPORT
  5
29
330
8
100
AcDbSymbolTableRecord
100
AcDbViewportTableRecord
  2
*Active
 70
     0
 10
0.0
 20
0.0
 11
1.0
 21
1.0
 12
210.0
 22
148.5
 13
0.0
 23
0.0
 14
10.0
 24
10.0
 15
10.0
 25
10.0
 16
0.0
 26
0.0
 36
1.0
 17
0.0
 27
0.0
 37
0.0
 40
297.0
 41
1.4141414141
 42
50.0
 43
0.0
 44
0.0
 50
0.0
 51
0.0
 71
     0
 72
  2000
 73
     1
 74
     3
 75
     0
 76
     0
 77
     0
 78
     0
281
     0
 65
     1
110
0.0
120
0.0
130
0.0
111
1.0
121
0.0
131
0.0
112
0.0
122
1.0
132
0.0
 79
     0
146
0.0
  0
ENDTAB
  0
TABLE
  2
LTYPE
  5
5
330
0
100
AcDbSymbolTable
 70
     6
  0
LTYPE
  5
14
330
5
100
AcDbSymbolTableRecord
100
AcDbLinetypeTableRecord
  2
ByBlock
 70
     0
  3

 72
    65
 73
     0
 40
0.0
  0
LTYPE
  5
15
330
5
100
AcDbSymbolTableRecord
100
AcDbLinetypeTableRecord
  2
ByLayer
 70
     0
  3

 72
    65
 73
     0
 40
0.0
  0
LTYPE
  5
16
330
5
100
AcDbSymbolTableRecord
100
AcDbLinetypeTableRecord
  2
Continuous
 70
     0
  3
Solid line
 72
    65
 73
     0
 40
0.0
  0
LTYPE
  5
6E
330
5
100
AcDbSymbolTableRecord
100
AcDbLinetypeTableRecord
  2
HIDDEN
 70
     0
  3
Hidden __ __ __ __ __ __ __ __ __ __ __ __ __ __
 72
    65
 73
     2
 40
1.905
 49
1.27
 74
     0
 49
-0.635
 74
     0
  0
LTYPE
  5
6F
330
5
100
AcDbSymbolTableRecord
100
AcDbLinetypeTableRecord
  2
PHANTOM
 70
     0
  3
Phantom ______  __  __  ______  __  __  ______
 72
    65
 73
     6
 40
12.7
 49
6.35
 74
     0
 49
-1.27
 74
     0
 49
1.27
 74
     0
 49
-1.27
 74
     0
 49
1.27
 74
     0
 49
-1.27
 74
     0
  0
LTYPE
  5
70
330
5
100
AcDbSymbolTableRecord
100
AcDbLinetypeTableRecord
  2
CENTER
 70
     0
  3
Center ____ _ ____ _ ____ _ ____ _ ____ _ ____
 72
    65
 73
     4
 40
10.16
 49
6.35
 74
     0
 49
-1.27
 74
     0
 49
1.27
 74
     0
 49
-1.27
 74
     0
  0
LTYPE
  5
71
330
5
100
AcDbSymbolTableRecord
100
AcDbLinetypeTableRecord
  2
CENTERX2
 70
     0
  3
Center (2x) ________  __  ________  __  _____
 72
    65
 73
     4
 40
20.32
 49
12.7
 74
     0
 49
-2.54
 74
     0
 49
2.54
 74
     0
 49
-2.54
 74
     0
  0
LTYPE
  5
72
330
5
100
AcDbSymbolTableRecord
100
AcDbLinetypeTableRecord
  2
DOT2
 70
     0
  3
Dot (.5x) ........................................
 72
    65
 73
     2
 40
0.635
 49
0.0
 74
     0
 49
-0.635
 74
     0
  0
ENDTAB
  0
TABLE
  2
LAYER
  5
2
330
0
100
AcDbSymbolTable
 70
     6
  0
LAYER
  5
10
330
2
100
AcDbSymbolTableRecord
100
AcDbLayerTableRecord
  2
0
 70
     0
 62
     7
  6
Continuous
370
    -3
390
F
  0
LAYER
  5
73
330
2
100
AcDbSymbolTableRecord
100
AcDbLayerTableRecord
  2
BORDER
 70
     0
 62
     7
  6
Continuous
370
    -3
390
F
  0
LAYER
  5
74
330
2
100
AcDbSymbolTableRecord
100
AcDbLayerTableRecord
  2
CONSTRUCTION
 70
     0
 62
  -136
  6
Continuous
290
     0
370
    -3
390
F
  0
LAYER
  5
75
330
2
100
AcDbSymbolTableRecord
100
AcDbLayerTableRecord
  2
TRIM
 70
     0
 62
     7
  6
Continuous
370
    -3
390
F
  0
LAYER
  5
76
330
2
100
AcDbSymbolTableRecord
100
AcDbLayerTableRecord
  2
TEXT
 70
     0
 62
     7
  6
Continuous
370
    -3
390
F
  0
LAYER
  5
77
330
2
100
AcDbSymbolTableRecord
100
AcDbLayerTableRecord
  2
DIMENSIONS
 70
     0
 62
     5
  6
Continuous
370
    -3
390
F
  0
ENDTAB
  0
TABLE
  2
STYLE
  5
3
330
0
100
AcDbSymbolTable
 70
     5
  0
STYLE
  5
11
330
3
100
AcDbSymbolTableRecord
100
AcDbTextStyleTableRecord
  2
Standard
 70
     0
 40
0.0
 41
1.0
 50
0.0
 71
     0
 42
3.175
  3
txt
  4

  0
STYLE
  5
EC
330
3
100
AcDbSymbolTableRecord
100
AcDbTextStyleTableRecord
  2
SLDTEXTSTYLE0
 70
     0
 40
0.0
 41
0.75
 50
0.0
 71
     0
 42
3.175
  3
TXT
  4

  0
STYLE
  5
EE
330
3
100
AcDbSymbolTableRecord
100
AcDbTextStyleTableRecord
  2
SLDTEXTSTYLE1
 70
     0
 40
0.0
 41
0.605
 50
0.0
 71
     0
 42
3.175
  3
TXT
  4

  0
STYLE
  5
10D
330
3
100
AcDbSymbolTableRecord
100
AcDbTextStyleTableRecord
  2
SLDTEXTSTYLE2
 70
     0
 40
0.0
 41
0.605
 50
0.0
 71
     0
 42
3.175
  3
TXT
  4
bigfont
  0
STYLE
  5
12D
330
3
100
AcDbSymbolTableRecord
100
AcDbTextStyleTableRecord
  2
SLDTEXTSTYLE3
 70
     0
 40
0.0
 41
0.57
 50
0.0
 71
     0
 42
3.175
  3
TXT
  4

  0
ENDTAB
  0
TABLE
  2
VIEW
  5
6
330
0
100
AcDbSymbolTable
 70
     0
  0
ENDTAB
  0
TABLE
  2
UCS
  5
7
330
0
100
AcDbSymbolTable
 70
     0
  0
ENDTAB
  0
TABLE
  2
APPID
  5
9
330
0
100
AcDbSymbolTable
 70
     1
  0
APPID
  5
12
330
9
100
AcDbSymbolTableRecord
100
AcDbRegAppTableRecord
  2
ACAD
 70
     0
  0
ENDTAB
  0
TABLE
  2
DIMSTYLE
  5
A
330
0
100
AcDbSymbolTable
 70
     3
100
AcDbDimStyleTable
  0
DIMSTYLE
105
27
330
A
100
AcDbSymbolTableRecord
100
AcDbDimStyleTableRecord
  2
ISO-25
 70
     0
 41
2.5
 42
0.625
 43
3.75
 44
1.25
 73
     0
 74
     0
 77
     1
 78
     8
140
2.5
141
2.5
143
0.0393700787
147
0.625
171
     3
172
     1
178
     0
271
     2
272
     2
274
     3
278
    44
283
     0
284
     8
340
11
  0
DIMSTYLE
105
141
102
{ACAD_REACTORS
330
140
330
158
102
}
330
A
100
AcDbSymbolTableRecord
100
AcDbDimStyleTableRecord
  2
SLDDIMSTYLE0
 70
     0
 41
3.302
 44
0.0
 45
0.000000001
 78
     4
 79
     1
140
3.175
147
0.79375
173
     1
178
     0
271
     2
272
     2
276
     2
284
    12
340
EC
  0
DIMSTYLE
105
14D
102
{ACAD_REACTORS
330
14C
102
}
330
A
100
AcDbSymbolTableRecord
100
AcDbDimStyleTableRecord
  2
SLDDIMSTYLE1
 70
     0
 41
3.302
 44
0.0
 45
0.000000001
 78
     4
 79
     1
140
3.175
147
0.79375
172
     1
173
     1
178
     0
271
     2
272
     2
276
     2
284
    12
289
     0
340
EC
  0
ENDTAB
  0
TABLE
  2
BLOCK_RECORD
  5
1
330
0
100
AcDbSymbolTable
 70
     6
  0
BLOCK_RECORD
  5
1F
330
1
100
AcDbSymbolTableRecord
100
AcDbBlockTableRecord
  2
*Model_Space
340
22
  0
BLOCK_RECORD
  5
1B
330
1
100
AcDbSymbolTableRecord
100
AcDbBlockTableRecord
  2
*Paper_Space
340
1E
  0
BLOCK_RECORD
  5
23
330
1
100
AcDbSymbolTableRecord
100
AcDbBlockTableRecord
  2
*Paper_Space0
340
26
  0
BLOCK_RECORD
  5
109
330
1
100
AcDbSymbolTableRecord
100
AcDbBlockTableRecord
  2
SW_NOTE_0
340
0
102
{BLKREFS
331
111
102
}
  0
BLOCK_RECORD
  5
126
330
1
100
AcDbSymbolTableRecord
100
AcDbBlockTableRecord
  2
SW_NOTE_0_1
340
0
102
{BLKREFS
331
12B
102
}
  0
BLOCK_RECORD
  5
142
330
1
100
AcDbSymbolTableRecord
100
AcDbBlockTableRecord
  2
_D
340
0
  0
BLOCK_RECORD
  5
14E
330
1
100
AcDbSymbolTableRecord
100
AcDbBlockTableRecord
  2
_D_1
340
0
  0
BLOCK_RECORD
  5
159
330
1
100
AcDbSymbolTableRecord
100
AcDbBlockTableRecord
  2
_D_2
340
0
  0
ENDTAB
  0
ENDSEC
  0
SECTION
  2
BLOCKS
  0
BLOCK
  5
20
330
1F
100
AcDbEntity
  8
0
100
AcDbBlockBegin
  2
*Model_Space
 70
     0
 10
0.0
 20
0.0
 30
0.0
  3
*Model_Space
  1

  0
ENDBLK
  5
21
330
1F
100
AcDbEntity
  8
0
100
AcDbBlockEnd
  0
BLOCK
  5
1C
330
1B
100
AcDbEntity
 67
     1
  8
0
100
AcDbBlockBegin
  2
*Paper_Space
 70
     0
 10
0.0
 20
0.0
 30
0.0
  3
*Paper_Space
  1

  0
ENDBLK
  5
1D
330
1B
100
AcDbEntity
 67
     1
  8
0
100
AcDbBlockEnd
  0
BLOCK
  5
24
330
23
100
AcDbEntity
  8
0
100
AcDbBlockBegin
  2
*Paper_Space0
 70
     0
 10
0.0
 20
0.0
 30
0.0
  3
*Paper_Space0
  1

  0
ENDBLK
  5
25
330
23
100
AcDbEntity
  8
0
100
AcDbBlockEnd
  0
BLOCK
  5
10A
330
109
100
AcDbEntity
  8
0
100
AcDbBlockBegin
  2
SW_NOTE_0
 70
     0
 10
0.0
 20
0.0
 30
0.0
  3
SW_NOTE_0
  1

  0
MTEXT
  5
10C
330
109
100
AcDbEntity
  8
BORDER
 62
     0
100
AcDbMText
 10
0.0
 20
3.2226693494
 30
0.0
 40
2.5
 41
0.0
 71
     1
 72
     1
  1
NOTES:
  7
SLDTEXTSTYLE1
 73
     1
 44
1.0
  0
MTEXT
  5
10E
330
109
100
AcDbEntity
  8
BORDER
 62
     0
100
AcDbMText
 10
0.0
 20
-0.2873911208
 30
0.0
 40
2.5
 41
0.0
 71
     1
 72
     1
  1
1. Làm s\U+1EA1ch ba via, làm tù c\U+1EA1nh s\U+1EAFc sau khi gia công.
  7
SLDTEXTSTYLE2
 73
     1
 44
1.0
  0
MTEXT
  5
10F
330
109
100
AcDbEntity
  8
BORDER
 62
     0
100
AcDbMText
 10
0.0
 20
-3.7873912288
 30
0.0
 40
2.5
 41
0.0
 71
     1
 72
     1
  1
2. Kích th\U+01B0\U+1EDBc ch\U+01B0a rõ tuân theo b\U+1EA3n 3D
  7
SLDTEXTSTYLE2
 73
     1
 44
1.0
  0
MTEXT
  5
110
330
109
100
AcDbEntity
  8
BORDER
 62
     0
100
AcDbMText
 10
0.0
 20
-7.2873913368
 30
0.0
 40
2.5
 41
0.0
 71
     1
 72
     1
  1
3. Dung sai ch\U+01B0a rõ tuân theo ISO 2768-m
  7
SLDTEXTSTYLE2
 73
     1
 44
1.0
  0
ENDBLK
  5
10B
330
109
100
AcDbEntity
  8
0
100
AcDbBlockEnd
  0
BLOCK
  5
127
330
126
100
AcDbEntity
  8
0
100
AcDbBlockBegin
  2
SW_NOTE_0_1
 70
     0
 10
0.0
 20
0.0
 30
0.0
  3
SW_NOTE_0_1
  1

  0
MTEXT
  5
129
330
126
100
AcDbEntity
  8
BORDER
 62
     0
100
AcDbMText
 10
0.0
 20
2.3203219316
 30
0.0
 40
1.8
 41
0.0
 71
     1
 72
     1
  1
Projection Method:
  7
SLDTEXTSTYLE1
 73
     1
 44
1.0
  0
MTEXT
  5
12A
330
126
100
AcDbEntity
  8
BORDER
 62
     0
100
AcDbMText
 10
5.4
 20
-0.4796779686
 30
0.0
 40
1.8
 41
0.0
 71
     1
 72
     1
  1
THIRD ANGLE
  7
SLDTEXTSTYLE1
 73
     1
 44
1.0
  0
ENDBLK
  5
128
330
126
100
AcDbEntity
  8
0
100
AcDbBlockEnd
  0
BLOCK
  5
143
330
142
100
AcDbEntity
  8
0
100
AcDbBlockBegin
  2
_D
 70
     0
 10
0.0
 20
0.0
 30
0.0
  3
_D
  1

  0
SOLID
  5
145
330
142
100
AcDbEntity
  8
BORDER
100
AcDbTrace
 10
164.2848101266
 20
143.6864556962
 30
0.0
 11
167.5868101266
 21
143.1784556962
 31
0.0
 12
167.5868101266
 22
144.1944556962
 32
0.0
 13
167.5868101266
 23
144.1944556962
 33
0.0
  0
SOLID
  5
146
330
142
100
AcDbEntity
  8
BORDER
100
AcDbTrace
 10
238.2848101266
 20
143.6864556962
 30
0.0
 11
234.9828101266
 21
144.1944556962
 31
0.0
 12
234.9828101266
 22
143.1784556962
 32
0.0
 13
234.9828101266
 23
143.1784556962
 33
0.0
  0
LINE
  5
147
330
142
100
AcDbEntity
  8
BORDER
100
AcDbLine
 10
164.2848101266
 20
180.4164556962
 30
0.0
 11
164.2848101266
 21
140.5114556962
 31
0.0
  0
LINE
  5
148
330
142
100
AcDbEntity
  8
BORDER
100
AcDbLine
 10
238.2848101266
 20
162.4164556962
 30
0.0
 11
238.2848101266
 21
140.5114556962
 31
0.0
  0
LINE
  5
149
330
142
100
AcDbEntity
  8
BORDER
100
AcDbLine
 10
164.2848101266
 20
143.6864556962
 30
0.0
 11
200.3384576688
 21
143.6864556962
 31
0.0
  0
LINE
  5
14A
330
142
100
AcDbEntity
  8
BORDER
100
AcDbLine
 10
238.2848101266
 20
143.6864556962
 30
0.0
 11
210.8953324656
 21
143.6864556962
 31
0.0
  0
MTEXT
  5
14B
330
142
100
AcDbEntity
  8
BORDER
100
AcDbMText
 10
200.3384576688
 20
145.2590897935
 30
0.0
 40
3.175
 41
0.0
 71
     1
 72
     1
  1
74.00
  7
SLDTEXTSTYLE0
 73
     1
 44
1.0
  0
ENDBLK
  5
144
330
142
100
AcDbEntity
  8
0
100
AcDbBlockEnd
  0
BLOCK
  5
14F
330
14E
100
AcDbEntity
  8
0
100
AcDbBlockBegin
  2
_D_1
 70
     0
 10
0.0
 20
0.0
 30
0.0
  3
_D_1
  1

  0
SOLID
  5
151
330
14E
100
AcDbEntity
  8
BORDER
100
AcDbTrace
 10
247.2806262064
 20
163.6864556962
 30
0.0
 11
247.7886262064
 21
166.9884556962
 31
0.0
 12
246.7726262064
 22
166.9884556962
 32
0.0
 13
246.7726262064
 23
166.9884556962
 33
0.0
  0
SOLID
  5
152
330
14E
100
AcDbEntity
  8
BORDER
100
AcDbTrace
 10
247.2806262064
 20
159.6864556962
 30
0.0
 11
246.7726262064
 21
156.3844556962
 31
0.0
 12
247.7886262064
 22
156.3844556962
 32
0.0
 13
247.7886262064
 23
156.3844556962
 33
0.0
  0
LINE
  5
153
330
14E
100
AcDbEntity
  8
BORDER
100
AcDbLine
 10
239.5548101266
 20
163.6864556962
 30
0.0
 11
250.4556262064
 21
163.6864556962
 31
0.0
  0
LINE
  5
154
330
14E
100
AcDbEntity
  8
BORDER
100
AcDbLine
 10
230.5548101266
 20
159.6864556962
 30
0.0
 11
250.4556262064
 21
159.6864556962
 31
0.0
  0
LINE
  5
155
330
14E
100
AcDbEntity
  8
BORDER
100
AcDbLine
 10
247.2806262064
 20
163.6864556962
 30
0.0
 11
247.2806262064
 21
170.0364556962
 31
0.0
  0
LINE
  5
156
330
14E
100
AcDbEntity
  8
BORDER
100
AcDbLine
 10
247.2806262064
 20
159.6864556962
 30
0.0
 11
247.2806262064
 21
153.3364556962
 31
0.0
  0
MTEXT
  5
157
330
14E
100
AcDbEntity
  8
BORDER
100
AcDbMText
 10
243.1751746896
 20
163.3713368033
 30
0.0
 40
3.175
 41
0.0
 71
     1
 72
     1
  1
4.00
  7
SLDTEXTSTYLE0
 73
     1
 44
1.0
  0
ENDBLK
  5
150
330
14E
100
AcDbEntity
  8
0
100
AcDbBlockEnd
  0
BLOCK
  5
15A
330
159
100
AcDbEntity
  8
0
100
AcDbBlockBegin
  2
_D_2
 70
     0
 10
0.0
 20
0.0
 30
0.0
  3
_D_2
  1

  0
SOLID
  5
15C
330
159
100
AcDbEntity
  8
BORDER
100
AcDbTrace
 10
142.2848101266
 20
206.6864556962
 30
0.0
 11
141.7768101266
 21
203.3844556962
 31
0.0
 12
142.7928101266
 22
203.3844556962
 32
0.0
 13
142.7928101266
 23
203.3844556962
 33
0.0
  0
SOLID
  5
15D
330
159
100
AcDbEntity
  8
BORDER
100
AcDbTrace
 10
142.2848101266
 20
159.6864556962
 30
0.0
 11
142.7928101266
 21
162.9884556962
 31
0.0
 12
141.7768101266
 22
162.9884556962
 32
0.0
 13
141.7768101266
 23
162.9884556962
 33
0.0
  0
LINE
  5
15E
330
159
100
AcDbEntity
  8
BORDER
100
AcDbLine
 10
163.0148101266
 20
206.6864556962
 30
0.0
 11
139.1098101266
 21
206.6864556962
 31
0.0
  0
LINE
  5
15F
330
159
100
AcDbEntity
  8
BORDER
100
AcDbLine
 10
183.0148101266
 20
159.6864556962
 30
0.0
 11
139.1098101266
 21
159.6864556962
 31
0.0
  0
LINE
  5
160
330
159
100
AcDbEntity
  8
BORDER
100
AcDbLine
 10
142.2848101266
 20
206.6864556962
 30
0.0
 11
142.2848101266
 21
185.8690647934
 31
0.0
  0
LINE
  5
161
330
159
100
AcDbEntity
  8
BORDER
100
AcDbLine
 10
142.2848101266
 20
159.6864556962
 30
0.0
 11
142.2848101266
 21
180.8287521419
 31
0.0
  0
MTEXT
  5
162
330
159
100
AcDbEntity
  8
BORDER
100
AcDbMText
 10
137.0063727282
 20
184.9215425649
 30
0.0
 40
3.175
 41
0.0
 71
     1
 72
     1
  1
47.00
  7
SLDTEXTSTYLE0
 73
     1
 44
1.0
  0
ENDBLK
  5
15B
330
159
100
AcDbEntity
  8
0
100
AcDbBlockEnd
  0
ENDSEC
  0
SECTION
  2
ENTITIES
  0
HATCH
  5
78
330
1F
100
AcDbEntity
  8
TRIM
100
AcDbHatch
 10
0.0
 20
0.0
 30
0.0
210
0.0
220
0.0
230
1.0
  2
SOLID
 70
     1
 71
     0
 91
        1
 92
        0
 93
        6
 72
     1
 10
10.0
 20
291.9999999999999
 11
9.999999999999947
 21
296.9999999999999
 72
     1
 10
9.999999999999947
 20
296.9999999999999
 11
-0.0000000000000551
 21
296.9999999999999
 72
     1
 10
-0.0000000000000555
 20
296.9999999999999
 11
0.0000000000000015
 21
286.9999999999999
 72
     1
 10
0.0000000000000015
 20
286.9999999999999
 11
5.000000000000002
 21
286.9999999999999
 72
     1
 10
5.000000000000002
 20
286.9999999999999
 11
5.000000000000002
 21
291.9999999999999
 72
     1
 10
5.000000000000002
 20
291.9999999999999
 11
10.0
 21
291.9999999999999
 97
        0
 75
     0
 76
     1
 98
        1
 10
0.0
 20
0.0
  0
HATCH
  5
79
330
1F
100
AcDbEntity
  8
TRIM
100
AcDbHatch
 10
0.0
 20
0.0
 30
0.0
210
0.0
220
0.0
230
1.0
  2
SOLID
 70
     1
 71
     0
 91
        1
 92
        0
 93
        6
 72
     1
 10
4.999999999999996
 20
9.999999999999998
 11
-0.0000000000000027
 21
9.999999999999998
 72
     1
 10
-0.0000000000000029
 20
9.999999999999998
 11
0.0
 21
0.0
 72
     1
 10
0.0
 20
0.0
 11
9.999999999999998
 21
0.0
 72
     1
 10
9.999999999999998
 20
0.0
 11
9.999999999999998
 21
4.999999999999999
 72
     1
 10
9.999999999999998
 20
4.999999999999999
 11
4.999999999999999
 21
4.999999999999998
 72
     1
 10
4.999999999999999
 20
4.999999999999998
 11
4.999999999999996
 21
9.999999999999998
 97
        0
 75
     0
 76
     1
 98
        1
 10
0.0
 20
0.0
  0
HATCH
  5
7A
330
1F
100
AcDbEntity
  8
TRIM
100
AcDbHatch
 10
0.0
 20
0.0
 30
0.0
210
0.0
220
0.0
230
1.0
  2
SOLID
 70
     1
 71
     0
 91
        1
 92
        0
 93
        6
 72
     1
 10
420.0
 20
9.999999999998854
 11
415.0
 21
9.999999999998854
 72
     1
 10
415.0
 20
9.999999999998854
 11
415.0
 21
5.000000000000002
 72
     1
 10
415.0
 20
5.000000000000002
 11
410.0000000000011
 21
5.000000000000002
 72
     1
 10
410.0000000000011
 20
5.000000000000002
 11
410.0000000000011
 21
0.0
 72
     1
 10
410.0000000000011
 20
0.0
 11
420.0
 21
0.0
 72
     1
 10
420.0
 20
0.0
 11
420.0
 21
9.999999999998854
 97
        0
 75
     0
 76
     1
 98
        1
 10
0.0
 20
0.0
  0
HATCH
  5
7B
330
1F
100
AcDbEntity
  8
TRIM
100
AcDbHatch
 10
0.0
 20
0.0
 30
0.0
210
0.0
220
0.0
230
1.0
  2
SOLID
 70
     1
 71
     0
 91
        1
 92
        0
 93
        6
 72
     1
 10
414.9999999999999
 20
292.0000000000003
 11
414.9999999999999
 21
287.0000000000004
 72
     1
 10
414.9999999999999
 20
287.0000000000004
 11
420.0
 21
287.0000000000004
 72
     1
 10
420.0
 20
287.0000000000004
 11
420.0
 21
297.0
 72
     1
 10
420.0
 20
297.0
 11
409.9999999999999
 21
297.0
 72
     1
 10
409.9999999999999
 20
297.0
 11
409.9999999999999
 21
292.0000000000003
 72
     1
 10
409.9999999999999
 20
292.0000000000003
 11
414.9999999999999
 21
292.0000000000003
 97
        0
 75
     0
 76
     1
 98
        1
 10
0.0
 20
0.0
  0
LINE
  5
7C
330
1F
100
AcDbEntity
  8
BORDER
  6
Continuous
370
    35
100
AcDbLine
 10
415.0
 20
292.0
 30
0.0
 11
15.0
 21
292.0
 31
0.0
  0
LINE
  5
7D
330
1F
100
AcDbEntity
  8
BORDER
  6
Continuous
370
    35
100
AcDbLine
 10
15.0
 20
5.0
 30
0.0
 11
415.0
 21
5.0
 31
0.0
  0
LINE
  5
7E
330
1F
100
AcDbEntity
  8
BORDER
  6
Continuous
370
    70
100
AcDbLine
 10
410.0
 20
287.0
 30
0.0
 11
20.0
 21
287.0
 31
0.0
  0
LINE
  5
7F
330
1F
100
AcDbEntity
  8
BORDER
  6
Continuous
370
    70
100
AcDbLine
 10
20.0
 20
10.0000000002
 30
0.0
 11
410.0
 21
10.0000000002
 31
0.0
  0
LINE
  5
80
330
1F
100
AcDbEntity
  8
BORDER
  6
Continuous
370
    35
100
AcDbLine
 10
415.0
 20
5.0
 30
0.0
 11
415.0
 21
292.0
 31
0.0
  0
LINE
  5
81
330
1F
100
AcDbEntity
  8
BORDER
  6
Continuous
370
    70
100
AcDbLine
 10
410.0
 20
10.0000000002
 30
0.0
 11
410.0
 21
287.0
 31
0.0
  0
LINE
  5
82
330
1F
100
AcDbEntity
  8
BORDER
  6
Continuous
370
    35
100
AcDbLine
 10
410.0
 20
98.5
 30
0.0
 11
415.0
 21
98.5
 31
0.0
  0
LINE
  5
83
330
1F
100
AcDbEntity
  8
BORDER
370
    35
100
AcDbLine
 10
347.0583276542
 20
33.7139900562
 30
0.0
 11
290.0406501279
 21
33.7139900562
 31
0.0
  0
LINE
  5
84
330
1F
100
AcDbEntity
  8
BORDER
  6
Continuous
370
    35
100
AcDbLine
 10
110.0
 20
292.0
 30
0.0
 11
110.0
 21
287.0
 31
0.0
  0
LINE
  5
85
330
1F
100
AcDbEntity
  8
BORDER
  6
Continuous
370
    35
100
AcDbLine
 10
160.0
 20
287.0
 30
0.0
 11
160.0
 21
292.0
 31
0.0
  0
LINE
  5
86
330
1F
100
AcDbEntity
  8
BORDER
  6
Continuous
370
    35
100
AcDbLine
 10
260.0
 20
287.0
 30
0.0
 11
260.0
 21
292.0
 31
0.0
  0
LINE
  5
87
330
1F
100
AcDbEntity
  8
BORDER
  6
Continuous
370
    35
100
AcDbLine
 10
310.0
 20
292.0
 30
0.0
 11
310.0
 21
287.0
 31
0.0
  0
LINE
  5
88
330
1F
100
AcDbEntity
  8
BORDER
  6
Continuous
370
    35
100
AcDbLine
 10
360.0
 20
287.0
 30
0.0
 11
360.0
 21
292.0
 31
0.0
  0
LINE
  5
89
330
1F
100
AcDbEntity
  8
TRIM
100
AcDbLine
 10
0.0
 20
0.0
 30
0.0
 11
10.0
 21
0.0
 31
0.0
  0
LINE
  5
8A
330
1F
100
AcDbEntity
  8
TRIM
100
AcDbLine
 10
10.0
 20
0.0
 30
0.0
 11
10.0
 21
5.0
 31
0.0
  0
LINE
  5
8B
330
1F
100
AcDbEntity
  8
TRIM
100
AcDbLine
 10
10.0
 20
5.0
 30
0.0
 11
5.0
 21
5.0
 31
0.0
  0
LINE
  5
8C
330
1F
100
AcDbEntity
  8
BORDER
  6
Continuous
370
    35
100
AcDbLine
 10
415.0
 20
248.5
 30
0.0
 11
410.0
 21
248.5
 31
0.0
  0
LINE
  5
8D
330
1F
100
AcDbEntity
  8
BORDER
  6
Continuous
370
    35
100
AcDbLine
 10
410.0
 20
198.5
 30
0.0
 11
415.0
 21
198.5
 31
0.0
  0
LINE
  5
8E
330
1F
100
AcDbEntity
  8
TRIM
100
AcDbLine
 10
5.0
 20
5.0
 30
0.0
 11
5.0
 21
10.0
 31
0.0
  0
LINE
  5
8F
330
1F
100
AcDbEntity
  8
BORDER
  6
Continuous
370
    35
100
AcDbLine
 10
15.0
 20
48.5
 30
0.0
 11
20.0
 21
48.5
 31
0.0
  0
LINE
  5
90
330
1F
100
AcDbEntity
  8
BORDER
  6
Continuous
370
    35
100
AcDbLine
 10
20.0
 20
98.5
 30
0.0
 11
15.0
 21
98.5
 31
0.0
  0
LINE
  5
91
330
1F
100
AcDbEntity
  8
BORDER
  6
Continuous
370
    35
100
AcDbLine
 10
15.0
 20
292.0
 30
0.0
 11
15.0
 21
5.0
 31
0.0
  0
LINE
  5
92
330
1F
100
AcDbEntity
  8
BORDER
  6
Continuous
370
    70
100
AcDbLine
 10
20.0
 20
287.0
 30
0.0
 11
20.0
 21
10.0000000002
 31
0.0
  0
LINE
  5
93
330
1F
100
AcDbEntity
  8
BORDER
  6
Continuous
370
    35
100
AcDbLine
 10
19.9999997379
 20
198.5
 30
0.0
 11
15.0000002621
 21
198.5
 31
0.0
  0
LINE
  5
94
330
1F
100
AcDbEntity
  8
BORDER
  6
Continuous
370
    35
100
AcDbLine
 10
15.0
 20
248.5
 30
0.0
 11
20.0
 21
248.5
 31
0.0
  0
LINE
  5
95
330
1F
100
AcDbEntity
  8
BORDER
370
    35
100
AcDbLine
 10
378.5742814666
 20
52.1438084432
 30
0.0
 11
378.5742814666
 21
33.7139900562
 31
0.0
  0
LINE
  5
96
330
1F
100
AcDbEntity
  8
BORDER
  6
Continuous
370
    35
100
AcDbLine
 10
365.9856790564
 20
10.1438084432
 30
0.0
 11
365.9856790564
 21
33.7139900562
 31
0.0
  0
LINE
  5
97
330
1F
100
AcDbEntity
  8
BORDER
370
    35
100
AcDbLine
 10
410.004297838
 20
42.7139900562
 30
0.0
 11
347.0583276542
 21
42.7139900562
 31
0.0
  0
LINE
  5
98
330
1F
100
AcDbEntity
  8
BORDER
  6
Continuous
370
    35
100
AcDbLine
 10
60.0
 20
287.0
 30
0.0
 11
60.0
 21
292.0
 31
0.0
  0
LINE
  5
99
330
1F
100
AcDbEntity
  8
BORDER
  6
Continuous
370
    70
100
AcDbLine
 10
210.0
 20
292.0
 30
0.0
 11
210.0
 21
282.0
 31
0.0
  0
LINE
  5
9A
330
1F
100
AcDbEntity
  8
BORDER
370
    70
100
AcDbLine
 10
210.0
 20
5.0
 30
0.0
 11
210.0
 21
10.0000000002
 31
0.0
  0
LINE
  5
9B
330
1F
100
AcDbEntity
  8
BORDER
  6
Continuous
370
    70
100
AcDbLine
 10
15.0
 20
148.5
 30
0.0
 11
25.0
 21
148.5
 31
0.0
  0
LINE
  5
9C
330
1F
100
AcDbEntity
  8
BORDER
  6
Continuous
370
    70
100
AcDbLine
 10
415.0
 20
148.5
 30
0.0
 11
405.0
 21
148.5
 31
0.0
  0
LINE
  5
9D
330
1F
100
AcDbEntity
  8
CONSTRUCTION
100
AcDbLine
 10
0.0
 20
0.0
 30
0.0
 11
420.0
 21
0.0
 31
0.0
  0
LINE
  5
9E
330
1F
100
AcDbEntity
  8
CONSTRUCTION
100
AcDbLine
 10
420.0
 20
0.0
 30
0.0
 11
420.0
 21
297.0
 31
0.0
  0
LINE
  5
9F
330
1F
100
AcDbEntity
  8
BORDER
  6
Continuous
370
    35
100
AcDbLine
 10
60.0
 20
5.0
 30
0.0
 11
60.0
 21
10.0000000002
 31
0.0
  0
LINE
  5
A0
330
1F
100
AcDbEntity
  8
BORDER
  6
Continuous
370
    35
100
AcDbLine
 10
110.0
 20
10.0000000002
 30
0.0
 11
110.0
 21
5.0
 31
0.0
  0
LINE
  5
A1
330
1F
100
AcDbEntity
  8
BORDER
  6
Continuous
370
    35
100
AcDbLine
 10
160.0
 20
5.0
 30
0.0
 11
160.0
 21
10.0000000002
 31
0.0
  0
LINE
  5
A2
330
1F
100
AcDbEntity
  8
BORDER
  6
Continuous
370
    35
100
AcDbLine
 10
260.0
 20
5.0
 30
0.0
 11
260.0
 21
10.0000000002
 31
0.0
  0
LINE
  5
A3
330
1F
100
AcDbEntity
  8
BORDER
370
    35
100
AcDbLine
 10
347.0583276542
 20
24.7139900562
 30
0.0
 11
320.0406501279
 21
24.7139900562
 31
0.0
  0
LINE
  5
A4
330
1F
100
AcDbEntity
  8
BORDER
  6
Continuous
370
    35
100
AcDbLine
 10
398.204297838
 20
10.1438084432
 30
0.0
 11
398.204297838
 21
24.7139900562
 31
0.0
  0
LINE
  5
A5
330
1F
100
AcDbEntity
  8
BORDER
  6
Continuous
370
    35
100
AcDbLine
 10
410.004297838
 20
24.7139900562
 30
0.0
 11
347.0583276542
 21
24.7139900562
 31
0.0
  0
LINE
  5
A6
330
1F
100
AcDbEntity
  8
CONSTRUCTION
100
AcDbLine
 10
398.2
 20
24.0000000002
 30
0.0
 11
410.0
 21
9.5000000002
 31
0.0
  0
LINE
  5
A7
330
1F
100
AcDbEntity
  8
BORDER
  6
Continuous
370
    35
100
AcDbLine
 10
383.204297838
 20
10.1438084432
 30
0.0
 11
383.204297838
 21
24.7139900562
 31
0.0
  0
LINE
  5
A8
330
1F
100
AcDbEntity
  8
BORDER
100
AcDbLine
 10
298.7189559448
 20
15.009267853
 30
0.0
 11
310.7326990151
 21
15.009267853
 31
0.0
  0
LINE
  5
A9
330
1F
100
AcDbEntity
  8
BORDER
370
    70
100
AcDbLine
 10
290.0406501279
 20
52.1438084432
 30
0.0
 11
410.0406501279
 21
52.1438084432
 31
0.0
  0
LINE
  5
AA
330
1F
100
AcDbEntity
  8
BORDER
  6
Continuous
370
    70
100
AcDbLine
 10
290.0406501279
 20
52.1438084432
 30
0.0
 11
290.0406501279
 21
10.1438084432
 31
0.0
  0
LINE
  5
AB
330
1F
100
AcDbEntity
  8
BORDER
370
    35
100
AcDbLine
 10
347.0583276542
 20
52.1438084432
 30
0.0
 11
347.0583276542
 21
10.1438084432
 31
0.0
  0
LINE
  5
AC
330
1F
100
AcDbEntity
  8
BORDER
  6
Continuous
370
    35
100
AcDbLine
 10
305.1601970151
 20
16.259267853
 30
0.0
 11
305.1601970151
 21
13.759267853
 31
0.0
  0
LINE
  5
AD
330
1F
100
AcDbEntity
  8
BORDER
  6
Continuous
370
    35
100
AcDbLine
 10
305.1601970151
 20
13.759267853
 30
0.0
 11
310.1601970151
 21
12.509267853
 31
0.0
  0
LINE
  5
AE
330
1F
100
AcDbEntity
  8
BORDER
  6
Continuous
370
    35
100
AcDbLine
 10
310.1601970151
 20
12.509267853
 30
0.0
 11
310.1601970151
 21
17.509267853
 31
0.0
  0
LINE
  5
AF
330
1F
100
AcDbEntity
  8
BORDER
  6
Continuous
370
    35
100
AcDbLine
 10
310.1601970151
 20
17.509267853
 30
0.0
 11
305.1601970151
 21
16.259267853
 31
0.0
  0
LINE
  5
B0
330
1F
100
AcDbEntity
  8
BORDER
370
    35
100
AcDbLine
 10
410.0902352791
 20
33.7139900562
 30
0.0
 11
347.0583276542
 21
33.7139900562
 31
0.0
  0
LINE
  5
B1
330
1F
100
AcDbEntity
  8
CONSTRUCTION
100
AcDbLine
 10
210.0
 20
297.0
 30
0.0
 11
210.0
 21
292.0
 31
0.0
  0
LINE
  5
B2
330
1F
100
AcDbEntity
  8
BORDER
370
    35
100
AcDbLine
 10
320.0406501279
 20
24.7139900562
 30
0.0
 11
290.004297838
 21
24.7139900562
 31
0.0
  0
LINE
  5
B3
330
1F
100
AcDbEntity
  8
BORDER
100
AcDbLine
 10
302.2601970151
 20
18.186456103
 30
0.0
 11
302.2601970151
 21
11.7327924702
 31
0.0
  0
LINE
  5
B4
330
1F
100
AcDbEntity
  8
BORDER
370
    35
100
AcDbLine
 10
320.0406501279
 20
24.7139900562
 30
0.0
 11
320.0406501279
 21
10.1438084432
 31
0.0
  0
LINE
  5
B5
330
1F
100
AcDbEntity
  8
TRIM
100
AcDbLine
 10
5.0
 20
10.0
 30
0.0
 11
0.0
 21
10.0
 31
0.0
  0
LINE
  5
B6
330
1F
100
AcDbEntity
  8
TRIM
100
AcDbLine
 10
0.0
 20
10.0
 30
0.0
 11
0.0
 21
0.0
 31
0.0
  0
LINE
  5
B7
330
1F
100
AcDbEntity
  8
TRIM
100
AcDbLine
 10
0.0
 20
297.0
 30
0.0
 11
0.0
 21
287.0
 31
0.0
  0
LINE
  5
B8
330
1F
100
AcDbEntity
  8
TRIM
100
AcDbLine
 10
0.0
 20
287.0
 30
0.0
 11
5.0
 21
287.0
 31
0.0
  0
LINE
  5
B9
330
1F
100
AcDbEntity
  8
TRIM
100
AcDbLine
 10
5.0
 20
287.0
 30
0.0
 11
5.0
 21
292.0
 31
0.0
  0
LINE
  5
BA
330
1F
100
AcDbEntity
  8
TRIM
100
AcDbLine
 10
5.0
 20
292.0
 30
0.0
 11
10.0
 21
292.0
 31
0.0
  0
LINE
  5
BB
330
1F
100
AcDbEntity
  8
CONSTRUCTION
100
AcDbLine
 10
17.5
 20
248.5
 30
0.0
 11
17.5
 21
273.5
 31
0.0
  0
LINE
  5
BC
330
1F
100
AcDbEntity
  8
TRIM
100
AcDbLine
 10
10.0
 20
292.0
 30
0.0
 11
10.0
 21
297.0
 31
0.0
  0
LINE
  5
BD
330
1F
100
AcDbEntity
  8
TRIM
100
AcDbLine
 10
10.0
 20
297.0
 30
0.0
 11
0.0
 21
297.0
 31
0.0
  0
LINE
  5
BE
330
1F
100
AcDbEntity
  8
TRIM
100
AcDbLine
 10
420.0
 20
297.0
 30
0.0
 11
410.0
 21
297.0
 31
0.0
  0
LINE
  5
BF
330
1F
100
AcDbEntity
  8
TRIM
100
AcDbLine
 10
410.0
 20
297.0
 30
0.0
 11
410.0
 21
292.0
 31
0.0
  0
LINE
  5
C0
330
1F
100
AcDbEntity
  8
CONSTRUCTION
100
AcDbLine
 10
210.0
 20
5.0
 30
0.0
 11
210.0
 21
0.0
 31
0.0
  0
LINE
  5
C1
330
1F
100
AcDbEntity
  8
BORDER
  6
Continuous
370
    35
100
AcDbLine
 10
360.0
 20
5.0
 30
0.0
 11
360.0
 21
10.0000000002
 31
0.0
  0
LINE
  5
C2
330
1F
100
AcDbEntity
  8
BORDER
  6
Continuous
370
    35
100
AcDbLine
 10
310.0
 20
10.0000000002
 30
0.0
 11
310.0
 21
5.0
 31
0.0
  0
LINE
  5
C3
330
1F
100
AcDbEntity
  8
CONSTRUCTION
100
AcDbLine
 10
17.5
 20
98.5
 30
0.0
 11
17.5
 21
148.5
 31
0.0
  0
LINE
  5
C4
330
1F
100
AcDbEntity
  8
CONSTRUCTION
100
AcDbLine
 10
17.5
 20
98.5
 30
0.0
 11
17.5
 21
48.5
 31
0.0
  0
LINE
  5
C5
330
1F
100
AcDbEntity
  8
CONSTRUCTION
100
AcDbLine
 10
17.5
 20
48.5
 30
0.0
 11
17.5
 21
23.5
 31
0.0
  0
LINE
  5
C6
330
1F
100
AcDbEntity
  8
CONSTRUCTION
100
AcDbLine
 10
420.0
 20
297.0
 30
0.0
 11
0.0
 21
297.0
 31
0.0
  0
LINE
  5
C7
330
1F
100
AcDbEntity
  8
CONSTRUCTION
100
AcDbLine
 10
160.0
 20
7.0000000001
 30
0.0
 11
210.0
 21
7.0000000001
 31
0.0
  0
LINE
  5
C8
330
1F
100
AcDbEntity
  8
CONSTRUCTION
100
AcDbLine
 10
160.0
 20
7.0000000001
 30
0.0
 11
110.0
 21
7.0000000001
 31
0.0
  0
LINE
  5
C9
330
1F
100
AcDbEntity
  8
CONSTRUCTION
100
AcDbLine
 10
210.0
 20
7.0000000001
 30
0.0
 11
260.0
 21
7.0000000001
 31
0.0
  0
LINE
  5
CA
330
1F
100
AcDbEntity
  8
CONSTRUCTION
100
AcDbLine
 10
260.0
 20
7.0000000001
 30
0.0
 11
310.0
 21
7.0000000001
 31
0.0
  0
LINE
  5
CB
330
1F
100
AcDbEntity
  8
CONSTRUCTION
100
AcDbLine
 10
110.0
 20
7.0000000001
 30
0.0
 11
60.0
 21
7.0000000001
 31
0.0
  0
LINE
  5
CC
330
1F
100
AcDbEntity
  8
CONSTRUCTION
100
AcDbLine
 10
60.0
 20
7.0000000001
 30
0.0
 11
35.0
 21
7.0000000001
 31
0.0
  0
LINE
  5
CD
330
1F
100
AcDbEntity
  8
CONSTRUCTION
100
AcDbLine
 10
160.0
 20
289.0
 30
0.0
 11
210.0
 21
289.0
 31
0.0
  0
LINE
  5
CE
330
1F
100
AcDbEntity
  8
CONSTRUCTION
100
AcDbLine
 10
0.0
 20
297.0
 30
0.0
 11
0.0
 21
0.0
 31
0.0
  0
LINE
  5
CF
330
1F
100
AcDbEntity
  8
TRIM
100
AcDbLine
 10
410.0
 20
292.0
 30
0.0
 11
415.0
 21
292.0
 31
0.0
  0
LINE
  5
D0
330
1F
100
AcDbEntity
  8
TRIM
100
AcDbLine
 10
415.0
 20
287.0
 30
0.0
 11
420.0
 21
287.0
 31
0.0
  0
LINE
  5
D1
330
1F
100
AcDbEntity
  8
TRIM
100
AcDbLine
 10
420.0
 20
287.0
 30
0.0
 11
420.0
 21
297.0
 31
0.0
  0
LINE
  5
D2
330
1F
100
AcDbEntity
  8
CONSTRUCTION
100
AcDbLine
 10
310.0
 20
7.0000000001
 30
0.0
 11
360.0
 21
7.0000000001
 31
0.0
  0
LINE
  5
D3
330
1F
100
AcDbEntity
  8
CONSTRUCTION
100
AcDbLine
 10
360.0
 20
7.0000000001
 30
0.0
 11
385.0
 21
7.0000000001
 31
0.0
  0
LINE
  5
D4
330
1F
100
AcDbEntity
  8
CONSTRUCTION
100
AcDbLine
 10
17.5
 20
148.5
 30
0.0
 11
17.5
 21
198.5
 31
0.0
  0
LINE
  5
D5
330
1F
100
AcDbEntity
  8
CONSTRUCTION
100
AcDbLine
 10
17.5
 20
198.5
 30
0.0
 11
17.5
 21
248.5
 31
0.0
  0
LINE
  5
D6
330
1F
100
AcDbEntity
  8
TRIM
100
AcDbLine
 10
415.0
 20
292.0
 30
0.0
 11
415.0
 21
287.0
 31
0.0
  0
LINE
  5
D7
330
1F
100
AcDbEntity
  8
TRIM
100
AcDbLine
 10
410.0
 20
0.0
 30
0.0
 11
410.0
 21
5.0
 31
0.0
  0
LINE
  5
D8
330
1F
100
AcDbEntity
  8
TRIM
100
AcDbLine
 10
410.0
 20
5.0
 30
0.0
 11
415.0
 21
5.0
 31
0.0
  0
LINE
  5
D9
330
1F
100
AcDbEntity
  8
TRIM
100
AcDbLine
 10
415.0
 20
5.0
 30
0.0
 11
415.0
 21
10.0
 31
0.0
  0
LINE
  5
DA
330
1F
100
AcDbEntity
  8
TRIM
100
AcDbLine
 10
415.0
 20
10.0
 30
0.0
 11
420.0
 21
10.0
 31
0.0
  0
LINE
  5
DB
330
1F
100
AcDbEntity
  8
CONSTRUCTION
100
AcDbLine
 10
160.0
 20
289.0
 30
0.0
 11
110.0
 21
289.0
 31
0.0
  0
LINE
  5
DC
330
1F
100
AcDbEntity
  8
TRIM
100
AcDbLine
 10
420.0
 20
10.0
 30
0.0
 11
420.0
 21
0.0
 31
0.0
  0
LINE
  5
DD
330
1F
100
AcDbEntity
  8
TRIM
100
AcDbLine
 10
410.0
 20
0.0
 30
0.0
 11
420.0
 21
0.0
 31
0.0
  0
LINE
  5
DE
330
1F
100
AcDbEntity
  8
CONSTRUCTION
100
AcDbLine
 10
110.0
 20
289.0
 30
0.0
 11
60.0
 21
289.0
 31
0.0
  0
LINE
  5
DF
330
1F
100
AcDbEntity
  8
CONSTRUCTION
100
AcDbLine
 10
60.0
 20
289.0
 30
0.0
 11
35.0
 21
289.0
 31
0.0
  0
LINE
  5
E0
330
1F
100
AcDbEntity
  8
CONSTRUCTION
100
AcDbLine
 10
412.5
 20
23.5
 30
0.0
 11
412.5
 21
48.5
 31
0.0
  0
LINE
  5
E1
330
1F
100
AcDbEntity
  8
CONSTRUCTION
100
AcDbLine
 10
210.0
 20
289.0
 30
0.0
 11
260.0
 21
289.0
 31
0.0
  0
LINE
  5
E2
330
1F
100
AcDbEntity
  8
CONSTRUCTION
100
AcDbLine
 10
260.0
 20
289.0
 30
0.0
 11
310.0
 21
289.0
 31
0.0
  0
LINE
  5
E3
330
1F
100
AcDbEntity
  8
CONSTRUCTION
100
AcDbLine
 10
310.0
 20
289.0
 30
0.0
 11
360.0
 21
289.0
 31
0.0
  0
LINE
  5
E4
330
1F
100
AcDbEntity
  8
CONSTRUCTION
100
AcDbLine
 10
360.0
 20
289.0
 30
0.0
 11
385.0
 21
289.0
 31
0.0
  0
LINE
  5
E5
330
1F
100
AcDbEntity
  8
CONSTRUCTION
100
AcDbLine
 10
412.5
 20
48.5
 30
0.0
 11
412.5
 21
98.5
 31
0.0
  0
LINE
  5
E6
330
1F
100
AcDbEntity
  8
CONSTRUCTION
100
AcDbLine
 10
412.5
 20
98.5
 30
0.0
 11
412.5
 21
148.5
 31
0.0
  0
LINE
  5
E7
330
1F
100
AcDbEntity
  8
CONSTRUCTION
100
AcDbLine
 10
412.5
 20
148.5
 30
0.0
 11
412.5
 21
198.5
 31
0.0
  0
LINE
  5
E8
330
1F
100
AcDbEntity
  8
CONSTRUCTION
100
AcDbLine
 10
412.5
 20
198.5
 30
0.0
 11
412.5
 21
248.5
 31
0.0
  0
LINE
  5
E9
330
1F
100
AcDbEntity
  8
CONSTRUCTION
100
AcDbLine
 10
412.5
 20
248.5
 30
0.0
 11
412.5
 21
273.5
 31
0.0
  0
CIRCLE
  5
EA
330
1F
100
AcDbEntity
  8
BORDER
  6
Continuous
370
    35
100
AcDbCircle
 10
302.2601970151
 20
15.009267853
 30
0.0
 40
1.250000000000119
  0
CIRCLE
  5
EB
330
1F
100
AcDbEntity
  8
BORDER
  6
Continuous
370
    35
100
AcDbCircle
 10
302.2601970151
 20
15.009267853
 30
0.0
 40
2.499999999999942
  0
MTEXT
  5
ED
330
1F
100
AcDbEntity
  8
BORDER
100
AcDbMText
 10
290.5223783392
 20
29.3736907216
 30
0.0
 40
3.175
 41
0.0
 71
     1
 72
     1
  1
008_Motor_Holder_part2_SR
  7
SLDTEXTSTYLE0
 73
     1
 44
1.0
  0
MTEXT
  5
EF
330
1F
100
AcDbEntity
  8
BORDER
 62
     7
100
AcDbMText
 10
17.5215711063
 20
75.7420051
 30
0.0
 40
3.5
 41
0.0
 71
     2
 72
     1
  1
E
  7
SLDTEXTSTYLE1
 73
     1
 44
1.0
  0
MTEXT
  5
F0
330
1F
100
AcDbEntity
  8
BORDER
 62
     7
100
AcDbMText
 10
85.0000000177
 20
291.2420052165
 30
0.0
 40
3.5
 41
0.0
 71
     2
 72
     1
  1
2
  7
SLDTEXTSTYLE1
 73
     1
 44
1.0
  0
MTEXT
  5
F1
330
1F
100
AcDbEntity
  8
BORDER
 62
     7
100
AcDbMText
 10
17.4990885248
 20
125.7420051
 30
0.0
 40
3.5
 41
0.0
 71
     2
 72
     1
  1
D
  7
SLDTEXTSTYLE1
 73
     1
 44
1.0
  0
MTEXT
  5
F2
330
1F
100
AcDbEntity
  8
BORDER
 62
     7
100
AcDbMText
 10
17.4866318526
 20
175.7420051
 30
0.0
 40
3.5
 41
0.0
 71
     2
 72
     1
  1
C
  7
SLDTEXTSTYLE1
 73
     1
 44
1.0
  0
MTEXT
  5
F3
330
1F
100
AcDbEntity
  8
BORDER
 62
     7
100
AcDbMText
 10
17.5197482752
 20
225.7420051
 30
0.0
 40
3.5
 41
0.0
 71
     2
 72
     1
  1
B
  7
SLDTEXTSTYLE1
 73
     1
 44
1.0
  0
MTEXT
  5
F4
330
1F
100
AcDbEntity
  8
BORDER
 62
     7
100
AcDbMText
 10
17.4811631152
 20
275.7420051
 30
0.0
 40
3.5
 41
0.0
 71
     2
 72
     1
  1
A
  7
SLDTEXTSTYLE1
 73
     1
 44
1.0
  0
MTEXT
  5
F5
330
1F
100
AcDbEntity
  8
BORDER
 62
     7
100
AcDbMText
 10
17.4921006672
 20
25.7420051
 30
0.0
 40
3.5
 41
0.0
 71
     2
 72
     1
  1
F
  7
SLDTEXTSTYLE1
 73
     1
 44
1.0
  0
MTEXT
  5
F6
330
1F
100
AcDbEntity
  8
BORDER
 62
     7
100
AcDbMText
 10
412.5197482752
 20
225.7420051
 30
0.0
 40
3.5
 41
0.0
 71
     2
 72
     1
  1
B
  7
SLDTEXTSTYLE1
 73
     1
 44
1.0
  0
MTEXT
  5
F7
330
1F
100
AcDbEntity
  8
BORDER
 62
     7
100
AcDbMText
 10
412.4990885248
 20
125.7420051
 30
0.0
 40
3.5
 41
0.0
 71
     2
 72
     1
  1
D
  7
SLDTEXTSTYLE1
 73
     1
 44
1.0
  0
MTEXT
  5
F8
330
1F
100
AcDbEntity
  8
BORDER
 62
     7
100
AcDbMText
 10
412.4811631152
 20
275.7420051
 30
0.0
 40
3.5
 41
0.0
 71
     2
 72
     1
  1
A
  7
SLDTEXTSTYLE1
 73
     1
 44
1.0
  0
MTEXT
  5
F9
330
1F
100
AcDbEntity
  8
BORDER
 62
     7
100
AcDbMText
 10
412.4866318526
 20
175.7420051
 30
0.0
 40
3.5
 41
0.0
 71
     2
 72
     1
  1
C
  7
SLDTEXTSTYLE1
 73
     1
 44
1.0
  0
MTEXT
  5
FA
330
1F
100
AcDbEntity
  8
BORDER
 62
     7
100
AcDbMText
 10
135.0021266928
 20
291.2420052165
 30
0.0
 40
3.5
 41
0.0
 71
     2
 72
     1
  1
3
  7
SLDTEXTSTYLE1
 73
     1
 44
1.0
  0
MTEXT
  5
FB
330
1F
100
AcDbEntity
  8
BORDER
 62
     7
100
AcDbMText
 10
184.9939236036
 20
291.2420052165
 30
0.0
 40
3.5
 41
0.0
 71
     2
 72
     1
  1
4
  7
SLDTEXTSTYLE1
 73
     1
 44
1.0
  0
MTEXT
  5
FC
330
1F
100
AcDbEntity
  8
BORDER
 62
     7
100
AcDbMText
 10
335.0036457963
 20
291.2420052165
 30
0.0
 40
3.5
 41
0.0
 71
     2
 72
     1
  1
7
  7
SLDTEXTSTYLE1
 73
     1
 44
1.0
  0
MTEXT
  5
FD
330
1F
100
AcDbEntity
  8
BORDER
 62
     7
100
AcDbMText
 10
235.0003038617
 20
291.2420052165
 30
0.0
 40
3.5
 41
0.0
 71
     2
 72
     1
  1
5
  7
SLDTEXTSTYLE1
 73
     1
 44
1.0
  0
MTEXT
  5
FE
330
1F
100
AcDbEntity
  8
BORDER
 62
     7
100
AcDbMText
 10
285.0006075893
 20
291.2420052165
 30
0.0
 40
3.5
 41
0.0
 71
     2
 72
     1
  1
6
  7
SLDTEXTSTYLE1
 73
     1
 44
1.0
  0
MTEXT
  5
FF
330
1F
100
AcDbEntity
  8
BORDER
 62
     7
100
AcDbMText
 10
385.0009114332
 20
291.2420052165
 30
0.0
 40
3.5
 41
0.0
 71
     2
 72
     1
  1
8
  7
SLDTEXTSTYLE1
 73
     1
 44
1.0
  0
MTEXT
  5
100
330
1F
100
AcDbEntity
  8
BORDER
 62
     7
100
AcDbMText
 10
35.0634982893
 20
291.2420052165
 30
0.0
 40
3.5
 41
0.0
 71
     2
 72
     1
  1
1
  7
SLDTEXTSTYLE1
 73
     1
 44
1.0
  0
MTEXT
  5
101
330
1F
100
AcDbEntity
  8
BORDER
 62
     7
100
AcDbMText
 10
285.0006075893
 20
9.2576469488
 30
0.0
 40
3.5
 41
0.0
 71
     2
 72
     1
  1
6
  7
SLDTEXTSTYLE1
 73
     1
 44
1.0
  0
MTEXT
  5
102
330
1F
100
AcDbEntity
  8
BORDER
 62
     7
100
AcDbMText
 10
85.0000000177
 20
9.2420052165
 30
0.0
 40
3.5
 41
0.0
 71
     2
 72
     1
  1
2
  7
SLDTEXTSTYLE1
 73
     1
 44
1.0
  0
MTEXT
  5
103
330
1F
100
AcDbEntity
  8
BORDER
 62
     7
100
AcDbMText
 10
35.0634982893
 20
9.2420052165
 30
0.0
 40
3.5
 41
0.0
 71
     2
 72
     1
  1
1
  7
SLDTEXTSTYLE1
 73
     1
 44
1.0
  0
MTEXT
  5
104
330
1F
100
AcDbEntity
  8
BORDER
 62
     7
100
AcDbMText
 10
235.0003038617
 20
9.268911095
 30
0.0
 40
3.5
 41
0.0
 71
     2
 72
     1
  1
5
  7
SLDTEXTSTYLE1
 73
     1
 44
1.0
  0
MTEXT
  5
105
330
1F
100
AcDbEntity
  8
BORDER
 62
     7
100
AcDbMText
 10
135.0021266928
 20
9.2751494099
 30
0.0
 40
3.5
 41
0.0
 71
     2
 72
     1
  1
3
  7
SLDTEXTSTYLE1
 73
     1
 44
1.0
  0
MTEXT
  5
106
330
1F
100
AcDbEntity
  8
BORDER
 62
     7
100
AcDbMText
 10
184.9939236036
 20
9.2474051373
 30
0.0
 40
3.5
 41
0.0
 71
     2
 72
     1
  1
4
  7
SLDTEXTSTYLE1
 73
     1
 44
1.0
  0
MTEXT
  5
107
330
1F
100
AcDbEntity
  8
BORDER
 62
     7
100
AcDbMText
 10
335.0036457963
 20
9.2464387396
 30
0.0
 40
3.5
 41
0.0
 71
     2
 72
     1
  1
7
  7
SLDTEXTSTYLE1
 73
     1
 44
1.0
  0
MTEXT
  5
108
330
1F
100
AcDbEntity
  8
BORDER
 62
     7
100
AcDbMText
 10
385.0009114332
 20
9.2464387396
 30
0.0
 40
3.5
 41
0.0
 71
     2
 72
     1
  1
8
  7
SLDTEXTSTYLE1
 73
     1
 44
1.0
  0
INSERT
  5
111
330
1F
100
AcDbEntity
  8
BORDER
100
AcDbBlockReference
  2
SW_NOTE_0
 10
288.9370233367
 20
70.7677553923
 30
0.0
  0
MTEXT
  5
112
330
1F
100
AcDbEntity
  8
BORDER
100
AcDbMText
 10
291.5105479778
 20
46.2533268305
 30
0.0
 40
1.8
 41
0.0
 71
     1
 72
     1
  1
Project:
  7
SLDTEXTSTYLE1
 73
     1
 44
1.0
  0
MTEXT
  5
113
330
1F
100
AcDbEntity
  8
BORDER
100
AcDbMText
 10
291.7382663044
 20
42.6533837364
 30
0.0
 40
2.5
 41
0.0
 71
     1
 72
     1
  1
SERVICE ROBOT
  7
SLDTEXTSTYLE0
 73
     1
 44
1.0
  0
MTEXT
  5
114
330
1F
100
AcDbEntity
  8
BORDER
100
AcDbMText
 10
291.4087341203
 20
32.3103880179
 30
0.0
 40
1.8
 41
0.0
 71
     1
 72
     1
  1
Description:
  7
SLDTEXTSTYLE1
 73
     1
 44
1.0
  0
MTEXT
  5
115
330
1F
100
AcDbEntity
  8
BORDER
100
AcDbMText
 10
348.1510503431
 20
30.2992483091
 30
0.0
 40
1.8520833333
 41
0.0
 71
     1
 72
     1
  1
Unit:
  7
SLDTEXTSTYLE1
 73
     1
 44
1.0
  0
MTEXT
  5
116
330
1F
100
AcDbEntity
  8
BORDER
100
AcDbMText
 10
356.0718789995
 20
30.9300470767
 30
0.0
 40
2.5
 41
0.0
 71
     1
 72
     1
  1
mm
  7
SLDTEXTSTYLE1
 73
     1
 44
1.0
  0
MTEXT
  5
117
330
1F
100
AcDbEntity
  8
BORDER
100
AcDbMText
 10
350.2095266337
 20
18.6234557943
 30
0.0
 40
2.5
 41
0.0
 71
     1
 72
     1
  1
SS400t4
  7
SLDTEXTSTYLE1
 73
     1
 44
1.0
  0
MTEXT
  5
118
330
1F
100
AcDbEntity
  8
BORDER
100
AcDbMText
 10
372.2314666389
 20
17.9591415459
 30
0.0
 40
2.5
 41
0.0
 71
     1
 72
     1
  1
04
  7
SLDTEXTSTYLE1
 73
     1
 44
1.0
  0
MTEXT
  5
119
330
1F
100
AcDbEntity
  8
BORDER
100
AcDbMText
 10
366.9887114362
 20
23.7705901391
 30
0.0
 40
1.8
 41
0.0
 71
     1
 72
     1
  1
Qty:
  7
SLDTEXTSTYLE1
 73
     1
 44
1.0
  0
MTEXT
  5
11A
330
1F
100
AcDbEntity
  8
BORDER
100
AcDbMText
 10
387.280524872
 20
30.9300470767
 30
0.0
 40
2.5
 41
0.0
 71
     1
 72
     1
  1
1:1
  7
SLDTEXTSTYLE1
 73
     1
 44
1.0
  0
MTEXT
  5
11B
330
1F
100
AcDbEntity
  8
BORDER
100
AcDbMText
 10
401.315897948
 20
18.3748486583
 30
0.0
 40
2.6458333333
 41
0.0
 71
     1
 72
     1
  1
0A
  7
SLDTEXTSTYLE1
 73
     1
 44
1.0
  0
MTEXT
  5
11C
330
1F
100
AcDbEntity
  8
BORDER
100
AcDbMText
 10
379.1535670218
 20
37.173857167
 30
0.0
 40
2.5
 41
0.0
 71
     1
 72
     1
  1
2021
  7
SLDTEXTSTYLE1
 73
     1
 44
1.0
  0
MTEXT
  5
11D
330
1F
100
AcDbEntity
  8
BORDER
100
AcDbMText
 10
348.1348922133
 20
37.173857167
 30
0.0
 40
2.5
 41
0.0
 71
     1
 72
     1
  1
Nguyen Van Tung
  7
SLDTEXTSTYLE1
 73
     1
 44
1.0
  0
MTEXT
  5
11E
330
1F
100
AcDbEntity
  8
BORDER
100
AcDbMText
 10
379.1535670218
 20
46.4868425294
 30
0.0
 40
2.5
 41
0.0
 71
     1
 72
     1
  1
2021
  7
SLDTEXTSTYLE1
 73
     1
 44
1.0
  0
MTEXT
  5
11F
330
1F
100
AcDbEntity
  8
BORDER
100
AcDbMText
 10
347.7590472172
 20
46.4868425294
 30
0.0
 40
2.5
 41
0.0
 71
     1
 72
     1
  1
Le Xuan Tung
  7
SLDTEXTSTYLE1
 73
     1
 44
1.0
  0
MTEXT
  5
120
330
1F
100
AcDbEntity
  8
BORDER
100
AcDbMText
 10
368.6768935793
 20
30.2992483091
 30
0.0
 40
1.8520833333
 41
0.0
 71
     1
 72
     1
  1
Drawing Scale:
  7
SLDTEXTSTYLE1
 73
     1
 44
1.0
  0
MTEXT
  5
121
330
1F
100
AcDbEntity
  8
BORDER
100
AcDbMText
 10
379.1535670218
 20
41.5663921216
 30
0.0
 40
1.8520833333
 41
0.0
 71
     1
 72
     1
  1
Checked/Approved Date:
  7
SLDTEXTSTYLE1
 73
     1
 44
1.0
  0
MTEXT
  5
122
330
1F
100
AcDbEntity
  8
BORDER
100
AcDbMText
 10
379.1535670218
 20
50.2108270299
 30
0.0
 40
1.8520833333
 41
0.0
 71
     1
 72
     1
  1
Drawn Date:
  7
SLDTEXTSTYLE1
 73
     1
 44
1.0
  0
MTEXT
  5
123
330
1F
100
AcDbEntity
  8
BORDER
100
AcDbMText
 10
347.7590472172
 20
50.148445048
 30
0.0
 40
1.8
 41
0.0
 71
     1
 72
     1
  1
Drawn by:
  7
SLDTEXTSTYLE1
 73
     1
 44
1.0
  0
MTEXT
  5
124
330
1F
100
AcDbEntity
  8
BORDER
100
AcDbMText
 10
334.2019195047
 20
18.155703325
 30
0.0
 40
5.0
 41
0.0
 71
     2
 72
     1
  1
A0
  7
SLDTEXTSTYLE0
 73
     1
 44
1.0
  0
MTEXT
  5
125
330
1F
100
AcDbEntity
  8
BORDER
100
AcDbMText
 10
327.7689049393
 20
23.9130744105
 30
0.0
 40
1.8
 41
0.0
 71
     2
 72
     1
  1
Sheet Size:
  7
SLDTEXTSTYLE1
 73
     1
 44
1.0
  0
INSERT
  5
12B
330
1F
100
AcDbEntity
  8
BORDER
100
AcDbBlockReference
  2
SW_NOTE_0_1
 10
291.5760125024
 20
21.5520930373
 30
0.0
  0
MTEXT
  5
12C
330
1F
100
AcDbEntity
  8
BORDER
100
AcDbMText
 10
347.9469697153
 20
41.5040101397
 30
0.0
 40
1.8
 41
0.0
 71
     1
 72
     1
  1
Checked/Approved by:
  7
SLDTEXTSTYLE1
 73
     1
 44
1.0
  0
MTEXT
  5
12E
330
1F
100
AcDbEntity
  8
BORDER
100
AcDbMText
 10
385.0419956413
 20
17.9591415459
 30
0.0
 40
2.5
 41
0.0
 71
     1
 72
     1
  1
1 of 1
  7
SLDTEXTSTYLE3
 73
     1
 44
1.0
  0
MTEXT
  5
12F
330
1F
100
AcDbEntity
  8
BORDER
100
AcDbMText
 10
348.1173613369
 20
23.7705901391
 30
0.0
 40
1.8
 41
0.0
 71
     1
 72
     1
  1
Material:
  7
SLDTEXTSTYLE1
 73
     1
 44
1.0
  0
MTEXT
  5
130
330
1F
100
AcDbEntity
  8
BORDER
100
AcDbMText
 10
398.8602093888
 20
23.7705901391
 30
0.0
 40
1.8
 41
0.0
 71
     1
 72
     1
  1
Revision:
  7
SLDTEXTSTYLE1
 73
     1
 44
1.0
  0
MTEXT
  5
131
330
1F
100
AcDbEntity
  8
BORDER
100
AcDbMText
 10
384.4516457766
 20
23.7705901391
 30
0.0
 40
1.8
 41
0.0
 71
     1
 72
     1
  1
Sheet:
  7
SLDTEXTSTYLE1
 73
     1
 44
1.0
  0
LINE
  5
132
330
1F
100
AcDbEntity
  8
0
  6
Continuous
 62
     7
370
    25
100
AcDbLine
 10
229.2848101266
 20
163.6864556962
 30
0.0
 11
229.2848101266
 21
159.6864556962
 31
0.0
  0
LINE
  5
133
330
1F
100
AcDbEntity
  8
0
  6
Continuous
 62
     7
370
    25
100
AcDbLine
 10
214.2848101266
 20
159.6864556962
 30
0.0
 11
229.2848101266
 21
159.6864556962
 31
0.0
  0
LINE
  5
134
330
1F
100
AcDbEntity
  8
0
  6
Continuous
 62
     7
370
    25
100
AcDbLine
 10
214.2848101266
 20
163.6864556962
 30
0.0
 11
214.2848101266
 21
159.6864556962
 31
0.0
  0
LINE
  5
135
330
1F
100
AcDbEntity
  8
0
  6
Continuous
 62
     7
370
    25
100
AcDbLine
 10
214.2848101266
 20
163.6864556962
 30
0.0
 11
199.2848101266
 21
163.6864556962
 31
0.0
  0
LINE
  5
136
330
1F
100
AcDbEntity
  8
0
  6
Continuous
 62
     7
370
    25
100
AcDbLine
 10
199.2848101266
 20
163.6864556962
 30
0.0
 11
199.2848101266
 21
159.6864556962
 31
0.0
  0
LINE
  5
137
330
1F
100
AcDbEntity
  8
0
  6
Continuous
 62
     7
370
    25
100
AcDbLine
 10
184.2848101266
 20
159.6864556962
 30
0.0
 11
199.2848101266
 21
159.6864556962
 31
0.0
  0
LINE
  5
138
330
1F
100
AcDbEntity
  8
0
  6
Continuous
 62
     7
370
    25
100
AcDbLine
 10
184.2848101266
 20
163.6864556962
 30
0.0
 11
184.2848101266
 21
159.6864556962
 31
0.0
  0
LINE
  5
139
330
1F
100
AcDbEntity
  8
0
  6
Continuous
 62
     7
370
    25
100
AcDbLine
 10
184.2848101266
 20
163.6864556962
 30
0.0
 11
168.2848101266
 21
163.6864556962
 31
0.0
  0
LINE
  5
13A
330
1F
100
AcDbEntity
  8
0
  6
Continuous
 62
     7
370
    25
100
AcDbLine
 10
168.2848101266
 20
163.6864556962
 30
0.0
 11
168.2848101266
 21
181.6864556962
 31
0.0
  0
LINE
  5
13B
330
1F
100
AcDbEntity
  8
0
  6
Continuous
 62
     7
370
    25
100
AcDbLine
 10
168.2848101266
 20
181.6864556962
 30
0.0
 11
164.2848101266
 21
181.6864556962
 31
0.0
  0
LINE
  5
13C
330
1F
100
AcDbEntity
  8
0
  6
Continuous
 62
     7
370
    25
100
AcDbLine
 10
164.2848101266
 20
206.6864556962
 30
0.0
 11
164.2848101266
 21
181.6864556962
 31
0.0
  0
LINE
  5
13D
330
1F
100
AcDbEntity
  8
0
  6
Continuous
 62
     7
370
    25
100
AcDbLine
 10
168.2848101266
 20
206.6864556962
 30
0.0
 11
164.2848101266
 21
206.6864556962
 31
0.0
  0
LINE
  5
13E
330
1F
100
AcDbEntity
  8
0
  6
Continuous
 62
     7
370
    25
100
AcDbLine
 10
168.2848101266
 20
206.6864556962
 30
0.0
 11
238.2848101266
 21
163.6864556962
 31
0.0
  0
LINE
  5
13F
330
1F
100
AcDbEntity
  8
0
  6
Continuous
 62
     7
370
    25
100
AcDbLine
 10
238.2848101266
 20
163.6864556962
 30
0.0
 11
229.2848101266
 21
163.6864556962
 31
0.0
  0
DIMENSION
  5
140
330
1F
100
AcDbEntity
  8
BORDER
100
AcDbDimension
  2
_D
 10
238.2848101266
 20
143.6864556962
 30
0.0
 11
205.6168950672
 21
143.6864556962
 31
0.0
 70
   160
  1
<>
 71
     2
 42
-1.0
  3
SLDDIMSTYLE0
100
AcDbAlignedDimension
 13
164.2848101266
 23
181.6864556962
 33
0.0
 14
238.2848101266
 24
163.6864556962
 34
0.0
100
AcDbRotatedDimension
  0
DIMENSION
  5
14C
330
1F
100
AcDbEntity
  8
BORDER
100
AcDbDimension
  2
_D_1
 10
247.2806262064
 20
159.6864556962
 30
0.0
 11
247.2806262064
 21
161.798702706
 31
0.0
 70
   160
  1
<>
 71
     2
 42
-1.0
  3
SLDDIMSTYLE1
100
AcDbAlignedDimension
 13
238.2848101266
 23
163.6864556962
 33
0.0
 14
229.2848101266
 24
159.6864556962
 34
0.0
 50
90.0
100
AcDbRotatedDimension
  0
DIMENSION
  5
158
330
1F
100
AcDbEntity
  8
BORDER
100
AcDbDimension
  2
_D_2
 10
142.2848101266
 20
159.6864556962
 30
0.0
 11
142.2848101266
 21
183.3489084677
 31
0.0
 70
   160
  1
<>
 71
     2
 42
-1.0
  3
SLDDIMSTYLE0
100
AcDbAlignedDimension
 13
164.2848101266
 23
206.6864556962
 33
0.0
 14
184.2848101266
 24
159.6864556962
 34
0.0
 50
90.0
100
AcDbRotatedDimension
  0
ENDSEC
  0
SECTION
  2
OBJECTS
  0
DICTIONARY
  5
C
330
0
100
AcDbDictionary
281
     1
  3
ACAD_GROUP
350
D
  3
ACAD_LAYOUT
350
1A
  3
ACAD_MLINESTYLE
350
17
  3
ACAD_PLOTSETTINGS
350
19
  3
ACAD_PLOTSTYLENAME
350
E
  3
ACAD_SCALELIST
350
47
  0
DICTIONARY
  5
D
102
{ACAD_REACTORS
330
C
102
}
330
C
100
AcDbDictionary
281
     1
  0
DICTIONARY
  5
1A
102
{ACAD_REACTORS
330
C
102
}
330
C
100
AcDbDictionary
281
     1
  3
Layout1
350
1E
  3
Layout2
350
26
  3
Model
350
22
  0
DICTIONARY
  5
17
102
{ACAD_REACTORS
330
C
102
}
330
C
100
AcDbDictionary
281
     1
  3
Standard
350
18
  0
DICTIONARY
  5
19
102
{ACAD_REACTORS
330
C
102
}
330
C
100
AcDbDictionary
281
     1
  0
ACDBDICTIONARYWDFLT
  5
E
102
{ACAD_REACTORS
330
C
102
}
330
C
100
AcDbDictionary
281
     1
  3
Normal
350
F
100
AcDbDictionaryWithDefault
340
F
  0
DICTIONARY
  5
47
102
{ACAD_REACTORS
330
C
102
}
330
C
100
AcDbDictionary
281
     1
  3
A0
350
48
  3
A1
350
49
  3
A2
350
4A
  3
A3
350
4B
  3
A4
350
4C
  3
A5
350
4D
  3
A6
350
4E
  3
A7
350
4F
  3
A8
350
50
  3
A9
350
51
  3
B0
350
52
  3
B1
350
53
  3
B2
350
54
  3
B3
350
55
  3
B4
350
56
  3
B5
350
57
  3
B6
350
58
  3
B7
350
59
  3
B8
350
5A
  3
B9
350
5B
  3
C0
350
5C
  3
C1
350
5D
  3
C2
350
5E
  3
C3
350
5F
  3
C4
350
60
  3
C5
350
61
  3
C6
350
62
  3
C7
350
63
  3
C8
350
64
  3
C9
350
65
  3
D0
350
66
  3
D1
350
67
  3
D2
350
68
  0
LAYOUT
  5
1E
102
{ACAD_REACTORS
330
1A
102
}
330
1A
100
AcDbPlotSettings
  1

  2
none_device
  4

  6

 40
0.0
 41
0.0
 42
0.0
 43
0.0
 44
0.0
 45
0.0
 46
0.0
 47
0.0
 48
0.0
 49
0.0
140
0.0
141
0.0
142
1.0
143
1.0
 70
   688
 72
     1
 73
     0
 74
     5
  7

 75
    16
147
1.0
148
0.0
149
0.0
100
AcDbLayout
  1
Layout1
 70
     1
 71
     1
 10
0.0
 20
0.0
 11
420.0
 21
297.0
 12
0.0
 22
0.0
 32
0.0
 14
1.0000000000E+20
 24
1.0000000000E+20
 34
1.0000000000E+20
 15
-1.0000000000E+20
 25
-1.0000000000E+20
 35
-1.0000000000E+20
146
0.0
 13
0.0
 23
0.0
 33
0.0
 16
1.0
 26
0.0
 36
0.0
 17
0.0
 27
1.0
 37
0.0
 76
     0
330
1B
  0
LAYOUT
  5
26
102
{ACAD_REACTORS
330
1A
102
}
330
1A
100
AcDbPlotSettings
  1

  2
none_device
  4

  6

 40
0.0
 41
0.0
 42
0.0
 43
0.0
 44
0.0
 45
0.0
 46
0.0
 47
0.0
 48
0.0
 49
0.0
140
0.0
141
0.0
142
1.0
143
1.0
 70
   688
 72
     1
 73
     0
 74
     5
  7

 75
    16
147
1.0
148
0.0
149
0.0
100
AcDbLayout
  1
Layout2
 70
     1
 71
     2
 10
0.0
 20
0.0
 11
0.0
 21
0.0
 12
0.0
 22
0.0
 32
0.0
 14
0.0
 24
0.0
 34
0.0
 15
0.0
 25
0.0
 35
0.0
146
0.0
 13
0.0
 23
0.0
 33
0.0
 16
1.0
 26
0.0
 36
0.0
 17
0.0
 27
1.0
 37
0.0
 76
     0
330
23
  0
LAYOUT
  5
22
102
{ACAD_REACTORS
330
1A
102
}
330
1A
100
AcDbPlotSettings
  1

  2
none_device
  4
Letter_(8.50_x_11.00_Inches)
  6

 40
6.35
 41
6.35
 42
6.35000508
 43
6.35000508
 44
215.9
 45
279.4
 46
0.0
 47
0.0
 48
0.0
 49
0.0
140
0.0
141
0.0
142
1.0
143
1.0
 70
  1712
 72
     1
 73
     0
 74
     0
  7

 75
     0
147
1.0
148
0.0
149
0.0
100
AcDbLayout
  1
Model
 70
     1
 71
     0
 10
0.0
 20
0.0
 11
420.0
 21
297.0
 12
0.0
 22
0.0
 32
0.0
 14
0.0
 24
0.0
 34
0.0
 15
420.0
 25
297.0
 35
0.0
146
0.0
 13
0.0
 23
0.0
 33
0.0
 16
1.0
 26
0.0
 36
0.0
 17
0.0
 27
1.0
 37
0.0
 76
     0
330
1F
331
29
  0
MLINESTYLE
  5
18
102
{ACAD_REACTORS
330
17
102
}
330
17
100
AcDbMlineStyle
  2
Standard
 70
     0
  3

 62
   256
 51
90.0
 52
90.0
 71
     2
 49
0.5
 62
   256
  6
BYLAYER
 49
-0.5
 62
   256
  6
BYLAYER
  0
ACDBPLACEHOLDER
  5
F
102
{ACAD_REACTORS
330
E
102
}
330
E
  0
SCALE
  5
48
102
{ACAD_REACTORS
330
47
102
}
330
47
100
AcDbScale
 70
     0
300
1:1
140
1.0
141
1.0
290
     1
  0
SCALE
  5
49
102
{ACAD_REACTORS
330
47
102
}
330
47
100
AcDbScale
 70
     0
300
1:2
140
1.0
141
2.0
290
     0
  0
SCALE
  5
4A
102
{ACAD_REACTORS
330
47
102
}
330
47
100
AcDbScale
 70
     0
300
1:4
140
1.0
141
4.0
290
     0
  0
SCALE
  5
4B
102
{ACAD_REACTORS
330
47
102
}
330
47
100
AcDbScale
 70
     0
300
1:5
140
1.0
141
5.0
290
     0
  0
SCALE
  5
4C
102
{ACAD_REACTORS
330
47
102
}
330
47
100
AcDbScale
 70
     0
300
1:8
140
1.0
141
8.0
290
     0
  0
SCALE
  5
4D
102
{ACAD_REACTORS
330
47
102
}
330
47
100
AcDbScale
 70
     0
300
1:10
140
1.0
141
10.0
290
     0
  0
SCALE
  5
4E
102
{ACAD_REACTORS
330
47
102
}
330
47
100
AcDbScale
 70
     0
300
1:16
140
1.0
141
16.0
290
     0
  0
SCALE
  5
4F
102
{ACAD_REACTORS
330
47
102
}
330
47
100
AcDbScale
 70
     0
300
1:20
140
1.0
141
20.0
290
     0
  0
SCALE
  5
50
102
{ACAD_REACTORS
330
47
102
}
330
47
100
AcDbScale
 70
     0
300
1:30
140
1.0
141
30.0
290
     0
  0
SCALE
  5
51
102
{ACAD_REACTORS
330
47
102
}
330
47
100
AcDbScale
 70
     0
300
1:40
140
1.0
141
40.0
290
     0
  0
SCALE
  5
52
102
{ACAD_REACTORS
330
47
102
}
330
47
100
AcDbScale
 70
     0
300
1:50
140
1.0
141
50.0
290
     0
  0
SCALE
  5
53
102
{ACAD_REACTORS
330
47
102
}
330
47
100
AcDbScale
 70
     0
300
1:100
140
1.0
141
100.0
290
     0
  0
SCALE
  5
54
102
{ACAD_REACTORS
330
47
102
}
330
47
100
AcDbScale
 70
     0
300
2:1
140
2.0
141
1.0
290
     0
  0
SCALE
  5
55
102
{ACAD_REACTORS
330
47
102
}
330
47
100
AcDbScale
 70
     0
300
4:1
140
4.0
141
1.0
290
     0
  0
SCALE
  5
56
102
{ACAD_REACTORS
330
47
102
}
330
47
100
AcDbScale
 70
     0
300
8:1
140
8.0
141
1.0
290
     0
  0
SCALE
  5
57
102
{ACAD_REACTORS
330
47
102
}
330
47
100
AcDbScale
 70
     0
300
10:1
140
10.0
141
1.0
290
     0
  0
SCALE
  5
58
102
{ACAD_REACTORS
330
47
102
}
330
47
100
AcDbScale
 70
     0
300
100:1
140
100.0
141
1.0
290
     0
  0
SCALE
  5
59
102
{ACAD_REACTORS
330
47
102
}
330
47
100
AcDbScale
 70
     0
300
1/128" = 1'-0"
140
0.0078125
141
12.0
290
     0
  0
SCALE
  5
5A
102
{ACAD_REACTORS
330
47
102
}
330
47
100
AcDbScale
 70
     0
300
1/64" = 1'-0"
140
0.015625
141
12.0
290
     0
  0
SCALE
  5
5B
102
{ACAD_REACTORS
330
47
102
}
330
47
100
AcDbScale
 70
     0
300
1/32" = 1'-0"
140
0.03125
141
12.0
290
     0
  0
SCALE
  5
5C
102
{ACAD_REACTORS
330
47
102
}
330
47
100
AcDbScale
 70
     0
300
1/16" = 1'-0"
140
0.0625
141
12.0
290
     0
  0
SCALE
  5
5D
102
{ACAD_REACTORS
330
47
102
}
330
47
100
AcDbScale
 70
     0
300
3/32" = 1'-0"
140
0.09375
141
12.0
290
     0
  0
SCALE
  5
5E
102
{ACAD_REACTORS
330
47
102
}
330
47
100
AcDbScale
 70
     0
300
1/8" = 1'-0"
140
0.125
141
12.0
290
     0
  0
SCALE
  5
5F
102
{ACAD_REACTORS
330
47
102
}
330
47
100
AcDbScale
 70
     0
300
3/16" = 1'-0"
140
0.1875
141
12.0
290
     0
  0
SCALE
  5
60
102
{ACAD_REACTORS
330
47
102
}
330
47
100
AcDbScale
 70
     0
300
1/4" = 1'-0"
140
0.25
141
12.0
290
     0
  0
SCALE
  5
61
102
{ACAD_REACTORS
330
47
102
}
330
47
100
AcDbScale
 70
     0
300
3/8" = 1'-0"
140
0.375
141
12.0
290
     0
  0
SCALE
  5
62
102
{ACAD_REACTORS
330
47
102
}
330
47
100
AcDbScale
 70
     0
300
1/2" = 1'-0"
140
0.5
141
12.0
290
     0
  0
SCALE
  5
63
102
{ACAD_REACTORS
330
47
102
}
330
47
100
AcDbScale
 70
     0
300
3/4" = 1'-0"
140
0.75
141
12.0
290
     0
  0
SCALE
  5
64
102
{ACAD_REACTORS
330
47
102
}
330
47
100
AcDbScale
 70
     0
300
1" = 1'-0"
140
1.0
141
12.0
290
     0
  0
SCALE
  5
65
102
{ACAD_REACTORS
330
47
102
}
330
47
100
AcDbScale
 70
     0
300
1-1/2" = 1'-0"
140
1.5
141
12.0
290
     0
  0
SCALE
  5
66
102
{ACAD_REACTORS
330
47
102
}
330
47
100
AcDbScale
 70
     0
300
3" = 1'-0"
140
3.0
141
12.0
290
     0
  0
SCALE
  5
67
102
{ACAD_REACTORS
330
47
102
}
330
47
100
AcDbScale
 70
     0
300
6" = 1'-0"
140
6.0
141
12.0
290
     0
  0
SCALE
  5
68
102
{ACAD_REACTORS
330
47
102
}
330
47
100
AcDbScale
 70
     0
300
1'-0" = 1'-0"
140
12.0
141
12.0
290
     0
  0
ENDSEC
  0
EOF
