  0
SECTION
  2
HEADER
  9
$ACADVER
  1
AC1015
  9
$ACADMAINTVER
 70
     6
  9
$DWGCODEPAGE
  3
ANSI_1252
  9
$INSBASE
 10
0.0
 20
0.0
 30
0.0
  9
$EXTMIN
 10
0.0
 20
0.0
 30
0.0
  9
$EXTMAX
 10
1189.0
 20
841.0
 30
0.0
  9
$LIMMIN
 10
0.0
 20
0.0
  9
$LIMMAX
 10
1189.0
 20
841.0
  9
$ORTHOMODE
 70
     0
  9
$REGENMODE
 70
     1
  9
$FILLMODE
 70
     1
  9
$QTEXTMODE
 70
     0
  9
$MIRRTEXT
 70
     1
  9
$LTSCALE
 40
1.0
  9
$ATTMODE
 70
     1
  9
$TEXTSIZE
 40
3.5
  9
$TRACEWID
 40
1.0
  9
$TEXTSTYLE
  7
Standard
  9
$CLAYER
  8
0
  9
$CELTYPE
  6
ByLayer
  9
$CECOLOR
 62
   256
  9
$CELTSCALE
 40
1.0
  9
$DISPSILH
 70
     0
  9
$DIMSCALE
 40
1.0
  9
$DIMASZ
 40
3.302
  9
$DIMEXO
 40
1.0
  9
$DIMDLI
 40
3.75
  9
$DIMRND
 40
0.0
  9
$DIMDLE
 40
0.0
  9
$DIMEXE
 40
1.0
  9
$DIMTP
 40
0.0
  9
$DIMTM
 40
0.0
  9
$DIMTXT
 40
3.5
  9
$DIMCEN
 40
2.5
  9
$DIMTSZ
 40
0.0
  9
$DIMTOL
 70
     0
  9
$DIMLIM
 70
     0
  9
$DIMTIH
 70
     1
  9
$DIMTOH
 70
     1
  9
$DIMSE1
 70
     0
  9
$DIMSE2
 70
     0
  9
$DIMTAD
 70
     1
  9
$DIMZIN
 70
     1
  9
$DIMBLK
  1

  9
$DIMASO
 70
     1
  9
$DIMSHO
 70
     1
  9
$DIMPOST
  1

  9
$DIMAPOST
  1

  9
$DIMALT
 70
     0
  9
$DIMALTD
 70
     3
  9
$DIMALTF
 40
0.0393700787
  9
$DIMLFAC
 40
0.5
  9
$DIMTOFL
 70
     1
  9
$DIMTVP
 40
0.0
  9
$DIMTIX
 70
     0
  9
$DIMSOXD
 70
     0
  9
$DIMSAH
 70
     0
  9
$DIMBLK1
  1

  9
$DIMBLK2
  1

  9
$DIMSTYLE
  2
ISO-25
  9
$DIMCLRD
 70
     0
  9
$DIMCLRE
 70
     0
  9
$DIMCLRT
 70
     0
  9
$DIMTFAC
 40
1.0
  9
$DIMGAP
 40
1.524
  9
$DIMJUST
 70
     0
  9
$DIMSD1
 70
     0
  9
$DIMSD2
 70
     0
  9
$DIMTOLJ
 70
     0
  9
$DIMTZIN
 70
     1
  9
$DIMALTZ
 70
     0
  9
$DIMALTTZ
 70
     0
  9
$DIMUPT
 70
     0
  9
$DIMDEC
 70
     2
  9
$DIMTDEC
 70
     2
  9
$DIMALTU
 70
     2
  9
$DIMALTTD
 70
     3
  9
$DIMTXSTY
  7
Standard
  9
$DIMAUNIT
 70
     0
  9
$DIMADEC
 70
     2
  9
$DIMALTRND
 40
0.0
  9
$DIMAZIN
 70
     0
  9
$DIMDSEP
 70
    44
  9
$DIMATFIT
 70
     3
  9
$DIMFRAC
 70
     0
  9
$DIMLDRBLK
  1

  9
$DIMLUNIT
 70
     2
  9
$DIMLWD
 70
    -2
  9
$DIMLWE
 70
    -2
  9
$DIMTMOVE
 70
     0
  9
$LUNITS
 70
     2
  9
$LUPREC
 70
     2
  9
$SKETCHINC
 40
1.0
  9
$FILLETRAD
 40
10.0
  9
$AUNITS
 70
     0
  9
$AUPREC
 70
     2
  9
$MENU
  1
.
  9
$ELEVATION
 40
0.0
  9
$PELEVATION
 40
0.0
  9
$THICKNESS
 40
0.0
  9
$LIMCHECK
 70
     0
  9
$CHAMFERA
 40
0.0
  9
$CHAMFERB
 40
0.0
  9
$CHAMFERC
 40
0.0
  9
$CHAMFERD
 40
0.0
  9
$SKPOLY
 70
     0
  9
$TDCREATE
 40
2459583.720428785
  9
$TDUCREATE
 40
2459583.428762118
  9
$TDUPDATE
 40
2459583.720433623
  9
$TDUUPDATE
 40
2459583.428766956
  9
$TDINDWG
 40
0.0000000116
  9
$TDUSRTIMER
 40
0.0000000116
  9
$USRTIMER
 70
     1
  9
$ANGBASE
 50
0.0
  9
$ANGDIR
 70
     0
  9
$PDMODE
 70
     0
  9
$PDSIZE
 40
-1.0
  9
$PLINEWID
 40
0.0
  9
$SPLFRAME
 70
     0
  9
$SPLINETYPE
 70
     6
  9
$SPLINESEGS
 70
     8
  9
$HANDSEED
  5
266
  9
$SURFTAB1
 70
     6
  9
$SURFTAB2
 70
     6
  9
$SURFTYPE
 70
     6
  9
$SURFU
 70
     6
  9
$SURFV
 70
     6
  9
$UCSBASE
  2

  9
$UCSNAME
  2

  9
$UCSORG
 10
0.0
 20
0.0
 30
0.0
  9
$UCSXDIR
 10
1.0
 20
0.0
 30
0.0
  9
$UCSYDIR
 10
0.0
 20
1.0
 30
0.0
  9
$UCSORTHOREF
  2

  9
$UCSORTHOVIEW
 70
     0
  9
$UCSORGTOP
 10
0.0
 20
0.0
 30
0.0
  9
$UCSORGBOTTOM
 10
0.0
 20
0.0
 30
0.0
  9
$UCSORGLEFT
 10
0.0
 20
0.0
 30
0.0
  9
$UCSORGRIGHT
 10
0.0
 20
0.0
 30
0.0
  9
$UCSORGFRONT
 10
0.0
 20
0.0
 30
0.0
  9
$UCSORGBACK
 10
0.0
 20
0.0
 30
0.0
  9
$PUCSBASE
  2

  9
$PUCSNAME
  2

  9
$PUCSORG
 10
0.0
 20
0.0
 30
0.0
  9
$PUCSXDIR
 10
1.0
 20
0.0
 30
0.0
  9
$PUCSYDIR
 10
0.0
 20
1.0
 30
0.0
  9
$PUCSORTHOREF
  2

  9
$PUCSORTHOVIEW
 70
     0
  9
$PUCSORGTOP
 10
0.0
 20
0.0
 30
0.0
  9
$PUCSORGBOTTOM
 10
0.0
 20
0.0
 30
0.0
  9
$PUCSORGLEFT
 10
0.0
 20
0.0
 30
0.0
  9
$PUCSORGRIGHT
 10
0.0
 20
0.0
 30
0.0
  9
$PUCSORGFRONT
 10
0.0
 20
0.0
 30
0.0
  9
$PUCSORGBACK
 10
0.0
 20
0.0
 30
0.0
  9
$USERI1
 70
     0
  9
$USERI2
 70
     0
  9
$USERI3
 70
     0
  9
$USERI4
 70
     0
  9
$USERI5
 70
     0
  9
$USERR1
 40
0.0
  9
$USERR2
 40
0.0
  9
$USERR3
 40
0.0
  9
$USERR4
 40
0.0
  9
$USERR5
 40
0.0
  9
$WORLDVIEW
 70
     1
  9
$SHADEDGE
 70
     3
  9
$SHADEDIF
 70
    70
  9
$TILEMODE
 70
     1
  9
$MAXACTVP
 70
    64
  9
$PINSBASE
 10
0.0
 20
0.0
 30
0.0
  9
$PLIMCHECK
 70
     0
  9
$PEXTMIN
 10
1.0000000000E+20
 20
1.0000000000E+20
 30
1.0000000000E+20
  9
$PEXTMAX
 10
-1.0000000000E+20
 20
-1.0000000000E+20
 30
-1.0000000000E+20
  9
$PLIMMIN
 10
0.0
 20
0.0
  9
$PLIMMAX
 10
420.0
 20
297.0
  9
$UNITMODE
 70
     0
  9
$VISRETAIN
 70
     1
  9
$PLINEGEN
 70
     0
  9
$PSLTSCALE
 70
     1
  9
$TREEDEPTH
 70
  3020
  9
$CMLSTYLE
  2
Standard
  9
$CMLJUST
 70
     0
  9
$CMLSCALE
 40
20.0
  9
$PROXYGRAPHICS
 70
     1
  9
$MEASUREMENT
 70
     1
  9
$CELWEIGHT
370
    -1
  9
$ENDCAPS
280
     0
  9
$JOINSTYLE
280
     0
  9
$LWDISPLAY
290
     1
  9
$INSUNITS
 70
     4
  9
$HYPERLINKBASE
  1

  9
$STYLESHEET
  1

  9
$XEDIT
290
     1
  9
$CEPSNTYPE
380
     0
  9
$PSTYLEMODE
290
     1
  9
$FINGERPRINTGUID
  2
{6C2051D0-DC86-49C3-BAA0-7E9587E12BA8}
  9
$VERSIONGUID
  2
{FAEB1C32-E019-11D5-929B-00C0DF256EC4}
  9
$EXTNAMES
290
     1
  9
$PSVPSCALE
 40
0.0
  9
$OLESTARTUP
290
     0
  0
ENDSEC
  0
SECTION
  2
CLASSES
  0
CLASS
  1
ACDBDICTIONARYWDFLT
  2
AcDbDictionaryWithDefault
  3
ObjectDBX Classes
 90
        0
280
     0
281
     0
  0
CLASS
  1
VISUALSTYLE
  2
AcDbVisualStyle
  3
ObjectDBX Classes
 90
     4095
280
     0
281
     0
  0
CLASS
  1
MATERIAL
  2
AcDbMaterial
  3
ObjectDBX Classes
 90
     1153
280
     0
281
     0
  0
CLASS
  1
SCALE
  2
AcDbScale
  3
ObjectDBX Classes
 90
     1153
280
     0
281
     0
  0
CLASS
  1
TABLESTYLE
  2
AcDbTableStyle
  3
ObjectDBX Classes
 90
     4095
280
     0
281
     0
  0
CLASS
  1
MLEADERSTYLE
  2
AcDbMLeaderStyle
  3
ACDB_MLEADERSTYLE_CLASS
 90
     4095
280
     0
281
     0
  0
CLASS
  1
SUN
  2
AcDbSun
  3
SCENEOE
 90
     1153
280
     0
281
     0
  0
CLASS
  1
ACDBPLACEHOLDER
  2
AcDbPlaceHolder
  3
ObjectDBX Classes
 90
        0
280
     0
281
     0
  0
CLASS
  1
LAYOUT
  2
AcDbLayout
  3
ObjectDBX Classes
 90
        0
280
     0
281
     0
  0
ENDSEC
  0
SECTION
  2
TABLES
  0
TABLE
  2
VPORT
  5
8
330
0
100
AcDbSymbolTable
 70
     1
  0
VPORT
  5
29
330
8
100
AcDbSymbolTableRecord
100
AcDbViewportTableRecord
  2
*Active
 70
     0
 10
0.0
 20
0.0
 11
1.0
 21
1.0
 12
594.5
 22
420.5
 13
0.0
 23
0.0
 14
10.0
 24
10.0
 15
10.0
 25
10.0
 16
0.0
 26
0.0
 36
1.0
 17
0.0
 27
0.0
 37
0.0
 40
841.0
 41
1.4137931034
 42
50.0
 43
0.0
 44
0.0
 50
0.0
 51
0.0
 71
     0
 72
  2000
 73
     1
 74
     3
 75
     0
 76
     0
 77
     0
 78
     0
281
     0
 65
     1
110
0.0
120
0.0
130
0.0
111
1.0
121
0.0
131
0.0
112
0.0
122
1.0
132
0.0
 79
     0
146
0.0
  0
ENDTAB
  0
TABLE
  2
LTYPE
  5
5
330
0
100
AcDbSymbolTable
 70
     6
  0
LTYPE
  5
14
330
5
100
AcDbSymbolTableRecord
100
AcDbLinetypeTableRecord
  2
ByBlock
 70
     0
  3

 72
    65
 73
     0
 40
0.0
  0
LTYPE
  5
15
330
5
100
AcDbSymbolTableRecord
100
AcDbLinetypeTableRecord
  2
ByLayer
 70
     0
  3

 72
    65
 73
     0
 40
0.0
  0
LTYPE
  5
16
330
5
100
AcDbSymbolTableRecord
100
AcDbLinetypeTableRecord
  2
Continuous
 70
     0
  3
Solid line
 72
    65
 73
     0
 40
0.0
  0
LTYPE
  5
6E
330
5
100
AcDbSymbolTableRecord
100
AcDbLinetypeTableRecord
  2
HIDDEN
 70
     0
  3
Hidden __ __ __ __ __ __ __ __ __ __ __ __ __ __
 72
    65
 73
     2
 40
1.905
 49
1.27
 74
     0
 49
-0.635
 74
     0
  0
LTYPE
  5
6F
330
5
100
AcDbSymbolTableRecord
100
AcDbLinetypeTableRecord
  2
PHANTOM
 70
     0
  3
Phantom ______  __  __  ______  __  __  ______
 72
    65
 73
     6
 40
12.7
 49
6.35
 74
     0
 49
-1.27
 74
     0
 49
1.27
 74
     0
 49
-1.27
 74
     0
 49
1.27
 74
     0
 49
-1.27
 74
     0
  0
LTYPE
  5
70
330
5
100
AcDbSymbolTableRecord
100
AcDbLinetypeTableRecord
  2
CENTER
 70
     0
  3
Center ____ _ ____ _ ____ _ ____ _ ____ _ ____
 72
    65
 73
     4
 40
10.16
 49
6.35
 74
     0
 49
-1.27
 74
     0
 49
1.27
 74
     0
 49
-1.27
 74
     0
  0
LTYPE
  5
71
330
5
100
AcDbSymbolTableRecord
100
AcDbLinetypeTableRecord
  2
CENTERX2
 70
     0
  3
Center (2x) ________  __  ________  __  _____
 72
    65
 73
     4
 40
20.32
 49
12.7
 74
     0
 49
-2.54
 74
     0
 49
2.54
 74
     0
 49
-2.54
 74
     0
  0
LTYPE
  5
72
330
5
100
AcDbSymbolTableRecord
100
AcDbLinetypeTableRecord
  2
DOT2
 70
     0
  3
Dot (.5x) ........................................
 72
    65
 73
     2
 40
0.635
 49
0.0
 74
     0
 49
-0.635
 74
     0
  0
ENDTAB
  0
TABLE
  2
LAYER
  5
2
330
0
100
AcDbSymbolTable
 70
     5
  0
LAYER
  5
10
330
2
100
AcDbSymbolTableRecord
100
AcDbLayerTableRecord
  2
0
 70
     0
 62
     7
  6
Continuous
370
    -3
390
F
  0
LAYER
  5
73
330
2
100
AcDbSymbolTableRecord
100
AcDbLayerTableRecord
  2
BORDER
 70
     0
 62
     7
  6
Continuous
370
    -3
390
F
  0
LAYER
  5
74
330
2
100
AcDbSymbolTableRecord
100
AcDbLayerTableRecord
  2
TRIM
 70
     0
 62
     7
  6
Continuous
370
    -3
390
F
  0
LAYER
  5
75
330
2
100
AcDbSymbolTableRecord
100
AcDbLayerTableRecord
  2
TEXT
 70
     0
 62
     7
  6
Continuous
370
    -3
390
F
  0
LAYER
  5
76
330
2
100
AcDbSymbolTableRecord
100
AcDbLayerTableRecord
  2
DIMENSIONS
 70
     0
 62
     5
  6
Continuous
370
    -3
390
F
  0
ENDTAB
  0
TABLE
  2
STYLE
  5
3
330
0
100
AcDbSymbolTable
 70
     5
  0
STYLE
  5
11
330
3
100
AcDbSymbolTableRecord
100
AcDbTextStyleTableRecord
  2
Standard
 70
     0
 40
0.0
 41
1.0
 50
0.0
 71
     0
 42
3.5
  3
txt
  4

  0
STYLE
  5
FD
330
3
100
AcDbSymbolTableRecord
100
AcDbTextStyleTableRecord
  2
SLDTEXTSTYLE0
 70
     0
 40
0.0
 41
0.605
 50
0.0
 71
     0
 42
3.5
  3
TXT
  4

  0
STYLE
  5
151
330
3
100
AcDbSymbolTableRecord
100
AcDbTextStyleTableRecord
  2
SLDTEXTSTYLE1
 70
     0
 40
0.0
 41
0.57
 50
0.0
 71
     0
 42
3.5
  3
TXT
  4

  0
STYLE
  5
15B
330
3
100
AcDbSymbolTableRecord
100
AcDbTextStyleTableRecord
  2
SLDTEXTSTYLE2
 70
     0
 40
0.0
 41
0.75
 50
0.0
 71
     0
 42
3.5
  3
TXT
  4

  0
STYLE
  5
174
330
3
100
AcDbSymbolTableRecord
100
AcDbTextStyleTableRecord
  2
SLDTEXTSTYLE3
 70
     0
 40
0.0
 41
0.605
 50
0.0
 71
     0
 42
3.5
  3
TXT
  4
bigfont
  0
ENDTAB
  0
TABLE
  2
VIEW
  5
6
330
0
100
AcDbSymbolTable
 70
     0
  0
ENDTAB
  0
TABLE
  2
UCS
  5
7
330
0
100
AcDbSymbolTable
 70
     0
  0
ENDTAB
  0
TABLE
  2
APPID
  5
9
330
0
100
AcDbSymbolTable
 70
     1
  0
APPID
  5
12
330
9
100
AcDbSymbolTableRecord
100
AcDbRegAppTableRecord
  2
ACAD
 70
     0
  0
ENDTAB
  0
TABLE
  2
DIMSTYLE
  5
A
330
0
100
AcDbSymbolTable
 70
     4
100
AcDbDimStyleTable
  0
DIMSTYLE
105
27
330
A
100
AcDbSymbolTableRecord
100
AcDbDimStyleTableRecord
  2
ISO-25
 70
     0
 41
2.5
 42
0.625
 43
3.75
 44
1.25
 73
     0
 74
     0
 77
     1
 78
     8
140
2.5
141
2.5
143
0.0393700787
147
0.625
171
     3
172
     1
178
     0
271
     2
272
     2
274
     3
278
    44
283
     0
284
     8
340
11
  0
DIMSTYLE
105
190
102
{ACAD_REACTORS
330
18F
330
19A
330
1A4
330
1BB
330
203
102
}
330
A
100
AcDbSymbolTableRecord
100
AcDbDimStyleTableRecord
  2
SLDDIMSTYLE0
 70
     0
 41
3.302
 44
0.0
 45
0.000000001
 73
     0
 74
     0
 77
     1
 78
     4
 79
     1
140
3.5
144
0.5
147
0.875
173
     1
178
     0
271
     2
272
     2
276
     2
284
    12
340
15B
  0
DIMSTYLE
105
1AF
102
{ACAD_REACTORS
330
1AE
102
}
330
A
100
AcDbSymbolTableRecord
100
AcDbDimStyleTableRecord
  2
SLDDIMSTYLE1
 70
     0
 41
3.302
 44
0.0
 45
0.000000001
 73
     0
 74
     0
 77
     1
 78
     4
 79
     1
140
3.5
144
0.5
147
0.875
172
     1
173
     1
178
     0
271
     2
272
     2
276
     2
284
    12
289
     0
340
15B
  0
DIMSTYLE
105
20E
102
{ACAD_REACTORS
330
20D
102
}
330
A
100
AcDbSymbolTableRecord
100
AcDbDimStyleTableRecord
  2
SLDDIMSTYLE2
 70
     0
 41
3.302
 44
0.0
 45
0.000000001
 78
     4
 79
     1
140
3.5
141
0.0
144
0.5
147
0.875
173
     1
178
     0
271
     2
272
     2
276
     2
284
    12
340
15B
  0
ENDTAB
  0
TABLE
  2
BLOCK_RECORD
  5
1
330
0
100
AcDbSymbolTable
 70
    10
  0
BLOCK_RECORD
  5
1F
330
1
100
AcDbSymbolTableRecord
100
AcDbBlockTableRecord
  2
*Model_Space
340
22
  0
BLOCK_RECORD
  5
1B
330
1
100
AcDbSymbolTableRecord
100
AcDbBlockTableRecord
  2
*Paper_Space
340
1E
  0
BLOCK_RECORD
  5
23
330
1
100
AcDbSymbolTableRecord
100
AcDbBlockTableRecord
  2
*Paper_Space0
340
26
  0
BLOCK_RECORD
  5
154
330
1
100
AcDbSymbolTableRecord
100
AcDbBlockTableRecord
  2
SW_NOTE_0
340
0
102
{BLKREFS
331
159
102
}
  0
BLOCK_RECORD
  5
170
330
1
100
AcDbSymbolTableRecord
100
AcDbBlockTableRecord
  2
SW_NOTE_1
340
0
102
{BLKREFS
331
178
102
}
  0
BLOCK_RECORD
  5
191
330
1
100
AcDbSymbolTableRecord
100
AcDbBlockTableRecord
  2
_D
340
0
  0
BLOCK_RECORD
  5
19B
330
1
100
AcDbSymbolTableRecord
100
AcDbBlockTableRecord
  2
_D_1
340
0
  0
BLOCK_RECORD
  5
1A5
330
1
100
AcDbSymbolTableRecord
100
AcDbBlockTableRecord
  2
_D_2
340
0
  0
BLOCK_RECORD
  5
1B0
330
1
100
AcDbSymbolTableRecord
100
AcDbBlockTableRecord
  2
_D_3
340
0
  0
BLOCK_RECORD
  5
1BC
330
1
100
AcDbSymbolTableRecord
100
AcDbBlockTableRecord
  2
_D_4
340
0
  0
BLOCK_RECORD
  5
204
330
1
100
AcDbSymbolTableRecord
100
AcDbBlockTableRecord
  2
_D_5
340
0
  0
BLOCK_RECORD
  5
20F
330
1
100
AcDbSymbolTableRecord
100
AcDbBlockTableRecord
  2
_D_6
340
0
  0
ENDTAB
  0
ENDSEC
  0
SECTION
  2
BLOCKS
  0
BLOCK
  5
20
330
1F
100
AcDbEntity
  8
0
100
AcDbBlockBegin
  2
*Model_Space
 70
     0
 10
0.0
 20
0.0
 30
0.0
  3
*Model_Space
  1

  0
ENDBLK
  5
21
330
1F
100
AcDbEntity
  8
0
100
AcDbBlockEnd
  0
BLOCK
  5
1C
330
1B
100
AcDbEntity
 67
     1
  8
0
100
AcDbBlockBegin
  2
*Paper_Space
 70
     0
 10
0.0
 20
0.0
 30
0.0
  3
*Paper_Space
  1

  0
ENDBLK
  5
1D
330
1B
100
AcDbEntity
 67
     1
  8
0
100
AcDbBlockEnd
  0
BLOCK
  5
24
330
23
100
AcDbEntity
  8
0
100
AcDbBlockBegin
  2
*Paper_Space0
 70
     0
 10
0.0
 20
0.0
 30
0.0
  3
*Paper_Space0
  1

  0
ENDBLK
  5
25
330
23
100
AcDbEntity
  8
0
100
AcDbBlockEnd
  0
BLOCK
  5
155
330
154
100
AcDbEntity
  8
0
100
AcDbBlockBegin
  2
SW_NOTE_0
 70
     0
 10
0.0
 20
0.0
 30
0.0
  3
SW_NOTE_0
  1

  0
MTEXT
  5
157
330
154
100
AcDbEntity
  8
BORDER
 62
     0
100
AcDbMText
 10
0.0
 20
2.3203219316
 30
0.0
 40
1.8
 41
0.0
 71
     1
 72
     1
  1
Projection Method:
  7
SLDTEXTSTYLE0
 73
     1
 44
1.0
  0
MTEXT
  5
158
330
154
100
AcDbEntity
  8
BORDER
 62
     0
100
AcDbMText
 10
5.4
 20
-0.4796779686
 30
0.0
 40
1.8
 41
0.0
 71
     1
 72
     1
  1
THIRD ANGLE
  7
SLDTEXTSTYLE0
 73
     1
 44
1.0
  0
ENDBLK
  5
156
330
154
100
AcDbEntity
  8
0
100
AcDbBlockEnd
  0
BLOCK
  5
171
330
170
100
AcDbEntity
  8
0
100
AcDbBlockBegin
  2
SW_NOTE_1
 70
     0
 10
0.0
 20
0.0
 30
0.0
  3
SW_NOTE_1
  1

  0
MTEXT
  5
173
330
170
100
AcDbEntity
  8
BORDER
 62
     0
100
AcDbMText
 10
0.0
 20
3.2226693494
 30
0.0
 40
2.5
 41
0.0
 71
     1
 72
     1
  1
NOTES:
  7
SLDTEXTSTYLE0
 73
     1
 44
1.0
  0
MTEXT
  5
175
330
170
100
AcDbEntity
  8
BORDER
 62
     0
100
AcDbMText
 10
0.0
 20
-0.2873911208
 30
0.0
 40
2.5
 41
0.0
 71
     1
 72
     1
  1
1. Làm s\U+1EA1ch ba via, làm tù c\U+1EA1nh s\U+1EAFc sau khi gia công.
  7
SLDTEXTSTYLE3
 73
     1
 44
1.0
  0
MTEXT
  5
176
330
170
100
AcDbEntity
  8
BORDER
 62
     0
100
AcDbMText
 10
0.0
 20
-3.7873912288
 30
0.0
 40
2.5
 41
0.0
 71
     1
 72
     1
  1
2. Kích th\U+01B0\U+1EDBc ch\U+01B0a rõ tuân theo b\U+1EA3n 3D
  7
SLDTEXTSTYLE3
 73
     1
 44
1.0
  0
MTEXT
  5
177
330
170
100
AcDbEntity
  8
BORDER
 62
     0
100
AcDbMText
 10
0.0
 20
-7.2873913368
 30
0.0
 40
2.5
 41
0.0
 71
     1
 72
     1
  1
3. Dung sai ch\U+01B0a rõ tuân theo ISO 2768-m
  7
SLDTEXTSTYLE3
 73
     1
 44
1.0
  0
ENDBLK
  5
172
330
170
100
AcDbEntity
  8
0
100
AcDbBlockEnd
  0
BLOCK
  5
192
330
191
100
AcDbEntity
  8
0
100
AcDbBlockBegin
  2
_D
 70
     0
 10
0.0
 20
0.0
 30
0.0
  3
_D
  1

  0
SOLID
  5
194
330
191
100
AcDbEntity
  8
BORDER
100
AcDbTrace
 10
309.4651961961
 20
638.8805477616
 30
0.0
 11
308.9571961961
 21
635.5785477616
 31
0.0
 12
309.9731961961
 22
635.5785477616
 32
0.0
 13
309.9731961961
 23
635.5785477616
 33
0.0
  0
SOLID
  5
195
330
191
100
AcDbEntity
  8
BORDER
100
AcDbTrace
 10
309.4651961961
 20
550.8805477616
 30
0.0
 11
309.9731961961
 21
554.1825477616
 31
0.0
 12
308.9571961961
 22
554.1825477616
 32
0.0
 13
308.9571961961
 23
554.1825477616
 33
0.0
  0
LINE
  5
196
330
191
100
AcDbEntity
  8
BORDER
100
AcDbLine
 10
389.4651961961
 20
638.8805477616
 30
0.0
 11
308.4651961961
 21
638.8805477616
 31
0.0
  0
LINE
  5
197
330
191
100
AcDbEntity
  8
BORDER
100
AcDbLine
 10
324.4651961961
 20
550.8805477616
 30
0.0
 11
308.4651961961
 21
550.8805477616
 31
0.0
  0
LINE
  5
198
330
191
100
AcDbEntity
  8
BORDER
100
AcDbLine
 10
309.4651961961
 20
638.8805477616
 30
0.0
 11
309.4651961961
 21
550.8805477616
 31
0.0
  0
MTEXT
  5
199
330
191
100
AcDbEntity
  8
BORDER
100
AcDbMText
 10
304.9534592815
 20
585.8949207771
 30
0.0
 40
3.5
 41
0.0
 71
     1
 72
     1
  1
44.00
  7
SLDTEXTSTYLE2
 11
-7.044195017643634E-15
 21
1.0
 31
0.0
 73
     1
 44
1.0
  0
ENDBLK
  5
193
330
191
100
AcDbEntity
  8
0
100
AcDbBlockEnd
  0
BLOCK
  5
19C
330
19B
100
AcDbEntity
  8
0
100
AcDbBlockBegin
  2
_D_1
 70
     0
 10
0.0
 20
0.0
 30
0.0
  3
_D_1
  1

  0
SOLID
  5
19E
330
19B
100
AcDbEntity
  8
BORDER
100
AcDbTrace
 10
325.4651961961
 20
525.5701001028
 30
0.0
 11
328.7671961961
 21
525.0621001028
 31
0.0
 12
328.7671961961
 22
526.0781001028
 32
0.0
 13
328.7671961961
 23
526.0781001028
 33
0.0
  0
SOLID
  5
19F
330
19B
100
AcDbEntity
  8
BORDER
100
AcDbTrace
 10
505.4651961961
 20
525.5701001028
 30
0.0
 11
502.1631961961
 21
526.0781001028
 31
0.0
 12
502.1631961961
 22
525.0621001028
 32
0.0
 13
502.1631961961
 23
525.0621001028
 33
0.0
  0
LINE
  5
1A0
330
19B
100
AcDbEntity
  8
BORDER
100
AcDbLine
 10
325.4651961961
 20
549.8805477616
 30
0.0
 11
325.4651961961
 21
524.5701001028
 31
0.0
  0
LINE
  5
1A1
330
19B
100
AcDbEntity
  8
BORDER
100
AcDbLine
 10
505.4651961961
 20
549.8805477616
 30
0.0
 11
505.4651961961
 21
524.5701001028
 31
0.0
  0
LINE
  5
1A2
330
19B
100
AcDbEntity
  8
BORDER
100
AcDbLine
 10
325.4651961961
 20
525.5701001028
 30
0.0
 11
505.4651961961
 21
525.5701001028
 31
0.0
  0
MTEXT
  5
1A3
330
19B
100
AcDbEntity
  8
BORDER
100
AcDbMText
 10
409.6538433142
 20
530.0818370174
 30
0.0
 40
3.5
 41
0.0
 71
     1
 72
     1
  1
90.00
  7
SLDTEXTSTYLE2
 73
     1
 44
1.0
  0
ENDBLK
  5
19D
330
19B
100
AcDbEntity
  8
0
100
AcDbBlockEnd
  0
BLOCK
  5
1A6
330
1A5
100
AcDbEntity
  8
0
100
AcDbBlockBegin
  2
_D_2
 70
     0
 10
0.0
 20
0.0
 30
0.0
  3
_D_2
  1

  0
SOLID
  5
1A8
330
1A5
100
AcDbEntity
  8
BORDER
100
AcDbTrace
 10
440.4651961961
 20
656.0349114251
 30
0.0
 11
437.1631961961
 21
656.5429114251
 31
0.0
 12
437.1631961961
 22
655.5269114251
 32
0.0
 13
437.1631961961
 23
655.5269114251
 33
0.0
  0
SOLID
  5
1A9
330
1A5
100
AcDbEntity
  8
BORDER
100
AcDbTrace
 10
390.4651961961
 20
656.0349114251
 30
0.0
 11
393.7671961961
 21
655.5269114251
 31
0.0
 12
393.7671961961
 22
656.5429114251
 32
0.0
 13
393.7671961961
 23
656.5429114251
 33
0.0
  0
LINE
  5
1AA
330
1A5
100
AcDbEntity
  8
BORDER
100
AcDbLine
 10
440.4651961961
 20
639.8805477616
 30
0.0
 11
440.4651961961
 21
657.0349114251
 31
0.0
  0
LINE
  5
1AB
330
1A5
100
AcDbEntity
  8
BORDER
100
AcDbLine
 10
390.4651961961
 20
639.8805477616
 30
0.0
 11
390.4651961961
 21
657.0349114251
 31
0.0
  0
LINE
  5
1AC
330
1A5
100
AcDbEntity
  8
BORDER
100
AcDbLine
 10
440.4651961961
 20
656.0349114251
 30
0.0
 11
390.4651961961
 21
656.0349114251
 31
0.0
  0
MTEXT
  5
1AD
330
1A5
100
AcDbEntity
  8
BORDER
100
AcDbMText
 10
411.3006811393
 20
660.5466483397
 30
0.0
 40
3.5
 41
0.0
 71
     1
 72
     1
  1
25.00
  7
SLDTEXTSTYLE2
 73
     1
 44
1.0
  0
ENDBLK
  5
1A7
330
1A5
100
AcDbEntity
  8
0
100
AcDbBlockEnd
  0
BLOCK
  5
1B1
330
1B0
100
AcDbEntity
  8
0
100
AcDbBlockBegin
  2
_D_3
 70
     0
 10
0.0
 20
0.0
 30
0.0
  3
_D_3
  1

  0
SOLID
  5
1B3
330
1B0
100
AcDbEntity
  8
BORDER
100
AcDbTrace
 10
318.4814406587
 20
638.8805477616
 30
0.0
 11
318.9894406587
 21
642.1825477616
 31
0.0
 12
317.9734406587
 22
642.1825477616
 32
0.0
 13
317.9734406587
 23
642.1825477616
 33
0.0
  0
SOLID
  5
1B4
330
1B0
100
AcDbEntity
  8
BORDER
100
AcDbTrace
 10
318.4814406587
 20
632.8805477616
 30
0.0
 11
317.9734406587
 21
629.5785477616
 31
0.0
 12
318.9894406587
 22
629.5785477616
 32
0.0
 13
318.9894406587
 23
629.5785477616
 33
0.0
  0
LINE
  5
1B5
330
1B0
100
AcDbEntity
  8
BORDER
100
AcDbLine
 10
389.4651961961
 20
638.8805477616
 30
0.0
 11
317.4814406587
 21
638.8805477616
 31
0.0
  0
LINE
  5
1B6
330
1B0
100
AcDbEntity
  8
BORDER
100
AcDbLine
 10
324.4651961961
 20
632.8805477616
 30
0.0
 11
317.4814406587
 21
632.8805477616
 31
0.0
  0
LINE
  5
1B7
330
1B0
100
AcDbEntity
  8
BORDER
100
AcDbLine
 10
318.4814406587
 20
638.8805477616
 30
0.0
 11
318.4814406587
 21
650.9056007057
 31
0.0
  0
LINE
  5
1B8
330
1B0
100
AcDbEntity
  8
BORDER
100
AcDbLine
 10
318.4814406587
 20
638.8805477616
 30
0.0
 11
318.4814406587
 21
632.8805477616
 31
0.0
  0
LINE
  5
1B9
330
1B0
100
AcDbEntity
  8
BORDER
100
AcDbLine
 10
318.4814406587
 20
632.8805477616
 30
0.0
 11
318.4814406587
 21
626.5305477616
 31
0.0
  0
MTEXT
  5
1BA
330
1B0
100
AcDbEntity
  8
BORDER
100
AcDbMText
 10
313.9697037441
 20
641.8542116447
 30
0.0
 40
3.5
 41
0.0
 71
     1
 72
     1
  1
3.00
  7
SLDTEXTSTYLE2
 11
-7.044195017643634E-15
 21
1.0
 31
0.0
 73
     1
 44
1.0
  0
ENDBLK
  5
1B2
330
1B0
100
AcDbEntity
  8
0
100
AcDbBlockEnd
  0
BLOCK
  5
1BD
330
1BC
100
AcDbEntity
  8
0
100
AcDbBlockBegin
  2
_D_4
 70
     0
 10
0.0
 20
0.0
 30
0.0
  3
_D_4
  1

  0
SOLID
  5
1BF
330
1BC
100
AcDbEntity
  8
BORDER
100
AcDbTrace
 10
521.4651961961
 20
558.8805477616
 30
0.0
 11
520.9571961961
 21
555.5785477616
 31
0.0
 12
521.9731961961
 22
555.5785477616
 32
0.0
 13
521.9731961961
 23
555.5785477616
 33
0.0
  0
SOLID
  5
1C0
330
1BC
100
AcDbEntity
  8
BORDER
100
AcDbTrace
 10
521.4651961961
 20
550.8805477616
 30
0.0
 11
521.9731961961
 21
554.1825477616
 31
0.0
 12
520.9571961961
 22
554.1825477616
 32
0.0
 13
520.9571961961
 23
554.1825477616
 33
0.0
  0
LINE
  5
1C1
330
1BC
100
AcDbEntity
  8
BORDER
100
AcDbLine
 10
441.4651961961
 20
558.8805477616
 30
0.0
 11
522.4651961961
 21
558.8805477616
 31
0.0
  0
LINE
  5
1C2
330
1BC
100
AcDbEntity
  8
BORDER
100
AcDbLine
 10
506.4651961961
 20
550.8805477616
 30
0.0
 11
522.4651961961
 21
550.8805477616
 31
0.0
  0
LINE
  5
1C3
330
1BC
100
AcDbEntity
  8
BORDER
100
AcDbLine
 10
521.4651961961
 20
558.8805477616
 30
0.0
 11
521.4651961961
 21
571.759596021
 31
0.0
  0
LINE
  5
1C4
330
1BC
100
AcDbEntity
  8
BORDER
100
AcDbLine
 10
521.4651961961
 20
558.8805477616
 30
0.0
 11
521.4651961961
 21
550.8805477616
 31
0.0
  0
MTEXT
  5
1C5
330
1BC
100
AcDbEntity
  8
BORDER
100
AcDbMText
 10
516.9534592815
 20
562.7082069601
 30
0.0
 40
3.5
 41
0.0
 71
     1
 72
     1
  1
4.00
  7
SLDTEXTSTYLE2
 11
-7.044195017643634E-15
 21
1.0
 31
0.0
 73
     1
 44
1.0
  0
ENDBLK
  5
1BE
330
1BC
100
AcDbEntity
  8
0
100
AcDbBlockEnd
  0
BLOCK
  5
205
330
204
100
AcDbEntity
  8
0
100
AcDbBlockBegin
  2
_D_5
 70
     0
 10
0.0
 20
0.0
 30
0.0
  3
_D_5
  1

  0
SOLID
  5
207
330
204
100
AcDbEntity
  8
BORDER
100
AcDbTrace
 10
285.4651961961
 20
364.833801785
 30
0.0
 11
284.9571961961
 21
361.531801785
 31
0.0
 12
285.9731961961
 22
361.531801785
 32
0.0
 13
285.9731961961
 23
361.531801785
 33
0.0
  0
SOLID
  5
208
330
204
100
AcDbEntity
  8
BORDER
100
AcDbTrace
 10
285.4651961961
 20
184.833801785
 30
0.0
 11
285.9731961961
 21
188.135801785
 31
0.0
 12
284.9571961961
 22
188.135801785
 32
0.0
 13
284.9571961961
 23
188.135801785
 33
0.0
  0
LINE
  5
209
330
204
100
AcDbEntity
  8
BORDER
100
AcDbLine
 10
344.4651961961
 20
364.833801785
 30
0.0
 11
284.4651961961
 21
364.833801785
 31
0.0
  0
LINE
  5
20A
330
204
100
AcDbEntity
  8
BORDER
100
AcDbLine
 10
344.4651961961
 20
184.833801785
 30
0.0
 11
284.4651961961
 21
184.833801785
 31
0.0
  0
LINE
  5
20B
330
204
100
AcDbEntity
  8
BORDER
100
AcDbLine
 10
285.4651961961
 20
364.833801785
 30
0.0
 11
285.4651961961
 21
184.833801785
 31
0.0
  0
MTEXT
  5
20C
330
204
100
AcDbEntity
  8
BORDER
100
AcDbMText
 10
280.9534592815
 20
265.6516764029
 30
0.0
 40
3.5
 41
0.0
 71
     1
 72
     1
  1
90.00
  7
SLDTEXTSTYLE2
 11
-7.044195017643634E-15
 21
1.0
 31
0.0
 73
     1
 44
1.0
  0
ENDBLK
  5
206
330
204
100
AcDbEntity
  8
0
100
AcDbBlockEnd
  0
BLOCK
  5
210
330
20F
100
AcDbEntity
  8
0
100
AcDbBlockBegin
  2
_D_6
 70
     0
 10
0.0
 20
0.0
 30
0.0
  3
_D_6
  1

  0
SOLID
  5
212
330
20F
100
AcDbEntity
  8
BORDER
100
AcDbTrace
 10
335.4485262919
 20
354.6147181036
 30
0.0
 11
333.4409306824
 21
357.2850791032
 31
0.0
 12
332.7311156124
 22
356.5581550588
 32
0.0
 13
332.7311156124
 23
356.5581550588
 33
0.0
  0
LINE
  5
213
330
20F
100
AcDbEntity
  8
BORDER
100
AcDbLine
 10
335.4485262919
 20
354.6147181036
 30
0.0
 11
318.6189001987
 21
371.048240029
 31
0.0
  0
LINE
  5
214
330
20F
100
AcDbEntity
  8
BORDER
100
AcDbLine
 10
345.4651961961
 20
344.833801785
 30
0.0
 11
335.4485262919
 21
354.6147181036
 31
0.0
  0
LINE
  5
215
330
20F
100
AcDbEntity
  8
BORDER
100
AcDbLine
 10
318.6189001987
 20
371.048240029
 30
0.0
 11
305.1459825734
 21
371.048240029
 31
0.0
  0
MTEXT
  5
216
330
20F
100
AcDbEntity
  8
BORDER
100
AcDbMText
 10
305.1459825734
 20
375.5599769436
 30
0.0
 40
3.5
 41
0.0
 71
     1
 72
     1
  1
R7.00
  7
SLDTEXTSTYLE2
 73
     1
 44
1.0
  0
ENDBLK
  5
211
330
20F
100
AcDbEntity
  8
0
100
AcDbBlockEnd
  0
ENDSEC
  0
SECTION
  2
ENTITIES
  0
HATCH
  5
77
330
1F
100
AcDbEntity
  8
TRIM
100
AcDbHatch
 10
0.0
 20
0.0
 30
0.0
210
0.0
220
0.0
230
1.0
  2
SOLID
 70
     1
 71
     0
 91
        1
 92
        0
 93
        6
 72
     1
 10
10.0
 20
0.0
 11
10.0
 21
5.000000000000001
 72
     1
 10
10.0
 20
5.000000000000001
 11
5.000000000000003
 21
4.999999999999999
 72
     1
 10
5.000000000000003
 20
4.999999999999999
 11
5.000000000000002
 21
9.999999999999998
 72
     1
 10
5.000000000000002
 20
9.999999999999998
 11
0.0
 21
9.999999999999998
 72
     1
 10
0.0
 20
9.999999999999998
 11
0.0
 21
0.0
 72
     1
 10
0.0
 20
0.0
 11
10.0
 21
0.0
 97
        0
 75
     0
 76
     1
 98
        1
 10
0.0
 20
0.0
  0
HATCH
  5
78
330
1F
100
AcDbEntity
  8
TRIM
100
AcDbHatch
 10
0.0
 20
0.0
 30
0.0
210
0.0
220
0.0
230
1.0
  2
SOLID
 70
     1
 71
     0
 91
        1
 92
        0
 93
        6
 72
     1
 10
0.0
 20
831.0000000000001
 11
4.999999999999901
 21
831.0000000000001
 72
     1
 10
4.999999999999901
 20
831.0000000000001
 11
4.999999999999901
 21
836.0
 72
     1
 10
4.999999999999901
 20
836.0
 11
9.9999999999998
 21
836.0
 72
     1
 10
9.9999999999998
 20
836.0
 11
9.999999999999797
 21
841.0
 72
     1
 10
9.999999999999797
 20
841.0
 11
0.0
 21
841.0
 72
     1
 10
0.0
 20
841.0
 11
0.0
 21
831.0000000000001
 97
        0
 75
     0
 76
     1
 98
        1
 10
0.0
 20
0.0
  0
HATCH
  5
79
330
1F
100
AcDbEntity
  8
TRIM
100
AcDbHatch
 10
0.0
 20
0.0
 30
0.0
210
0.0
220
0.0
230
1.0
  2
SOLID
 70
     1
 71
     0
 91
        1
 92
        0
 93
        6
 72
     1
 10
1184.0
 20
836.0
 11
1184.0
 21
831.0
 72
     1
 10
1184.0
 20
831.0
 11
1189.0
 21
831.0
 72
     1
 10
1189.0
 20
831.0
 11
1189.0
 21
841.0
 72
     1
 10
1189.0
 20
841.0
 11
1179.0
 21
841.0
 72
     1
 10
1179.0
 20
841.0
 11
1179.0
 21
836.0
 72
     1
 10
1179.0
 20
836.0
 11
1184.0
 21
836.0
 97
        0
 75
     0
 76
     1
 98
        1
 10
0.0
 20
0.0
  0
HATCH
  5
7A
330
1F
100
AcDbEntity
  8
TRIM
100
AcDbHatch
 10
0.0
 20
0.0
 30
0.0
210
0.0
220
0.0
230
1.0
  2
SOLID
 70
     1
 71
     0
 91
        1
 92
        0
 93
        6
 72
     1
 10
1189.0
 20
10.00000000000001
 11
1184.0
 21
10.00000000000001
 72
     1
 10
1184.0
 20
10.00000000000001
 11
1184.0
 21
5.000000000000001
 72
     1
 10
1184.0
 20
5.000000000000001
 11
1179.0
 21
5.000000000000001
 72
     1
 10
1179.0
 20
5.000000000000001
 11
1179.0
 21
0.0
 72
     1
 10
1179.0
 20
0.0
 11
1189.0
 21
0.0
 72
     1
 10
1189.0
 20
0.0
 11
1189.0
 21
10.00000000000001
 97
        0
 75
     0
 76
     1
 98
        1
 10
0.0
 20
0.0
  0
LINE
  5
7B
330
1F
100
AcDbEntity
  8
BORDER
370
    35
100
AcDbLine
 10
544.5
 20
836.0
 30
0.0
 11
544.5
 21
831.0
 31
0.0
  0
LINE
  5
7C
330
1F
100
AcDbEntity
  8
BORDER
370
    35
100
AcDbLine
 10
494.5
 20
836.0
 30
0.0
 11
494.5
 21
831.0
 31
0.0
  0
LINE
  5
7D
330
1F
100
AcDbEntity
  8
BORDER
370
    35
100
AcDbLine
 10
444.5
 20
836.0
 30
0.0
 11
444.5
 21
831.0
 31
0.0
  0
LINE
  5
7E
330
1F
100
AcDbEntity
  8
BORDER
370
    35
100
AcDbLine
 10
394.5
 20
836.0
 30
0.0
 11
394.5
 21
831.0
 31
0.0
  0
LINE
  5
7F
330
1F
100
AcDbEntity
  8
BORDER
370
    35
100
AcDbLine
 10
344.5
 20
836.0
 30
0.0
 11
344.5
 21
831.0
 31
0.0
  0
LINE
  5
80
330
1F
100
AcDbEntity
  8
BORDER
370
    35
100
AcDbLine
 10
294.5
 20
836.0
 30
0.0
 11
294.5
 21
831.0
 31
0.0
  0
LINE
  5
81
330
1F
100
AcDbEntity
  8
BORDER
370
    35
100
AcDbLine
 10
244.5
 20
836.0
 30
0.0
 11
244.5
 21
831.0
 31
0.0
  0
LINE
  5
82
330
1F
100
AcDbEntity
  8
BORDER
370
    35
100
AcDbLine
 10
194.5
 20
836.0
 30
0.0
 11
194.5
 21
831.0
 31
0.0
  0
LINE
  5
83
330
1F
100
AcDbEntity
  8
BORDER
370
    35
100
AcDbLine
 10
144.5
 20
836.0
 30
0.0
 11
144.5
 21
831.0
 31
0.0
  0
LINE
  5
84
330
1F
100
AcDbEntity
  8
BORDER
370
    35
100
AcDbLine
 10
94.5
 20
836.0
 30
0.0
 11
94.5
 21
831.0
 31
0.0
  0
LINE
  5
85
330
1F
100
AcDbEntity
  8
BORDER
370
    35
100
AcDbLine
 10
44.5
 20
836.0
 30
0.0
 11
44.5
 21
831.0
 31
0.0
  0
LINE
  5
86
330
1F
100
AcDbEntity
  8
BORDER
370
    35
100
AcDbLine
 10
644.5
 20
836.0
 30
0.0
 11
644.5
 21
831.0
 31
0.0
  0
LINE
  5
87
330
1F
100
AcDbEntity
  8
BORDER
370
    35
100
AcDbLine
 10
694.5
 20
836.0
 30
0.0
 11
694.5
 21
831.0
 31
0.0
  0
LINE
  5
88
330
1F
100
AcDbEntity
  8
BORDER
370
    35
100
AcDbLine
 10
744.5
 20
836.0
 30
0.0
 11
744.5
 21
831.0
 31
0.0
  0
LINE
  5
89
330
1F
100
AcDbEntity
  8
BORDER
370
    35
100
AcDbLine
 10
794.5
 20
836.0
 30
0.0
 11
794.5
 21
831.0
 31
0.0
  0
LINE
  5
8A
330
1F
100
AcDbEntity
  8
BORDER
370
    35
100
AcDbLine
 10
844.5
 20
836.0
 30
0.0
 11
844.5
 21
831.0
 31
0.0
  0
LINE
  5
8B
330
1F
100
AcDbEntity
  8
BORDER
370
    35
100
AcDbLine
 10
894.5
 20
836.0
 30
0.0
 11
894.5
 21
831.0
 31
0.0
  0
LINE
  5
8C
330
1F
100
AcDbEntity
  8
BORDER
370
    35
100
AcDbLine
 10
944.5
 20
836.0
 30
0.0
 11
944.5
 21
831.0
 31
0.0
  0
LINE
  5
8D
330
1F
100
AcDbEntity
  8
BORDER
370
    35
100
AcDbLine
 10
994.5
 20
836.0
 30
0.0
 11
994.5
 21
831.0
 31
0.0
  0
LINE
  5
8E
330
1F
100
AcDbEntity
  8
BORDER
370
    35
100
AcDbLine
 10
1044.5
 20
836.0
 30
0.0
 11
1044.5
 21
831.0
 31
0.0
  0
LINE
  5
8F
330
1F
100
AcDbEntity
  8
BORDER
370
    35
100
AcDbLine
 10
1094.5
 20
836.0
 30
0.0
 11
1094.5
 21
831.0
 31
0.0
  0
LINE
  5
90
330
1F
100
AcDbEntity
  8
BORDER
370
    35
100
AcDbLine
 10
1144.5
 20
836.0
 30
0.0
 11
1144.5
 21
831.0
 31
0.0
  0
LINE
  5
91
330
1F
100
AcDbEntity
  8
BORDER
370
    35
100
AcDbLine
 10
1116.0540298162
 20
33.5703270608
 30
0.0
 11
1059.03635229
 21
33.5703270608
 31
0.0
  0
LINE
  5
92
330
1F
100
AcDbEntity
  8
BORDER
370
    35
100
AcDbLine
 10
1147.5699836286
 20
52.0001454479
 30
0.0
 11
1147.5699836286
 21
33.5703270608
 31
0.0
  0
LINE
  5
93
330
1F
100
AcDbEntity
  8
BORDER
  6
Continuous
370
    35
100
AcDbLine
 10
1134.9813812184
 20
10.0001454479
 30
0.0
 11
1134.9813812184
 21
33.5703270608
 31
0.0
  0
LINE
  5
94
330
1F
100
AcDbEntity
  8
BORDER
370
    35
100
AcDbLine
 10
1179.0
 20
42.5703270608
 30
0.0
 11
1116.0540298162
 21
42.5703270608
 31
0.0
  0
LINE
  5
95
330
1F
100
AcDbEntity
  8
BORDER
370
    35
100
AcDbLine
 10
1116.0540298162
 20
24.5703270608
 30
0.0
 11
1089.03635229
 21
24.5703270608
 31
0.0
  0
LINE
  5
96
330
1F
100
AcDbEntity
  8
BORDER
  6
Continuous
370
    35
100
AcDbLine
 10
1167.2
 20
10.0001454479
 30
0.0
 11
1167.2
 21
24.5703270608
 31
0.0
  0
LINE
  5
97
330
1F
100
AcDbEntity
  8
BORDER
  6
Continuous
370
    35
100
AcDbLine
 10
1179.0
 20
24.5703270608
 30
0.0
 11
1116.0540298162
 21
24.5703270608
 31
0.0
  0
LINE
  5
98
330
1F
100
AcDbEntity
  8
BORDER
  6
Continuous
370
    35
100
AcDbLine
 10
1152.2
 20
10.0001454479
 30
0.0
 11
1152.2
 21
24.5703270608
 31
0.0
  0
LINE
  5
99
330
1F
100
AcDbEntity
  8
BORDER
100
AcDbLine
 10
1067.7146581068
 20
14.8656048577
 30
0.0
 11
1079.7284011771
 21
14.8656048577
 31
0.0
  0
LINE
  5
9A
330
1F
100
AcDbEntity
  8
BORDER
370
    70
100
AcDbLine
 10
1059.03635229
 20
52.0001454479
 30
0.0
 11
1179.03635229
 21
52.0001454479
 31
0.0
  0
LINE
  5
9B
330
1F
100
AcDbEntity
  8
BORDER
  6
Continuous
370
    70
100
AcDbLine
 10
1059.03635229
 20
52.0001454479
 30
0.0
 11
1059.03635229
 21
10.0001454479
 31
0.0
  0
LINE
  5
9C
330
1F
100
AcDbEntity
  8
BORDER
370
    35
100
AcDbLine
 10
1116.0540298162
 20
52.0001454479
 30
0.0
 11
1116.0540298162
 21
10.0001454479
 31
0.0
  0
LINE
  5
9D
330
1F
100
AcDbEntity
  8
BORDER
370
    35
100
AcDbLine
 10
1179.0
 20
470.5
 30
0.0
 11
1184.0
 21
470.5
 31
0.0
  0
LINE
  5
9E
330
1F
100
AcDbEntity
  8
BORDER
370
    35
100
AcDbLine
 10
1179.0
 20
520.5
 30
0.0
 11
1184.0
 21
520.5
 31
0.0
  0
LINE
  5
9F
330
1F
100
AcDbEntity
  8
BORDER
370
    35
100
AcDbLine
 10
1179.0
 20
570.5
 30
0.0
 11
1184.0
 21
570.5
 31
0.0
  0
LINE
  5
A0
330
1F
100
AcDbEntity
  8
BORDER
370
    35
100
AcDbLine
 10
1179.0
 20
620.5
 30
0.0
 11
1184.0
 21
620.5
 31
0.0
  0
LINE
  5
A1
330
1F
100
AcDbEntity
  8
BORDER
370
    35
100
AcDbLine
 10
1179.0
 20
670.5
 30
0.0
 11
1184.0
 21
670.5
 31
0.0
  0
LINE
  5
A2
330
1F
100
AcDbEntity
  8
BORDER
370
    35
100
AcDbLine
 10
1179.0
 20
720.5
 30
0.0
 11
1184.0
 21
720.5
 31
0.0
  0
LINE
  5
A3
330
1F
100
AcDbEntity
  8
BORDER
370
    35
100
AcDbLine
 10
1179.0
 20
770.5
 30
0.0
 11
1184.0
 21
770.5
 31
0.0
  0
LINE
  5
A4
330
1F
100
AcDbEntity
  8
BORDER
370
    35
100
AcDbLine
 10
1179.0
 20
370.5
 30
0.0
 11
1184.0
 21
370.5
 31
0.0
  0
LINE
  5
A5
330
1F
100
AcDbEntity
  8
BORDER
370
    35
100
AcDbLine
 10
1179.0
 20
320.5
 30
0.0
 11
1184.0
 21
320.5
 31
0.0
  0
LINE
  5
A6
330
1F
100
AcDbEntity
  8
BORDER
  6
Continuous
370
    35
100
AcDbLine
 10
1074.1558991771
 20
16.1156048577
 30
0.0
 11
1074.1558991771
 21
13.6156048577
 31
0.0
  0
LINE
  5
A7
330
1F
100
AcDbEntity
  8
BORDER
  6
Continuous
370
    35
100
AcDbLine
 10
1074.1558991771
 20
13.6156048577
 30
0.0
 11
1079.1558991771
 21
12.3656048577
 31
0.0
  0
LINE
  5
A8
330
1F
100
AcDbEntity
  8
BORDER
  6
Continuous
370
    35
100
AcDbLine
 10
1079.1558991771
 20
12.3656048577
 30
0.0
 11
1079.1558991771
 21
17.3656048577
 31
0.0
  0
LINE
  5
A9
330
1F
100
AcDbEntity
  8
BORDER
370
    35
100
AcDbLine
 10
1179.0
 20
270.5
 30
0.0
 11
1184.0
 21
270.5
 31
0.0
  0
LINE
  5
AA
330
1F
100
AcDbEntity
  8
BORDER
370
    35
100
AcDbLine
 10
15.0
 20
836.0
 30
0.0
 11
1184.0
 21
836.0
 31
0.0
  0
LINE
  5
AB
330
1F
100
AcDbEntity
  8
BORDER
370
    35
100
AcDbLine
 10
15.0
 20
836.0
 30
0.0
 11
15.0
 21
5.0
 31
0.0
  0
LINE
  5
AC
330
1F
100
AcDbEntity
  8
BORDER
370
    35
100
AcDbLine
 10
15.0
 20
5.0
 30
0.0
 11
1184.0
 21
5.0
 31
0.0
  0
LINE
  5
AD
330
1F
100
AcDbEntity
  8
BORDER
370
    35
100
AcDbLine
 10
1184.0
 20
836.0
 30
0.0
 11
1184.0
 21
5.0
 31
0.0
  0
LINE
  5
AE
330
1F
100
AcDbEntity
  8
BORDER
370
    50
100
AcDbLine
 10
20.0
 20
831.0
 30
0.0
 11
1179.0
 21
831.0
 31
0.0
  0
LINE
  5
AF
330
1F
100
AcDbEntity
  8
BORDER
370
    70
100
AcDbLine
 10
20.0
 20
831.0
 30
0.0
 11
20.0
 21
10.0001454479
 31
0.0
  0
LINE
  5
B0
330
1F
100
AcDbEntity
  8
BORDER
370
    70
100
AcDbLine
 10
20.0
 20
10.0001454479
 30
0.0
 11
1179.0
 21
10.0001454479
 31
0.0
  0
LINE
  5
B1
330
1F
100
AcDbEntity
  8
BORDER
370
    50
100
AcDbLine
 10
1179.0
 20
831.0
 30
0.0
 11
1179.0
 21
10.0001454479
 31
0.0
  0
LINE
  5
B2
330
1F
100
AcDbEntity
  8
BORDER
370
    35
100
AcDbLine
 10
1179.0
 20
220.5
 30
0.0
 11
1184.0
 21
220.5
 31
0.0
  0
LINE
  5
B3
330
1F
100
AcDbEntity
  8
BORDER
370
    50
100
AcDbLine
 10
594.5
 20
836.0
 30
0.0
 11
594.5
 21
826.0
 31
0.0
  0
LINE
  5
B4
330
1F
100
AcDbEntity
  8
BORDER
370
    50
100
AcDbLine
 10
594.5
 20
5.0
 30
0.0
 11
594.5
 21
10.0001454479
 31
0.0
  0
LINE
  5
B5
330
1F
100
AcDbEntity
  8
BORDER
370
    50
100
AcDbLine
 10
15.0
 20
420.5
 30
0.0
 11
25.0
 21
420.5
 31
0.0
  0
LINE
  5
B6
330
1F
100
AcDbEntity
  8
BORDER
370
    50
100
AcDbLine
 10
1184.0
 20
420.5
 30
0.0
 11
1174.0
 21
420.5
 31
0.0
  0
LINE
  5
B7
330
1F
100
AcDbEntity
  8
BORDER
370
    35
100
AcDbLine
 10
544.5
 20
10.0001454479
 30
0.0
 11
544.5
 21
5.0
 31
0.0
  0
LINE
  5
B8
330
1F
100
AcDbEntity
  8
BORDER
370
    35
100
AcDbLine
 10
494.5
 20
10.0001454479
 30
0.0
 11
494.5
 21
5.0
 31
0.0
  0
LINE
  5
B9
330
1F
100
AcDbEntity
  8
BORDER
370
    35
100
AcDbLine
 10
444.5
 20
10.0001454479
 30
0.0
 11
444.5
 21
5.0
 31
0.0
  0
LINE
  5
BA
330
1F
100
AcDbEntity
  8
BORDER
370
    35
100
AcDbLine
 10
394.5
 20
10.0001454479
 30
0.0
 11
394.5
 21
5.0
 31
0.0
  0
LINE
  5
BB
330
1F
100
AcDbEntity
  8
BORDER
  6
Continuous
370
    35
100
AcDbLine
 10
1079.1558991771
 20
17.3656048577
 30
0.0
 11
1074.1558991771
 21
16.1156048577
 31
0.0
  0
LINE
  5
BC
330
1F
100
AcDbEntity
  8
BORDER
370
    35
100
AcDbLine
 10
1179.0859374411
 20
33.5703270608
 30
0.0
 11
1116.0540298162
 21
33.5703270608
 31
0.0
  0
LINE
  5
BD
330
1F
100
AcDbEntity
  8
BORDER
370
    35
100
AcDbLine
 10
344.5
 20
10.0001454479
 30
0.0
 11
344.5
 21
5.0
 31
0.0
  0
LINE
  5
BE
330
1F
100
AcDbEntity
  8
BORDER
370
    35
100
AcDbLine
 10
294.5
 20
10.0001454479
 30
0.0
 11
294.5
 21
5.0
 31
0.0
  0
LINE
  5
BF
330
1F
100
AcDbEntity
  8
BORDER
370
    35
100
AcDbLine
 10
244.5
 20
10.0001454479
 30
0.0
 11
244.5
 21
5.0
 31
0.0
  0
LINE
  5
C0
330
1F
100
AcDbEntity
  8
BORDER
370
    35
100
AcDbLine
 10
194.5
 20
10.0001454479
 30
0.0
 11
194.5
 21
5.0
 31
0.0
  0
LINE
  5
C1
330
1F
100
AcDbEntity
  8
BORDER
370
    35
100
AcDbLine
 10
144.5
 20
10.0001454479
 30
0.0
 11
144.5
 21
5.0
 31
0.0
  0
LINE
  5
C2
330
1F
100
AcDbEntity
  8
BORDER
370
    35
100
AcDbLine
 10
94.5
 20
10.0001454479
 30
0.0
 11
94.5
 21
5.0
 31
0.0
  0
LINE
  5
C3
330
1F
100
AcDbEntity
  8
BORDER
370
    35
100
AcDbLine
 10
1179.0
 20
170.5
 30
0.0
 11
1184.0
 21
170.5
 31
0.0
  0
LINE
  5
C4
330
1F
100
AcDbEntity
  8
BORDER
370
    35
100
AcDbLine
 10
44.5
 20
10.0001454479
 30
0.0
 11
44.5
 21
5.0
 31
0.0
  0
LINE
  5
C5
330
1F
100
AcDbEntity
  8
BORDER
370
    35
100
AcDbLine
 10
644.5
 20
10.0001454479
 30
0.0
 11
644.5
 21
5.0
 31
0.0
  0
LINE
  5
C6
330
1F
100
AcDbEntity
  8
BORDER
370
    35
100
AcDbLine
 10
694.5
 20
10.0001454479
 30
0.0
 11
694.5
 21
5.0
 31
0.0
  0
LINE
  5
C7
330
1F
100
AcDbEntity
  8
BORDER
370
    35
100
AcDbLine
 10
744.5
 20
10.0001454479
 30
0.0
 11
744.5
 21
5.0
 31
0.0
  0
LINE
  5
C8
330
1F
100
AcDbEntity
  8
BORDER
370
    35
100
AcDbLine
 10
794.5
 20
10.0001454479
 30
0.0
 11
794.5
 21
5.0
 31
0.0
  0
LINE
  5
C9
330
1F
100
AcDbEntity
  8
BORDER
370
    35
100
AcDbLine
 10
844.5
 20
10.0001454479
 30
0.0
 11
844.5
 21
5.0
 31
0.0
  0
LINE
  5
CA
330
1F
100
AcDbEntity
  8
BORDER
370
    35
100
AcDbLine
 10
894.5
 20
10.0001454479
 30
0.0
 11
894.5
 21
5.0
 31
0.0
  0
LINE
  5
CB
330
1F
100
AcDbEntity
  8
BORDER
370
    35
100
AcDbLine
 10
944.5
 20
10.0001454479
 30
0.0
 11
944.5
 21
5.0
 31
0.0
  0
LINE
  5
CC
330
1F
100
AcDbEntity
  8
BORDER
370
    35
100
AcDbLine
 10
994.5
 20
10.0001454479
 30
0.0
 11
994.5
 21
5.0
 31
0.0
  0
LINE
  5
CD
330
1F
100
AcDbEntity
  8
BORDER
370
    35
100
AcDbLine
 10
1044.5
 20
10.0001454479
 30
0.0
 11
1044.5
 21
5.0
 31
0.0
  0
LINE
  5
CE
330
1F
100
AcDbEntity
  8
BORDER
370
    35
100
AcDbLine
 10
1094.5381397543
 20
10.0001454479
 30
0.0
 11
1094.4745747298
 21
5.0
 31
0.0
  0
LINE
  5
CF
330
1F
100
AcDbEntity
  8
BORDER
370
    35
100
AcDbLine
 10
1144.5
 20
10.0001454479
 30
0.0
 11
1144.5
 21
5.0
 31
0.0
  0
LINE
  5
D0
330
1F
100
AcDbEntity
  8
TRIM
100
AcDbLine
 10
0.0
 20
0.0
 30
0.0
 11
0.0
 21
10.0
 31
0.0
  0
LINE
  5
D1
330
1F
100
AcDbEntity
  8
BORDER
370
    35
100
AcDbLine
 10
1179.0
 20
120.5
 30
0.0
 11
1184.0
 21
120.5
 31
0.0
  0
LINE
  5
D2
330
1F
100
AcDbEntity
  8
BORDER
370
    35
100
AcDbLine
 10
1179.0
 20
70.5
 30
0.0
 11
1184.0
 21
70.5
 31
0.0
  0
LINE
  5
D3
330
1F
100
AcDbEntity
  8
TRIM
100
AcDbLine
 10
0.0
 20
10.0
 30
0.0
 11
5.0
 21
10.0
 31
0.0
  0
LINE
  5
D4
330
1F
100
AcDbEntity
  8
TRIM
100
AcDbLine
 10
5.0
 20
10.0
 30
0.0
 11
5.0
 21
5.0
 31
0.0
  0
LINE
  5
D5
330
1F
100
AcDbEntity
  8
TRIM
100
AcDbLine
 10
5.0
 20
5.0
 30
0.0
 11
10.0
 21
5.0
 31
0.0
  0
LINE
  5
D6
330
1F
100
AcDbEntity
  8
TRIM
100
AcDbLine
 10
10.0
 20
5.0
 30
0.0
 11
10.0
 21
0.0
 31
0.0
  0
LINE
  5
D7
330
1F
100
AcDbEntity
  8
TRIM
100
AcDbLine
 10
0.0
 20
841.0
 30
0.0
 11
10.0
 21
841.0
 31
0.0
  0
LINE
  5
D8
330
1F
100
AcDbEntity
  8
TRIM
100
AcDbLine
 10
10.0
 20
0.0
 30
0.0
 11
0.0
 21
0.0
 31
0.0
  0
LINE
  5
D9
330
1F
100
AcDbEntity
  8
BORDER
370
    35
100
AcDbLine
 10
15.0
 20
370.5
 30
0.0
 11
20.0
 21
370.5
 31
0.0
  0
LINE
  5
DA
330
1F
100
AcDbEntity
  8
BORDER
370
    35
100
AcDbLine
 10
15.0
 20
320.5
 30
0.0
 11
20.0
 21
320.5
 31
0.0
  0
LINE
  5
DB
330
1F
100
AcDbEntity
  8
BORDER
370
    35
100
AcDbLine
 10
15.0
 20
270.5
 30
0.0
 11
20.0
 21
270.5
 31
0.0
  0
LINE
  5
DC
330
1F
100
AcDbEntity
  8
BORDER
370
    35
100
AcDbLine
 10
15.0
 20
220.5
 30
0.0
 11
20.0
 21
220.5
 31
0.0
  0
LINE
  5
DD
330
1F
100
AcDbEntity
  8
BORDER
370
    35
100
AcDbLine
 10
15.0
 20
170.5
 30
0.0
 11
20.0
 21
170.5
 31
0.0
  0
LINE
  5
DE
330
1F
100
AcDbEntity
  8
BORDER
370
    35
100
AcDbLine
 10
15.0
 20
120.5
 30
0.0
 11
20.0
 21
120.5
 31
0.0
  0
LINE
  5
DF
330
1F
100
AcDbEntity
  8
BORDER
370
    35
100
AcDbLine
 10
15.0
 20
70.5
 30
0.0
 11
20.0
 21
70.5
 31
0.0
  0
LINE
  5
E0
330
1F
100
AcDbEntity
  8
BORDER
370
    35
100
AcDbLine
 10
15.0
 20
470.5
 30
0.0
 11
20.0
 21
470.5
 31
0.0
  0
LINE
  5
E1
330
1F
100
AcDbEntity
  8
TRIM
100
AcDbLine
 10
10.0
 20
841.0
 30
0.0
 11
10.0
 21
836.0
 31
0.0
  0
LINE
  5
E2
330
1F
100
AcDbEntity
  8
TRIM
100
AcDbLine
 10
10.0
 20
836.0
 30
0.0
 11
5.0
 21
836.0
 31
0.0
  0
LINE
  5
E3
330
1F
100
AcDbEntity
  8
TRIM
100
AcDbLine
 10
5.0
 20
836.0
 30
0.0
 11
5.0
 21
831.0
 31
0.0
  0
LINE
  5
E4
330
1F
100
AcDbEntity
  8
TRIM
100
AcDbLine
 10
5.0
 20
831.0
 30
0.0
 11
0.0
 21
831.0
 31
0.0
  0
LINE
  5
E5
330
1F
100
AcDbEntity
  8
BORDER
370
    35
100
AcDbLine
 10
15.0
 20
520.5
 30
0.0
 11
20.0
 21
520.5
 31
0.0
  0
LINE
  5
E6
330
1F
100
AcDbEntity
  8
BORDER
370
    35
100
AcDbLine
 10
15.0
 20
570.5
 30
0.0
 11
20.0
 21
570.5
 31
0.0
  0
LINE
  5
E7
330
1F
100
AcDbEntity
  8
BORDER
370
    35
100
AcDbLine
 10
15.0
 20
620.5
 30
0.0
 11
20.0
 21
620.5
 31
0.0
  0
LINE
  5
E8
330
1F
100
AcDbEntity
  8
BORDER
370
    35
100
AcDbLine
 10
15.0
 20
670.5
 30
0.0
 11
20.0
 21
670.5
 31
0.0
  0
LINE
  5
E9
330
1F
100
AcDbEntity
  8
BORDER
370
    35
100
AcDbLine
 10
15.0
 20
720.5
 30
0.0
 11
20.0
 21
720.5
 31
0.0
  0
LINE
  5
EA
330
1F
100
AcDbEntity
  8
BORDER
370
    35
100
AcDbLine
 10
15.0
 20
770.5
 30
0.0
 11
20.0
 21
770.5
 31
0.0
  0
LINE
  5
EB
330
1F
100
AcDbEntity
  8
TRIM
100
AcDbLine
 10
0.0
 20
831.0
 30
0.0
 11
0.0
 21
841.0
 31
0.0
  0
LINE
  5
EC
330
1F
100
AcDbEntity
  8
TRIM
100
AcDbLine
 10
1179.0
 20
841.0
 30
0.0
 11
1179.0
 21
836.0
 31
0.0
  0
LINE
  5
ED
330
1F
100
AcDbEntity
  8
TRIM
100
AcDbLine
 10
1179.0
 20
836.0
 30
0.0
 11
1184.0
 21
836.0
 31
0.0
  0
LINE
  5
EE
330
1F
100
AcDbEntity
  8
TRIM
100
AcDbLine
 10
1184.0
 20
831.0
 30
0.0
 11
1189.0
 21
831.0
 31
0.0
  0
LINE
  5
EF
330
1F
100
AcDbEntity
  8
TRIM
100
AcDbLine
 10
1189.0
 20
831.0
 30
0.0
 11
1189.0
 21
841.0
 31
0.0
  0
LINE
  5
F0
330
1F
100
AcDbEntity
  8
TRIM
100
AcDbLine
 10
1189.0
 20
841.0
 30
0.0
 11
1179.0
 21
841.0
 31
0.0
  0
LINE
  5
F1
330
1F
100
AcDbEntity
  8
TRIM
100
AcDbLine
 10
1184.0
 20
836.0
 30
0.0
 11
1184.0
 21
831.0
 31
0.0
  0
LINE
  5
F2
330
1F
100
AcDbEntity
  8
TRIM
100
AcDbLine
 10
1179.0
 20
0.0
 30
0.0
 11
1179.0
 21
5.0
 31
0.0
  0
LINE
  5
F3
330
1F
100
AcDbEntity
  8
BORDER
370
    35
100
AcDbLine
 10
1089.03635229
 20
24.5703270608
 30
0.0
 11
1059.0
 21
24.5703270608
 31
0.0
  0
LINE
  5
F4
330
1F
100
AcDbEntity
  8
BORDER
100
AcDbLine
 10
1071.2558991771
 20
18.0427931077
 30
0.0
 11
1071.2558991771
 21
11.5891294748
 31
0.0
  0
LINE
  5
F5
330
1F
100
AcDbEntity
  8
BORDER
370
    35
100
AcDbLine
 10
1089.03635229
 20
24.5703270608
 30
0.0
 11
1089.03635229
 21
10.0001454479
 31
0.0
  0
LINE
  5
F6
330
1F
100
AcDbEntity
  8
TRIM
100
AcDbLine
 10
1179.0
 20
5.0
 30
0.0
 11
1184.0
 21
5.0
 31
0.0
  0
LINE
  5
F7
330
1F
100
AcDbEntity
  8
TRIM
100
AcDbLine
 10
1184.0
 20
5.0
 30
0.0
 11
1184.0
 21
10.0
 31
0.0
  0
LINE
  5
F8
330
1F
100
AcDbEntity
  8
TRIM
100
AcDbLine
 10
1184.0
 20
10.0
 30
0.0
 11
1189.0
 21
10.0
 31
0.0
  0
LINE
  5
F9
330
1F
100
AcDbEntity
  8
TRIM
100
AcDbLine
 10
1189.0
 20
10.0
 30
0.0
 11
1189.0
 21
0.0
 31
0.0
  0
LINE
  5
FA
330
1F
100
AcDbEntity
  8
TRIM
100
AcDbLine
 10
1189.0
 20
0.0
 30
0.0
 11
1179.0
 21
0.0
 31
0.0
  0
CIRCLE
  5
FB
330
1F
100
AcDbEntity
  8
BORDER
  6
Continuous
370
    35
100
AcDbCircle
 10
1071.2558991771
 20
14.8656048577
 30
0.0
 40
1.249999999999946
  0
CIRCLE
  5
FC
330
1F
100
AcDbEntity
  8
BORDER
  6
Continuous
370
    35
100
AcDbCircle
 10
1071.2558991771
 20
14.8656048577
 30
0.0
 40
2.499999999999893
  0
MTEXT
  5
FE
330
1F
100
AcDbEntity
  8
BORDER
 62
     7
100
AcDbMText
 10
17.5045572398
 20
347.7394318763
 30
0.0
 40
3.5
 41
0.0
 71
     2
 72
     1
  1
K
  7
SLDTEXTSTYLE0
 73
     1
 44
1.0
  0
MTEXT
  5
FF
330
1F
100
AcDbEntity
  8
BORDER
 62
     7
100
AcDbMText
 10
17.5312933763
 20
397.7394318763
 30
0.0
 40
3.5
 41
0.0
 71
     2
 72
     1
  1
J
  7
SLDTEXTSTYLE0
 73
     1
 44
1.0
  0
MTEXT
  5
100
330
1F
100
AcDbEntity
  8
BORDER
 62
     7
100
AcDbMText
 10
17.50850699
 20
447.7394318763
 30
0.0
 40
3.5
 41
0.0
 71
     2
 72
     1
  1
H
  7
SLDTEXTSTYLE0
 73
     1
 44
1.0
  0
MTEXT
  5
101
330
1F
100
AcDbEntity
  8
BORDER
 62
     7
100
AcDbMText
 10
17.4705295293
 20
497.7394318763
 30
0.0
 40
3.5
 41
0.0
 71
     2
 72
     1
  1
G
  7
SLDTEXTSTYLE0
 73
     1
 44
1.0
  0
MTEXT
  5
102
330
1F
100
AcDbEntity
  8
BORDER
 62
     7
100
AcDbMText
 10
17.5215712227
 20
597.7394318763
 30
0.0
 40
3.5
 41
0.0
 71
     2
 72
     1
  1
E
  7
SLDTEXTSTYLE0
 73
     1
 44
1.0
  0
MTEXT
  5
103
330
1F
100
AcDbEntity
  8
BORDER
 62
     7
100
AcDbMText
 10
17.4921006672
 20
547.7394318763
 30
0.0
 40
3.5
 41
0.0
 71
     2
 72
     1
  1
F
  7
SLDTEXTSTYLE0
 73
     1
 44
1.0
  0
MTEXT
  5
104
330
1F
100
AcDbEntity
  8
BORDER
 62
     7
100
AcDbMText
 10
17.5082031069
 20
297.7394318763
 30
0.0
 40
3.5
 41
0.0
 71
     2
 72
     1
  1
L
  7
SLDTEXTSTYLE0
 73
     1
 44
1.0
  0
MTEXT
  5
105
330
1F
100
AcDbEntity
  8
BORDER
 62
     7
100
AcDbMText
 10
269.5006075893
 20
9.2213323684
 30
0.0
 40
3.5
 41
0.0
 71
     2
 72
     1
  1
6
  7
SLDTEXTSTYLE0
 73
     1
 44
1.0
  0
MTEXT
  5
106
330
1F
100
AcDbEntity
  8
BORDER
 62
     7
100
AcDbMText
 10
519.6269965786
 20
9.2706814009
 30
0.0
 40
3.5
 41
0.0
 71
     2
 72
     1
  1
11
  7
SLDTEXTSTYLE0
 73
     1
 44
1.0
  0
MTEXT
  5
107
330
1F
100
AcDbEntity
  8
BORDER
 62
     7
100
AcDbMText
 10
419.5012152772
 20
9.2213323684
 30
0.0
 40
3.5
 41
0.0
 71
     2
 72
     1
  1
9
  7
SLDTEXTSTYLE0
 73
     1
 44
1.0
  0
MTEXT
  5
108
330
1F
100
AcDbEntity
  8
BORDER
 62
     7
100
AcDbMText
 10
69.5000000177
 20
9.2394318763
 30
0.0
 40
3.5
 41
0.0
 71
     2
 72
     1
  1
2
  7
SLDTEXTSTYLE0
 73
     1
 44
1.0
  0
MTEXT
  5
109
330
1F
100
AcDbEntity
  8
BORDER
 62
     7
100
AcDbMText
 10
32.0634982893
 20
9.2394318763
 30
0.0
 40
3.5
 41
0.0
 71
     2
 72
     1
  1
1
  7
SLDTEXTSTYLE0
 73
     1
 44
1.0
  0
MTEXT
  5
10A
330
1F
100
AcDbEntity
  8
BORDER
 62
     7
100
AcDbMText
 10
219.5003038617
 20
9.2706814009
 30
0.0
 40
3.5
 41
0.0
 71
     2
 72
     1
  1
5
  7
SLDTEXTSTYLE0
 73
     1
 44
1.0
  0
MTEXT
  5
10B
330
1F
100
AcDbEntity
  8
BORDER
 62
     7
100
AcDbMText
 10
569.563498307
 20
9.2746293235
 30
0.0
 40
3.5
 41
0.0
 71
     2
 72
     1
  1
12
  7
SLDTEXTSTYLE0
 73
     1
 44
1.0
  0
MTEXT
  5
10C
330
1F
100
AcDbEntity
  8
BORDER
 62
     7
100
AcDbMText
 10
119.5021266928
 20
9.2667334783
 30
0.0
 40
3.5
 41
0.0
 71
     2
 72
     1
  1
3
  7
SLDTEXTSTYLE0
 73
     1
 44
1.0
  0
MTEXT
  5
10D
330
1F
100
AcDbEntity
  8
BORDER
 62
     7
100
AcDbMText
 10
469.5659288261
 20
9.2213323684
 30
0.0
 40
3.5
 41
0.0
 71
     2
 72
     1
  1
10
  7
SLDTEXTSTYLE0
 73
     1
 44
1.0
  0
MTEXT
  5
10E
330
1F
100
AcDbEntity
  8
BORDER
 62
     7
100
AcDbMText
 10
169.4939236036
 20
9.2213323684
 30
0.0
 40
3.5
 41
0.0
 71
     2
 72
     1
  1
4
  7
SLDTEXTSTYLE0
 73
     1
 44
1.0
  0
MTEXT
  5
10F
330
1F
100
AcDbEntity
  8
BORDER
 62
     7
100
AcDbMText
 10
319.5036457963
 20
9.2706814009
 30
0.0
 40
3.5
 41
0.0
 71
     2
 72
     1
  1
7
  7
SLDTEXTSTYLE0
 73
     1
 44
1.0
  0
MTEXT
  5
110
330
1F
100
AcDbEntity
  8
BORDER
 62
     7
100
AcDbMText
 10
369.5009114332
 20
9.2706814009
 30
0.0
 40
3.5
 41
0.0
 71
     2
 72
     1
  1
8
  7
SLDTEXTSTYLE0
 73
     1
 44
1.0
  0
MTEXT
  5
111
330
1F
100
AcDbEntity
  8
BORDER
 62
     7
100
AcDbMText
 10
17.4990885248
 20
647.7394318763
 30
0.0
 40
3.5
 41
0.0
 71
     2
 72
     1
  1
D
  7
SLDTEXTSTYLE0
 73
     1
 44
1.0
  0
MTEXT
  5
112
330
1F
100
AcDbEntity
  8
BORDER
 62
     7
100
AcDbMText
 10
17.5197482752
 20
747.7394318763
 30
0.0
 40
3.5
 41
0.0
 71
     2
 72
     1
  1
B
  7
SLDTEXTSTYLE0
 73
     1
 44
1.0
  0
MTEXT
  5
113
330
1F
100
AcDbEntity
  8
BORDER
 62
     7
100
AcDbMText
 10
17.486631969
 20
697.7394318763
 30
0.0
 40
3.5
 41
0.0
 71
     2
 72
     1
  1
C
  7
SLDTEXTSTYLE0
 73
     1
 44
1.0
  0
MTEXT
  5
114
330
1F
100
AcDbEntity
  8
BORDER
 62
     7
100
AcDbMText
 10
17.4811632317
 20
797.7394318763
 30
0.0
 40
3.5
 41
0.0
 71
     2
 72
     1
  1
A
  7
SLDTEXTSTYLE0
 73
     1
 44
1.0
  0
MTEXT
  5
115
330
1F
100
AcDbEntity
  8
BORDER
 62
     7
100
AcDbMText
 10
669.5574218929
 20
9.2357343242
 30
0.0
 40
3.5
 41
0.0
 71
     2
 72
     1
  1
14
  7
SLDTEXTSTYLE0
 73
     1
 44
1.0
  0
MTEXT
  5
116
330
1F
100
AcDbEntity
  8
BORDER
 62
     7
100
AcDbMText
 10
719.563802151
 20
9.2916120346
 30
0.0
 40
3.5
 41
0.0
 71
     2
 72
     1
  1
15
  7
SLDTEXTSTYLE0
 73
     1
 44
1.0
  0
MTEXT
  5
117
330
1F
100
AcDbEntity
  8
BORDER
 62
     7
100
AcDbMText
 10
619.5656249821
 20
9.2916120346
 30
0.0
 40
3.5
 41
0.0
 71
     2
 72
     1
  1
13
  7
SLDTEXTSTYLE0
 73
     1
 44
1.0
  0
MTEXT
  5
118
330
1F
100
AcDbEntity
  8
BORDER
 62
     7
100
AcDbMText
 10
769.564105995
 20
9.2905541748
 30
0.0
 40
3.5
 41
0.0
 71
     2
 72
     1
  1
16
  7
SLDTEXTSTYLE0
 73
     1
 44
1.0
  0
MTEXT
  5
119
330
1F
100
AcDbEntity
  8
BORDER
 62
     7
100
AcDbMText
 10
919.564713683
 20
9.2569479534
 30
0.0
 40
3.5
 41
0.0
 71
     2
 72
     1
  1
19
  7
SLDTEXTSTYLE0
 73
     1
 44
1.0
  0
MTEXT
  5
11A
330
1F
100
AcDbEntity
  8
BORDER
 62
     7
100
AcDbMText
 10
869.5644096062
 20
9.2569479534
 30
0.0
 40
3.5
 41
0.0
 71
     2
 72
     1
  1
18
  7
SLDTEXTSTYLE0
 73
     1
 44
1.0
  0
MTEXT
  5
11B
330
1F
100
AcDbEntity
  8
BORDER
 62
     7
100
AcDbMText
 10
819.5671439692
 20
9.2318380653
 30
0.0
 40
3.5
 41
0.0
 71
     2
 72
     1
  1
17
  7
SLDTEXTSTYLE0
 73
     1
 44
1.0
  0
MTEXT
  5
11C
330
1F
100
AcDbEntity
  8
BORDER
 62
     7
100
AcDbMText
 10
1069.5000000354
 20
9.2310462973
 30
0.0
 40
3.5
 41
0.0
 71
     2
 72
     1
  1
22
  7
SLDTEXTSTYLE0
 73
     1
 44
1.0
  0
MTEXT
  5
11D
330
1F
100
AcDbEntity
  8
BORDER
 62
     7
100
AcDbMText
 10
1019.563498307
 20
9.2569479534
 30
0.0
 40
3.5
 41
0.0
 71
     2
 72
     1
  1
21
  7
SLDTEXTSTYLE0
 73
     1
 44
1.0
  0
MTEXT
  5
11E
330
1F
100
AcDbEntity
  8
BORDER
 62
     7
100
AcDbMText
 10
969.5024305545
 20
9.2569479534
 30
0.0
 40
3.5
 41
0.0
 71
     2
 72
     1
  1
20
  7
SLDTEXTSTYLE0
 73
     1
 44
1.0
  0
MTEXT
  5
11F
330
1F
100
AcDbEntity
  8
BORDER
 62
     7
100
AcDbMText
 10
1119.5021267105
 20
9.2310462973
 30
0.0
 40
3.5
 41
0.0
 71
     2
 72
     1
  1
23
  7
SLDTEXTSTYLE0
 73
     1
 44
1.0
  0
MTEXT
  5
120
330
1F
100
AcDbEntity
  8
BORDER
 62
     7
100
AcDbMText
 10
1169.4939236213
 20
9.2310462973
 30
0.0
 40
3.5
 41
0.0
 71
     2
 72
     1
  1
24
  7
SLDTEXTSTYLE0
 73
     1
 44
1.0
  0
MTEXT
  5
121
330
1F
100
AcDbEntity
  8
BORDER
 62
     7
100
AcDbMText
 10
17.4595919605
 20
97.7394318763
 30
0.0
 40
3.5
 41
0.0
 71
     2
 72
     1
  1
Q
  7
SLDTEXTSTYLE0
 73
     1
 44
1.0
  0
MTEXT
  5
122
330
1F
100
AcDbEntity
  8
BORDER
 62
     7
100
AcDbMText
 10
17.5179253276
 20
147.7394318763
 30
0.0
 40
3.5
 41
0.0
 71
     2
 72
     1
  1
P
  7
SLDTEXTSTYLE0
 73
     1
 44
1.0
  0
MTEXT
  5
123
330
1F
100
AcDbEntity
  8
BORDER
 62
     7
100
AcDbMText
 10
17.5072916141
 20
197.7394318763
 30
0.0
 40
3.5
 41
0.0
 71
     2
 72
     1
  1
N
  7
SLDTEXTSTYLE0
 73
     1
 44
1.0
  0
MTEXT
  5
124
330
1F
100
AcDbEntity
  8
BORDER
 62
     7
100
AcDbMText
 10
17.4562499207
 20
247.7394318763
 30
0.0
 40
3.5
 41
0.0
 71
     2
 72
     1
  1
M
  7
SLDTEXTSTYLE0
 73
     1
 44
1.0
  0
MTEXT
  5
125
330
1F
100
AcDbEntity
  8
BORDER
 62
     7
100
AcDbMText
 10
17.4878472285
 20
47.7394318763
 30
0.0
 40
3.5
 41
0.0
 71
     2
 72
     1
  1
R
  7
SLDTEXTSTYLE0
 73
     1
 44
1.0
  0
MTEXT
  5
126
330
1F
100
AcDbEntity
  8
BORDER
 62
     7
100
AcDbMText
 10
869.5644096062
 20
835.2738736199
 30
0.0
 40
3.5
 41
0.0
 71
     2
 72
     1
  1
18
  7
SLDTEXTSTYLE0
 73
     1
 44
1.0
  0
MTEXT
  5
127
330
1F
100
AcDbEntity
  8
BORDER
 62
     7
100
AcDbMText
 10
1169.4939236213
 20
835.2738736199
 30
0.0
 40
3.5
 41
0.0
 71
     2
 72
     1
  1
24
  7
SLDTEXTSTYLE0
 73
     1
 44
1.0
  0
MTEXT
  5
128
330
1F
100
AcDbEntity
  8
BORDER
 62
     7
100
AcDbMText
 10
1119.5021267105
 20
835.2738736199
 30
0.0
 40
3.5
 41
0.0
 71
     2
 72
     1
  1
23
  7
SLDTEXTSTYLE0
 73
     1
 44
1.0
  0
MTEXT
  5
129
330
1F
100
AcDbEntity
  8
BORDER
 62
     7
100
AcDbMText
 10
969.5024305545
 20
835.2738736199
 30
0.0
 40
3.5
 41
0.0
 71
     2
 72
     1
  1
20
  7
SLDTEXTSTYLE0
 73
     1
 44
1.0
  0
MTEXT
  5
12A
330
1F
100
AcDbEntity
  8
BORDER
 62
     7
100
AcDbMText
 10
1019.563498307
 20
835.2738736199
 30
0.0
 40
3.5
 41
0.0
 71
     2
 72
     1
  1
21
  7
SLDTEXTSTYLE0
 73
     1
 44
1.0
  0
MTEXT
  5
12B
330
1F
100
AcDbEntity
  8
BORDER
 62
     7
100
AcDbMText
 10
1069.5000000354
 20
835.2738736199
 30
0.0
 40
3.5
 41
0.0
 71
     2
 72
     1
  1
22
  7
SLDTEXTSTYLE0
 73
     1
 44
1.0
  0
MTEXT
  5
12C
330
1F
100
AcDbEntity
  8
BORDER
 62
     7
100
AcDbMText
 10
919.564713683
 20
835.2738736199
 30
0.0
 40
3.5
 41
0.0
 71
     2
 72
     1
  1
19
  7
SLDTEXTSTYLE0
 73
     1
 44
1.0
  0
MTEXT
  5
12D
330
1F
100
AcDbEntity
  8
BORDER
 62
     7
100
AcDbMText
 10
69.5000000177
 20
835.2394318763
 30
0.0
 40
3.5
 41
0.0
 71
     2
 72
     1
  1
2
  7
SLDTEXTSTYLE0
 73
     1
 44
1.0
  0
MTEXT
  5
12E
330
1F
100
AcDbEntity
  8
BORDER
 62
     7
100
AcDbMText
 10
32.0634982893
 20
835.2394318763
 30
0.0
 40
3.5
 41
0.0
 71
     2
 72
     1
  1
1
  7
SLDTEXTSTYLE0
 73
     1
 44
1.0
  0
MTEXT
  5
12F
330
1F
100
AcDbEntity
  8
BORDER
 62
     7
100
AcDbMText
 10
119.5021266928
 20
835.2361709749
 30
0.0
 40
3.5
 41
0.0
 71
     2
 72
     1
  1
3
  7
SLDTEXTSTYLE0
 73
     1
 44
1.0
  0
MTEXT
  5
130
330
1F
100
AcDbEntity
  8
BORDER
 62
     7
100
AcDbMText
 10
269.5006075893
 20
835.2361709749
 30
0.0
 40
3.5
 41
0.0
 71
     2
 72
     1
  1
6
  7
SLDTEXTSTYLE0
 73
     1
 44
1.0
  0
MTEXT
  5
131
330
1F
100
AcDbEntity
  8
BORDER
 62
     7
100
AcDbMText
 10
219.5003038617
 20
835.2361709749
 30
0.0
 40
3.5
 41
0.0
 71
     2
 72
     1
  1
5
  7
SLDTEXTSTYLE0
 73
     1
 44
1.0
  0
MTEXT
  5
132
330
1F
100
AcDbEntity
  8
BORDER
 62
     7
100
AcDbMText
 10
169.4939236036
 20
835.2361709749
 30
0.0
 40
3.5
 41
0.0
 71
     2
 72
     1
  1
4
  7
SLDTEXTSTYLE0
 73
     1
 44
1.0
  0
MTEXT
  5
133
330
1F
100
AcDbEntity
  8
BORDER
 62
     7
100
AcDbMText
 10
319.5036457963
 20
835.2361709749
 30
0.0
 40
3.5
 41
0.0
 71
     2
 72
     1
  1
7
  7
SLDTEXTSTYLE0
 73
     1
 44
1.0
  0
MTEXT
  5
134
330
1F
100
AcDbEntity
  8
BORDER
 62
     7
100
AcDbMText
 10
519.6269965786
 20
835.2361709749
 30
0.0
 40
3.5
 41
0.0
 71
     2
 72
     1
  1
11
  7
SLDTEXTSTYLE0
 73
     1
 44
1.0
  0
MTEXT
  5
135
330
1F
100
AcDbEntity
  8
BORDER
 62
     7
100
AcDbMText
 10
469.5659288261
 20
835.2361709749
 30
0.0
 40
3.5
 41
0.0
 71
     2
 72
     1
  1
10
  7
SLDTEXTSTYLE0
 73
     1
 44
1.0
  0
MTEXT
  5
136
330
1F
100
AcDbEntity
  8
BORDER
 62
     7
100
AcDbMText
 10
419.5012152772
 20
835.2361709749
 30
0.0
 40
3.5
 41
0.0
 71
     2
 72
     1
  1
9
  7
SLDTEXTSTYLE0
 73
     1
 44
1.0
  0
MTEXT
  5
137
330
1F
100
AcDbEntity
  8
BORDER
 62
     7
100
AcDbMText
 10
369.5009114332
 20
835.2361709749
 30
0.0
 40
3.5
 41
0.0
 71
     2
 72
     1
  1
8
  7
SLDTEXTSTYLE0
 73
     1
 44
1.0
  0
MTEXT
  5
138
330
1F
100
AcDbEntity
  8
BORDER
 62
     7
100
AcDbMText
 10
569.563498307
 20
835.2361709749
 30
0.0
 40
3.5
 41
0.0
 71
     2
 72
     1
  1
12
  7
SLDTEXTSTYLE0
 73
     1
 44
1.0
  0
MTEXT
  5
139
330
1F
100
AcDbEntity
  8
BORDER
 62
     7
100
AcDbMText
 10
819.5671439692
 20
835.2738736199
 30
0.0
 40
3.5
 41
0.0
 71
     2
 72
     1
  1
17
  7
SLDTEXTSTYLE0
 73
     1
 44
1.0
  0
MTEXT
  5
13A
330
1F
100
AcDbEntity
  8
BORDER
 62
     7
100
AcDbMText
 10
769.564105995
 20
835.2738736199
 30
0.0
 40
3.5
 41
0.0
 71
     2
 72
     1
  1
16
  7
SLDTEXTSTYLE0
 73
     1
 44
1.0
  0
MTEXT
  5
13B
330
1F
100
AcDbEntity
  8
BORDER
 62
     7
100
AcDbMText
 10
719.563802151
 20
835.2738736199
 30
0.0
 40
3.5
 41
0.0
 71
     2
 72
     1
  1
15
  7
SLDTEXTSTYLE0
 73
     1
 44
1.0
  0
MTEXT
  5
13C
330
1F
100
AcDbEntity
  8
BORDER
 62
     7
100
AcDbMText
 10
669.5574218929
 20
835.2738736199
 30
0.0
 40
3.5
 41
0.0
 71
     2
 72
     1
  1
14
  7
SLDTEXTSTYLE0
 73
     1
 44
1.0
  0
MTEXT
  5
13D
330
1F
100
AcDbEntity
  8
BORDER
 62
     7
100
AcDbMText
 10
619.5656249821
 20
835.2361709749
 30
0.0
 40
3.5
 41
0.0
 71
     2
 72
     1
  1
13
  7
SLDTEXTSTYLE0
 73
     1
 44
1.0
  0
MTEXT
  5
13E
330
1F
100
AcDbEntity
  8
BORDER
 62
     7
100
AcDbMText
 10
1181.4811632317
 20
797.7394318763
 30
0.0
 40
3.5
 41
0.0
 71
     2
 72
     1
  1
A
  7
SLDTEXTSTYLE0
 73
     1
 44
1.0
  0
MTEXT
  5
13F
330
1F
100
AcDbEntity
  8
BORDER
 62
     7
100
AcDbMText
 10
1181.4921006672
 20
547.7394318763
 30
0.0
 40
3.5
 41
0.0
 71
     2
 72
     1
  1
F
  7
SLDTEXTSTYLE0
 73
     1
 44
1.0
  0
MTEXT
  5
140
330
1F
100
AcDbEntity
  8
BORDER
 62
     7
100
AcDbMText
 10
1181.5215712227
 20
597.7394318763
 30
0.0
 40
3.5
 41
0.0
 71
     2
 72
     1
  1
E
  7
SLDTEXTSTYLE0
 73
     1
 44
1.0
  0
MTEXT
  5
141
330
1F
100
AcDbEntity
  8
BORDER
 62
     7
100
AcDbMText
 10
1181.4990885248
 20
647.7394318763
 30
0.0
 40
3.5
 41
0.0
 71
     2
 72
     1
  1
D
  7
SLDTEXTSTYLE0
 73
     1
 44
1.0
  0
MTEXT
  5
142
330
1F
100
AcDbEntity
  8
BORDER
 62
     7
100
AcDbMText
 10
1181.486631969
 20
697.7394318763
 30
0.0
 40
3.5
 41
0.0
 71
     2
 72
     1
  1
C
  7
SLDTEXTSTYLE0
 73
     1
 44
1.0
  0
MTEXT
  5
143
330
1F
100
AcDbEntity
  8
BORDER
 62
     7
100
AcDbMText
 10
1181.5197482752
 20
747.7394318763
 30
0.0
 40
3.5
 41
0.0
 71
     2
 72
     1
  1
B
  7
SLDTEXTSTYLE0
 73
     1
 44
1.0
  0
MTEXT
  5
144
330
1F
100
AcDbEntity
  8
BORDER
 62
     7
100
AcDbMText
 10
1181.4705295293
 20
497.7394318763
 30
0.0
 40
3.5
 41
0.0
 71
     2
 72
     1
  1
G
  7
SLDTEXTSTYLE0
 73
     1
 44
1.0
  0
MTEXT
  5
145
330
1F
100
AcDbEntity
  8
BORDER
 62
     7
100
AcDbMText
 10
1181.50850699
 20
447.7394318763
 30
0.0
 40
3.5
 41
0.0
 71
     2
 72
     1
  1
H
  7
SLDTEXTSTYLE0
 73
     1
 44
1.0
  0
MTEXT
  5
146
330
1F
100
AcDbEntity
  8
BORDER
 62
     7
100
AcDbMText
 10
1181.5312933763
 20
397.7394318763
 30
0.0
 40
3.5
 41
0.0
 71
     2
 72
     1
  1
J
  7
SLDTEXTSTYLE0
 73
     1
 44
1.0
  0
MTEXT
  5
147
330
1F
100
AcDbEntity
  8
BORDER
 62
     7
100
AcDbMText
 10
1181.5045572398
 20
347.7394318763
 30
0.0
 40
3.5
 41
0.0
 71
     2
 72
     1
  1
K
  7
SLDTEXTSTYLE0
 73
     1
 44
1.0
  0
MTEXT
  5
148
330
1F
100
AcDbEntity
  8
BORDER
 62
     7
100
AcDbMText
 10
1181.5082031069
 20
297.7394318763
 30
0.0
 40
3.5
 41
0.0
 71
     2
 72
     1
  1
L
  7
SLDTEXTSTYLE0
 73
     1
 44
1.0
  0
MTEXT
  5
149
330
1F
100
AcDbEntity
  8
BORDER
 62
     7
100
AcDbMText
 10
1181.4562499207
 20
247.7394318763
 30
0.0
 40
3.5
 41
0.0
 71
     2
 72
     1
  1
M
  7
SLDTEXTSTYLE0
 73
     1
 44
1.0
  0
MTEXT
  5
14A
330
1F
100
AcDbEntity
  8
BORDER
 62
     7
100
AcDbMText
 10
1181.5179253276
 20
147.7394318763
 30
0.0
 40
3.5
 41
0.0
 71
     2
 72
     1
  1
P
  7
SLDTEXTSTYLE0
 73
     1
 44
1.0
  0
MTEXT
  5
14B
330
1F
100
AcDbEntity
  8
BORDER
 62
     7
100
AcDbMText
 10
1181.4595919605
 20
97.7394318763
 30
0.0
 40
3.5
 41
0.0
 71
     2
 72
     1
  1
Q
  7
SLDTEXTSTYLE0
 73
     1
 44
1.0
  0
MTEXT
  5
14C
330
1F
100
AcDbEntity
  8
BORDER
 62
     7
100
AcDbMText
 10
1181.4878472285
 20
47.7394318763
 30
0.0
 40
3.5
 41
0.0
 71
     2
 72
     1
  1
R
  7
SLDTEXTSTYLE0
 73
     1
 44
1.0
  0
MTEXT
  5
14D
330
1F
100
AcDbEntity
  8
BORDER
 62
     7
100
AcDbMText
 10
1181.5072916141
 20
197.7394318763
 30
0.0
 40
3.5
 41
0.0
 71
     2
 72
     1
  1
N
  7
SLDTEXTSTYLE0
 73
     1
 44
1.0
  0
MTEXT
  5
14E
330
1F
100
AcDbEntity
  8
BORDER
100
AcDbMText
 10
1153.9469767685
 20
23.844387424
 30
0.0
 40
1.8
 41
0.0
 71
     1
 72
     1
  1
Sheet:
  7
SLDTEXTSTYLE0
 73
     1
 44
1.0
  0
MTEXT
  5
14F
330
1F
100
AcDbEntity
  8
BORDER
100
AcDbMText
 10
1168.3555403807
 20
23.844387424
 30
0.0
 40
1.8
 41
0.0
 71
     1
 72
     1
  1
Revision:
  7
SLDTEXTSTYLE0
 73
     1
 44
1.0
  0
MTEXT
  5
150
330
1F
100
AcDbEntity
  8
BORDER
100
AcDbMText
 10
1117.6126923288
 20
23.844387424
 30
0.0
 40
1.8
 41
0.0
 71
     1
 72
     1
  1
Material:
  7
SLDTEXTSTYLE0
 73
     1
 44
1.0
  0
MTEXT
  5
152
330
1F
100
AcDbEntity
  8
BORDER
100
AcDbMText
 10
1154.5373266333
 20
18.0329388308
 30
0.0
 40
2.5
 41
0.0
 71
     1
 72
     1
  1
1 of 1
  7
SLDTEXTSTYLE1
 73
     1
 44
1.0
  0
MTEXT
  5
153
330
1F
100
AcDbEntity
  8
BORDER
100
AcDbMText
 10
1117.4423007072
 20
41.5778074247
 30
0.0
 40
1.8
 41
0.0
 71
     1
 72
     1
  1
Checked/Approved by:
  7
SLDTEXTSTYLE0
 73
     1
 44
1.0
  0
INSERT
  5
159
330
1F
100
AcDbEntity
  8
BORDER
100
AcDbBlockReference
  2
SW_NOTE_0
 10
1061.0713434944
 20
21.6258903222
 30
0.0
  0
MTEXT
  5
15A
330
1F
100
AcDbEntity
  8
BORDER
100
AcDbMText
 10
1097.2642359313
 20
23.9868716954
 30
0.0
 40
1.8
 41
0.0
 71
     2
 72
     1
  1
Sheet Size:
  7
SLDTEXTSTYLE0
 73
     1
 44
1.0
  0
MTEXT
  5
15C
330
1F
100
AcDbEntity
  8
BORDER
100
AcDbMText
 10
1103.6191254967
 20
18.2402228607
 30
0.0
 40
5.0
 41
0.0
 71
     2
 72
     1
  1
A0
  7
SLDTEXTSTYLE2
 73
     1
 44
1.0
  0
MTEXT
  5
15D
330
1F
100
AcDbEntity
  8
BORDER
100
AcDbMText
 10
1117.2543782092
 20
50.2222423329
 30
0.0
 40
1.8
 41
0.0
 71
     1
 72
     1
  1
Drawn by:
  7
SLDTEXTSTYLE0
 73
     1
 44
1.0
  0
MTEXT
  5
15E
330
1F
100
AcDbEntity
  8
BORDER
100
AcDbMText
 10
1148.6488980138
 20
50.2846243148
 30
0.0
 40
1.8520833333
 41
0.0
 71
     1
 72
     1
  1
Drawn Date:
  7
SLDTEXTSTYLE0
 73
     1
 44
1.0
  0
MTEXT
  5
15F
330
1F
100
AcDbEntity
  8
BORDER
100
AcDbMText
 10
1148.6488980138
 20
41.6401894066
 30
0.0
 40
1.8520833333
 41
0.0
 71
     1
 72
     1
  1
Checked/Approved Date:
  7
SLDTEXTSTYLE0
 73
     1
 44
1.0
  0
MTEXT
  5
160
330
1F
100
AcDbEntity
  8
BORDER
100
AcDbMText
 10
1138.1722245713
 20
30.373045594
 30
0.0
 40
1.8520833333
 41
0.0
 71
     1
 72
     1
  1
Drawing Scale:
  7
SLDTEXTSTYLE0
 73
     1
 44
1.0
  0
MTEXT
  5
161
330
1F
100
AcDbEntity
  8
BORDER
100
AcDbMText
 10
1117.2543782092
 20
46.5606398143
 30
0.0
 40
2.5
 41
0.0
 71
     1
 72
     1
  1
Le Xuan Tung
  7
SLDTEXTSTYLE0
 73
     1
 44
1.0
  0
MTEXT
  5
162
330
1F
100
AcDbEntity
  8
BORDER
100
AcDbMText
 10
1148.6488980138
 20
46.5606398143
 30
0.0
 40
2.5
 41
0.0
 71
     1
 72
     1
  1
2021
  7
SLDTEXTSTYLE0
 73
     1
 44
1.0
  0
MTEXT
  5
163
330
1F
100
AcDbEntity
  8
BORDER
100
AcDbMText
 10
1117.6302232052
 20
37.2476544519
 30
0.0
 40
2.5
 41
0.0
 71
     1
 72
     1
  1
Nguyen Van Tung
  7
SLDTEXTSTYLE0
 73
     1
 44
1.0
  0
MTEXT
  5
164
330
1F
100
AcDbEntity
  8
BORDER
100
AcDbMText
 10
1148.6488980138
 20
37.2476544519
 30
0.0
 40
2.5
 41
0.0
 71
     1
 72
     1
  1
2021
  7
SLDTEXTSTYLE0
 73
     1
 44
1.0
  0
MTEXT
  5
165
330
1F
100
AcDbEntity
  8
BORDER
100
AcDbMText
 10
1170.81122894
 20
18.4486459432
 30
0.0
 40
2.6458333333
 41
0.0
 71
     1
 72
     1
  1
0A
  7
SLDTEXTSTYLE0
 73
     1
 44
1.0
  0
MTEXT
  5
166
330
1F
100
AcDbEntity
  8
BORDER
100
AcDbMText
 10
1156.775855864
 20
31.0038443616
 30
0.0
 40
2.5
 41
0.0
 71
     1
 72
     1
  1
2:1
  7
SLDTEXTSTYLE0
 73
     1
 44
1.0
  0
MTEXT
  5
167
330
1F
100
AcDbEntity
  8
BORDER
100
AcDbMText
 10
1136.4840424281
 20
23.844387424
 30
0.0
 40
1.8
 41
0.0
 71
     1
 72
     1
  1
Qty:
  7
SLDTEXTSTYLE0
 73
     1
 44
1.0
  0
MTEXT
  5
168
330
1F
100
AcDbEntity
  8
BORDER
100
AcDbMText
 10
1141.7267976309
 20
18.0329388308
 30
0.0
 40
2.5
 41
0.0
 71
     1
 72
     1
  1
04
  7
SLDTEXTSTYLE0
 73
     1
 44
1.0
  0
MTEXT
  5
169
330
1F
100
AcDbEntity
  8
BORDER
100
AcDbMText
 10
1119.7048576257
 20
18.6972530792
 30
0.0
 40
2.5
 41
0.0
 71
     1
 72
     1
  1
SS400 t3
  7
SLDTEXTSTYLE0
 73
     1
 44
1.0
  0
MTEXT
  5
16A
330
1F
100
AcDbEntity
  8
BORDER
100
AcDbMText
 10
1125.5672099915
 20
31.0038443616
 30
0.0
 40
2.5
 41
0.0
 71
     1
 72
     1
  1
mm
  7
SLDTEXTSTYLE0
 73
     1
 44
1.0
  0
MTEXT
  5
16B
330
1F
100
AcDbEntity
  8
BORDER
100
AcDbMText
 10
1117.6463813351
 20
30.373045594
 30
0.0
 40
1.8520833333
 41
0.0
 71
     1
 72
     1
  1
Unit:
  7
SLDTEXTSTYLE0
 73
     1
 44
1.0
  0
MTEXT
  5
16C
330
1F
100
AcDbEntity
  8
BORDER
100
AcDbMText
 10
1061.0827781832
 20
29.502748904
 30
0.0
 40
2.5
 41
0.0
 71
     1
 72
     1
  1
009_Caster_cover_part1_SR
  7
SLDTEXTSTYLE2
 73
     1
 44
1.0
  0
MTEXT
  5
16D
330
1F
100
AcDbEntity
  8
BORDER
100
AcDbMText
 10
1060.9040651123
 20
32.3841853028
 30
0.0
 40
1.8
 41
0.0
 71
     1
 72
     1
  1
Description:
  7
SLDTEXTSTYLE0
 73
     1
 44
1.0
  0
MTEXT
  5
16E
330
1F
100
AcDbEntity
  8
BORDER
100
AcDbMText
 10
1061.2335972963
 20
42.7271810213
 30
0.0
 40
2.5
 41
0.0
 71
     1
 72
     1
  1
SERVICE ROBOT
  7
SLDTEXTSTYLE2
 73
     1
 44
1.0
  0
MTEXT
  5
16F
330
1F
100
AcDbEntity
  8
BORDER
100
AcDbMText
 10
1061.0058789697
 20
46.3271241154
 30
0.0
 40
1.8
 41
0.0
 71
     1
 72
     1
  1
Project:
  7
SLDTEXTSTYLE0
 73
     1
 44
1.0
  0
INSERT
  5
178
330
1F
100
AcDbEntity
  8
BORDER
100
AcDbBlockReference
  2
SW_NOTE_1
 10
1059.3903030665
 20
70.3808091667
 30
0.0
  0
LINE
  5
179
330
1F
100
AcDbEntity
  8
0
  6
Continuous
 62
     7
370
    25
100
AcDbLine
 10
325.4651961961
 20
632.8805477616
 30
0.0
 11
325.4651961961
 21
550.8805477616
 31
0.0
  0
LINE
  5
17A
330
1F
100
AcDbEntity
  8
0
  6
Continuous
 62
     7
370
    25
100
AcDbLine
 10
325.4651961961
 20
550.8805477616
 30
0.0
 11
345.4651961961
 21
550.8805477616
 31
0.0
  0
LINE
  5
17B
330
1F
100
AcDbEntity
  8
0
  6
Continuous
 62
     7
370
    25
100
AcDbLine
 10
325.4651961961
 20
632.8805477616
 30
0.0
 11
345.4651961961
 21
632.8805477616
 31
0.0
  0
LINE
  5
17C
330
1F
100
AcDbEntity
  8
0
  6
Continuous
 62
     7
370
    25
100
AcDbLine
 10
440.4651961961
 20
638.8805477616
 30
0.0
 11
390.4651961961
 21
638.8805477616
 31
0.0
  0
LINE
  5
17D
330
1F
100
AcDbEntity
  8
0
  6
Continuous
 62
     7
370
    25
100
AcDbLine
 10
440.4651961961
 20
632.8805477616
 30
0.0
 11
440.4651961961
 21
638.8805477616
 31
0.0
  0
LINE
  5
17E
330
1F
100
AcDbEntity
  8
0
  6
Continuous
 62
     7
370
    25
100
AcDbLine
 10
440.4651961961
 20
632.8805477616
 30
0.0
 11
485.4651961961
 21
632.8805477616
 31
0.0
  0
LINE
  5
17F
330
1F
100
AcDbEntity
  8
0
  6
Continuous
 62
     7
370
    25
100
AcDbLine
 10
390.4651961961
 20
638.8805477616
 30
0.0
 11
390.4651961961
 21
632.8805477616
 31
0.0
  0
LINE
  5
180
330
1F
100
AcDbEntity
  8
0
  6
Continuous
 62
     7
370
    25
100
AcDbLine
 10
440.4651961961
 20
558.8805477616
 30
0.0
 11
390.4651961961
 21
558.8805477616
 31
0.0
  0
LINE
  5
181
330
1F
100
AcDbEntity
  8
0
  6
Continuous
 62
     7
370
    25
100
AcDbLine
 10
440.4651961961
 20
558.8805477616
 30
0.0
 11
440.4651961961
 21
550.8805477616
 31
0.0
  0
LINE
  5
182
330
1F
100
AcDbEntity
  8
0
  6
Continuous
 62
     7
370
    25
100
AcDbLine
 10
440.4651961961
 20
550.8805477616
 30
0.0
 11
485.4651961961
 21
550.8805477616
 31
0.0
  0
LINE
  5
183
330
1F
100
AcDbEntity
  8
0
  6
Continuous
 62
     7
370
    25
100
AcDbLine
 10
390.4651961961
 20
558.8805477616
 30
0.0
 11
390.4651961961
 21
550.8805477616
 31
0.0
  0
LINE
  5
184
330
1F
100
AcDbEntity
  8
0
  6
Continuous
 62
     7
370
    25
100
AcDbLine
 10
345.4651961961
 20
632.8805477616
 30
0.0
 11
390.4651961961
 21
632.8805477616
 31
0.0
  0
LINE
  5
185
330
1F
100
AcDbEntity
  8
0
  6
Continuous
 62
     7
370
    25
100
AcDbLine
 10
345.4651961961
 20
550.8805477616
 30
0.0
 11
390.4651961961
 21
550.8805477616
 31
0.0
  0
LINE
  5
186
330
1F
100
AcDbEntity
  8
0
  6
Continuous
 62
     7
370
    25
100
AcDbLine
 10
505.4651961961
 20
632.8805477616
 30
0.0
 11
505.4651961961
 21
550.8805477616
 31
0.0
  0
LINE
  5
187
330
1F
100
AcDbEntity
  8
0
  6
Continuous
 62
     7
370
    25
100
AcDbLine
 10
485.4651961961
 20
550.8805477616
 30
0.0
 11
505.4651961961
 21
550.8805477616
 31
0.0
  0
LINE
  5
188
330
1F
100
AcDbEntity
  8
0
  6
Continuous
 62
     7
370
    25
100
AcDbLine
 10
485.4651961961
 20
632.8805477616
 30
0.0
 11
505.4651961961
 21
632.8805477616
 31
0.0
  0
LINE
  5
189
330
1F
100
AcDbEntity
  8
0
  6
Continuous
 62
     7
370
    25
100
AcDbLine
 10
331.4651961961
 20
638.8805477616
 30
0.0
 11
325.4651961961
 21
638.8805477616
 31
0.0
  0
LINE
  5
18A
330
1F
100
AcDbEntity
  8
0
  6
Continuous
 62
     7
370
    25
100
AcDbLine
 10
331.4651961961
 20
632.8805477616
 30
0.0
 11
331.4651961961
 21
638.8805477616
 31
0.0
  0
LINE
  5
18B
330
1F
100
AcDbEntity
  8
0
  6
Continuous
 62
     7
370
    25
100
AcDbLine
 10
325.4651961961
 20
632.8805477616
 30
0.0
 11
325.4651961961
 21
638.8805477616
 31
0.0
  0
LINE
  5
18C
330
1F
100
AcDbEntity
  8
0
  6
Continuous
 62
     7
370
    25
100
AcDbLine
 10
440.4651961961
 20
550.8805477616
 30
0.0
 11
390.4651961961
 21
550.8805477616
 31
0.0
  0
LINE
  5
18D
330
1F
100
AcDbEntity
  8
0
  6
PHANTOM
 62
     8
370
    18
100
AcDbLine
 10
345.4651961961
 20
632.8805477616
 30
0.0
 11
345.4651961961
 21
550.8805477616
 31
0.0
  0
LINE
  5
18E
330
1F
100
AcDbEntity
  8
0
  6
PHANTOM
 62
     8
370
    18
100
AcDbLine
 10
485.4651961961
 20
632.8805477616
 30
0.0
 11
485.4651961961
 21
550.8805477616
 31
0.0
  0
DIMENSION
  5
18F
330
1F
100
AcDbEntity
  8
BORDER
100
AcDbDimension
  2
_D
 10
309.4651961961
 20
550.8805477616
 30
0.0
 11
309.4651961961
 21
591.7136710208
 31
0.0
 70
   160
  1
<>
 71
     2
 42
-1.0
  3
SLDDIMSTYLE0
100
AcDbAlignedDimension
 13
390.4651961961
 23
638.8805477616
 33
0.0
 14
325.4651961961
 24
550.8805477616
 34
0.0
 50
90.0
100
AcDbRotatedDimension
  0
DIMENSION
  5
19A
330
1F
100
AcDbEntity
  8
BORDER
100
AcDbDimension
  2
_D_1
 10
505.4651961961
 20
525.5701001028
 30
0.0
 11
415.4725935578
 21
525.5701001028
 31
0.0
 70
   160
  1
<>
 71
     2
 42
-1.0
  3
SLDDIMSTYLE0
100
AcDbAlignedDimension
 13
325.4651961961
 23
550.8805477616
 33
0.0
 14
505.4651961961
 24
550.8805477616
 34
0.0
100
AcDbRotatedDimension
  0
DIMENSION
  5
1A4
330
1F
100
AcDbEntity
  8
BORDER
100
AcDbDimension
  2
_D_2
 10
390.4651961961
 20
656.0349114251
 30
0.0
 11
417.1194313829
 21
656.0349114251
 31
0.0
 70
   160
  1
<>
 71
     2
 42
-1.0
  3
SLDDIMSTYLE0
100
AcDbAlignedDimension
 13
440.4651961961
 23
638.8805477616
 33
0.0
 14
390.4651961961
 24
638.8805477616
 34
0.0
100
AcDbRotatedDimension
  0
DIMENSION
  5
1AE
330
1F
100
AcDbEntity
  8
BORDER
100
AcDbDimension
  2
_D_3
 10
318.4814406587
 20
632.8805477616
 30
0.0
 11
318.4814406587
 21
646.3799061752
 31
0.0
 70
   160
  1
<>
 71
     2
 42
-1.0
  3
SLDDIMSTYLE1
100
AcDbAlignedDimension
 13
390.4651961961
 23
638.8805477616
 33
0.0
 14
325.4651961961
 24
632.8805477616
 34
0.0
 50
90.0
100
AcDbRotatedDimension
  0
DIMENSION
  5
1BB
330
1F
100
AcDbEntity
  8
BORDER
100
AcDbDimension
  2
_D_4
 10
521.4651961961
 20
550.8805477616
 30
0.0
 11
521.4651961961
 21
567.2339014905
 31
0.0
 70
   160
  1
<>
 71
     2
 42
-1.0
  3
SLDDIMSTYLE0
100
AcDbAlignedDimension
 13
440.4651961961
 23
558.8805477616
 33
0.0
 14
505.4651961961
 24
550.8805477616
 34
0.0
 50
90.0
100
AcDbRotatedDimension
  0
LINE
  5
1C6
330
1F
100
AcDbEntity
  8
0
  6
Continuous
 62
     7
370
    25
100
AcDbLine
 10
779.0623333966
 20
632.8805477616
 30
0.0
 11
779.0623333966
 21
550.8805477616
 31
0.0
  0
LINE
  5
1C7
330
1F
100
AcDbEntity
  8
0
  6
Continuous
 62
     7
370
    25
100
AcDbLine
 10
779.0623333966
 20
550.8805477616
 30
0.0
 11
848.5623333966
 21
550.8805477616
 31
0.0
  0
LINE
  5
1C8
330
1F
100
AcDbEntity
  8
0
  6
Continuous
 62
     7
370
    25
100
AcDbLine
 10
779.0623333966
 20
632.8805477616
 30
0.0
 11
848.5623333966
 21
632.8805477616
 31
0.0
  0
LINE
  5
1C9
330
1F
100
AcDbEntity
  8
0
  6
Continuous
 62
     7
370
    25
100
AcDbLine
 10
688.5623333966
 20
632.8805477616
 30
0.0
 11
688.5623333966
 21
550.8805477616
 31
0.0
  0
LINE
  5
1CA
330
1F
100
AcDbEntity
  8
0
  6
Continuous
 62
     7
370
    25
100
AcDbLine
 10
688.5623333966
 20
550.8805477616
 30
0.0
 11
708.5623333966
 21
550.8805477616
 31
0.0
  0
LINE
  5
1CB
330
1F
100
AcDbEntity
  8
0
  6
Continuous
 62
     7
370
    25
100
AcDbLine
 10
688.5623333966
 20
632.8805477616
 30
0.0
 11
708.5623333966
 21
632.8805477616
 31
0.0
  0
LINE
  5
1CC
330
1F
100
AcDbEntity
  8
0
  6
Continuous
 62
     7
370
    25
100
AcDbLine
 10
708.5623333966
 20
632.8805477616
 30
0.0
 11
778.0623333966
 21
632.8805477616
 31
0.0
  0
LINE
  5
1CD
330
1F
100
AcDbEntity
  8
0
  6
Continuous
 62
     7
370
    25
100
AcDbLine
 10
708.5623333966
 20
550.8805477616
 30
0.0
 11
778.0623333966
 21
550.8805477616
 31
0.0
  0
LINE
  5
1CE
330
1F
100
AcDbEntity
  8
0
  6
Continuous
 62
     7
370
    25
100
AcDbLine
 10
778.0623333966
 20
632.8805477616
 30
0.0
 11
778.0623333966
 21
550.8805477616
 31
0.0
  0
LINE
  5
1CF
330
1F
100
AcDbEntity
  8
0
  6
Continuous
 62
     7
370
    25
100
AcDbLine
 10
868.5623333966
 20
632.8805477616
 30
0.0
 11
868.5623333966
 21
550.8805477616
 31
0.0
  0
LINE
  5
1D0
330
1F
100
AcDbEntity
  8
0
  6
Continuous
 62
     7
370
    25
100
AcDbLine
 10
848.5623333966
 20
550.8805477616
 30
0.0
 11
868.5623333966
 21
550.8805477616
 31
0.0
  0
LINE
  5
1D1
330
1F
100
AcDbEntity
  8
0
  6
Continuous
 62
     7
370
    25
100
AcDbLine
 10
848.5623333966
 20
632.8805477616
 30
0.0
 11
868.5623333966
 21
632.8805477616
 31
0.0
  0
LINE
  5
1D2
330
1F
100
AcDbEntity
  8
0
  6
Continuous
 62
     7
370
    25
100
AcDbLine
 10
694.5623333966
 20
638.8805477616
 30
0.0
 11
688.5623333966
 21
638.8805477616
 31
0.0
  0
LINE
  5
1D3
330
1F
100
AcDbEntity
  8
0
  6
Continuous
 62
     7
370
    25
100
AcDbLine
 10
694.5623333966
 20
632.8805477616
 30
0.0
 11
694.5623333966
 21
638.8805477616
 31
0.0
  0
LINE
  5
1D4
330
1F
100
AcDbEntity
  8
0
  6
Continuous
 62
     7
370
    25
100
AcDbLine
 10
688.5623333966
 20
632.8805477616
 30
0.0
 11
688.5623333966
 21
638.8805477616
 31
0.0
  0
LINE
  5
1D5
330
1F
100
AcDbEntity
  8
0
  6
Continuous
 62
     7
370
    25
100
AcDbLine
 10
803.5623333966
 20
638.8805477616
 30
0.0
 11
803.5623333966
 21
632.8805477616
 31
0.0
  0
LINE
  5
1D6
330
1F
100
AcDbEntity
  8
0
  6
Continuous
 62
     7
370
    25
100
AcDbLine
 10
753.5623333966
 20
632.8805477616
 30
0.0
 11
753.5623333966
 21
638.8805477616
 31
0.0
  0
LINE
  5
1D7
330
1F
100
AcDbEntity
  8
0
  6
Continuous
 62
     7
370
    25
100
AcDbLine
 10
779.0623333966
 20
558.8805477616
 30
0.0
 11
778.0623333966
 21
558.8805477616
 31
0.0
  0
LINE
  5
1D8
330
1F
100
AcDbEntity
  8
0
  6
Continuous
 62
     7
370
    25
100
AcDbLine
 10
753.5623333966
 20
638.8805477616
 30
0.0
 11
803.5623333966
 21
638.8805477616
 31
0.0
  0
LINE
  5
1D9
330
1F
100
AcDbEntity
  8
0
  6
PHANTOM
 62
     8
370
    18
100
AcDbLine
 10
848.5623333966
 20
632.8805477616
 30
0.0
 11
848.5623333966
 21
550.8805477616
 31
0.0
  0
LINE
  5
1DA
330
1F
100
AcDbEntity
  8
0
  6
PHANTOM
 62
     8
370
    18
100
AcDbLine
 10
708.5623333966
 20
632.8805477616
 30
0.0
 11
708.5623333966
 21
550.8805477616
 31
0.0
  0
ARC
  5
1DB
330
1F
100
AcDbEntity
  8
0
  6
Continuous
 62
     7
370
    25
100
AcDbCircle
 10
485.4651961961
 20
204.833801785
 30
0.0
 40
20.0
100
AcDbArc
 50
270.0
 51
0.0
  0
ARC
  5
1DC
330
1F
100
AcDbEntity
  8
0
  6
Continuous
 62
     7
370
    25
100
AcDbCircle
 10
485.4651961961
 20
204.833801785
 30
0.0
 40
14.0
100
AcDbArc
 50
270.0
 51
0.0
  0
ARC
  5
1DD
330
1F
100
AcDbEntity
  8
0
  6
Continuous
 62
     7
370
    25
100
AcDbCircle
 10
345.4651961961
 20
204.833801785
 30
0.0
 40
14.0
100
AcDbArc
 50
180.0
 51
270.0
  0
ARC
  5
1DE
330
1F
100
AcDbEntity
  8
0
  6
Continuous
 62
     7
370
    25
100
AcDbCircle
 10
345.4651961961
 20
204.833801785
 30
0.0
 40
20.0
100
AcDbArc
 50
180.0
 51
270.0
  0
LINE
  5
1DF
330
1F
100
AcDbEntity
  8
0
  6
Continuous
 62
     7
370
    25
100
AcDbLine
 10
485.4651961961
 20
190.833801785
 30
0.0
 11
345.4651961961
 21
190.833801785
 31
0.0
  0
LINE
  5
1E0
330
1F
100
AcDbEntity
  8
0
  6
Continuous
 62
     7
370
    25
100
AcDbLine
 10
485.4651961961
 20
184.833801785
 30
0.0
 11
345.4651961961
 21
184.833801785
 31
0.0
  0
LINE
  5
1E1
330
1F
100
AcDbEntity
  8
0
  6
Continuous
 62
     7
370
    25
100
AcDbLine
 10
331.4651961961
 20
204.833801785
 30
0.0
 11
331.4651961961
 21
249.833801785
 31
0.0
  0
LINE
  5
1E2
330
1F
100
AcDbEntity
  8
0
  6
Continuous
 62
     7
370
    25
100
AcDbLine
 10
325.4651961961
 20
204.833801785
 30
0.0
 11
325.4651961961
 21
249.833801785
 31
0.0
  0
LINE
  5
1E3
330
1F
100
AcDbEntity
  8
0
  6
Continuous
 62
     7
370
    25
100
AcDbLine
 10
325.4651961961
 20
249.833801785
 30
0.0
 11
331.4651961961
 21
249.833801785
 31
0.0
  0
LINE
  5
1E4
330
1F
100
AcDbEntity
  8
0
  6
Continuous
 62
     7
370
    25
100
AcDbLine
 10
505.4651961961
 20
274.333801785
 30
0.0
 11
499.4651961961
 21
274.333801785
 31
0.0
  0
LINE
  5
1E5
330
1F
100
AcDbEntity
  8
0
  6
Continuous
 62
     7
370
    25
100
AcDbLine
 10
505.4651961961
 20
274.333801785
 30
0.0
 11
505.4651961961
 21
204.833801785
 31
0.0
  0
LINE
  5
1E6
330
1F
100
AcDbEntity
  8
0
  6
Continuous
 62
     7
370
    25
100
AcDbLine
 10
499.4651961961
 20
274.333801785
 30
0.0
 11
499.4651961961
 21
204.833801785
 31
0.0
  0
LINE
  5
1E7
330
1F
100
AcDbEntity
  8
0
  6
Continuous
 62
     7
370
    25
100
AcDbLine
 10
499.4651961961
 20
275.333801785
 30
0.0
 11
505.4651961961
 21
275.333801785
 31
0.0
  0
LINE
  5
1E8
330
1F
100
AcDbEntity
  8
0
  6
Continuous
 62
     7
370
    25
100
AcDbLine
 10
505.4651961961
 20
344.833801785
 30
0.0
 11
505.4651961961
 21
275.333801785
 31
0.0
  0
LINE
  5
1E9
330
1F
100
AcDbEntity
  8
0
  6
Continuous
 62
     7
370
    25
100
AcDbLine
 10
499.4651961961
 20
344.833801785
 30
0.0
 11
499.4651961961
 21
275.333801785
 31
0.0
  0
LINE
  5
1EA
330
1F
100
AcDbEntity
  8
0
  6
Continuous
 62
     7
370
    25
100
AcDbLine
 10
331.4651961961
 20
299.833801785
 30
0.0
 11
325.4651961961
 21
299.833801785
 31
0.0
  0
LINE
  5
1EB
330
1F
100
AcDbEntity
  8
0
  6
Continuous
 62
     7
370
    25
100
AcDbLine
 10
331.4651961961
 20
299.833801785
 30
0.0
 11
331.4651961961
 21
344.833801785
 31
0.0
  0
LINE
  5
1EC
330
1F
100
AcDbEntity
  8
0
  6
Continuous
 62
     7
370
    25
100
AcDbLine
 10
325.4651961961
 20
299.833801785
 30
0.0
 11
325.4651961961
 21
344.833801785
 31
0.0
  0
ARC
  5
1ED
330
1F
100
AcDbEntity
  8
0
  6
Continuous
 62
     7
370
    25
100
AcDbCircle
 10
485.4651961961
 20
344.833801785
 30
0.0
 40
20.00000000000006
100
AcDbArc
 50
0.0
 51
90.0
  0
ARC
  5
1EE
330
1F
100
AcDbEntity
  8
0
  6
Continuous
 62
     7
370
    25
100
AcDbCircle
 10
485.4651961961
 20
344.833801785
 30
0.0
 40
14.00000000000006
100
AcDbArc
 50
0.0
 51
90.0
  0
ARC
  5
1EF
330
1F
100
AcDbEntity
  8
0
  6
Continuous
 62
     7
370
    25
100
AcDbCircle
 10
345.4651961961
 20
344.833801785
 30
0.0
 40
20.00000000000006
100
AcDbArc
 50
90.0
 51
180.0
  0
ARC
  5
1F0
330
1F
100
AcDbEntity
  8
0
  6
Continuous
 62
     7
370
    25
100
AcDbCircle
 10
345.4651961961
 20
344.833801785
 30
0.0
 40
14.00000000000006
100
AcDbArc
 50
90.0
 51
180.0
  0
LINE
  5
1F1
330
1F
100
AcDbEntity
  8
0
  6
Continuous
 62
     7
370
    25
100
AcDbLine
 10
345.4651961961
 20
358.833801785
 30
0.0
 11
390.4651961961
 21
358.833801785
 31
0.0
  0
LINE
  5
1F2
330
1F
100
AcDbEntity
  8
0
  6
Continuous
 62
     7
370
    25
100
AcDbLine
 10
345.4651961961
 20
364.833801785
 30
0.0
 11
390.4651961961
 21
364.833801785
 31
0.0
  0
LINE
  5
1F3
330
1F
100
AcDbEntity
  8
0
  6
Continuous
 62
     7
370
    25
100
AcDbLine
 10
390.4651961961
 20
364.833801785
 30
0.0
 11
390.4651961961
 21
358.833801785
 31
0.0
  0
LINE
  5
1F4
330
1F
100
AcDbEntity
  8
0
  6
Continuous
 62
     7
370
    25
100
AcDbLine
 10
440.4651961961
 20
364.833801785
 30
0.0
 11
485.4651961961
 21
364.833801785
 31
0.0
  0
LINE
  5
1F5
330
1F
100
AcDbEntity
  8
0
  6
Continuous
 62
     7
370
    25
100
AcDbLine
 10
440.4651961961
 20
358.833801785
 30
0.0
 11
485.4651961961
 21
358.833801785
 31
0.0
  0
LINE
  5
1F6
330
1F
100
AcDbEntity
  8
0
  6
Continuous
 62
     7
370
    25
100
AcDbLine
 10
440.4651961961
 20
358.833801785
 30
0.0
 11
440.4651961961
 21
364.833801785
 31
0.0
  0
LINE
  5
1F7
330
1F
100
AcDbEntity
  8
0
  6
Continuous
 62
     7
370
    25
100
AcDbLine
 10
331.4651961961
 20
249.833801785
 30
0.0
 11
331.4651961961
 21
299.833801785
 31
0.0
  0
LINE
  5
1F8
330
1F
100
AcDbEntity
  8
0
  6
Continuous
 62
     7
370
    25
100
AcDbLine
 10
325.4651961961
 20
299.833801785
 30
0.0
 11
325.4651961961
 21
249.833801785
 31
0.0
  0
LINE
  5
1F9
330
1F
100
AcDbEntity
  8
0
  6
Continuous
 62
     7
370
    25
100
AcDbLine
 10
440.4651961961
 20
364.833801785
 30
0.0
 11
390.4651961961
 21
364.833801785
 31
0.0
  0
LINE
  5
1FA
330
1F
100
AcDbEntity
  8
0
  6
Continuous
 62
     7
370
    25
100
AcDbLine
 10
390.4651961961
 20
358.833801785
 30
0.0
 11
440.4651961961
 21
358.833801785
 31
0.0
  0
LINE
  5
1FB
330
1F
100
AcDbEntity
  8
0
  6
PHANTOM
 62
     8
370
    18
100
AcDbLine
 10
485.4651961961
 20
184.833801785
 30
0.0
 11
485.4651961961
 21
190.833801785
 31
0.0
  0
LINE
  5
1FC
330
1F
100
AcDbEntity
  8
0
  6
PHANTOM
 62
     8
370
    18
100
AcDbLine
 10
499.4651961961
 20
204.833801785
 30
0.0
 11
505.4651961961
 21
204.833801785
 31
0.0
  0
LINE
  5
1FD
330
1F
100
AcDbEntity
  8
0
  6
PHANTOM
 62
     8
370
    18
100
AcDbLine
 10
325.4651961961
 20
204.833801785
 30
0.0
 11
331.4651961961
 21
204.833801785
 31
0.0
  0
LINE
  5
1FE
330
1F
100
AcDbEntity
  8
0
  6
PHANTOM
 62
     8
370
    18
100
AcDbLine
 10
345.4651961961
 20
190.833801785
 30
0.0
 11
345.4651961961
 21
184.833801785
 31
0.0
  0
LINE
  5
1FF
330
1F
100
AcDbEntity
  8
0
  6
PHANTOM
 62
     8
370
    18
100
AcDbLine
 10
505.4651961961
 20
344.833801785
 30
0.0
 11
499.4651961961
 21
344.833801785
 31
0.0
  0
LINE
  5
200
330
1F
100
AcDbEntity
  8
0
  6
PHANTOM
 62
     8
370
    18
100
AcDbLine
 10
331.4651961961
 20
344.833801785
 30
0.0
 11
325.4651961961
 21
344.833801785
 31
0.0
  0
LINE
  5
201
330
1F
100
AcDbEntity
  8
0
  6
PHANTOM
 62
     8
370
    18
100
AcDbLine
 10
485.4651961961
 20
358.833801785
 30
0.0
 11
485.4651961961
 21
364.833801785
 31
0.0
  0
LINE
  5
202
330
1F
100
AcDbEntity
  8
0
  6
PHANTOM
 62
     8
370
    18
100
AcDbLine
 10
345.4651961961
 20
364.833801785
 30
0.0
 11
345.4651961961
 21
358.833801785
 31
0.0
  0
DIMENSION
  5
203
330
1F
100
AcDbEntity
  8
BORDER
100
AcDbDimension
  2
_D_5
 10
285.4651961961
 20
184.833801785
 30
0.0
 11
285.4651961961
 21
271.4704266465
 31
0.0
 70
   160
  1
<>
 71
     2
 42
-1.0
  3
SLDDIMSTYLE0
100
AcDbAlignedDimension
 13
345.4651961961
 23
364.833801785
 33
0.0
 14
345.4651961961
 24
184.833801785
 34
0.0
 50
90.0
100
AcDbRotatedDimension
  0
DIMENSION
  5
20D
330
1F
100
AcDbEntity
  8
BORDER
100
AcDbDimension
  2
_D_6
 10
345.4651961961
 20
344.833801785
 30
0.0
 11
311.0886913861
 21
373.8263650246
 31
0.0
 70
   164
  1
<>
 71
     1
 42
-1.0
  3
SLDDIMSTYLE2
100
AcDbRadialDimension
 15
335.4485262919
 25
354.6147181036
 35
0.0
 40
0.0
  0
LINE
  5
217
330
1F
100
AcDbEntity
  8
0
  6
Continuous
 62
     7
370
    25
100
AcDbLine
 10
942.9687782756
 20
261.7238437079
 30
0.0
 11
942.9687782756
 21
328.6801902825
 31
0.0
  0
LINE
  5
218
330
1F
100
AcDbEntity
  8
0
  6
Continuous
 62
     7
370
    25
100
AcDbLine
 10
704.9788795433
 20
328.6801902825
 30
0.0
 11
704.9788795433
 21
261.7238437079
 31
0.0
  0
ARC
  5
219
330
1F
100
AcDbEntity
  8
0
  6
Continuous
 62
     7
370
    25
100
AcDbCircle
 10
823.9738289094
 20
290.6617630358
 30
0.0
 40
30.74043815823532
100
AcDbArc
 50
242.6096722366
 51
297.3903277634
  0
ARC
  5
21A
330
1F
100
AcDbEntity
  8
0
  6
Continuous
 62
     7
370
    25
100
AcDbCircle
 10
823.9738289094
 20
223.7054164611
 30
0.0
 40
30.74043815823447
100
AcDbArc
 50
242.6096722366
 51
297.3903277634
  0
ARC
  5
21B
330
1F
100
AcDbEntity
  8
0
  6
Continuous
 62
     7
370
    25
100
AcDbCircle
 10
823.9738289094
 20
284.8532364306
 30
0.0
 40
21.45663577862296
100
AcDbArc
 50
242.5243123925
 51
297.4756876075
  0
LINE
  5
21C
330
1F
100
AcDbEntity
  8
0
  6
Continuous
 62
     7
370
    25
100
AcDbLine
 10
760.6877719932
 20
291.7377232225
 30
0.0
 11
764.9304126804
 21
294.186947558
 31
0.0
  0
LINE
  5
21D
330
1F
100
AcDbEntity
  8
0
  6
Continuous
 62
     7
370
    25
100
AcDbLine
 10
764.9304126804
 20
294.186947558
 30
0.0
 11
814.0743339728
 21
265.8167656721
 31
0.0
  0
LINE
  5
21E
330
1F
100
AcDbEntity
  8
0
  6
Continuous
 62
     7
370
    25
100
AcDbLine
 10
760.6877719932
 20
291.7377232225
 30
0.0
 11
809.8316932857
 21
263.3675413367
 31
0.0
  0
LINE
  5
21F
330
1F
100
AcDbEntity
  8
0
  6
Continuous
 62
     7
370
    25
100
AcDbLine
 10
838.1159645332
 20
263.3675413367
 30
0.0
 11
937.1109138993
 21
320.5161091643
 31
0.0
  0
LINE
  5
220
330
1F
100
AcDbEntity
  8
0
  6
Continuous
 62
     7
370
    25
100
AcDbLine
 10
838.1159645332
 20
196.411194762
 30
0.0
 11
937.1109138993
 21
253.5597625896
 31
0.0
  0
LINE
  5
221
330
1F
100
AcDbEntity
  8
0
  6
Continuous
 62
     7
370
    25
100
AcDbLine
 10
833.8733238461
 20
265.8167656721
 30
0.0
 11
932.8682732122
 21
322.9653334997
 31
0.0
  0
LINE
  5
222
330
1F
100
AcDbEntity
  8
0
  6
Continuous
 62
     7
370
    25
100
AcDbLine
 10
760.6877719932
 20
291.7377232225
 30
0.0
 11
760.6877719932
 21
224.7813766479
 31
0.0
  0
LINE
  5
223
330
1F
100
AcDbEntity
  8
0
  6
Continuous
 62
     7
370
    25
100
AcDbLine
 10
760.6877719932
 20
224.7813766479
 30
0.0
 11
809.8316932857
 21
196.411194762
 31
0.0
  0
LINE
  5
224
330
1F
100
AcDbEntity
  8
0
  6
Continuous
 62
     7
370
    25
100
AcDbLine
 10
764.2233058992
 20
294.5951516139
 30
0.0
 11
759.9806652121
 21
292.1459272784
 31
0.0
  0
LINE
  5
225
330
1F
100
AcDbEntity
  8
0
  6
Continuous
 62
     7
370
    25
100
AcDbLine
 10
710.8367439196
 20
320.5161091643
 30
0.0
 11
759.9806652121
 21
292.1459272784
 31
0.0
  0
LINE
  5
226
330
1F
100
AcDbEntity
  8
0
  6
Continuous
 62
     7
370
    25
100
AcDbLine
 10
715.0793846067
 20
322.9653334997
 30
0.0
 11
764.2233058992
 21
294.5951516139
 31
0.0
  0
LINE
  5
227
330
1F
100
AcDbEntity
  8
0
  6
Continuous
 62
     7
370
    25
100
AcDbLine
 10
759.9806652121
 20
292.1459272784
 30
0.0
 11
759.9806652121
 21
225.1895807038
 31
0.0
  0
LINE
  5
228
330
1F
100
AcDbEntity
  8
0
  6
Continuous
 62
     7
370
    25
100
AcDbLine
 10
710.8367439196
 20
253.5597625896
 30
0.0
 11
759.9806652121
 21
225.1895807038
 31
0.0
  0
LINE
  5
229
330
1F
100
AcDbEntity
  8
0
  6
Continuous
 62
     7
370
    25
100
AcDbLine
 10
764.2233058992
 20
294.5951516139
 30
0.0
 11
764.2233058992
 21
293.7787435021
 31
0.0
  0
LINE
  5
22A
330
1F
100
AcDbEntity
  8
0
  6
Continuous
 62
     7
370
    25
100
AcDbLine
 10
760.6877719932
 20
225.5977847597
 30
0.0
 11
759.9806652121
 21
225.1895807038
 31
0.0
  0
LWPOLYLINE
  5
22B
330
1F
100
AcDbEntity
  8
0
  6
Continuous
 62
     7
370
    25
100
AcDbPolyline
 90
       17
 70
   128
 43
0.0
 10
937.1109138993
 20
320.5161091643
 10
938.4289873428
 20
321.3556413309
 10
939.5981705216
 20
322.265712908
 10
940.6072035625
 20
323.2375594087
 10
941.4463689258
 20
324.26182142
 10
942.1075849902
 20
325.3286347388
 10
942.5844838836
 20
326.4277253696
 10
942.872472809
 20
327.5485084688
 10
942.9687782756
 20
328.6801902825
 10
942.872472809
 20
329.8118720962
 10
942.5844838836
 20
330.9326551954
 10
942.1075849902
 20
332.0317458262
 10
941.4463689258
 20
333.0985591449
 10
940.6072035625
 20
334.1228211562
 10
939.5981705216
 20
335.0946676569
 10
938.4289873428
 20
336.004739234
 10
937.1109138993
 20
336.8442714007
  0
ARC
  5
22C
330
1F
100
AcDbEntity
  8
0
  6
Continuous
 62
     7
370
    25
100
AcDbCircle
 10
932.9596370258
 20
262.7219712458
 30
0.0
 40
10.05878556987562
100
AcDbArc
 50
294.3746582936
 51
354.3052007488
  0
ARC
  5
22D
330
1F
100
AcDbEntity
  8
0
  6
Continuous
 62
     7
370
    25
100
AcDbCircle
 10
930.6591823289
 20
328.6801902825
 30
0.0
 40
6.126962589911475
100
AcDbArc
 50
291.1341228318
 51
68.8658771682
  0
LWPOLYLINE
  5
22E
330
1F
100
AcDbEntity
  8
0
  6
Continuous
 62
     7
370
    25
100
AcDbPolyline
 90
       17
 70
   128
 43
0.0
 10
710.8367439196
 20
336.8442714007
 10
709.5186704761
 20
336.004739234
 10
708.3494872973
 20
335.0946676569
 10
707.3404542564
 20
334.1228211562
 10
706.5012888931
 20
333.0985591449
 10
705.8400728287
 20
332.0317458262
 10
705.3631739353
 20
330.9326551954
 10
705.0751850099
 20
329.8118720962
 10
704.9788795433
 20
328.6801902825
 10
705.0751850099
 20
327.5485084688
 10
705.3631739353
 20
326.4277253696
 10
705.8400728287
 20
325.3286347388
 10
706.5012888931
 20
324.26182142
 10
707.3404542564
 20
323.2375594087
 10
708.3494872973
 20
322.265712908
 10
709.5186704761
 20
321.3556413309
 10
710.8367439196
 20
320.5161091643
  0
ARC
  5
22F
330
1F
100
AcDbEntity
  8
0
  6
Continuous
 62
     7
370
    25
100
AcDbCircle
 10
717.28847549
 20
328.6801902825
 30
0.0
 40
6.126962589911475
100
AcDbArc
 50
111.1341228318
 51
248.8658771682
  0
ARC
  5
230
330
1F
100
AcDbEntity
  8
0
  6
Continuous
 62
     7
370
    25
100
AcDbCircle
 10
714.9880207931
 20
262.7219712458
 30
0.0
 40
10.05878556987542
100
AcDbArc
 50
185.6947992512
 51
245.6253417064
  0
LINE
  5
231
330
1F
100
AcDbEntity
  8
0
  6
Continuous
 62
     7
370
    25
100
AcDbLine
 10
890.4333612191
 20
298.4681802427
 30
0.0
 11
865.6931289995
 21
312.7504122973
 31
0.0
  0
LINE
  5
232
330
1F
100
AcDbEntity
  8
0
  6
Continuous
 62
     7
370
    25
100
AcDbLine
 10
865.6931289995
 20
312.7504122973
 30
0.0
 11
865.6931289995
 21
306.2180858022
 31
0.0
  0
LINE
  5
233
330
1F
100
AcDbEntity
  8
0
  6
Continuous
 62
     7
370
    25
100
AcDbLine
 10
865.6931289995
 20
306.2180858022
 30
0.0
 11
833.8733238461
 21
324.5872683182
 31
0.0
  0
LINE
  5
234
330
1F
100
AcDbEntity
  8
0
  6
Continuous
 62
     7
370
    25
100
AcDbLine
 10
865.6931289995
 20
373.1744323768
 30
0.0
 11
833.8733238461
 21
391.5436148928
 31
0.0
  0
LINE
  5
235
330
1F
100
AcDbEntity
  8
0
  6
Continuous
 62
     7
370
    25
100
AcDbLine
 10
865.6931289995
 20
373.1744323768
 30
0.0
 11
865.6931289995
 21
378.0736772481
 31
0.0
  0
LINE
  5
236
330
1F
100
AcDbEntity
  8
0
  6
Continuous
 62
     7
370
    25
100
AcDbLine
 10
865.6931289995
 20
378.0736772481
 30
0.0
 11
901.0484680588
 21
357.6634744526
 31
0.0
  0
LINE
  5
237
330
1F
100
AcDbEntity
  8
0
  6
Continuous
 62
     7
370
    25
100
AcDbLine
 10
901.0484680588
 20
357.6634744526
 30
0.0
 11
901.0484680588
 21
352.7642295813
 31
0.0
  0
LINE
  5
238
330
1F
100
AcDbEntity
  8
0
  6
Continuous
 62
     7
370
    25
100
AcDbLine
 10
932.8682732122
 20
334.3950470652
 30
0.0
 11
901.0484680588
 21
352.7642295813
 31
0.0
  0
LINE
  5
239
330
1F
100
AcDbEntity
  8
0
  6
Continuous
 62
     7
370
    25
100
AcDbLine
 10
814.0743339728
 20
324.5872683182
 30
0.0
 11
782.2545288194
 21
306.2180858022
 31
0.0
  0
LINE
  5
23A
330
1F
100
AcDbEntity
  8
0
  6
Continuous
 62
     7
370
    25
100
AcDbLine
 10
782.2545288194
 20
306.2180858022
 30
0.0
 11
782.2545288194
 21
312.7504122973
 31
0.0
  0
LINE
  5
23B
330
1F
100
AcDbEntity
  8
0
  6
Continuous
 62
     7
370
    25
100
AcDbLine
 10
782.2545288194
 20
312.7504122973
 30
0.0
 11
757.5142965998
 21
298.4681802427
 31
0.0
  0
LINE
  5
23C
330
1F
100
AcDbEntity
  8
0
  6
Continuous
 62
     7
370
    25
100
AcDbLine
 10
746.8991897601
 20
352.7642295813
 30
0.0
 11
715.0793846067
 21
334.3950470652
 31
0.0
  0
LINE
  5
23D
330
1F
100
AcDbEntity
  8
0
  6
Continuous
 62
     7
370
    25
100
AcDbLine
 10
746.8991897601
 20
352.7642295813
 30
0.0
 11
746.8991897601
 21
357.6634744526
 31
0.0
  0
LINE
  5
23E
330
1F
100
AcDbEntity
  8
0
  6
Continuous
 62
     7
370
    25
100
AcDbLine
 10
746.8991897601
 20
357.6634744526
 30
0.0
 11
782.2545288194
 21
378.0736772481
 31
0.0
  0
LINE
  5
23F
330
1F
100
AcDbEntity
  8
0
  6
Continuous
 62
     7
370
    25
100
AcDbLine
 10
782.2545288194
 20
378.0736772481
 30
0.0
 11
782.2545288194
 21
373.1744323768
 31
0.0
  0
LINE
  5
240
330
1F
100
AcDbEntity
  8
0
  6
Continuous
 62
     7
370
    25
100
AcDbLine
 10
814.0743339728
 20
391.5436148928
 30
0.0
 11
782.2545288194
 21
373.1744323768
 31
0.0
  0
LINE
  5
241
330
1F
100
AcDbEntity
  8
0
  6
Continuous
 62
     7
370
    25
100
AcDbLine
 10
937.1109138993
 20
336.8442714007
 30
0.0
 11
905.2911087459
 21
355.2134539167
 31
0.0
  0
LINE
  5
242
330
1F
100
AcDbEntity
  8
0
  6
Continuous
 62
     7
370
    25
100
AcDbLine
 10
901.0484680588
 20
352.7642295813
 30
0.0
 11
905.2911087459
 21
355.2134539167
 31
0.0
  0
LINE
  5
243
330
1F
100
AcDbEntity
  8
0
  6
Continuous
 62
     7
370
    25
100
AcDbLine
 10
742.656549073
 20
355.2134539167
 30
0.0
 11
710.8367439196
 21
336.8442714007
 31
0.0
  0
LINE
  5
244
330
1F
100
AcDbEntity
  8
0
  6
Continuous
 62
     7
370
    25
100
AcDbLine
 10
742.656549073
 20
355.2134539167
 30
0.0
 11
746.8991897601
 21
352.7642295813
 31
0.0
  0
LINE
  5
245
330
1F
100
AcDbEntity
  8
0
  6
Continuous
 62
     7
370
    25
100
AcDbLine
 10
901.0484680588
 20
357.6634744526
 30
0.0
 11
905.2911087459
 21
360.112698788
 31
0.0
  0
LINE
  5
246
330
1F
100
AcDbEntity
  8
0
  6
Continuous
 62
     7
370
    25
100
AcDbLine
 10
865.6931289995
 20
378.0736772481
 30
0.0
 11
869.9357696866
 21
380.5229015836
 31
0.0
  0
LINE
  5
247
330
1F
100
AcDbEntity
  8
0
  6
Continuous
 62
     7
370
    25
100
AcDbLine
 10
869.9357696866
 20
380.5229015836
 30
0.0
 11
905.2911087459
 21
360.112698788
 31
0.0
  0
LINE
  5
248
330
1F
100
AcDbEntity
  8
0
  6
Continuous
 62
     7
370
    25
100
AcDbLine
 10
905.2911087459
 20
360.112698788
 30
0.0
 11
905.2911087459
 21
355.2134539167
 31
0.0
  0
LINE
  5
249
330
1F
100
AcDbEntity
  8
0
  6
Continuous
 62
     7
370
    25
100
AcDbLine
 10
746.8991897601
 20
357.6634744526
 30
0.0
 11
742.656549073
 21
360.112698788
 31
0.0
  0
LINE
  5
24A
330
1F
100
AcDbEntity
  8
0
  6
Continuous
 62
     7
370
    25
100
AcDbLine
 10
742.656549073
 20
355.2134539167
 30
0.0
 11
742.656549073
 21
360.112698788
 31
0.0
  0
LINE
  5
24B
330
1F
100
AcDbEntity
  8
0
  6
Continuous
 62
     7
370
    25
100
AcDbLine
 10
782.2545288194
 20
378.0736772481
 30
0.0
 11
778.0118881323
 21
380.5229015836
 31
0.0
  0
LINE
  5
24C
330
1F
100
AcDbEntity
  8
0
  6
Continuous
 62
     7
370
    25
100
AcDbLine
 10
742.656549073
 20
360.112698788
 30
0.0
 11
778.0118881323
 21
380.5229015836
 31
0.0
  0
LINE
  5
24D
330
1F
100
AcDbEntity
  8
0
  6
Continuous
 62
     7
370
    25
100
AcDbLine
 10
865.6931289995
 20
378.0728810478
 30
0.0
 11
838.1159645332
 21
393.9928392283
 31
0.0
  0
LINE
  5
24E
330
1F
100
AcDbEntity
  8
0
  6
Continuous
 62
     7
370
    25
100
AcDbLine
 10
809.8316932857
 20
393.9928392283
 30
0.0
 11
782.2545288194
 21
378.0728810478
 31
0.0
  0
ARC
  5
24F
330
1F
100
AcDbEntity
  8
0
  6
Continuous
 62
     7
370
    25
100
AcDbCircle
 10
823.9738289094
 20
366.6986175292
 30
0.0
 40
30.74043815823427
100
AcDbArc
 50
62.6096722366
 51
117.3903277634
  0
ARC
  5
250
330
1F
100
AcDbEntity
  8
0
  6
Continuous
 62
     7
370
    25
100
AcDbCircle
 10
823.9738289094
 20
372.5071441344
 30
0.0
 40
21.45663577862271
100
AcDbArc
 50
62.5243123925
 51
117.4756876075
  0
ARC
  5
251
330
1F
100
AcDbEntity
  8
0
  6
Continuous
 62
     7
370
    25
100
AcDbCircle
 10
823.9738289094
 20
305.5507975598
 30
0.0
 40
21.45663577862291
100
AcDbArc
 50
62.5243123925
 51
117.4756876075
  0
LINE
  5
252
330
1F
100
AcDbEntity
  8
0
  6
Continuous
 62
     7
370
    25
100
AcDbLine
 10
865.6931289995
 20
306.2180858022
 30
0.0
 11
869.9357696866
 21
308.6673101377
 31
0.0
  0
LINE
  5
253
330
1F
100
AcDbEntity
  8
0
  6
Continuous
 62
     7
370
    25
100
AcDbLine
 10
869.9357696866
 20
310.3011879618
 30
0.0
 11
869.9357696866
 21
308.6673101377
 31
0.0
  0
LINE
  5
254
330
1F
100
AcDbEntity
  8
0
  6
Continuous
 62
     7
370
    25
100
AcDbLine
 10
778.0118881323
 20
308.6673101377
 30
0.0
 11
782.2545288194
 21
306.2180858022
 31
0.0
  0
LINE
  5
255
330
1F
100
AcDbEntity
  8
0
  6
Continuous
 62
     7
370
    25
100
AcDbLine
 10
778.0118881323
 20
310.3011879618
 30
0.0
 11
778.0118881323
 21
308.6673101377
 31
0.0
  0
LINE
  5
256
330
1F
100
AcDbEntity
  8
0
  6
PHANTOM
 62
     8
370
    18
100
AcDbLine
 10
809.8316932857
 20
263.3675413367
 30
0.0
 11
809.8316932857
 21
196.411194762
 31
0.0
  0
LINE
  5
257
330
1F
100
AcDbEntity
  8
0
  6
PHANTOM
 62
     8
370
    18
100
AcDbLine
 10
838.1159645332
 20
263.3675413367
 30
0.0
 11
838.1159645332
 21
196.411194762
 31
0.0
  0
LINE
  5
258
330
1F
100
AcDbEntity
  8
0
  6
PHANTOM
 62
     8
370
    18
100
AcDbLine
 10
809.8316932857
 20
263.3675413367
 30
0.0
 11
814.0743339728
 21
265.8167656721
 31
0.0
  0
LINE
  5
259
330
1F
100
AcDbEntity
  8
0
  6
PHANTOM
 62
     8
370
    18
100
AcDbLine
 10
833.8733238461
 20
265.8167656721
 30
0.0
 11
838.1159645332
 21
263.3675413367
 31
0.0
  0
LINE
  5
25A
330
1F
100
AcDbEntity
  8
0
  6
PHANTOM
 62
     8
370
    18
100
AcDbLine
 10
937.1109138993
 20
320.5161091643
 30
0.0
 11
937.1109138993
 21
253.5597625896
 31
0.0
  0
LINE
  5
25B
330
1F
100
AcDbEntity
  8
0
  6
PHANTOM
 62
     8
370
    18
100
AcDbLine
 10
937.1109138993
 20
320.5161091643
 30
0.0
 11
932.8682732122
 21
322.9653334997
 31
0.0
  0
LINE
  5
25C
330
1F
100
AcDbEntity
  8
0
  6
PHANTOM
 62
     8
370
    18
100
AcDbLine
 10
715.0793846067
 20
322.9653334997
 30
0.0
 11
710.8367439196
 21
320.5161091643
 31
0.0
  0
LINE
  5
25D
330
1F
100
AcDbEntity
  8
0
  6
PHANTOM
 62
     8
370
    18
100
AcDbLine
 10
710.8367439196
 20
320.5161091643
 30
0.0
 11
710.8367439196
 21
253.5597625896
 31
0.0
  0
LINE
  5
25E
330
1F
100
AcDbEntity
  8
0
  6
PHANTOM
 62
     8
370
    18
100
AcDbLine
 10
932.8682732122
 20
334.3950470652
 30
0.0
 11
937.1109138993
 21
336.8442714007
 31
0.0
  0
LINE
  5
25F
330
1F
100
AcDbEntity
  8
0
  6
PHANTOM
 62
     8
370
    18
100
AcDbLine
 10
710.8367439196
 20
336.8442714007
 30
0.0
 11
715.0793846067
 21
334.3950470652
 31
0.0
  0
LINE
  5
260
330
1F
100
AcDbEntity
  8
0
  6
PHANTOM
 62
     8
370
    18
100
AcDbLine
 10
932.8682732122
 20
334.3950470652
 30
0.0
 11
932.8682732122
 21
322.9653334997
 31
0.0
  0
LINE
  5
261
330
1F
100
AcDbEntity
  8
0
  6
PHANTOM
 62
     8
370
    18
100
AcDbLine
 10
715.0793846067
 20
334.3950470652
 30
0.0
 11
715.0793846067
 21
322.9653334997
 31
0.0
  0
LINE
  5
262
330
1F
100
AcDbEntity
  8
0
  6
PHANTOM
 62
     8
370
    18
100
AcDbLine
 10
833.8733238461
 20
391.5436148928
 30
0.0
 11
833.8733238461
 21
324.5872683182
 31
0.0
  0
LINE
  5
263
330
1F
100
AcDbEntity
  8
0
  6
PHANTOM
 62
     8
370
    18
100
AcDbLine
 10
814.0743339728
 20
391.5436148928
 30
0.0
 11
814.0743339728
 21
324.5872683182
 31
0.0
  0
LINE
  5
264
330
1F
100
AcDbEntity
  8
0
  6
PHANTOM
 62
     8
370
    18
100
AcDbLine
 10
838.1159645332
 20
393.9928392283
 30
0.0
 11
833.8733238461
 21
391.5436148928
 31
0.0
  0
LINE
  5
265
330
1F
100
AcDbEntity
  8
0
  6
PHANTOM
 62
     8
370
    18
100
AcDbLine
 10
814.0743339728
 20
391.5436148928
 30
0.0
 11
809.8316932857
 21
393.9928392283
 31
0.0
  0
ENDSEC
  0
SECTION
  2
OBJECTS
  0
DICTIONARY
  5
C
330
0
100
AcDbDictionary
281
     1
  3
ACAD_GROUP
350
D
  3
ACAD_LAYOUT
350
1A
  3
ACAD_MLINESTYLE
350
17
  3
ACAD_PLOTSETTINGS
350
19
  3
ACAD_PLOTSTYLENAME
350
E
  3
ACAD_SCALELIST
350
47
  0
DICTIONARY
  5
D
102
{ACAD_REACTORS
330
C
102
}
330
C
100
AcDbDictionary
281
     1
  0
DICTIONARY
  5
1A
102
{ACAD_REACTORS
330
C
102
}
330
C
100
AcDbDictionary
281
     1
  3
Layout1
350
1E
  3
Layout2
350
26
  3
Model
350
22
  0
DICTIONARY
  5
17
102
{ACAD_REACTORS
330
C
102
}
330
C
100
AcDbDictionary
281
     1
  3
Standard
350
18
  0
DICTIONARY
  5
19
102
{ACAD_REACTORS
330
C
102
}
330
C
100
AcDbDictionary
281
     1
  0
ACDBDICTIONARYWDFLT
  5
E
102
{ACAD_REACTORS
330
C
102
}
330
C
100
AcDbDictionary
281
     1
  3
Normal
350
F
100
AcDbDictionaryWithDefault
340
F
  0
DICTIONARY
  5
47
102
{ACAD_REACTORS
330
C
102
}
330
C
100
AcDbDictionary
281
     1
  3
A0
350
48
  3
A1
350
49
  3
A2
350
4A
  3
A3
350
4B
  3
A4
350
4C
  3
A5
350
4D
  3
A6
350
4E
  3
A7
350
4F
  3
A8
350
50
  3
A9
350
51
  3
B0
350
52
  3
B1
350
53
  3
B2
350
54
  3
B3
350
55
  3
B4
350
56
  3
B5
350
57
  3
B6
350
58
  3
B7
350
59
  3
B8
350
5A
  3
B9
350
5B
  3
C0
350
5C
  3
C1
350
5D
  3
C2
350
5E
  3
C3
350
5F
  3
C4
350
60
  3
C5
350
61
  3
C6
350
62
  3
C7
350
63
  3
C8
350
64
  3
C9
350
65
  3
D0
350
66
  3
D1
350
67
  3
D2
350
68
  0
LAYOUT
  5
1E
102
{ACAD_REACTORS
330
1A
102
}
330
1A
100
AcDbPlotSettings
  1

  2
none_device
  4

  6

 40
0.0
 41
0.0
 42
0.0
 43
0.0
 44
0.0
 45
0.0
 46
0.0
 47
0.0
 48
0.0
 49
0.0
140
0.0
141
0.0
142
1.0
143
1.0
 70
   688
 72
     1
 73
     0
 74
     5
  7

 75
    16
147
1.0
148
0.0
149
0.0
100
AcDbLayout
  1
Layout1
 70
     1
 71
     1
 10
0.0
 20
0.0
 11
420.0
 21
297.0
 12
0.0
 22
0.0
 32
0.0
 14
1.0000000000E+20
 24
1.0000000000E+20
 34
1.0000000000E+20
 15
-1.0000000000E+20
 25
-1.0000000000E+20
 35
-1.0000000000E+20
146
0.0
 13
0.0
 23
0.0
 33
0.0
 16
1.0
 26
0.0
 36
0.0
 17
0.0
 27
1.0
 37
0.0
 76
     0
330
1B
  0
LAYOUT
  5
26
102
{ACAD_REACTORS
330
1A
102
}
330
1A
100
AcDbPlotSettings
  1

  2
none_device
  4

  6

 40
0.0
 41
0.0
 42
0.0
 43
0.0
 44
0.0
 45
0.0
 46
0.0
 47
0.0
 48
0.0
 49
0.0
140
0.0
141
0.0
142
1.0
143
1.0
 70
   688
 72
     1
 73
     0
 74
     5
  7

 75
    16
147
1.0
148
0.0
149
0.0
100
AcDbLayout
  1
Layout2
 70
     1
 71
     2
 10
0.0
 20
0.0
 11
0.0
 21
0.0
 12
0.0
 22
0.0
 32
0.0
 14
0.0
 24
0.0
 34
0.0
 15
0.0
 25
0.0
 35
0.0
146
0.0
 13
0.0
 23
0.0
 33
0.0
 16
1.0
 26
0.0
 36
0.0
 17
0.0
 27
1.0
 37
0.0
 76
     0
330
23
  0
LAYOUT
  5
22
102
{ACAD_REACTORS
330
1A
102
}
330
1A
100
AcDbPlotSettings
  1

  2
none_device
  4
Letter_(8.50_x_11.00_Inches)
  6

 40
6.35
 41
6.35
 42
6.35000508
 43
6.35000508
 44
215.9
 45
279.4
 46
0.0
 47
0.0
 48
0.0
 49
0.0
140
0.0
141
0.0
142
1.0
143
1.0
 70
  1712
 72
     1
 73
     0
 74
     0
  7

 75
     0
147
1.0
148
0.0
149
0.0
100
AcDbLayout
  1
Model
 70
     1
 71
     0
 10
0.0
 20
0.0
 11
1189.0
 21
841.0
 12
0.0
 22
0.0
 32
0.0
 14
0.0
 24
0.0
 34
0.0
 15
1189.0
 25
841.0
 35
0.0
146
0.0
 13
0.0
 23
0.0
 33
0.0
 16
1.0
 26
0.0
 36
0.0
 17
0.0
 27
1.0
 37
0.0
 76
     0
330
1F
331
29
  0
MLINESTYLE
  5
18
102
{ACAD_REACTORS
330
17
102
}
330
17
100
AcDbMlineStyle
  2
Standard
 70
     0
  3

 62
   256
 51
90.0
 52
90.0
 71
     2
 49
0.5
 62
   256
  6
BYLAYER
 49
-0.5
 62
   256
  6
BYLAYER
  0
ACDBPLACEHOLDER
  5
F
102
{ACAD_REACTORS
330
E
102
}
330
E
  0
SCALE
  5
48
102
{ACAD_REACTORS
330
47
102
}
330
47
100
AcDbScale
 70
     0
300
1:1
140
1.0
141
1.0
290
     1
  0
SCALE
  5
49
102
{ACAD_REACTORS
330
47
102
}
330
47
100
AcDbScale
 70
     0
300
1:2
140
1.0
141
2.0
290
     0
  0
SCALE
  5
4A
102
{ACAD_REACTORS
330
47
102
}
330
47
100
AcDbScale
 70
     0
300
1:4
140
1.0
141
4.0
290
     0
  0
SCALE
  5
4B
102
{ACAD_REACTORS
330
47
102
}
330
47
100
AcDbScale
 70
     0
300
1:5
140
1.0
141
5.0
290
     0
  0
SCALE
  5
4C
102
{ACAD_REACTORS
330
47
102
}
330
47
100
AcDbScale
 70
     0
300
1:8
140
1.0
141
8.0
290
     0
  0
SCALE
  5
4D
102
{ACAD_REACTORS
330
47
102
}
330
47
100
AcDbScale
 70
     0
300
1:10
140
1.0
141
10.0
290
     0
  0
SCALE
  5
4E
102
{ACAD_REACTORS
330
47
102
}
330
47
100
AcDbScale
 70
     0
300
1:16
140
1.0
141
16.0
290
     0
  0
SCALE
  5
4F
102
{ACAD_REACTORS
330
47
102
}
330
47
100
AcDbScale
 70
     0
300
1:20
140
1.0
141
20.0
290
     0
  0
SCALE
  5
50
102
{ACAD_REACTORS
330
47
102
}
330
47
100
AcDbScale
 70
     0
300
1:30
140
1.0
141
30.0
290
     0
  0
SCALE
  5
51
102
{ACAD_REACTORS
330
47
102
}
330
47
100
AcDbScale
 70
     0
300
1:40
140
1.0
141
40.0
290
     0
  0
SCALE
  5
52
102
{ACAD_REACTORS
330
47
102
}
330
47
100
AcDbScale
 70
     0
300
1:50
140
1.0
141
50.0
290
     0
  0
SCALE
  5
53
102
{ACAD_REACTORS
330
47
102
}
330
47
100
AcDbScale
 70
     0
300
1:100
140
1.0
141
100.0
290
     0
  0
SCALE
  5
54
102
{ACAD_REACTORS
330
47
102
}
330
47
100
AcDbScale
 70
     0
300
2:1
140
2.0
141
1.0
290
     0
  0
SCALE
  5
55
102
{ACAD_REACTORS
330
47
102
}
330
47
100
AcDbScale
 70
     0
300
4:1
140
4.0
141
1.0
290
     0
  0
SCALE
  5
56
102
{ACAD_REACTORS
330
47
102
}
330
47
100
AcDbScale
 70
     0
300
8:1
140
8.0
141
1.0
290
     0
  0
SCALE
  5
57
102
{ACAD_REACTORS
330
47
102
}
330
47
100
AcDbScale
 70
     0
300
10:1
140
10.0
141
1.0
290
     0
  0
SCALE
  5
58
102
{ACAD_REACTORS
330
47
102
}
330
47
100
AcDbScale
 70
     0
300
100:1
140
100.0
141
1.0
290
     0
  0
SCALE
  5
59
102
{ACAD_REACTORS
330
47
102
}
330
47
100
AcDbScale
 70
     0
300
1/128" = 1'-0"
140
0.0078125
141
12.0
290
     0
  0
SCALE
  5
5A
102
{ACAD_REACTORS
330
47
102
}
330
47
100
AcDbScale
 70
     0
300
1/64" = 1'-0"
140
0.015625
141
12.0
290
     0
  0
SCALE
  5
5B
102
{ACAD_REACTORS
330
47
102
}
330
47
100
AcDbScale
 70
     0
300
1/32" = 1'-0"
140
0.03125
141
12.0
290
     0
  0
SCALE
  5
5C
102
{ACAD_REACTORS
330
47
102
}
330
47
100
AcDbScale
 70
     0
300
1/16" = 1'-0"
140
0.0625
141
12.0
290
     0
  0
SCALE
  5
5D
102
{ACAD_REACTORS
330
47
102
}
330
47
100
AcDbScale
 70
     0
300
3/32" = 1'-0"
140
0.09375
141
12.0
290
     0
  0
SCALE
  5
5E
102
{ACAD_REACTORS
330
47
102
}
330
47
100
AcDbScale
 70
     0
300
1/8" = 1'-0"
140
0.125
141
12.0
290
     0
  0
SCALE
  5
5F
102
{ACAD_REACTORS
330
47
102
}
330
47
100
AcDbScale
 70
     0
300
3/16" = 1'-0"
140
0.1875
141
12.0
290
     0
  0
SCALE
  5
60
102
{ACAD_REACTORS
330
47
102
}
330
47
100
AcDbScale
 70
     0
300
1/4" = 1'-0"
140
0.25
141
12.0
290
     0
  0
SCALE
  5
61
102
{ACAD_REACTORS
330
47
102
}
330
47
100
AcDbScale
 70
     0
300
3/8" = 1'-0"
140
0.375
141
12.0
290
     0
  0
SCALE
  5
62
102
{ACAD_REACTORS
330
47
102
}
330
47
100
AcDbScale
 70
     0
300
1/2" = 1'-0"
140
0.5
141
12.0
290
     0
  0
SCALE
  5
63
102
{ACAD_REACTORS
330
47
102
}
330
47
100
AcDbScale
 70
     0
300
3/4" = 1'-0"
140
0.75
141
12.0
290
     0
  0
SCALE
  5
64
102
{ACAD_REACTORS
330
47
102
}
330
47
100
AcDbScale
 70
     0
300
1" = 1'-0"
140
1.0
141
12.0
290
     0
  0
SCALE
  5
65
102
{ACAD_REACTORS
330
47
102
}
330
47
100
AcDbScale
 70
     0
300
1-1/2" = 1'-0"
140
1.5
141
12.0
290
     0
  0
SCALE
  5
66
102
{ACAD_REACTORS
330
47
102
}
330
47
100
AcDbScale
 70
     0
300
3" = 1'-0"
140
3.0
141
12.0
290
     0
  0
SCALE
  5
67
102
{ACAD_REACTORS
330
47
102
}
330
47
100
AcDbScale
 70
     0
300
6" = 1'-0"
140
6.0
141
12.0
290
     0
  0
SCALE
  5
68
102
{ACAD_REACTORS
330
47
102
}
330
47
100
AcDbScale
 70
     0
300
1'-0" = 1'-0"
140
12.0
141
12.0
290
     0
  0
ENDSEC
  0
EOF
