  0
SECTION
  2
HEADER
  9
$ACADVER
  1
AC1009
  9
$INSBASE
 10
0.0
 20
0.0
 30
0.0
  9
$EXTMIN
 10
0.0
 20
0.0
 30
0.0
  9
$EXTMAX
 10
1189.0
 20
841.0
 30
0.0
  9
$LIMMIN
 10
0.0
 20
0.0
  9
$LIMMAX
 10
1189.0
 20
841.0
  9
$ORTHOMODE
 70
     0
  9
$REGENMODE
 70
     1
  9
$FILLMODE
 70
     1
  9
$QTEXTMODE
 70
     0
  9
$MIRRTEXT
 70
     1
  9
$DRAGMODE
 70
     2
  9
$LTSCALE
 40
1.0
  9
$OSMODE
 70
    37
  9
$ATTMODE
 70
     1
  9
$TEXTSIZE
 40
3.5
  9
$TRACEWID
 40
1.0
  9
$TEXTSTYLE
  7
STANDARD
  9
$CLAYER
  8
0
  9
$CELTYPE
  6
BYLAYER
  9
$CECOLOR
 62
   256
  9
$DIMSCALE
 40
1.0
  9
$DIMASZ
 40
3.302
  9
$DIMEXO
 40
1.0
  9
$DIMDLI
 40
3.75
  9
$DIMRND
 40
0.0
  9
$DIMDLE
 40
0.0
  9
$DIMEXE
 40
1.0
  9
$DIMTP
 40
0.0
  9
$DIMTM
 40
0.0
  9
$DIMTXT
 40
3.5
  9
$DIMCEN
 40
2.5
  9
$DIMTSZ
 40
0.0
  9
$DIMTOL
 70
     0
  9
$DIMLIM
 70
     0
  9
$DIMTIH
 70
     1
  9
$DIMTOH
 70
     1
  9
$DIMSE1
 70
     0
  9
$DIMSE2
 70
     0
  9
$DIMTAD
 70
     1
  9
$DIMZIN
 70
     1
  9
$DIMBLK
  1

  9
$DIMASO
 70
     1
  9
$DIMSHO
 70
     1
  9
$DIMPOST
  1

  9
$DIMAPOST
  1

  9
$DIMALT
 70
     0
  9
$DIMALTD
 70
     3
  9
$DIMALTF
 40
0.0393700787
  9
$DIMLFAC
 40
0.5
  9
$DIMTOFL
 70
     1
  9
$DIMTVP
 40
0.0
  9
$DIMTIX
 70
     0
  9
$DIMSOXD
 70
     0
  9
$DIMSAH
 70
     0
  9
$DIMBLK1
  1

  9
$DIMBLK2
  1

  9
$DIMSTYLE
  2
ISO-25
  9
$DIMCLRD
 70
     0
  9
$DIMCLRE
 70
     0
  9
$DIMCLRT
 70
     0
  9
$DIMTFAC
 40
1.0
  9
$DIMGAP
 40
1.524
  9
$LUNITS
 70
     2
  9
$LUPREC
 70
     2
  9
$SKETCHINC
 40
1.0
  9
$FILLETRAD
 40
10.0
  9
$AUNITS
 70
     0
  9
$AUPREC
 70
     2
  9
$MENU
  1
.
  9
$ELEVATION
 40
0.0
  9
$PELEVATION
 40
0.0
  9
$THICKNESS
 40
0.0
  9
$LIMCHECK
 70
     0
  9
$BLIPMODE
 70
     0
  9
$CHAMFERA
 40
0.0
  9
$CHAMFERB
 40
0.0
  9
$SKPOLY
 70
     0
  9
$TDCREATE
 40
2459583.7204282409511507
  9
$TDUPDATE
 40
2459584.5011226860806346
  9
$TDINDWG
 40
0.0046875116
  9
$TDUSRTIMER
 40
0.0046875116
  9
$USRTIMER
 70
     1
  9
$ANGBASE
 50
0.0
  9
$ANGDIR
 70
     0
  9
$PDMODE
 70
     0
  9
$PDSIZE
 40
-1.0
  9
$PLINEWID
 40
0.0
  9
$COORDS
 70
     1
  9
$SPLFRAME
 70
     0
  9
$SPLINETYPE
 70
     6
  9
$SPLINESEGS
 70
     8
  9
$ATTDIA
 70
     1
  9
$ATTREQ
 70
     1
  9
$HANDLING
 70
     1
  9
$HANDSEED
  5
5D2
  9
$SURFTAB1
 70
     6
  9
$SURFTAB2
 70
     6
  9
$SURFTYPE
 70
     6
  9
$SURFU
 70
     6
  9
$SURFV
 70
     6
  9
$UCSNAME
  2

  9
$UCSORG
 10
0.0
 20
0.0
 30
0.0
  9
$UCSXDIR
 10
1.0
 20
0.0
 30
0.0
  9
$UCSYDIR
 10
0.0
 20
1.0
 30
0.0
  9
$PUCSNAME
  2

  9
$PUCSORG
 10
0.0
 20
0.0
 30
0.0
  9
$PUCSXDIR
 10
1.0
 20
0.0
 30
0.0
  9
$PUCSYDIR
 10
0.0
 20
1.0
 30
0.0
  9
$USERI1
 70
     0
  9
$USERI2
 70
     0
  9
$USERI3
 70
     0
  9
$USERI4
 70
     0
  9
$USERI5
 70
     0
  9
$USERR1
 40
0.0
  9
$USERR2
 40
0.0
  9
$USERR3
 40
0.0
  9
$USERR4
 40
0.0
  9
$USERR5
 40
0.0
  9
$WORLDVIEW
 70
     1
  9
$SHADEDGE
 70
     3
  9
$SHADEDIF
 70
    70
  9
$TILEMODE
 70
     1
  9
$MAXACTVP
 70
    64
  9
$PLIMCHECK
 70
     0
  9
$PEXTMIN
 10
1.0000000000000000E+20
 20
1.0000000000000000E+20
 30
1.0000000000000000E+20
  9
$PEXTMAX
 10
-1.0000000000000000E+20
 20
-1.0000000000000000E+20
 30
-1.0000000000000000E+20
  9
$PLIMMIN
 10
0.0
 20
0.0
  9
$PLIMMAX
 10
420.0
 20
297.0
  9
$UNITMODE
 70
     0
  9
$VISRETAIN
 70
     1
  9
$PLINEGEN
 70
     0
  9
$PSLTSCALE
 70
     1
  0
ENDSEC
  0
SECTION
  2
TABLES
  0
TABLE
  2
VPORT
 70
     1
  0
VPORT
  2
*ACTIVE
 70
     0
 10
0.0
 20
0.0
 11
1.0
 21
1.0
 12
632.669491094944874
 22
331.1950072883741996
 13
0.0
 23
0.0
 14
10.0
 24
10.0
 15
10.0
 25
10.0
 16
0.0
 26
0.0
 36
1.0
 17
0.0
 27
0.0
 37
0.0
 40
599.3710800266167098
 41
2.4830729166666661
 42
50.0
 43
0.0
 44
0.0
 50
0.0
 51
0.0
 71
     0
 72
  2000
 73
     1
 74
     3
 75
     0
 76
     0
 77
     0
 78
     0
  0
ENDTAB
  0
TABLE
  2
LTYPE
 70
    18
  0
LTYPE
  2
CONTINUOUS
 70
     0
  3
Solid line
 72
    65
 73
     0
 40
0.0
  0
LTYPE
  2
HIDDEN
 70
     0
  3
Hidden __ __ __ __ __ __ __ __ __ __ __ __ __ __
 72
    65
 73
     2
 40
1.905
 49
1.27
 49
-0.635
  0
LTYPE
  2
PHANTOM
 70
     0
  3
Phantom ______  __  __  ______  __  __  ______
 72
    65
 73
     6
 40
12.6999999999999993
 49
6.3499999999999988
 49
-1.27
 49
1.27
 49
-1.27
 49
1.27
 49
-1.27
  0
LTYPE
  2
CENTER
 70
     0
  3
Center ____ _ ____ _ ____ _ ____ _ ____ _ ____
 72
    65
 73
     4
 40
10.1600000000000001
 49
6.3499999999999988
 49
-1.27
 49
1.27
 49
-1.27
  0
LTYPE
  2
CENTERX2
 70
     0
  3
Center (2x) ________  __  ________  __  _____
 72
    65
 73
     4
 40
20.3200000000000003
 49
12.6999999999999993
 49
-2.54
 49
2.54
 49
-2.54
  0
LTYPE
  2
DOT2
 70
     0
  3
Dot (.5x) ........................................
 72
    65
 73
     2
 40
0.635
 49
0.0
 49
-0.635
  0
LTYPE
  2
PHANTOM2
 70
     0
  3
Phantom (.5x) ___ _ _ ___ _ _ ___ _ _ ___ _ _
 72
    65
 73
     6
 40
31.75
 49
15.875
 49
-3.1749999999999989
 49
3.1749999999999989
 49
-3.1749999999999989
 49
3.1749999999999989
 49
-3.1749999999999989
  0
LTYPE
  2
AM_ISO02W050
 70
     0
  3
__ __ __ __ __ __ __ __ __ __ __ __ __ __ __
 72
    65
 73
     2
 40
7.5
 49
6.0
 49
-1.5
  0
LTYPE
  2
AM_ISO08W050
 70
     0
  3
____ . ____ . ____ . ____ . ____ . ____ . ____
 72
    65
 73
     4
 40
18.0
 49
12.0
 49
-1.5
 49
3.0
 49
-1.5
  0
LTYPE
  2
AM_ISO09W050
 70
     0
  3
_____ . . _____ . . _____ . . ____ .. ____
 72
    65
 73
     6
 40
22.5
 49
12.0
 49
-1.5
 49
3.0
 49
-1.5
 49
3.0
 49
-1.5
  0
LTYPE
  2
AMCONSTR
 70
     0
  3
_______________________
 72
    65
 73
     2
 40
9999.0
 49
9999.0
 49
0.0
  0
LTYPE
  2
AM_ISO08W050X2
 70
     0
  3
__ . __ . __ . __ . __ . __
 72
    65
 73
     4
 40
9.0
 49
6.0
 49
-0.75
 49
1.5
 49
-0.75
  0
LTYPE
  2
AM_ISO02W050X2
 70
     0
  3
 _ _ _ _ _ _ _ _ _ _ _ _
 72
    65
 73
     2
 40
3.75
 49
3.0
 49
-0.75
  0
LTYPE
  2
AMZIGZAG
 70
     0
  3
/\/-/\/-/\/-/\/-/\/-/\/
 72
    65
 73
     2
 40
11.0000999999999998
 49
0.0001
 49
-11.0
  0
LTYPE
  2
ACISOWELD
 70
     0
  3
_ _ _ _ _
 72
    65
 73
     2
 40
2.0
 49
2.0
 49
-1.0
  0
LTYPE
  2
ACISOTGL
 70
     0
  3
_ _ _ _ _
 72
    65
 73
     2
 40
3.0
 49
2.0
 49
-1.0
  0
LTYPE
  2
ACISOTGB
 70
     0
  3
__ . . __ . .
 72
    65
 73
     6
 40
9.0
 49
4.0
 49
-1.0
 49
1.0
 49
-1.0
 49
1.0
 49
-1.0
  0
ENDTAB
  0
TABLE
  2
LAYER
 70
     6
  0
LAYER
  2
0
 70
     0
 62
     7
  6
CONTINUOUS
  0
LAYER
  2
BORDER
 70
     0
 62
     7
  6
CONTINUOUS
  0
LAYER
  2
TRIM
 70
     0
 62
     7
  6
CONTINUOUS
  0
LAYER
  2
TEXT
 70
     0
 62
     7
  6
CONTINUOUS
  0
LAYER
  2
DIMENSIONS
 70
     0
 62
     5
  6
CONTINUOUS
  0
LAYER
  2
AM_5
 70
     0
 62
     3
  6
CONTINUOUS
  0
ENDTAB
  0
TABLE
  2
STYLE
 70
     9
  0
STYLE
  2
STANDARD
 70
     0
 40
0.0
 41
1.0
 50
0.0
 71
     0
 42
3.5
  3
txt
  4

  0
STYLE
  2
SLDTEXTSTYLE0
 70
     0
 40
0.0
 41
0.605
 50
0.0
 71
     0
 42
3.5
  3
TXT
  4

  0
STYLE
  2
SLDTEXTSTYLE1
 70
     0
 40
0.0
 41
0.57
 50
0.0
 71
     0
 42
3.5
  3
TXT
  4

  0
STYLE
  2
SLDTEXTSTYLE2
 70
     0
 40
0.0
 41
0.75
 50
0.0
 71
     0
 42
3.5
  3
TXT
  4

  0
STYLE
  2
SLDTEXTSTYLE3
 70
     0
 40
0.0
 41
0.605
 50
0.0
 71
     0
 42
3.5
  3
TXT
  4
bigfont
  0
STYLE
  2

 70
     1
 40
0.0
 41
1.0
 50
0.0
 71
     0
 42
3.5
  3
genltshp.shx
  4

  0
STYLE
  2
ACISOTS
 70
     0
 40
0.0
 41
1.0
 50
0.0
 71
     0
 42
3.5
  3
isocp.shx
  4

  0
STYLE
  2
ACISOGDT
 70
     0
 40
0.0
 41
1.0
 50
0.0
 71
     0
 42
3.5
  3
amgdt.shx
  4

  0
STYLE
  2
MtXpl_MS_PGothic
 70
     0
 40
0.0
 41
1.0
 50
0.0
 71
     0
 42
3.5
  3
txt
  4

  0
ENDTAB
  0
TABLE
  2
VIEW
 70
     0
  0
ENDTAB
  0
TABLE
  2
UCS
 70
     0
  0
ENDTAB
  0
TABLE
  2
APPID
 70
    11
  0
APPID
  2
ACAD
 70
     0
  0
APPID
  2
MCAD_NO_VIS
 70
     0
  0
APPID
  2
ACAD_TEMP_GRAPHIC
 70
     0
  0
APPID
  2
ACATTRIBSERVICES
 70
     0
  0
APPID
  2
DESIGNERASSEMBLIES
 70
     0
  0
APPID
  2
ACAD_DSTYLE_DIMJAG
 70
     0
  0
APPID
  2
ACAD_DSTYLE_DIMBREAK
 70
     0
  0
APPID
  2
ACAD_NAV_VCDISPLAY
 70
     0
  0
APPID
  2
ACAECLAYERSTANDARD
 70
     0
  0
APPID
  2
ACAD_EXEMPT_FROM_CAD_STANDARDS
 70
     0
  0
APPID
  2
ACAD_MLEADERVER
 70
     0
  0
ENDTAB
  0
TABLE
  2
DIMSTYLE
 70
    11
  0
DIMSTYLE
  2
ISO-25
 70
     0
  3

  4

  5

  6

  7

 40
1.0
 41
2.5
 42
0.625
 43
3.75
 44
1.25
 45
0.0
 46
0.0
 47
0.0
 48
0.0
140
2.5
141
2.5
142
0.0
143
0.0393700787
144
1.0
145
0.0
146
1.0
147
0.625
 71
     0
 72
     0
 73
     0
 74
     0
 75
     0
 76
     0
 77
     1
 78
     8
170
     0
171
     3
172
     1
173
     0
174
     0
175
     0
176
     0
177
     0
178
     0
  0
DIMSTYLE
  2
SLDDIMSTYLE0
 70
     0
  3

  4

  5

  6

  7

 40
1.0
 41
3.302
 42
0.0625
 43
0.38
 44
0.0
 45
0.000000001
 46
0.0
 47
0.0
 48
0.0
140
3.5
141
0.09
142
0.0
143
25.3999999999999986
144
0.5
145
0.0
146
1.0
147
0.875
 71
     0
 72
     0
 73
     0
 74
     0
 75
     0
 76
     0
 77
     1
 78
     4
170
     0
171
     2
172
     0
173
     1
174
     0
175
     0
176
     0
177
     0
178
     0
  0
DIMSTYLE
  2
SLDDIMSTYLE1
 70
     0
  3

  4

  5

  6

  7

 40
1.0
 41
3.302
 42
0.0625
 43
0.38
 44
0.0
 45
0.000000001
 46
0.0
 47
0.0
 48
0.0
140
3.5
141
0.09
142
0.0
143
25.3999999999999986
144
0.5
145
0.0
146
1.0
147
0.875
 71
     0
 72
     0
 73
     0
 74
     0
 75
     0
 76
     0
 77
     1
 78
     4
170
     0
171
     2
172
     1
173
     1
174
     0
175
     0
176
     0
177
     0
178
     0
  0
DIMSTYLE
  2
SLDDIMSTYLE2
 70
     0
  3

  4

  5

  6

  7

 40
1.0
 41
3.302
 42
0.0625
 43
0.38
 44
0.0
 45
0.000000001
 46
0.0
 47
0.0
 48
0.0
140
3.5
141
0.0
142
0.0
143
25.3999999999999986
144
0.5
145
0.0
146
1.0
147
0.875
 71
     0
 72
     0
 73
     1
 74
     1
 75
     0
 76
     0
 77
     0
 78
     4
170
     0
171
     2
172
     0
173
     1
174
     0
175
     0
176
     0
177
     0
178
     0
  0
DIMSTYLE
  2
AM_ISO
 70
     0
  3

  4
"
  5

  6

  7

 40
1.0
 41
3.5
 42
1.0
 43
10.0
 44
1.0
 45
0.0
 46
0.0
 47
0.1
 48
0.1
140
3.5
141
0.0
142
0.0
143
0.0393701
144
1.0
145
0.0
146
0.71
147
1.5
 71
     0
 72
     0
 73
     0
 74
     0
 75
     0
 76
     0
 77
     1
 78
     8
170
     0
171
     2
172
     1
173
     0
174
     0
175
     0
176
   256
177
   256
178
     2
  0
DIMSTYLE
  2
AM_ISO$3
 70
     0
  3

  4
"
  5

  6

  7

 40
1.0
 41
3.5
 42
1.0
 43
10.0
 44
1.0
 45
0.0
 46
0.0
 47
0.1
 48
0.1
140
3.5
141
0.0
142
0.0
143
0.0393701
144
1.0
145
0.0
146
0.71
147
1.5
 71
     0
 72
     0
 73
     0
 74
     1
 75
     0
 76
     0
 77
     1
 78
     8
170
     0
171
     2
172
     0
173
     0
174
     0
175
     0
176
   256
177
   256
178
     2
  0
DIMSTYLE
  2
AM_ISO$4
 70
     0
  3

  4
"
  5

  6

  7

 40
1.0
 41
3.5
 42
1.0
 43
10.0
 44
1.0
 45
0.0
 46
0.0
 47
0.1
 48
0.1
140
3.5
141
0.0
142
0.0
143
0.0393701
144
1.0
145
0.0
146
0.71
147
1.5
 71
     0
 72
     0
 73
     0
 74
     1
 75
     0
 76
     0
 77
     1
 78
     8
170
     0
171
     2
172
     0
173
     0
174
     0
175
     0
176
   256
177
   256
178
     2
  0
DIMSTYLE
  2
AM_ISO$6
 70
     0
  3

  4
"
  5

  6

  7

 40
1.0
 41
3.5
 42
1.0
 43
10.0
 44
1.0
 45
0.0
 46
0.0
 47
0.1
 48
0.1
140
3.5
141
0.0
142
0.0
143
0.0393701
144
1.0
145
0.0
146
0.71
147
1.5
 71
     0
 72
     0
 73
     0
 74
     0
 75
     0
 76
     0
 77
     0
 78
     8
170
     0
171
     2
172
     1
173
     0
174
     0
175
     0
176
   256
177
   256
178
     2
  0
DIMSTYLE
  2
AM_ISO$7
 70
     0
  3

  4
"
  5

  6

  7

 40
1.0
 41
3.5
 42
1.0
 43
10.0
 44
1.0
 45
0.0
 46
0.0
 47
0.1
 48
0.1
140
3.5
141
0.0
142
0.0
143
0.0393701
144
1.0
145
0.0
146
0.71
147
1.5
 71
     0
 72
     0
 73
     0
 74
     0
 75
     0
 76
     0
 77
     1
 78
     8
170
     0
171
     2
172
     1
173
     0
174
     0
175
     0
176
   256
177
   256
178
     2
  0
DIMSTYLE
  2
AM_ISO$SF
 70
     0
  3

  4
"
  5

  6

  7

 40
1.0
 41
3.5
 42
1.0
 43
10.0
 44
1.0
 45
0.0
 46
0.0
 47
0.1
 48
0.1
140
3.5
141
0.0
142
0.0
143
0.0393701
144
1.0
145
0.0
146
0.71
147
1.5
 71
     0
 72
     0
 73
     0
 74
     0
 75
     1
 76
     1
 77
     1
 78
     8
170
     0
171
     2
172
     1
173
     0
174
     0
175
     0
176
   256
177
   256
178
     2
  0
DIMSTYLE
  2
AM_ISO$SH
 70
     0
  3

  4
"
  5

  6
GENAXEH
  7

 40
1.0
 41
3.5
 42
1.0
 43
10.0
 44
1.0
 45
0.0
 46
0.0
 47
0.1
 48
0.1
140
3.5
141
0.0
142
0.0
143
0.0393701
144
2.0
145
0.0
146
0.71
147
1.5
 71
     0
 72
     0
 73
     0
 74
     0
 75
     1
 76
     1
 77
     1
 78
     8
170
     0
171
     2
172
     1
173
     1
174
     0
175
     0
176
   256
177
   256
178
     2
  0
ENDTAB
  0
ENDSEC
  0
SECTION
  2
BLOCKS
  0
BLOCK
  8
0
  2
$MODEL_SPACE
 70
     0
 10
0.0
 20
0.0
 30
0.0
  3
$MODEL_SPACE
  1

  0
ENDBLK
  5
21
  8
0
  0
BLOCK
 67
     1
  8
0
  2
$PAPER_SPACE
 70
     0
 10
0.0
 20
0.0
 30
0.0
  3
$PAPER_SPACE
  1

  0
ENDBLK
  5
1D
 67
     1
  8
0
  0
BLOCK
  8
0
  2
SW_NOTE_0
 70
     0
 10
0.0
 20
0.0
 30
0.0
  3
SW_NOTE_0
  1

  0
INSERT
  5
157
  8
0
  2
*U102
 10
0.0
 20
0.0
 30
0.0
  0
INSERT
  5
158
  8
0
  2
*U103
 10
0.0
 20
0.0
 30
0.0
  0
ENDBLK
  5
156
  8
0
  0
BLOCK
  8
0
  2
SW_NOTE_1
 70
     0
 10
0.0
 20
0.0
 30
0.0
  3
SW_NOTE_1
  1

  0
INSERT
  5
173
  8
0
  2
*U125
 10
0.0
 20
0.0
 30
0.0
  0
INSERT
  5
175
  8
0
  2
*U126
 10
0.0
 20
0.0
 30
0.0
  0
INSERT
  5
176
  8
0
  2
*U127
 10
0.0
 20
0.0
 30
0.0
  0
INSERT
  5
177
  8
0
  2
*U128
 10
0.0
 20
0.0
 30
0.0
  0
ENDBLK
  5
172
  8
0
  0
BLOCK
  8
0
  2
_D
 70
     0
 10
0.0
 20
0.0
 30
0.0
  3
_D
  1

  0
SOLID
  5
194
  8
BORDER
 10
309.4651961961000097
 20
638.8805477616000417
 30
0.0
 11
308.9571961961000284
 21
635.5785477616000207
 31
0.0
 12
309.9731961960999911
 22
635.5785477616000207
 32
0.0
 13
309.9731961960999911
 23
635.5785477616000207
 33
0.0
  0
SOLID
  5
195
  8
BORDER
 10
309.4651961961000097
 20
550.8805477616000417
 30
0.0
 11
309.9731961960999911
 21
554.1825477615999489
 31
0.0
 12
308.9571961961000284
 22
554.1825477615999489
 32
0.0
 13
308.9571961961000284
 23
554.1825477615999489
 33
0.0
  0
LINE
  5
196
  8
BORDER
 10
389.4651961961000097
 20
638.8805477616000417
 30
0.0
 11
308.4651961961000097
 21
638.8805477616000417
 31
0.0
  0
LINE
  5
197
  8
BORDER
 10
324.4651961961000097
 20
550.8805477616000417
 30
0.0
 11
308.4651961961000097
 21
550.8805477616000417
 31
0.0
  0
LINE
  5
198
  8
BORDER
 10
309.4651961961000097
 20
638.8805477616000417
 30
0.0
 11
309.4651961961000097
 21
550.8805477616000417
 31
0.0
  0
INSERT
  5
199
  8
0
  2
*U129
 10
0.0
 20
0.0
 30
0.0
  0
ENDBLK
  5
193
  8
0
  0
BLOCK
  8
0
  2
_D_1
 70
     0
 10
0.0
 20
0.0
 30
0.0
  3
_D_1
  1

  0
SOLID
  5
19E
  8
BORDER
 10
325.4651961961000097
 20
525.5701001027999837
 30
0.0
 11
328.7671961960999738
 21
525.0621001027999455
 31
0.0
 12
328.7671961960999738
 22
526.0781001028000219
 32
0.0
 13
328.7671961960999738
 23
526.0781001028000219
 33
0.0
  0
SOLID
  5
19F
  8
BORDER
 10
505.4651961961000097
 20
525.5701001027999837
 30
0.0
 11
502.1631961960998751
 21
526.0781001028000219
 31
0.0
 12
502.1631961960998751
 22
525.0621001027999455
 32
0.0
 13
502.1631961960998751
 23
525.0621001027999455
 33
0.0
  0
LINE
  5
1A0
  8
BORDER
 10
325.4651961961000097
 20
549.8805477616000417
 30
0.0
 11
325.4651961961000097
 21
524.5701001027999837
 31
0.0
  0
LINE
  5
1A1
  8
BORDER
 10
505.4651961961000097
 20
549.8805477616000417
 30
0.0
 11
505.4651961961000097
 21
524.5701001027999837
 31
0.0
  0
LINE
  5
1A2
  8
BORDER
 10
325.4651961961000097
 20
525.5701001027999837
 30
0.0
 11
505.4651961961000097
 21
525.5701001027999837
 31
0.0
  0
INSERT
  5
1A3
  8
0
  2
*U130
 10
0.0
 20
0.0
 30
0.0
  0
ENDBLK
  5
19D
  8
0
  0
BLOCK
  8
0
  2
_D_2
 70
     0
 10
0.0
 20
0.0
 30
0.0
  3
_D_2
  1

  0
SOLID
  5
1A8
  8
BORDER
 10
440.4651961961000097
 20
656.0349114251000628
 30
0.0
 11
437.1631961960998751
 21
656.5429114250998737
 31
0.0
 12
437.1631961960998751
 22
655.5269114251000246
 32
0.0
 13
437.1631961960998751
 23
655.5269114251000246
 33
0.0
  0
SOLID
  5
1A9
  8
BORDER
 10
390.4651961961000097
 20
656.0349114251000628
 30
0.0
 11
393.7671961961000875
 21
655.5269114251000246
 31
0.0
 12
393.7671961961000875
 22
656.5429114250998737
 32
0.0
 13
393.7671961961000875
 23
656.5429114250998737
 33
0.0
  0
LINE
  5
1AA
  8
BORDER
 10
440.4651961961000097
 20
639.8805477616000417
 30
0.0
 11
440.4651961961000097
 21
657.0349114250999492
 31
0.0
  0
LINE
  5
1AB
  8
BORDER
 10
390.4651961961000097
 20
639.8805477616000417
 30
0.0
 11
390.4651961961000097
 21
657.0349114250999492
 31
0.0
  0
LINE
  5
1AC
  8
BORDER
 10
440.4651961961000097
 20
656.0349114251000628
 30
0.0
 11
390.4651961961000097
 21
656.0349114251000628
 31
0.0
  0
INSERT
  5
1AD
  8
0
  2
*U131
 10
0.0
 20
0.0
 30
0.0
  0
ENDBLK
  5
1A7
  8
0
  0
BLOCK
  8
0
  2
_D_3
 70
     0
 10
0.0
 20
0.0
 30
0.0
  3
_D_3
  1

  0
SOLID
  5
1B3
  8
BORDER
 10
318.4814406587000235
 20
638.8805477616000417
 30
0.0
 11
318.9894406587000049
 21
642.1825477616000626
 31
0.0
 12
317.9734406586999853
 22
642.1825477616000626
 32
0.0
 13
317.9734406586999853
 23
642.1825477616000626
 33
0.0
  0
SOLID
  5
1B4
  8
BORDER
 10
318.4814406587000235
 20
632.8805477616000417
 30
0.0
 11
317.9734406586999853
 21
629.5785477616000207
 31
0.0
 12
318.9894406587000049
 22
629.5785477616000207
 32
0.0
 13
318.9894406587000049
 23
629.5785477616000207
 33
0.0
  0
LINE
  5
1B5
  8
BORDER
 10
389.4651961961000097
 20
638.8805477616000417
 30
0.0
 11
317.4814406587000235
 21
638.8805477616000417
 31
0.0
  0
LINE
  5
1B6
  8
BORDER
 10
324.4651961961000097
 20
632.8805477616000417
 30
0.0
 11
317.4814406587000235
 21
632.8805477616000417
 31
0.0
  0
LINE
  5
1B7
  8
BORDER
 10
318.4814406587000235
 20
638.8805477616000417
 30
0.0
 11
318.4814406587000235
 21
650.9056007056999533
 31
0.0
  0
LINE
  5
1B8
  8
BORDER
 10
318.4814406587000235
 20
638.8805477616000417
 30
0.0
 11
318.4814406587000235
 21
632.8805477616000417
 31
0.0
  0
LINE
  5
1B9
  8
BORDER
 10
318.4814406587000235
 20
632.8805477616000417
 30
0.0
 11
318.4814406587000235
 21
626.5305477616000189
 31
0.0
  0
INSERT
  5
1BA
  8
0
  2
*U132
 10
0.0
 20
0.0
 30
0.0
  0
ENDBLK
  5
1B2
  8
0
  0
BLOCK
  8
0
  2
_D_4
 70
     0
 10
0.0
 20
0.0
 30
0.0
  3
_D_4
  1

  0
SOLID
  5
1BF
  8
BORDER
 10
521.4651961961000097
 20
558.8805477616000417
 30
0.0
 11
520.9571961960999715
 21
555.5785477616000207
 31
0.0
 12
521.9731961961000479
 22
555.5785477616000207
 32
0.0
 13
521.9731961961000479
 23
555.5785477616000207
 33
0.0
  0
SOLID
  5
1C0
  8
BORDER
 10
521.4651961961000097
 20
550.8805477616000417
 30
0.0
 11
521.9731961961000479
 21
554.1825477615999489
 31
0.0
 12
520.9571961960999715
 22
554.1825477615999489
 32
0.0
 13
520.9571961960999715
 23
554.1825477615999489
 33
0.0
  0
LINE
  5
1C1
  8
BORDER
 10
441.465196196099896
 20
558.8805477616000417
 30
0.0
 11
522.4651961961000097
 21
558.8805477616000417
 31
0.0
  0
LINE
  5
1C2
  8
BORDER
 10
506.4651961961000097
 20
550.8805477616000417
 30
0.0
 11
522.4651961961000097
 21
550.8805477616000417
 31
0.0
  0
LINE
  5
1C3
  8
BORDER
 10
521.4651961961000097
 20
558.8805477616000417
 30
0.0
 11
521.4651961961000097
 21
571.7595960209998793
 31
0.0
  0
LINE
  5
1C4
  8
BORDER
 10
521.4651961961000097
 20
558.8805477616000417
 30
0.0
 11
521.4651961961000097
 21
550.8805477616000417
 31
0.0
  0
INSERT
  5
1C5
  8
0
  2
*U133
 10
0.0
 20
0.0
 30
0.0
  0
ENDBLK
  5
1BE
  8
0
  0
BLOCK
  8
0
  2
_D_5
 70
     0
 10
0.0
 20
0.0
 30
0.0
  3
_D_5
  1

  0
SOLID
  5
207
  8
BORDER
 10
285.4651961961000097
 20
364.8338017849999915
 30
0.0
 11
284.9571961961000284
 21
361.5318017850000274
 31
0.0
 12
285.9731961960999911
 22
361.5318017850000274
 32
0.0
 13
285.9731961960999911
 23
361.5318017850000274
 33
0.0
  0
SOLID
  5
208
  8
BORDER
 10
285.4651961961000097
 20
184.8338017849999915
 30
0.0
 11
285.9731961960999911
 21
188.1358017850000124
 31
0.0
 12
284.9571961961000284
 22
188.1358017850000124
 32
0.0
 13
284.9571961961000284
 23
188.1358017850000124
 33
0.0
  0
LINE
  5
209
  8
BORDER
 10
344.4651961961000097
 20
364.8338017849999915
 30
0.0
 11
284.4651961961000097
 21
364.8338017849999915
 31
0.0
  0
LINE
  5
20A
  8
BORDER
 10
344.4651961961000097
 20
184.8338017849999915
 30
0.0
 11
284.4651961961000097
 21
184.8338017849999915
 31
0.0
  0
LINE
  5
20B
  8
BORDER
 10
285.4651961961000097
 20
364.8338017849999915
 30
0.0
 11
285.4651961961000097
 21
184.8338017849999915
 31
0.0
  0
INSERT
  5
20C
  8
0
  2
*U134
 10
0.0
 20
0.0
 30
0.0
  0
ENDBLK
  5
206
  8
0
  0
BLOCK
  8
0
  2
_D_6
 70
     0
 10
0.0
 20
0.0
 30
0.0
  3
_D_6
  1

  0
SOLID
  5
212
  8
BORDER
 10
335.4485262919000093
 20
354.614718103600012
 30
0.0
 11
333.4409306823999941
 21
357.2850791032000188
 31
0.0
 12
332.7311156124000036
 22
356.5581550588000255
 32
0.0
 13
332.7311156124000036
 23
356.5581550588000255
 33
0.0
  0
LINE
  5
213
  8
BORDER
 10
335.4485262919000093
 20
354.614718103600012
 30
0.0
 11
318.6189001986999756
 21
371.0482400289999987
 31
0.0
  0
LINE
  5
214
  8
BORDER
 10
345.4651961961000097
 20
344.8338017849999915
 30
0.0
 11
335.4485262919000093
 21
354.614718103600012
 31
0.0
  0
LINE
  5
215
  8
BORDER
 10
318.6189001986999756
 20
371.0482400289999987
 30
0.0
 11
305.1459825733999764
 21
371.0482400289999987
 31
0.0
  0
INSERT
  5
216
  8
0
  2
*U135
 10
0.0
 20
0.0
 30
0.0
  0
ENDBLK
  5
211
  8
0
  0
BLOCK
  8
0
  2
GENAXEH
 70
     0
 10
0.0
 20
0.0
 30
0.0
  3
GENAXEH
  1

  0
LINE
  5
300
  8
0
 10
-1.0
 20
0.0
 30
0.0
 11
1.0
 21
0.0
 31
0.0
  0
ENDBLK
  5
302
  8
0
  0
BLOCK
  8
0
  2
*S12
 70
     1
 10
0.0
 20
0.0
 30
0.0
  3
*S12
  1

  0
LINE
  5
32B
  8
AM_5
 10
544.9396753729548664
 20
343.8045286301090186
 30
0.0
 11
531.5230087062882376
 21
343.8045286301090186
 31
0.0
  0
LINE
  5
32C
  8
AM_5
 10
531.5230087062882376
 20
343.8045286301090186
 30
0.0
 11
504.3130837158105919
 21
311.5178391480304754
 31
0.0
  0
TRACE
  5
32D
  8
AM_5
  6
CONTINUOUS
 10
503.8670294084662942
 20
311.8937558009673126
 30
0.0
 11
504.759138023154776
 21
311.1419224950935813
 31
0.0
 12
502.0575837891673814
 22
308.8415132932599931
 32
0.0
 13
502.0575837891673814
 23
308.8415132932599931
 33
0.0
  0
INSERT
  5
32E
  8
0
  2
*U136
 10
0.0
 20
0.0
 30
0.0
  0
ENDBLK
  5
330
  8
0
  0
BLOCK
  8
0
  2
*U13
 70
     1
 10
0.0
 20
0.0
 30
0.0
  3
*U13
  1

  0
SOLID
  5
359
  8
TRIM
  6
CONTINUOUS
 10
0.0
 20
9.9999999999999982
 30
0.0
 11
-5.0000000000000018
 21
4.9999999999999991
 31
0.0
 12
0.0
 22
4.9999999999999991
 32
0.0
 13
0.0
 23
4.9999999999999991
 33
0.0
210
0.0
220
0.0
230
-1.0
  0
SOLID
  5
35A
  8
TRIM
  6
CONTINUOUS
 10
0.0
 20
9.9999999999999982
 30
0.0
 11
-5.0000000000000009
 21
9.9999999999999982
 31
0.0
 12
-5.0000000000000018
 22
4.9999999999999991
 32
0.0
 13
-5.0000000000000018
 23
4.9999999999999991
 33
0.0
210
0.0
220
0.0
230
-1.0
  0
SOLID
  5
35B
  8
TRIM
  6
CONTINUOUS
 10
0.0
 20
4.9999999999999991
 30
0.0
 11
-10.0
 21
0.0
 31
0.0
 12
0.0
 22
0.0
 32
0.0
 13
0.0
 23
0.0
 33
0.0
210
0.0
220
0.0
230
-1.0
  0
SOLID
  5
35C
  8
TRIM
  6
CONTINUOUS
 10
0.0
 20
4.9999999999999991
 30
0.0
 11
-10.0
 21
4.9999999999999991
 31
0.0
 12
-10.0
 22
0.0
 32
0.0
 13
-10.0
 23
0.0
 33
0.0
210
0.0
220
0.0
230
-1.0
  0
LINE
  5
35D
  8
TRIM
  6
CONTINUOUS
 10
0.0
 20
4.9999999999999991
 30
0.0
 11
0.0
 21
9.9999999999999982
 31
0.0
  0
LINE
  5
35E
  8
TRIM
  6
CONTINUOUS
 10
5.0000000000000009
 20
9.9999999999999982
 30
0.0
 11
5.0000000000000018
 21
4.9999999999999991
 31
0.0
  0
LINE
  5
35F
  8
TRIM
  6
CONTINUOUS
 10
0.0
 20
0.0
 30
0.0
 11
0.0
 21
4.9999999999999991
 31
0.0
  0
LINE
  5
360
  8
TRIM
  6
CONTINUOUS
 10
10.0
 20
4.9999999999999991
 30
0.0
 11
10.0
 21
0.0
 31
0.0
  0
ENDBLK
  5
362
  8
0
  0
BLOCK
  8
0
  2
*U14
 70
     1
 10
0.0
 20
0.0
 30
0.0
  3
*U14
  1

  0
SOLID
  5
364
  8
TRIM
  6
CONTINUOUS
 10
0.0
 20
841.0
 30
0.0
 11
-9.999999999999801
 21
836.0
 31
0.0
 12
0.0
 22
836.0
 32
0.0
 13
0.0
 23
836.0
 33
0.0
210
0.0
220
0.0
230
-1.0
  0
SOLID
  5
365
  8
TRIM
  6
CONTINUOUS
 10
0.0
 20
841.0
 30
0.0
 11
-9.9999999999997975
 21
841.0
 31
0.0
 12
-9.999999999999801
 22
836.0
 32
0.0
 13
-9.999999999999801
 23
836.0
 33
0.0
210
0.0
220
0.0
230
-1.0
  0
SOLID
  5
366
  8
TRIM
  6
CONTINUOUS
 10
0.0
 20
836.0
 30
0.0
 11
-4.9999999999999014
 21
831.0
 31
0.0
 12
0.0
 22
831.0
 32
0.0
 13
0.0
 23
831.0
 33
0.0
210
0.0
220
0.0
230
-1.0
  0
SOLID
  5
367
  8
TRIM
  6
CONTINUOUS
 10
0.0
 20
836.0
 30
0.0
 11
-4.9999999999999014
 21
836.0
 31
0.0
 12
-4.9999999999999014
 22
831.0
 32
0.0
 13
-4.9999999999999014
 23
831.0
 33
0.0
210
0.0
220
0.0
230
-1.0
  0
LINE
  5
368
  8
TRIM
  6
CONTINUOUS
 10
0.0
 20
836.0
 30
0.0
 11
0.0
 21
841.0
 31
0.0
  0
LINE
  5
369
  8
TRIM
  6
CONTINUOUS
 10
9.9999999999997975
 20
841.0
 30
0.0
 11
9.999999999999801
 21
836.0
 31
0.0
  0
LINE
  5
36A
  8
TRIM
  6
CONTINUOUS
 10
0.0
 20
831.0
 30
0.0
 11
0.0
 21
836.0
 31
0.0
  0
LINE
  5
36B
  8
TRIM
  6
CONTINUOUS
 10
4.9999999999999014
 20
836.0
 30
0.0
 11
4.9999999999999014
 21
831.0
 31
0.0
  0
ENDBLK
  5
36D
  8
0
  0
BLOCK
  8
0
  2
*U15
 70
     1
 10
0.0
 20
0.0
 30
0.0
  3
*U15
  1

  0
SOLID
  5
36F
  8
TRIM
  6
CONTINUOUS
 10
-1179.0
 20
841.0
 30
0.0
 11
-1189.0
 21
836.0
 31
0.0
 12
-1179.0
 22
836.0
 32
0.0
 13
-1179.0
 23
836.0
 33
0.0
210
0.0
220
0.0
230
-1.0
  0
SOLID
  5
370
  8
TRIM
  6
CONTINUOUS
 10
-1179.0
 20
841.0
 30
0.0
 11
-1189.0
 21
841.0
 31
0.0
 12
-1189.0
 22
836.0
 32
0.0
 13
-1189.0
 23
836.0
 33
0.0
210
0.0
220
0.0
230
-1.0
  0
SOLID
  5
371
  8
TRIM
  6
CONTINUOUS
 10
-1184.0
 20
836.0
 30
0.0
 11
-1189.0
 21
831.0
 31
0.0
 12
-1184.0
 22
831.0
 32
0.0
 13
-1184.0
 23
831.0
 33
0.0
210
0.0
220
0.0
230
-1.0
  0
SOLID
  5
372
  8
TRIM
  6
CONTINUOUS
 10
-1184.0
 20
836.0
 30
0.0
 11
-1189.0
 21
836.0
 31
0.0
 12
-1189.0
 22
831.0
 32
0.0
 13
-1189.0
 23
831.0
 33
0.0
210
0.0
220
0.0
230
-1.0
  0
LINE
  5
373
  8
TRIM
  6
CONTINUOUS
 10
1179.0
 20
836.0
 30
0.0
 11
1179.0
 21
841.0
 31
0.0
  0
LINE
  5
374
  8
TRIM
  6
CONTINUOUS
 10
1189.0
 20
841.0
 30
0.0
 11
1189.0
 21
836.0
 31
0.0
  0
LINE
  5
375
  8
TRIM
  6
CONTINUOUS
 10
1184.0
 20
831.0
 30
0.0
 11
1184.0
 21
836.0
 31
0.0
  0
LINE
  5
376
  8
TRIM
  6
CONTINUOUS
 10
1189.0
 20
836.0
 30
0.0
 11
1189.0
 21
831.0
 31
0.0
  0
ENDBLK
  5
378
  8
0
  0
BLOCK
  8
0
  2
*U16
 70
     1
 10
0.0
 20
0.0
 30
0.0
  3
*U16
  1

  0
SOLID
  5
37A
  8
TRIM
  6
CONTINUOUS
 10
-1184.0
 20
10.0000000000000107
 30
0.0
 11
-1189.0
 21
5.0
 31
0.0
 12
-1184.0
 22
5.0
 32
0.0
 13
-1184.0
 23
5.0
 33
0.0
210
0.0
220
0.0
230
-1.0
  0
SOLID
  5
37B
  8
TRIM
  6
CONTINUOUS
 10
-1184.0
 20
10.0000000000000107
 30
0.0
 11
-1189.0
 21
10.0000000000000107
 31
0.0
 12
-1189.0
 22
5.0
 32
0.0
 13
-1189.0
 23
5.0
 33
0.0
210
0.0
220
0.0
230
-1.0
  0
SOLID
  5
37C
  8
TRIM
  6
CONTINUOUS
 10
-1179.0
 20
5.0
 30
0.0
 11
-1189.0
 21
0.0
 31
0.0
 12
-1179.0
 22
0.0
 32
0.0
 13
-1179.0
 23
0.0
 33
0.0
210
0.0
220
0.0
230
-1.0
  0
SOLID
  5
37D
  8
TRIM
  6
CONTINUOUS
 10
-1179.0
 20
5.0
 30
0.0
 11
-1189.0
 21
5.0
 31
0.0
 12
-1189.0
 22
0.0
 32
0.0
 13
-1189.0
 23
0.0
 33
0.0
210
0.0
220
0.0
230
-1.0
  0
LINE
  5
37E
  8
TRIM
  6
CONTINUOUS
 10
1184.0
 20
5.0
 30
0.0
 11
1184.0
 21
10.0000000000000107
 31
0.0
  0
LINE
  5
37F
  8
TRIM
  6
CONTINUOUS
 10
1189.0
 20
10.0000000000000107
 30
0.0
 11
1189.0
 21
5.0
 31
0.0
  0
LINE
  5
380
  8
TRIM
  6
CONTINUOUS
 10
1179.0
 20
0.0
 30
0.0
 11
1179.0
 21
5.0
 31
0.0
  0
LINE
  5
381
  8
TRIM
  6
CONTINUOUS
 10
1189.0
 20
5.0
 30
0.0
 11
1189.0
 21
0.0
 31
0.0
  0
ENDBLK
  5
383
  8
0
  0
BLOCK
  8
0
  2
*U17
 70
     1
 10
0.0
 20
0.0
 30
0.0
  3
*U17
  1

  0
TEXT
  5
385
  8
BORDER
 62
     7
 10
16.7987239064666589
 20
344.2394318762999887
 30
0.0
 40
3.5
  1
K
 41
0.605
  7
SLDTEXTSTYLE0
  0
ENDBLK
  5
387
  8
0
  0
BLOCK
  8
0
  2
*U18
 70
     1
 10
0.0
 20
0.0
 30
0.0
  3
*U18
  1

  0
TEXT
  5
389
  8
BORDER
 62
     7
 10
16.8254600429666716
 20
394.2394318762999887
 30
0.0
 40
3.5
  1
J
 41
0.605
  7
SLDTEXTSTYLE0
  0
ENDBLK
  5
38B
  8
0
  0
BLOCK
  8
0
  2
*U19
 70
     1
 10
0.0
 20
0.0
 30
0.0
  3
*U19
  1

  0
TEXT
  5
38D
  8
BORDER
 62
     7
 10
16.8026736566666592
 20
444.2394318762999887
 30
0.0
 40
3.5
  1
H
 41
0.605
  7
SLDTEXTSTYLE0
  0
ENDBLK
  5
38F
  8
0
  0
BLOCK
  8
0
  2
*U20
 70
     1
 10
0.0
 20
0.0
 30
0.0
  3
*U20
  1

  0
TEXT
  5
391
  8
BORDER
 62
     7
 10
16.7646961959666712
 20
494.2394318762999887
 30
0.0
 40
3.5
  1
G
 41
0.605
  7
SLDTEXTSTYLE0
  0
ENDBLK
  5
393
  8
0
  0
BLOCK
  8
0
  2
*U21
 70
     1
 10
0.0
 20
0.0
 30
0.0
  3
*U21
  1

  0
TEXT
  5
395
  8
BORDER
 62
     7
 10
16.8157378893666589
 20
594.2394318762999319
 30
0.0
 40
3.5
  1
E
 41
0.605
  7
SLDTEXTSTYLE0
  0
ENDBLK
  5
397
  8
0
  0
BLOCK
  8
0
  2
*U22
 70
     1
 10
0.0
 20
0.0
 30
0.0
  3
*U22
  1

  0
TEXT
  5
399
  8
BORDER
 62
     7
 10
16.786267333866661
 20
544.2394318762999319
 30
0.0
 40
3.5
  1
F
 41
0.605
  7
SLDTEXTSTYLE0
  0
ENDBLK
  5
39B
  8
0
  0
BLOCK
  8
0
  2
*U23
 70
     1
 10
0.0
 20
0.0
 30
0.0
  3
*U23
  1

  0
TEXT
  5
39D
  8
BORDER
 62
     7
 10
16.8023697735666602
 20
294.2394318762999887
 30
0.0
 40
3.5
  1
L
 41
0.605
  7
SLDTEXTSTYLE0
  0
ENDBLK
  5
39F
  8
0
  0
BLOCK
  8
0
  2
*U24
 70
     1
 10
0.0
 20
0.0
 30
0.0
  3
*U24
  1

  0
TEXT
  5
3A1
  8
BORDER
 62
     7
 10
268.7947742559666722
 20
5.7213323683999997
 30
0.0
 40
3.5
  1
6
 41
0.605
  7
SLDTEXTSTYLE0
  0
ENDBLK
  5
3A3
  8
0
  0
BLOCK
  8
0
  2
*U25
 70
     1
 10
0.0
 20
0.0
 30
0.0
  3
*U25
  1

  0
TEXT
  5
3A5
  8
BORDER
 62
     7
 10
518.5682465785998829
 20
5.7706814009
 30
0.0
 40
3.5
  1
11
 41
0.605
  7
SLDTEXTSTYLE0
  0
ENDBLK
  5
3A7
  8
0
  0
BLOCK
  8
0
  2
*U26
 70
     1
 10
0.0
 20
0.0
 30
0.0
  3
*U26
  1

  0
TEXT
  5
3A9
  8
BORDER
 62
     7
 10
418.7953819438665732
 20
5.7213323683999997
 30
0.0
 40
3.5
  1
9
 41
0.605
  7
SLDTEXTSTYLE0
  0
ENDBLK
  5
3AB
  8
0
  0
BLOCK
  8
0
  2
*U27
 70
     1
 10
0.0
 20
0.0
 30
0.0
  3
*U27
  1

  0
TEXT
  5
3AD
  8
BORDER
 62
     7
 10
68.7941666843666724
 20
5.7394318762999994
 30
0.0
 40
3.5
  1
2
 41
0.605
  7
SLDTEXTSTYLE0
  0
ENDBLK
  5
3AF
  8
0
  0
BLOCK
  8
0
  2
*U28
 70
     1
 10
0.0
 20
0.0
 30
0.0
  3
*U28
  1

  0
TEXT
  5
3B1
  8
BORDER
 62
     7
 10
31.7105816226333417
 20
5.7394318762999994
 30
0.0
 40
3.5
  1
1
 41
0.605
  7
SLDTEXTSTYLE0
  0
ENDBLK
  5
3B3
  8
0
  0
BLOCK
  8
0
  2
*U29
 70
     1
 10
0.0
 20
0.0
 30
0.0
  3
*U29
  1

  0
TEXT
  5
3B5
  8
BORDER
 62
     7
 10
218.7944705283665883
 20
5.7706814009
 30
0.0
 40
3.5
  1
5
 41
0.605
  7
SLDTEXTSTYLE0
  0
ENDBLK
  5
3B7
  8
0
  0
BLOCK
  8
0
  2
*U30
 70
     1
 10
0.0
 20
0.0
 30
0.0
  3
*U30
  1

  0
TEXT
  5
3B9
  8
BORDER
 62
     7
 10
568.1518316403332847
 20
5.774629323500001
 30
0.0
 40
3.5
  1
12
 41
0.605
  7
SLDTEXTSTYLE0
  0
ENDBLK
  5
3BB
  8
0
  0
BLOCK
  8
0
  2
*U31
 70
     1
 10
0.0
 20
0.0
 30
0.0
  3
*U31
  1

  0
TEXT
  5
3BD
  8
BORDER
 62
     7
 10
118.7962933594667021
 20
5.7667334782999999
 30
0.0
 40
3.5
  1
3
 41
0.605
  7
SLDTEXTSTYLE0
  0
ENDBLK
  5
3BF
  8
0
  0
BLOCK
  8
0
  2
*U32
 70
     1
 10
0.0
 20
0.0
 30
0.0
  3
*U32
  1

  0
TEXT
  5
3C1
  8
BORDER
 62
     7
 10
468.3307204927666021
 20
5.7213323683999997
 30
0.0
 40
3.5
  1
10
 41
0.605
  7
SLDTEXTSTYLE0
  0
ENDBLK
  5
3C3
  8
0
  0
BLOCK
  8
0
  2
*U33
 70
     1
 10
0.0
 20
0.0
 30
0.0
  3
*U33
  1

  0
TEXT
  5
3C5
  8
BORDER
 62
     7
 10
168.7880902702665935
 20
5.7213323683999997
 30
0.0
 40
3.5
  1
4
 41
0.605
  7
SLDTEXTSTYLE0
  0
ENDBLK
  5
3C7
  8
0
  0
BLOCK
  8
0
  2
*U34
 70
     1
 10
0.0
 20
0.0
 30
0.0
  3
*U34
  1

  0
TEXT
  5
3C9
  8
BORDER
 62
     7
 10
318.7978124629667036
 20
5.7706814009
 30
0.0
 40
3.5
  1
7
 41
0.605
  7
SLDTEXTSTYLE0
  0
ENDBLK
  5
3CB
  8
0
  0
BLOCK
  8
0
  2
*U35
 70
     1
 10
0.0
 20
0.0
 30
0.0
  3
*U35
  1

  0
TEXT
  5
3CD
  8
BORDER
 62
     7
 10
368.7950780998666005
 20
5.7706814009
 30
0.0
 40
3.5
  1
8
 41
0.605
  7
SLDTEXTSTYLE0
  0
ENDBLK
  5
3CF
  8
0
  0
BLOCK
  8
0
  2
*U36
 70
     1
 10
0.0
 20
0.0
 30
0.0
  3
*U36
  1

  0
TEXT
  5
3D1
  8
BORDER
 62
     7
 10
16.7932551914666597
 20
644.2394318762999319
 30
0.0
 40
3.5
  1
D
 41
0.605
  7
SLDTEXTSTYLE0
  0
ENDBLK
  5
3D3
  8
0
  0
BLOCK
  8
0
  2
*U37
 70
     1
 10
0.0
 20
0.0
 30
0.0
  3
*U37
  1

  0
TEXT
  5
3D5
  8
BORDER
 62
     7
 10
16.8139149418666705
 20
744.2394318763000456
 30
0.0
 40
3.5
  1
B
 41
0.605
  7
SLDTEXTSTYLE0
  0
ENDBLK
  5
3D7
  8
0
  0
BLOCK
  8
0
  2
*U38
 70
     1
 10
0.0
 20
0.0
 30
0.0
  3
*U38
  1

  0
TEXT
  5
3D9
  8
BORDER
 62
     7
 10
16.7807986356666596
 20
694.2394318763000456
 30
0.0
 40
3.5
  1
C
 41
0.605
  7
SLDTEXTSTYLE0
  0
ENDBLK
  5
3DB
  8
0
  0
BLOCK
  8
0
  2
*U39
 70
     1
 10
0.0
 20
0.0
 30
0.0
  3
*U39
  1

  0
TEXT
  5
3DD
  8
BORDER
 62
     7
 10
16.775329898366671
 20
794.2394318763000456
 30
0.0
 40
3.5
  1
A
 41
0.605
  7
SLDTEXTSTYLE0
  0
ENDBLK
  5
3DF
  8
0
  0
BLOCK
  8
0
  2
*U40
 70
     1
 10
0.0
 20
0.0
 30
0.0
  3
*U40
  1

  0
TEXT
  5
3E1
  8
BORDER
 62
     7
 10
668.1457552262334048
 20
5.7357343241999992
 30
0.0
 40
3.5
  1
14
 41
0.605
  7
SLDTEXTSTYLE0
  0
ENDBLK
  5
3E3
  8
0
  0
BLOCK
  8
0
  2
*U41
 70
     1
 10
0.0
 20
0.0
 30
0.0
  3
*U41
  1

  0
TEXT
  5
3E5
  8
BORDER
 62
     7
 10
718.1521354843332574
 20
5.7916120345999991
 30
0.0
 40
3.5
  1
15
 41
0.605
  7
SLDTEXTSTYLE0
  0
ENDBLK
  5
3E7
  8
0
  0
BLOCK
  8
0
  2
*U42
 70
     1
 10
0.0
 20
0.0
 30
0.0
  3
*U42
  1

  0
TEXT
  5
3E9
  8
BORDER
 62
     7
 10
618.1539583154333286
 20
5.7916120345999991
 30
0.0
 40
3.5
  1
13
 41
0.605
  7
SLDTEXTSTYLE0
  0
ENDBLK
  5
3EB
  8
0
  0
BLOCK
  8
0
  2
*U43
 70
     1
 10
0.0
 20
0.0
 30
0.0
  3
*U43
  1

  0
TEXT
  5
3ED
  8
BORDER
 62
     7
 10
768.1524393283333438
 20
5.7905541747999996
 30
0.0
 40
3.5
  1
16
 41
0.605
  7
SLDTEXTSTYLE0
  0
ENDBLK
  5
3EF
  8
0
  0
BLOCK
  8
0
  2
*U44
 70
     1
 10
0.0
 20
0.0
 30
0.0
  3
*U44
  1

  0
TEXT
  5
3F1
  8
BORDER
 62
     7
 10
918.153047016333403
 20
5.7569479534000001
 30
0.0
 40
3.5
  1
19
 41
0.605
  7
SLDTEXTSTYLE0
  0
ENDBLK
  5
3F3
  8
0
  0
BLOCK
  8
0
  2
*U45
 70
     1
 10
0.0
 20
0.0
 30
0.0
  3
*U45
  1

  0
TEXT
  5
3F5
  8
BORDER
 62
     7
 10
868.1527429395333684
 20
5.7569479534000001
 30
0.0
 40
3.5
  1
18
 41
0.605
  7
SLDTEXTSTYLE0
  0
ENDBLK
  5
3F7
  8
0
  0
BLOCK
  8
0
  2
*U46
 70
     1
 10
0.0
 20
0.0
 30
0.0
  3
*U46
  1

  0
TEXT
  5
3F9
  8
BORDER
 62
     7
 10
818.1554773025331997
 20
5.731838065299999
 30
0.0
 40
3.5
  1
17
 41
0.605
  7
SLDTEXTSTYLE0
  0
ENDBLK
  5
3FB
  8
0
  0
BLOCK
  8
0
  2
*U47
 70
     1
 10
0.0
 20
0.0
 30
0.0
  3
*U47
  1

  0
TEXT
  5
3FD
  8
BORDER
 62
     7
 10
1067.7354167020660043
 20
5.7310462972999989
 30
0.0
 40
3.5
  1
22
 41
0.605
  7
SLDTEXTSTYLE0
  0
ENDBLK
  5
3FF
  8
0
  0
BLOCK
  8
0
  2
*U48
 70
     1
 10
0.0
 20
0.0
 30
0.0
  3
*U48
  1

  0
TEXT
  5
401
  8
BORDER
 62
     7
 10
1018.1518316403329436
 20
5.7569479534000001
 30
0.0
 40
3.5
  1
21
 41
0.605
  7
SLDTEXTSTYLE0
  0
ENDBLK
  5
403
  8
0
  0
BLOCK
  8
0
  2
*U49
 70
     1
 10
0.0
 20
0.0
 30
0.0
  3
*U49
  1

  0
TEXT
  5
405
  8
BORDER
 62
     7
 10
967.914305554499947
 20
5.7569479534000001
 30
0.0
 40
3.5
  1
20
 41
0.605
  7
SLDTEXTSTYLE0
  0
ENDBLK
  5
407
  8
0
  0
BLOCK
  8
0
  2
*U50
 70
     1
 10
0.0
 20
0.0
 30
0.0
  3
*U50
  1

  0
TEXT
  5
409
  8
BORDER
 62
     7
 10
1117.7375433771669577
 20
5.7310462972999989
 30
0.0
 40
3.5
  1
23
 41
0.605
  7
SLDTEXTSTYLE0
  0
ENDBLK
  5
40B
  8
0
  0
BLOCK
  8
0
  2
*U51
 70
     1
 10
0.0
 20
0.0
 30
0.0
  3
*U51
  1

  0
TEXT
  5
40D
  8
BORDER
 62
     7
 10
1167.7293402879670339
 20
5.7310462972999998
 30
0.0
 40
3.5
  1
24
 41
0.605
  7
SLDTEXTSTYLE0
  0
ENDBLK
  5
40F
  8
0
  0
BLOCK
  8
0
  2
*U52
 70
     1
 10
0.0
 20
0.0
 30
0.0
  3
*U52
  1

  0
TEXT
  5
411
  8
BORDER
 62
     7
 10
16.7537586271666612
 20
94.2394318762999887
 30
0.0
 40
3.5
  1
Q
 41
0.605
  7
SLDTEXTSTYLE0
  0
ENDBLK
  5
413
  8
0
  0
BLOCK
  8
0
  2
*U53
 70
     1
 10
0.0
 20
0.0
 30
0.0
  3
*U53
  1

  0
TEXT
  5
415
  8
BORDER
 62
     7
 10
16.8120919942666589
 20
144.2394318762999887
 30
0.0
 40
3.5
  1
P
 41
0.605
  7
SLDTEXTSTYLE0
  0
ENDBLK
  5
417
  8
0
  0
BLOCK
  8
0
  2
*U54
 70
     1
 10
0.0
 20
0.0
 30
0.0
  3
*U54
  1

  0
TEXT
  5
419
  8
BORDER
 62
     7
 10
16.8014582807666706
 20
194.2394318762999887
 30
0.0
 40
3.5
  1
N
 41
0.605
  7
SLDTEXTSTYLE0
  0
ENDBLK
  5
41B
  8
0
  0
BLOCK
  8
0
  2
*U55
 70
     1
 10
0.0
 20
0.0
 30
0.0
  3
*U55
  1

  0
TEXT
  5
41D
  8
BORDER
 62
     7
 10
16.7504165873666615
 20
244.2394318762999887
 30
0.0
 40
3.5
  1
M
 41
0.605
  7
SLDTEXTSTYLE0
  0
ENDBLK
  5
41F
  8
0
  0
BLOCK
  8
0
  2
*U56
 70
     1
 10
0.0
 20
0.0
 30
0.0
  3
*U56
  1

  0
TEXT
  5
421
  8
BORDER
 62
     7
 10
16.78201389516666
 20
44.239431876300003
 30
0.0
 40
3.5
  1
R
 41
0.605
  7
SLDTEXTSTYLE0
  0
ENDBLK
  5
423
  8
0
  0
BLOCK
  8
0
  2
*U57
 70
     1
 10
0.0
 20
0.0
 30
0.0
  3
*U57
  1

  0
TEXT
  5
425
  8
BORDER
 62
     7
 10
868.1527429395333684
 20
831.7738736198999732
 30
0.0
 40
3.5
  1
18
 41
0.605
  7
SLDTEXTSTYLE0
  0
ENDBLK
  5
427
  8
0
  0
BLOCK
  8
0
  2
*U58
 70
     1
 10
0.0
 20
0.0
 30
0.0
  3
*U58
  1

  0
TEXT
  5
429
  8
BORDER
 62
     7
 10
1167.7293402879670339
 20
831.7738736198999732
 30
0.0
 40
3.5
  1
24
 41
0.605
  7
SLDTEXTSTYLE0
  0
ENDBLK
  5
42B
  8
0
  0
BLOCK
  8
0
  2
*U59
 70
     1
 10
0.0
 20
0.0
 30
0.0
  3
*U59
  1

  0
TEXT
  5
42D
  8
BORDER
 62
     7
 10
1117.7375433771669577
 20
831.7738736198999732
 30
0.0
 40
3.5
  1
23
 41
0.605
  7
SLDTEXTSTYLE0
  0
ENDBLK
  5
42F
  8
0
  0
BLOCK
  8
0
  2
*U60
 70
     1
 10
0.0
 20
0.0
 30
0.0
  3
*U60
  1

  0
TEXT
  5
431
  8
BORDER
 62
     7
 10
967.914305554499947
 20
831.7738736198999732
 30
0.0
 40
3.5
  1
20
 41
0.605
  7
SLDTEXTSTYLE0
  0
ENDBLK
  5
433
  8
0
  0
BLOCK
  8
0
  2
*U61
 70
     1
 10
0.0
 20
0.0
 30
0.0
  3
*U61
  1

  0
TEXT
  5
435
  8
BORDER
 62
     7
 10
1018.1518316403329436
 20
831.7738736198999732
 30
0.0
 40
3.5
  1
21
 41
0.605
  7
SLDTEXTSTYLE0
  0
ENDBLK
  5
437
  8
0
  0
BLOCK
  8
0
  2
*U62
 70
     1
 10
0.0
 20
0.0
 30
0.0
  3
*U62
  1

  0
TEXT
  5
439
  8
BORDER
 62
     7
 10
1067.7354167020660043
 20
831.7738736198999732
 30
0.0
 40
3.5
  1
22
 41
0.605
  7
SLDTEXTSTYLE0
  0
ENDBLK
  5
43B
  8
0
  0
BLOCK
  8
0
  2
*U63
 70
     1
 10
0.0
 20
0.0
 30
0.0
  3
*U63
  1

  0
TEXT
  5
43D
  8
BORDER
 62
     7
 10
918.153047016333403
 20
831.7738736198999732
 30
0.0
 40
3.5
  1
19
 41
0.605
  7
SLDTEXTSTYLE0
  0
ENDBLK
  5
43F
  8
0
  0
BLOCK
  8
0
  2
*U64
 70
     1
 10
0.0
 20
0.0
 30
0.0
  3
*U64
  1

  0
TEXT
  5
441
  8
BORDER
 62
     7
 10
68.7941666843666724
 20
831.7394318763000456
 30
0.0
 40
3.5
  1
2
 41
0.605
  7
SLDTEXTSTYLE0
  0
ENDBLK
  5
443
  8
0
  0
BLOCK
  8
0
  2
*U65
 70
     1
 10
0.0
 20
0.0
 30
0.0
  3
*U65
  1

  0
TEXT
  5
445
  8
BORDER
 62
     7
 10
31.7105816226333417
 20
831.7394318763000456
 30
0.0
 40
3.5
  1
1
 41
0.605
  7
SLDTEXTSTYLE0
  0
ENDBLK
  5
447
  8
0
  0
BLOCK
  8
0
  2
*U66
 70
     1
 10
0.0
 20
0.0
 30
0.0
  3
*U66
  1

  0
TEXT
  5
449
  8
BORDER
 62
     7
 10
118.7962933594667021
 20
831.7361709749000056
 30
0.0
 40
3.5
  1
3
 41
0.605
  7
SLDTEXTSTYLE0
  0
ENDBLK
  5
44B
  8
0
  0
BLOCK
  8
0
  2
*U67
 70
     1
 10
0.0
 20
0.0
 30
0.0
  3
*U67
  1

  0
TEXT
  5
44D
  8
BORDER
 62
     7
 10
268.7947742559666722
 20
831.7361709749000056
 30
0.0
 40
3.5
  1
6
 41
0.605
  7
SLDTEXTSTYLE0
  0
ENDBLK
  5
44F
  8
0
  0
BLOCK
  8
0
  2
*U68
 70
     1
 10
0.0
 20
0.0
 30
0.0
  3
*U68
  1

  0
TEXT
  5
451
  8
BORDER
 62
     7
 10
218.7944705283665883
 20
831.7361709749000056
 30
0.0
 40
3.5
  1
5
 41
0.605
  7
SLDTEXTSTYLE0
  0
ENDBLK
  5
453
  8
0
  0
BLOCK
  8
0
  2
*U69
 70
     1
 10
0.0
 20
0.0
 30
0.0
  3
*U69
  1

  0
TEXT
  5
455
  8
BORDER
 62
     7
 10
168.7880902702665935
 20
831.7361709749000056
 30
0.0
 40
3.5
  1
4
 41
0.605
  7
SLDTEXTSTYLE0
  0
ENDBLK
  5
457
  8
0
  0
BLOCK
  8
0
  2
*U70
 70
     1
 10
0.0
 20
0.0
 30
0.0
  3
*U70
  1

  0
TEXT
  5
459
  8
BORDER
 62
     7
 10
318.7978124629667036
 20
831.7361709749000056
 30
0.0
 40
3.5
  1
7
 41
0.605
  7
SLDTEXTSTYLE0
  0
ENDBLK
  5
45B
  8
0
  0
BLOCK
  8
0
  2
*U71
 70
     1
 10
0.0
 20
0.0
 30
0.0
  3
*U71
  1

  0
TEXT
  5
45D
  8
BORDER
 62
     7
 10
518.5682465785998829
 20
831.7361709749000056
 30
0.0
 40
3.5
  1
11
 41
0.605
  7
SLDTEXTSTYLE0
  0
ENDBLK
  5
45F
  8
0
  0
BLOCK
  8
0
  2
*U72
 70
     1
 10
0.0
 20
0.0
 30
0.0
  3
*U72
  1

  0
TEXT
  5
461
  8
BORDER
 62
     7
 10
468.3307204927666021
 20
831.7361709749000056
 30
0.0
 40
3.5
  1
10
 41
0.605
  7
SLDTEXTSTYLE0
  0
ENDBLK
  5
463
  8
0
  0
BLOCK
  8
0
  2
*U73
 70
     1
 10
0.0
 20
0.0
 30
0.0
  3
*U73
  1

  0
TEXT
  5
465
  8
BORDER
 62
     7
 10
418.7953819438665732
 20
831.7361709749000056
 30
0.0
 40
3.5
  1
9
 41
0.605
  7
SLDTEXTSTYLE0
  0
ENDBLK
  5
467
  8
0
  0
BLOCK
  8
0
  2
*U74
 70
     1
 10
0.0
 20
0.0
 30
0.0
  3
*U74
  1

  0
TEXT
  5
469
  8
BORDER
 62
     7
 10
368.7950780998666005
 20
831.7361709749000056
 30
0.0
 40
3.5
  1
8
 41
0.605
  7
SLDTEXTSTYLE0
  0
ENDBLK
  5
46B
  8
0
  0
BLOCK
  8
0
  2
*U75
 70
     1
 10
0.0
 20
0.0
 30
0.0
  3
*U75
  1

  0
TEXT
  5
46D
  8
BORDER
 62
     7
 10
568.1518316403332847
 20
831.7361709749000056
 30
0.0
 40
3.5
  1
12
 41
0.605
  7
SLDTEXTSTYLE0
  0
ENDBLK
  5
46F
  8
0
  0
BLOCK
  8
0
  2
*U76
 70
     1
 10
0.0
 20
0.0
 30
0.0
  3
*U76
  1

  0
TEXT
  5
471
  8
BORDER
 62
     7
 10
818.1554773025331997
 20
831.7738736198999732
 30
0.0
 40
3.5
  1
17
 41
0.605
  7
SLDTEXTSTYLE0
  0
ENDBLK
  5
473
  8
0
  0
BLOCK
  8
0
  2
*U77
 70
     1
 10
0.0
 20
0.0
 30
0.0
  3
*U77
  1

  0
TEXT
  5
475
  8
BORDER
 62
     7
 10
768.1524393283333438
 20
831.7738736198999732
 30
0.0
 40
3.5
  1
16
 41
0.605
  7
SLDTEXTSTYLE0
  0
ENDBLK
  5
477
  8
0
  0
BLOCK
  8
0
  2
*U78
 70
     1
 10
0.0
 20
0.0
 30
0.0
  3
*U78
  1

  0
TEXT
  5
479
  8
BORDER
 62
     7
 10
718.1521354843332574
 20
831.7738736198999732
 30
0.0
 40
3.5
  1
15
 41
0.605
  7
SLDTEXTSTYLE0
  0
ENDBLK
  5
47B
  8
0
  0
BLOCK
  8
0
  2
*U79
 70
     1
 10
0.0
 20
0.0
 30
0.0
  3
*U79
  1

  0
TEXT
  5
47D
  8
BORDER
 62
     7
 10
668.1457552262334048
 20
831.7738736198999732
 30
0.0
 40
3.5
  1
14
 41
0.605
  7
SLDTEXTSTYLE0
  0
ENDBLK
  5
47F
  8
0
  0
BLOCK
  8
0
  2
*U80
 70
     1
 10
0.0
 20
0.0
 30
0.0
  3
*U80
  1

  0
TEXT
  5
481
  8
BORDER
 62
     7
 10
618.1539583154333286
 20
831.7361709749000056
 30
0.0
 40
3.5
  1
13
 41
0.605
  7
SLDTEXTSTYLE0
  0
ENDBLK
  5
483
  8
0
  0
BLOCK
  8
0
  2
*U81
 70
     1
 10
0.0
 20
0.0
 30
0.0
  3
*U81
  1

  0
TEXT
  5
485
  8
BORDER
 62
     7
 10
1180.7753298983659533
 20
794.2394318763000456
 30
0.0
 40
3.5
  1
A
 41
0.605
  7
SLDTEXTSTYLE0
  0
ENDBLK
  5
487
  8
0
  0
BLOCK
  8
0
  2
*U82
 70
     1
 10
0.0
 20
0.0
 30
0.0
  3
*U82
  1

  0
TEXT
  5
489
  8
BORDER
 62
     7
 10
1180.7862673338659079
 20
544.2394318762999319
 30
0.0
 40
3.5
  1
F
 41
0.605
  7
SLDTEXTSTYLE0
  0
ENDBLK
  5
48B
  8
0
  0
BLOCK
  8
0
  2
*U83
 70
     1
 10
0.0
 20
0.0
 30
0.0
  3
*U83
  1

  0
TEXT
  5
48D
  8
BORDER
 62
     7
 10
1180.8157378893658915
 20
594.2394318762999319
 30
0.0
 40
3.5
  1
E
 41
0.605
  7
SLDTEXTSTYLE0
  0
ENDBLK
  5
48F
  8
0
  0
BLOCK
  8
0
  2
*U84
 70
     1
 10
0.0
 20
0.0
 30
0.0
  3
*U84
  1

  0
TEXT
  5
491
  8
BORDER
 62
     7
 10
1180.7932551914659598
 20
644.2394318762999319
 30
0.0
 40
3.5
  1
D
 41
0.605
  7
SLDTEXTSTYLE0
  0
ENDBLK
  5
493
  8
0
  0
BLOCK
  8
0
  2
*U85
 70
     1
 10
0.0
 20
0.0
 30
0.0
  3
*U85
  1

  0
TEXT
  5
495
  8
BORDER
 62
     7
 10
1180.7807986356660876
 20
694.2394318763000456
 30
0.0
 40
3.5
  1
C
 41
0.605
  7
SLDTEXTSTYLE0
  0
ENDBLK
  5
497
  8
0
  0
BLOCK
  8
0
  2
*U86
 70
     1
 10
0.0
 20
0.0
 30
0.0
  3
*U86
  1

  0
TEXT
  5
499
  8
BORDER
 62
     7
 10
1180.8139149418659599
 20
744.2394318763000456
 30
0.0
 40
3.5
  1
B
 41
0.605
  7
SLDTEXTSTYLE0
  0
ENDBLK
  5
49B
  8
0
  0
BLOCK
  8
0
  2
*U87
 70
     1
 10
0.0
 20
0.0
 30
0.0
  3
*U87
  1

  0
TEXT
  5
49D
  8
BORDER
 62
     7
 10
1180.764696195966053
 20
494.2394318762999887
 30
0.0
 40
3.5
  1
G
 41
0.605
  7
SLDTEXTSTYLE0
  0
ENDBLK
  5
49F
  8
0
  0
BLOCK
  8
0
  2
*U88
 70
     1
 10
0.0
 20
0.0
 30
0.0
  3
*U88
  1

  0
TEXT
  5
4A1
  8
BORDER
 62
     7
 10
1180.802673656666002
 20
444.2394318762999887
 30
0.0
 40
3.5
  1
H
 41
0.605
  7
SLDTEXTSTYLE0
  0
ENDBLK
  5
4A3
  8
0
  0
BLOCK
  8
0
  2
*U89
 70
     1
 10
0.0
 20
0.0
 30
0.0
  3
*U89
  1

  0
TEXT
  5
4A5
  8
BORDER
 62
     7
 10
1180.8254600429659149
 20
394.2394318762999887
 30
0.0
 40
3.5
  1
J
 41
0.605
  7
SLDTEXTSTYLE0
  0
ENDBLK
  5
4A7
  8
0
  0
BLOCK
  8
0
  2
*U90
 70
     1
 10
0.0
 20
0.0
 30
0.0
  3
*U90
  1

  0
TEXT
  5
4A9
  8
BORDER
 62
     7
 10
1180.7987239064659661
 20
344.2394318762999887
 30
0.0
 40
3.5
  1
K
 41
0.605
  7
SLDTEXTSTYLE0
  0
ENDBLK
  5
4AB
  8
0
  0
BLOCK
  8
0
  2
*U91
 70
     1
 10
0.0
 20
0.0
 30
0.0
  3
*U91
  1

  0
TEXT
  5
4AD
  8
BORDER
 62
     7
 10
1180.8023697735670794
 20
294.2394318762999887
 30
0.0
 40
3.5
  1
L
 41
0.605
  7
SLDTEXTSTYLE0
  0
ENDBLK
  5
4AF
  8
0
  0
BLOCK
  8
0
  2
*U92
 70
     1
 10
0.0
 20
0.0
 30
0.0
  3
*U92
  1

  0
TEXT
  5
4B1
  8
BORDER
 62
     7
 10
1180.7504165873660895
 20
244.2394318762999887
 30
0.0
 40
3.5
  1
M
 41
0.605
  7
SLDTEXTSTYLE0
  0
ENDBLK
  5
4B3
  8
0
  0
BLOCK
  8
0
  2
*U93
 70
     1
 10
0.0
 20
0.0
 30
0.0
  3
*U93
  1

  0
TEXT
  5
4B5
  8
BORDER
 62
     7
 10
1180.8120919942659839
 20
144.2394318762999887
 30
0.0
 40
3.5
  1
P
 41
0.605
  7
SLDTEXTSTYLE0
  0
ENDBLK
  5
4B7
  8
0
  0
BLOCK
  8
0
  2
*U94
 70
     1
 10
0.0
 20
0.0
 30
0.0
  3
*U94
  1

  0
TEXT
  5
4B9
  8
BORDER
 62
     7
 10
1180.753758627166917
 20
94.2394318762999887
 30
0.0
 40
3.5
  1
Q
 41
0.605
  7
SLDTEXTSTYLE0
  0
ENDBLK
  5
4BB
  8
0
  0
BLOCK
  8
0
  2
*U95
 70
     1
 10
0.0
 20
0.0
 30
0.0
  3
*U95
  1

  0
TEXT
  5
4BD
  8
BORDER
 62
     7
 10
1180.7820138951660738
 20
44.239431876300003
 30
0.0
 40
3.5
  1
R
 41
0.605
  7
SLDTEXTSTYLE0
  0
ENDBLK
  5
4BF
  8
0
  0
BLOCK
  8
0
  2
*U96
 70
     1
 10
0.0
 20
0.0
 30
0.0
  3
*U96
  1

  0
TEXT
  5
4C1
  8
BORDER
 62
     7
 10
1180.8014582807659281
 20
194.2394318762999887
 30
0.0
 40
3.5
  1
N
 41
0.605
  7
SLDTEXTSTYLE0
  0
ENDBLK
  5
4C3
  8
0
  0
BLOCK
  8
0
  2
*U97
 70
     1
 10
0.0
 20
0.0
 30
0.0
  3
*U97
  1

  0
TEXT
  5
4C5
  8
BORDER
 10
1153.9469767685000079
 20
22.044387424
 30
0.0
 40
1.8
  1
Sheet:
 41
0.605
  7
SLDTEXTSTYLE0
  0
ENDBLK
  5
4C7
  8
0
  0
BLOCK
  8
0
  2
*U98
 70
     1
 10
0.0
 20
0.0
 30
0.0
  3
*U98
  1

  0
TEXT
  5
4C9
  8
BORDER
 10
1168.3555403806999493
 20
22.044387424
 30
0.0
 40
1.8
  1
Revision:
 41
0.605
  7
SLDTEXTSTYLE0
  0
ENDBLK
  5
4CB
  8
0
  0
BLOCK
  8
0
  2
*U99
 70
     1
 10
0.0
 20
0.0
 30
0.0
  3
*U99
  1

  0
TEXT
  5
4CD
  8
BORDER
 10
1117.6126923287999944
 20
22.044387424
 30
0.0
 40
1.8
  1
Material:
 41
0.605
  7
SLDTEXTSTYLE0
  0
ENDBLK
  5
4CF
  8
0
  0
BLOCK
  8
0
  2
*U100
 70
     1
 10
0.0
 20
0.0
 30
0.0
  3
*U100
  1

  0
TEXT
  5
4D1
  8
BORDER
 10
1154.5373266332999265
 20
15.5329388307999992
 30
0.0
 40
2.5
  1
1 of 1
 41
0.57
  7
SLDTEXTSTYLE1
  0
ENDBLK
  5
4D3
  8
0
  0
BLOCK
  8
0
  2
*U101
 70
     1
 10
0.0
 20
0.0
 30
0.0
  3
*U101
  1

  0
TEXT
  5
4D5
  8
BORDER
 10
1117.4423007072000473
 20
39.7778074247000006
 30
0.0
 40
1.8
  1
Checked/Approved by:
 41
0.605
  7
SLDTEXTSTYLE0
  0
ENDBLK
  5
4D7
  8
0
  0
BLOCK
  8
0
  2
*U102
 70
     1
 10
0.0
 20
0.0
 30
0.0
  3
*U102
  1

  0
TEXT
  5
4D9
  8
BORDER
 62
     0
 10
0.0
 20
0.5203219316000001
 30
0.0
 40
1.8
  1
Projection Method:
 41
0.605
  7
SLDTEXTSTYLE0
  0
ENDBLK
  5
4DB
  8
0
  0
BLOCK
  8
0
  2
*U103
 70
     1
 10
0.0
 20
0.0
 30
0.0
  3
*U103
  1

  0
TEXT
  5
4DD
  8
BORDER
 62
     0
 10
5.4000000000000004
 20
-2.2796779686000002
 30
0.0
 40
1.8
  1
THIRD ANGLE
 41
0.605
  7
SLDTEXTSTYLE0
  0
ENDBLK
  5
4DF
  8
0
  0
BLOCK
  8
0
  2
*U104
 70
     1
 10
0.0
 20
0.0
 30
0.0
  3
*U104
  1

  0
TEXT
  5
4E1
  8
BORDER
 10
1092.1822359313000561
 20
22.1868716954000007
 30
0.0
 40
1.8
  1
Sheet Size:
 41
0.605
  7
SLDTEXTSTYLE0
  0
ENDBLK
  5
4E3
  8
0
  0
BLOCK
  8
0
  2
*U105
 70
     1
 10
0.0
 20
0.0
 30
0.0
  3
*U105
  1

  0
TEXT
  5
4E5
  8
BORDER
 10
1100.8066254967000077
 20
13.2402228606999994
 30
0.0
 40
5.0
  1
A0
 41
0.75
  7
SLDTEXTSTYLE2
  0
ENDBLK
  5
4E7
  8
0
  0
BLOCK
  8
0
  2
*U106
 70
     1
 10
0.0
 20
0.0
 30
0.0
  3
*U106
  1

  0
TEXT
  5
4E9
  8
BORDER
 10
1117.2543782092000129
 20
48.422242332899998
 30
0.0
 40
1.8
  1
Drawn by:
 41
0.605
  7
SLDTEXTSTYLE0
  0
ENDBLK
  5
4EB
  8
0
  0
BLOCK
  8
0
  2
*U107
 70
     1
 10
0.0
 20
0.0
 30
0.0
  3
*U107
  1

  0
TEXT
  5
4ED
  8
BORDER
 10
1148.6488980137999079
 20
48.4325409814999972
 30
0.0
 40
1.8520833333
  1
Drawn Date:
 41
0.605
  7
SLDTEXTSTYLE0
  0
ENDBLK
  5
4EF
  8
0
  0
BLOCK
  8
0
  2
*U108
 70
     1
 10
0.0
 20
0.0
 30
0.0
  3
*U108
  1

  0
TEXT
  5
4F1
  8
BORDER
 10
1148.6488980137999079
 20
39.7881060732999998
 30
0.0
 40
1.8520833333
  1
Checked/Approved Date:
 41
0.605
  7
SLDTEXTSTYLE0
  0
ENDBLK
  5
4F3
  8
0
  0
BLOCK
  8
0
  2
*U109
 70
     1
 10
0.0
 20
0.0
 30
0.0
  3
*U109
  1

  0
TEXT
  5
4F5
  8
BORDER
 10
1138.1722245712999211
 20
28.5209622606999993
 30
0.0
 40
1.8520833333
  1
Drawing Scale:
 41
0.605
  7
SLDTEXTSTYLE0
  0
ENDBLK
  5
4F7
  8
0
  0
BLOCK
  8
0
  2
*U110
 70
     1
 10
0.0
 20
0.0
 30
0.0
  3
*U110
  1

  0
TEXT
  5
4F9
  8
BORDER
 10
1117.2543782092000129
 20
44.0606398143000035
 30
0.0
 40
2.5
  1
Le Xuan Tung
 41
0.605
  7
SLDTEXTSTYLE0
  0
ENDBLK
  5
4FB
  8
0
  0
BLOCK
  8
0
  2
*U111
 70
     1
 10
0.0
 20
0.0
 30
0.0
  3
*U111
  1

  0
TEXT
  5
4FD
  8
BORDER
 10
1148.6488980137999079
 20
44.0606398143000035
 30
0.0
 40
2.5
  1
2021
 41
0.605
  7
SLDTEXTSTYLE0
  0
ENDBLK
  5
4FF
  8
0
  0
BLOCK
  8
0
  2
*U112
 70
     1
 10
0.0
 20
0.0
 30
0.0
  3
*U112
  1

  0
TEXT
  5
501
  8
BORDER
 10
1117.6302232052000818
 20
34.7476544518999972
 30
0.0
 40
2.5
  1
Nguyen Van Tung
 41
0.605
  7
SLDTEXTSTYLE0
  0
ENDBLK
  5
503
  8
0
  0
BLOCK
  8
0
  2
*U113
 70
     1
 10
0.0
 20
0.0
 30
0.0
  3
*U113
  1

  0
TEXT
  5
505
  8
BORDER
 10
1148.6488980137999079
 20
34.7476544518999972
 30
0.0
 40
2.5
  1
2021
 41
0.605
  7
SLDTEXTSTYLE0
  0
ENDBLK
  5
507
  8
0
  0
BLOCK
  8
0
  2
*U114
 70
     1
 10
0.0
 20
0.0
 30
0.0
  3
*U114
  1

  0
TEXT
  5
509
  8
BORDER
 10
1170.8112289400000918
 20
15.8028126099000001
 30
0.0
 40
2.6458333333000001
  1
0A
 41
0.605
  7
SLDTEXTSTYLE0
  0
ENDBLK
  5
50B
  8
0
  0
BLOCK
  8
0
  2
*U115
 70
     1
 10
0.0
 20
0.0
 30
0.0
  3
*U115
  1

  0
TEXT
  5
50D
  8
BORDER
 10
1156.7758558640000501
 20
28.5038443615999988
 30
0.0
 40
2.5
  1
2:1
 41
0.605
  7
SLDTEXTSTYLE0
  0
ENDBLK
  5
50F
  8
0
  0
BLOCK
  8
0
  2
*U116
 70
     1
 10
0.0
 20
0.0
 30
0.0
  3
*U116
  1

  0
TEXT
  5
511
  8
BORDER
 10
1136.4840424281001106
 20
22.044387424
 30
0.0
 40
1.8
  1
Qty:
 41
0.605
  7
SLDTEXTSTYLE0
  0
ENDBLK
  5
513
  8
0
  0
BLOCK
  8
0
  2
*U117
 70
     1
 10
0.0
 20
0.0
 30
0.0
  3
*U117
  1

  0
TEXT
  5
515
  8
BORDER
 10
1141.7267976308999096
 20
15.5329388307999992
 30
0.0
 40
2.5
  1
04
 41
0.605
  7
SLDTEXTSTYLE0
  0
ENDBLK
  5
517
  8
0
  0
BLOCK
  8
0
  2
*U118
 70
     1
 10
0.0
 20
0.0
 30
0.0
  3
*U118
  1

  0
TEXT
  5
519
  8
BORDER
 10
1119.704857625700015
 20
16.1972530791999993
 30
0.0
 40
2.5
  1
SS400 t3
 41
0.605
  7
SLDTEXTSTYLE0
  0
ENDBLK
  5
51B
  8
0
  0
BLOCK
  8
0
  2
*U119
 70
     1
 10
0.0
 20
0.0
 30
0.0
  3
*U119
  1

  0
TEXT
  5
51D
  8
BORDER
 10
1125.5672099915000217
 20
28.5038443615999988
 30
0.0
 40
2.5
  1
mm
 41
0.605
  7
SLDTEXTSTYLE0
  0
ENDBLK
  5
51F
  8
0
  0
BLOCK
  8
0
  2
*U120
 70
     1
 10
0.0
 20
0.0
 30
0.0
  3
*U120
  1

  0
TEXT
  5
521
  8
BORDER
 10
1117.6463813350999317
 20
28.5209622606999993
 30
0.0
 40
1.8520833333
  1
Unit:
 41
0.605
  7
SLDTEXTSTYLE0
  0
ENDBLK
  5
523
  8
0
  0
BLOCK
  8
0
  2
*U121
 70
     1
 10
0.0
 20
0.0
 30
0.0
  3
*U121
  1

  0
TEXT
  5
525
  8
BORDER
 10
1061.0827781831999346
 20
27.0027489040000006
 30
0.0
 40
2.5
  1
009_Caster_cover_part1_SR
 41
0.75
  7
SLDTEXTSTYLE2
  0
ENDBLK
  5
527
  8
0
  0
BLOCK
  8
0
  2
*U122
 70
     1
 10
0.0
 20
0.0
 30
0.0
  3
*U122
  1

  0
TEXT
  5
529
  8
BORDER
 10
1060.9040651123000316
 20
30.5841853028000017
 30
0.0
 40
1.8
  1
Description:
 41
0.605
  7
SLDTEXTSTYLE0
  0
ENDBLK
  5
52B
  8
0
  0
BLOCK
  8
0
  2
*U123
 70
     1
 10
0.0
 20
0.0
 30
0.0
  3
*U123
  1

  0
TEXT
  5
52D
  8
BORDER
 10
1061.2335972963001041
 20
40.227181021299991
 30
0.0
 40
2.5
  1
SERVICE ROBOT
 41
0.75
  7
SLDTEXTSTYLE2
  0
ENDBLK
  5
52F
  8
0
  0
BLOCK
  8
0
  2
*U124
 70
     1
 10
0.0
 20
0.0
 30
0.0
  3
*U124
  1

  0
TEXT
  5
531
  8
BORDER
 10
1061.0058789697000066
 20
44.5271241153999995
 30
0.0
 40
1.8
  1
Project:
 41
0.605
  7
SLDTEXTSTYLE0
  0
ENDBLK
  5
533
  8
0
  0
BLOCK
  8
0
  2
*U125
 70
     1
 10
0.0
 20
0.0
 30
0.0
  3
*U125
  1

  0
TEXT
  5
535
  8
BORDER
 62
     0
 10
0.0
 20
0.7226693493999999
 30
0.0
 40
2.5
  1
NOTES:
 41
0.605
  7
SLDTEXTSTYLE0
  0
ENDBLK
  5
537
  8
0
  0
BLOCK
  8
0
  2
*U126
 70
     1
 10
0.0
 20
0.0
 30
0.0
  3
*U126
  1

  0
TEXT
  5
53A
  8
BORDER
 62
     0
 10
0.0
 20
-2.9436411208000002
 30
0.0
 40
2.5
  1
1. Lm s
 41
0.605
  7
SLDTEXTSTYLE3
  0
TEXT
  5
53B
  8
BORDER
 62
     0
 10
9.3774999999999995
 20
-2.9436411208000002
 30
0.0
 40
2.5
  1
\U+1EA1
 41
0.605
  7
MtXpl_MS_PGothic
  0
TEXT
  5
53D
  8
BORDER
 62
     0
 10
11.5775000000000006
 20
-2.9436411208000002
 30
0.0
 40
2.5
  1
ch ba via, lm t c
 41
0.605
  7
SLDTEXTSTYLE3
  0
TEXT
  5
53E
  8
BORDER
 62
     0
 10
34.7691666666666634
 20
-2.9436411208000002
 30
0.0
 40
2.5
  1
\U+1EA1
 41
0.605
  7
MtXpl_MS_PGothic
  0
TEXT
  5
53F
  8
BORDER
 62
     0
 10
36.9691666666666734
 20
-2.9436411208000002
 30
0.0
 40
2.5
  1
nh s
 41
0.605
  7
SLDTEXTSTYLE3
  0
TEXT
  5
540
  8
BORDER
 62
     0
 10
42.4141666666666595
 20
-2.9436411208000002
 30
0.0
 40
2.5
  1
\U+1EAF
 41
0.605
  7
MtXpl_MS_PGothic
  0
TEXT
  5
541
  8
BORDER
 62
     0
 10
44.6141666666666694
 20
-2.9436411208000002
 30
0.0
 40
2.5
  1
c sau khi gia cng.
 41
0.605
  7
SLDTEXTSTYLE3
  0
ENDBLK
  5
543
  8
0
  0
BLOCK
  8
0
  2
*U127
 70
     1
 10
0.0
 20
0.0
 30
0.0
  3
*U127
  1

  0
TEXT
  5
545
  8
BORDER
 62
     0
 10
0.0
 20
-6.4436412287999998
 30
0.0
 40
2.5
  1
2. Kch th
 41
0.605
  7
SLDTEXTSTYLE3
  0
TEXT
  5
546
  8
BORDER
 62
     0
 10
12.4024999999999999
 20
-6.4436412287999998
 30
0.0
 40
2.5
  1
\U+01B0
 41
0.605
  7
SLDTEXTSTYLE3
  0
TEXT
  5
547
  8
BORDER
 62
     0
 10
13.8169866984993099
 20
-6.4436412287999998
 30
0.0
 40
2.5
  1
\U+1EDB
 41
0.605
  7
MtXpl_MS_PGothic
  0
TEXT
  5
548
  8
BORDER
 62
     0
 10
16.0169866984993092
 20
-6.4436412287999998
 30
0.0
 40
2.5
  1
c ch
 41
0.605
  7
SLDTEXTSTYLE3
  0
TEXT
  5
549
  8
BORDER
 62
     0
 10
21.4619866984993202
 20
-6.4436412287999998
 30
0.0
 40
2.5
  1
\U+01B0
 41
0.605
  7
SLDTEXTSTYLE3
  0
TEXT
  5
54A
  8
BORDER
 62
     0
 10
22.8764733969986409
 20
-6.4436412287999998
 30
0.0
 40
2.5
  1
a r tun theo b
 41
0.605
  7
SLDTEXTSTYLE3
  0
TEXT
  5
54B
  8
BORDER
 62
     0
 10
44.6564733969986278
 20
-6.4436412287999998
 30
0.0
 40
2.5
  1
\U+1EA3
 41
0.605
  7
MtXpl_MS_PGothic
  0
TEXT
  5
54C
  8
BORDER
 62
     0
 10
46.8564733969986378
 20
-6.4436412287999998
 30
0.0
 40
2.5
  1
n 3D
 41
0.605
  7
SLDTEXTSTYLE3
  0
ENDBLK
  5
54E
  8
0
  0
BLOCK
  8
0
  2
*U128
 70
     1
 10
0.0
 20
0.0
 30
0.0
  3
*U128
  1

  0
TEXT
  5
550
  8
BORDER
 62
     0
 10
0.0
 20
-9.7873913367999972
 30
0.0
 40
2.5
  1
3. Dung sai ch
 41
0.605
  7
SLDTEXTSTYLE3
  0
TEXT
  5
551
  8
BORDER
 62
     0
 10
17.3433333333333302
 20
-9.7873913367999972
 30
0.0
 40
2.5
  1
\U+01B0
 41
0.605
  7
SLDTEXTSTYLE3
  0
TEXT
  5
552
  8
BORDER
 62
     0
 10
18.7578200318326509
 20
-9.7873913367999972
 30
0.0
 40
2.5
  1
a r tun theo ISO 2768-m
 41
0.605
  7
SLDTEXTSTYLE3
  0
ENDBLK
  5
554
  8
0
  0
BLOCK
  8
0
  2
*U129
 70
     1
 10
0.0
 20
0.0
 30
0.0
  3
*U129
  1

  0
TEXT
  5
556
  8
BORDER
 10
308.4534592814999883
 20
585.8949207770998555
 30
0.0
 40
3.5
  1
44.00
 50
90.0000000000003979
 41
0.75
  7
SLDTEXTSTYLE2
  0
ENDBLK
  5
558
  8
0
  0
BLOCK
  8
0
  2
*U130
 70
     1
 10
0.0
 20
0.0
 30
0.0
  3
*U130
  1

  0
TEXT
  5
55A
  8
BORDER
 10
409.6538433142000031
 20
526.5818370173999483
 30
0.0
 40
3.5
  1
90.00
 41
0.75
  7
SLDTEXTSTYLE2
  0
ENDBLK
  5
55C
  8
0
  0
BLOCK
  8
0
  2
*U131
 70
     1
 10
0.0
 20
0.0
 30
0.0
  3
*U131
  1

  0
TEXT
  5
55E
  8
BORDER
 10
411.3006811393000248
 20
657.0466483397000275
 30
0.0
 40
3.5
  1
25.00
 41
0.75
  7
SLDTEXTSTYLE2
  0
ENDBLK
  5
560
  8
0
  0
BLOCK
  8
0
  2
*U132
 70
     1
 10
0.0
 20
0.0
 30
0.0
  3
*U132
  1

  0
TEXT
  5
562
  8
BORDER
 10
317.469703744100002
 20
641.8542116446999444
 30
0.0
 40
3.5
  1
3.00
 50
90.0000000000003979
 41
0.75
  7
SLDTEXTSTYLE2
  0
ENDBLK
  5
564
  8
0
  0
BLOCK
  8
0
  2
*U133
 70
     1
 10
0.0
 20
0.0
 30
0.0
  3
*U133
  1

  0
TEXT
  5
566
  8
BORDER
 10
520.4534592815000451
 20
562.7082069601000285
 30
0.0
 40
3.5
  1
4.00
 50
90.0000000000003979
 41
0.75
  7
SLDTEXTSTYLE2
  0
ENDBLK
  5
568
  8
0
  0
BLOCK
  8
0
  2
*U134
 70
     1
 10
0.0
 20
0.0
 30
0.0
  3
*U134
  1

  0
TEXT
  5
56A
  8
BORDER
 10
284.4534592814999883
 20
265.6516764029000228
 30
0.0
 40
3.5
  1
90.00
 50
90.0000000000003979
 41
0.75
  7
SLDTEXTSTYLE2
  0
ENDBLK
  5
56C
  8
0
  0
BLOCK
  8
0
  2
*U135
 70
     1
 10
0.0
 20
0.0
 30
0.0
  3
*U135
  1

  0
TEXT
  5
56E
  8
BORDER
 10
305.1459825733999764
 20
372.0599769436000201
 30
0.0
 40
3.5
  1
R7.00
 41
0.75
  7
SLDTEXTSTYLE2
  0
ENDBLK
  5
570
  8
0
  0
BLOCK
  8
0
  2
*U136
 70
     1
 10
0.0
 20
0.0
 30
0.0
  3
*U136
  1

  0
TEXT
  5
5CF
  8
AM_5
 62
     2
 10
535.0230087062882376
 20
345.5545286301090186
 30
0.0
 40
5.9500000000000002
  1
t3
  0
ENDBLK
  5
5D1
  8
0
  0
ENDSEC
  0
SECTION
  2
ENTITIES
  0
INSERT
  5
77
  8
TRIM
  6
CONTINUOUS
  2
*U13
 10
0.0
 20
0.0
 30
0.0
1001
ACAD
1002
{
1000
R14_HATCH_DATA
1000
77
1011
1.0
1021
0.0
1031
0.0
1021
0.0
1031
0.0
1011
0.0
1021
0.0
1031
0.0
1021
1.0
1031
0.0
1011
0.0
1021
0.0
1031
0.0
1021
0.0
1031
1.0
1040
0.0
1010
0.0
1020
0.0
1030
1.0
1000
SOLID
1070
     1
1070
     0
1071
        1
1071
        0
1071
        6
1070
     1
1040
10.0
1040
0.0
1040
10.0
1040
5.0
1070
     1
1040
10.0
1040
5.0
1040
5.0000000000000018
1040
4.9999999999999991
1070
     1
1040
5.0000000000000018
1040
4.9999999999999991
1040
5.0000000000000009
1040
9.9999999999999982
1070
     1
1040
5.0000000000000009
1040
9.9999999999999982
1040
0.0
1040
9.9999999999999982
1070
     1
1040
0.0
1040
9.9999999999999982
1040
0.0
1040
0.0
1070
     1
1040
0.0
1040
0.0
1040
10.0
1040
0.0
1071
        0
1070
     0
1070
     1
1071
        1
1040
0.0
1040
0.0
1040
0.0
1002
}
  0
INSERT
  5
78
  8
TRIM
  6
CONTINUOUS
  2
*U14
 10
0.0
 20
0.0
 30
0.0
1001
ACAD
1002
{
1000
R14_HATCH_DATA
1000
78
1011
1.0
1021
0.0
1031
0.0
1021
0.0
1031
0.0
1011
0.0
1021
0.0
1031
0.0
1021
1.0
1031
0.0
1011
0.0
1021
0.0
1031
0.0
1021
0.0
1031
1.0
1040
0.0
1010
0.0
1020
0.0
1030
1.0
1000
SOLID
1070
     1
1070
     0
1071
        1
1071
        0
1071
        6
1070
     1
1040
0.0
1040
831.0
1040
4.9999999999999014
1040
831.0
1070
     1
1040
4.9999999999999014
1040
831.0
1040
4.9999999999999014
1040
836.0
1070
     1
1040
4.9999999999999014
1040
836.0
1040
9.999999999999801
1040
836.0
1070
     1
1040
9.999999999999801
1040
836.0
1040
9.9999999999997975
1040
841.0
1070
     1
1040
9.9999999999997975
1040
841.0
1040
0.0
1040
841.0
1070
     1
1040
0.0
1040
841.0
1040
0.0
1040
831.0
1071
        0
1070
     0
1070
     1
1071
        1
1040
0.0
1040
0.0
1040
0.0
1002
}
  0
INSERT
  5
79
  8
TRIM
  6
CONTINUOUS
  2
*U15
 10
0.0
 20
0.0
 30
0.0
1001
ACAD
1002
{
1000
R14_HATCH_DATA
1000
79
1011
1.0
1021
0.0
1031
0.0
1021
0.0
1031
0.0
1011
0.0
1021
0.0
1031
0.0
1021
1.0
1031
0.0
1011
0.0
1021
0.0
1031
0.0
1021
0.0
1031
1.0
1040
0.0
1010
0.0
1020
0.0
1030
1.0
1000
SOLID
1070
     1
1070
     0
1071
        1
1071
        0
1071
        6
1070
     1
1040
1184.0
1040
836.0
1040
1184.0
1040
831.0
1070
     1
1040
1184.0
1040
831.0
1040
1189.0
1040
831.0
1070
     1
1040
1189.0
1040
831.0
1040
1189.0
1040
841.0
1070
     1
1040
1189.0
1040
841.0
1040
1179.0
1040
841.0
1070
     1
1040
1179.0
1040
841.0
1040
1179.0
1040
836.0
1070
     1
1040
1179.0
1040
836.0
1040
1184.0
1040
836.0
1071
        0
1070
     0
1070
     1
1071
        1
1040
0.0
1040
0.0
1040
0.0
1002
}
  0
INSERT
  5
7A
  8
TRIM
  6
CONTINUOUS
  2
*U16
 10
0.0
 20
0.0
 30
0.0
1001
ACAD
1002
{
1000
R14_HATCH_DATA
1000
7A
1011
1.0
1021
0.0
1031
0.0
1021
0.0
1031
0.0
1011
0.0
1021
0.0
1031
0.0
1021
1.0
1031
0.0
1011
0.0
1021
0.0
1031
0.0
1021
0.0
1031
1.0
1040
0.0
1010
0.0
1020
0.0
1030
1.0
1000
SOLID
1070
     1
1070
     0
1071
        1
1071
        0
1071
        6
1070
     1
1040
1189.0
1040
10.0000000000000107
1040
1184.0
1040
10.0000000000000107
1070
     1
1040
1184.0
1040
10.0000000000000107
1040
1184.0
1040
5.0
1070
     1
1040
1184.0
1040
5.0
1040
1179.0
1040
5.0
1070
     1
1040
1179.0
1040
5.0
1040
1179.0
1040
0.0
1070
     1
1040
1179.0
1040
0.0
1040
1189.0
1040
0.0
1070
     1
1040
1189.0
1040
0.0
1040
1189.0
1040
10.0000000000000107
1071
        0
1070
     0
1070
     1
1071
        1
1040
0.0
1040
0.0
1040
0.0
1002
}
  0
LINE
  5
7B
  8
BORDER
 10
544.5
 20
836.0
 30
0.0
 11
544.5
 21
831.0
 31
0.0
  0
LINE
  5
7C
  8
BORDER
 10
494.5
 20
836.0
 30
0.0
 11
494.5
 21
831.0
 31
0.0
  0
LINE
  5
7D
  8
BORDER
 10
444.5
 20
836.0
 30
0.0
 11
444.5
 21
831.0
 31
0.0
  0
LINE
  5
7E
  8
BORDER
 10
394.5
 20
836.0
 30
0.0
 11
394.5
 21
831.0
 31
0.0
  0
LINE
  5
7F
  8
BORDER
 10
344.5
 20
836.0
 30
0.0
 11
344.5
 21
831.0
 31
0.0
  0
LINE
  5
80
  8
BORDER
 10
294.5
 20
836.0
 30
0.0
 11
294.5
 21
831.0
 31
0.0
  0
LINE
  5
81
  8
BORDER
 10
244.5
 20
836.0
 30
0.0
 11
244.5
 21
831.0
 31
0.0
  0
LINE
  5
82
  8
BORDER
 10
194.5
 20
836.0
 30
0.0
 11
194.5
 21
831.0
 31
0.0
  0
LINE
  5
83
  8
BORDER
 10
144.5
 20
836.0
 30
0.0
 11
144.5
 21
831.0
 31
0.0
  0
LINE
  5
84
  8
BORDER
 10
94.5000000000000142
 20
836.0
 30
0.0
 11
94.5000000000000142
 21
831.0
 31
0.0
  0
LINE
  5
85
  8
BORDER
 10
44.5
 20
836.0
 30
0.0
 11
44.5
 21
831.0
 31
0.0
  0
LINE
  5
86
  8
BORDER
 10
644.5
 20
836.0
 30
0.0
 11
644.5
 21
831.0
 31
0.0
  0
LINE
  5
87
  8
BORDER
 10
694.5
 20
836.0
 30
0.0
 11
694.5
 21
831.0
 31
0.0
  0
LINE
  5
88
  8
BORDER
 10
744.5
 20
836.0
 30
0.0
 11
744.5
 21
831.0
 31
0.0
  0
LINE
  5
89
  8
BORDER
 10
794.5
 20
836.0
 30
0.0
 11
794.5
 21
831.0
 31
0.0
  0
LINE
  5
8A
  8
BORDER
 10
844.5
 20
836.0
 30
0.0
 11
844.5
 21
831.0
 31
0.0
  0
LINE
  5
8B
  8
BORDER
 10
894.5
 20
836.0
 30
0.0
 11
894.5
 21
831.0
 31
0.0
  0
LINE
  5
8C
  8
BORDER
 10
944.5
 20
836.0
 30
0.0
 11
944.5
 21
831.0
 31
0.0
  0
LINE
  5
8D
  8
BORDER
 10
994.5
 20
836.0
 30
0.0
 11
994.5
 21
831.0
 31
0.0
  0
LINE
  5
8E
  8
BORDER
 10
1044.5
 20
836.0
 30
0.0
 11
1044.5
 21
831.0
 31
0.0
  0
LINE
  5
8F
  8
BORDER
 10
1094.5
 20
836.0
 30
0.0
 11
1094.5
 21
831.0
 31
0.0
  0
LINE
  5
90
  8
BORDER
 10
1144.5
 20
836.0
 30
0.0
 11
1144.5
 21
831.0
 31
0.0
  0
LINE
  5
91
  8
BORDER
 10
1116.0540298161999999
 20
33.5703270607999968
 30
0.0
 11
1059.036352289999968
 21
33.5703270607999968
 31
0.0
  0
LINE
  5
92
  8
BORDER
 10
1147.5699836286000846
 20
52.0001454479000103
 30
0.0
 11
1147.5699836286000846
 21
33.5703270607999968
 31
0.0
  0
LINE
  5
93
  8
BORDER
  6
CONTINUOUS
 10
1134.9813812183999744
 20
10.0001454478999996
 30
0.0
 11
1134.9813812183999744
 21
33.5703270607999968
 31
0.0
  0
LINE
  5
94
  8
BORDER
 10
1179.0
 20
42.5703270607999897
 30
0.0
 11
1116.0540298161999999
 21
42.5703270607999897
 31
0.0
  0
LINE
  5
95
  8
BORDER
 10
1116.0540298161999999
 20
24.5703270608000004
 30
0.0
 11
1089.036352289999968
 21
24.5703270608000004
 31
0.0
  0
LINE
  5
96
  8
BORDER
  6
CONTINUOUS
 10
1167.2000000000000455
 20
10.0001454478999996
 30
0.0
 11
1167.2000000000000455
 21
24.5703270608000004
 31
0.0
  0
LINE
  5
97
  8
BORDER
  6
CONTINUOUS
 10
1179.0
 20
24.5703270608000004
 30
0.0
 11
1116.0540298161999999
 21
24.5703270608000004
 31
0.0
  0
LINE
  5
98
  8
BORDER
  6
CONTINUOUS
 10
1152.2000000000000455
 20
10.0001454478999996
 30
0.0
 11
1152.2000000000000455
 21
24.5703270608000004
 31
0.0
  0
LINE
  5
99
  8
BORDER
 10
1067.714658106800016
 20
14.8656048576999993
 30
0.0
 11
1079.7284011771000678
 21
14.8656048576999993
 31
0.0
  0
LINE
  5
9A
  8
BORDER
 10
1059.036352289999968
 20
52.0001454479000103
 30
0.0
 11
1179.036352289999968
 21
52.0001454479000103
 31
0.0
  0
LINE
  5
9B
  8
BORDER
  6
CONTINUOUS
 10
1059.036352289999968
 20
52.0001454479000103
 30
0.0
 11
1059.036352289999968
 21
10.0001454478999996
 31
0.0
  0
LINE
  5
9C
  8
BORDER
 10
1116.0540298161999999
 20
52.0001454479000103
 30
0.0
 11
1116.0540298161999999
 21
10.0001454478999996
 31
0.0
  0
LINE
  5
9D
  8
BORDER
 10
1179.0
 20
470.5
 30
0.0
 11
1184.0
 21
470.5
 31
0.0
  0
LINE
  5
9E
  8
BORDER
 10
1179.0
 20
520.5
 30
0.0
 11
1184.0
 21
520.5
 31
0.0
  0
LINE
  5
9F
  8
BORDER
 10
1179.0
 20
570.5
 30
0.0
 11
1184.0
 21
570.5
 31
0.0
  0
LINE
  5
A0
  8
BORDER
 10
1179.0
 20
620.5
 30
0.0
 11
1184.0
 21
620.5
 31
0.0
  0
LINE
  5
A1
  8
BORDER
 10
1179.0
 20
670.5
 30
0.0
 11
1184.0
 21
670.5
 31
0.0
  0
LINE
  5
A2
  8
BORDER
 10
1179.0
 20
720.5
 30
0.0
 11
1184.0
 21
720.5
 31
0.0
  0
LINE
  5
A3
  8
BORDER
 10
1179.0
 20
770.5
 30
0.0
 11
1184.0
 21
770.5
 31
0.0
  0
LINE
  5
A4
  8
BORDER
 10
1179.0
 20
370.5
 30
0.0
 11
1184.0
 21
370.5
 31
0.0
  0
LINE
  5
A5
  8
BORDER
 10
1179.0
 20
320.5
 30
0.0
 11
1184.0
 21
320.5
 31
0.0
  0
LINE
  5
A6
  8
BORDER
  6
CONTINUOUS
 10
1074.1558991771000819
 20
16.1156048576999993
 30
0.0
 11
1074.1558991771000819
 21
13.6156048576999993
 31
0.0
  0
LINE
  5
A7
  8
BORDER
  6
CONTINUOUS
 10
1074.1558991771000819
 20
13.6156048576999993
 30
0.0
 11
1079.1558991771000819
 21
12.3656048576999993
 31
0.0
  0
LINE
  5
A8
  8
BORDER
  6
CONTINUOUS
 10
1079.1558991771000819
 20
12.3656048576999993
 30
0.0
 11
1079.1558991771000819
 21
17.3656048576999993
 31
0.0
  0
LINE
  5
A9
  8
BORDER
 10
1179.0
 20
270.5
 30
0.0
 11
1184.0
 21
270.5
 31
0.0
  0
LINE
  5
AA
  8
BORDER
 10
15.0
 20
836.0
 30
0.0
 11
1184.0
 21
836.0
 31
0.0
  0
LINE
  5
AB
  8
BORDER
 10
15.0
 20
836.0
 30
0.0
 11
15.0
 21
5.0
 31
0.0
  0
LINE
  5
AC
  8
BORDER
 10
15.0
 20
5.0
 30
0.0
 11
1184.0
 21
5.0
 31
0.0
  0
LINE
  5
AD
  8
BORDER
 10
1184.0
 20
836.0
 30
0.0
 11
1184.0
 21
5.0
 31
0.0
  0
LINE
  5
AE
  8
BORDER
 10
20.0
 20
831.0
 30
0.0
 11
1179.0
 21
831.0
 31
0.0
  0
LINE
  5
AF
  8
BORDER
 10
20.0
 20
831.0
 30
0.0
 11
20.0
 21
10.0001454478999996
 31
0.0
  0
LINE
  5
B0
  8
BORDER
 10
20.0
 20
10.0001454478999996
 30
0.0
 11
1179.0
 21
10.0001454478999996
 31
0.0
  0
LINE
  5
B1
  8
BORDER
 10
1179.0
 20
831.0
 30
0.0
 11
1179.0
 21
10.0001454478999996
 31
0.0
  0
LINE
  5
B2
  8
BORDER
 10
1179.0
 20
220.5
 30
0.0
 11
1184.0
 21
220.5
 31
0.0
  0
LINE
  5
B3
  8
BORDER
 10
594.5
 20
836.0
 30
0.0
 11
594.5
 21
826.0
 31
0.0
  0
LINE
  5
B4
  8
BORDER
 10
594.5
 20
5.0
 30
0.0
 11
594.5
 21
10.0001454478999996
 31
0.0
  0
LINE
  5
B5
  8
BORDER
 10
15.0
 20
420.5
 30
0.0
 11
25.0
 21
420.5
 31
0.0
  0
LINE
  5
B6
  8
BORDER
 10
1184.0
 20
420.5
 30
0.0
 11
1174.0
 21
420.5
 31
0.0
  0
LINE
  5
B7
  8
BORDER
 10
544.5
 20
10.0001454478999996
 30
0.0
 11
544.5
 21
5.0
 31
0.0
  0
LINE
  5
B8
  8
BORDER
 10
494.5
 20
10.0001454478999996
 30
0.0
 11
494.5
 21
5.0
 31
0.0
  0
LINE
  5
B9
  8
BORDER
 10
444.5
 20
10.0001454478999996
 30
0.0
 11
444.5
 21
5.0
 31
0.0
  0
LINE
  5
BA
  8
BORDER
 10
394.5
 20
10.0001454478999996
 30
0.0
 11
394.5
 21
5.0
 31
0.0
  0
LINE
  5
BB
  8
BORDER
  6
CONTINUOUS
 10
1079.1558991771000819
 20
17.3656048576999993
 30
0.0
 11
1074.1558991771000819
 21
16.1156048576999993
 31
0.0
  0
LINE
  5
BC
  8
BORDER
 10
1179.0859374410999862
 20
33.5703270607999968
 30
0.0
 11
1116.0540298161999999
 21
33.5703270607999968
 31
0.0
  0
LINE
  5
BD
  8
BORDER
 10
344.5
 20
10.0001454478999996
 30
0.0
 11
344.5
 21
5.0
 31
0.0
  0
LINE
  5
BE
  8
BORDER
 10
294.5
 20
10.0001454478999996
 30
0.0
 11
294.5
 21
5.0
 31
0.0
  0
LINE
  5
BF
  8
BORDER
 10
244.5
 20
10.0001454478999996
 30
0.0
 11
244.5
 21
5.0
 31
0.0
  0
LINE
  5
C0
  8
BORDER
 10
194.5
 20
10.0001454478999996
 30
0.0
 11
194.5
 21
5.0
 31
0.0
  0
LINE
  5
C1
  8
BORDER
 10
144.5
 20
10.0001454478999996
 30
0.0
 11
144.5
 21
5.0
 31
0.0
  0
LINE
  5
C2
  8
BORDER
 10
94.5000000000000142
 20
10.0001454478999996
 30
0.0
 11
94.5000000000000142
 21
5.0
 31
0.0
  0
LINE
  5
C3
  8
BORDER
 10
1179.0
 20
170.5
 30
0.0
 11
1184.0
 21
170.5
 31
0.0
  0
LINE
  5
C4
  8
BORDER
 10
44.5
 20
10.0001454478999996
 30
0.0
 11
44.5
 21
5.0
 31
0.0
  0
LINE
  5
C5
  8
BORDER
 10
644.5
 20
10.0001454478999996
 30
0.0
 11
644.5
 21
5.0
 31
0.0
  0
LINE
  5
C6
  8
BORDER
 10
694.5
 20
10.0001454478999996
 30
0.0
 11
694.5
 21
5.0
 31
0.0
  0
LINE
  5
C7
  8
BORDER
 10
744.5
 20
10.0001454478999996
 30
0.0
 11
744.5
 21
5.0
 31
0.0
  0
LINE
  5
C8
  8
BORDER
 10
794.5
 20
10.0001454478999996
 30
0.0
 11
794.5
 21
5.0
 31
0.0
  0
LINE
  5
C9
  8
BORDER
 10
844.5
 20
10.0001454478999996
 30
0.0
 11
844.5
 21
5.0
 31
0.0
  0
LINE
  5
CA
  8
BORDER
 10
894.5
 20
10.0001454478999996
 30
0.0
 11
894.5
 21
5.0
 31
0.0
  0
LINE
  5
CB
  8
BORDER
 10
944.5
 20
10.0001454478999996
 30
0.0
 11
944.5
 21
5.0
 31
0.0
  0
LINE
  5
CC
  8
BORDER
 10
994.5
 20
10.0001454478999996
 30
0.0
 11
994.5
 21
5.0
 31
0.0
  0
LINE
  5
CD
  8
BORDER
 10
1044.5
 20
10.0001454478999996
 30
0.0
 11
1044.5
 21
5.0
 31
0.0
  0
LINE
  5
CE
  8
BORDER
 10
1094.5381397542998911
 20
10.0001454478999996
 30
0.0
 11
1094.4745747297999969
 21
5.0
 31
0.0
  0
LINE
  5
CF
  8
BORDER
 10
1144.5
 20
10.0001454478999996
 30
0.0
 11
1144.5
 21
5.0
 31
0.0
  0
LINE
  5
D0
  8
TRIM
 10
0.0
 20
0.0
 30
0.0
 11
0.0
 21
10.0
 31
0.0
  0
LINE
  5
D1
  8
BORDER
 10
1179.0
 20
120.5
 30
0.0
 11
1184.0
 21
120.5
 31
0.0
  0
LINE
  5
D2
  8
BORDER
 10
1179.0
 20
70.5
 30
0.0
 11
1184.0
 21
70.5
 31
0.0
  0
LINE
  5
D3
  8
TRIM
 10
0.0
 20
10.0
 30
0.0
 11
5.0
 21
10.0
 31
0.0
  0
LINE
  5
D4
  8
TRIM
 10
5.0
 20
10.0
 30
0.0
 11
5.0
 21
5.0
 31
0.0
  0
LINE
  5
D5
  8
TRIM
 10
5.0
 20
5.0
 30
0.0
 11
10.0
 21
5.0
 31
0.0
  0
LINE
  5
D6
  8
TRIM
 10
10.0
 20
5.0
 30
0.0
 11
10.0
 21
0.0
 31
0.0
  0
LINE
  5
D7
  8
TRIM
 10
0.0
 20
841.0
 30
0.0
 11
10.0
 21
841.0
 31
0.0
  0
LINE
  5
D8
  8
TRIM
 10
10.0
 20
0.0
 30
0.0
 11
0.0
 21
0.0
 31
0.0
  0
LINE
  5
D9
  8
BORDER
 10
15.0
 20
370.5
 30
0.0
 11
20.0
 21
370.5
 31
0.0
  0
LINE
  5
DA
  8
BORDER
 10
15.0
 20
320.5
 30
0.0
 11
20.0
 21
320.5
 31
0.0
  0
LINE
  5
DB
  8
BORDER
 10
15.0
 20
270.5
 30
0.0
 11
20.0
 21
270.5
 31
0.0
  0
LINE
  5
DC
  8
BORDER
 10
15.0
 20
220.5
 30
0.0
 11
20.0
 21
220.5
 31
0.0
  0
LINE
  5
DD
  8
BORDER
 10
15.0
 20
170.5
 30
0.0
 11
20.0
 21
170.5
 31
0.0
  0
LINE
  5
DE
  8
BORDER
 10
15.0
 20
120.5
 30
0.0
 11
20.0
 21
120.5
 31
0.0
  0
LINE
  5
DF
  8
BORDER
 10
15.0
 20
70.5
 30
0.0
 11
20.0
 21
70.5
 31
0.0
  0
LINE
  5
E0
  8
BORDER
 10
15.0
 20
470.5
 30
0.0
 11
20.0
 21
470.5
 31
0.0
  0
LINE
  5
E1
  8
TRIM
 10
10.0
 20
841.0
 30
0.0
 11
10.0
 21
836.0
 31
0.0
  0
LINE
  5
E2
  8
TRIM
 10
10.0
 20
836.0
 30
0.0
 11
5.0
 21
836.0
 31
0.0
  0
LINE
  5
E3
  8
TRIM
 10
5.0
 20
836.0
 30
0.0
 11
5.0
 21
831.0
 31
0.0
  0
LINE
  5
E4
  8
TRIM
 10
5.0
 20
831.0
 30
0.0
 11
0.0
 21
831.0
 31
0.0
  0
LINE
  5
E5
  8
BORDER
 10
15.0
 20
520.5
 30
0.0
 11
20.0
 21
520.5
 31
0.0
  0
LINE
  5
E6
  8
BORDER
 10
15.0
 20
570.5
 30
0.0
 11
20.0
 21
570.5
 31
0.0
  0
LINE
  5
E7
  8
BORDER
 10
15.0
 20
620.5
 30
0.0
 11
20.0
 21
620.5
 31
0.0
  0
LINE
  5
E8
  8
BORDER
 10
15.0
 20
670.5
 30
0.0
 11
20.0
 21
670.5
 31
0.0
  0
LINE
  5
E9
  8
BORDER
 10
15.0
 20
720.5
 30
0.0
 11
20.0
 21
720.5
 31
0.0
  0
LINE
  5
EA
  8
BORDER
 10
15.0
 20
770.5
 30
0.0
 11
20.0
 21
770.5
 31
0.0
  0
LINE
  5
EB
  8
TRIM
 10
0.0
 20
831.0
 30
0.0
 11
0.0
 21
841.0
 31
0.0
  0
LINE
  5
EC
  8
TRIM
 10
1179.0
 20
841.0
 30
0.0
 11
1179.0
 21
836.0
 31
0.0
  0
LINE
  5
ED
  8
TRIM
 10
1179.0
 20
836.0
 30
0.0
 11
1184.0
 21
836.0
 31
0.0
  0
LINE
  5
EE
  8
TRIM
 10
1184.0
 20
831.0
 30
0.0
 11
1189.0
 21
831.0
 31
0.0
  0
LINE
  5
EF
  8
TRIM
 10
1189.0
 20
831.0
 30
0.0
 11
1189.0
 21
841.0
 31
0.0
  0
LINE
  5
F0
  8
TRIM
 10
1189.0
 20
841.0
 30
0.0
 11
1179.0
 21
841.0
 31
0.0
  0
LINE
  5
F1
  8
TRIM
 10
1184.0
 20
836.0
 30
0.0
 11
1184.0
 21
831.0
 31
0.0
  0
LINE
  5
F2
  8
TRIM
 10
1179.0
 20
0.0
 30
0.0
 11
1179.0
 21
5.0
 31
0.0
  0
LINE
  5
F3
  8
BORDER
 10
1089.036352289999968
 20
24.5703270608000004
 30
0.0
 11
1059.0
 21
24.5703270608000004
 31
0.0
  0
LINE
  5
F4
  8
BORDER
 10
1071.255899177099991
 20
18.0427931076999997
 30
0.0
 11
1071.255899177099991
 21
11.5891294748
 31
0.0
  0
LINE
  5
F5
  8
BORDER
 10
1089.036352289999968
 20
24.5703270608000004
 30
0.0
 11
1089.036352289999968
 21
10.0001454478999996
 31
0.0
  0
LINE
  5
F6
  8
TRIM
 10
1179.0
 20
5.0
 30
0.0
 11
1184.0
 21
5.0
 31
0.0
  0
LINE
  5
F7
  8
TRIM
 10
1184.0
 20
5.0
 30
0.0
 11
1184.0
 21
10.0
 31
0.0
  0
LINE
  5
F8
  8
TRIM
 10
1184.0
 20
10.0
 30
0.0
 11
1189.0
 21
10.0
 31
0.0
  0
LINE
  5
F9
  8
TRIM
 10
1189.0
 20
10.0
 30
0.0
 11
1189.0
 21
0.0
 31
0.0
  0
LINE
  5
FA
  8
TRIM
 10
1189.0
 20
0.0
 30
0.0
 11
1179.0
 21
0.0
 31
0.0
  0
CIRCLE
  5
FB
  8
BORDER
  6
CONTINUOUS
 10
1071.255899177099991
 20
14.8656048576999993
 30
0.0
 40
1.249999999999946
  0
CIRCLE
  5
FC
  8
BORDER
  6
CONTINUOUS
 10
1071.255899177099991
 20
14.8656048576999993
 30
0.0
 40
2.4999999999998921
  0
INSERT
  5
FE
  8
0
  2
*U17
 10
0.0
 20
0.0
 30
0.0
  0
INSERT
  5
FF
  8
0
  2
*U18
 10
0.0
 20
0.0
 30
0.0
  0
INSERT
  5
100
  8
0
  2
*U19
 10
0.0
 20
0.0
 30
0.0
  0
INSERT
  5
101
  8
0
  2
*U20
 10
0.0
 20
0.0
 30
0.0
  0
INSERT
  5
102
  8
0
  2
*U21
 10
0.0
 20
0.0
 30
0.0
  0
INSERT
  5
103
  8
0
  2
*U22
 10
0.0
 20
0.0
 30
0.0
  0
INSERT
  5
104
  8
0
  2
*U23
 10
0.0
 20
0.0
 30
0.0
  0
INSERT
  5
105
  8
0
  2
*U24
 10
0.0
 20
0.0
 30
0.0
  0
INSERT
  5
106
  8
0
  2
*U25
 10
0.0
 20
0.0
 30
0.0
  0
INSERT
  5
107
  8
0
  2
*U26
 10
0.0
 20
0.0
 30
0.0
  0
INSERT
  5
108
  8
0
  2
*U27
 10
0.0
 20
0.0
 30
0.0
  0
INSERT
  5
109
  8
0
  2
*U28
 10
0.0
 20
0.0
 30
0.0
  0
INSERT
  5
10A
  8
0
  2
*U29
 10
0.0
 20
0.0
 30
0.0
  0
INSERT
  5
10B
  8
0
  2
*U30
 10
0.0
 20
0.0
 30
0.0
  0
INSERT
  5
10C
  8
0
  2
*U31
 10
0.0
 20
0.0
 30
0.0
  0
INSERT
  5
10D
  8
0
  2
*U32
 10
0.0
 20
0.0
 30
0.0
  0
INSERT
  5
10E
  8
0
  2
*U33
 10
0.0
 20
0.0
 30
0.0
  0
INSERT
  5
10F
  8
0
  2
*U34
 10
0.0
 20
0.0
 30
0.0
  0
INSERT
  5
110
  8
0
  2
*U35
 10
0.0
 20
0.0
 30
0.0
  0
INSERT
  5
111
  8
0
  2
*U36
 10
0.0
 20
0.0
 30
0.0
  0
INSERT
  5
112
  8
0
  2
*U37
 10
0.0
 20
0.0
 30
0.0
  0
INSERT
  5
113
  8
0
  2
*U38
 10
0.0
 20
0.0
 30
0.0
  0
INSERT
  5
114
  8
0
  2
*U39
 10
0.0
 20
0.0
 30
0.0
  0
INSERT
  5
115
  8
0
  2
*U40
 10
0.0
 20
0.0
 30
0.0
  0
INSERT
  5
116
  8
0
  2
*U41
 10
0.0
 20
0.0
 30
0.0
  0
INSERT
  5
117
  8
0
  2
*U42
 10
0.0
 20
0.0
 30
0.0
  0
INSERT
  5
118
  8
0
  2
*U43
 10
0.0
 20
0.0
 30
0.0
  0
INSERT
  5
119
  8
0
  2
*U44
 10
0.0
 20
0.0
 30
0.0
  0
INSERT
  5
11A
  8
0
  2
*U45
 10
0.0
 20
0.0
 30
0.0
  0
INSERT
  5
11B
  8
0
  2
*U46
 10
0.0
 20
0.0
 30
0.0
  0
INSERT
  5
11C
  8
0
  2
*U47
 10
0.0
 20
0.0
 30
0.0
  0
INSERT
  5
11D
  8
0
  2
*U48
 10
0.0
 20
0.0
 30
0.0
  0
INSERT
  5
11E
  8
0
  2
*U49
 10
0.0
 20
0.0
 30
0.0
  0
INSERT
  5
11F
  8
0
  2
*U50
 10
0.0
 20
0.0
 30
0.0
  0
INSERT
  5
120
  8
0
  2
*U51
 10
0.0
 20
0.0
 30
0.0
  0
INSERT
  5
121
  8
0
  2
*U52
 10
0.0
 20
0.0
 30
0.0
  0
INSERT
  5
122
  8
0
  2
*U53
 10
0.0
 20
0.0
 30
0.0
  0
INSERT
  5
123
  8
0
  2
*U54
 10
0.0
 20
0.0
 30
0.0
  0
INSERT
  5
124
  8
0
  2
*U55
 10
0.0
 20
0.0
 30
0.0
  0
INSERT
  5
125
  8
0
  2
*U56
 10
0.0
 20
0.0
 30
0.0
  0
INSERT
  5
126
  8
0
  2
*U57
 10
0.0
 20
0.0
 30
0.0
  0
INSERT
  5
127
  8
0
  2
*U58
 10
0.0
 20
0.0
 30
0.0
  0
INSERT
  5
128
  8
0
  2
*U59
 10
0.0
 20
0.0
 30
0.0
  0
INSERT
  5
129
  8
0
  2
*U60
 10
0.0
 20
0.0
 30
0.0
  0
INSERT
  5
12A
  8
0
  2
*U61
 10
0.0
 20
0.0
 30
0.0
  0
INSERT
  5
12B
  8
0
  2
*U62
 10
0.0
 20
0.0
 30
0.0
  0
INSERT
  5
12C
  8
0
  2
*U63
 10
0.0
 20
0.0
 30
0.0
  0
INSERT
  5
12D
  8
0
  2
*U64
 10
0.0
 20
0.0
 30
0.0
  0
INSERT
  5
12E
  8
0
  2
*U65
 10
0.0
 20
0.0
 30
0.0
  0
INSERT
  5
12F
  8
0
  2
*U66
 10
0.0
 20
0.0
 30
0.0
  0
INSERT
  5
130
  8
0
  2
*U67
 10
0.0
 20
0.0
 30
0.0
  0
INSERT
  5
131
  8
0
  2
*U68
 10
0.0
 20
0.0
 30
0.0
  0
INSERT
  5
132
  8
0
  2
*U69
 10
0.0
 20
0.0
 30
0.0
  0
INSERT
  5
133
  8
0
  2
*U70
 10
0.0
 20
0.0
 30
0.0
  0
INSERT
  5
134
  8
0
  2
*U71
 10
0.0
 20
0.0
 30
0.0
  0
INSERT
  5
135
  8
0
  2
*U72
 10
0.0
 20
0.0
 30
0.0
  0
INSERT
  5
136
  8
0
  2
*U73
 10
0.0
 20
0.0
 30
0.0
  0
INSERT
  5
137
  8
0
  2
*U74
 10
0.0
 20
0.0
 30
0.0
  0
INSERT
  5
138
  8
0
  2
*U75
 10
0.0
 20
0.0
 30
0.0
  0
INSERT
  5
139
  8
0
  2
*U76
 10
0.0
 20
0.0
 30
0.0
  0
INSERT
  5
13A
  8
0
  2
*U77
 10
0.0
 20
0.0
 30
0.0
  0
INSERT
  5
13B
  8
0
  2
*U78
 10
0.0
 20
0.0
 30
0.0
  0
INSERT
  5
13C
  8
0
  2
*U79
 10
0.0
 20
0.0
 30
0.0
  0
INSERT
  5
13D
  8
0
  2
*U80
 10
0.0
 20
0.0
 30
0.0
  0
INSERT
  5
13E
  8
0
  2
*U81
 10
0.0
 20
0.0
 30
0.0
  0
INSERT
  5
13F
  8
0
  2
*U82
 10
0.0
 20
0.0
 30
0.0
  0
INSERT
  5
140
  8
0
  2
*U83
 10
0.0
 20
0.0
 30
0.0
  0
INSERT
  5
141
  8
0
  2
*U84
 10
0.0
 20
0.0
 30
0.0
  0
INSERT
  5
142
  8
0
  2
*U85
 10
0.0
 20
0.0
 30
0.0
  0
INSERT
  5
143
  8
0
  2
*U86
 10
0.0
 20
0.0
 30
0.0
  0
INSERT
  5
144
  8
0
  2
*U87
 10
0.0
 20
0.0
 30
0.0
  0
INSERT
  5
145
  8
0
  2
*U88
 10
0.0
 20
0.0
 30
0.0
  0
INSERT
  5
146
  8
0
  2
*U89
 10
0.0
 20
0.0
 30
0.0
  0
INSERT
  5
147
  8
0
  2
*U90
 10
0.0
 20
0.0
 30
0.0
  0
INSERT
  5
148
  8
0
  2
*U91
 10
0.0
 20
0.0
 30
0.0
  0
INSERT
  5
149
  8
0
  2
*U92
 10
0.0
 20
0.0
 30
0.0
  0
INSERT
  5
14A
  8
0
  2
*U93
 10
0.0
 20
0.0
 30
0.0
  0
INSERT
  5
14B
  8
0
  2
*U94
 10
0.0
 20
0.0
 30
0.0
  0
INSERT
  5
14C
  8
0
  2
*U95
 10
0.0
 20
0.0
 30
0.0
  0
INSERT
  5
14D
  8
0
  2
*U96
 10
0.0
 20
0.0
 30
0.0
  0
INSERT
  5
14E
  8
0
  2
*U97
 10
0.0
 20
0.0
 30
0.0
  0
INSERT
  5
14F
  8
0
  2
*U98
 10
0.0
 20
0.0
 30
0.0
  0
INSERT
  5
150
  8
0
  2
*U99
 10
0.0
 20
0.0
 30
0.0
  0
INSERT
  5
152
  8
0
  2
*U100
 10
0.0
 20
0.0
 30
0.0
  0
INSERT
  5
153
  8
0
  2
*U101
 10
0.0
 20
0.0
 30
0.0
  0
INSERT
  5
159
  8
BORDER
  2
SW_NOTE_0
 10
1061.0713434944000255
 20
21.6258903222000001
 30
0.0
  0
INSERT
  5
15A
  8
0
  2
*U104
 10
0.0
 20
0.0
 30
0.0
  0
INSERT
  5
15C
  8
0
  2
*U105
 10
0.0
 20
0.0
 30
0.0
  0
INSERT
  5
15D
  8
0
  2
*U106
 10
0.0
 20
0.0
 30
0.0
  0
INSERT
  5
15E
  8
0
  2
*U107
 10
0.0
 20
0.0
 30
0.0
  0
INSERT
  5
15F
  8
0
  2
*U108
 10
0.0
 20
0.0
 30
0.0
  0
INSERT
  5
160
  8
0
  2
*U109
 10
0.0
 20
0.0
 30
0.0
  0
INSERT
  5
161
  8
0
  2
*U110
 10
0.0
 20
0.0
 30
0.0
  0
INSERT
  5
162
  8
0
  2
*U111
 10
0.0
 20
0.0
 30
0.0
  0
INSERT
  5
163
  8
0
  2
*U112
 10
0.0
 20
0.0
 30
0.0
  0
INSERT
  5
164
  8
0
  2
*U113
 10
0.0
 20
0.0
 30
0.0
  0
INSERT
  5
165
  8
0
  2
*U114
 10
0.0
 20
0.0
 30
0.0
  0
INSERT
  5
166
  8
0
  2
*U115
 10
0.0
 20
0.0
 30
0.0
  0
INSERT
  5
167
  8
0
  2
*U116
 10
0.0
 20
0.0
 30
0.0
  0
INSERT
  5
168
  8
0
  2
*U117
 10
0.0
 20
0.0
 30
0.0
  0
INSERT
  5
169
  8
0
  2
*U118
 10
0.0
 20
0.0
 30
0.0
  0
INSERT
  5
16A
  8
0
  2
*U119
 10
0.0
 20
0.0
 30
0.0
  0
INSERT
  5
16B
  8
0
  2
*U120
 10
0.0
 20
0.0
 30
0.0
  0
INSERT
  5
16C
  8
0
  2
*U121
 10
0.0
 20
0.0
 30
0.0
  0
INSERT
  5
16D
  8
0
  2
*U122
 10
0.0
 20
0.0
 30
0.0
  0
INSERT
  5
16E
  8
0
  2
*U123
 10
0.0
 20
0.0
 30
0.0
  0
INSERT
  5
16F
  8
0
  2
*U124
 10
0.0
 20
0.0
 30
0.0
  0
INSERT
  5
178
  8
BORDER
  2
SW_NOTE_1
 10
1059.3903030665001097
 20
70.3808091667000042
 30
0.0
  0
LINE
  5
179
  8
0
  6
CONTINUOUS
 62
     7
 10
325.4651961961000097
 20
632.8805477616000417
 30
0.0
 11
325.4651961961000097
 21
550.8805477616000417
 31
0.0
  0
LINE
  5
17A
  8
0
  6
CONTINUOUS
 62
     7
 10
325.4651961961000097
 20
550.8805477616000417
 30
0.0
 11
345.4651961961000097
 21
550.8805477616000417
 31
0.0
  0
LINE
  5
17B
  8
0
  6
CONTINUOUS
 62
     7
 10
325.4651961961000097
 20
632.8805477616000417
 30
0.0
 11
345.4651961961000097
 21
632.8805477616000417
 31
0.0
  0
LINE
  5
17C
  8
0
  6
CONTINUOUS
 62
     7
 10
440.4651961961000097
 20
638.8805477616000417
 30
0.0
 11
390.4651961961000097
 21
638.8805477616000417
 31
0.0
  0
LINE
  5
17D
  8
0
  6
CONTINUOUS
 62
     7
 10
440.4651961961000097
 20
632.8805477616000417
 30
0.0
 11
440.4651961961000097
 21
638.8805477616000417
 31
0.0
  0
LINE
  5
17E
  8
0
  6
CONTINUOUS
 62
     7
 10
440.4651961961000097
 20
632.8805477616000417
 30
0.0
 11
485.4651961961000097
 21
632.8805477616000417
 31
0.0
  0
LINE
  5
17F
  8
0
  6
CONTINUOUS
 62
     7
 10
390.4651961961000097
 20
638.8805477616000417
 30
0.0
 11
390.4651961961000097
 21
632.8805477616000417
 31
0.0
  0
LINE
  5
180
  8
0
  6
CONTINUOUS
 62
     7
 10
440.4651961961000097
 20
558.8805477616000417
 30
0.0
 11
390.4651961961000097
 21
558.8805477616000417
 31
0.0
  0
LINE
  5
181
  8
0
  6
CONTINUOUS
 62
     7
 10
440.4651961961000097
 20
558.8805477616000417
 30
0.0
 11
440.4651961961000097
 21
550.8805477616000417
 31
0.0
  0
LINE
  5
182
  8
0
  6
CONTINUOUS
 62
     7
 10
440.4651961961000097
 20
550.8805477616000417
 30
0.0
 11
485.4651961961000097
 21
550.8805477616000417
 31
0.0
  0
LINE
  5
183
  8
0
  6
CONTINUOUS
 62
     7
 10
390.4651961961000097
 20
558.8805477616000417
 30
0.0
 11
390.4651961961000097
 21
550.8805477616000417
 31
0.0
  0
LINE
  5
184
  8
0
  6
CONTINUOUS
 62
     7
 10
345.4651961961000097
 20
632.8805477616000417
 30
0.0
 11
390.4651961961000097
 21
632.8805477616000417
 31
0.0
  0
LINE
  5
185
  8
0
  6
CONTINUOUS
 62
     7
 10
345.4651961961000097
 20
550.8805477616000417
 30
0.0
 11
390.4651961961000097
 21
550.8805477616000417
 31
0.0
  0
LINE
  5
186
  8
0
  6
CONTINUOUS
 62
     7
 10
505.4651961961000097
 20
632.8805477616000417
 30
0.0
 11
505.4651961961000097
 21
550.8805477616000417
 31
0.0
  0
LINE
  5
187
  8
0
  6
CONTINUOUS
 62
     7
 10
485.4651961961000097
 20
550.8805477616000417
 30
0.0
 11
505.4651961961000097
 21
550.8805477616000417
 31
0.0
  0
LINE
  5
188
  8
0
  6
CONTINUOUS
 62
     7
 10
485.4651961961000097
 20
632.8805477616000417
 30
0.0
 11
505.4651961961000097
 21
632.8805477616000417
 31
0.0
  0
LINE
  5
189
  8
0
  6
CONTINUOUS
 62
     7
 10
331.4651961961000097
 20
638.8805477616000417
 30
0.0
 11
325.4651961961000097
 21
638.8805477616000417
 31
0.0
  0
LINE
  5
18A
  8
0
  6
CONTINUOUS
 62
     7
 10
331.4651961961000097
 20
632.8805477616000417
 30
0.0
 11
331.4651961961000097
 21
638.8805477616000417
 31
0.0
  0
LINE
  5
18B
  8
0
  6
CONTINUOUS
 62
     7
 10
325.4651961961000097
 20
632.8805477616000417
 30
0.0
 11
325.4651961961000097
 21
638.8805477616000417
 31
0.0
  0
LINE
  5
18C
  8
0
  6
CONTINUOUS
 62
     7
 10
440.4651961961000097
 20
550.8805477616000417
 30
0.0
 11
390.4651961961000097
 21
550.8805477616000417
 31
0.0
  0
LINE
  5
18D
  8
0
  6
PHANTOM
 62
     8
 10
345.4651961961000097
 20
632.8805477616000417
 30
0.0
 11
345.4651961961000097
 21
550.8805477616000417
 31
0.0
  0
LINE
  5
18E
  8
0
  6
PHANTOM
 62
     8
 10
485.4651961961000097
 20
632.8805477616000417
 30
0.0
 11
485.4651961961000097
 21
550.8805477616000417
 31
0.0
  0
DIMENSION
  5
18F
  8
BORDER
  2
_D
 10
309.4651961961000097
 20
550.8805477616000417
 30
0.0
 11
309.4651961961000097
 21
591.7136710208000068
 31
0.0
 70
   128
  1
<>
 13
390.4651961961000097
 23
638.8805477616000417
 33
0.0
 14
325.4651961961000097
 24
550.8805477616000417
 34
0.0
 50
90.0
  0
DIMENSION
  5
19A
  8
BORDER
  2
_D_1
 10
505.4651961961000097
 20
525.5701001027999837
 30
0.0
 11
415.4725935577998825
 21
525.5701001027999837
 31
0.0
 70
   128
  1
<>
 13
325.4651961961000097
 23
550.8805477616000417
 33
0.0
 14
505.4651961961000097
 24
550.8805477616000417
 34
0.0
  0
DIMENSION
  5
1A4
  8
BORDER
  2
_D_2
 10
390.4651961961000097
 20
656.0349114251000628
 30
0.0
 11
417.1194313828999043
 21
656.0349114251000628
 31
0.0
 70
   128
  1
<>
 13
440.4651961961000097
 23
638.8805477616000417
 33
0.0
 14
390.4651961961000097
 24
638.8805477616000417
 34
0.0
  0
DIMENSION
  5
1AE
  8
BORDER
  2
_D_3
 10
318.4814406587000235
 20
632.8805477616000417
 30
0.0
 11
318.4814406587000235
 21
646.3799061751999488
 31
0.0
 70
   128
  1
<>
 13
390.4651961961000097
 23
638.8805477616000417
 33
0.0
 14
325.4651961961000097
 24
632.8805477616000417
 34
0.0
 50
90.0
  0
DIMENSION
  5
1BB
  8
BORDER
  2
_D_4
 10
521.4651961961000097
 20
550.8805477616000417
 30
0.0
 11
521.4651961961000097
 21
567.2339014904998749
 31
0.0
 70
   128
  1
<>
 13
440.4651961961000097
 23
558.8805477616000417
 33
0.0
 14
505.4651961961000097
 24
550.8805477616000417
 34
0.0
 50
90.0
  0
LINE
  5
1C6
  8
0
  6
CONTINUOUS
 62
     7
 10
779.0623333966000246
 20
632.8805477616000417
 30
0.0
 11
779.0623333966000246
 21
550.8805477616000417
 31
0.0
  0
LINE
  5
1C7
  8
0
  6
CONTINUOUS
 62
     7
 10
779.0623333966000246
 20
550.8805477616000417
 30
0.0
 11
848.5623333966000246
 21
550.8805477616000417
 31
0.0
  0
LINE
  5
1C8
  8
0
  6
CONTINUOUS
 62
     7
 10
779.0623333966000246
 20
632.8805477616000417
 30
0.0
 11
848.5623333966000246
 21
632.8805477616000417
 31
0.0
  0
LINE
  5
1C9
  8
0
  6
CONTINUOUS
 62
     7
 10
688.5623333966000246
 20
632.8805477616000417
 30
0.0
 11
688.5623333966000246
 21
550.8805477616000417
 31
0.0
  0
LINE
  5
1CA
  8
0
  6
CONTINUOUS
 62
     7
 10
688.5623333966000246
 20
550.8805477616000417
 30
0.0
 11
708.5623333966000246
 21
550.8805477616000417
 31
0.0
  0
LINE
  5
1CB
  8
0
  6
CONTINUOUS
 62
     7
 10
688.5623333966000246
 20
632.8805477616000417
 30
0.0
 11
708.5623333966000246
 21
632.8805477616000417
 31
0.0
  0
LINE
  5
1CC
  8
0
  6
CONTINUOUS
 62
     7
 10
708.5623333966000246
 20
632.8805477616000417
 30
0.0
 11
778.0623333966000246
 21
632.8805477616000417
 31
0.0
  0
LINE
  5
1CD
  8
0
  6
CONTINUOUS
 62
     7
 10
708.5623333966000246
 20
550.8805477616000417
 30
0.0
 11
778.0623333966000246
 21
550.8805477616000417
 31
0.0
  0
LINE
  5
1CE
  8
0
  6
CONTINUOUS
 62
     7
 10
778.0623333966000246
 20
632.8805477616000417
 30
0.0
 11
778.0623333966000246
 21
550.8805477616000417
 31
0.0
  0
LINE
  5
1CF
  8
0
  6
CONTINUOUS
 62
     7
 10
868.5623333966001383
 20
632.8805477616000417
 30
0.0
 11
868.5623333966001383
 21
550.8805477616000417
 31
0.0
  0
LINE
  5
1D0
  8
0
  6
CONTINUOUS
 62
     7
 10
848.5623333966000246
 20
550.8805477616000417
 30
0.0
 11
868.5623333966001383
 21
550.8805477616000417
 31
0.0
  0
LINE
  5
1D1
  8
0
  6
CONTINUOUS
 62
     7
 10
848.5623333966000246
 20
632.8805477616000417
 30
0.0
 11
868.5623333966001383
 21
632.8805477616000417
 31
0.0
  0
LINE
  5
1D2
  8
0
  6
CONTINUOUS
 62
     7
 10
694.5623333966000246
 20
638.8805477616000417
 30
0.0
 11
688.5623333966000246
 21
638.8805477616000417
 31
0.0
  0
LINE
  5
1D3
  8
0
  6
CONTINUOUS
 62
     7
 10
694.5623333966000246
 20
632.8805477616000417
 30
0.0
 11
694.5623333966000246
 21
638.8805477616000417
 31
0.0
  0
LINE
  5
1D4
  8
0
  6
CONTINUOUS
 62
     7
 10
688.5623333966000246
 20
632.8805477616000417
 30
0.0
 11
688.5623333966000246
 21
638.8805477616000417
 31
0.0
  0
LINE
  5
1D5
  8
0
  6
CONTINUOUS
 62
     7
 10
803.5623333966000246
 20
638.8805477616000417
 30
0.0
 11
803.5623333966000246
 21
632.8805477616000417
 31
0.0
  0
LINE
  5
1D6
  8
0
  6
CONTINUOUS
 62
     7
 10
753.5623333966000246
 20
632.8805477616000417
 30
0.0
 11
753.5623333966000246
 21
638.8805477616000417
 31
0.0
  0
LINE
  5
1D7
  8
0
  6
CONTINUOUS
 62
     7
 10
779.0623333966000246
 20
558.8805477616000417
 30
0.0
 11
778.0623333966000246
 21
558.8805477616000417
 31
0.0
  0
LINE
  5
1D8
  8
0
  6
CONTINUOUS
 62
     7
 10
753.5623333966000246
 20
638.8805477616000417
 30
0.0
 11
803.5623333966000246
 21
638.8805477616000417
 31
0.0
  0
LINE
  5
1D9
  8
0
  6
PHANTOM
 62
     8
 10
848.5623333966000246
 20
632.8805477616000417
 30
0.0
 11
848.5623333966000246
 21
550.8805477616000417
 31
0.0
  0
LINE
  5
1DA
  8
0
  6
PHANTOM
 62
     8
 10
708.5623333966000246
 20
632.8805477616000417
 30
0.0
 11
708.5623333966000246
 21
550.8805477616000417
 31
0.0
  0
ARC
  5
1DB
  8
0
  6
CONTINUOUS
 62
     7
 10
485.4651961961000097
 20
204.8338017849999915
 30
0.0
 40
20.0
 50
270.0
 51
0.0
  0
ARC
  5
1DC
  8
0
  6
CONTINUOUS
 62
     7
 10
485.4651961961000097
 20
204.8338017849999915
 30
0.0
 40
14.0
 50
270.0
 51
0.0
  0
ARC
  5
1DD
  8
0
  6
CONTINUOUS
 62
     7
 10
345.4651961961000097
 20
204.8338017849999915
 30
0.0
 40
14.0
 50
180.0
 51
270.0
  0
ARC
  5
1DE
  8
0
  6
CONTINUOUS
 62
     7
 10
345.4651961961000097
 20
204.8338017849999915
 30
0.0
 40
20.0
 50
180.0
 51
270.0
  0
LINE
  5
1DF
  8
0
  6
CONTINUOUS
 62
     7
 10
485.4651961961000097
 20
190.8338017849999915
 30
0.0
 11
345.4651961961000097
 21
190.8338017849999915
 31
0.0
  0
LINE
  5
1E0
  8
0
  6
CONTINUOUS
 62
     7
 10
485.4651961961000097
 20
184.8338017849999915
 30
0.0
 11
345.4651961961000097
 21
184.8338017849999915
 31
0.0
  0
LINE
  5
1E1
  8
0
  6
CONTINUOUS
 62
     7
 10
331.4651961961000097
 20
204.8338017849999915
 30
0.0
 11
331.4651961961000097
 21
249.8338017849999915
 31
0.0
  0
LINE
  5
1E2
  8
0
  6
CONTINUOUS
 62
     7
 10
325.4651961961000097
 20
204.8338017849999915
 30
0.0
 11
325.4651961961000097
 21
249.8338017849999915
 31
0.0
  0
LINE
  5
1E3
  8
0
  6
CONTINUOUS
 62
     7
 10
325.4651961961000097
 20
249.8338017849999915
 30
0.0
 11
331.4651961961000097
 21
249.8338017849999915
 31
0.0
  0
LINE
  5
1E4
  8
0
  6
CONTINUOUS
 62
     7
 10
505.4651961961000097
 20
274.3338017849999915
 30
0.0
 11
499.465196196099896
 21
274.3338017849999915
 31
0.0
  0
LINE
  5
1E5
  8
0
  6
CONTINUOUS
 62
     7
 10
505.4651961961000097
 20
274.3338017849999915
 30
0.0
 11
505.4651961961000097
 21
204.8338017849999915
 31
0.0
  0
LINE
  5
1E6
  8
0
  6
CONTINUOUS
 62
     7
 10
499.465196196099896
 20
274.3338017849999915
 30
0.0
 11
499.465196196099896
 21
204.8338017849999915
 31
0.0
  0
LINE
  5
1E7
  8
0
  6
CONTINUOUS
 62
     7
 10
499.465196196099896
 20
275.3338017849999915
 30
0.0
 11
505.4651961961000097
 21
275.3338017849999915
 31
0.0
  0
LINE
  5
1E8
  8
0
  6
CONTINUOUS
 62
     7
 10
505.4651961961000097
 20
344.8338017849999915
 30
0.0
 11
505.4651961961000097
 21
275.3338017849999915
 31
0.0
  0
LINE
  5
1E9
  8
0
  6
CONTINUOUS
 62
     7
 10
499.465196196099896
 20
344.8338017849999915
 30
0.0
 11
499.465196196099896
 21
275.3338017849999915
 31
0.0
  0
LINE
  5
1EA
  8
0
  6
CONTINUOUS
 62
     7
 10
331.4651961961000097
 20
299.8338017849999915
 30
0.0
 11
325.4651961961000097
 21
299.8338017849999915
 31
0.0
  0
LINE
  5
1EB
  8
0
  6
CONTINUOUS
 62
     7
 10
331.4651961961000097
 20
299.8338017849999915
 30
0.0
 11
331.4651961961000097
 21
344.8338017849999915
 31
0.0
  0
LINE
  5
1EC
  8
0
  6
CONTINUOUS
 62
     7
 10
325.4651961961000097
 20
299.8338017849999915
 30
0.0
 11
325.4651961961000097
 21
344.8338017849999915
 31
0.0
  0
ARC
  5
1ED
  8
0
  6
CONTINUOUS
 62
     7
 10
485.4651961961000097
 20
344.8338017849999915
 30
0.0
 40
20.0000000000000604
 50
0.0
 51
90.0
  0
ARC
  5
1EE
  8
0
  6
CONTINUOUS
 62
     7
 10
485.4651961961000097
 20
344.8338017849999915
 30
0.0
 40
14.0000000000000604
 50
0.0
 51
90.0
  0
ARC
  5
1EF
  8
0
  6
CONTINUOUS
 62
     7
 10
345.4651961961000097
 20
344.8338017849999915
 30
0.0
 40
20.0000000000000604
 50
90.0
 51
180.0
  0
ARC
  5
1F0
  8
0
  6
CONTINUOUS
 62
     7
 10
345.4651961961000097
 20
344.8338017849999915
 30
0.0
 40
14.0000000000000604
 50
90.0
 51
180.0
  0
LINE
  5
1F1
  8
0
  6
CONTINUOUS
 62
     7
 10
345.4651961961000097
 20
358.8338017849999915
 30
0.0
 11
390.4651961961000097
 21
358.8338017849999915
 31
0.0
  0
LINE
  5
1F2
  8
0
  6
CONTINUOUS
 62
     7
 10
345.4651961961000097
 20
364.8338017849999915
 30
0.0
 11
390.4651961961000097
 21
364.8338017849999915
 31
0.0
  0
LINE
  5
1F3
  8
0
  6
CONTINUOUS
 62
     7
 10
390.4651961961000097
 20
364.8338017849999915
 30
0.0
 11
390.4651961961000097
 21
358.8338017849999915
 31
0.0
  0
LINE
  5
1F4
  8
0
  6
CONTINUOUS
 62
     7
 10
440.4651961961000097
 20
364.8338017849999915
 30
0.0
 11
485.4651961961000097
 21
364.8338017849999915
 31
0.0
  0
LINE
  5
1F5
  8
0
  6
CONTINUOUS
 62
     7
 10
440.4651961961000097
 20
358.8338017849999915
 30
0.0
 11
485.4651961961000097
 21
358.8338017849999915
 31
0.0
  0
LINE
  5
1F6
  8
0
  6
CONTINUOUS
 62
     7
 10
440.4651961961000097
 20
358.8338017849999915
 30
0.0
 11
440.4651961961000097
 21
364.8338017849999915
 31
0.0
  0
LINE
  5
1F7
  8
0
  6
CONTINUOUS
 62
     7
 10
331.4651961961000097
 20
249.8338017849999915
 30
0.0
 11
331.4651961961000097
 21
299.8338017849999915
 31
0.0
  0
LINE
  5
1F8
  8
0
  6
CONTINUOUS
 62
     7
 10
325.4651961961000097
 20
299.8338017849999915
 30
0.0
 11
325.4651961961000097
 21
249.8338017849999915
 31
0.0
  0
LINE
  5
1F9
  8
0
  6
CONTINUOUS
 62
     7
 10
440.4651961961000097
 20
364.8338017849999915
 30
0.0
 11
390.4651961961000097
 21
364.8338017849999915
 31
0.0
  0
LINE
  5
1FA
  8
0
  6
CONTINUOUS
 62
     7
 10
390.4651961961000097
 20
358.8338017849999915
 30
0.0
 11
440.4651961961000097
 21
358.8338017849999915
 31
0.0
  0
LINE
  5
1FB
  8
0
  6
PHANTOM
 62
     8
 10
485.4651961961000097
 20
184.8338017849999915
 30
0.0
 11
485.4651961961000097
 21
190.8338017849999915
 31
0.0
  0
LINE
  5
1FC
  8
0
  6
PHANTOM
 62
     8
 10
499.465196196099896
 20
204.8338017849999915
 30
0.0
 11
505.4651961961000097
 21
204.8338017849999915
 31
0.0
  0
LINE
  5
1FD
  8
0
  6
PHANTOM
 62
     8
 10
325.4651961961000097
 20
204.8338017849999915
 30
0.0
 11
331.4651961961000097
 21
204.8338017849999915
 31
0.0
  0
LINE
  5
1FE
  8
0
  6
PHANTOM
 62
     8
 10
345.4651961961000097
 20
190.8338017849999915
 30
0.0
 11
345.4651961961000097
 21
184.8338017849999915
 31
0.0
  0
LINE
  5
1FF
  8
0
  6
PHANTOM
 62
     8
 10
505.4651961961000097
 20
344.8338017849999915
 30
0.0
 11
499.465196196099896
 21
344.8338017849999915
 31
0.0
  0
LINE
  5
200
  8
0
  6
PHANTOM
 62
     8
 10
331.4651961961000097
 20
344.8338017849999915
 30
0.0
 11
325.4651961961000097
 21
344.8338017849999915
 31
0.0
  0
LINE
  5
201
  8
0
  6
PHANTOM
 62
     8
 10
485.4651961961000097
 20
358.8338017849999915
 30
0.0
 11
485.4651961961000097
 21
364.8338017849999915
 31
0.0
  0
LINE
  5
202
  8
0
  6
PHANTOM
 62
     8
 10
345.4651961961000097
 20
364.8338017849999915
 30
0.0
 11
345.4651961961000097
 21
358.8338017849999915
 31
0.0
  0
DIMENSION
  5
203
  8
BORDER
  2
_D_5
 10
285.4651961961000097
 20
184.8338017849999915
 30
0.0
 11
285.4651961961000097
 21
271.470426646500016
 31
0.0
 70
   128
  1
<>
 13
345.4651961961000097
 23
364.8338017849999915
 33
0.0
 14
345.4651961961000097
 24
184.8338017849999915
 34
0.0
 50
90.0
  0
DIMENSION
  5
20D
  8
BORDER
  2
_D_6
 10
345.4651961961000097
 20
344.8338017849999915
 30
0.0
 11
311.0886913860999812
 21
373.8263650246000225
 31
0.0
 70
   132
  1
<>
 15
335.4485262919000093
 25
354.614718103600012
 35
0.0
 40
0.0
  0
LINE
  5
217
  8
0
  6
CONTINUOUS
 62
     7
 10
942.9687782755999024
 20
261.7238437079000164
 30
0.0
 11
942.9687782755999024
 21
328.680190282500007
 31
0.0
  0
LINE
  5
218
  8
0
  6
CONTINUOUS
 62
     7
 10
704.978879543299854
 20
328.680190282500007
 30
0.0
 11
704.978879543299854
 21
261.7238437079000164
 31
0.0
  0
ARC
  5
219
  8
0
  6
CONTINUOUS
 62
     7
 10
823.9738289094001402
 20
290.6617630357999928
 30
0.0
 40
30.740438158235321
 50
242.6096722366000051
 51
297.3903277634000233
  0
ARC
  5
21A
  8
0
  6
CONTINUOUS
 62
     7
 10
823.9738289094001402
 20
223.7054164610999862
 30
0.0
 40
30.7404381582344683
 50
242.6096722366000051
 51
297.3903277634000233
  0
ARC
  5
21B
  8
0
  6
CONTINUOUS
 62
     7
 10
823.9738289094001402
 20
284.8532364306000204
 30
0.0
 40
21.4566357786229602
 50
242.5243123925000077
 51
297.4756876074999923
  0
LINE
  5
21C
  8
0
  6
CONTINUOUS
 62
     7
 10
760.6877719932000446
 20
291.7377232224999943
 30
0.0
 11
764.9304126803999679
 21
294.1869475579999857
 31
0.0
  0
LINE
  5
21D
  8
0
  6
CONTINUOUS
 62
     7
 10
764.9304126803999679
 20
294.1869475579999857
 30
0.0
 11
814.074333972799991
 21
265.8167656721000185
 31
0.0
  0
LINE
  5
21E
  8
0
  6
CONTINUOUS
 62
     7
 10
760.6877719932000446
 20
291.7377232224999943
 30
0.0
 11
809.831693285700112
 21
263.367541336699901
 31
0.0
  0
LINE
  5
21F
  8
0
  6
CONTINUOUS
 62
     7
 10
838.1159645332000991
 20
263.367541336699901
 30
0.0
 11
937.1109138992999306
 21
320.5161091643000191
 31
0.0
  0
LINE
  5
220
  8
0
  6
CONTINUOUS
 62
     7
 10
838.1159645332000991
 20
196.411194762000008
 30
0.0
 11
937.1109138992999306
 21
253.5597625896000125
 31
0.0
  0
LINE
  5
221
  8
0
  6
CONTINUOUS
 62
     7
 10
833.8733238460998791
 20
265.8167656721000185
 30
0.0
 11
932.8682732122000516
 21
322.9653334997000229
 31
0.0
  0
LINE
  5
222
  8
0
  6
CONTINUOUS
 62
     7
 10
760.6877719932000446
 20
291.7377232224999943
 30
0.0
 11
760.6877719932000446
 21
224.7813766479000037
 31
0.0
  0
LINE
  5
223
  8
0
  6
CONTINUOUS
 62
     7
 10
760.6877719932000446
 20
224.7813766479000037
 30
0.0
 11
809.831693285700112
 21
196.411194762000008
 31
0.0
  0
LINE
  5
224
  8
0
  6
CONTINUOUS
 62
     7
 10
764.223305899199886
 20
294.5951516138999864
 30
0.0
 11
759.9806652121001207
 21
292.145927278399995
 31
0.0
  0
LINE
  5
225
  8
0
  6
CONTINUOUS
 62
     7
 10
710.8367439196000532
 20
320.5161091643000191
 30
0.0
 11
759.9806652121001207
 21
292.145927278399995
 31
0.0
  0
LINE
  5
226
  8
0
  6
CONTINUOUS
 62
     7
 10
715.0793846066999322
 20
322.9653334997000229
 30
0.0
 11
764.223305899199886
 21
294.5951516138999864
 31
0.0
  0
LINE
  5
227
  8
0
  6
CONTINUOUS
 62
     7
 10
759.9806652121001207
 20
292.145927278399995
 30
0.0
 11
759.9806652121001207
 21
225.1895807038000044
 31
0.0
  0
LINE
  5
228
  8
0
  6
CONTINUOUS
 62
     7
 10
710.8367439196000532
 20
253.5597625896000125
 30
0.0
 11
759.9806652121001207
 21
225.1895807038000044
 31
0.0
  0
LINE
  5
229
  8
0
  6
CONTINUOUS
 62
     7
 10
764.223305899199886
 20
294.5951516138999864
 30
0.0
 11
764.223305899199886
 21
293.7787435020999851
 31
0.0
  0
LINE
  5
22A
  8
0
  6
CONTINUOUS
 62
     7
 10
760.6877719932000446
 20
225.597784759700005
 30
0.0
 11
759.9806652121001207
 21
225.1895807038000044
 31
0.0
  0
POLYLINE
  5
22B
  8
0
  6
CONTINUOUS
 62
     7
 66
     1
 10
0.0
 20
0.0
 30
0.0
 70
   128
  0
VERTEX
  5
571
  8
0
  6
CONTINUOUS
 62
     7
 10
937.1109138992999306
 20
320.5161091643000191
 30
0.0
  0
VERTEX
  5
572
  8
0
  6
CONTINUOUS
 62
     7
 10
938.4289873428000419
 20
321.3556413309000277
 30
0.0
  0
VERTEX
  5
573
  8
0
  6
CONTINUOUS
 62
     7
 10
939.5981705215999682
 20
322.2657129080000118
 30
0.0
  0
VERTEX
  5
574
  8
0
  6
CONTINUOUS
 62
     7
 10
940.6072035624998762
 20
323.2375594087000081
 30
0.0
  0
VERTEX
  5
575
  8
0
  6
CONTINUOUS
 62
     7
 10
941.4463689257999022
 20
324.2618214199999898
 30
0.0
  0
VERTEX
  5
576
  8
0
  6
CONTINUOUS
 62
     7
 10
942.1075849902000527
 20
325.3286347388000195
 30
0.0
  0
VERTEX
  5
577
  8
0
  6
CONTINUOUS
 62
     7
 10
942.5844838835998871
 20
326.4277253696000116
 30
0.0
  0
VERTEX
  5
578
  8
0
  6
CONTINUOUS
 62
     7
 10
942.8724728089998735
 20
327.5485084687999802
 30
0.0
  0
VERTEX
  5
579
  8
0
  6
CONTINUOUS
 62
     7
 10
942.9687782755999024
 20
328.680190282500007
 30
0.0
  0
VERTEX
  5
57A
  8
0
  6
CONTINUOUS
 62
     7
 10
942.8724728089998735
 20
329.811872096199977
 30
0.0
  0
VERTEX
  5
57B
  8
0
  6
CONTINUOUS
 62
     7
 10
942.5844838835998871
 20
330.9326551954000024
 30
0.0
  0
VERTEX
  5
57C
  8
0
  6
CONTINUOUS
 62
     7
 10
942.1075849902000527
 20
332.0317458261999946
 30
0.0
  0
VERTEX
  5
57D
  8
0
  6
CONTINUOUS
 62
     7
 10
941.4463689257999022
 20
333.0985591448999799
 30
0.0
  0
VERTEX
  5
57E
  8
0
  6
CONTINUOUS
 62
     7
 10
940.6072035624998762
 20
334.1228211562000183
 30
0.0
  0
VERTEX
  5
57F
  8
0
  6
CONTINUOUS
 62
     7
 10
939.5981705215999682
 20
335.0946676569000147
 30
0.0
  0
VERTEX
  5
580
  8
0
  6
CONTINUOUS
 62
     7
 10
938.4289873428000419
 20
336.0047392339999988
 30
0.0
  0
VERTEX
  5
581
  8
0
  6
CONTINUOUS
 62
     7
 10
937.1109138992999306
 20
336.844271400699995
 30
0.0
  0
SEQEND
  5
582
  8
0
  6
CONTINUOUS
 62
     7
  0
ARC
  5
22C
  8
0
  6
CONTINUOUS
 62
     7
 10
932.9596370258000206
 20
262.7219712457999776
 30
0.0
 40
10.0587855698756208
 50
294.3746582936000209
 51
354.3052007488000186
  0
ARC
  5
22D
  8
0
  6
CONTINUOUS
 62
     7
 10
930.6591823288999876
 20
328.680190282500007
 30
0.0
 40
6.126962589911475
 50
291.1341228318000276
 51
68.8658771682000008
  0
POLYLINE
  5
22E
  8
0
  6
CONTINUOUS
 62
     7
 66
     1
 10
0.0
 20
0.0
 30
0.0
 70
   128
  0
VERTEX
  5
583
  8
0
  6
CONTINUOUS
 62
     7
 10
710.8367439196000532
 20
336.844271400699995
 30
0.0
  0
VERTEX
  5
584
  8
0
  6
CONTINUOUS
 62
     7
 10
709.5186704761000556
 20
336.0047392339999988
 30
0.0
  0
VERTEX
  5
585
  8
0
  6
CONTINUOUS
 62
     7
 10
708.3494872972997882
 20
335.0946676569000147
 30
0.0
  0
VERTEX
  5
586
  8
0
  6
CONTINUOUS
 62
     7
 10
707.3404542563998803
 20
334.1228211562000183
 30
0.0
  0
VERTEX
  5
587
  8
0
  6
CONTINUOUS
 62
     7
 10
706.5012888930999679
 20
333.0985591448999799
 30
0.0
  0
VERTEX
  5
588
  8
0
  6
CONTINUOUS
 62
     7
 10
705.8400728286999311
 20
332.0317458261999946
 30
0.0
  0
VERTEX
  5
589
  8
0
  6
CONTINUOUS
 62
     7
 10
705.363173935299983
 20
330.9326551954000024
 30
0.0
  0
VERTEX
  5
58A
  8
0
  6
CONTINUOUS
 62
     7
 10
705.0751850098999967
 20
329.811872096199977
 30
0.0
  0
VERTEX
  5
58B
  8
0
  6
CONTINUOUS
 62
     7
 10
704.978879543299854
 20
328.680190282500007
 30
0.0
  0
VERTEX
  5
58C
  8
0
  6
CONTINUOUS
 62
     7
 10
705.0751850098999967
 20
327.5485084687999802
 30
0.0
  0
VERTEX
  5
58D
  8
0
  6
CONTINUOUS
 62
     7
 10
705.363173935299983
 20
326.4277253696000116
 30
0.0
  0
VERTEX
  5
58E
  8
0
  6
CONTINUOUS
 62
     7
 10
705.8400728286999311
 20
325.3286347388000195
 30
0.0
  0
VERTEX
  5
58F
  8
0
  6
CONTINUOUS
 62
     7
 10
706.5012888930999679
 20
324.2618214199999898
 30
0.0
  0
VERTEX
  5
590
  8
0
  6
CONTINUOUS
 62
     7
 10
707.3404542563998803
 20
323.2375594087000081
 30
0.0
  0
VERTEX
  5
591
  8
0
  6
CONTINUOUS
 62
     7
 10
708.3494872972997882
 20
322.2657129080000118
 30
0.0
  0
VERTEX
  5
592
  8
0
  6
CONTINUOUS
 62
     7
 10
709.5186704761000556
 20
321.3556413309000277
 30
0.0
  0
VERTEX
  5
593
  8
0
  6
CONTINUOUS
 62
     7
 10
710.8367439196000532
 20
320.5161091643000191
 30
0.0
  0
SEQEND
  5
594
  8
0
  6
CONTINUOUS
 62
     7
  0
ARC
  5
22F
  8
0
  6
CONTINUOUS
 62
     7
 10
717.2884754899999962
 20
328.680190282500007
 30
0.0
 40
6.126962589911475
 50
111.1341228317999992
 51
248.8658771682000008
  0
ARC
  5
230
  8
0
  6
CONTINUOUS
 62
     7
 10
714.9880207930998495
 20
262.7219712457999776
 30
0.0
 40
10.0587855698754201
 50
185.6947992511998962
 51
245.6253417064000075
  0
LINE
  5
231
  8
0
  6
CONTINUOUS
 62
     7
 10
890.4333612190998792
 20
298.4681802426999866
 30
0.0
 11
865.6931289995000043
 21
312.750412297299988
 31
0.0
  0
LINE
  5
232
  8
0
  6
CONTINUOUS
 62
     7
 10
865.6931289995000043
 20
312.750412297299988
 30
0.0
 11
865.6931289995000043
 21
306.2180858021999939
 31
0.0
  0
LINE
  5
233
  8
0
  6
CONTINUOUS
 62
     7
 10
865.6931289995000043
 20
306.2180858021999939
 30
0.0
 11
833.8733238460998791
 21
324.5872683182000173
 31
0.0
  0
LINE
  5
234
  8
0
  6
CONTINUOUS
 62
     7
 10
865.6931289995000043
 20
373.1744323767999845
 30
0.0
 11
833.8733238460998791
 21
391.543614892800008
 31
0.0
  0
LINE
  5
235
  8
0
  6
CONTINUOUS
 62
     7
 10
865.6931289995000043
 20
373.1744323767999845
 30
0.0
 11
865.6931289995000043
 21
378.0736772481000116
 31
0.0
  0
LINE
  5
236
  8
0
  6
CONTINUOUS
 62
     7
 10
865.6931289995000043
 20
378.0736772481000116
 30
0.0
 11
901.0484680588000401
 21
357.6634744525999849
 31
0.0
  0
LINE
  5
237
  8
0
  6
CONTINUOUS
 62
     7
 10
901.0484680588000401
 20
357.6634744525999849
 30
0.0
 11
901.0484680588000401
 21
352.7642295813000146
 31
0.0
  0
LINE
  5
238
  8
0
  6
CONTINUOUS
 62
     7
 10
932.8682732122000516
 20
334.3950470652000035
 30
0.0
 11
901.0484680588000401
 21
352.7642295813000146
 31
0.0
  0
LINE
  5
239
  8
0
  6
CONTINUOUS
 62
     7
 10
814.074333972799991
 20
324.5872683182000173
 30
0.0
 11
782.2545288193999795
 21
306.2180858021999939
 31
0.0
  0
LINE
  5
23A
  8
0
  6
CONTINUOUS
 62
     7
 10
782.2545288193999795
 20
306.2180858021999939
 30
0.0
 11
782.2545288193999795
 21
312.750412297299988
 31
0.0
  0
LINE
  5
23B
  8
0
  6
CONTINUOUS
 62
     7
 10
782.2545288193999795
 20
312.750412297299988
 30
0.0
 11
757.5142965997999909
 21
298.4681802426999866
 31
0.0
  0
LINE
  5
23C
  8
0
  6
CONTINUOUS
 62
     7
 10
746.8991897600999437
 20
352.7642295813000146
 30
0.0
 11
715.0793846066999322
 21
334.3950470652000035
 31
0.0
  0
LINE
  5
23D
  8
0
  6
CONTINUOUS
 62
     7
 10
746.8991897600999437
 20
352.7642295813000146
 30
0.0
 11
746.8991897600999437
 21
357.6634744525999849
 31
0.0
  0
LINE
  5
23E
  8
0
  6
CONTINUOUS
 62
     7
 10
746.8991897600999437
 20
357.6634744525999849
 30
0.0
 11
782.2545288193999795
 21
378.0736772481000116
 31
0.0
  0
LINE
  5
23F
  8
0
  6
CONTINUOUS
 62
     7
 10
782.2545288193999795
 20
378.0736772481000116
 30
0.0
 11
782.2545288193999795
 21
373.1744323767999845
 31
0.0
  0
LINE
  5
240
  8
0
  6
CONTINUOUS
 62
     7
 10
814.074333972799991
 20
391.543614892800008
 30
0.0
 11
782.2545288193999795
 21
373.1744323767999845
 31
0.0
  0
LINE
  5
241
  8
0
  6
CONTINUOUS
 62
     7
 10
937.1109138992999306
 20
336.844271400699995
 30
0.0
 11
905.2911087458999191
 21
355.2134539167000185
 31
0.0
  0
LINE
  5
242
  8
0
  6
CONTINUOUS
 62
     7
 10
901.0484680588000401
 20
352.7642295813000146
 30
0.0
 11
905.2911087458999191
 21
355.2134539167000185
 31
0.0
  0
LINE
  5
243
  8
0
  6
CONTINUOUS
 62
     7
 10
742.656549072999951
 20
355.2134539167000185
 30
0.0
 11
710.8367439196000532
 21
336.844271400699995
 31
0.0
  0
LINE
  5
244
  8
0
  6
CONTINUOUS
 62
     7
 10
742.656549072999951
 20
355.2134539167000185
 30
0.0
 11
746.8991897600999437
 21
352.7642295813000146
 31
0.0
  0
LINE
  5
245
  8
0
  6
CONTINUOUS
 62
     7
 10
901.0484680588000401
 20
357.6634744525999849
 30
0.0
 11
905.2911087458999191
 21
360.1126987880001025
 31
0.0
  0
LINE
  5
246
  8
0
  6
CONTINUOUS
 62
     7
 10
865.6931289995000043
 20
378.0736772481000116
 30
0.0
 11
869.9357696865999969
 21
380.5229015836000031
 31
0.0
  0
LINE
  5
247
  8
0
  6
CONTINUOUS
 62
     7
 10
869.9357696865999969
 20
380.5229015836000031
 30
0.0
 11
905.2911087458999191
 21
360.1126987880001025
 31
0.0
  0
LINE
  5
248
  8
0
  6
CONTINUOUS
 62
     7
 10
905.2911087458999191
 20
360.1126987880001025
 30
0.0
 11
905.2911087458999191
 21
355.2134539167000185
 31
0.0
  0
LINE
  5
249
  8
0
  6
CONTINUOUS
 62
     7
 10
746.8991897600999437
 20
357.6634744525999849
 30
0.0
 11
742.656549072999951
 21
360.1126987880001025
 31
0.0
  0
LINE
  5
24A
  8
0
  6
CONTINUOUS
 62
     7
 10
742.656549072999951
 20
355.2134539167000185
 30
0.0
 11
742.656549072999951
 21
360.1126987880001025
 31
0.0
  0
LINE
  5
24B
  8
0
  6
CONTINUOUS
 62
     7
 10
782.2545288193999795
 20
378.0736772481000116
 30
0.0
 11
778.0118881322999869
 21
380.5229015836000031
 31
0.0
  0
LINE
  5
24C
  8
0
  6
CONTINUOUS
 62
     7
 10
742.656549072999951
 20
360.1126987880001025
 30
0.0
 11
778.0118881322999869
 21
380.5229015836000031
 31
0.0
  0
LINE
  5
24D
  8
0
  6
CONTINUOUS
 62
     7
 10
865.6931289995000043
 20
378.0728810478000241
 30
0.0
 11
838.1159645332000991
 21
393.9928392282999994
 31
0.0
  0
LINE
  5
24E
  8
0
  6
CONTINUOUS
 62
     7
 10
809.831693285700112
 20
393.9928392282999994
 30
0.0
 11
782.2545288193999795
 21
378.0728810478000241
 31
0.0
  0
ARC
  5
24F
  8
0
  6
CONTINUOUS
 62
     7
 10
823.9738289094001402
 20
366.6986175292000212
 30
0.0
 40
30.7404381582342694
 50
62.6096722365999909
 51
117.3903277633999949
  0
ARC
  5
250
  8
0
  6
CONTINUOUS
 62
     7
 10
823.9738289094001402
 20
372.5071441344001073
 30
0.0
 40
21.4566357786227115
 50
62.5243123924999935
 51
117.4756876075000065
  0
ARC
  5
251
  8
0
  6
CONTINUOUS
 62
     7
 10
823.9738289094001402
 20
305.550797559800003
 30
0.0
 40
21.4566357786229105
 50
62.5243123924999935
 51
117.4756876075000065
  0
LINE
  5
252
  8
0
  6
CONTINUOUS
 62
     7
 10
865.6931289995000043
 20
306.2180858021999939
 30
0.0
 11
869.9357696865999969
 21
308.6673101376999853
 31
0.0
  0
LINE
  5
253
  8
0
  6
CONTINUOUS
 62
     7
 10
869.9357696865999969
 20
310.3011879617999966
 30
0.0
 11
869.9357696865999969
 21
308.6673101376999853
 31
0.0
  0
LINE
  5
254
  8
0
  6
CONTINUOUS
 62
     7
 10
778.0118881322999869
 20
308.6673101376999853
 30
0.0
 11
782.2545288193999795
 21
306.2180858021999939
 31
0.0
  0
LINE
  5
255
  8
0
  6
CONTINUOUS
 62
     7
 10
778.0118881322999869
 20
310.3011879617999966
 30
0.0
 11
778.0118881322999869
 21
308.6673101376999853
 31
0.0
  0
LINE
  5
256
  8
0
  6
PHANTOM
 62
     8
 10
809.831693285700112
 20
263.367541336699901
 30
0.0
 11
809.831693285700112
 21
196.411194762000008
 31
0.0
  0
LINE
  5
257
  8
0
  6
PHANTOM
 62
     8
 10
838.1159645332000991
 20
263.367541336699901
 30
0.0
 11
838.1159645332000991
 21
196.411194762000008
 31
0.0
  0
LINE
  5
258
  8
0
  6
PHANTOM
 62
     8
 10
809.831693285700112
 20
263.367541336699901
 30
0.0
 11
814.074333972799991
 21
265.8167656721000185
 31
0.0
  0
LINE
  5
259
  8
0
  6
PHANTOM
 62
     8
 10
833.8733238460998791
 20
265.8167656721000185
 30
0.0
 11
838.1159645332000991
 21
263.367541336699901
 31
0.0
  0
LINE
  5
25A
  8
0
  6
PHANTOM
 62
     8
 10
937.1109138992999306
 20
320.5161091643000191
 30
0.0
 11
937.1109138992999306
 21
253.5597625896000125
 31
0.0
  0
LINE
  5
25B
  8
0
  6
PHANTOM
 62
     8
 10
937.1109138992999306
 20
320.5161091643000191
 30
0.0
 11
932.8682732122000516
 21
322.9653334997000229
 31
0.0
  0
LINE
  5
25C
  8
0
  6
PHANTOM
 62
     8
 10
715.0793846066999322
 20
322.9653334997000229
 30
0.0
 11
710.8367439196000532
 21
320.5161091643000191
 31
0.0
  0
LINE
  5
25D
  8
0
  6
PHANTOM
 62
     8
 10
710.8367439196000532
 20
320.5161091643000191
 30
0.0
 11
710.8367439196000532
 21
253.5597625896000125
 31
0.0
  0
LINE
  5
25E
  8
0
  6
PHANTOM
 62
     8
 10
932.8682732122000516
 20
334.3950470652000035
 30
0.0
 11
937.1109138992999306
 21
336.844271400699995
 31
0.0
  0
LINE
  5
25F
  8
0
  6
PHANTOM
 62
     8
 10
710.8367439196000532
 20
336.844271400699995
 30
0.0
 11
715.0793846066999322
 21
334.3950470652000035
 31
0.0
  0
LINE
  5
260
  8
0
  6
PHANTOM
 62
     8
 10
932.8682732122000516
 20
334.3950470652000035
 30
0.0
 11
932.8682732122000516
 21
322.9653334997000229
 31
0.0
  0
LINE
  5
261
  8
0
  6
PHANTOM
 62
     8
 10
715.0793846066999322
 20
334.3950470652000035
 30
0.0
 11
715.0793846066999322
 21
322.9653334997000229
 31
0.0
  0
LINE
  5
262
  8
0
  6
PHANTOM
 62
     8
 10
833.8733238460998791
 20
391.543614892800008
 30
0.0
 11
833.8733238460998791
 21
324.5872683182000173
 31
0.0
  0
LINE
  5
263
  8
0
  6
PHANTOM
 62
     8
 10
814.074333972799991
 20
391.543614892800008
 30
0.0
 11
814.074333972799991
 21
324.5872683182000173
 31
0.0
  0
LINE
  5
264
  8
0
  6
PHANTOM
 62
     8
 10
838.1159645332000991
 20
393.9928392282999994
 30
0.0
 11
833.8733238460998791
 21
391.543614892800008
 31
0.0
  0
LINE
  5
265
  8
0
  6
PHANTOM
 62
     8
 10
814.074333972799991
 20
391.543614892800008
 30
0.0
 11
809.831693285700112
 21
393.9928392282999994
 31
0.0
  0
INSERT
  5
326
  8
AM_5
  2
*S12
 10
0.0
 20
0.0
 30
0.0
  0
ENDSEC
  0
EOF
