  0
SECTION
  2
HEADER
  9
$ACADVER
  1
AC1009
  9
$INSBASE
 10
0.0
 20
0.0
 30
0.0
  9
$EXTMIN
 10
-0.0000000000000555
 20
0.0
 30
0.0
  9
$EXTMAX
 10
420.0
 20
297.0
 30
0.0
  9
$LIMMIN
 10
0.0
 20
0.0
  9
$LIMMAX
 10
420.0
 20
297.0
  9
$ORTHOMODE
 70
     0
  9
$REGENMODE
 70
     1
  9
$FILLMODE
 70
     1
  9
$QTEXTMODE
 70
     0
  9
$MIRRTEXT
 70
     1
  9
$DRAGMODE
 70
     2
  9
$LTSCALE
 40
1.0
  9
$OSMODE
 70
    37
  9
$ATTMODE
 70
     1
  9
$TEXTSIZE
 40
3.5
  9
$TRACEWID
 40
1.0
  9
$TEXTSTYLE
  7
STANDARD
  9
$CLAYER
  8
0
  9
$CELTYPE
  6
BYLAYER
  9
$CECOLOR
 62
   256
  9
$DIMSCALE
 40
1.0
  9
$DIMASZ
 40
3.302
  9
$DIMEXO
 40
1.0
  9
$DIMDLI
 40
3.75
  9
$DIMRND
 40
0.0
  9
$DIMDLE
 40
0.0
  9
$DIMEXE
 40
1.0
  9
$DIMTP
 40
0.0
  9
$DIMTM
 40
0.0
  9
$DIMTXT
 40
3.5
  9
$DIMCEN
 40
2.5
  9
$DIMTSZ
 40
0.0
  9
$DIMTOL
 70
     0
  9
$DIMLIM
 70
     0
  9
$DIMTIH
 70
     1
  9
$DIMTOH
 70
     1
  9
$DIMSE1
 70
     0
  9
$DIMSE2
 70
     0
  9
$DIMTAD
 70
     1
  9
$DIMZIN
 70
     1
  9
$DIMBLK
  1

  9
$DIMASO
 70
     1
  9
$DIMSHO
 70
     1
  9
$DIMPOST
  1

  9
$DIMAPOST
  1

  9
$DIMALT
 70
     0
  9
$DIMALTD
 70
     3
  9
$DIMALTF
 40
0.0393700787
  9
$DIMLFAC
 40
1.0
  9
$DIMTOFL
 70
     1
  9
$DIMTVP
 40
0.0
  9
$DIMTIX
 70
     0
  9
$DIMSOXD
 70
     0
  9
$DIMSAH
 70
     0
  9
$DIMBLK1
  1

  9
$DIMBLK2
  1

  9
$DIMSTYLE
  2
ISO-25
  9
$DIMCLRD
 70
     0
  9
$DIMCLRE
 70
     0
  9
$DIMCLRT
 70
     0
  9
$DIMTFAC
 40
1.0
  9
$DIMGAP
 40
1.524
  9
$LUNITS
 70
     2
  9
$LUPREC
 70
     2
  9
$SKETCHINC
 40
1.0
  9
$FILLETRAD
 40
10.0
  9
$AUNITS
 70
     0
  9
$AUPREC
 70
     2
  9
$MENU
  1
.
  9
$ELEVATION
 40
0.0
  9
$PELEVATION
 40
0.0
  9
$THICKNESS
 40
0.0
  9
$LIMCHECK
 70
     0
  9
$BLIPMODE
 70
     0
  9
$CHAMFERA
 40
0.0
  9
$CHAMFERB
 40
0.0
  9
$SKPOLY
 70
     0
  9
$TDCREATE
 40
2459583.9305787039920688
  9
$TDUPDATE
 40
2459584.5212037041783333
  9
$TDINDWG
 40
0.0198032523
  9
$TDUSRTIMER
 40
0.0198032523
  9
$USRTIMER
 70
     1
  9
$ANGBASE
 50
0.0
  9
$ANGDIR
 70
     0
  9
$PDMODE
 70
     0
  9
$PDSIZE
 40
-1.0
  9
$PLINEWID
 40
0.0
  9
$COORDS
 70
     1
  9
$SPLFRAME
 70
     0
  9
$SPLINETYPE
 70
     6
  9
$SPLINESEGS
 70
     8
  9
$ATTDIA
 70
     1
  9
$ATTREQ
 70
     1
  9
$HANDLING
 70
     1
  9
$HANDSEED
  5
40B
  9
$SURFTAB1
 70
     6
  9
$SURFTAB2
 70
     6
  9
$SURFTYPE
 70
     6
  9
$SURFU
 70
     6
  9
$SURFV
 70
     6
  9
$UCSNAME
  2

  9
$UCSORG
 10
0.0
 20
0.0
 30
0.0
  9
$UCSXDIR
 10
1.0
 20
0.0
 30
0.0
  9
$UCSYDIR
 10
0.0
 20
1.0
 30
0.0
  9
$PUCSNAME
  2

  9
$PUCSORG
 10
0.0
 20
0.0
 30
0.0
  9
$PUCSXDIR
 10
1.0
 20
0.0
 30
0.0
  9
$PUCSYDIR
 10
0.0
 20
1.0
 30
0.0
  9
$USERI1
 70
     0
  9
$USERI2
 70
     0
  9
$USERI3
 70
     0
  9
$USERI4
 70
     0
  9
$USERI5
 70
     0
  9
$USERR1
 40
0.0
  9
$USERR2
 40
0.0
  9
$USERR3
 40
0.0
  9
$USERR4
 40
0.0
  9
$USERR5
 40
0.0
  9
$WORLDVIEW
 70
     1
  9
$SHADEDGE
 70
     3
  9
$SHADEDIF
 70
    70
  9
$TILEMODE
 70
     1
  9
$MAXACTVP
 70
    64
  9
$PLIMCHECK
 70
     0
  9
$PEXTMIN
 10
1.0000000000000000E+20
 20
1.0000000000000000E+20
 30
1.0000000000000000E+20
  9
$PEXTMAX
 10
-1.0000000000000000E+20
 20
-1.0000000000000000E+20
 30
-1.0000000000000000E+20
  9
$PLIMMIN
 10
0.0
 20
0.0
  9
$PLIMMAX
 10
420.0
 20
297.0
  9
$UNITMODE
 70
     0
  9
$VISRETAIN
 70
     1
  9
$PLINEGEN
 70
     0
  9
$PSLTSCALE
 70
     1
  0
ENDSEC
  0
SECTION
  2
TABLES
  0
TABLE
  2
VPORT
 70
     1
  0
VPORT
  2
*ACTIVE
 70
     0
 10
0.0
 20
0.0
 11
1.0
 21
1.0
 12
443.7832521081065238
 22
121.2233897265783042
 13
0.0
 23
0.0
 14
10.0
 24
10.0
 15
10.0
 25
10.0
 16
0.0
 26
0.0
 36
1.0
 17
0.0
 27
0.0
 37
0.0
 40
307.3719716282798231
 41
2.4830729166666661
 42
50.0
 43
0.0
 44
0.0
 50
0.0
 51
0.0
 71
     0
 72
  2000
 73
     1
 74
     3
 75
     0
 76
     0
 77
     0
 78
     0
  0
ENDTAB
  0
TABLE
  2
LTYPE
 70
    18
  0
LTYPE
  2
CONTINUOUS
 70
     0
  3
Solid line
 72
    65
 73
     0
 40
0.0
  0
LTYPE
  2
HIDDEN
 70
     0
  3
Hidden __ __ __ __ __ __ __ __ __ __ __ __ __ __
 72
    65
 73
     2
 40
1.905
 49
1.27
 49
-0.635
  0
LTYPE
  2
PHANTOM
 70
     0
  3
Phantom ______  __  __  ______  __  __  ______
 72
    65
 73
     6
 40
12.6999999999999993
 49
6.3499999999999988
 49
-1.27
 49
1.27
 49
-1.27
 49
1.27
 49
-1.27
  0
LTYPE
  2
CENTER
 70
     0
  3
Center ____ _ ____ _ ____ _ ____ _ ____ _ ____
 72
    65
 73
     4
 40
10.1600000000000001
 49
6.3499999999999988
 49
-1.27
 49
1.27
 49
-1.27
  0
LTYPE
  2
CENTERX2
 70
     0
  3
Center (2x) ________  __  ________  __  _____
 72
    65
 73
     4
 40
20.3200000000000003
 49
12.6999999999999993
 49
-2.54
 49
2.54
 49
-2.54
  0
LTYPE
  2
DOT2
 70
     0
  3
Dot (.5x) ........................................
 72
    65
 73
     2
 40
0.635
 49
0.0
 49
-0.635
  0
LTYPE
  2
PHANTOM2
 70
     0
  3
Phantom (.5x) ___ _ _ ___ _ _ ___ _ _ ___ _ _
 72
    65
 73
     6
 40
31.75
 49
15.875
 49
-3.1749999999999989
 49
3.1749999999999989
 49
-3.1749999999999989
 49
3.1749999999999989
 49
-3.1749999999999989
  0
LTYPE
  2
AM_ISO02W050
 70
     0
  3
__ __ __ __ __ __ __ __ __ __ __ __ __ __ __
 72
    65
 73
     2
 40
7.5
 49
6.0
 49
-1.5
  0
LTYPE
  2
AM_ISO08W050
 70
     0
  3
____ . ____ . ____ . ____ . ____ . ____ . ____
 72
    65
 73
     4
 40
18.0
 49
12.0
 49
-1.5
 49
3.0
 49
-1.5
  0
LTYPE
  2
AM_ISO09W050
 70
     0
  3
_____ . . _____ . . _____ . . ____ .. ____
 72
    65
 73
     6
 40
22.5
 49
12.0
 49
-1.5
 49
3.0
 49
-1.5
 49
3.0
 49
-1.5
  0
LTYPE
  2
AMCONSTR
 70
     0
  3
_______________________
 72
    65
 73
     2
 40
9999.0
 49
9999.0
 49
0.0
  0
LTYPE
  2
AM_ISO08W050X2
 70
     0
  3
__ . __ . __ . __ . __ . __
 72
    65
 73
     4
 40
9.0
 49
6.0
 49
-0.75
 49
1.5
 49
-0.75
  0
LTYPE
  2
AM_ISO02W050X2
 70
     0
  3
 _ _ _ _ _ _ _ _ _ _ _ _
 72
    65
 73
     2
 40
3.75
 49
3.0
 49
-0.75
  0
LTYPE
  2
AMZIGZAG
 70
     0
  3
/\/-/\/-/\/-/\/-/\/-/\/
 72
    65
 73
     2
 40
11.0000999999999998
 49
0.0001
 49
-11.0
  0
LTYPE
  2
ACISOWELD
 70
     0
  3
_ _ _ _ _
 72
    65
 73
     2
 40
2.0
 49
2.0
 49
-1.0
  0
LTYPE
  2
ACISOTGL
 70
     0
  3
_ _ _ _ _
 72
    65
 73
     2
 40
3.0
 49
2.0
 49
-1.0
  0
LTYPE
  2
ACISOTGB
 70
     0
  3
__ . . __ . .
 72
    65
 73
     6
 40
9.0
 49
4.0
 49
-1.0
 49
1.0
 49
-1.0
 49
1.0
 49
-1.0
  0
ENDTAB
  0
TABLE
  2
LAYER
 70
     6
  0
LAYER
  2
0
 70
     0
 62
     7
  6
CONTINUOUS
  0
LAYER
  2
BORDER
 70
     0
 62
     7
  6
CONTINUOUS
  0
LAYER
  2
TRIM
 70
     0
 62
     7
  6
CONTINUOUS
  0
LAYER
  2
TEXT
 70
     0
 62
     7
  6
CONTINUOUS
  0
LAYER
  2
DIMENSIONS
 70
     0
 62
     5
  6
CONTINUOUS
  0
LAYER
  2
AM_5
 70
     0
 62
     3
  6
CONTINUOUS
  0
ENDTAB
  0
TABLE
  2
STYLE
 70
     9
  0
STYLE
  2
STANDARD
 70
     0
 40
0.0
 41
1.0
 50
0.0
 71
     0
 42
3.5
  3
txt
  4

  0
STYLE
  2
SLDTEXTSTYLE0
 70
     0
 40
0.0
 41
0.605
 50
0.0
 71
     0
 42
3.5
  3
TXT
  4

  0
STYLE
  2
SLDTEXTSTYLE1
 70
     0
 40
0.0
 41
0.605
 50
0.0
 71
     0
 42
3.5
  3
TXT
  4
bigfont
  0
STYLE
  2
SLDTEXTSTYLE2
 70
     0
 40
0.0
 41
0.75
 50
0.0
 71
     0
 42
3.5
  3
TXT
  4

  0
STYLE
  2
SLDTEXTSTYLE3
 70
     0
 40
0.0
 41
0.57
 50
0.0
 71
     0
 42
3.5
  3
TXT
  4

  0
STYLE
  2

 70
     1
 40
0.0
 41
1.0
 50
0.0
 71
     0
 42
3.5
  3
genltshp.shx
  4

  0
STYLE
  2
ACISOTS
 70
     0
 40
0.0
 41
1.0
 50
0.0
 71
     0
 42
3.5
  3
isocp.shx
  4

  0
STYLE
  2
ACISOGDT
 70
     0
 40
0.0
 41
1.0
 50
0.0
 71
     0
 42
3.5
  3
amgdt.shx
  4

  0
STYLE
  2
MtXpl_MS_PGothic
 70
     0
 40
0.0
 41
1.0
 50
0.0
 71
     0
 42
3.5
  3
txt
  4

  0
ENDTAB
  0
TABLE
  2
VIEW
 70
     0
  0
ENDTAB
  0
TABLE
  2
UCS
 70
     0
  0
ENDTAB
  0
TABLE
  2
APPID
 70
    11
  0
APPID
  2
ACAD
 70
     0
  0
APPID
  2
MCAD_NO_VIS
 70
     0
  0
APPID
  2
ACAD_TEMP_GRAPHIC
 70
     0
  0
APPID
  2
ACATTRIBSERVICES
 70
     0
  0
APPID
  2
DESIGNERASSEMBLIES
 70
     0
  0
APPID
  2
ACAD_DSTYLE_DIMJAG
 70
     0
  0
APPID
  2
ACAD_DSTYLE_DIMBREAK
 70
     0
  0
APPID
  2
ACAD_NAV_VCDISPLAY
 70
     0
  0
APPID
  2
ACAECLAYERSTANDARD
 70
     0
  0
APPID
  2
ACAD_EXEMPT_FROM_CAD_STANDARDS
 70
     0
  0
APPID
  2
ACAD_MLEADERVER
 70
     0
  0
ENDTAB
  0
TABLE
  2
DIMSTYLE
 70
    10
  0
DIMSTYLE
  2
ISO-25
 70
     0
  3

  4

  5

  6

  7

 40
1.0
 41
2.5
 42
0.625
 43
3.75
 44
1.25
 45
0.0
 46
0.0
 47
0.0
 48
0.0
140
2.5
141
2.5
142
0.0
143
0.0393700787
144
1.0
145
0.0
146
1.0
147
0.625
 71
     0
 72
     0
 73
     0
 74
     0
 75
     0
 76
     0
 77
     1
 78
     8
170
     0
171
     3
172
     1
173
     0
174
     0
175
     0
176
     0
177
     0
178
     0
  0
DIMSTYLE
  2
SLDDIMSTYLE0
 70
     0
  3

  4

  5

  6

  7

 40
1.0
 41
3.302
 42
0.0625
 43
0.38
 44
0.0
 45
0.000000001
 46
0.0
 47
0.0
 48
0.0
140
3.5
141
0.09
142
0.0
143
25.3999999999999986
144
1.0
145
0.0
146
1.0
147
0.875
 71
     0
 72
     0
 73
     0
 74
     0
 75
     0
 76
     0
 77
     1
 78
     4
170
     0
171
     2
172
     0
173
     1
174
     0
175
     0
176
     0
177
     0
178
     0
  0
DIMSTYLE
  2
SLDDIMSTYLE1
 70
     0
  3

  4

  5

  6
NONE
  7

 40
1.0
 41
3.302
 42
0.0625
 43
0.38
 44
0.0
 45
0.000000001
 46
0.0
 47
0.0
 48
0.0
140
3.5
141
0.0
142
0.0
143
25.3999999999999986
144
1.0
145
0.0
146
1.0
147
0.875
 71
     0
 72
     0
 73
     1
 74
     1
 75
     0
 76
     0
 77
     0
 78
     4
170
     0
171
     2
172
     1
173
     1
174
     0
175
     0
176
     0
177
     0
178
     0
  0
DIMSTYLE
  2
AM_ISO
 70
     0
  3

  4
"
  5

  6

  7

 40
1.0
 41
3.5
 42
1.0
 43
10.0
 44
1.0
 45
0.0
 46
0.0
 47
0.1
 48
0.1
140
3.5
141
0.0
142
0.0
143
0.0393701
144
1.0
145
0.0
146
0.71
147
1.5
 71
     0
 72
     0
 73
     0
 74
     0
 75
     0
 76
     0
 77
     1
 78
     8
170
     0
171
     2
172
     1
173
     0
174
     0
175
     0
176
   256
177
   256
178
     2
  0
DIMSTYLE
  2
AM_ISO$3
 70
     0
  3

  4
"
  5

  6

  7

 40
1.0
 41
3.5
 42
1.0
 43
10.0
 44
1.0
 45
0.0
 46
0.0
 47
0.1
 48
0.1
140
3.5
141
0.0
142
0.0
143
0.0393701
144
1.0
145
0.0
146
0.71
147
1.5
 71
     0
 72
     0
 73
     0
 74
     1
 75
     0
 76
     0
 77
     1
 78
     8
170
     0
171
     2
172
     0
173
     0
174
     0
175
     0
176
   256
177
   256
178
     2
  0
DIMSTYLE
  2
AM_ISO$4
 70
     0
  3

  4
"
  5

  6

  7

 40
1.0
 41
3.5
 42
1.0
 43
10.0
 44
1.0
 45
0.0
 46
0.0
 47
0.1
 48
0.1
140
3.5
141
0.0
142
0.0
143
0.0393701
144
1.0
145
0.0
146
0.71
147
1.5
 71
     0
 72
     0
 73
     0
 74
     1
 75
     0
 76
     0
 77
     1
 78
     8
170
     0
171
     2
172
     0
173
     0
174
     0
175
     0
176
   256
177
   256
178
     2
  0
DIMSTYLE
  2
AM_ISO$6
 70
     0
  3

  4
"
  5

  6

  7

 40
1.0
 41
3.5
 42
1.0
 43
10.0
 44
1.0
 45
0.0
 46
0.0
 47
0.1
 48
0.1
140
3.5
141
0.0
142
0.0
143
0.0393701
144
1.0
145
0.0
146
0.71
147
1.5
 71
     0
 72
     0
 73
     0
 74
     0
 75
     0
 76
     0
 77
     0
 78
     8
170
     0
171
     2
172
     1
173
     0
174
     0
175
     0
176
   256
177
   256
178
     2
  0
DIMSTYLE
  2
AM_ISO$7
 70
     0
  3

  4
"
  5

  6

  7

 40
1.0
 41
3.5
 42
1.0
 43
10.0
 44
1.0
 45
0.0
 46
0.0
 47
0.1
 48
0.1
140
3.5
141
0.0
142
0.0
143
0.0393701
144
1.0
145
0.0
146
0.71
147
1.5
 71
     0
 72
     0
 73
     0
 74
     0
 75
     0
 76
     0
 77
     1
 78
     8
170
     0
171
     2
172
     1
173
     0
174
     0
175
     0
176
   256
177
   256
178
     2
  0
DIMSTYLE
  2
AM_ISO$SF
 70
     0
  3

  4
"
  5

  6

  7

 40
1.0
 41
3.5
 42
1.0
 43
10.0
 44
1.0
 45
0.0
 46
0.0
 47
0.1
 48
0.1
140
3.5
141
0.0
142
0.0
143
0.0393701
144
1.0
145
0.0
146
0.71
147
1.5
 71
     0
 72
     0
 73
     0
 74
     0
 75
     1
 76
     1
 77
     1
 78
     8
170
     0
171
     2
172
     1
173
     0
174
     0
175
     0
176
   256
177
   256
178
     2
  0
DIMSTYLE
  2
AM_ISO$SH
 70
     0
  3

  4
"
  5

  6
GENAXEH
  7

 40
1.0
 41
3.5
 42
1.0
 43
10.0
 44
1.0
 45
0.0
 46
0.0
 47
0.1
 48
0.1
140
3.5
141
0.0
142
0.0
143
0.0393701
144
2.0
145
0.0
146
0.71
147
1.5
 71
     0
 72
     0
 73
     0
 74
     0
 75
     1
 76
     1
 77
     1
 78
     8
170
     0
171
     2
172
     1
173
     1
174
     0
175
     0
176
   256
177
   256
178
     2
  0
ENDTAB
  0
ENDSEC
  0
SECTION
  2
BLOCKS
  0
BLOCK
  8
0
  2
$MODEL_SPACE
 70
     0
 10
0.0
 20
0.0
 30
0.0
  3
$MODEL_SPACE
  1

  0
ENDBLK
  5
21
  8
0
  0
BLOCK
 67
     1
  8
0
  2
$PAPER_SPACE
 70
     0
 10
0.0
 20
0.0
 30
0.0
  3
$PAPER_SPACE
  1

  0
ENDBLK
  5
1D
 67
     1
  8
0
  0
BLOCK
  8
0
  2
SW_NOTE_0
 70
     0
 10
0.0
 20
0.0
 30
0.0
  3
SW_NOTE_0
  1

  0
INSERT
  5
E6
  8
0
  2
*U47
 10
0.0
 20
0.0
 30
0.0
  0
INSERT
  5
E8
  8
0
  2
*U48
 10
0.0
 20
0.0
 30
0.0
  0
INSERT
  5
E9
  8
0
  2
*U49
 10
0.0
 20
0.0
 30
0.0
  0
INSERT
  5
EA
  8
0
  2
*U50
 10
0.0
 20
0.0
 30
0.0
  0
ENDBLK
  5
E5
  8
0
  0
BLOCK
  8
0
  2
SW_NOTE_1
 70
     0
 10
0.0
 20
0.0
 30
0.0
  3
SW_NOTE_1
  1

  0
INSERT
  5
105
  8
0
  2
*U72
 10
0.0
 20
0.0
 30
0.0
  0
INSERT
  5
106
  8
0
  2
*U73
 10
0.0
 20
0.0
 30
0.0
  0
ENDBLK
  5
104
  8
0
  0
BLOCK
  8
0
  2
_D
 70
     0
 10
0.0
 20
0.0
 30
0.0
  3
_D
  1

  0
SOLID
  5
130
  8
BORDER
 10
171.7525209231999952
 20
234.0167299164999974
 30
0.0
 11
175.0545209231999877
 21
233.5087299164999877
 31
0.0
 12
175.0545209231999877
 22
234.5247299165000072
 32
0.0
 13
175.0545209231999877
 23
234.5247299165000072
 33
0.0
  0
SOLID
  5
131
  8
BORDER
 10
261.7525209231999952
 20
234.0167299164999974
 30
0.0
 11
258.4505209231999743
 21
234.5247299165000072
 31
0.0
 12
258.4505209231999743
 22
233.5087299164999877
 32
0.0
 13
258.4505209231999743
 23
233.5087299164999877
 33
0.0
  0
LINE
  5
132
  8
BORDER
 10
171.7525209231999952
 20
215.0167299164999974
 30
0.0
 11
171.7525209231999952
 21
235.0167299164999974
 31
0.0
  0
LINE
  5
133
  8
BORDER
 10
261.7525209231999952
 20
215.0167299164999974
 30
0.0
 11
261.7525209231999952
 21
235.0167299164999974
 31
0.0
  0
LINE
  5
134
  8
BORDER
 10
171.7525209231999952
 20
234.0167299164999974
 30
0.0
 11
261.7525209231999952
 21
234.0167299164999974
 31
0.0
  0
INSERT
  5
135
  8
0
  2
*U79
 10
0.0
 20
0.0
 30
0.0
  0
ENDBLK
  5
12F
  8
0
  0
BLOCK
  8
0
  2
_D_1
 70
     0
 10
0.0
 20
0.0
 30
0.0
  3
_D_1
  1

  0
SOLID
  5
13A
  8
BORDER
 10
161.7525209231999952
 20
224.0167299164999974
 30
0.0
 11
161.2445209232000138
 21
220.7147299165000049
 31
0.0
 12
162.260520923200005
 22
220.7147299165000049
 32
0.0
 13
162.260520923200005
 23
220.7147299165000049
 33
0.0
  0
SOLID
  5
13B
  8
BORDER
 10
161.7525209231999952
 20
134.0167299164999974
 30
0.0
 11
162.260520923200005
 21
137.3187299164999899
 31
0.0
 12
161.2445209232000138
 22
137.3187299164999899
 32
0.0
 13
161.2445209232000138
 23
137.3187299164999899
 33
0.0
  0
LINE
  5
13C
  8
BORDER
 10
180.7525209231999952
 20
224.0167299164999974
 30
0.0
 11
160.7525209231999952
 21
224.0167299164999974
 31
0.0
  0
LINE
  5
13D
  8
BORDER
 10
180.7525209231999952
 20
134.0167299164999974
 30
0.0
 11
160.7525209231999952
 21
134.0167299164999974
 31
0.0
  0
LINE
  5
13E
  8
BORDER
 10
161.7525209231999952
 20
224.0167299164999974
 30
0.0
 11
161.7525209231999952
 21
134.0167299164999974
 31
0.0
  0
INSERT
  5
13F
  8
0
  2
*U80
 10
0.0
 20
0.0
 30
0.0
  0
ENDBLK
  5
139
  8
0
  0
BLOCK
  8
0
  2
_NONE
 70
     0
 10
0.0
 20
0.0
 30
0.0
  3
_NONE
  1

  0
ENDBLK
  5
144
  8
0
  0
BLOCK
  8
0
  2
_D_2
 70
     0
 10
0.0
 20
0.0
 30
0.0
  3
_D_2
  1

  0
SOLID
  5
148
  8
BORDER
 10
241.0461486474999901
 20
195.1089293427000086
 30
0.0
 11
244.130622958999993
 21
196.3923958290999963
 31
0.0
 12
243.6022064747000115
 22
197.2601700042999937
 32
0.0
 13
243.6022064747000115
 23
197.2601700042999937
 33
0.0
  0
LINE
  5
149
  8
BORDER
 10
241.0461486474999901
 20
195.1089293427000086
 30
0.0
 11
270.6966873484000189
 21
213.1641260355999918
 31
0.0
  0
LINE
  5
14A
  8
BORDER
 10
237.4588931989000002
 20
192.9245304902999862
 30
0.0
 11
241.0461486474999901
 21
195.1089293427000086
 31
0.0
  0
LINE
  5
14B
  8
BORDER
 10
270.6966873484000189
 20
213.1641260355999918
 30
0.0
 11
291.4410978275000161
 21
213.1641260355999918
 31
0.0
  0
INSERT
  5
14C
  8
0
  2
*U81
 10
0.0
 20
0.0
 30
0.0
  0
INSERT
  5
14D
  8
0
  2
*U82
 10
0.0
 20
0.0
 30
0.0
  0
INSERT
  5
14E
  8
0
  2
*U83
 10
0.0
 20
0.0
 30
0.0
  0
ENDBLK
  5
147
  8
0
  0
BLOCK
  8
0
  2
_D_3
 70
     0
 10
0.0
 20
0.0
 30
0.0
  3
_D_3
  1

  0
SOLID
  5
153
  8
BORDER
 10
217.4858393984000031
 20
151.6266997881999998
 30
0.0
 11
217.9687523185000089
 21
148.3209376807000126
 31
0.0
 12
218.9400605625999958
 22
148.6189583089999928
 32
0.0
 13
218.9400605625999958
 23
148.6189583089999928
 33
0.0
  0
LINE
  5
154
  8
BORDER
 10
217.4858393984000031
 20
151.6266997881999998
 30
0.0
 11
226.9581242017999898
 21
120.7546478394999951
 31
0.0
  0
LINE
  5
155
  8
BORDER
 10
216.0192024478999997
 20
156.4067600447000075
 30
0.0
 11
217.4858393984000031
 21
151.6266997881999998
 31
0.0
  0
LINE
  5
156
  8
BORDER
 10
226.9581242017999898
 20
120.7546478394999951
 30
0.0
 11
242.8754515923999975
 21
120.7546478394999951
 31
0.0
  0
INSERT
  5
157
  8
0
  2
*U84
 10
0.0
 20
0.0
 30
0.0
  0
INSERT
  5
158
  8
0
  2
*U85
 10
0.0
 20
0.0
 30
0.0
  0
ENDBLK
  5
152
  8
0
  0
BLOCK
  8
0
  2
SW_CENTERMARKSYMBOL_0
 70
     0
 10
0.0
 20
0.0
 30
0.0
  3
SW_CENTERMARKSYMBOL_0
  1

  0
LINE
  5
15C
  8
BORDER
 62
     0
 10
0.0
 20
0.0
 30
0.0
 11
0.0
 21
2.5
 31
0.0
  0
LINE
  5
15D
  8
BORDER
 62
     0
 10
0.0
 20
0.0
 30
0.0
 11
-2.5
 21
0.0
 31
0.0
  0
LINE
  5
15E
  8
BORDER
 62
     0
 10
0.0
 20
0.0
 30
0.0
 11
0.0
 21
-2.5
 31
0.0
  0
LINE
  5
15F
  8
BORDER
 62
     0
 10
0.0
 20
0.0
 30
0.0
 11
2.5
 21
0.0
 31
0.0
  0
LINE
  5
160
  8
BORDER
 62
     0
 10
0.0
 20
2.5
 30
0.0
 11
0.0
 21
4.5999999999999988
 31
0.0
  0
LINE
  5
161
  8
BORDER
 62
     0
 10
-2.5
 20
0.0
 30
0.0
 11
-4.5999999999999988
 21
0.0
 31
0.0
  0
LINE
  5
162
  8
BORDER
 62
     0
 10
0.0
 20
-2.5
 30
0.0
 11
0.0
 21
-4.5999999999999988
 31
0.0
  0
LINE
  5
163
  8
BORDER
 62
     0
 10
2.5
 20
0.0
 30
0.0
 11
4.5999999999999988
 21
0.0
 31
0.0
  0
ENDBLK
  5
15B
  8
0
  0
BLOCK
  8
0
  2
SW_CENTERMARKSYMBOL_1
 70
     0
 10
0.0
 20
0.0
 30
0.0
  3
SW_CENTERMARKSYMBOL_1
  1

  0
LINE
  5
168
  8
BORDER
 62
     0
 10
0.0
 20
0.0
 30
0.0
 11
0.0
 21
2.5
 31
0.0
  0
LINE
  5
169
  8
BORDER
 62
     0
 10
0.0
 20
0.0
 30
0.0
 11
-2.5
 21
0.0
 31
0.0
  0
LINE
  5
16A
  8
BORDER
 62
     0
 10
0.0
 20
0.0
 30
0.0
 11
0.0
 21
-2.5
 31
0.0
  0
LINE
  5
16B
  8
BORDER
 62
     0
 10
0.0
 20
0.0
 30
0.0
 11
2.5
 21
0.0
 31
0.0
  0
LINE
  5
16C
  8
BORDER
 62
     0
 10
0.0
 20
2.5
 30
0.0
 11
0.0
 21
4.5999999999999988
 31
0.0
  0
LINE
  5
16D
  8
BORDER
 62
     0
 10
-2.5
 20
0.0
 30
0.0
 11
-4.5999999999999988
 21
0.0
 31
0.0
  0
LINE
  5
16E
  8
BORDER
 62
     0
 10
0.0
 20
-2.5
 30
0.0
 11
0.0
 21
-4.5999999999999988
 31
0.0
  0
LINE
  5
16F
  8
BORDER
 62
     0
 10
2.5
 20
0.0
 30
0.0
 11
4.5999999999999988
 21
0.0
 31
0.0
  0
ENDBLK
  5
167
  8
0
  0
BLOCK
  8
0
  2
SW_CENTERMARKSYMBOL_2
 70
     0
 10
0.0
 20
0.0
 30
0.0
  3
SW_CENTERMARKSYMBOL_2
  1

  0
LINE
  5
174
  8
BORDER
 62
     0
 10
0.0
 20
0.0
 30
0.0
 11
0.0
 21
2.5
 31
0.0
  0
LINE
  5
175
  8
BORDER
 62
     0
 10
0.0
 20
0.0
 30
0.0
 11
-2.5
 21
0.0
 31
0.0
  0
LINE
  5
176
  8
BORDER
 62
     0
 10
0.0
 20
0.0
 30
0.0
 11
0.0
 21
-2.5
 31
0.0
  0
LINE
  5
177
  8
BORDER
 62
     0
 10
0.0
 20
0.0
 30
0.0
 11
2.5
 21
0.0
 31
0.0
  0
LINE
  5
178
  8
BORDER
 62
     0
 10
0.0
 20
2.5
 30
0.0
 11
0.0
 21
4.5999999999999988
 31
0.0
  0
LINE
  5
179
  8
BORDER
 62
     0
 10
-2.5
 20
0.0
 30
0.0
 11
-4.5999999999999988
 21
0.0
 31
0.0
  0
LINE
  5
17A
  8
BORDER
 62
     0
 10
0.0
 20
-2.5
 30
0.0
 11
0.0
 21
-4.5999999999999988
 31
0.0
  0
LINE
  5
17B
  8
BORDER
 62
     0
 10
2.5
 20
0.0
 30
0.0
 11
4.5999999999999988
 21
0.0
 31
0.0
  0
ENDBLK
  5
173
  8
0
  0
BLOCK
  8
0
  2
SW_CENTERMARKSYMBOL_3
 70
     0
 10
0.0
 20
0.0
 30
0.0
  3
SW_CENTERMARKSYMBOL_3
  1

  0
LINE
  5
180
  8
BORDER
 62
     0
 10
0.0
 20
0.0
 30
0.0
 11
0.0
 21
2.5
 31
0.0
  0
LINE
  5
181
  8
BORDER
 62
     0
 10
0.0
 20
0.0
 30
0.0
 11
-2.5
 21
0.0
 31
0.0
  0
LINE
  5
182
  8
BORDER
 62
     0
 10
0.0
 20
0.0
 30
0.0
 11
0.0
 21
-2.5
 31
0.0
  0
LINE
  5
183
  8
BORDER
 62
     0
 10
0.0
 20
0.0
 30
0.0
 11
2.5
 21
0.0
 31
0.0
  0
LINE
  5
184
  8
BORDER
 62
     0
 10
0.0
 20
2.5
 30
0.0
 11
0.0
 21
4.5999999999999988
 31
0.0
  0
LINE
  5
185
  8
BORDER
 62
     0
 10
-2.5
 20
0.0
 30
0.0
 11
-4.5999999999999988
 21
0.0
 31
0.0
  0
LINE
  5
186
  8
BORDER
 62
     0
 10
0.0
 20
-2.5
 30
0.0
 11
0.0
 21
-4.5999999999999988
 31
0.0
  0
LINE
  5
187
  8
BORDER
 62
     0
 10
2.5
 20
0.0
 30
0.0
 11
4.5999999999999988
 21
0.0
 31
0.0
  0
ENDBLK
  5
17F
  8
0
  0
BLOCK
  8
0
  2
SW_CENTERMARKSYMBOL_4
 70
     0
 10
0.0
 20
0.0
 30
0.0
  3
SW_CENTERMARKSYMBOL_4
  1

  0
LINE
  5
18C
  8
BORDER
 62
     0
 10
0.0
 20
0.0
 30
0.0
 11
0.0
 21
2.5
 31
0.0
  0
LINE
  5
18D
  8
BORDER
 62
     0
 10
0.0
 20
0.0
 30
0.0
 11
-2.5
 21
0.0
 31
0.0
  0
LINE
  5
18E
  8
BORDER
 62
     0
 10
0.0
 20
0.0
 30
0.0
 11
0.0
 21
-2.5
 31
0.0
  0
LINE
  5
18F
  8
BORDER
 62
     0
 10
0.0
 20
0.0
 30
0.0
 11
2.5
 21
0.0
 31
0.0
  0
LINE
  5
190
  8
BORDER
 62
     0
 10
0.0
 20
2.5
 30
0.0
 11
0.0
 21
5.0
 31
0.0
  0
LINE
  5
191
  8
BORDER
 62
     0
 10
-2.5
 20
0.0
 30
0.0
 11
-5.0
 21
0.0
 31
0.0
  0
LINE
  5
192
  8
BORDER
 62
     0
 10
0.0
 20
-2.5
 30
0.0
 11
0.0
 21
-5.0
 31
0.0
  0
LINE
  5
193
  8
BORDER
 62
     0
 10
2.5
 20
0.0
 30
0.0
 11
5.0
 21
0.0
 31
0.0
  0
ENDBLK
  5
18B
  8
0
  0
BLOCK
  8
0
  2
GENAXEH
 70
     0
 10
0.0
 20
0.0
 30
0.0
  3
GENAXEH
  1

  0
LINE
  5
22F
  8
0
 10
-1.0
 20
0.0
 30
0.0
 11
1.0
 21
0.0
 31
0.0
  0
ENDBLK
  5
231
  8
0
  0
BLOCK
  8
0
  2
*S16
 70
     1
 10
0.0
 20
0.0
 30
0.0
  3
*S16
  1

  0
LINE
  5
260
  8
AM_5
 10
308.3005897871613001
 20
195.0003049939377888
 30
0.0
 11
294.8839231204947282
 21
195.0003049939377888
 31
0.0
  0
LINE
  5
261
  8
AM_5
 10
294.8839231204947282
 20
195.0003049939377888
 30
0.0
 11
252.3710456994238029
 21
143.4673595318674018
 31
0.0
  0
TRACE
  5
262
  8
AM_5
  6
CONTINUOUS
 10
251.9210702290064887
 20
143.8385735551453877
 30
0.0
 11
252.8210211698412024
 21
143.0961455085893874
 31
0.0
 12
250.143761550846591
 22
140.7675066985638921
 32
0.0
 13
250.143761550846591
 23
140.7675066985638921
 33
0.0
  0
INSERT
  5
263
  8
0
  2
*U86
 10
0.0
 20
0.0
 30
0.0
  0
ENDBLK
  5
265
  8
0
  0
BLOCK
  8
0
  2
*U17
 70
     1
 10
0.0
 20
0.0
 30
0.0
  3
*U17
  1

  0
SOLID
  5
28E
  8
TRIM
  6
CONTINUOUS
 10
0.0000000000000555
 20
296.9999999999998863
 30
0.0
 11
-10.0
 21
291.9999999999998863
 31
0.0
 12
0.000000000000027
 22
291.9999999999998863
 32
0.0
 13
0.000000000000027
 23
291.9999999999998863
 33
0.0
210
0.0
220
0.0
230
-1.0
  0
SOLID
  5
28F
  8
TRIM
  6
CONTINUOUS
 10
0.0000000000000555
 20
296.9999999999998863
 30
0.0
 11
-9.9999999999999467
 21
296.9999999999998863
 31
0.0
 12
-10.0
 22
291.9999999999998863
 32
0.0
 13
-10.0
 23
291.9999999999998863
 33
0.0
210
0.0
220
0.0
230
-1.0
  0
SOLID
  5
290
  8
TRIM
  6
CONTINUOUS
 10
0.000000000000027
 20
291.9999999999998863
 30
0.0
 11
-5.0000000000000009
 21
286.9999999999998863
 31
0.0
 12
-0.0000000000000015
 22
286.9999999999998863
 32
0.0
 13
-0.0000000000000015
 23
286.9999999999998863
 33
0.0
210
0.0
220
0.0
230
-1.0
  0
SOLID
  5
291
  8
TRIM
  6
CONTINUOUS
 10
0.000000000000027
 20
291.9999999999998863
 30
0.0
 11
-5.0000000000000009
 21
291.9999999999998863
 31
0.0
 12
-5.0000000000000009
 22
286.9999999999998863
 32
0.0
 13
-5.0000000000000009
 23
286.9999999999998863
 33
0.0
210
0.0
220
0.0
230
-1.0
  0
LINE
  5
292
  8
TRIM
  6
CONTINUOUS
 10
-0.000000000000027
 20
291.9999999999998863
 30
0.0
 11
-0.0000000000000555
 21
296.9999999999998863
 31
0.0
  0
LINE
  5
293
  8
TRIM
  6
CONTINUOUS
 10
9.9999999999999467
 20
296.9999999999998863
 30
0.0
 11
10.0
 21
291.9999999999998863
 31
0.0
  0
LINE
  5
294
  8
TRIM
  6
CONTINUOUS
 10
0.0000000000000015
 20
286.9999999999998863
 30
0.0
 11
-0.000000000000027
 21
291.9999999999998863
 31
0.0
  0
LINE
  5
295
  8
TRIM
  6
CONTINUOUS
 10
5.0000000000000009
 20
291.9999999999998863
 30
0.0
 11
5.0000000000000009
 21
286.9999999999998863
 31
0.0
  0
ENDBLK
  5
297
  8
0
  0
BLOCK
  8
0
  2
*U18
 70
     1
 10
0.0
 20
0.0
 30
0.0
  3
*U18
  1

  0
SOLID
  5
299
  8
TRIM
  6
CONTINUOUS
 10
0.0000000000000029
 20
9.9999999999999982
 30
0.0
 11
-4.9999999999999991
 21
4.9999999999999982
 31
0.0
 12
0.0000000000000015
 22
4.9999999999999982
 32
0.0
 13
0.0000000000000015
 23
4.9999999999999982
 33
0.0
210
0.0
220
0.0
230
-1.0
  0
SOLID
  5
29A
  8
TRIM
  6
CONTINUOUS
 10
0.0000000000000029
 20
9.9999999999999982
 30
0.0
 11
-4.9999999999999947
 21
9.9999999999999982
 31
0.0
 12
-4.9999999999999991
 22
4.9999999999999982
 32
0.0
 13
-4.9999999999999991
 23
4.9999999999999982
 33
0.0
210
0.0
220
0.0
230
-1.0
  0
SOLID
  5
29B
  8
TRIM
  6
CONTINUOUS
 10
0.0000000000000015
 20
4.9999999999999982
 30
0.0
 11
-9.9999999999999982
 21
0.0
 31
0.0
 12
0.0
 22
0.0
 32
0.0
 13
0.0
 23
0.0
 33
0.0
210
0.0
220
0.0
230
-1.0
  0
SOLID
  5
29C
  8
TRIM
  6
CONTINUOUS
 10
0.0000000000000015
 20
4.9999999999999982
 30
0.0
 11
-9.9999999999999982
 21
4.9999999999999982
 31
0.0
 12
-9.9999999999999982
 22
0.0
 32
0.0
 13
-9.9999999999999982
 23
0.0
 33
0.0
210
0.0
220
0.0
230
-1.0
  0
LINE
  5
29D
  8
TRIM
  6
CONTINUOUS
 10
-0.0000000000000015
 20
4.9999999999999982
 30
0.0
 11
-0.0000000000000029
 21
9.9999999999999982
 31
0.0
  0
LINE
  5
29E
  8
TRIM
  6
CONTINUOUS
 10
4.9999999999999947
 20
9.9999999999999982
 30
0.0
 11
4.9999999999999991
 21
4.9999999999999982
 31
0.0
  0
LINE
  5
29F
  8
TRIM
  6
CONTINUOUS
 10
0.0
 20
0.0
 30
0.0
 11
-0.0000000000000015
 21
4.9999999999999982
 31
0.0
  0
LINE
  5
2A0
  8
TRIM
  6
CONTINUOUS
 10
9.9999999999999982
 20
4.9999999999999982
 30
0.0
 11
9.9999999999999982
 21
0.0
 31
0.0
  0
ENDBLK
  5
2A2
  8
0
  0
BLOCK
  8
0
  2
*U19
 70
     1
 10
0.0
 20
0.0
 30
0.0
  3
*U19
  1

  0
SOLID
  5
2A4
  8
TRIM
  6
CONTINUOUS
 10
-415.0
 20
9.9999999999988525
 30
0.0
 11
-420.0
 21
5.0000000000000009
 31
0.0
 12
-415.0
 22
5.0000000000000009
 32
0.0
 13
-415.0
 23
5.0000000000000009
 33
0.0
210
0.0
220
0.0
230
-1.0
  0
SOLID
  5
2A5
  8
TRIM
  6
CONTINUOUS
 10
-415.0
 20
9.9999999999988525
 30
0.0
 11
-420.0
 21
9.9999999999988525
 31
0.0
 12
-420.0
 22
5.0000000000000009
 32
0.0
 13
-420.0
 23
5.0000000000000009
 33
0.0
210
0.0
220
0.0
230
-1.0
  0
SOLID
  5
2A6
  8
TRIM
  6
CONTINUOUS
 10
-410.00000000000108
 20
5.0000000000000009
 30
0.0
 11
-420.0
 21
0.0
 31
0.0
 12
-410.00000000000108
 22
0.0
 32
0.0
 13
-410.00000000000108
 23
0.0
 33
0.0
210
0.0
220
0.0
230
-1.0
  0
SOLID
  5
2A7
  8
TRIM
  6
CONTINUOUS
 10
-410.00000000000108
 20
5.0000000000000009
 30
0.0
 11
-420.0
 21
5.0000000000000009
 31
0.0
 12
-420.0
 22
0.0
 32
0.0
 13
-420.0
 23
0.0
 33
0.0
210
0.0
220
0.0
230
-1.0
  0
LINE
  5
2A8
  8
TRIM
  6
CONTINUOUS
 10
415.0
 20
5.0000000000000009
 30
0.0
 11
415.0
 21
9.9999999999988525
 31
0.0
  0
LINE
  5
2A9
  8
TRIM
  6
CONTINUOUS
 10
420.0
 20
9.9999999999988525
 30
0.0
 11
420.0
 21
5.0000000000000009
 31
0.0
  0
LINE
  5
2AA
  8
TRIM
  6
CONTINUOUS
 10
410.00000000000108
 20
0.0
 30
0.0
 11
410.00000000000108
 21
5.0000000000000009
 31
0.0
  0
LINE
  5
2AB
  8
TRIM
  6
CONTINUOUS
 10
420.0
 20
5.0000000000000009
 30
0.0
 11
420.0
 21
0.0
 31
0.0
  0
ENDBLK
  5
2AD
  8
0
  0
BLOCK
  8
0
  2
*U20
 70
     1
 10
0.0
 20
0.0
 30
0.0
  3
*U20
  1

  0
SOLID
  5
2AF
  8
TRIM
  6
CONTINUOUS
 10
-409.9999999999997726
 20
297.0
 30
0.0
 11
-420.0
 21
292.0000000000002842
 31
0.0
 12
-409.9999999999997726
 22
292.0000000000002842
 32
0.0
 13
-409.9999999999997726
 23
292.0000000000002842
 33
0.0
210
0.0
220
0.0
230
-1.0
  0
SOLID
  5
2B0
  8
TRIM
  6
CONTINUOUS
 10
-409.9999999999997726
 20
297.0
 30
0.0
 11
-420.0
 21
297.0
 31
0.0
 12
-420.0
 22
292.0000000000002842
 32
0.0
 13
-420.0
 23
292.0000000000002842
 33
0.0
210
0.0
220
0.0
230
-1.0
  0
SOLID
  5
2B1
  8
TRIM
  6
CONTINUOUS
 10
-414.9999999999997726
 20
292.0000000000002842
 30
0.0
 11
-420.0
 21
287.0000000000003979
 31
0.0
 12
-414.9999999999997726
 22
287.0000000000003979
 32
0.0
 13
-414.9999999999997726
 23
287.0000000000003979
 33
0.0
210
0.0
220
0.0
230
-1.0
  0
SOLID
  5
2B2
  8
TRIM
  6
CONTINUOUS
 10
-414.9999999999997726
 20
292.0000000000002842
 30
0.0
 11
-420.0
 21
292.0000000000002842
 31
0.0
 12
-420.0
 22
287.0000000000003979
 32
0.0
 13
-420.0
 23
287.0000000000003979
 33
0.0
210
0.0
220
0.0
230
-1.0
  0
LINE
  5
2B3
  8
TRIM
  6
CONTINUOUS
 10
409.9999999999997726
 20
292.0000000000002842
 30
0.0
 11
409.9999999999997726
 21
297.0
 31
0.0
  0
LINE
  5
2B4
  8
TRIM
  6
CONTINUOUS
 10
420.0
 20
297.0
 30
0.0
 11
420.0
 21
292.0000000000002842
 31
0.0
  0
LINE
  5
2B5
  8
TRIM
  6
CONTINUOUS
 10
414.9999999999997726
 20
287.0000000000003979
 30
0.0
 11
414.9999999999997726
 21
292.0000000000002842
 31
0.0
  0
LINE
  5
2B6
  8
TRIM
  6
CONTINUOUS
 10
420.0
 20
292.0000000000002842
 30
0.0
 11
420.0
 21
287.0000000000003979
 31
0.0
  0
ENDBLK
  5
2B8
  8
0
  0
BLOCK
  8
0
  2
*U21
 70
     1
 10
0.0
 20
0.0
 30
0.0
  3
*U21
  1

  0
TEXT
  5
2BA
  8
BORDER
 62
     7
 10
16.8157377729666706
 20
72.2241834820000008
 30
0.0
 40
3.5
  1
E
 41
0.605
  7
SLDTEXTSTYLE0
  0
ENDBLK
  5
2BC
  8
0
  0
BLOCK
  8
0
  2
*U22
 70
     1
 10
0.0
 20
0.0
 30
0.0
  3
*U22
  1

  0
TEXT
  5
2BE
  8
BORDER
 62
     7
 10
84.2941666843666724
 20
287.7842797522999945
 30
0.0
 40
3.5
  1
2
 41
0.605
  7
SLDTEXTSTYLE0
  0
ENDBLK
  5
2C0
  8
0
  0
BLOCK
  8
0
  2
*U23
 70
     1
 10
0.0
 20
0.0
 30
0.0
  3
*U23
  1

  0
TEXT
  5
2C2
  8
BORDER
 62
     7
 10
16.7932551914666597
 20
122.2241834820000008
 30
0.0
 40
3.5
  1
D
 41
0.605
  7
SLDTEXTSTYLE0
  0
ENDBLK
  5
2C4
  8
0
  0
BLOCK
  8
0
  2
*U24
 70
     1
 10
0.0
 20
0.0
 30
0.0
  3
*U24
  1

  0
TEXT
  5
2C6
  8
BORDER
 62
     7
 10
16.7807985192666607
 20
172.2241834820000008
 30
0.0
 40
3.5
  1
C
 41
0.605
  7
SLDTEXTSTYLE0
  0
ENDBLK
  5
2C8
  8
0
  0
BLOCK
  8
0
  2
*U25
 70
     1
 10
0.0
 20
0.0
 30
0.0
  3
*U25
  1

  0
TEXT
  5
2CA
  8
BORDER
 62
     7
 10
16.8139149418666705
 20
222.2241834820000008
 30
0.0
 40
3.5
  1
B
 41
0.605
  7
SLDTEXTSTYLE0
  0
ENDBLK
  5
2CC
  8
0
  0
BLOCK
  8
0
  2
*U26
 70
     1
 10
0.0
 20
0.0
 30
0.0
  3
*U26
  1

  0
TEXT
  5
2CE
  8
BORDER
 62
     7
 10
16.7753297818666702
 20
272.2241834820000008
 30
0.0
 40
3.5
  1
A
 41
0.605
  7
SLDTEXTSTYLE0
  0
ENDBLK
  5
2D0
  8
0
  0
BLOCK
  8
0
  2
*U27
 70
     1
 10
0.0
 20
0.0
 30
0.0
  3
*U27
  1

  0
TEXT
  5
2D2
  8
BORDER
 62
     7
 10
16.786267333866661
 20
22.2241834820000008
 30
0.0
 40
3.5
  1
F
 41
0.605
  7
SLDTEXTSTYLE0
  0
ENDBLK
  5
2D4
  8
0
  0
BLOCK
  8
0
  2
*U28
 70
     1
 10
0.0
 20
0.0
 30
0.0
  3
*U28
  1

  0
TEXT
  5
2D6
  8
BORDER
 62
     7
 10
411.8139149418665852
 20
222.2241834820000008
 30
0.0
 40
3.5
  1
B
 41
0.605
  7
SLDTEXTSTYLE0
  0
ENDBLK
  5
2D8
  8
0
  0
BLOCK
  8
0
  2
*U29
 70
     1
 10
0.0
 20
0.0
 30
0.0
  3
*U29
  1

  0
TEXT
  5
2DA
  8
BORDER
 62
     7
 10
411.7932551914666988
 20
122.2241834820000008
 30
0.0
 40
3.5
  1
D
 41
0.605
  7
SLDTEXTSTYLE0
  0
ENDBLK
  5
2DC
  8
0
  0
BLOCK
  8
0
  2
*U30
 70
     1
 10
0.0
 20
0.0
 30
0.0
  3
*U30
  1

  0
TEXT
  5
2DE
  8
BORDER
 62
     7
 10
411.7753297818666738
 20
272.2241834820000008
 30
0.0
 40
3.5
  1
A
 41
0.605
  7
SLDTEXTSTYLE0
  0
ENDBLK
  5
2E0
  8
0
  0
BLOCK
  8
0
  2
*U31
 70
     1
 10
0.0
 20
0.0
 30
0.0
  3
*U31
  1

  0
TEXT
  5
2E2
  8
BORDER
 62
     7
 10
411.7807985192666251
 20
172.2241834820000008
 30
0.0
 40
3.5
  1
C
 41
0.605
  7
SLDTEXTSTYLE0
  0
ENDBLK
  5
2E4
  8
0
  0
BLOCK
  8
0
  2
*U32
 70
     1
 10
0.0
 20
0.0
 30
0.0
  3
*U32
  1

  0
TEXT
  5
2E6
  8
BORDER
 62
     7
 10
134.2962933594666026
 20
287.7842797522999945
 30
0.0
 40
3.5
  1
3
 41
0.605
  7
SLDTEXTSTYLE0
  0
ENDBLK
  5
2E8
  8
0
  0
BLOCK
  8
0
  2
*U33
 70
     1
 10
0.0
 20
0.0
 30
0.0
  3
*U33
  1

  0
TEXT
  5
2EA
  8
BORDER
 62
     7
 10
184.2880902702665935
 20
287.7842797522999945
 30
0.0
 40
3.5
  1
4
 41
0.605
  7
SLDTEXTSTYLE0
  0
ENDBLK
  5
2EC
  8
0
  0
BLOCK
  8
0
  2
*U34
 70
     1
 10
0.0
 20
0.0
 30
0.0
  3
*U34
  1

  0
TEXT
  5
2EE
  8
BORDER
 62
     7
 10
334.2978124629667036
 20
287.7842797522999945
 30
0.0
 40
3.5
  1
7
 41
0.605
  7
SLDTEXTSTYLE0
  0
ENDBLK
  5
2F0
  8
0
  0
BLOCK
  8
0
  2
*U35
 70
     1
 10
0.0
 20
0.0
 30
0.0
  3
*U35
  1

  0
TEXT
  5
2F2
  8
BORDER
 62
     7
 10
234.294470528366702
 20
287.7842797522999945
 30
0.0
 40
3.5
  1
5
 41
0.605
  7
SLDTEXTSTYLE0
  0
ENDBLK
  5
2F4
  8
0
  0
BLOCK
  8
0
  2
*U36
 70
     1
 10
0.0
 20
0.0
 30
0.0
  3
*U36
  1

  0
TEXT
  5
2F6
  8
BORDER
 62
     7
 10
284.2947742559666722
 20
287.7842797522999945
 30
0.0
 40
3.5
  1
6
 41
0.605
  7
SLDTEXTSTYLE0
  0
ENDBLK
  5
2F8
  8
0
  0
BLOCK
  8
0
  2
*U37
 70
     1
 10
0.0
 20
0.0
 30
0.0
  3
*U37
  1

  0
TEXT
  5
2FA
  8
BORDER
 62
     7
 10
384.2950780998667142
 20
287.7842797522999945
 30
0.0
 40
3.5
  1
8
 41
0.605
  7
SLDTEXTSTYLE0
  0
ENDBLK
  5
2FC
  8
0
  0
BLOCK
  8
0
  2
*U38
 70
     1
 10
0.0
 20
0.0
 30
0.0
  3
*U38
  1

  0
TEXT
  5
2FE
  8
BORDER
 62
     7
 10
34.7105816226333417
 20
287.7842797522999945
 30
0.0
 40
3.5
  1
1
 41
0.605
  7
SLDTEXTSTYLE0
  0
ENDBLK
  5
300
  8
0
  0
BLOCK
  8
0
  2
*U39
 70
     1
 10
0.0
 20
0.0
 30
0.0
  3
*U39
  1

  0
TEXT
  5
302
  8
BORDER
 62
     7
 10
284.2947742559666722
 20
5.7576469487999988
 30
0.0
 40
3.5
  1
6
 41
0.605
  7
SLDTEXTSTYLE0
  0
ENDBLK
  5
304
  8
0
  0
BLOCK
  8
0
  2
*U40
 70
     1
 10
0.0
 20
0.0
 30
0.0
  3
*U40
  1

  0
TEXT
  5
306
  8
BORDER
 62
     7
 10
84.2941666843666724
 20
5.7842797522999989
 30
0.0
 40
3.5
  1
2
 41
0.605
  7
SLDTEXTSTYLE0
  0
ENDBLK
  5
308
  8
0
  0
BLOCK
  8
0
  2
*U41
 70
     1
 10
0.0
 20
0.0
 30
0.0
  3
*U41
  1

  0
TEXT
  5
30A
  8
BORDER
 62
     7
 10
34.7105816226333417
 20
5.7842797522999989
 30
0.0
 40
3.5
  1
1
 41
0.605
  7
SLDTEXTSTYLE0
  0
ENDBLK
  5
30C
  8
0
  0
BLOCK
  8
0
  2
*U42
 70
     1
 10
0.0
 20
0.0
 30
0.0
  3
*U42
  1

  0
TEXT
  5
30E
  8
BORDER
 62
     7
 10
234.294470528366702
 20
5.7689110949999991
 30
0.0
 40
3.5
  1
5
 41
0.605
  7
SLDTEXTSTYLE0
  0
ENDBLK
  5
310
  8
0
  0
BLOCK
  8
0
  2
*U43
 70
     1
 10
0.0
 20
0.0
 30
0.0
  3
*U43
  1

  0
TEXT
  5
312
  8
BORDER
 62
     7
 10
134.2962933594666026
 20
5.7751494099
 30
0.0
 40
3.5
  1
3
 41
0.605
  7
SLDTEXTSTYLE0
  0
ENDBLK
  5
314
  8
0
  0
BLOCK
  8
0
  2
*U44
 70
     1
 10
0.0
 20
0.0
 30
0.0
  3
*U44
  1

  0
TEXT
  5
316
  8
BORDER
 62
     7
 10
184.2880902702665935
 20
5.7474051372999986
 30
0.0
 40
3.5
  1
4
 41
0.605
  7
SLDTEXTSTYLE0
  0
ENDBLK
  5
318
  8
0
  0
BLOCK
  8
0
  2
*U45
 70
     1
 10
0.0
 20
0.0
 30
0.0
  3
*U45
  1

  0
TEXT
  5
31A
  8
BORDER
 62
     7
 10
334.2978124629667036
 20
5.7464387396000003
 30
0.0
 40
3.5
  1
7
 41
0.605
  7
SLDTEXTSTYLE0
  0
ENDBLK
  5
31C
  8
0
  0
BLOCK
  8
0
  2
*U46
 70
     1
 10
0.0
 20
0.0
 30
0.0
  3
*U46
  1

  0
TEXT
  5
31E
  8
BORDER
 62
     7
 10
384.2950780998667142
 20
5.7464387396000003
 30
0.0
 40
3.5
  1
8
 41
0.605
  7
SLDTEXTSTYLE0
  0
ENDBLK
  5
320
  8
0
  0
BLOCK
  8
0
  2
*U47
 70
     1
 10
0.0
 20
0.0
 30
0.0
  3
*U47
  1

  0
TEXT
  5
322
  8
BORDER
 62
     0
 10
0.0
 20
0.7226693493999999
 30
0.0
 40
2.5
  1
NOTES:
 41
0.605
  7
SLDTEXTSTYLE0
  0
ENDBLK
  5
324
  8
0
  0
BLOCK
  8
0
  2
*U48
 70
     1
 10
0.0
 20
0.0
 30
0.0
  3
*U48
  1

  0
TEXT
  5
327
  8
BORDER
 62
     0
 10
0.0
 20
-2.9436411208000002
 30
0.0
 40
2.5
  1
1. Làm s
 41
0.605
  7
SLDTEXTSTYLE1
  0
TEXT
  5
328
  8
BORDER
 62
     0
 10
9.3774999999999995
 20
-2.9436411208000002
 30
0.0
 40
2.5
  1
\U+1EA1
 41
0.605
  7
MtXpl_MS_PGothic
  0
TEXT
  5
32A
  8
BORDER
 62
     0
 10
11.5775000000000006
 20
-2.9436411208000002
 30
0.0
 40
2.5
  1
ch ba via, làm tù c
 41
0.605
  7
SLDTEXTSTYLE1
  0
TEXT
  5
32B
  8
BORDER
 62
     0
 10
34.7691666666666634
 20
-2.9436411208000002
 30
0.0
 40
2.5
  1
\U+1EA1
 41
0.605
  7
MtXpl_MS_PGothic
  0
TEXT
  5
32C
  8
BORDER
 62
     0
 10
36.9691666666666734
 20
-2.9436411208000002
 30
0.0
 40
2.5
  1
nh s
 41
0.605
  7
SLDTEXTSTYLE1
  0
TEXT
  5
32D
  8
BORDER
 62
     0
 10
42.4141666666666595
 20
-2.9436411208000002
 30
0.0
 40
2.5
  1
\U+1EAF
 41
0.605
  7
MtXpl_MS_PGothic
  0
TEXT
  5
32E
  8
BORDER
 62
     0
 10
44.6141666666666694
 20
-2.9436411208000002
 30
0.0
 40
2.5
  1
c sau khi gia công.
 41
0.605
  7
SLDTEXTSTYLE1
  0
ENDBLK
  5
330
  8
0
  0
BLOCK
  8
0
  2
*U49
 70
     1
 10
0.0
 20
0.0
 30
0.0
  3
*U49
  1

  0
TEXT
  5
332
  8
BORDER
 62
     0
 10
0.0
 20
-6.4436412287999998
 30
0.0
 40
2.5
  1
2. Kích th
 41
0.605
  7
SLDTEXTSTYLE1
  0
TEXT
  5
333
  8
BORDER
 62
     0
 10
12.4024999999999999
 20
-6.4436412287999998
 30
0.0
 40
2.5
  1
\U+01B0
 41
0.605
  7
SLDTEXTSTYLE1
  0
TEXT
  5
334
  8
BORDER
 62
     0
 10
13.8169866984993099
 20
-6.4436412287999998
 30
0.0
 40
2.5
  1
\U+1EDB
 41
0.605
  7
MtXpl_MS_PGothic
  0
TEXT
  5
335
  8
BORDER
 62
     0
 10
16.0169866984993092
 20
-6.4436412287999998
 30
0.0
 40
2.5
  1
c ch
 41
0.605
  7
SLDTEXTSTYLE1
  0
TEXT
  5
336
  8
BORDER
 62
     0
 10
21.4619866984993202
 20
-6.4436412287999998
 30
0.0
 40
2.5
  1
\U+01B0
 41
0.605
  7
SLDTEXTSTYLE1
  0
TEXT
  5
337
  8
BORDER
 62
     0
 10
22.8764733969986409
 20
-6.4436412287999998
 30
0.0
 40
2.5
  1
a rõ tuân theo b
 41
0.605
  7
SLDTEXTSTYLE1
  0
TEXT
  5
338
  8
BORDER
 62
     0
 10
44.6564733969986278
 20
-6.4436412287999998
 30
0.0
 40
2.5
  1
\U+1EA3
 41
0.605
  7
MtXpl_MS_PGothic
  0
TEXT
  5
339
  8
BORDER
 62
     0
 10
46.8564733969986378
 20
-6.4436412287999998
 30
0.0
 40
2.5
  1
n 3D
 41
0.605
  7
SLDTEXTSTYLE1
  0
ENDBLK
  5
33B
  8
0
  0
BLOCK
  8
0
  2
*U50
 70
     1
 10
0.0
 20
0.0
 30
0.0
  3
*U50
  1

  0
TEXT
  5
33D
  8
BORDER
 62
     0
 10
0.0
 20
-9.7873913367999972
 30
0.0
 40
2.5
  1
3. Dung sai ch
 41
0.605
  7
SLDTEXTSTYLE1
  0
TEXT
  5
33E
  8
BORDER
 62
     0
 10
17.3433333333333302
 20
-9.7873913367999972
 30
0.0
 40
2.5
  1
\U+01B0
 41
0.605
  7
SLDTEXTSTYLE1
  0
TEXT
  5
33F
  8
BORDER
 62
     0
 10
18.7578200318326509
 20
-9.7873913367999972
 30
0.0
 40
2.5
  1
a rõ tuân theo ISO 2768-m
 41
0.605
  7
SLDTEXTSTYLE1
  0
ENDBLK
  5
341
  8
0
  0
BLOCK
  8
0
  2
*U51
 70
     1
 10
0.0
 20
0.0
 30
0.0
  3
*U51
  1

  0
TEXT
  5
343
  8
BORDER
 10
291.5105479778000017
 20
44.4533268305000036
 30
0.0
 40
1.8
  1
Project:
 41
0.605
  7
SLDTEXTSTYLE0
  0
ENDBLK
  5
345
  8
0
  0
BLOCK
  8
0
  2
*U52
 70
     1
 10
0.0
 20
0.0
 30
0.0
  3
*U52
  1

  0
TEXT
  5
347
  8
BORDER
 10
291.7382663043999855
 20
40.1533837364000021
 30
0.0
 40
2.5
  1
SERVICE ROBOT
 41
0.75
  7
SLDTEXTSTYLE2
  0
ENDBLK
  5
349
  8
0
  0
BLOCK
  8
0
  2
*U53
 70
     1
 10
0.0
 20
0.0
 30
0.0
  3
*U53
  1

  0
TEXT
  5
34B
  8
BORDER
 10
291.4087341202999824
 20
30.5103880178999987
 30
0.0
 40
1.8
  1
Description:
 41
0.605
  7
SLDTEXTSTYLE0
  0
ENDBLK
  5
34D
  8
0
  0
BLOCK
  8
0
  2
*U54
 70
     1
 10
0.0
 20
0.0
 30
0.0
  3
*U54
  1

  0
TEXT
  5
34F
  8
BORDER
 10
291.5874471912999866
 20
26.9289516191000011
 30
0.0
 40
2.5
  1
010_Caster_cover_SR_part2
 41
0.75
  7
SLDTEXTSTYLE2
  0
ENDBLK
  5
351
  8
0
  0
BLOCK
  8
0
  2
*U55
 70
     1
 10
0.0
 20
0.0
 30
0.0
  3
*U55
  1

  0
TEXT
  5
353
  8
BORDER
 10
348.1510503430999961
 20
28.4471649757999998
 30
0.0
 40
1.8520833333
  1
Unit:
 41
0.605
  7
SLDTEXTSTYLE0
  0
ENDBLK
  5
355
  8
0
  0
BLOCK
  8
0
  2
*U56
 70
     1
 10
0.0
 20
0.0
 30
0.0
  3
*U56
  1

  0
TEXT
  5
357
  8
BORDER
 10
356.0718789994999725
 20
28.4300470766999993
 30
0.0
 40
2.5
  1
mm
 41
0.605
  7
SLDTEXTSTYLE0
  0
ENDBLK
  5
359
  8
0
  0
BLOCK
  8
0
  2
*U57
 70
     1
 10
0.0
 20
0.0
 30
0.0
  3
*U57
  1

  0
TEXT
  5
35B
  8
BORDER
 10
350.2095266337000226
 20
16.1234557942999999
 30
0.0
 40
2.5
  1
SS400 t3
 41
0.605
  7
SLDTEXTSTYLE0
  0
ENDBLK
  5
35D
  8
0
  0
BLOCK
  8
0
  2
*U58
 70
     1
 10
0.0
 20
0.0
 30
0.0
  3
*U58
  1

  0
TEXT
  5
35F
  8
BORDER
 10
372.231466638899974
 20
15.4591415458999997
 30
0.0
 40
2.5
  1
02
 41
0.605
  7
SLDTEXTSTYLE0
  0
ENDBLK
  5
361
  8
0
  0
BLOCK
  8
0
  2
*U59
 70
     1
 10
0.0
 20
0.0
 30
0.0
  3
*U59
  1

  0
TEXT
  5
363
  8
BORDER
 10
366.988711436199992
 20
21.9705901391000005
 30
0.0
 40
1.8
  1
Qty:
 41
0.605
  7
SLDTEXTSTYLE0
  0
ENDBLK
  5
365
  8
0
  0
BLOCK
  8
0
  2
*U60
 70
     1
 10
0.0
 20
0.0
 30
0.0
  3
*U60
  1

  0
TEXT
  5
367
  8
BORDER
 10
387.2805248719998872
 20
28.4300470766999993
 30
0.0
 40
2.5
  1
1:1
 41
0.605
  7
SLDTEXTSTYLE0
  0
ENDBLK
  5
369
  8
0
  0
BLOCK
  8
0
  2
*U61
 70
     1
 10
0.0
 20
0.0
 30
0.0
  3
*U61
  1

  0
TEXT
  5
36B
  8
BORDER
 10
401.3158979479999857
 20
15.7290153250000007
 30
0.0
 40
2.6458333333000001
  1
02
 41
0.605
  7
SLDTEXTSTYLE0
  0
ENDBLK
  5
36D
  8
0
  0
BLOCK
  8
0
  2
*U62
 70
     1
 10
0.0
 20
0.0
 30
0.0
  3
*U62
  1

  0
TEXT
  5
36F
  8
BORDER
 10
379.1535670217999723
 20
34.6738571670000013
 30
0.0
 40
2.5
  1
2021
 41
0.605
  7
SLDTEXTSTYLE0
  0
ENDBLK
  5
371
  8
0
  0
BLOCK
  8
0
  2
*U63
 70
     1
 10
0.0
 20
0.0
 30
0.0
  3
*U63
  1

  0
TEXT
  5
373
  8
BORDER
 10
348.1348922133000201
 20
34.6738571670000013
 30
0.0
 40
2.5
  1
Nguyen Van Tung
 41
0.605
  7
SLDTEXTSTYLE0
  0
ENDBLK
  5
375
  8
0
  0
BLOCK
  8
0
  2
*U64
 70
     1
 10
0.0
 20
0.0
 30
0.0
  3
*U64
  1

  0
TEXT
  5
377
  8
BORDER
 10
379.1535670217999723
 20
43.9868425293999934
 30
0.0
 40
2.5
  1
2021
 41
0.605
  7
SLDTEXTSTYLE0
  0
ENDBLK
  5
379
  8
0
  0
BLOCK
  8
0
  2
*U65
 70
     1
 10
0.0
 20
0.0
 30
0.0
  3
*U65
  1

  0
TEXT
  5
37B
  8
BORDER
 10
347.7590472172000204
 20
43.9868425293999934
 30
0.0
 40
2.5
  1
Le Xuan Tung
 41
0.605
  7
SLDTEXTSTYLE0
  0
ENDBLK
  5
37D
  8
0
  0
BLOCK
  8
0
  2
*U66
 70
     1
 10
0.0
 20
0.0
 30
0.0
  3
*U66
  1

  0
TEXT
  5
37F
  8
BORDER
 10
368.6768935792999855
 20
28.4471649757999998
 30
0.0
 40
1.8520833333
  1
Drawing Scale:
 41
0.605
  7
SLDTEXTSTYLE0
  0
ENDBLK
  5
381
  8
0
  0
BLOCK
  8
0
  2
*U67
 70
     1
 10
0.0
 20
0.0
 30
0.0
  3
*U67
  1

  0
TEXT
  5
383
  8
BORDER
 10
379.1535670217999723
 20
39.7143087883000021
 30
0.0
 40
1.8520833333
  1
Checked/Approved Date:
 41
0.605
  7
SLDTEXTSTYLE0
  0
ENDBLK
  5
385
  8
0
  0
BLOCK
  8
0
  2
*U68
 70
     1
 10
0.0
 20
0.0
 30
0.0
  3
*U68
  1

  0
TEXT
  5
387
  8
BORDER
 10
379.1535670217999723
 20
48.3587436965999871
 30
0.0
 40
1.8520833333
  1
Drawn Date:
 41
0.605
  7
SLDTEXTSTYLE0
  0
ENDBLK
  5
389
  8
0
  0
BLOCK
  8
0
  2
*U69
 70
     1
 10
0.0
 20
0.0
 30
0.0
  3
*U69
  1

  0
TEXT
  5
38B
  8
BORDER
 10
347.7590472172000204
 20
48.3484450480000021
 30
0.0
 40
1.8
  1
Drawn by:
 41
0.605
  7
SLDTEXTSTYLE0
  0
ENDBLK
  5
38D
  8
0
  0
BLOCK
  8
0
  2
*U70
 70
     1
 10
0.0
 20
0.0
 30
0.0
  3
*U70
  1

  0
TEXT
  5
38F
  8
BORDER
 10
331.3112945047000153
 20
13.1798799385999992
 30
0.0
 40
5.0
  1
A0
 41
0.75
  7
SLDTEXTSTYLE2
  0
ENDBLK
  5
391
  8
0
  0
BLOCK
  8
0
  2
*U71
 70
     1
 10
0.0
 20
0.0
 30
0.0
  3
*U71
  1

  0
TEXT
  5
393
  8
BORDER
 10
322.6869049393000068
 20
22.1130744105000012
 30
0.0
 40
1.8
  1
Sheet Size:
 41
0.605
  7
SLDTEXTSTYLE0
  0
ENDBLK
  5
395
  8
0
  0
BLOCK
  8
0
  2
*U72
 70
     1
 10
0.0
 20
0.0
 30
0.0
  3
*U72
  1

  0
TEXT
  5
397
  8
BORDER
 62
     0
 10
0.0
 20
0.5203219316000001
 30
0.0
 40
1.8
  1
Projection Method:
 41
0.605
  7
SLDTEXTSTYLE0
  0
ENDBLK
  5
399
  8
0
  0
BLOCK
  8
0
  2
*U73
 70
     1
 10
0.0
 20
0.0
 30
0.0
  3
*U73
  1

  0
TEXT
  5
39B
  8
BORDER
 62
     0
 10
5.4000000000000004
 20
-2.2796779686000002
 30
0.0
 40
1.8
  1
THIRD ANGLE
 41
0.605
  7
SLDTEXTSTYLE0
  0
ENDBLK
  5
39D
  8
0
  0
BLOCK
  8
0
  2
*U74
 70
     1
 10
0.0
 20
0.0
 30
0.0
  3
*U74
  1

  0
TEXT
  5
39F
  8
BORDER
 10
347.9469697152999856
 20
39.70401013970001
 30
0.0
 40
1.8
  1
Checked/Approved by:
 41
0.605
  7
SLDTEXTSTYLE0
  0
ENDBLK
  5
3A1
  8
0
  0
BLOCK
  8
0
  2
*U75
 70
     1
 10
0.0
 20
0.0
 30
0.0
  3
*U75
  1

  0
TEXT
  5
3A3
  8
BORDER
 10
385.0419956412999909
 20
15.4591415458999997
 30
0.0
 40
2.5
  1
1 of 1
 41
0.57
  7
SLDTEXTSTYLE3
  0
ENDBLK
  5
3A5
  8
0
  0
BLOCK
  8
0
  2
*U76
 70
     1
 10
0.0
 20
0.0
 30
0.0
  3
*U76
  1

  0
TEXT
  5
3A7
  8
BORDER
 10
348.1173613368999895
 20
21.9705901391000005
 30
0.0
 40
1.8
  1
Material:
 41
0.605
  7
SLDTEXTSTYLE0
  0
ENDBLK
  5
3A9
  8
0
  0
BLOCK
  8
0
  2
*U77
 70
     1
 10
0.0
 20
0.0
 30
0.0
  3
*U77
  1

  0
TEXT
  5
3AB
  8
BORDER
 10
398.8602093887998876
 20
21.9705901391000005
 30
0.0
 40
1.8
  1
Revision:
 41
0.605
  7
SLDTEXTSTYLE0
  0
ENDBLK
  5
3AD
  8
0
  0
BLOCK
  8
0
  2
*U78
 70
     1
 10
0.0
 20
0.0
 30
0.0
  3
*U78
  1

  0
TEXT
  5
3AF
  8
BORDER
 10
384.4516457766001167
 20
21.9705901391000005
 30
0.0
 40
1.8
  1
Sheet:
 41
0.605
  7
SLDTEXTSTYLE0
  0
ENDBLK
  5
3B1
  8
0
  0
BLOCK
  8
0
  2
*U79
 70
     1
 10
0.0
 20
0.0
 30
0.0
  3
*U79
  1

  0
TEXT
  5
3B3
  8
BORDER
 10
218.09058931940001
 20
235.0284668310000029
 30
0.0
 40
3.5
  1
90.00
 41
0.75
  7
SLDTEXTSTYLE2
  0
ENDBLK
  5
3B5
  8
0
  0
BLOCK
  8
0
  2
*U80
 70
     1
 10
0.0
 20
0.0
 30
0.0
  3
*U80
  1

  0
TEXT
  5
3B7
  8
BORDER
 10
160.7407840086000022
 20
171.3705115433999993
 30
0.0
 40
3.5
  1
90.00
 50
90.0000000000003979
 41
0.75
  7
SLDTEXTSTYLE2
  0
ENDBLK
  5
3B9
  8
0
  0
BLOCK
  8
0
  2
*U81
 70
     1
 10
0.0
 20
0.0
 30
0.0
  3
*U81
  1

  0
TEXT
  5
3BB
  8
BORDER
 10
272.2841873483999962
 20
214.2293353014999866
 30
0.0
 40
3.5
  1
4x
 41
0.75
  7
SLDTEXTSTYLE2
  0
ENDBLK
  5
3BD
  8
0
  0
BLOCK
  8
0
  2
*U82
 70
     1
 10
0.0
 20
0.0
 30
0.0
  3
*U82
  1

  0
TEXT
  5
3BF
  8
BORDER
 10
277.1112704368999857
 20
214.1758631248000029
 30
0.0
 40
3.5
  1
\U+2205
 41
0.75
  7
SLDTEXTSTYLE2
  0
ENDBLK
  5
3C1
  8
0
  0
BLOCK
  8
0
  2
*U83
 70
     1
 10
0.0
 20
0.0
 30
0.0
  3
*U83
  1

  0
TEXT
  5
3C3
  8
BORDER
 10
282.3897078351999994
 20
214.2293353014999866
 30
0.0
 40
3.5
  1
4.20
 41
0.75
  7
SLDTEXTSTYLE2
  0
ENDBLK
  5
3C5
  8
0
  0
BLOCK
  8
0
  2
*U84
 70
     1
 10
0.0
 20
0.0
 30
0.0
  3
*U84
  1

  0
TEXT
  5
3C7
  8
BORDER
 10
228.5456242017999955
 20
121.7663849287000062
 30
0.0
 40
3.5
  1
\U+2205
 41
0.75
  7
SLDTEXTSTYLE2
  0
ENDBLK
  5
3C9
  8
0
  0
BLOCK
  8
0
  2
*U85
 70
     1
 10
0.0
 20
0.0
 30
0.0
  3
*U85
  1

  0
TEXT
  5
3CB
  8
BORDER
 10
233.8240616001999967
 20
121.8198571053000023
 30
0.0
 40
3.5
  1
5.00
 41
0.75
  7
SLDTEXTSTYLE2
  0
ENDBLK
  5
3CD
  8
0
  0
BLOCK
  8
0
  2
*U86
 70
     1
 10
0.0
 20
0.0
 30
0.0
  3
*U86
  1

  0
TEXT
  5
408
  8
AM_5
 62
     2
 10
298.3839231204947282
 20
196.7503049939377888
 30
0.0
 40
5.9500000000000002
  1
t3
  0
ENDBLK
  5
40A
  8
0
  0
ENDSEC
  0
SECTION
  2
ENTITIES
  0
INSERT
  5
77
  8
TRIM
  6
CONTINUOUS
  2
*U17
 10
0.0
 20
0.0
 30
0.0
1001
ACAD
1002
{
1000
R14_HATCH_DATA
1000
77
1011
1.0
1021
0.0
1031
0.0
1021
0.0
1031
0.0
1011
0.0
1021
0.0
1031
0.0
1021
1.0
1031
0.0
1011
0.0
1021
0.0
1031
0.0
1021
0.0
1031
1.0
1040
0.0
1010
0.0
1020
0.0
1030
1.0
1000
SOLID
1070
     1
1070
     0
1071
        1
1071
        0
1071
        6
1070
     1
1040
10.0
1040
291.9999999999998863
1040
9.9999999999999467
1040
296.9999999999998863
1070
     1
1040
9.9999999999999467
1040
296.9999999999998863
1040
-0.0000000000000551
1040
296.9999999999998863
1070
     1
1040
-0.0000000000000555
1040
296.9999999999998863
1040
0.0000000000000015
1040
286.9999999999998863
1070
     1
1040
0.0000000000000015
1040
286.9999999999998863
1040
5.0000000000000009
1040
286.9999999999998863
1070
     1
1040
5.0000000000000009
1040
286.9999999999998863
1040
5.0000000000000009
1040
291.9999999999998863
1070
     1
1040
5.0000000000000009
1040
291.9999999999998863
1040
10.0
1040
291.9999999999998863
1071
        0
1070
     0
1070
     1
1071
        1
1040
0.0
1040
0.0
1040
0.0
1002
}
  0
INSERT
  5
78
  8
TRIM
  6
CONTINUOUS
  2
*U18
 10
0.0
 20
0.0
 30
0.0
1001
ACAD
1002
{
1000
R14_HATCH_DATA
1000
78
1011
1.0
1021
0.0
1031
0.0
1021
0.0
1031
0.0
1011
0.0
1021
0.0
1031
0.0
1021
1.0
1031
0.0
1011
0.0
1021
0.0
1031
0.0
1021
0.0
1031
1.0
1040
0.0
1010
0.0
1020
0.0
1030
1.0
1000
SOLID
1070
     1
1070
     0
1071
        1
1071
        0
1071
        6
1070
     1
1040
4.9999999999999947
1040
9.9999999999999982
1040
-0.0000000000000027
1040
9.9999999999999982
1070
     1
1040
-0.0000000000000029
1040
9.9999999999999982
1040
0.0
1040
0.0
1070
     1
1040
0.0
1040
0.0
1040
9.9999999999999982
1040
0.0
1070
     1
1040
9.9999999999999982
1040
0.0
1040
9.9999999999999982
1040
4.9999999999999991
1070
     1
1040
9.9999999999999982
1040
4.9999999999999991
1040
4.9999999999999991
1040
4.9999999999999982
1070
     1
1040
4.9999999999999991
1040
4.9999999999999982
1040
4.9999999999999947
1040
9.9999999999999982
1071
        0
1070
     0
1070
     1
1071
        1
1040
0.0
1040
0.0
1040
0.0
1002
}
  0
INSERT
  5
79
  8
TRIM
  6
CONTINUOUS
  2
*U19
 10
0.0
 20
0.0
 30
0.0
1001
ACAD
1002
{
1000
R14_HATCH_DATA
1000
79
1011
1.0
1021
0.0
1031
0.0
1021
0.0
1031
0.0
1011
0.0
1021
0.0
1031
0.0
1021
1.0
1031
0.0
1011
0.0
1021
0.0
1031
0.0
1021
0.0
1031
1.0
1040
0.0
1010
0.0
1020
0.0
1030
1.0
1000
SOLID
1070
     1
1070
     0
1071
        1
1071
        0
1071
        6
1070
     1
1040
420.0
1040
9.9999999999988525
1040
415.0
1040
9.9999999999988525
1070
     1
1040
415.0
1040
9.9999999999988525
1040
415.0
1040
5.0000000000000009
1070
     1
1040
415.0
1040
5.0000000000000009
1040
410.00000000000108
1040
5.0000000000000009
1070
     1
1040
410.00000000000108
1040
5.0000000000000009
1040
410.00000000000108
1040
0.0
1070
     1
1040
410.00000000000108
1040
0.0
1040
420.0
1040
0.0
1070
     1
1040
420.0
1040
0.0
1040
420.0
1040
9.9999999999988525
1071
        0
1070
     0
1070
     1
1071
        1
1040
0.0
1040
0.0
1040
0.0
1002
}
  0
INSERT
  5
7A
  8
TRIM
  6
CONTINUOUS
  2
*U20
 10
0.0
 20
0.0
 30
0.0
1001
ACAD
1002
{
1000
R14_HATCH_DATA
1000
7A
1011
1.0
1021
0.0
1031
0.0
1021
0.0
1031
0.0
1011
0.0
1021
0.0
1031
0.0
1021
1.0
1031
0.0
1011
0.0
1021
0.0
1031
0.0
1021
0.0
1031
1.0
1040
0.0
1010
0.0
1020
0.0
1030
1.0
1000
SOLID
1070
     1
1070
     0
1071
        1
1071
        0
1071
        6
1070
     1
1040
414.9999999999997726
1040
292.0000000000002842
1040
414.9999999999997726
1040
287.0000000000003979
1070
     1
1040
414.9999999999997726
1040
287.0000000000003979
1040
420.0
1040
287.0000000000003979
1070
     1
1040
420.0
1040
287.0000000000003979
1040
420.0
1040
297.0
1070
     1
1040
420.0
1040
297.0
1040
409.9999999999997726
1040
297.0
1070
     1
1040
409.9999999999997726
1040
297.0
1040
409.9999999999997726
1040
292.0000000000002842
1070
     1
1040
409.9999999999997726
1040
292.0000000000002842
1040
414.9999999999997726
1040
292.0000000000002842
1071
        0
1070
     0
1070
     1
1071
        1
1040
0.0
1040
0.0
1040
0.0
1002
}
  0
LINE
  5
7B
  8
BORDER
  6
CONTINUOUS
 10
415.0
 20
292.0
 30
0.0
 11
15.0
 21
292.0
 31
0.0
  0
LINE
  5
7C
  8
BORDER
  6
CONTINUOUS
 10
15.0
 20
5.0
 30
0.0
 11
415.0
 21
5.0
 31
0.0
  0
LINE
  5
7D
  8
BORDER
  6
CONTINUOUS
 10
410.0
 20
287.0
 30
0.0
 11
20.0
 21
287.0
 31
0.0
  0
LINE
  5
7E
  8
BORDER
  6
CONTINUOUS
 10
20.0
 20
10.0000000002
 30
0.0
 11
410.0
 21
10.0000000002
 31
0.0
  0
LINE
  5
7F
  8
BORDER
  6
CONTINUOUS
 10
415.0
 20
5.0
 30
0.0
 11
415.0
 21
292.0
 31
0.0
  0
LINE
  5
80
  8
BORDER
  6
CONTINUOUS
 10
410.0
 20
10.0000000002
 30
0.0
 11
410.0
 21
287.0
 31
0.0
  0
LINE
  5
81
  8
BORDER
  6
CONTINUOUS
 10
410.0
 20
98.5000000000000142
 30
0.0
 11
415.0
 21
98.5000000000000142
 31
0.0
  0
LINE
  5
82
  8
BORDER
 10
347.0583276541998998
 20
33.7139900561999966
 30
0.0
 11
290.040650127899994
 21
33.7139900561999966
 31
0.0
  0
LINE
  5
83
  8
BORDER
  6
CONTINUOUS
 10
110.0
 20
292.0
 30
0.0
 11
110.0
 21
287.0
 31
0.0
  0
LINE
  5
84
  8
BORDER
  6
CONTINUOUS
 10
160.0
 20
287.0
 30
0.0
 11
160.0
 21
292.0
 31
0.0
  0
LINE
  5
85
  8
BORDER
  6
CONTINUOUS
 10
260.0
 20
287.0
 30
0.0
 11
260.0
 21
292.0
 31
0.0
  0
LINE
  5
86
  8
BORDER
  6
CONTINUOUS
 10
310.0
 20
292.0
 30
0.0
 11
310.0
 21
287.0
 31
0.0
  0
LINE
  5
87
  8
BORDER
  6
CONTINUOUS
 10
360.0
 20
287.0
 30
0.0
 11
360.0
 21
292.0
 31
0.0
  0
LINE
  5
88
  8
TRIM
 10
0.0
 20
0.0
 30
0.0
 11
10.0
 21
0.0
 31
0.0
  0
LINE
  5
89
  8
TRIM
 10
10.0
 20
0.0
 30
0.0
 11
10.0
 21
5.0
 31
0.0
  0
LINE
  5
8A
  8
TRIM
 10
10.0
 20
5.0
 30
0.0
 11
5.0
 21
5.0
 31
0.0
  0
LINE
  5
8B
  8
BORDER
  6
CONTINUOUS
 10
415.0
 20
248.5
 30
0.0
 11
410.0
 21
248.5
 31
0.0
  0
LINE
  5
8C
  8
BORDER
  6
CONTINUOUS
 10
410.0
 20
198.5
 30
0.0
 11
415.0
 21
198.5
 31
0.0
  0
LINE
  5
8D
  8
TRIM
 10
5.0
 20
5.0
 30
0.0
 11
5.0
 21
10.0
 31
0.0
  0
LINE
  5
8E
  8
BORDER
  6
CONTINUOUS
 10
15.0
 20
48.5
 30
0.0
 11
20.0
 21
48.5
 31
0.0
  0
LINE
  5
8F
  8
BORDER
  6
CONTINUOUS
 10
20.0
 20
98.5000000000000142
 30
0.0
 11
15.0
 21
98.5000000000000142
 31
0.0
  0
LINE
  5
90
  8
BORDER
  6
CONTINUOUS
 10
15.0
 20
292.0
 30
0.0
 11
15.0
 21
5.0
 31
0.0
  0
LINE
  5
91
  8
BORDER
  6
CONTINUOUS
 10
20.0
 20
287.0
 30
0.0
 11
20.0
 21
10.0000000002
 31
0.0
  0
LINE
  5
92
  8
BORDER
  6
CONTINUOUS
 10
19.9999997379000014
 20
198.5
 30
0.0
 11
15.0000002621000004
 21
198.5
 31
0.0
  0
LINE
  5
93
  8
BORDER
  6
CONTINUOUS
 10
15.0
 20
248.5
 30
0.0
 11
20.0
 21
248.5
 31
0.0
  0
LINE
  5
94
  8
BORDER
 10
378.5742814665999845
 20
52.1438084431999869
 30
0.0
 11
378.5742814665999845
 21
33.7139900561999966
 31
0.0
  0
LINE
  5
95
  8
BORDER
  6
CONTINUOUS
 10
365.985679056399988
 20
10.1438084431999993
 30
0.0
 11
365.985679056399988
 21
33.7139900561999966
 31
0.0
  0
LINE
  5
96
  8
BORDER
 10
410.0042978380000136
 20
42.7139900561999966
 30
0.0
 11
347.0583276541998998
 21
42.7139900561999966
 31
0.0
  0
LINE
  5
97
  8
BORDER
  6
CONTINUOUS
 10
60.0
 20
287.0
 30
0.0
 11
60.0
 21
292.0
 31
0.0
  0
LINE
  5
98
  8
BORDER
  6
CONTINUOUS
 10
210.0
 20
292.0
 30
0.0
 11
210.0
 21
282.0
 31
0.0
  0
LINE
  5
99
  8
BORDER
 10
210.0
 20
5.0
 30
0.0
 11
210.0
 21
10.0000000002
 31
0.0
  0
LINE
  5
9A
  8
BORDER
  6
CONTINUOUS
 10
15.0
 20
148.5
 30
0.0
 11
25.0
 21
148.5
 31
0.0
  0
LINE
  5
9B
  8
BORDER
  6
CONTINUOUS
 10
415.0
 20
148.5
 30
0.0
 11
405.0
 21
148.5
 31
0.0
  0
LINE
  5
9C
  8
BORDER
  6
CONTINUOUS
 10
60.0
 20
5.0
 30
0.0
 11
60.0
 21
10.0000000002
 31
0.0
  0
LINE
  5
9D
  8
BORDER
  6
CONTINUOUS
 10
110.0
 20
10.0000000002
 30
0.0
 11
110.0
 21
5.0
 31
0.0
  0
LINE
  5
9E
  8
BORDER
  6
CONTINUOUS
 10
160.0
 20
5.0
 30
0.0
 11
160.0
 21
10.0000000002
 31
0.0
  0
LINE
  5
9F
  8
BORDER
  6
CONTINUOUS
 10
260.0
 20
5.0
 30
0.0
 11
260.0
 21
10.0000000002
 31
0.0
  0
LINE
  5
A0
  8
BORDER
 10
347.0583276541998998
 20
24.7139900562000001
 30
0.0
 11
320.040650127899994
 21
24.7139900562000001
 31
0.0
  0
LINE
  5
A1
  8
BORDER
  6
CONTINUOUS
 10
398.2042978380000022
 20
10.1438084431999993
 30
0.0
 11
398.2042978380000022
 21
24.7139900562000001
 31
0.0
  0
LINE
  5
A2
  8
BORDER
  6
CONTINUOUS
 10
410.0042978380000136
 20
24.7139900562000001
 30
0.0
 11
347.0583276541998998
 21
24.7139900562000001
 31
0.0
  0
LINE
  5
A3
  8
BORDER
  6
CONTINUOUS
 10
383.2042978380000022
 20
10.1438084431999993
 30
0.0
 11
383.2042978380000022
 21
24.7139900562000001
 31
0.0
  0
LINE
  5
A4
  8
BORDER
 10
298.7189559447999727
 20
15.0092678530000008
 30
0.0
 11
310.7326990151000246
 21
15.0092678530000008
 31
0.0
  0
LINE
  5
A5
  8
BORDER
 10
290.040650127899994
 20
52.1438084431999869
 30
0.0
 11
410.040650127899994
 21
52.1438084431999869
 31
0.0
  0
LINE
  5
A6
  8
BORDER
  6
CONTINUOUS
 10
290.040650127899994
 20
52.1438084431999869
 30
0.0
 11
290.040650127899994
 21
10.1438084431999993
 31
0.0
  0
LINE
  5
A7
  8
BORDER
 10
347.0583276541998998
 20
52.1438084431999869
 30
0.0
 11
347.0583276541998998
 21
10.1438084431999993
 31
0.0
  0
LINE
  5
A8
  8
BORDER
  6
CONTINUOUS
 10
305.1601970150999819
 20
16.2592678530000008
 30
0.0
 11
305.1601970150999819
 21
13.7592678530000008
 31
0.0
  0
LINE
  5
A9
  8
BORDER
  6
CONTINUOUS
 10
305.1601970150999819
 20
13.7592678530000008
 30
0.0
 11
310.1601970150999819
 21
12.5092678530000008
 31
0.0
  0
LINE
  5
AA
  8
BORDER
  6
CONTINUOUS
 10
310.1601970150999819
 20
12.5092678530000008
 30
0.0
 11
310.1601970150999819
 21
17.5092678530000008
 31
0.0
  0
LINE
  5
AB
  8
BORDER
  6
CONTINUOUS
 10
310.1601970150999819
 20
17.5092678530000008
 30
0.0
 11
305.1601970150999819
 21
16.2592678530000008
 31
0.0
  0
LINE
  5
AC
  8
BORDER
 10
410.0902352790999998
 20
33.7139900561999966
 30
0.0
 11
347.0583276541998998
 21
33.7139900561999966
 31
0.0
  0
LINE
  5
AD
  8
BORDER
 10
320.040650127899994
 20
24.7139900562000001
 30
0.0
 11
290.0042978380000136
 21
24.7139900562000001
 31
0.0
  0
LINE
  5
AE
  8
BORDER
 10
302.2601970151000046
 20
18.1864561030000011
 30
0.0
 11
302.2601970151000046
 21
11.7327924701999997
 31
0.0
  0
LINE
  5
AF
  8
BORDER
 10
320.040650127899994
 20
24.7139900562000001
 30
0.0
 11
320.040650127899994
 21
10.1438084431999993
 31
0.0
  0
LINE
  5
B0
  8
TRIM
 10
5.0
 20
10.0
 30
0.0
 11
0.0
 21
10.0
 31
0.0
  0
LINE
  5
B1
  8
TRIM
 10
0.0
 20
10.0
 30
0.0
 11
0.0
 21
0.0
 31
0.0
  0
LINE
  5
B2
  8
TRIM
 10
0.0
 20
297.0
 30
0.0
 11
0.0
 21
287.0
 31
0.0
  0
LINE
  5
B3
  8
TRIM
 10
0.0
 20
287.0
 30
0.0
 11
5.0
 21
287.0
 31
0.0
  0
LINE
  5
B4
  8
TRIM
 10
5.0
 20
287.0
 30
0.0
 11
5.0
 21
292.0
 31
0.0
  0
LINE
  5
B5
  8
TRIM
 10
5.0
 20
292.0
 30
0.0
 11
10.0
 21
292.0
 31
0.0
  0
LINE
  5
B6
  8
TRIM
 10
10.0
 20
292.0
 30
0.0
 11
10.0
 21
297.0
 31
0.0
  0
LINE
  5
B7
  8
TRIM
 10
10.0
 20
297.0
 30
0.0
 11
0.0
 21
297.0
 31
0.0
  0
LINE
  5
B8
  8
TRIM
 10
420.0
 20
297.0
 30
0.0
 11
410.0
 21
297.0
 31
0.0
  0
LINE
  5
B9
  8
TRIM
 10
410.0
 20
297.0
 30
0.0
 11
410.0
 21
292.0
 31
0.0
  0
LINE
  5
BA
  8
BORDER
  6
CONTINUOUS
 10
360.0
 20
5.0
 30
0.0
 11
360.0
 21
10.0000000002
 31
0.0
  0
LINE
  5
BB
  8
BORDER
  6
CONTINUOUS
 10
310.0
 20
10.0000000002
 30
0.0
 11
310.0
 21
5.0
 31
0.0
  0
LINE
  5
BC
  8
TRIM
 10
410.0
 20
292.0
 30
0.0
 11
415.0
 21
292.0
 31
0.0
  0
LINE
  5
BD
  8
TRIM
 10
415.0
 20
287.0
 30
0.0
 11
420.0
 21
287.0
 31
0.0
  0
LINE
  5
BE
  8
TRIM
 10
420.0
 20
287.0
 30
0.0
 11
420.0
 21
297.0
 31
0.0
  0
LINE
  5
BF
  8
TRIM
 10
415.0
 20
292.0
 30
0.0
 11
415.0
 21
287.0
 31
0.0
  0
LINE
  5
C0
  8
TRIM
 10
410.0
 20
0.0
 30
0.0
 11
410.0
 21
5.0
 31
0.0
  0
LINE
  5
C1
  8
TRIM
 10
410.0
 20
5.0
 30
0.0
 11
415.0
 21
5.0
 31
0.0
  0
LINE
  5
C2
  8
TRIM
 10
415.0
 20
5.0
 30
0.0
 11
415.0
 21
10.0
 31
0.0
  0
LINE
  5
C3
  8
TRIM
 10
415.0
 20
10.0
 30
0.0
 11
420.0
 21
10.0
 31
0.0
  0
LINE
  5
C4
  8
TRIM
 10
420.0
 20
10.0
 30
0.0
 11
420.0
 21
0.0
 31
0.0
  0
LINE
  5
C5
  8
TRIM
 10
410.0
 20
0.0
 30
0.0
 11
420.0
 21
0.0
 31
0.0
  0
CIRCLE
  5
C6
  8
BORDER
  6
CONTINUOUS
 10
302.2601970151000046
 20
15.0092678530000008
 30
0.0
 40
1.250000000000119
  0
CIRCLE
  5
C7
  8
BORDER
  6
CONTINUOUS
 10
302.2601970151000046
 20
15.0092678530000008
 30
0.0
 40
2.4999999999999409
  0
INSERT
  5
C9
  8
0
  2
*U21
 10
0.0
 20
0.0
 30
0.0
  0
INSERT
  5
CA
  8
0
  2
*U22
 10
0.0
 20
0.0
 30
0.0
  0
INSERT
  5
CB
  8
0
  2
*U23
 10
0.0
 20
0.0
 30
0.0
  0
INSERT
  5
CC
  8
0
  2
*U24
 10
0.0
 20
0.0
 30
0.0
  0
INSERT
  5
CD
  8
0
  2
*U25
 10
0.0
 20
0.0
 30
0.0
  0
INSERT
  5
CE
  8
0
  2
*U26
 10
0.0
 20
0.0
 30
0.0
  0
INSERT
  5
CF
  8
0
  2
*U27
 10
0.0
 20
0.0
 30
0.0
  0
INSERT
  5
D0
  8
0
  2
*U28
 10
0.0
 20
0.0
 30
0.0
  0
INSERT
  5
D1
  8
0
  2
*U29
 10
0.0
 20
0.0
 30
0.0
  0
INSERT
  5
D2
  8
0
  2
*U30
 10
0.0
 20
0.0
 30
0.0
  0
INSERT
  5
D3
  8
0
  2
*U31
 10
0.0
 20
0.0
 30
0.0
  0
INSERT
  5
D4
  8
0
  2
*U32
 10
0.0
 20
0.0
 30
0.0
  0
INSERT
  5
D5
  8
0
  2
*U33
 10
0.0
 20
0.0
 30
0.0
  0
INSERT
  5
D6
  8
0
  2
*U34
 10
0.0
 20
0.0
 30
0.0
  0
INSERT
  5
D7
  8
0
  2
*U35
 10
0.0
 20
0.0
 30
0.0
  0
INSERT
  5
D8
  8
0
  2
*U36
 10
0.0
 20
0.0
 30
0.0
  0
INSERT
  5
D9
  8
0
  2
*U37
 10
0.0
 20
0.0
 30
0.0
  0
INSERT
  5
DA
  8
0
  2
*U38
 10
0.0
 20
0.0
 30
0.0
  0
INSERT
  5
DB
  8
0
  2
*U39
 10
0.0
 20
0.0
 30
0.0
  0
INSERT
  5
DC
  8
0
  2
*U40
 10
0.0
 20
0.0
 30
0.0
  0
INSERT
  5
DD
  8
0
  2
*U41
 10
0.0
 20
0.0
 30
0.0
  0
INSERT
  5
DE
  8
0
  2
*U42
 10
0.0
 20
0.0
 30
0.0
  0
INSERT
  5
DF
  8
0
  2
*U43
 10
0.0
 20
0.0
 30
0.0
  0
INSERT
  5
E0
  8
0
  2
*U44
 10
0.0
 20
0.0
 30
0.0
  0
INSERT
  5
E1
  8
0
  2
*U45
 10
0.0
 20
0.0
 30
0.0
  0
INSERT
  5
E2
  8
0
  2
*U46
 10
0.0
 20
0.0
 30
0.0
  0
INSERT
  5
EB
  8
BORDER
  2
SW_NOTE_0
 10
288.9370233367000083
 20
70.7677553922999749
 30
0.0
  0
INSERT
  5
EC
  8
0
  2
*U51
 10
0.0
 20
0.0
 30
0.0
  0
INSERT
  5
EE
  8
0
  2
*U52
 10
0.0
 20
0.0
 30
0.0
  0
INSERT
  5
EF
  8
0
  2
*U53
 10
0.0
 20
0.0
 30
0.0
  0
INSERT
  5
F0
  8
0
  2
*U54
 10
0.0
 20
0.0
 30
0.0
  0
INSERT
  5
F1
  8
0
  2
*U55
 10
0.0
 20
0.0
 30
0.0
  0
INSERT
  5
F2
  8
0
  2
*U56
 10
0.0
 20
0.0
 30
0.0
  0
INSERT
  5
F3
  8
0
  2
*U57
 10
0.0
 20
0.0
 30
0.0
  0
INSERT
  5
F4
  8
0
  2
*U58
 10
0.0
 20
0.0
 30
0.0
  0
INSERT
  5
F5
  8
0
  2
*U59
 10
0.0
 20
0.0
 30
0.0
  0
INSERT
  5
F6
  8
0
  2
*U60
 10
0.0
 20
0.0
 30
0.0
  0
INSERT
  5
F7
  8
0
  2
*U61
 10
0.0
 20
0.0
 30
0.0
  0
INSERT
  5
F8
  8
0
  2
*U62
 10
0.0
 20
0.0
 30
0.0
  0
INSERT
  5
F9
  8
0
  2
*U63
 10
0.0
 20
0.0
 30
0.0
  0
INSERT
  5
FA
  8
0
  2
*U64
 10
0.0
 20
0.0
 30
0.0
  0
INSERT
  5
FB
  8
0
  2
*U65
 10
0.0
 20
0.0
 30
0.0
  0
INSERT
  5
FC
  8
0
  2
*U66
 10
0.0
 20
0.0
 30
0.0
  0
INSERT
  5
FD
  8
0
  2
*U67
 10
0.0
 20
0.0
 30
0.0
  0
INSERT
  5
FE
  8
0
  2
*U68
 10
0.0
 20
0.0
 30
0.0
  0
INSERT
  5
FF
  8
0
  2
*U69
 10
0.0
 20
0.0
 30
0.0
  0
INSERT
  5
100
  8
0
  2
*U70
 10
0.0
 20
0.0
 30
0.0
  0
INSERT
  5
101
  8
0
  2
*U71
 10
0.0
 20
0.0
 30
0.0
  0
INSERT
  5
107
  8
BORDER
  2
SW_NOTE_1
 10
291.5760125023999763
 20
21.5520930373000006
 30
0.0
  0
INSERT
  5
108
  8
0
  2
*U74
 10
0.0
 20
0.0
 30
0.0
  0
INSERT
  5
10A
  8
0
  2
*U75
 10
0.0
 20
0.0
 30
0.0
  0
INSERT
  5
10B
  8
0
  2
*U76
 10
0.0
 20
0.0
 30
0.0
  0
INSERT
  5
10C
  8
0
  2
*U77
 10
0.0
 20
0.0
 30
0.0
  0
INSERT
  5
10D
  8
0
  2
*U78
 10
0.0
 20
0.0
 30
0.0
  0
CIRCLE
  5
10E
  8
0
  6
CONTINUOUS
 62
     7
 10
194.2525209231999952
 20
194.0167299164999974
 30
0.0
 40
2.1000000000000232
  0
CIRCLE
  5
10F
  8
0
  6
CONTINUOUS
 62
     7
 10
239.2525209231999952
 20
194.0167299164999974
 30
0.0
 40
2.099999999999993
  0
CIRCLE
  5
110
  8
0
  6
CONTINUOUS
 62
     7
 10
239.2525209231999952
 20
164.0167299164999974
 30
0.0
 40
2.099999999999993
  0
CIRCLE
  5
111
  8
0
  6
CONTINUOUS
 62
     7
 10
194.2525209231999952
 20
164.0167299164999974
 30
0.0
 40
2.1000000000000232
  0
LINE
  5
112
  8
0
  6
CONTINUOUS
 62
     7
 10
183.2525209231999952
 20
186.5167299164999974
 30
0.0
 11
180.2525209231999952
 21
186.5167299164999974
 31
0.0
  0
LINE
  5
113
  8
0
  6
CONTINUOUS
 62
     7
 10
180.2525209231999952
 20
186.5167299164999974
 30
0.0
 11
180.2525209231999952
 21
171.5167299164999974
 31
0.0
  0
LINE
  5
114
  8
0
  6
CONTINUOUS
 62
     7
 10
180.2525209231999952
 20
171.5167299164999974
 30
0.0
 11
183.2525209231999952
 21
171.5167299164999974
 31
0.0
  0
LINE
  5
115
  8
0
  6
CONTINUOUS
 62
     7
 10
183.2525209231999952
 20
171.5167299164999974
 30
0.0
 11
183.2525209231999952
 21
186.5167299164999974
 31
0.0
  0
LINE
  5
116
  8
0
  6
CONTINUOUS
 62
     7
 10
209.2525209231999952
 20
212.5167299164999974
 30
0.0
 11
224.2525209231999952
 21
212.5167299164999974
 31
0.0
  0
LINE
  5
117
  8
0
  6
CONTINUOUS
 62
     7
 10
224.2525209231999952
 20
212.5167299164999974
 30
0.0
 11
224.2525209231999952
 21
215.5167299164999974
 31
0.0
  0
LINE
  5
118
  8
0
  6
CONTINUOUS
 62
     7
 10
224.2525209231999952
 20
215.5167299164999974
 30
0.0
 11
209.2525209231999952
 21
215.5167299164999974
 31
0.0
  0
LINE
  5
119
  8
0
  6
CONTINUOUS
 62
     7
 10
209.2525209231999952
 20
215.5167299164999974
 30
0.0
 11
209.2525209231999952
 21
212.5167299164999974
 31
0.0
  0
CIRCLE
  5
11A
  8
0
  6
CONTINUOUS
 62
     7
 10
216.7525209231999952
 20
154.0167299164999974
 30
0.0
 40
2.5
  0
LINE
  5
11B
  8
0
  6
CONTINUOUS
 62
     7
 10
204.2525209231999952
 20
224.0167299164999974
 30
0.0
 11
181.7525209231999952
 21
224.0167299164999974
 31
0.0
  0
LINE
  5
11C
  8
0
  6
CONTINUOUS
 62
     7
 10
204.2525209231999952
 20
224.0167299164999974
 30
0.0
 11
204.2525209231999952
 21
221.0167299164999974
 31
0.0
  0
LINE
  5
11D
  8
0
  6
CONTINUOUS
 62
     7
 10
204.2525209231999952
 20
221.0167299164999974
 30
0.0
 11
229.2525209231999952
 21
221.0167299164999974
 31
0.0
  0
LINE
  5
11E
  8
0
  6
CONTINUOUS
 62
     7
 10
229.2525209231999952
 20
224.0167299164999974
 30
0.0
 11
229.2525209231999952
 21
221.0167299164999974
 31
0.0
  0
LINE
  5
11F
  8
0
  6
CONTINUOUS
 62
     7
 10
251.7525209231999952
 20
224.0167299164999974
 30
0.0
 11
229.2525209231999952
 21
224.0167299164999974
 31
0.0
  0
ARC
  5
120
  8
0
  6
CONTINUOUS
 62
     7
 10
251.7525209231999952
 20
214.0167299164999974
 30
0.0
 40
10.0
 50
0.0
 51
90.0
  0
LINE
  5
121
  8
0
  6
CONTINUOUS
 62
     7
 10
261.7525209231999952
 20
144.0167299164999974
 30
0.0
 11
261.7525209231999952
 21
214.0167299164999974
 31
0.0
  0
ARC
  5
122
  8
0
  6
CONTINUOUS
 62
     7
 10
251.7525209231999952
 20
144.0167299164999974
 30
0.0
 40
10.0000000000000302
 50
270.0
 51
0.0
  0
LINE
  5
123
  8
0
  6
CONTINUOUS
 62
     7
 10
251.7525209231999952
 20
134.0167299164999974
 30
0.0
 11
181.7525209231999952
 21
134.0167299164999974
 31
0.0
  0
ARC
  5
124
  8
0
  6
CONTINUOUS
 62
     7
 10
181.7525209231999952
 20
144.0167299164999974
 30
0.0
 40
10.0000000000000302
 50
180.0
 51
270.0
  0
LINE
  5
125
  8
0
  6
CONTINUOUS
 62
     7
 10
171.7525209231999952
 20
144.0167299164999974
 30
0.0
 11
171.7525209231999952
 21
166.5167299164999974
 31
0.0
  0
LINE
  5
126
  8
0
  6
CONTINUOUS
 62
     7
 10
171.7525209231999952
 20
166.5167299164999974
 30
0.0
 11
174.7525209231999952
 21
166.5167299164999974
 31
0.0
  0
LINE
  5
127
  8
0
  6
CONTINUOUS
 62
     7
 10
174.7525209231999952
 20
191.5167299164999974
 30
0.0
 11
174.7525209231999952
 21
166.5167299164999974
 31
0.0
  0
LINE
  5
128
  8
0
  6
CONTINUOUS
 62
     7
 10
171.7525209231999952
 20
191.5167299164999974
 30
0.0
 11
174.7525209231999952
 21
191.5167299164999974
 31
0.0
  0
LINE
  5
129
  8
0
  6
CONTINUOUS
 62
     7
 10
171.7525209231999952
 20
191.5167299164999974
 30
0.0
 11
171.7525209231999952
 21
214.0167299164999974
 31
0.0
  0
ARC
  5
12A
  8
0
  6
CONTINUOUS
 62
     7
 10
181.7525209231999952
 20
214.0167299164999974
 30
0.0
 40
10.0000000000000302
 50
90.0
 51
180.0
  0
DIMENSION
  5
12B
  8
BORDER
  2
_D
 10
261.7525209231999952
 20
234.0167299164999974
 30
0.0
 11
223.9093395630999908
 21
234.0167299164999974
 31
0.0
 70
   128
  1
<>
 13
171.7525209231999952
 23
214.0167299164999974
 33
0.0
 14
261.7525209231999952
 24
214.0167299164999974
 34
0.0
  0
DIMENSION
  5
136
  8
BORDER
  2
_D_1
 10
161.7525209231999952
 20
134.0167299164999974
 30
0.0
 11
161.7525209231999952
 21
177.1892617869999924
 31
0.0
 70
   128
  1
<>
 13
181.7525209231999952
 23
224.0167299164999974
 33
0.0
 14
181.7525209231999952
 24
134.0167299164999974
 34
0.0
 50
90.0
  0
DIMENSION
  5
140
  8
BORDER
  2
_D_2
 10
237.4588931989000002
 20
192.9245304902999862
 30
0.0
 11
281.8626425878999839
 21
215.9689872067999943
 31
0.0
 70
   131
  1
4x<>
 15
241.0461486474999901
 25
195.1089293427000086
 35
0.0
 40
0.0
  0
DIMENSION
  5
14F
  8
BORDER
  2
_D_3
 10
216.0192024478999997
 20
156.4067600447000075
 30
0.0
 11
235.7105378971000107
 21
123.5595090106999976
 31
0.0
 70
   131
  1
<>
 15
217.4858393984000031
 25
151.6266997881999998
 35
0.0
 40
0.0
  0
INSERT
  5
164
  8
BORDER
  2
SW_CENTERMARKSYMBOL_0
 10
194.2525209231999952
 20
194.0167299164999974
 30
0.0
  0
INSERT
  5
170
  8
BORDER
  2
SW_CENTERMARKSYMBOL_1
 10
239.2525209231999952
 20
194.0167299164999974
 30
0.0
  0
INSERT
  5
17C
  8
BORDER
  2
SW_CENTERMARKSYMBOL_2
 10
239.2525209231999952
 20
164.0167299164999974
 30
0.0
  0
INSERT
  5
188
  8
BORDER
  2
SW_CENTERMARKSYMBOL_3
 10
194.2525209231999952
 20
164.0167299164999974
 30
0.0
  0
INSERT
  5
194
  8
BORDER
  2
SW_CENTERMARKSYMBOL_4
 10
216.7525209231999952
 20
154.0167299164999974
 30
0.0
  0
INSERT
  5
25C
  8
AM_5
  2
*S16
 10
0.0
 20
0.0
 30
0.0
  0
ENDSEC
  0
EOF
