  0
SECTION
  2
HEADER
  9
$ACADVER
  1
AC1009
  9
$INSBASE
 10
0.0
 20
0.0
 30
0.0
  9
$EXTMIN
 10
0.0
 20
0.0
 30
0.0
  9
$EXTMAX
 10
1189.0
 20
841.0
 30
0.0
  9
$LIMMIN
 10
0.0
 20
0.0
  9
$LIMMAX
 10
1189.0
 20
841.0
  9
$ORTHOMODE
 70
     0
  9
$REGENMODE
 70
     1
  9
$FILLMODE
 70
     1
  9
$QTEXTMODE
 70
     0
  9
$MIRRTEXT
 70
     1
  9
$DRAGMODE
 70
     2
  9
$LTSCALE
 40
1.0
  9
$OSMODE
 70
    37
  9
$ATTMODE
 70
     1
  9
$TEXTSIZE
 40
3.1749999999999989
  9
$TRACEWID
 40
1.0
  9
$TEXTSTYLE
  7
STANDARD
  9
$CLAYER
  8
0
  9
$CELTYPE
  6
BYLAYER
  9
$CECOLOR
 62
   256
  9
$DIMSCALE
 40
1.0
  9
$DIMASZ
 40
3.302
  9
$DIMEXO
 40
1.27
  9
$DIMDLI
 40
3.75
  9
$DIMRND
 40
0.0
  9
$DIMDLE
 40
0.0
  9
$DIMEXE
 40
3.1749999999999989
  9
$DIMTP
 40
0.0
  9
$DIMTM
 40
0.0
  9
$DIMTXT
 40
8.4666666667000001
  9
$DIMCEN
 40
2.5
  9
$DIMTSZ
 40
0.0
  9
$DIMTOL
 70
     0
  9
$DIMLIM
 70
     0
  9
$DIMTIH
 70
     1
  9
$DIMTOH
 70
     1
  9
$DIMSE1
 70
     0
  9
$DIMSE2
 70
     0
  9
$DIMTAD
 70
     0
  9
$DIMZIN
 70
     1
  9
$DIMBLK
  1

  9
$DIMASO
 70
     1
  9
$DIMSHO
 70
     1
  9
$DIMPOST
  1

  9
$DIMAPOST
  1

  9
$DIMALT
 70
     0
  9
$DIMALTD
 70
     3
  9
$DIMALTF
 40
0.0393700787
  9
$DIMLFAC
 40
1.0
  9
$DIMTOFL
 70
     1
  9
$DIMTVP
 40
0.0
  9
$DIMTIX
 70
     0
  9
$DIMSOXD
 70
     0
  9
$DIMSAH
 70
     0
  9
$DIMBLK1
  1

  9
$DIMBLK2
  1

  9
$DIMSTYLE
  2
ISO-25
  9
$DIMCLRD
 70
     0
  9
$DIMCLRE
 70
     0
  9
$DIMCLRT
 70
     0
  9
$DIMTFAC
 40
1.0
  9
$DIMGAP
 40
1.524
  9
$LUNITS
 70
     2
  9
$LUPREC
 70
     2
  9
$SKETCHINC
 40
1.0
  9
$FILLETRAD
 40
10.0
  9
$AUNITS
 70
     0
  9
$AUPREC
 70
     2
  9
$MENU
  1
.
  9
$ELEVATION
 40
0.0
  9
$PELEVATION
 40
0.0
  9
$THICKNESS
 40
0.0
  9
$LIMCHECK
 70
     0
  9
$BLIPMODE
 70
     0
  9
$CHAMFERA
 40
0.0
  9
$CHAMFERB
 40
0.0
  9
$SKPOLY
 70
     0
  9
$TDCREATE
 40
2459583.7199884261935949
  9
$TDUPDATE
 40
2459584.5260069449432194
  9
$TDINDWG
 40
0.0245139005
  9
$TDUSRTIMER
 40
0.0245139005
  9
$USRTIMER
 70
     1
  9
$ANGBASE
 50
0.0
  9
$ANGDIR
 70
     0
  9
$PDMODE
 70
     0
  9
$PDSIZE
 40
-1.0
  9
$PLINEWID
 40
0.0
  9
$COORDS
 70
     1
  9
$SPLFRAME
 70
     0
  9
$SPLINETYPE
 70
     6
  9
$SPLINESEGS
 70
     8
  9
$ATTDIA
 70
     1
  9
$ATTREQ
 70
     1
  9
$HANDLING
 70
     1
  9
$HANDSEED
  5
780
  9
$SURFTAB1
 70
     6
  9
$SURFTAB2
 70
     6
  9
$SURFTYPE
 70
     6
  9
$SURFU
 70
     6
  9
$SURFV
 70
     6
  9
$UCSNAME
  2

  9
$UCSORG
 10
0.0
 20
0.0
 30
0.0
  9
$UCSXDIR
 10
1.0
 20
0.0
 30
0.0
  9
$UCSYDIR
 10
0.0
 20
1.0
 30
0.0
  9
$PUCSNAME
  2

  9
$PUCSORG
 10
0.0
 20
0.0
 30
0.0
  9
$PUCSXDIR
 10
1.0
 20
0.0
 30
0.0
  9
$PUCSYDIR
 10
0.0
 20
1.0
 30
0.0
  9
$USERI1
 70
     0
  9
$USERI2
 70
     0
  9
$USERI3
 70
     0
  9
$USERI4
 70
     0
  9
$USERI5
 70
     0
  9
$USERR1
 40
0.0
  9
$USERR2
 40
0.0
  9
$USERR3
 40
0.0
  9
$USERR4
 40
0.0
  9
$USERR5
 40
0.0
  9
$WORLDVIEW
 70
     1
  9
$SHADEDGE
 70
     3
  9
$SHADEDIF
 70
    70
  9
$TILEMODE
 70
     1
  9
$MAXACTVP
 70
    64
  9
$PLIMCHECK
 70
     0
  9
$PEXTMIN
 10
1.0000000000000000E+20
 20
1.0000000000000000E+20
 30
1.0000000000000000E+20
  9
$PEXTMAX
 10
-1.0000000000000000E+20
 20
-1.0000000000000000E+20
 30
-1.0000000000000000E+20
  9
$PLIMMIN
 10
0.0
 20
0.0
  9
$PLIMMAX
 10
420.0
 20
297.0
  9
$UNITMODE
 70
     0
  9
$VISRETAIN
 70
     1
  9
$PLINEGEN
 70
     0
  9
$PSLTSCALE
 70
     1
  0
ENDSEC
  0
SECTION
  2
TABLES
  0
TABLE
  2
VPORT
 70
     1
  0
VPORT
  2
*ACTIVE
 70
     0
 10
0.0
 20
0.0
 11
1.0
 21
1.0
 12
1085.7152371681459044
 22
42.7055799381440124
 13
0.0
 23
0.0
 14
10.0
 24
10.0
 15
10.0
 25
10.0
 16
0.0
 26
0.0
 36
1.0
 17
0.0
 27
0.0
 37
0.0
 40
83.2635287257218124
 41
2.4830729166666661
 42
50.0
 43
0.0
 44
0.0
 50
0.0
 51
0.0
 71
     0
 72
  2000
 73
     1
 74
     3
 75
     0
 76
     0
 77
     0
 78
     0
  0
ENDTAB
  0
TABLE
  2
LTYPE
 70
    18
  0
LTYPE
  2
CONTINUOUS
 70
     0
  3
Solid line
 72
    65
 73
     0
 40
0.0
  0
LTYPE
  2
HIDDEN
 70
     0
  3
Hidden __ __ __ __ __ __ __ __ __ __ __ __ __ __
 72
    65
 73
     2
 40
1.905
 49
1.27
 49
-0.635
  0
LTYPE
  2
PHANTOM
 70
     0
  3
Phantom ______  __  __  ______  __  __  ______
 72
    65
 73
     6
 40
12.6999999999999993
 49
6.3499999999999988
 49
-1.27
 49
1.27
 49
-1.27
 49
1.27
 49
-1.27
  0
LTYPE
  2
CENTER
 70
     0
  3
Center ____ _ ____ _ ____ _ ____ _ ____ _ ____
 72
    65
 73
     4
 40
10.1600000000000001
 49
6.3499999999999988
 49
-1.27
 49
1.27
 49
-1.27
  0
LTYPE
  2
CENTERX2
 70
     0
  3
Center (2x) ________  __  ________  __  _____
 72
    65
 73
     4
 40
20.3200000000000003
 49
12.6999999999999993
 49
-2.54
 49
2.54
 49
-2.54
  0
LTYPE
  2
DOT2
 70
     0
  3
Dot (.5x) ........................................
 72
    65
 73
     2
 40
0.635
 49
0.0
 49
-0.635
  0
LTYPE
  2
PHANTOM2
 70
     0
  3
Phantom (.5x) ___ _ _ ___ _ _ ___ _ _ ___ _ _
 72
    65
 73
     6
 40
31.75
 49
15.875
 49
-3.1749999999999989
 49
3.1749999999999989
 49
-3.1749999999999989
 49
3.1749999999999989
 49
-3.1749999999999989
  0
LTYPE
  2
AM_ISO02W050
 70
     0
  3
__ __ __ __ __ __ __ __ __ __ __ __ __ __ __
 72
    65
 73
     2
 40
7.5
 49
6.0
 49
-1.5
  0
LTYPE
  2
AM_ISO08W050
 70
     0
  3
____ . ____ . ____ . ____ . ____ . ____ . ____
 72
    65
 73
     4
 40
18.0
 49
12.0
 49
-1.5
 49
3.0
 49
-1.5
  0
LTYPE
  2
AM_ISO09W050
 70
     0
  3
_____ . . _____ . . _____ . . ____ .. ____
 72
    65
 73
     6
 40
22.5
 49
12.0
 49
-1.5
 49
3.0
 49
-1.5
 49
3.0
 49
-1.5
  0
LTYPE
  2
AMCONSTR
 70
     0
  3
_______________________
 72
    65
 73
     2
 40
9999.0
 49
9999.0
 49
0.0
  0
LTYPE
  2
AM_ISO08W050X2
 70
     0
  3
__ . __ . __ . __ . __ . __
 72
    65
 73
     4
 40
9.0
 49
6.0
 49
-0.75
 49
1.5
 49
-0.75
  0
LTYPE
  2
AM_ISO02W050X2
 70
     0
  3
 _ _ _ _ _ _ _ _ _ _ _ _
 72
    65
 73
     2
 40
3.75
 49
3.0
 49
-0.75
  0
LTYPE
  2
AMZIGZAG
 70
     0
  3
/\/-/\/-/\/-/\/-/\/-/\/
 72
    65
 73
     2
 40
11.0000999999999998
 49
0.0001
 49
-11.0
  0
LTYPE
  2
ACISOWELD
 70
     0
  3
_ _ _ _ _
 72
    65
 73
     2
 40
2.0
 49
2.0
 49
-1.0
  0
LTYPE
  2
ACISOTGL
 70
     0
  3
_ _ _ _ _
 72
    65
 73
     2
 40
3.0
 49
2.0
 49
-1.0
  0
LTYPE
  2
ACISOTGB
 70
     0
  3
__ . . __ . .
 72
    65
 73
     6
 40
9.0
 49
4.0
 49
-1.0
 49
1.0
 49
-1.0
 49
1.0
 49
-1.0
  0
ENDTAB
  0
TABLE
  2
LAYER
 70
     6
  0
LAYER
  2
0
 70
     0
 62
     7
  6
CONTINUOUS
  0
LAYER
  2
BORDER
 70
     0
 62
     7
  6
CONTINUOUS
  0
LAYER
  2
CONSTRUCTION
 70
     0
 62
  -136
  6
CONTINUOUS
  0
LAYER
  2
TRIM
 70
     0
 62
     7
  6
CONTINUOUS
  0
LAYER
  2
TEXT
 70
     0
 62
     7
  6
CONTINUOUS
  0
LAYER
  2
DIMENSIONS
 70
     0
 62
     5
  6
CONTINUOUS
  0
ENDTAB
  0
TABLE
  2
STYLE
 70
     9
  0
STYLE
  2
STANDARD
 70
     0
 40
0.0
 41
1.0
 50
0.0
 71
     0
 42
3.1749999999999989
  3
txt
  4

  0
STYLE
  2
SLDTEXTSTYLE0
 70
     0
 40
0.0
 41
0.75
 50
0.0
 71
     0
 42
3.1749999999999989
  3
TXT
  4

  0
STYLE
  2
SLDTEXTSTYLE1
 70
     0
 40
0.0
 41
0.605
 50
0.0
 71
     0
 42
3.1749999999999989
  3
TXT
  4

  0
STYLE
  2
SLDTEXTSTYLE2
 70
     0
 40
0.0
 41
0.57
 50
0.0
 71
     0
 42
3.1749999999999989
  3
TXT
  4

  0
STYLE
  2
SLDTEXTSTYLE3
 70
     0
 40
0.0
 41
0.605
 50
0.0
 71
     0
 42
3.1749999999999989
  3
TXT
  4
bigfont
  0
STYLE
  2

 70
     1
 40
0.0
 41
1.0
 50
0.0
 71
     0
 42
3.1749999999999989
  3
genltshp.shx
  4

  0
STYLE
  2
ACISOTS
 70
     0
 40
0.0
 41
1.0
 50
0.0
 71
     0
 42
3.1749999999999989
  3
isocp.shx
  4

  0
STYLE
  2
ACISOGDT
 70
     0
 40
0.0
 41
1.0
 50
0.0
 71
     0
 42
3.1749999999999989
  3
amgdt.shx
  4

  0
STYLE
  2
MtXpl_MS_PGothic
 70
     0
 40
0.0
 41
1.0
 50
0.0
 71
     0
 42
3.1749999999999989
  3
txt
  4

  0
ENDTAB
  0
TABLE
  2
VIEW
 70
     0
  0
ENDTAB
  0
TABLE
  2
UCS
 70
     0
  0
ENDTAB
  0
TABLE
  2
APPID
 70
    10
  0
APPID
  2
ACAD
 70
     0
  0
APPID
  2
MCAD_NO_VIS
 70
     0
  0
APPID
  2
ACAD_TEMP_GRAPHIC
 70
     0
  0
APPID
  2
ACATTRIBSERVICES
 70
     0
  0
APPID
  2
DESIGNERASSEMBLIES
 70
     0
  0
APPID
  2
ACAD_DSTYLE_DIMJAG
 70
     0
  0
APPID
  2
ACAD_DSTYLE_DIMBREAK
 70
     0
  0
APPID
  2
ACAD_NAV_VCDISPLAY
 70
     0
  0
APPID
  2
ACAD_EXEMPT_FROM_CAD_STANDARDS
 70
     0
  0
APPID
  2
ACAD_MLEADERVER
 70
     0
  0
ENDTAB
  0
TABLE
  2
DIMSTYLE
 70
    13
  0
DIMSTYLE
  2
ISO-25
 70
     0
  3

  4

  5

  6

  7

 40
1.0
 41
2.5
 42
0.625
 43
3.75
 44
1.25
 45
0.0
 46
0.0
 47
0.0
 48
0.0
140
2.5
141
2.5
142
0.0
143
0.0393700787
144
1.0
145
0.0
146
1.0
147
0.625
 71
     0
 72
     0
 73
     0
 74
     0
 75
     0
 76
     0
 77
     1
 78
     8
170
     0
171
     3
172
     1
173
     0
174
     0
175
     0
176
     0
177
     0
178
     0
  0
DIMSTYLE
  2
SLDDIMSTYLE0
 70
     0
  3

  4

  5

  6

  7

 40
1.0
 41
3.302
 42
0.0625
 43
0.38
 44
0.0
 45
0.000000001
 46
0.0
 47
0.0
 48
0.0
140
6.3499999999999988
141
0.0
142
0.0
143
25.3999999999999986
144
1.0
145
0.0
146
1.0
147
1.587499999999999
 71
     0
 72
     0
 73
     1
 74
     1
 75
     0
 76
     0
 77
     0
 78
     4
170
     0
171
     2
172
     0
173
     1
174
     0
175
     0
176
     0
177
     0
178
     0
  0
DIMSTYLE
  2
SLDDIMSTYLE1
 70
     0
  3

  4

  5

  6

  7

 40
1.0
 41
3.302
 42
0.0625
 43
0.38
 44
0.0
 45
0.000000001
 46
0.0
 47
0.0
 48
0.0
140
6.3499999999999988
141
0.09
142
0.0
143
25.3999999999999986
144
1.0
145
0.0
146
1.0
147
1.587499999999999
 71
     0
 72
     0
 73
     1
 74
     1
 75
     0
 76
     0
 77
     0
 78
     4
170
     0
171
     2
172
     0
173
     1
174
     0
175
     0
176
     0
177
     0
178
     0
  0
DIMSTYLE
  2
SLDDIMSTYLE2
 70
     0
  3

  4

  5

  6

  7

 40
1.0
 41
3.302
 42
0.0625
 43
0.38
 44
0.0
 45
0.000000001
 46
0.0
 47
0.0
 48
0.0
140
6.3499999999999988
141
0.0
142
0.0
143
25.3999999999999986
144
1.0
145
0.0
146
1.0
147
1.587499999999999
 71
     0
 72
     0
 73
     1
 74
     1
 75
     0
 76
     0
 77
     0
 78
     4
170
     0
171
     2
172
     0
173
     1
174
     0
175
     0
176
     0
177
     0
178
     0
  0
DIMSTYLE
  2
SLDDIMSTYLE3
 70
     0
  3

  4

  5

  6

  7

 40
1.0
 41
3.302
 42
0.0625
 43
0.38
 44
0.0
 45
0.000000001
 46
0.0
 47
0.0
 48
0.0
140
6.3499999999999988
141
0.0
142
0.0
143
25.3999999999999986
144
1.0
145
0.0
146
1.0
147
1.587499999999999
 71
     0
 72
     0
 73
     1
 74
     1
 75
     0
 76
     0
 77
     0
 78
     4
170
     0
171
     2
172
     0
173
     1
174
     0
175
     0
176
     0
177
     0
178
     0
  0
DIMSTYLE
  2
SLDDIMSTYLE4
 70
     0
  3

  4

  5

  6
DOT
  7
DOT
 40
1.0
 41
1.016
 42
0.0625
 43
0.38
 44
0.0
 45
0.000000001
 46
0.0
 47
0.0
 48
0.0
140
0.18
141
0.09
142
0.0
143
25.3999999999999986
144
1.0
145
0.0
146
1.016
147
0.0
 71
     0
 72
     0
 73
     1
 74
     1
 75
     0
 76
     0
 77
     0
 78
     0
170
     0
171
     2
172
     0
173
     1
174
     0
175
     0
176
     0
177
     0
178
     0
  0
DIMSTYLE
  2
AM_ISO
 70
     0
  3

  4
"
  5

  6

  7

 40
1.0
 41
3.5
 42
1.0
 43
10.0
 44
1.0
 45
0.0
 46
0.0
 47
0.1
 48
0.1
140
3.5
141
0.0
142
0.0
143
0.0393701
144
1.0
145
0.0
146
0.71
147
1.5
 71
     0
 72
     0
 73
     0
 74
     0
 75
     0
 76
     0
 77
     1
 78
     8
170
     0
171
     2
172
     1
173
     0
174
     0
175
     0
176
   256
177
   256
178
     2
  0
DIMSTYLE
  2
AM_ISO$3
 70
     0
  3

  4
"
  5

  6

  7

 40
1.0
 41
3.5
 42
1.0
 43
10.0
 44
1.0
 45
0.0
 46
0.0
 47
0.1
 48
0.1
140
3.5
141
0.0
142
0.0
143
0.0393701
144
1.0
145
0.0
146
0.71
147
1.5
 71
     0
 72
     0
 73
     0
 74
     1
 75
     0
 76
     0
 77
     1
 78
     8
170
     0
171
     2
172
     0
173
     0
174
     0
175
     0
176
   256
177
   256
178
     2
  0
DIMSTYLE
  2
AM_ISO$4
 70
     0
  3

  4
"
  5

  6

  7

 40
1.0
 41
3.5
 42
1.0
 43
10.0
 44
1.0
 45
0.0
 46
0.0
 47
0.1
 48
0.1
140
3.5
141
0.0
142
0.0
143
0.0393701
144
1.0
145
0.0
146
0.71
147
1.5
 71
     0
 72
     0
 73
     0
 74
     1
 75
     0
 76
     0
 77
     1
 78
     8
170
     0
171
     2
172
     0
173
     0
174
     0
175
     0
176
   256
177
   256
178
     2
  0
DIMSTYLE
  2
AM_ISO$6
 70
     0
  3

  4
"
  5

  6

  7

 40
1.0
 41
3.5
 42
1.0
 43
10.0
 44
1.0
 45
0.0
 46
0.0
 47
0.1
 48
0.1
140
3.5
141
0.0
142
0.0
143
0.0393701
144
1.0
145
0.0
146
0.71
147
1.5
 71
     0
 72
     0
 73
     0
 74
     0
 75
     0
 76
     0
 77
     0
 78
     8
170
     0
171
     2
172
     1
173
     0
174
     0
175
     0
176
   256
177
   256
178
     2
  0
DIMSTYLE
  2
AM_ISO$7
 70
     0
  3

  4
"
  5

  6

  7

 40
1.0
 41
3.5
 42
1.0
 43
10.0
 44
1.0
 45
0.0
 46
0.0
 47
0.1
 48
0.1
140
3.5
141
0.0
142
0.0
143
0.0393701
144
1.0
145
0.0
146
0.71
147
1.5
 71
     0
 72
     0
 73
     0
 74
     0
 75
     0
 76
     0
 77
     1
 78
     8
170
     0
171
     2
172
     1
173
     0
174
     0
175
     0
176
   256
177
   256
178
     2
  0
DIMSTYLE
  2
AM_ISO$SF
 70
     0
  3

  4
"
  5

  6

  7

 40
1.0
 41
3.5
 42
1.0
 43
10.0
 44
1.0
 45
0.0
 46
0.0
 47
0.1
 48
0.1
140
3.5
141
0.0
142
0.0
143
0.0393701
144
1.0
145
0.0
146
0.71
147
1.5
 71
     0
 72
     0
 73
     0
 74
     0
 75
     1
 76
     1
 77
     1
 78
     8
170
     0
171
     2
172
     1
173
     0
174
     0
175
     0
176
   256
177
   256
178
     2
  0
DIMSTYLE
  2
AM_ISO$SH
 70
     0
  3

  4
"
  5

  6
GENAXEH
  7

 40
1.0
 41
3.5
 42
1.0
 43
10.0
 44
1.0
 45
0.0
 46
0.0
 47
0.1
 48
0.1
140
3.5
141
0.0
142
0.0
143
0.0393701
144
2.0
145
0.0
146
0.71
147
1.5
 71
     0
 72
     0
 73
     0
 74
     0
 75
     1
 76
     1
 77
     1
 78
     8
170
     0
171
     2
172
     1
173
     1
174
     0
175
     0
176
   256
177
   256
178
     2
  0
ENDTAB
  0
ENDSEC
  0
SECTION
  2
BLOCKS
  0
BLOCK
  8
0
  2
$MODEL_SPACE
 70
     0
 10
0.0
 20
0.0
 30
0.0
  3
$MODEL_SPACE
  1

  0
ENDBLK
  5
21
  8
0
  0
BLOCK
 67
     1
  8
0
  2
$PAPER_SPACE
 70
     0
 10
0.0
 20
0.0
 30
0.0
  3
$PAPER_SPACE
  1

  0
ENDBLK
  5
1D
 67
     1
  8
0
  0
BLOCK
  8
0
  2
SW_NOTE_0
 70
     0
 10
0.0
 20
0.0
 30
0.0
  3
SW_NOTE_0
  1

  0
INSERT
  5
1B2
  8
0
  2
*U128
 10
0.0
 20
0.0
 30
0.0
  0
INSERT
  5
1B3
  8
0
  2
*U129
 10
0.0
 20
0.0
 30
0.0
  0
ENDBLK
  5
1B1
  8
0
  0
BLOCK
  8
0
  2
SW_NOTE_0_1
 70
     0
 10
0.0
 20
0.0
 30
0.0
  3
SW_NOTE_0_1
  1

  0
INSERT
  5
1CC
  8
0
  2
*U150
 10
0.0
 20
0.0
 30
0.0
  0
INSERT
  5
1CE
  8
0
  2
*U151
 10
0.0
 20
0.0
 30
0.0
  0
INSERT
  5
1CF
  8
0
  2
*U152
 10
0.0
 20
0.0
 30
0.0
  0
INSERT
  5
1D0
  8
0
  2
*U153
 10
0.0
 20
0.0
 30
0.0
  0
ENDBLK
  5
1CB
  8
0
  0
BLOCK
  8
0
  2
_D
 70
     0
 10
0.0
 20
0.0
 30
0.0
  3
_D
  1

  0
SOLID
  5
2AE
  8
BORDER
 10
805.1276774732000376
 20
614.4294779186999449
 30
0.0
 11
808.2224753042997918
 21
615.6878476516999399
 31
0.0
 12
807.7011249646000124
 22
616.5598853935999841
 32
0.0
 13
807.7011249646000124
 23
616.5598853935999841
 33
0.0
  0
LINE
  5
2AF
  8
BORDER
 10
805.1276774732000376
 20
614.4294779186999449
 30
0.0
 11
843.8657820913000478
 21
637.5891681819000496
 31
0.0
  0
LINE
  5
2B0
  8
BORDER
 10
843.8657820913000478
 20
637.5891681819000496
 30
0.0
 11
850.2157820912999568
 21
637.5891681819000496
 31
0.0
  0
INSERT
  5
2B1
  8
0
  2
*U154
 10
0.0
 20
0.0
 30
0.0
  0
INSERT
  5
2B2
  8
0
  2
*U155
 10
0.0
 20
0.0
 30
0.0
  0
ENDBLK
  5
2AD
  8
0
  0
BLOCK
  8
0
  2
_D_1
 70
     0
 10
0.0
 20
0.0
 30
0.0
  3
_D_1
  1

  0
SOLID
  5
2B8
  8
BORDER
 10
324.551461449899989
 20
516.1444533946998945
 30
0.0
 11
324.0434614499000077
 21
512.8424533946999873
 31
0.0
 12
325.0594614499000841
 22
512.8424533946999873
 32
0.0
 13
325.0594614499000841
 23
512.8424533946999873
 33
0.0
  0
SOLID
  5
2B9
  8
BORDER
 10
324.551461449899989
 20
456.1444533947000082
 30
0.0
 11
325.0594614499000841
 21
459.4464533946999723
 31
0.0
 12
324.0434614499000077
 22
459.4464533946999723
 32
0.0
 13
324.0434614499000077
 23
459.4464533946999723
 33
0.0
  0
LINE
  5
2BA
  8
BORDER
 10
369.2814614498998935
 20
516.1444533946998945
 30
0.0
 11
321.3764614498999777
 21
516.1444533946998945
 31
0.0
  0
LINE
  5
2BB
  8
BORDER
 10
369.2814614498998935
 20
456.1444533947000082
 30
0.0
 11
321.3764614498999777
 21
456.1444533947000082
 31
0.0
  0
LINE
  5
2BC
  8
BORDER
 10
324.551461449899989
 20
516.1444533946998945
 30
0.0
 11
324.551461449899989
 21
488.6955050350999841
 31
0.0
  0
LINE
  5
2BD
  8
BORDER
 10
324.551461449899989
 20
456.1444533947000082
 30
0.0
 11
324.551461449899989
 21
478.6060610385000018
 31
0.0
  0
INSERT
  5
2BE
  8
0
  2
*U156
 10
0.0
 20
0.0
 30
0.0
  0
ENDBLK
  5
2B7
  8
0
  0
BLOCK
  8
0
  2
_D_2
 70
     0
 10
0.0
 20
0.0
 30
0.0
  3
_D_2
  1

  0
SOLID
  5
2C4
  8
BORDER
 10
394.3516557336000119
 20
372.5529172577000168
 30
0.0
 11
391.7719889233999879
 21
370.430044876199986
 31
0.0
 12
392.5293686824999781
 22
369.7528212052000072
 32
0.0
 13
392.5293686824999781
 23
369.7528212052000072
 33
0.0
  0
LINE
  5
2C5
  8
BORDER
 10
394.3516557336000119
 20
372.5529172577000168
 30
0.0
 11
353.6958639516000176
 21
327.0851123005999739
 31
0.0
  0
LINE
  5
2C6
  8
BORDER
 10
353.6958639516000176
 20
327.0851123005999739
 30
0.0
 11
347.3458639515999948
 21
327.0851123005999739
 31
0.0
  0
INSERT
  5
2C7
  8
0
  2
*U157
 10
0.0
 20
0.0
 30
0.0
  0
INSERT
  5
2C8
  8
0
  2
*U158
 10
0.0
 20
0.0
 30
0.0
  0
ENDBLK
  5
2C3
  8
0
  0
BLOCK
  8
0
  2
_D_3
 70
     0
 10
0.0
 20
0.0
 30
0.0
  3
_D_3
  1

  0
SOLID
  5
2CD
  8
BORDER
 10
408.5166939943999864
 20
409.525898050599892
 30
0.0
 11
405.6162985124998954
 21
407.8678950202998976
 31
0.0
 12
406.2487801392999245
 22
407.0727705068999853
 32
0.0
 13
406.2487801392999245
 23
407.0727705068999853
 33
0.0
  0
LINE
  5
2CE
  8
BORDER
 10
408.5166939943999864
 20
409.525898050599892
 30
0.0
 11
343.4510894621000148
 21
357.7694766244999869
 31
0.0
  0
LINE
  5
2CF
  8
BORDER
 10
343.4510894621000148
 20
357.7694766244999869
 30
0.0
 11
337.101089462099992
 21
357.7694766244999869
 31
0.0
  0
INSERT
  5
2D0
  8
0
  2
*U159
 10
0.0
 20
0.0
 30
0.0
  0
INSERT
  5
2D1
  8
0
  2
*U160
 10
0.0
 20
0.0
 30
0.0
  0
ENDBLK
  5
2CC
  8
0
  0
BLOCK
  8
0
  2
_D_4
 70
     0
 10
0.0
 20
0.0
 30
0.0
  3
_D_4
  1

  0
SOLID
  5
2D6
  8
BORDER
 10
490.551461449899989
 20
273.0020669378999969
 30
0.0
 11
493.8534614498998963
 21
272.4940669379000155
 31
0.0
 12
493.8534614498998963
 22
273.5100669378999783
 32
0.0
 13
493.8534614498998963
 23
273.5100669378999783
 33
0.0
  0
SOLID
  5
2D7
  8
BORDER
 10
590.551461449899989
 20
273.0020669378999969
 30
0.0
 11
587.2494614498998544
 21
273.5100669378999783
 31
0.0
 12
587.2494614498998544
 22
272.4940669379000155
 32
0.0
 13
587.2494614498998544
 23
272.4940669379000155
 33
0.0
  0
LINE
  5
2D8
  8
BORDER
 10
490.551461449899989
 20
282.8744533947000264
 30
0.0
 11
490.551461449899989
 21
269.8270669378999855
 31
0.0
  0
LINE
  5
2D9
  8
BORDER
 10
590.551461449899989
 20
282.8744533947000264
 30
0.0
 11
590.551461449899989
 21
269.8270669378999855
 31
0.0
  0
LINE
  5
2DA
  8
BORDER
 10
490.551461449899989
 20
273.0020669378999969
 30
0.0
 11
527.8977034496000442
 21
273.0020669378999969
 31
0.0
  0
LINE
  5
2DB
  8
BORDER
 10
590.551461449899989
 20
273.0020669378999969
 30
0.0
 11
553.6975180611999576
 21
273.0020669378999969
 31
0.0
  0
INSERT
  5
2DC
  8
0
  2
*U161
 10
0.0
 20
0.0
 30
0.0
  0
ENDBLK
  5
2D5
  8
0
  0
BLOCK
  8
0
  2
_D_5
 70
     0
 10
0.0
 20
0.0
 30
0.0
  3
_D_5
  1

  0
SOLID
  5
2E1
  8
BORDER
 10
640.551461449899989
 20
273.3748873083999911
 30
0.0
 11
643.8534614498998963
 21
272.8668873084000097
 31
0.0
 12
643.8534614498998963
 22
273.8828873083999724
 32
0.0
 13
643.8534614498998963
 23
273.8828873083999724
 33
0.0
  0
SOLID
  5
2E2
  8
BORDER
 10
690.5514614499001027
 20
273.3748873083999911
 30
0.0
 11
687.2494614498999681
 21
273.8828873083999724
 31
0.0
 12
687.2494614498999681
 22
272.8668873084000097
 32
0.0
 13
687.2494614498999681
 23
272.8668873084000097
 33
0.0
  0
LINE
  5
2E3
  8
BORDER
 10
640.551461449899989
 20
282.8744533947000264
 30
0.0
 11
640.551461449899989
 21
270.1998873083999797
 31
0.0
  0
LINE
  5
2E4
  8
BORDER
 10
690.5514614499001027
 20
282.8744533947000264
 30
0.0
 11
690.5514614499001027
 21
270.1998873083999797
 31
0.0
  0
LINE
  5
2E5
  8
BORDER
 10
640.551461449899989
 20
273.3748873083999911
 30
0.0
 11
656.9685533209000141
 21
273.3748873083999911
 31
0.0
  0
LINE
  5
2E6
  8
BORDER
 10
690.5514614499001027
 20
273.3748873083999911
 30
0.0
 11
678.0764244063000206
 21
273.3748873083999911
 31
0.0
  0
INSERT
  5
2E7
  8
0
  2
*U162
 10
0.0
 20
0.0
 30
0.0
  0
ENDBLK
  5
2E0
  8
0
  0
BLOCK
  8
0
  2
_D_6
 70
     0
 10
0.0
 20
0.0
 30
0.0
  3
_D_6
  1

  0
SOLID
  5
2EC
  8
BORDER
 10
744.5514614499001027
 20
305.3113783689000229
 30
0.0
 11
747.8534614498998963
 21
304.8033783688999847
 31
0.0
 12
747.8534614498998963
 22
305.8193783689000043
 32
0.0
 13
747.8534614498998963
 23
305.8193783689000043
 33
0.0
  0
SOLID
  5
2ED
  8
BORDER
 10
752.5514614499001027
 20
305.3113783689000229
 30
0.0
 11
749.2494614498999681
 21
305.8193783689000043
 31
0.0
 12
749.2494614498999681
 22
304.8033783688999847
 32
0.0
 13
749.2494614498999681
 23
304.8033783688999847
 33
0.0
  0
LINE
  5
2EE
  8
BORDER
 10
744.5514614499001027
 20
366.9744533946999923
 30
0.0
 11
744.5514614499001027
 21
302.1363783689000115
 31
0.0
  0
LINE
  5
2EF
  8
BORDER
 10
752.5514614499001027
 20
366.9744533946999923
 30
0.0
 11
752.5514614499001027
 21
302.1363783689000115
 31
0.0
  0
LINE
  5
2F0
  8
BORDER
 10
744.5514614499001027
 20
305.3113783689000229
 30
0.0
 11
752.5514614499001027
 21
305.3113783689000229
 31
0.0
  0
LINE
  5
2F1
  8
BORDER
 10
752.5514614499001027
 20
305.3113783689000229
 30
0.0
 11
776.4131986331000235
 21
305.3113783689000229
 31
0.0
  0
INSERT
  5
2F2
  8
0
  2
*U163
 10
0.0
 20
0.0
 30
0.0
  0
ENDBLK
  5
2EB
  8
0
  0
BLOCK
  8
0
  2
_D_7
 70
     0
 10
0.0
 20
0.0
 30
0.0
  3
_D_7
  1

  0
SOLID
  5
2F8
  8
BORDER
 10
754.9133283516999882
 20
367.4249506562999841
 30
0.0
 11
757.8663591992000192
 21
365.8626200850000032
 31
0.0
 12
758.1994051120000222
 22
366.8224827939000079
 32
0.0
 13
758.1994051120000222
 23
366.8224827939000079
 33
0.0
  0
LINE
  5
2F9
  8
BORDER
 10
754.9133283516999882
 20
367.4249506562999841
 30
0.0
 11
818.3845705072000101
 21
345.4021784512999034
 31
0.0
  0
LINE
  5
2FA
  8
BORDER
 10
818.3845705072000101
 20
345.4021784512999034
 30
0.0
 11
824.7345705072000328
 21
345.4021784512999034
 31
0.0
  0
INSERT
  5
2FB
  8
0
  2
*U164
 10
0.0
 20
0.0
 30
0.0
  0
ENDBLK
  5
2F7
  8
0
  0
BLOCK
  8
0
  2
_D_8
 70
     0
 10
0.0
 20
0.0
 30
0.0
  3
_D_8
  1

  0
SOLID
  5
300
  8
BORDER
 10
294.551461449899989
 20
536.1444533947000082
 30
0.0
 11
294.0434614499000077
 21
532.8424533946998736
 31
0.0
 12
295.0594614499000272
 22
532.8424533946998736
 32
0.0
 13
295.0594614499000272
 23
532.8424533946998736
 33
0.0
  0
SOLID
  5
301
  8
BORDER
 10
294.551461449899989
 20
436.1444533947000082
 30
0.0
 11
295.0594614499000272
 21
439.4464533946999723
 31
0.0
 12
294.0434614499000077
 22
439.4464533946999723
 32
0.0
 13
294.0434614499000077
 23
439.4464533946999723
 33
0.0
  0
LINE
  5
302
  8
BORDER
 10
407.2814614498998935
 20
536.1444533947000082
 30
0.0
 11
291.3764614499000913
 21
536.1444533947000082
 31
0.0
  0
LINE
  5
303
  8
BORDER
 10
407.2814614498998935
 20
436.1444533947000082
 30
0.0
 11
291.3764614499000913
 21
436.1444533947000082
 31
0.0
  0
LINE
  5
304
  8
BORDER
 10
294.551461449899989
 20
536.1444533947000082
 30
0.0
 11
294.551461449899989
 21
488.6955050350999841
 31
0.0
  0
LINE
  5
305
  8
BORDER
 10
294.551461449899989
 20
436.1444533947000082
 30
0.0
 11
294.551461449899989
 21
478.6060610385000018
 31
0.0
  0
INSERT
  5
306
  8
0
  2
*U165
 10
0.0
 20
0.0
 30
0.0
  0
ENDBLK
  5
2FF
  8
0
  0
BLOCK
  8
0
  2
_DOT
 70
     0
 10
0.0
 20
0.0
 30
0.0
  3
_DOT
  1

  0
POLYLINE
  5
30C
  8
0
  6
BYBLOCK
 62
     0
 66
     1
 10
0.0
 20
0.0
 30
0.0
 70
     1
 40
0.5
 41
0.5
  0
VERTEX
  5
73B
  8
0
  6
BYBLOCK
 62
     0
 10
-0.25
 20
0.0
 30
0.0
 42
1.0
  0
VERTEX
  5
73C
  8
0
  6
BYBLOCK
 62
     0
 10
0.25
 20
0.0
 30
0.0
 42
1.0
  0
SEQEND
  5
73D
  8
0
  6
BYBLOCK
 62
     0
  0
LINE
  5
30D
  8
0
  6
BYBLOCK
 62
     0
 10
-0.5
 20
0.0
 30
0.0
 11
-1.0
 21
0.0
 31
0.0
  0
ENDBLK
  5
30B
  8
0
  0
BLOCK
  8
0
  2
SW_CENTERMARKSYMBOL_0
 70
     0
 10
0.0
 20
0.0
 30
0.0
  3
SW_CENTERMARKSYMBOL_0
  1

  0
LINE
  5
312
  8
BORDER
 62
     0
 10
0.0
 20
0.0
 30
0.0
 11
0.0
 21
2.54
 31
0.0
  0
LINE
  5
313
  8
BORDER
 62
     0
 10
0.0
 20
0.0
 30
0.0
 11
-2.54
 21
0.0
 31
0.0
  0
LINE
  5
314
  8
BORDER
 62
     0
 10
0.0
 20
0.0
 30
0.0
 11
0.0
 21
-2.54
 31
0.0
  0
LINE
  5
315
  8
BORDER
 62
     0
 10
0.0
 20
0.0
 30
0.0
 11
2.54
 21
0.0
 31
0.0
  0
LINE
  5
316
  8
BORDER
 62
     0
 10
0.0
 20
5.0800000000000001
 30
0.0
 11
0.0
 21
5.1399999999999988
 31
0.0
  0
LINE
  5
317
  8
BORDER
 62
     0
 10
-5.0800000000000001
 20
0.0
 30
0.0
 11
-5.1399999999999988
 21
0.0
 31
0.0
  0
LINE
  5
318
  8
BORDER
 62
     0
 10
0.0
 20
-5.0800000000000001
 30
0.0
 11
0.0
 21
-5.1399999999999988
 31
0.0
  0
LINE
  5
319
  8
BORDER
 62
     0
 10
5.0800000000000001
 20
0.0
 30
0.0
 11
5.1399999999999988
 21
0.0
 31
0.0
  0
ENDBLK
  5
311
  8
0
  0
BLOCK
  8
0
  2
SW_CENTERMARKSYMBOL_1
 70
     0
 10
0.0
 20
0.0
 30
0.0
  3
SW_CENTERMARKSYMBOL_1
  1

  0
LINE
  5
31E
  8
BORDER
 62
     0
 10
0.0
 20
0.0
 30
0.0
 11
0.0
 21
2.54
 31
0.0
  0
LINE
  5
31F
  8
BORDER
 62
     0
 10
0.0
 20
0.0
 30
0.0
 11
-2.54
 21
0.0
 31
0.0
  0
LINE
  5
320
  8
BORDER
 62
     0
 10
0.0
 20
0.0
 30
0.0
 11
0.0
 21
-2.54
 31
0.0
  0
LINE
  5
321
  8
BORDER
 62
     0
 10
0.0
 20
0.0
 30
0.0
 11
2.54
 21
0.0
 31
0.0
  0
LINE
  5
322
  8
BORDER
 62
     0
 10
0.0
 20
5.0800000000000001
 30
0.0
 11
0.0
 21
5.1399999999999988
 31
0.0
  0
LINE
  5
323
  8
BORDER
 62
     0
 10
-5.0800000000000001
 20
0.0
 30
0.0
 11
-5.1399999999999988
 21
0.0
 31
0.0
  0
LINE
  5
324
  8
BORDER
 62
     0
 10
0.0
 20
-5.0800000000000001
 30
0.0
 11
0.0
 21
-5.1399999999999988
 31
0.0
  0
LINE
  5
325
  8
BORDER
 62
     0
 10
5.0800000000000001
 20
0.0
 30
0.0
 11
5.1399999999999988
 21
0.0
 31
0.0
  0
ENDBLK
  5
31D
  8
0
  0
BLOCK
  8
0
  2
SW_CENTERMARKSYMBOL_2
 70
     0
 10
0.0
 20
0.0
 30
0.0
  3
SW_CENTERMARKSYMBOL_2
  1

  0
LINE
  5
32A
  8
BORDER
 62
     0
 10
0.0
 20
0.0
 30
0.0
 11
0.0
 21
2.54
 31
0.0
  0
LINE
  5
32B
  8
BORDER
 62
     0
 10
0.0
 20
0.0
 30
0.0
 11
-2.54
 21
0.0
 31
0.0
  0
LINE
  5
32C
  8
BORDER
 62
     0
 10
0.0
 20
0.0
 30
0.0
 11
0.0
 21
-2.54
 31
0.0
  0
LINE
  5
32D
  8
BORDER
 62
     0
 10
0.0
 20
0.0
 30
0.0
 11
2.54
 21
0.0
 31
0.0
  0
LINE
  5
32E
  8
BORDER
 62
     0
 10
0.0
 20
5.0800000000000001
 30
0.0
 11
0.0
 21
5.1399999999999988
 31
0.0
  0
LINE
  5
32F
  8
BORDER
 62
     0
 10
-5.0800000000000001
 20
0.0
 30
0.0
 11
-5.1399999999999988
 21
0.0
 31
0.0
  0
LINE
  5
330
  8
BORDER
 62
     0
 10
0.0
 20
-5.0800000000000001
 30
0.0
 11
0.0
 21
-5.1399999999999988
 31
0.0
  0
LINE
  5
331
  8
BORDER
 62
     0
 10
5.0800000000000001
 20
0.0
 30
0.0
 11
5.1399999999999988
 21
0.0
 31
0.0
  0
ENDBLK
  5
329
  8
0
  0
BLOCK
  8
0
  2
SW_CENTERMARKSYMBOL_3
 70
     0
 10
0.0
 20
0.0
 30
0.0
  3
SW_CENTERMARKSYMBOL_3
  1

  0
LINE
  5
336
  8
BORDER
 62
     0
 10
0.0
 20
0.0
 30
0.0
 11
0.0
 21
2.54
 31
0.0
  0
LINE
  5
337
  8
BORDER
 62
     0
 10
0.0
 20
0.0
 30
0.0
 11
-2.54
 21
0.0
 31
0.0
  0
LINE
  5
338
  8
BORDER
 62
     0
 10
0.0
 20
0.0
 30
0.0
 11
0.0
 21
-2.54
 31
0.0
  0
LINE
  5
339
  8
BORDER
 62
     0
 10
0.0
 20
0.0
 30
0.0
 11
2.54
 21
0.0
 31
0.0
  0
LINE
  5
33A
  8
BORDER
 62
     0
 10
0.0
 20
5.0800000000000001
 30
0.0
 11
0.0
 21
5.1399999999999988
 31
0.0
  0
LINE
  5
33B
  8
BORDER
 62
     0
 10
-5.0800000000000001
 20
0.0
 30
0.0
 11
-5.1399999999999988
 21
0.0
 31
0.0
  0
LINE
  5
33C
  8
BORDER
 62
     0
 10
0.0
 20
-5.0800000000000001
 30
0.0
 11
0.0
 21
-5.1399999999999988
 31
0.0
  0
LINE
  5
33D
  8
BORDER
 62
     0
 10
5.0800000000000001
 20
0.0
 30
0.0
 11
5.1399999999999988
 21
0.0
 31
0.0
  0
ENDBLK
  5
335
  8
0
  0
BLOCK
  8
0
  2
SW_CENTERMARKSYMBOL_4
 70
     0
 10
0.0
 20
0.0
 30
0.0
  3
SW_CENTERMARKSYMBOL_4
  1

  0
LINE
  5
342
  8
BORDER
 62
     0
 10
0.0
 20
0.0
 30
0.0
 11
0.0
 21
2.54
 31
0.0
  0
LINE
  5
343
  8
BORDER
 62
     0
 10
0.0
 20
0.0
 30
0.0
 11
-2.54
 21
0.0
 31
0.0
  0
LINE
  5
344
  8
BORDER
 62
     0
 10
0.0
 20
0.0
 30
0.0
 11
0.0
 21
-2.54
 31
0.0
  0
LINE
  5
345
  8
BORDER
 62
     0
 10
0.0
 20
0.0
 30
0.0
 11
2.54
 21
0.0
 31
0.0
  0
LINE
  5
346
  8
BORDER
 62
     0
 10
0.0
 20
5.0800000000000001
 30
0.0
 11
0.0
 21
5.1399999999999988
 31
0.0
  0
LINE
  5
347
  8
BORDER
 62
     0
 10
-5.0800000000000001
 20
0.0
 30
0.0
 11
-5.1399999999999988
 21
0.0
 31
0.0
  0
LINE
  5
348
  8
BORDER
 62
     0
 10
0.0
 20
-5.0800000000000001
 30
0.0
 11
0.0
 21
-5.1399999999999988
 31
0.0
  0
LINE
  5
349
  8
BORDER
 62
     0
 10
5.0800000000000001
 20
0.0
 30
0.0
 11
5.1399999999999988
 21
0.0
 31
0.0
  0
ENDBLK
  5
341
  8
0
  0
BLOCK
  8
0
  2
SW_CENTERMARKSYMBOL_5
 70
     0
 10
0.0
 20
0.0
 30
0.0
  3
SW_CENTERMARKSYMBOL_5
  1

  0
LINE
  5
34E
  8
BORDER
 62
     0
 10
0.0
 20
0.0
 30
0.0
 11
0.0
 21
2.54
 31
0.0
  0
LINE
  5
34F
  8
BORDER
 62
     0
 10
0.0
 20
0.0
 30
0.0
 11
-2.54
 21
0.0
 31
0.0
  0
LINE
  5
350
  8
BORDER
 62
     0
 10
0.0
 20
0.0
 30
0.0
 11
0.0
 21
-2.54
 31
0.0
  0
LINE
  5
351
  8
BORDER
 62
     0
 10
0.0
 20
0.0
 30
0.0
 11
2.54
 21
0.0
 31
0.0
  0
LINE
  5
352
  8
BORDER
 62
     0
 10
0.0
 20
5.0800000000000001
 30
0.0
 11
0.0
 21
5.1399999999999988
 31
0.0
  0
LINE
  5
353
  8
BORDER
 62
     0
 10
-5.0800000000000001
 20
0.0
 30
0.0
 11
-5.1399999999999988
 21
0.0
 31
0.0
  0
LINE
  5
354
  8
BORDER
 62
     0
 10
0.0
 20
-5.0800000000000001
 30
0.0
 11
0.0
 21
-5.1399999999999988
 31
0.0
  0
LINE
  5
355
  8
BORDER
 62
     0
 10
5.0800000000000001
 20
0.0
 30
0.0
 11
5.1399999999999988
 21
0.0
 31
0.0
  0
ENDBLK
  5
34D
  8
0
  0
BLOCK
  8
0
  2
SW_CENTERMARKSYMBOL_6
 70
     0
 10
0.0
 20
0.0
 30
0.0
  3
SW_CENTERMARKSYMBOL_6
  1

  0
LINE
  5
35A
  8
BORDER
 62
     0
 10
0.0
 20
0.0
 30
0.0
 11
0.0
 21
2.54
 31
0.0
  0
LINE
  5
35B
  8
BORDER
 62
     0
 10
0.0
 20
0.0
 30
0.0
 11
-2.54
 21
0.0
 31
0.0
  0
LINE
  5
35C
  8
BORDER
 62
     0
 10
0.0
 20
0.0
 30
0.0
 11
0.0
 21
-2.54
 31
0.0
  0
LINE
  5
35D
  8
BORDER
 62
     0
 10
0.0
 20
0.0
 30
0.0
 11
2.54
 21
0.0
 31
0.0
  0
LINE
  5
35E
  8
BORDER
 62
     0
 10
0.0
 20
5.0800000000000001
 30
0.0
 11
0.0
 21
5.1399999999999988
 31
0.0
  0
LINE
  5
35F
  8
BORDER
 62
     0
 10
-5.0800000000000001
 20
0.0
 30
0.0
 11
-5.1399999999999988
 21
0.0
 31
0.0
  0
LINE
  5
360
  8
BORDER
 62
     0
 10
0.0
 20
-5.0800000000000001
 30
0.0
 11
0.0
 21
-5.1399999999999988
 31
0.0
  0
LINE
  5
361
  8
BORDER
 62
     0
 10
5.0800000000000001
 20
0.0
 30
0.0
 11
5.1399999999999988
 21
0.0
 31
0.0
  0
ENDBLK
  5
359
  8
0
  0
BLOCK
  8
0
  2
SW_CENTERMARKSYMBOL_7
 70
     0
 10
0.0
 20
0.0
 30
0.0
  3
SW_CENTERMARKSYMBOL_7
  1

  0
LINE
  5
366
  8
BORDER
 62
     0
 10
0.0
 20
0.0
 30
0.0
 11
0.0
 21
2.54
 31
0.0
  0
LINE
  5
367
  8
BORDER
 62
     0
 10
0.0
 20
0.0
 30
0.0
 11
-2.54
 21
0.0
 31
0.0
  0
LINE
  5
368
  8
BORDER
 62
     0
 10
0.0
 20
0.0
 30
0.0
 11
0.0
 21
-2.54
 31
0.0
  0
LINE
  5
369
  8
BORDER
 62
     0
 10
0.0
 20
0.0
 30
0.0
 11
2.54
 21
0.0
 31
0.0
  0
LINE
  5
36A
  8
BORDER
 62
     0
 10
0.0
 20
5.0800000000000001
 30
0.0
 11
0.0
 21
5.1399999999999988
 31
0.0
  0
LINE
  5
36B
  8
BORDER
 62
     0
 10
-5.0800000000000001
 20
0.0
 30
0.0
 11
-5.1399999999999988
 21
0.0
 31
0.0
  0
LINE
  5
36C
  8
BORDER
 62
     0
 10
0.0
 20
-5.0800000000000001
 30
0.0
 11
0.0
 21
-5.1399999999999988
 31
0.0
  0
LINE
  5
36D
  8
BORDER
 62
     0
 10
5.0800000000000001
 20
0.0
 30
0.0
 11
5.1399999999999988
 21
0.0
 31
0.0
  0
ENDBLK
  5
365
  8
0
  0
BLOCK
  8
0
  2
SW_CENTERMARKSYMBOL_8
 70
     0
 10
0.0
 20
0.0
 30
0.0
  3
SW_CENTERMARKSYMBOL_8
  1

  0
LINE
  5
372
  8
BORDER
 62
     0
 10
0.0
 20
0.0
 30
0.0
 11
0.0
 21
2.54
 31
0.0
  0
LINE
  5
373
  8
BORDER
 62
     0
 10
0.0
 20
0.0
 30
0.0
 11
-2.54
 21
0.0
 31
0.0
  0
LINE
  5
374
  8
BORDER
 62
     0
 10
0.0
 20
0.0
 30
0.0
 11
0.0
 21
-2.54
 31
0.0
  0
LINE
  5
375
  8
BORDER
 62
     0
 10
0.0
 20
0.0
 30
0.0
 11
2.54
 21
0.0
 31
0.0
  0
LINE
  5
376
  8
BORDER
 62
     0
 10
0.0
 20
2.54
 30
0.0
 11
0.0
 21
5.04
 31
0.0
  0
LINE
  5
377
  8
BORDER
 62
     0
 10
-2.54
 20
0.0
 30
0.0
 11
-5.04
 21
0.0
 31
0.0
  0
LINE
  5
378
  8
BORDER
 62
     0
 10
0.0
 20
-2.54
 30
0.0
 11
0.0
 21
-5.04
 31
0.0
  0
LINE
  5
379
  8
BORDER
 62
     0
 10
2.54
 20
0.0
 30
0.0
 11
5.04
 21
0.0
 31
0.0
  0
ENDBLK
  5
371
  8
0
  0
BLOCK
  8
0
  2
SW_CENTERMARKSYMBOL_9
 70
     0
 10
0.0
 20
0.0
 30
0.0
  3
SW_CENTERMARKSYMBOL_9
  1

  0
LINE
  5
37E
  8
BORDER
 62
     0
 10
0.0
 20
0.0
 30
0.0
 11
0.0
 21
2.54
 31
0.0
  0
LINE
  5
37F
  8
BORDER
 62
     0
 10
0.0
 20
0.0
 30
0.0
 11
-2.54
 21
0.0
 31
0.0
  0
LINE
  5
380
  8
BORDER
 62
     0
 10
0.0
 20
0.0
 30
0.0
 11
0.0
 21
-2.54
 31
0.0
  0
LINE
  5
381
  8
BORDER
 62
     0
 10
0.0
 20
0.0
 30
0.0
 11
2.54
 21
0.0
 31
0.0
  0
LINE
  5
382
  8
BORDER
 62
     0
 10
0.0
 20
2.54
 30
0.0
 11
0.0
 21
5.04
 31
0.0
  0
LINE
  5
383
  8
BORDER
 62
     0
 10
-2.54
 20
0.0
 30
0.0
 11
-5.04
 21
0.0
 31
0.0
  0
LINE
  5
384
  8
BORDER
 62
     0
 10
0.0
 20
-2.54
 30
0.0
 11
0.0
 21
-5.04
 31
0.0
  0
LINE
  5
385
  8
BORDER
 62
     0
 10
2.54
 20
0.0
 30
0.0
 11
5.04
 21
0.0
 31
0.0
  0
ENDBLK
  5
37D
  8
0
  0
BLOCK
  8
0
  2
SW_CENTERMARKSYMBOL_10
 70
     0
 10
0.0
 20
0.0
 30
0.0
  3
SW_CENTERMARKSYMBOL_10
  1

  0
LINE
  5
38A
  8
BORDER
 62
     0
 10
0.0
 20
0.0
 30
0.0
 11
0.0
 21
2.54
 31
0.0
  0
LINE
  5
38B
  8
BORDER
 62
     0
 10
0.0
 20
0.0
 30
0.0
 11
-2.54
 21
0.0
 31
0.0
  0
LINE
  5
38C
  8
BORDER
 62
     0
 10
0.0
 20
0.0
 30
0.0
 11
0.0
 21
-2.54
 31
0.0
  0
LINE
  5
38D
  8
BORDER
 62
     0
 10
0.0
 20
0.0
 30
0.0
 11
2.54
 21
0.0
 31
0.0
  0
LINE
  5
38E
  8
BORDER
 62
     0
 10
0.0
 20
2.54
 30
0.0
 11
0.0
 21
5.04
 31
0.0
  0
LINE
  5
38F
  8
BORDER
 62
     0
 10
-2.54
 20
0.0
 30
0.0
 11
-5.04
 21
0.0
 31
0.0
  0
LINE
  5
390
  8
BORDER
 62
     0
 10
0.0
 20
-2.54
 30
0.0
 11
0.0
 21
-5.04
 31
0.0
  0
LINE
  5
391
  8
BORDER
 62
     0
 10
2.54
 20
0.0
 30
0.0
 11
5.04
 21
0.0
 31
0.0
  0
ENDBLK
  5
389
  8
0
  0
BLOCK
  8
0
  2
SW_CENTERMARKSYMBOL_11
 70
     0
 10
0.0
 20
0.0
 30
0.0
  3
SW_CENTERMARKSYMBOL_11
  1

  0
LINE
  5
396
  8
BORDER
 62
     0
 10
0.0
 20
0.0
 30
0.0
 11
0.0
 21
2.54
 31
0.0
  0
LINE
  5
397
  8
BORDER
 62
     0
 10
0.0
 20
0.0
 30
0.0
 11
-2.54
 21
0.0
 31
0.0
  0
LINE
  5
398
  8
BORDER
 62
     0
 10
0.0
 20
0.0
 30
0.0
 11
0.0
 21
-2.54
 31
0.0
  0
LINE
  5
399
  8
BORDER
 62
     0
 10
0.0
 20
0.0
 30
0.0
 11
2.54
 21
0.0
 31
0.0
  0
LINE
  5
39A
  8
BORDER
 62
     0
 10
0.0
 20
2.54
 30
0.0
 11
0.0
 21
5.04
 31
0.0
  0
LINE
  5
39B
  8
BORDER
 62
     0
 10
-2.54
 20
0.0
 30
0.0
 11
-5.04
 21
0.0
 31
0.0
  0
LINE
  5
39C
  8
BORDER
 62
     0
 10
0.0
 20
-2.54
 30
0.0
 11
0.0
 21
-5.04
 31
0.0
  0
LINE
  5
39D
  8
BORDER
 62
     0
 10
2.54
 20
0.0
 30
0.0
 11
5.04
 21
0.0
 31
0.0
  0
ENDBLK
  5
395
  8
0
  0
BLOCK
  8
0
  2
SW_CENTERMARKSYMBOL_12
 70
     0
 10
0.0
 20
0.0
 30
0.0
  3
SW_CENTERMARKSYMBOL_12
  1

  0
LINE
  5
3A2
  8
BORDER
 62
     0
 10
0.0
 20
0.0
 30
0.0
 11
0.0
 21
2.54
 31
0.0
  0
LINE
  5
3A3
  8
BORDER
 62
     0
 10
0.0
 20
0.0
 30
0.0
 11
-2.54
 21
0.0
 31
0.0
  0
LINE
  5
3A4
  8
BORDER
 62
     0
 10
0.0
 20
0.0
 30
0.0
 11
0.0
 21
-2.54
 31
0.0
  0
LINE
  5
3A5
  8
BORDER
 62
     0
 10
0.0
 20
0.0
 30
0.0
 11
2.54
 21
0.0
 31
0.0
  0
LINE
  5
3A6
  8
BORDER
 62
     0
 10
0.0
 20
2.54
 30
0.0
 11
0.0
 21
5.04
 31
0.0
  0
LINE
  5
3A7
  8
BORDER
 62
     0
 10
-2.54
 20
0.0
 30
0.0
 11
-5.04
 21
0.0
 31
0.0
  0
LINE
  5
3A8
  8
BORDER
 62
     0
 10
0.0
 20
-2.54
 30
0.0
 11
0.0
 21
-5.04
 31
0.0
  0
LINE
  5
3A9
  8
BORDER
 62
     0
 10
2.54
 20
0.0
 30
0.0
 11
5.04
 21
0.0
 31
0.0
  0
ENDBLK
  5
3A1
  8
0
  0
BLOCK
  8
0
  2
SW_CENTERMARKSYMBOL_13
 70
     0
 10
0.0
 20
0.0
 30
0.0
  3
SW_CENTERMARKSYMBOL_13
  1

  0
LINE
  5
3AE
  8
BORDER
 62
     0
 10
0.0
 20
0.0
 30
0.0
 11
0.0
 21
2.54
 31
0.0
  0
LINE
  5
3AF
  8
BORDER
 62
     0
 10
0.0
 20
0.0
 30
0.0
 11
-2.54
 21
0.0
 31
0.0
  0
LINE
  5
3B0
  8
BORDER
 62
     0
 10
0.0
 20
0.0
 30
0.0
 11
0.0
 21
-2.54
 31
0.0
  0
LINE
  5
3B1
  8
BORDER
 62
     0
 10
0.0
 20
0.0
 30
0.0
 11
2.54
 21
0.0
 31
0.0
  0
LINE
  5
3B2
  8
BORDER
 62
     0
 10
0.0
 20
2.54
 30
0.0
 11
0.0
 21
5.04
 31
0.0
  0
LINE
  5
3B3
  8
BORDER
 62
     0
 10
-2.54
 20
0.0
 30
0.0
 11
-5.04
 21
0.0
 31
0.0
  0
LINE
  5
3B4
  8
BORDER
 62
     0
 10
0.0
 20
-2.54
 30
0.0
 11
0.0
 21
-5.04
 31
0.0
  0
LINE
  5
3B5
  8
BORDER
 62
     0
 10
2.54
 20
0.0
 30
0.0
 11
5.04
 21
0.0
 31
0.0
  0
ENDBLK
  5
3AD
  8
0
  0
BLOCK
  8
0
  2
SW_CENTERMARKSYMBOL_14
 70
     0
 10
0.0
 20
0.0
 30
0.0
  3
SW_CENTERMARKSYMBOL_14
  1

  0
LINE
  5
3BA
  8
BORDER
 62
     0
 10
0.0
 20
0.0
 30
0.0
 11
0.0
 21
2.54
 31
0.0
  0
LINE
  5
3BB
  8
BORDER
 62
     0
 10
0.0
 20
0.0
 30
0.0
 11
-2.54
 21
0.0
 31
0.0
  0
LINE
  5
3BC
  8
BORDER
 62
     0
 10
0.0
 20
0.0
 30
0.0
 11
0.0
 21
-2.54
 31
0.0
  0
LINE
  5
3BD
  8
BORDER
 62
     0
 10
0.0
 20
0.0
 30
0.0
 11
2.54
 21
0.0
 31
0.0
  0
LINE
  5
3BE
  8
BORDER
 62
     0
 10
0.0
 20
2.54
 30
0.0
 11
0.0
 21
5.04
 31
0.0
  0
LINE
  5
3BF
  8
BORDER
 62
     0
 10
-2.54
 20
0.0
 30
0.0
 11
-5.04
 21
0.0
 31
0.0
  0
LINE
  5
3C0
  8
BORDER
 62
     0
 10
0.0
 20
-2.54
 30
0.0
 11
0.0
 21
-5.04
 31
0.0
  0
LINE
  5
3C1
  8
BORDER
 62
     0
 10
2.54
 20
0.0
 30
0.0
 11
5.04
 21
0.0
 31
0.0
  0
ENDBLK
  5
3B9
  8
0
  0
BLOCK
  8
0
  2
SW_CENTERMARKSYMBOL_15
 70
     0
 10
0.0
 20
0.0
 30
0.0
  3
SW_CENTERMARKSYMBOL_15
  1

  0
LINE
  5
3C6
  8
BORDER
 62
     0
 10
0.0
 20
0.0
 30
0.0
 11
0.0
 21
2.54
 31
0.0
  0
LINE
  5
3C7
  8
BORDER
 62
     0
 10
0.0
 20
0.0
 30
0.0
 11
-2.54
 21
0.0
 31
0.0
  0
LINE
  5
3C8
  8
BORDER
 62
     0
 10
0.0
 20
0.0
 30
0.0
 11
0.0
 21
-2.54
 31
0.0
  0
LINE
  5
3C9
  8
BORDER
 62
     0
 10
0.0
 20
0.0
 30
0.0
 11
2.54
 21
0.0
 31
0.0
  0
LINE
  5
3CA
  8
BORDER
 62
     0
 10
0.0
 20
2.54
 30
0.0
 11
0.0
 21
5.04
 31
0.0
  0
LINE
  5
3CB
  8
BORDER
 62
     0
 10
-2.54
 20
0.0
 30
0.0
 11
-5.04
 21
0.0
 31
0.0
  0
LINE
  5
3CC
  8
BORDER
 62
     0
 10
0.0
 20
-2.54
 30
0.0
 11
0.0
 21
-5.04
 31
0.0
  0
LINE
  5
3CD
  8
BORDER
 62
     0
 10
2.54
 20
0.0
 30
0.0
 11
5.04
 21
0.0
 31
0.0
  0
ENDBLK
  5
3C5
  8
0
  0
BLOCK
  8
0
  2
SW_CENTERMARKSYMBOL_16
 70
     0
 10
0.0
 20
0.0
 30
0.0
  3
SW_CENTERMARKSYMBOL_16
  1

  0
LINE
  5
3D2
  8
BORDER
 62
     0
 10
0.0
 20
0.0
 30
0.0
 11
0.0
 21
2.54
 31
0.0
  0
LINE
  5
3D3
  8
BORDER
 62
     0
 10
0.0
 20
0.0
 30
0.0
 11
-2.54
 21
0.0
 31
0.0
  0
LINE
  5
3D4
  8
BORDER
 62
     0
 10
0.0
 20
0.0
 30
0.0
 11
0.0
 21
-2.54
 31
0.0
  0
LINE
  5
3D5
  8
BORDER
 62
     0
 10
0.0
 20
0.0
 30
0.0
 11
2.54
 21
0.0
 31
0.0
  0
LINE
  5
3D6
  8
BORDER
 62
     0
 10
0.0
 20
2.54
 30
0.0
 11
0.0
 21
4.339999999999999
 31
0.0
  0
LINE
  5
3D7
  8
BORDER
 62
     0
 10
-2.54
 20
0.0
 30
0.0
 11
-4.339999999999999
 21
0.0
 31
0.0
  0
LINE
  5
3D8
  8
BORDER
 62
     0
 10
0.0
 20
-2.54
 30
0.0
 11
0.0
 21
-4.339999999999999
 31
0.0
  0
LINE
  5
3D9
  8
BORDER
 62
     0
 10
2.54
 20
0.0
 30
0.0
 11
4.339999999999999
 21
0.0
 31
0.0
  0
ENDBLK
  5
3D1
  8
0
  0
BLOCK
  8
0
  2
SW_CENTERMARKSYMBOL_17
 70
     0
 10
0.0
 20
0.0
 30
0.0
  3
SW_CENTERMARKSYMBOL_17
  1

  0
LINE
  5
3DE
  8
BORDER
 62
     0
 10
0.0
 20
0.0
 30
0.0
 11
0.0
 21
2.54
 31
0.0
  0
LINE
  5
3DF
  8
BORDER
 62
     0
 10
0.0
 20
0.0
 30
0.0
 11
-2.54
 21
0.0
 31
0.0
  0
LINE
  5
3E0
  8
BORDER
 62
     0
 10
0.0
 20
0.0
 30
0.0
 11
0.0
 21
-2.54
 31
0.0
  0
LINE
  5
3E1
  8
BORDER
 62
     0
 10
0.0
 20
0.0
 30
0.0
 11
2.54
 21
0.0
 31
0.0
  0
LINE
  5
3E2
  8
BORDER
 62
     0
 10
0.0
 20
2.54
 30
0.0
 11
0.0
 21
4.339999999999999
 31
0.0
  0
LINE
  5
3E3
  8
BORDER
 62
     0
 10
-2.54
 20
0.0
 30
0.0
 11
-4.339999999999999
 21
0.0
 31
0.0
  0
LINE
  5
3E4
  8
BORDER
 62
     0
 10
0.0
 20
-2.54
 30
0.0
 11
0.0
 21
-4.339999999999999
 31
0.0
  0
LINE
  5
3E5
  8
BORDER
 62
     0
 10
2.54
 20
0.0
 30
0.0
 11
4.339999999999999
 21
0.0
 31
0.0
  0
ENDBLK
  5
3DD
  8
0
  0
BLOCK
  8
0
  2
SW_CENTERMARKSYMBOL_18
 70
     0
 10
0.0
 20
0.0
 30
0.0
  3
SW_CENTERMARKSYMBOL_18
  1

  0
LINE
  5
3EA
  8
BORDER
 62
     0
 10
0.0
 20
0.0
 30
0.0
 11
0.0
 21
2.54
 31
0.0
  0
LINE
  5
3EB
  8
BORDER
 62
     0
 10
0.0
 20
0.0
 30
0.0
 11
-2.54
 21
0.0
 31
0.0
  0
LINE
  5
3EC
  8
BORDER
 62
     0
 10
0.0
 20
0.0
 30
0.0
 11
0.0
 21
-2.54
 31
0.0
  0
LINE
  5
3ED
  8
BORDER
 62
     0
 10
0.0
 20
0.0
 30
0.0
 11
2.54
 21
0.0
 31
0.0
  0
LINE
  5
3EE
  8
BORDER
 62
     0
 10
0.0
 20
2.54
 30
0.0
 11
0.0
 21
4.339999999999999
 31
0.0
  0
LINE
  5
3EF
  8
BORDER
 62
     0
 10
-2.54
 20
0.0
 30
0.0
 11
-4.339999999999999
 21
0.0
 31
0.0
  0
LINE
  5
3F0
  8
BORDER
 62
     0
 10
0.0
 20
-2.54
 30
0.0
 11
0.0
 21
-4.339999999999999
 31
0.0
  0
LINE
  5
3F1
  8
BORDER
 62
     0
 10
2.54
 20
0.0
 30
0.0
 11
4.339999999999999
 21
0.0
 31
0.0
  0
ENDBLK
  5
3E9
  8
0
  0
BLOCK
  8
0
  2
SW_CENTERMARKSYMBOL_19
 70
     0
 10
0.0
 20
0.0
 30
0.0
  3
SW_CENTERMARKSYMBOL_19
  1

  0
LINE
  5
3F6
  8
BORDER
 62
     0
 10
0.0
 20
0.0
 30
0.0
 11
0.0
 21
2.54
 31
0.0
  0
LINE
  5
3F7
  8
BORDER
 62
     0
 10
0.0
 20
0.0
 30
0.0
 11
-2.54
 21
0.0
 31
0.0
  0
LINE
  5
3F8
  8
BORDER
 62
     0
 10
0.0
 20
0.0
 30
0.0
 11
0.0
 21
-2.54
 31
0.0
  0
LINE
  5
3F9
  8
BORDER
 62
     0
 10
0.0
 20
0.0
 30
0.0
 11
2.54
 21
0.0
 31
0.0
  0
LINE
  5
3FA
  8
BORDER
 62
     0
 10
0.0
 20
2.54
 30
0.0
 11
0.0
 21
4.339999999999999
 31
0.0
  0
LINE
  5
3FB
  8
BORDER
 62
     0
 10
-2.54
 20
0.0
 30
0.0
 11
-4.339999999999999
 21
0.0
 31
0.0
  0
LINE
  5
3FC
  8
BORDER
 62
     0
 10
0.0
 20
-2.54
 30
0.0
 11
0.0
 21
-4.339999999999999
 31
0.0
  0
LINE
  5
3FD
  8
BORDER
 62
     0
 10
2.54
 20
0.0
 30
0.0
 11
4.339999999999999
 21
0.0
 31
0.0
  0
ENDBLK
  5
3F5
  8
0
  0
BLOCK
  8
0
  2
SW_CENTERMARKSYMBOL_20
 70
     0
 10
0.0
 20
0.0
 30
0.0
  3
SW_CENTERMARKSYMBOL_20
  1

  0
LINE
  5
402
  8
BORDER
 62
     0
 10
0.0
 20
0.0
 30
0.0
 11
0.0
 21
2.54
 31
0.0
  0
LINE
  5
403
  8
BORDER
 62
     0
 10
0.0
 20
0.0
 30
0.0
 11
-2.54
 21
0.0
 31
0.0
  0
LINE
  5
404
  8
BORDER
 62
     0
 10
0.0
 20
0.0
 30
0.0
 11
0.0
 21
-2.54
 31
0.0
  0
LINE
  5
405
  8
BORDER
 62
     0
 10
0.0
 20
0.0
 30
0.0
 11
2.54
 21
0.0
 31
0.0
  0
LINE
  5
406
  8
BORDER
 62
     0
 10
0.0
 20
2.54
 30
0.0
 11
0.0
 21
4.339999999999999
 31
0.0
  0
LINE
  5
407
  8
BORDER
 62
     0
 10
-2.54
 20
0.0
 30
0.0
 11
-4.339999999999999
 21
0.0
 31
0.0
  0
LINE
  5
408
  8
BORDER
 62
     0
 10
0.0
 20
-2.54
 30
0.0
 11
0.0
 21
-4.339999999999999
 31
0.0
  0
LINE
  5
409
  8
BORDER
 62
     0
 10
2.54
 20
0.0
 30
0.0
 11
4.339999999999999
 21
0.0
 31
0.0
  0
ENDBLK
  5
401
  8
0
  0
BLOCK
  8
0
  2
SW_CENTERMARKSYMBOL_21
 70
     0
 10
0.0
 20
0.0
 30
0.0
  3
SW_CENTERMARKSYMBOL_21
  1

  0
LINE
  5
40E
  8
BORDER
 62
     0
 10
0.0
 20
0.0
 30
0.0
 11
0.0
 21
2.54
 31
0.0
  0
LINE
  5
40F
  8
BORDER
 62
     0
 10
0.0
 20
0.0
 30
0.0
 11
-2.54
 21
0.0
 31
0.0
  0
LINE
  5
410
  8
BORDER
 62
     0
 10
0.0
 20
0.0
 30
0.0
 11
0.0
 21
-2.54
 31
0.0
  0
LINE
  5
411
  8
BORDER
 62
     0
 10
0.0
 20
0.0
 30
0.0
 11
2.54
 21
0.0
 31
0.0
  0
LINE
  5
412
  8
BORDER
 62
     0
 10
0.0
 20
2.54
 30
0.0
 11
0.0
 21
4.339999999999999
 31
0.0
  0
LINE
  5
413
  8
BORDER
 62
     0
 10
-2.54
 20
0.0
 30
0.0
 11
-4.339999999999999
 21
0.0
 31
0.0
  0
LINE
  5
414
  8
BORDER
 62
     0
 10
0.0
 20
-2.54
 30
0.0
 11
0.0
 21
-4.339999999999999
 31
0.0
  0
LINE
  5
415
  8
BORDER
 62
     0
 10
2.54
 20
0.0
 30
0.0
 11
4.339999999999999
 21
0.0
 31
0.0
  0
ENDBLK
  5
40D
  8
0
  0
BLOCK
  8
0
  2
SW_CENTERMARKSYMBOL_22
 70
     0
 10
0.0
 20
0.0
 30
0.0
  3
SW_CENTERMARKSYMBOL_22
  1

  0
LINE
  5
41A
  8
BORDER
 62
     0
 10
0.0
 20
0.0
 30
0.0
 11
0.0
 21
2.54
 31
0.0
  0
LINE
  5
41B
  8
BORDER
 62
     0
 10
0.0
 20
0.0
 30
0.0
 11
-2.54
 21
0.0
 31
0.0
  0
LINE
  5
41C
  8
BORDER
 62
     0
 10
0.0
 20
0.0
 30
0.0
 11
0.0
 21
-2.54
 31
0.0
  0
LINE
  5
41D
  8
BORDER
 62
     0
 10
0.0
 20
0.0
 30
0.0
 11
2.54
 21
0.0
 31
0.0
  0
LINE
  5
41E
  8
BORDER
 62
     0
 10
0.0
 20
2.54
 30
0.0
 11
0.0
 21
4.339999999999999
 31
0.0
  0
LINE
  5
41F
  8
BORDER
 62
     0
 10
-2.54
 20
0.0
 30
0.0
 11
-4.339999999999999
 21
0.0
 31
0.0
  0
LINE
  5
420
  8
BORDER
 62
     0
 10
0.0
 20
-2.54
 30
0.0
 11
0.0
 21
-4.339999999999999
 31
0.0
  0
LINE
  5
421
  8
BORDER
 62
     0
 10
2.54
 20
0.0
 30
0.0
 11
4.339999999999999
 21
0.0
 31
0.0
  0
ENDBLK
  5
419
  8
0
  0
BLOCK
  8
0
  2
GENAXEH
 70
     0
 10
0.0
 20
0.0
 30
0.0
  3
GENAXEH
  1

  0
LINE
  5
4BD
  8
0
 10
-1.0
 20
0.0
 30
0.0
 11
1.0
 21
0.0
 31
0.0
  0
ENDBLK
  5
4BF
  8
0
  0
BLOCK
  8
0
  2
*U38
 70
     1
 10
0.0
 20
0.0
 30
0.0
  3
*U38
  1

  0
SOLID
  5
50B
  8
TRIM
  6
CONTINUOUS
 10
0.0
 20
9.9999999999999982
 30
0.0
 11
-5.0000000000000018
 21
4.9999999999999991
 31
0.0
 12
0.0
 22
4.9999999999999991
 32
0.0
 13
0.0
 23
4.9999999999999991
 33
0.0
210
0.0
220
0.0
230
-1.0
  0
SOLID
  5
50C
  8
TRIM
  6
CONTINUOUS
 10
0.0
 20
9.9999999999999982
 30
0.0
 11
-5.0000000000000009
 21
9.9999999999999982
 31
0.0
 12
-5.0000000000000018
 22
4.9999999999999991
 32
0.0
 13
-5.0000000000000018
 23
4.9999999999999991
 33
0.0
210
0.0
220
0.0
230
-1.0
  0
SOLID
  5
50D
  8
TRIM
  6
CONTINUOUS
 10
0.0
 20
4.9999999999999991
 30
0.0
 11
-10.0
 21
0.0
 31
0.0
 12
0.0
 22
0.0
 32
0.0
 13
0.0
 23
0.0
 33
0.0
210
0.0
220
0.0
230
-1.0
  0
SOLID
  5
50E
  8
TRIM
  6
CONTINUOUS
 10
0.0
 20
4.9999999999999991
 30
0.0
 11
-10.0
 21
4.9999999999999991
 31
0.0
 12
-10.0
 22
0.0
 32
0.0
 13
-10.0
 23
0.0
 33
0.0
210
0.0
220
0.0
230
-1.0
  0
LINE
  5
50F
  8
TRIM
  6
CONTINUOUS
 10
0.0
 20
4.9999999999999991
 30
0.0
 11
0.0
 21
9.9999999999999982
 31
0.0
  0
LINE
  5
510
  8
TRIM
  6
CONTINUOUS
 10
5.0000000000000009
 20
9.9999999999999982
 30
0.0
 11
5.0000000000000018
 21
4.9999999999999991
 31
0.0
  0
LINE
  5
511
  8
TRIM
  6
CONTINUOUS
 10
0.0
 20
0.0
 30
0.0
 11
0.0
 21
4.9999999999999991
 31
0.0
  0
LINE
  5
512
  8
TRIM
  6
CONTINUOUS
 10
10.0
 20
4.9999999999999991
 30
0.0
 11
10.0
 21
0.0
 31
0.0
  0
ENDBLK
  5
514
  8
0
  0
BLOCK
  8
0
  2
*U39
 70
     1
 10
0.0
 20
0.0
 30
0.0
  3
*U39
  1

  0
SOLID
  5
516
  8
TRIM
  6
CONTINUOUS
 10
0.0
 20
841.0
 30
0.0
 11
-9.999999999999801
 21
836.0
 31
0.0
 12
0.0
 22
836.0
 32
0.0
 13
0.0
 23
836.0
 33
0.0
210
0.0
220
0.0
230
-1.0
  0
SOLID
  5
517
  8
TRIM
  6
CONTINUOUS
 10
0.0
 20
841.0
 30
0.0
 11
-9.9999999999997975
 21
841.0
 31
0.0
 12
-9.999999999999801
 22
836.0
 32
0.0
 13
-9.999999999999801
 23
836.0
 33
0.0
210
0.0
220
0.0
230
-1.0
  0
SOLID
  5
518
  8
TRIM
  6
CONTINUOUS
 10
0.0
 20
836.0
 30
0.0
 11
-4.9999999999999014
 21
831.0
 31
0.0
 12
0.0
 22
831.0
 32
0.0
 13
0.0
 23
831.0
 33
0.0
210
0.0
220
0.0
230
-1.0
  0
SOLID
  5
519
  8
TRIM
  6
CONTINUOUS
 10
0.0
 20
836.0
 30
0.0
 11
-4.9999999999999014
 21
836.0
 31
0.0
 12
-4.9999999999999014
 22
831.0
 32
0.0
 13
-4.9999999999999014
 23
831.0
 33
0.0
210
0.0
220
0.0
230
-1.0
  0
LINE
  5
51A
  8
TRIM
  6
CONTINUOUS
 10
0.0
 20
836.0
 30
0.0
 11
0.0
 21
841.0
 31
0.0
  0
LINE
  5
51B
  8
TRIM
  6
CONTINUOUS
 10
9.9999999999997975
 20
841.0
 30
0.0
 11
9.999999999999801
 21
836.0
 31
0.0
  0
LINE
  5
51C
  8
TRIM
  6
CONTINUOUS
 10
0.0
 20
831.0
 30
0.0
 11
0.0
 21
836.0
 31
0.0
  0
LINE
  5
51D
  8
TRIM
  6
CONTINUOUS
 10
4.9999999999999014
 20
836.0
 30
0.0
 11
4.9999999999999014
 21
831.0
 31
0.0
  0
ENDBLK
  5
51F
  8
0
  0
BLOCK
  8
0
  2
*U40
 70
     1
 10
0.0
 20
0.0
 30
0.0
  3
*U40
  1

  0
SOLID
  5
521
  8
TRIM
  6
CONTINUOUS
 10
-1179.0
 20
841.0
 30
0.0
 11
-1189.0
 21
836.0
 31
0.0
 12
-1179.0
 22
836.0
 32
0.0
 13
-1179.0
 23
836.0
 33
0.0
210
0.0
220
0.0
230
-1.0
  0
SOLID
  5
522
  8
TRIM
  6
CONTINUOUS
 10
-1179.0
 20
841.0
 30
0.0
 11
-1189.0
 21
841.0
 31
0.0
 12
-1189.0
 22
836.0
 32
0.0
 13
-1189.0
 23
836.0
 33
0.0
210
0.0
220
0.0
230
-1.0
  0
SOLID
  5
523
  8
TRIM
  6
CONTINUOUS
 10
-1184.0
 20
836.0
 30
0.0
 11
-1189.0
 21
831.0
 31
0.0
 12
-1184.0
 22
831.0
 32
0.0
 13
-1184.0
 23
831.0
 33
0.0
210
0.0
220
0.0
230
-1.0
  0
SOLID
  5
524
  8
TRIM
  6
CONTINUOUS
 10
-1184.0
 20
836.0
 30
0.0
 11
-1189.0
 21
836.0
 31
0.0
 12
-1189.0
 22
831.0
 32
0.0
 13
-1189.0
 23
831.0
 33
0.0
210
0.0
220
0.0
230
-1.0
  0
LINE
  5
525
  8
TRIM
  6
CONTINUOUS
 10
1179.0
 20
836.0
 30
0.0
 11
1179.0
 21
841.0
 31
0.0
  0
LINE
  5
526
  8
TRIM
  6
CONTINUOUS
 10
1189.0
 20
841.0
 30
0.0
 11
1189.0
 21
836.0
 31
0.0
  0
LINE
  5
527
  8
TRIM
  6
CONTINUOUS
 10
1184.0
 20
831.0
 30
0.0
 11
1184.0
 21
836.0
 31
0.0
  0
LINE
  5
528
  8
TRIM
  6
CONTINUOUS
 10
1189.0
 20
836.0
 30
0.0
 11
1189.0
 21
831.0
 31
0.0
  0
ENDBLK
  5
52A
  8
0
  0
BLOCK
  8
0
  2
*U41
 70
     1
 10
0.0
 20
0.0
 30
0.0
  3
*U41
  1

  0
SOLID
  5
52C
  8
TRIM
  6
CONTINUOUS
 10
-1184.0
 20
10.0000000000000107
 30
0.0
 11
-1189.0
 21
5.0
 31
0.0
 12
-1184.0
 22
5.0
 32
0.0
 13
-1184.0
 23
5.0
 33
0.0
210
0.0
220
0.0
230
-1.0
  0
SOLID
  5
52D
  8
TRIM
  6
CONTINUOUS
 10
-1184.0
 20
10.0000000000000107
 30
0.0
 11
-1189.0
 21
10.0000000000000107
 31
0.0
 12
-1189.0
 22
5.0
 32
0.0
 13
-1189.0
 23
5.0
 33
0.0
210
0.0
220
0.0
230
-1.0
  0
SOLID
  5
52E
  8
TRIM
  6
CONTINUOUS
 10
-1179.0
 20
5.0
 30
0.0
 11
-1189.0
 21
0.0
 31
0.0
 12
-1179.0
 22
0.0
 32
0.0
 13
-1179.0
 23
0.0
 33
0.0
210
0.0
220
0.0
230
-1.0
  0
SOLID
  5
52F
  8
TRIM
  6
CONTINUOUS
 10
-1179.0
 20
5.0
 30
0.0
 11
-1189.0
 21
5.0
 31
0.0
 12
-1189.0
 22
0.0
 32
0.0
 13
-1189.0
 23
0.0
 33
0.0
210
0.0
220
0.0
230
-1.0
  0
LINE
  5
530
  8
TRIM
  6
CONTINUOUS
 10
1184.0
 20
5.0
 30
0.0
 11
1184.0
 21
10.0000000000000107
 31
0.0
  0
LINE
  5
531
  8
TRIM
  6
CONTINUOUS
 10
1189.0
 20
10.0000000000000107
 30
0.0
 11
1189.0
 21
5.0
 31
0.0
  0
LINE
  5
532
  8
TRIM
  6
CONTINUOUS
 10
1179.0
 20
0.0
 30
0.0
 11
1179.0
 21
5.0
 31
0.0
  0
LINE
  5
533
  8
TRIM
  6
CONTINUOUS
 10
1189.0
 20
5.0
 30
0.0
 11
1189.0
 21
0.0
 31
0.0
  0
ENDBLK
  5
535
  8
0
  0
BLOCK
  8
0
  2
*U42
 70
     1
 10
0.0
 20
0.0
 30
0.0
  3
*U42
  1

  0
TEXT
  5
537
  8
BORDER
 10
1062.1491451592999056
 20
35.3764807108000028
 30
0.0
 40
3.1749999999999989
  1
013_Base_TOP_SR
 41
0.75
  7
SLDTEXTSTYLE0
  0
ENDBLK
  5
539
  8
0
  0
BLOCK
  8
0
  2
*U43
 70
     1
 10
0.0
 20
0.0
 30
0.0
  3
*U43
  1

  0
TEXT
  5
53B
  8
BORDER
 62
     7
 10
16.7987239064666589
 20
344.2420052164999902
 30
0.0
 40
3.5
  1
K
 41
0.605
  7
SLDTEXTSTYLE1
  0
ENDBLK
  5
53D
  8
0
  0
BLOCK
  8
0
  2
*U44
 70
     1
 10
0.0
 20
0.0
 30
0.0
  3
*U44
  1

  0
TEXT
  5
53F
  8
BORDER
 62
     7
 10
16.8254600429666716
 20
394.2420052164999902
 30
0.0
 40
3.5
  1
J
 41
0.605
  7
SLDTEXTSTYLE1
  0
ENDBLK
  5
541
  8
0
  0
BLOCK
  8
0
  2
*U45
 70
     1
 10
0.0
 20
0.0
 30
0.0
  3
*U45
  1

  0
TEXT
  5
543
  8
BORDER
 62
     7
 10
16.8026736566666592
 20
444.2420052164998765
 30
0.0
 40
3.5
  1
H
 41
0.605
  7
SLDTEXTSTYLE1
  0
ENDBLK
  5
545
  8
0
  0
BLOCK
  8
0
  2
*U46
 70
     1
 10
0.0
 20
0.0
 30
0.0
  3
*U46
  1

  0
TEXT
  5
547
  8
BORDER
 62
     7
 10
16.7646961959666712
 20
494.2420052164998765
 30
0.0
 40
3.5
  1
G
 41
0.605
  7
SLDTEXTSTYLE1
  0
ENDBLK
  5
549
  8
0
  0
BLOCK
  8
0
  2
*U47
 70
     1
 10
0.0
 20
0.0
 30
0.0
  3
*U47
  1

  0
TEXT
  5
54B
  8
BORDER
 62
     7
 10
16.8157378893666589
 20
594.242005216500047
 30
0.0
 40
3.5
  1
E
 41
0.605
  7
SLDTEXTSTYLE1
  0
ENDBLK
  5
54D
  8
0
  0
BLOCK
  8
0
  2
*U48
 70
     1
 10
0.0
 20
0.0
 30
0.0
  3
*U48
  1

  0
TEXT
  5
54F
  8
BORDER
 62
     7
 10
16.786267333866661
 20
544.242005216500047
 30
0.0
 40
3.5
  1
F
 41
0.605
  7
SLDTEXTSTYLE1
  0
ENDBLK
  5
551
  8
0
  0
BLOCK
  8
0
  2
*U49
 70
     1
 10
0.0
 20
0.0
 30
0.0
  3
*U49
  1

  0
TEXT
  5
553
  8
BORDER
 62
     7
 10
16.8023697735666602
 20
294.2420052164999902
 30
0.0
 40
3.5
  1
L
 41
0.605
  7
SLDTEXTSTYLE1
  0
ENDBLK
  5
555
  8
0
  0
BLOCK
  8
0
  2
*U50
 70
     1
 10
0.0
 20
0.0
 30
0.0
  3
*U50
  1

  0
TEXT
  5
557
  8
BORDER
 62
     7
 10
268.7947742559666722
 20
5.7213323683999997
 30
0.0
 40
3.5
  1
6
 41
0.605
  7
SLDTEXTSTYLE1
  0
ENDBLK
  5
559
  8
0
  0
BLOCK
  8
0
  2
*U51
 70
     1
 10
0.0
 20
0.0
 30
0.0
  3
*U51
  1

  0
TEXT
  5
55B
  8
BORDER
 62
     7
 10
518.5682465785998829
 20
5.7706814009
 30
0.0
 40
3.5
  1
11
 41
0.605
  7
SLDTEXTSTYLE1
  0
ENDBLK
  5
55D
  8
0
  0
BLOCK
  8
0
  2
*U52
 70
     1
 10
0.0
 20
0.0
 30
0.0
  3
*U52
  1

  0
TEXT
  5
55F
  8
BORDER
 62
     7
 10
418.7953819438665732
 20
5.7213323683999997
 30
0.0
 40
3.5
  1
9
 41
0.605
  7
SLDTEXTSTYLE1
  0
ENDBLK
  5
561
  8
0
  0
BLOCK
  8
0
  2
*U53
 70
     1
 10
0.0
 20
0.0
 30
0.0
  3
*U53
  1

  0
TEXT
  5
563
  8
BORDER
 62
     7
 10
68.7941666843666724
 20
5.7420052164999991
 30
0.0
 40
3.5
  1
2
 41
0.605
  7
SLDTEXTSTYLE1
  0
ENDBLK
  5
565
  8
0
  0
BLOCK
  8
0
  2
*U54
 70
     1
 10
0.0
 20
0.0
 30
0.0
  3
*U54
  1

  0
TEXT
  5
567
  8
BORDER
 62
     7
 10
31.7105816226333417
 20
5.7420052164999991
 30
0.0
 40
3.5
  1
1
 41
0.605
  7
SLDTEXTSTYLE1
  0
ENDBLK
  5
569
  8
0
  0
BLOCK
  8
0
  2
*U55
 70
     1
 10
0.0
 20
0.0
 30
0.0
  3
*U55
  1

  0
TEXT
  5
56B
  8
BORDER
 62
     7
 10
218.7944705283665883
 20
5.7706814009
 30
0.0
 40
3.5
  1
5
 41
0.605
  7
SLDTEXTSTYLE1
  0
ENDBLK
  5
56D
  8
0
  0
BLOCK
  8
0
  2
*U56
 70
     1
 10
0.0
 20
0.0
 30
0.0
  3
*U56
  1

  0
TEXT
  5
56F
  8
BORDER
 62
     7
 10
568.1518316403332847
 20
5.774629323500001
 30
0.0
 40
3.5
  1
12
 41
0.605
  7
SLDTEXTSTYLE1
  0
ENDBLK
  5
571
  8
0
  0
BLOCK
  8
0
  2
*U57
 70
     1
 10
0.0
 20
0.0
 30
0.0
  3
*U57
  1

  0
TEXT
  5
573
  8
BORDER
 62
     7
 10
118.7962933594667021
 20
5.7667334782999999
 30
0.0
 40
3.5
  1
3
 41
0.605
  7
SLDTEXTSTYLE1
  0
ENDBLK
  5
575
  8
0
  0
BLOCK
  8
0
  2
*U58
 70
     1
 10
0.0
 20
0.0
 30
0.0
  3
*U58
  1

  0
TEXT
  5
577
  8
BORDER
 62
     7
 10
468.3307204927666021
 20
5.7213323683999997
 30
0.0
 40
3.5
  1
10
 41
0.605
  7
SLDTEXTSTYLE1
  0
ENDBLK
  5
579
  8
0
  0
BLOCK
  8
0
  2
*U59
 70
     1
 10
0.0
 20
0.0
 30
0.0
  3
*U59
  1

  0
TEXT
  5
57B
  8
BORDER
 62
     7
 10
168.7880902702665935
 20
5.7213323683999997
 30
0.0
 40
3.5
  1
4
 41
0.605
  7
SLDTEXTSTYLE1
  0
ENDBLK
  5
57D
  8
0
  0
BLOCK
  8
0
  2
*U60
 70
     1
 10
0.0
 20
0.0
 30
0.0
  3
*U60
  1

  0
TEXT
  5
57F
  8
BORDER
 62
     7
 10
318.7978124629667036
 20
5.7706814009
 30
0.0
 40
3.5
  1
7
 41
0.605
  7
SLDTEXTSTYLE1
  0
ENDBLK
  5
581
  8
0
  0
BLOCK
  8
0
  2
*U61
 70
     1
 10
0.0
 20
0.0
 30
0.0
  3
*U61
  1

  0
TEXT
  5
583
  8
BORDER
 62
     7
 10
368.7950780998666005
 20
5.7706814009
 30
0.0
 40
3.5
  1
8
 41
0.605
  7
SLDTEXTSTYLE1
  0
ENDBLK
  5
585
  8
0
  0
BLOCK
  8
0
  2
*U62
 70
     1
 10
0.0
 20
0.0
 30
0.0
  3
*U62
  1

  0
TEXT
  5
587
  8
BORDER
 62
     7
 10
16.7932551914666597
 20
644.242005216500047
 30
0.0
 40
3.5
  1
D
 41
0.605
  7
SLDTEXTSTYLE1
  0
ENDBLK
  5
589
  8
0
  0
BLOCK
  8
0
  2
*U63
 70
     1
 10
0.0
 20
0.0
 30
0.0
  3
*U63
  1

  0
TEXT
  5
58B
  8
BORDER
 62
     7
 10
16.8139149418666705
 20
744.2420052164999333
 30
0.0
 40
3.5
  1
B
 41
0.605
  7
SLDTEXTSTYLE1
  0
ENDBLK
  5
58D
  8
0
  0
BLOCK
  8
0
  2
*U64
 70
     1
 10
0.0
 20
0.0
 30
0.0
  3
*U64
  1

  0
TEXT
  5
58F
  8
BORDER
 62
     7
 10
16.7807986356666596
 20
694.2420052164999333
 30
0.0
 40
3.5
  1
C
 41
0.605
  7
SLDTEXTSTYLE1
  0
ENDBLK
  5
591
  8
0
  0
BLOCK
  8
0
  2
*U65
 70
     1
 10
0.0
 20
0.0
 30
0.0
  3
*U65
  1

  0
TEXT
  5
593
  8
BORDER
 62
     7
 10
16.775329898366671
 20
794.2420052164999333
 30
0.0
 40
3.5
  1
A
 41
0.605
  7
SLDTEXTSTYLE1
  0
ENDBLK
  5
595
  8
0
  0
BLOCK
  8
0
  2
*U66
 70
     1
 10
0.0
 20
0.0
 30
0.0
  3
*U66
  1

  0
TEXT
  5
597
  8
BORDER
 62
     7
 10
668.1457552262334048
 20
5.7357343241999992
 30
0.0
 40
3.5
  1
14
 41
0.605
  7
SLDTEXTSTYLE1
  0
ENDBLK
  5
599
  8
0
  0
BLOCK
  8
0
  2
*U67
 70
     1
 10
0.0
 20
0.0
 30
0.0
  3
*U67
  1

  0
TEXT
  5
59B
  8
BORDER
 62
     7
 10
718.1521354843332574
 20
5.7916120345999991
 30
0.0
 40
3.5
  1
15
 41
0.605
  7
SLDTEXTSTYLE1
  0
ENDBLK
  5
59D
  8
0
  0
BLOCK
  8
0
  2
*U68
 70
     1
 10
0.0
 20
0.0
 30
0.0
  3
*U68
  1

  0
TEXT
  5
59F
  8
BORDER
 62
     7
 10
618.1539583154333286
 20
5.7916120345999991
 30
0.0
 40
3.5
  1
13
 41
0.605
  7
SLDTEXTSTYLE1
  0
ENDBLK
  5
5A1
  8
0
  0
BLOCK
  8
0
  2
*U69
 70
     1
 10
0.0
 20
0.0
 30
0.0
  3
*U69
  1

  0
TEXT
  5
5A3
  8
BORDER
 62
     7
 10
768.1524393283333438
 20
5.7905541747999996
 30
0.0
 40
3.5
  1
16
 41
0.605
  7
SLDTEXTSTYLE1
  0
ENDBLK
  5
5A5
  8
0
  0
BLOCK
  8
0
  2
*U70
 70
     1
 10
0.0
 20
0.0
 30
0.0
  3
*U70
  1

  0
TEXT
  5
5A7
  8
BORDER
 62
     7
 10
918.153047016333403
 20
5.7569479534000001
 30
0.0
 40
3.5
  1
19
 41
0.605
  7
SLDTEXTSTYLE1
  0
ENDBLK
  5
5A9
  8
0
  0
BLOCK
  8
0
  2
*U71
 70
     1
 10
0.0
 20
0.0
 30
0.0
  3
*U71
  1

  0
TEXT
  5
5AB
  8
BORDER
 62
     7
 10
868.1527429395333684
 20
5.7569479534000001
 30
0.0
 40
3.5
  1
18
 41
0.605
  7
SLDTEXTSTYLE1
  0
ENDBLK
  5
5AD
  8
0
  0
BLOCK
  8
0
  2
*U72
 70
     1
 10
0.0
 20
0.0
 30
0.0
  3
*U72
  1

  0
TEXT
  5
5AF
  8
BORDER
 62
     7
 10
818.1554773025331997
 20
5.731838065299999
 30
0.0
 40
3.5
  1
17
 41
0.605
  7
SLDTEXTSTYLE1
  0
ENDBLK
  5
5B1
  8
0
  0
BLOCK
  8
0
  2
*U73
 70
     1
 10
0.0
 20
0.0
 30
0.0
  3
*U73
  1

  0
TEXT
  5
5B3
  8
BORDER
 62
     7
 10
1067.7354167020660043
 20
5.7310462972999989
 30
0.0
 40
3.5
  1
22
 41
0.605
  7
SLDTEXTSTYLE1
  0
ENDBLK
  5
5B5
  8
0
  0
BLOCK
  8
0
  2
*U74
 70
     1
 10
0.0
 20
0.0
 30
0.0
  3
*U74
  1

  0
TEXT
  5
5B7
  8
BORDER
 62
     7
 10
1018.1518316403329436
 20
5.7569479534000001
 30
0.0
 40
3.5
  1
21
 41
0.605
  7
SLDTEXTSTYLE1
  0
ENDBLK
  5
5B9
  8
0
  0
BLOCK
  8
0
  2
*U75
 70
     1
 10
0.0
 20
0.0
 30
0.0
  3
*U75
  1

  0
TEXT
  5
5BB
  8
BORDER
 62
     7
 10
967.914305554499947
 20
5.7569479534000001
 30
0.0
 40
3.5
  1
20
 41
0.605
  7
SLDTEXTSTYLE1
  0
ENDBLK
  5
5BD
  8
0
  0
BLOCK
  8
0
  2
*U76
 70
     1
 10
0.0
 20
0.0
 30
0.0
  3
*U76
  1

  0
TEXT
  5
5BF
  8
BORDER
 62
     7
 10
1117.7375433771669577
 20
5.7310462972999989
 30
0.0
 40
3.5
  1
23
 41
0.605
  7
SLDTEXTSTYLE1
  0
ENDBLK
  5
5C1
  8
0
  0
BLOCK
  8
0
  2
*U77
 70
     1
 10
0.0
 20
0.0
 30
0.0
  3
*U77
  1

  0
TEXT
  5
5C3
  8
BORDER
 62
     7
 10
1167.7293402879670339
 20
5.7310462972999998
 30
0.0
 40
3.5
  1
24
 41
0.605
  7
SLDTEXTSTYLE1
  0
ENDBLK
  5
5C5
  8
0
  0
BLOCK
  8
0
  2
*U78
 70
     1
 10
0.0
 20
0.0
 30
0.0
  3
*U78
  1

  0
TEXT
  5
5C7
  8
BORDER
 62
     7
 10
16.7537586271666612
 20
94.242005216499976
 30
0.0
 40
3.5
  1
Q
 41
0.605
  7
SLDTEXTSTYLE1
  0
ENDBLK
  5
5C9
  8
0
  0
BLOCK
  8
0
  2
*U79
 70
     1
 10
0.0
 20
0.0
 30
0.0
  3
*U79
  1

  0
TEXT
  5
5CB
  8
BORDER
 62
     7
 10
16.8120919942666589
 20
144.2420052164999902
 30
0.0
 40
3.5
  1
P
 41
0.605
  7
SLDTEXTSTYLE1
  0
ENDBLK
  5
5CD
  8
0
  0
BLOCK
  8
0
  2
*U80
 70
     1
 10
0.0
 20
0.0
 30
0.0
  3
*U80
  1

  0
TEXT
  5
5CF
  8
BORDER
 62
     7
 10
16.8014582807666706
 20
194.2420052164999902
 30
0.0
 40
3.5
  1
N
 41
0.605
  7
SLDTEXTSTYLE1
  0
ENDBLK
  5
5D1
  8
0
  0
BLOCK
  8
0
  2
*U81
 70
     1
 10
0.0
 20
0.0
 30
0.0
  3
*U81
  1

  0
TEXT
  5
5D3
  8
BORDER
 62
     7
 10
16.7504165873666615
 20
244.2420052164999902
 30
0.0
 40
3.5
  1
M
 41
0.605
  7
SLDTEXTSTYLE1
  0
ENDBLK
  5
5D5
  8
0
  0
BLOCK
  8
0
  2
*U82
 70
     1
 10
0.0
 20
0.0
 30
0.0
  3
*U82
  1

  0
TEXT
  5
5D7
  8
BORDER
 62
     7
 10
16.78201389516666
 20
44.2420052164999902
 30
0.0
 40
3.5
  1
R
 41
0.605
  7
SLDTEXTSTYLE1
  0
ENDBLK
  5
5D9
  8
0
  0
BLOCK
  8
0
  2
*U83
 70
     1
 10
0.0
 20
0.0
 30
0.0
  3
*U83
  1

  0
TEXT
  5
5DB
  8
BORDER
 62
     7
 10
868.1527429395333684
 20
831.7738736198999732
 30
0.0
 40
3.5
  1
18
 41
0.605
  7
SLDTEXTSTYLE1
  0
ENDBLK
  5
5DD
  8
0
  0
BLOCK
  8
0
  2
*U84
 70
     1
 10
0.0
 20
0.0
 30
0.0
  3
*U84
  1

  0
TEXT
  5
5DF
  8
BORDER
 62
     7
 10
1167.7293402879670339
 20
831.7738736198999732
 30
0.0
 40
3.5
  1
24
 41
0.605
  7
SLDTEXTSTYLE1
  0
ENDBLK
  5
5E1
  8
0
  0
BLOCK
  8
0
  2
*U85
 70
     1
 10
0.0
 20
0.0
 30
0.0
  3
*U85
  1

  0
TEXT
  5
5E3
  8
BORDER
 62
     7
 10
1117.7375433771669577
 20
831.7738736198999732
 30
0.0
 40
3.5
  1
23
 41
0.605
  7
SLDTEXTSTYLE1
  0
ENDBLK
  5
5E5
  8
0
  0
BLOCK
  8
0
  2
*U86
 70
     1
 10
0.0
 20
0.0
 30
0.0
  3
*U86
  1

  0
TEXT
  5
5E7
  8
BORDER
 62
     7
 10
967.914305554499947
 20
831.7738736198999732
 30
0.0
 40
3.5
  1
20
 41
0.605
  7
SLDTEXTSTYLE1
  0
ENDBLK
  5
5E9
  8
0
  0
BLOCK
  8
0
  2
*U87
 70
     1
 10
0.0
 20
0.0
 30
0.0
  3
*U87
  1

  0
TEXT
  5
5EB
  8
BORDER
 62
     7
 10
1018.1518316403329436
 20
831.7738736198999732
 30
0.0
 40
3.5
  1
21
 41
0.605
  7
SLDTEXTSTYLE1
  0
ENDBLK
  5
5ED
  8
0
  0
BLOCK
  8
0
  2
*U88
 70
     1
 10
0.0
 20
0.0
 30
0.0
  3
*U88
  1

  0
TEXT
  5
5EF
  8
BORDER
 62
     7
 10
1067.7354167020660043
 20
831.7738736198999732
 30
0.0
 40
3.5
  1
22
 41
0.605
  7
SLDTEXTSTYLE1
  0
ENDBLK
  5
5F1
  8
0
  0
BLOCK
  8
0
  2
*U89
 70
     1
 10
0.0
 20
0.0
 30
0.0
  3
*U89
  1

  0
TEXT
  5
5F3
  8
BORDER
 62
     7
 10
918.153047016333403
 20
831.7738736198999732
 30
0.0
 40
3.5
  1
19
 41
0.605
  7
SLDTEXTSTYLE1
  0
ENDBLK
  5
5F5
  8
0
  0
BLOCK
  8
0
  2
*U90
 70
     1
 10
0.0
 20
0.0
 30
0.0
  3
*U90
  1

  0
TEXT
  5
5F7
  8
BORDER
 62
     7
 10
68.7941666843666724
 20
831.7420052164999333
 30
0.0
 40
3.5
  1
2
 41
0.605
  7
SLDTEXTSTYLE1
  0
ENDBLK
  5
5F9
  8
0
  0
BLOCK
  8
0
  2
*U91
 70
     1
 10
0.0
 20
0.0
 30
0.0
  3
*U91
  1

  0
TEXT
  5
5FB
  8
BORDER
 62
     7
 10
31.7105816226333417
 20
831.7420052164999333
 30
0.0
 40
3.5
  1
1
 41
0.605
  7
SLDTEXTSTYLE1
  0
ENDBLK
  5
5FD
  8
0
  0
BLOCK
  8
0
  2
*U92
 70
     1
 10
0.0
 20
0.0
 30
0.0
  3
*U92
  1

  0
TEXT
  5
5FF
  8
BORDER
 62
     7
 10
118.7962933594667021
 20
831.7361709749000056
 30
0.0
 40
3.5
  1
3
 41
0.605
  7
SLDTEXTSTYLE1
  0
ENDBLK
  5
601
  8
0
  0
BLOCK
  8
0
  2
*U93
 70
     1
 10
0.0
 20
0.0
 30
0.0
  3
*U93
  1

  0
TEXT
  5
603
  8
BORDER
 62
     7
 10
268.7947742559666722
 20
831.7361709749000056
 30
0.0
 40
3.5
  1
6
 41
0.605
  7
SLDTEXTSTYLE1
  0
ENDBLK
  5
605
  8
0
  0
BLOCK
  8
0
  2
*U94
 70
     1
 10
0.0
 20
0.0
 30
0.0
  3
*U94
  1

  0
TEXT
  5
607
  8
BORDER
 62
     7
 10
218.7944705283665883
 20
831.7361709749000056
 30
0.0
 40
3.5
  1
5
 41
0.605
  7
SLDTEXTSTYLE1
  0
ENDBLK
  5
609
  8
0
  0
BLOCK
  8
0
  2
*U95
 70
     1
 10
0.0
 20
0.0
 30
0.0
  3
*U95
  1

  0
TEXT
  5
60B
  8
BORDER
 62
     7
 10
168.7880902702665935
 20
831.7361709749000056
 30
0.0
 40
3.5
  1
4
 41
0.605
  7
SLDTEXTSTYLE1
  0
ENDBLK
  5
60D
  8
0
  0
BLOCK
  8
0
  2
*U96
 70
     1
 10
0.0
 20
0.0
 30
0.0
  3
*U96
  1

  0
TEXT
  5
60F
  8
BORDER
 62
     7
 10
318.7978124629667036
 20
831.7361709749000056
 30
0.0
 40
3.5
  1
7
 41
0.605
  7
SLDTEXTSTYLE1
  0
ENDBLK
  5
611
  8
0
  0
BLOCK
  8
0
  2
*U97
 70
     1
 10
0.0
 20
0.0
 30
0.0
  3
*U97
  1

  0
TEXT
  5
613
  8
BORDER
 62
     7
 10
518.5682465785998829
 20
831.7361709749000056
 30
0.0
 40
3.5
  1
11
 41
0.605
  7
SLDTEXTSTYLE1
  0
ENDBLK
  5
615
  8
0
  0
BLOCK
  8
0
  2
*U98
 70
     1
 10
0.0
 20
0.0
 30
0.0
  3
*U98
  1

  0
TEXT
  5
617
  8
BORDER
 62
     7
 10
468.3307204927666021
 20
831.7361709749000056
 30
0.0
 40
3.5
  1
10
 41
0.605
  7
SLDTEXTSTYLE1
  0
ENDBLK
  5
619
  8
0
  0
BLOCK
  8
0
  2
*U99
 70
     1
 10
0.0
 20
0.0
 30
0.0
  3
*U99
  1

  0
TEXT
  5
61B
  8
BORDER
 62
     7
 10
418.7953819438665732
 20
831.7361709749000056
 30
0.0
 40
3.5
  1
9
 41
0.605
  7
SLDTEXTSTYLE1
  0
ENDBLK
  5
61D
  8
0
  0
BLOCK
  8
0
  2
*U100
 70
     1
 10
0.0
 20
0.0
 30
0.0
  3
*U100
  1

  0
TEXT
  5
61F
  8
BORDER
 62
     7
 10
368.7950780998666005
 20
831.7361709749000056
 30
0.0
 40
3.5
  1
8
 41
0.605
  7
SLDTEXTSTYLE1
  0
ENDBLK
  5
621
  8
0
  0
BLOCK
  8
0
  2
*U101
 70
     1
 10
0.0
 20
0.0
 30
0.0
  3
*U101
  1

  0
TEXT
  5
623
  8
BORDER
 62
     7
 10
568.1518316403332847
 20
831.7361709749000056
 30
0.0
 40
3.5
  1
12
 41
0.605
  7
SLDTEXTSTYLE1
  0
ENDBLK
  5
625
  8
0
  0
BLOCK
  8
0
  2
*U102
 70
     1
 10
0.0
 20
0.0
 30
0.0
  3
*U102
  1

  0
TEXT
  5
627
  8
BORDER
 62
     7
 10
818.1554773025331997
 20
831.7738736198999732
 30
0.0
 40
3.5
  1
17
 41
0.605
  7
SLDTEXTSTYLE1
  0
ENDBLK
  5
629
  8
0
  0
BLOCK
  8
0
  2
*U103
 70
     1
 10
0.0
 20
0.0
 30
0.0
  3
*U103
  1

  0
TEXT
  5
62B
  8
BORDER
 62
     7
 10
768.1524393283333438
 20
831.7738736198999732
 30
0.0
 40
3.5
  1
16
 41
0.605
  7
SLDTEXTSTYLE1
  0
ENDBLK
  5
62D
  8
0
  0
BLOCK
  8
0
  2
*U104
 70
     1
 10
0.0
 20
0.0
 30
0.0
  3
*U104
  1

  0
TEXT
  5
62F
  8
BORDER
 62
     7
 10
718.1521354843332574
 20
831.7738736198999732
 30
0.0
 40
3.5
  1
15
 41
0.605
  7
SLDTEXTSTYLE1
  0
ENDBLK
  5
631
  8
0
  0
BLOCK
  8
0
  2
*U105
 70
     1
 10
0.0
 20
0.0
 30
0.0
  3
*U105
  1

  0
TEXT
  5
633
  8
BORDER
 62
     7
 10
668.1457552262334048
 20
831.7738736198999732
 30
0.0
 40
3.5
  1
14
 41
0.605
  7
SLDTEXTSTYLE1
  0
ENDBLK
  5
635
  8
0
  0
BLOCK
  8
0
  2
*U106
 70
     1
 10
0.0
 20
0.0
 30
0.0
  3
*U106
  1

  0
TEXT
  5
637
  8
BORDER
 62
     7
 10
618.1539583154333286
 20
831.7361709749000056
 30
0.0
 40
3.5
  1
13
 41
0.605
  7
SLDTEXTSTYLE1
  0
ENDBLK
  5
639
  8
0
  0
BLOCK
  8
0
  2
*U107
 70
     1
 10
0.0
 20
0.0
 30
0.0
  3
*U107
  1

  0
TEXT
  5
63B
  8
BORDER
 62
     7
 10
1180.7753298983659533
 20
794.2420052164999333
 30
0.0
 40
3.5
  1
A
 41
0.605
  7
SLDTEXTSTYLE1
  0
ENDBLK
  5
63D
  8
0
  0
BLOCK
  8
0
  2
*U108
 70
     1
 10
0.0
 20
0.0
 30
0.0
  3
*U108
  1

  0
TEXT
  5
63F
  8
BORDER
 62
     7
 10
1180.7862673338659079
 20
544.242005216500047
 30
0.0
 40
3.5
  1
F
 41
0.605
  7
SLDTEXTSTYLE1
  0
ENDBLK
  5
641
  8
0
  0
BLOCK
  8
0
  2
*U109
 70
     1
 10
0.0
 20
0.0
 30
0.0
  3
*U109
  1

  0
TEXT
  5
643
  8
BORDER
 62
     7
 10
1180.8157378893658915
 20
594.242005216500047
 30
0.0
 40
3.5
  1
E
 41
0.605
  7
SLDTEXTSTYLE1
  0
ENDBLK
  5
645
  8
0
  0
BLOCK
  8
0
  2
*U110
 70
     1
 10
0.0
 20
0.0
 30
0.0
  3
*U110
  1

  0
TEXT
  5
647
  8
BORDER
 62
     7
 10
1180.7932551914659598
 20
644.242005216500047
 30
0.0
 40
3.5
  1
D
 41
0.605
  7
SLDTEXTSTYLE1
  0
ENDBLK
  5
649
  8
0
  0
BLOCK
  8
0
  2
*U111
 70
     1
 10
0.0
 20
0.0
 30
0.0
  3
*U111
  1

  0
TEXT
  5
64B
  8
BORDER
 62
     7
 10
1180.7807986356660876
 20
694.2420052164999333
 30
0.0
 40
3.5
  1
C
 41
0.605
  7
SLDTEXTSTYLE1
  0
ENDBLK
  5
64D
  8
0
  0
BLOCK
  8
0
  2
*U112
 70
     1
 10
0.0
 20
0.0
 30
0.0
  3
*U112
  1

  0
TEXT
  5
64F
  8
BORDER
 62
     7
 10
1180.8139149418659599
 20
744.2420052164999333
 30
0.0
 40
3.5
  1
B
 41
0.605
  7
SLDTEXTSTYLE1
  0
ENDBLK
  5
651
  8
0
  0
BLOCK
  8
0
  2
*U113
 70
     1
 10
0.0
 20
0.0
 30
0.0
  3
*U113
  1

  0
TEXT
  5
653
  8
BORDER
 62
     7
 10
1180.764696195966053
 20
494.2420052164998765
 30
0.0
 40
3.5
  1
G
 41
0.605
  7
SLDTEXTSTYLE1
  0
ENDBLK
  5
655
  8
0
  0
BLOCK
  8
0
  2
*U114
 70
     1
 10
0.0
 20
0.0
 30
0.0
  3
*U114
  1

  0
TEXT
  5
657
  8
BORDER
 62
     7
 10
1180.802673656666002
 20
444.2420052164998765
 30
0.0
 40
3.5
  1
H
 41
0.605
  7
SLDTEXTSTYLE1
  0
ENDBLK
  5
659
  8
0
  0
BLOCK
  8
0
  2
*U115
 70
     1
 10
0.0
 20
0.0
 30
0.0
  3
*U115
  1

  0
TEXT
  5
65B
  8
BORDER
 62
     7
 10
1180.8254600429659149
 20
394.2420052164999902
 30
0.0
 40
3.5
  1
J
 41
0.605
  7
SLDTEXTSTYLE1
  0
ENDBLK
  5
65D
  8
0
  0
BLOCK
  8
0
  2
*U116
 70
     1
 10
0.0
 20
0.0
 30
0.0
  3
*U116
  1

  0
TEXT
  5
65F
  8
BORDER
 62
     7
 10
1180.7987239064659661
 20
344.2420052164999902
 30
0.0
 40
3.5
  1
K
 41
0.605
  7
SLDTEXTSTYLE1
  0
ENDBLK
  5
661
  8
0
  0
BLOCK
  8
0
  2
*U117
 70
     1
 10
0.0
 20
0.0
 30
0.0
  3
*U117
  1

  0
TEXT
  5
663
  8
BORDER
 62
     7
 10
1180.8023697735670794
 20
294.2420052164999902
 30
0.0
 40
3.5
  1
L
 41
0.605
  7
SLDTEXTSTYLE1
  0
ENDBLK
  5
665
  8
0
  0
BLOCK
  8
0
  2
*U118
 70
     1
 10
0.0
 20
0.0
 30
0.0
  3
*U118
  1

  0
TEXT
  5
667
  8
BORDER
 62
     7
 10
1180.7504165873660895
 20
244.2420052164999902
 30
0.0
 40
3.5
  1
M
 41
0.605
  7
SLDTEXTSTYLE1
  0
ENDBLK
  5
669
  8
0
  0
BLOCK
  8
0
  2
*U119
 70
     1
 10
0.0
 20
0.0
 30
0.0
  3
*U119
  1

  0
TEXT
  5
66B
  8
BORDER
 62
     7
 10
1180.8120919942659839
 20
144.2420052164999902
 30
0.0
 40
3.5
  1
P
 41
0.605
  7
SLDTEXTSTYLE1
  0
ENDBLK
  5
66D
  8
0
  0
BLOCK
  8
0
  2
*U120
 70
     1
 10
0.0
 20
0.0
 30
0.0
  3
*U120
  1

  0
TEXT
  5
66F
  8
BORDER
 62
     7
 10
1180.753758627166917
 20
94.242005216499976
 30
0.0
 40
3.5
  1
Q
 41
0.605
  7
SLDTEXTSTYLE1
  0
ENDBLK
  5
671
  8
0
  0
BLOCK
  8
0
  2
*U121
 70
     1
 10
0.0
 20
0.0
 30
0.0
  3
*U121
  1

  0
TEXT
  5
673
  8
BORDER
 62
     7
 10
1180.7820138951660738
 20
44.2420052164999902
 30
0.0
 40
3.5
  1
R
 41
0.605
  7
SLDTEXTSTYLE1
  0
ENDBLK
  5
675
  8
0
  0
BLOCK
  8
0
  2
*U122
 70
     1
 10
0.0
 20
0.0
 30
0.0
  3
*U122
  1

  0
TEXT
  5
677
  8
BORDER
 62
     7
 10
1180.8014582807659281
 20
194.2420052164999902
 30
0.0
 40
3.5
  1
N
 41
0.605
  7
SLDTEXTSTYLE1
  0
ENDBLK
  5
679
  8
0
  0
BLOCK
  8
0
  2
*U123
 70
     1
 10
0.0
 20
0.0
 30
0.0
  3
*U123
  1

  0
TEXT
  5
67B
  8
BORDER
 10
1153.9469767685000079
 20
22.044387424
 30
0.0
 40
1.8
  1
Sheet:
 41
0.605
  7
SLDTEXTSTYLE1
  0
ENDBLK
  5
67D
  8
0
  0
BLOCK
  8
0
  2
*U124
 70
     1
 10
0.0
 20
0.0
 30
0.0
  3
*U124
  1

  0
TEXT
  5
67F
  8
BORDER
 10
1168.3555403806999493
 20
22.044387424
 30
0.0
 40
1.8
  1
Revision:
 41
0.605
  7
SLDTEXTSTYLE1
  0
ENDBLK
  5
681
  8
0
  0
BLOCK
  8
0
  2
*U125
 70
     1
 10
0.0
 20
0.0
 30
0.0
  3
*U125
  1

  0
TEXT
  5
683
  8
BORDER
 10
1117.6126923287999944
 20
22.044387424
 30
0.0
 40
1.8
  1
Material:
 41
0.605
  7
SLDTEXTSTYLE1
  0
ENDBLK
  5
685
  8
0
  0
BLOCK
  8
0
  2
*U126
 70
     1
 10
0.0
 20
0.0
 30
0.0
  3
*U126
  1

  0
TEXT
  5
687
  8
BORDER
 10
1154.5373266332999265
 20
15.5329388307999992
 30
0.0
 40
2.5
  1
1 of 1
 41
0.57
  7
SLDTEXTSTYLE2
  0
ENDBLK
  5
689
  8
0
  0
BLOCK
  8
0
  2
*U127
 70
     1
 10
0.0
 20
0.0
 30
0.0
  3
*U127
  1

  0
TEXT
  5
68B
  8
BORDER
 10
1117.4423007072000473
 20
39.7778074247000006
 30
0.0
 40
1.8
  1
Checked/Approved by:
 41
0.605
  7
SLDTEXTSTYLE1
  0
ENDBLK
  5
68D
  8
0
  0
BLOCK
  8
0
  2
*U128
 70
     1
 10
0.0
 20
0.0
 30
0.0
  3
*U128
  1

  0
TEXT
  5
68F
  8
BORDER
 62
     0
 10
0.0
 20
0.5203219316000001
 30
0.0
 40
1.8
  1
Projection Method:
 41
0.605
  7
SLDTEXTSTYLE1
  0
ENDBLK
  5
691
  8
0
  0
BLOCK
  8
0
  2
*U129
 70
     1
 10
0.0
 20
0.0
 30
0.0
  3
*U129
  1

  0
TEXT
  5
693
  8
BORDER
 62
     0
 10
5.4000000000000004
 20
-2.2796779686000002
 30
0.0
 40
1.8
  1
THIRD ANGLE
 41
0.605
  7
SLDTEXTSTYLE1
  0
ENDBLK
  5
695
  8
0
  0
BLOCK
  8
0
  2
*U130
 70
     1
 10
0.0
 20
0.0
 30
0.0
  3
*U130
  1

  0
TEXT
  5
697
  8
BORDER
 10
1092.1822359313000561
 20
22.1868716954000007
 30
0.0
 40
1.8
  1
Sheet Size:
 41
0.605
  7
SLDTEXTSTYLE1
  0
ENDBLK
  5
699
  8
0
  0
BLOCK
  8
0
  2
*U131
 70
     1
 10
0.0
 20
0.0
 30
0.0
  3
*U131
  1

  0
TEXT
  5
69B
  8
BORDER
 10
1100.874767649999967
 20
13.2295006099000005
 30
0.0
 40
5.0
  1
A0
 41
0.75
  7
SLDTEXTSTYLE0
  0
ENDBLK
  5
69D
  8
0
  0
BLOCK
  8
0
  2
*U132
 70
     1
 10
0.0
 20
0.0
 30
0.0
  3
*U132
  1

  0
TEXT
  5
69F
  8
BORDER
 10
1117.2543782092000129
 20
48.422242332899998
 30
0.0
 40
1.8
  1
Drawn by:
 41
0.605
  7
SLDTEXTSTYLE1
  0
ENDBLK
  5
6A1
  8
0
  0
BLOCK
  8
0
  2
*U133
 70
     1
 10
0.0
 20
0.0
 30
0.0
  3
*U133
  1

  0
TEXT
  5
6A3
  8
BORDER
 10
1148.6488980137999079
 20
48.4325409814999972
 30
0.0
 40
1.8520833333
  1
Drawn Date:
 41
0.605
  7
SLDTEXTSTYLE1
  0
ENDBLK
  5
6A5
  8
0
  0
BLOCK
  8
0
  2
*U134
 70
     1
 10
0.0
 20
0.0
 30
0.0
  3
*U134
  1

  0
TEXT
  5
6A7
  8
BORDER
 10
1148.6488980137999079
 20
39.7881060732999998
 30
0.0
 40
1.8520833333
  1
Checked/Approved Date:
 41
0.605
  7
SLDTEXTSTYLE1
  0
ENDBLK
  5
6A9
  8
0
  0
BLOCK
  8
0
  2
*U135
 70
     1
 10
0.0
 20
0.0
 30
0.0
  3
*U135
  1

  0
TEXT
  5
6AB
  8
BORDER
 10
1138.1722245712999211
 20
28.5209622606999993
 30
0.0
 40
1.8520833333
  1
Drawing Scale:
 41
0.605
  7
SLDTEXTSTYLE1
  0
ENDBLK
  5
6AD
  8
0
  0
BLOCK
  8
0
  2
*U136
 70
     1
 10
0.0
 20
0.0
 30
0.0
  3
*U136
  1

  0
TEXT
  5
6AF
  8
BORDER
 10
1117.2543782092000129
 20
44.0606398143000035
 30
0.0
 40
2.5
  1
Le Xuan Tung
 41
0.605
  7
SLDTEXTSTYLE1
  0
ENDBLK
  5
6B1
  8
0
  0
BLOCK
  8
0
  2
*U137
 70
     1
 10
0.0
 20
0.0
 30
0.0
  3
*U137
  1

  0
TEXT
  5
6B3
  8
BORDER
 10
1148.6488980137999079
 20
44.0606398143000035
 30
0.0
 40
2.5
  1
2021
 41
0.605
  7
SLDTEXTSTYLE1
  0
ENDBLK
  5
6B5
  8
0
  0
BLOCK
  8
0
  2
*U138
 70
     1
 10
0.0
 20
0.0
 30
0.0
  3
*U138
  1

  0
TEXT
  5
6B7
  8
BORDER
 10
1117.6302232052000818
 20
34.7476544518999972
 30
0.0
 40
2.5
  1
Nguyen Van Tung
 41
0.605
  7
SLDTEXTSTYLE1
  0
ENDBLK
  5
6B9
  8
0
  0
BLOCK
  8
0
  2
*U139
 70
     1
 10
0.0
 20
0.0
 30
0.0
  3
*U139
  1

  0
TEXT
  5
6BB
  8
BORDER
 10
1148.6488980137999079
 20
34.7476544518999972
 30
0.0
 40
2.5
  1
2021
 41
0.605
  7
SLDTEXTSTYLE1
  0
ENDBLK
  5
6BD
  8
0
  0
BLOCK
  8
0
  2
*U140
 70
     1
 10
0.0
 20
0.0
 30
0.0
  3
*U140
  1

  0
TEXT
  5
6BF
  8
BORDER
 10
1170.8112289400000918
 20
15.8028126099000001
 30
0.0
 40
2.6458333333000001
  1
0A
 41
0.605
  7
SLDTEXTSTYLE1
  0
ENDBLK
  5
6C1
  8
0
  0
BLOCK
  8
0
  2
*U141
 70
     1
 10
0.0
 20
0.0
 30
0.0
  3
*U141
  1

  0
TEXT
  5
6C3
  8
BORDER
 10
1156.7758558640000501
 20
28.5038443615999988
 30
0.0
 40
2.5
  1
1:1
 41
0.605
  7
SLDTEXTSTYLE1
  0
ENDBLK
  5
6C5
  8
0
  0
BLOCK
  8
0
  2
*U142
 70
     1
 10
0.0
 20
0.0
 30
0.0
  3
*U142
  1

  0
TEXT
  5
6C7
  8
BORDER
 10
1136.4840424281001106
 20
22.044387424
 30
0.0
 40
1.8
  1
Qty:
 41
0.605
  7
SLDTEXTSTYLE1
  0
ENDBLK
  5
6C9
  8
0
  0
BLOCK
  8
0
  2
*U143
 70
     1
 10
0.0
 20
0.0
 30
0.0
  3
*U143
  1

  0
TEXT
  5
6CB
  8
BORDER
 10
1141.7267976308999096
 20
15.5329388307999992
 30
0.0
 40
2.5
  1
01
 41
0.605
  7
SLDTEXTSTYLE1
  0
ENDBLK
  5
6CD
  8
0
  0
BLOCK
  8
0
  2
*U144
 70
     1
 10
0.0
 20
0.0
 30
0.0
  3
*U144
  1

  0
TEXT
  5
6CF
  8
BORDER
 10
1119.704857625700015
 20
16.1972530791999993
 30
0.0
 40
2.5
  1
SS400 t3
 41
0.605
  7
SLDTEXTSTYLE1
  0
ENDBLK
  5
6D1
  8
0
  0
BLOCK
  8
0
  2
*U145
 70
     1
 10
0.0
 20
0.0
 30
0.0
  3
*U145
  1

  0
TEXT
  5
6D3
  8
BORDER
 10
1125.5672099915000217
 20
28.5038443615999988
 30
0.0
 40
2.5
  1
mm
 41
0.605
  7
SLDTEXTSTYLE1
  0
ENDBLK
  5
6D5
  8
0
  0
BLOCK
  8
0
  2
*U146
 70
     1
 10
0.0
 20
0.0
 30
0.0
  3
*U146
  1

  0
TEXT
  5
6D7
  8
BORDER
 10
1117.6463813350999317
 20
28.5209622606999993
 30
0.0
 40
1.8520833333
  1
Unit:
 41
0.605
  7
SLDTEXTSTYLE1
  0
ENDBLK
  5
6D9
  8
0
  0
BLOCK
  8
0
  2
*U147
 70
     1
 10
0.0
 20
0.0
 30
0.0
  3
*U147
  1

  0
TEXT
  5
6DB
  8
BORDER
 10
1060.9040651123000316
 20
30.5841853028000017
 30
0.0
 40
1.8
  1
Description:
 41
0.605
  7
SLDTEXTSTYLE1
  0
ENDBLK
  5
6DD
  8
0
  0
BLOCK
  8
0
  2
*U148
 70
     1
 10
0.0
 20
0.0
 30
0.0
  3
*U148
  1

  0
TEXT
  5
6DF
  8
BORDER
 10
1061.2335972963001041
 20
40.227181021299991
 30
0.0
 40
2.5
  1
SERVICE ROBOT
 41
0.75
  7
SLDTEXTSTYLE0
  0
ENDBLK
  5
6E1
  8
0
  0
BLOCK
  8
0
  2
*U149
 70
     1
 10
0.0
 20
0.0
 30
0.0
  3
*U149
  1

  0
TEXT
  5
6E3
  8
BORDER
 10
1061.0058789697000066
 20
44.5271241153999995
 30
0.0
 40
1.8
  1
Project:
 41
0.605
  7
SLDTEXTSTYLE1
  0
ENDBLK
  5
6E5
  8
0
  0
BLOCK
  8
0
  2
*U150
 70
     1
 10
0.0
 20
0.0
 30
0.0
  3
*U150
  1

  0
TEXT
  5
6E7
  8
BORDER
 62
     0
 10
0.0
 20
0.7226693493999999
 30
0.0
 40
2.5
  1
NOTES:
 41
0.605
  7
SLDTEXTSTYLE1
  0
ENDBLK
  5
6E9
  8
0
  0
BLOCK
  8
0
  2
*U151
 70
     1
 10
0.0
 20
0.0
 30
0.0
  3
*U151
  1

  0
TEXT
  5
6EC
  8
BORDER
 62
     0
 10
0.0
 20
-2.9436411208000002
 30
0.0
 40
2.5
  1
1. Lm s
 41
0.605
  7
SLDTEXTSTYLE3
  0
TEXT
  5
6ED
  8
BORDER
 62
     0
 10
9.3774999999999995
 20
-2.9436411208000002
 30
0.0
 40
2.5
  1
\U+1EA1
 41
0.605
  7
MtXpl_MS_PGothic
  0
TEXT
  5
6EF
  8
BORDER
 62
     0
 10
11.5775000000000006
 20
-2.9436411208000002
 30
0.0
 40
2.5
  1
ch ba via, lm t c
 41
0.605
  7
SLDTEXTSTYLE3
  0
TEXT
  5
6F0
  8
BORDER
 62
     0
 10
34.7691666666666634
 20
-2.9436411208000002
 30
0.0
 40
2.5
  1
\U+1EA1
 41
0.605
  7
MtXpl_MS_PGothic
  0
TEXT
  5
6F1
  8
BORDER
 62
     0
 10
36.9691666666666734
 20
-2.9436411208000002
 30
0.0
 40
2.5
  1
nh s
 41
0.605
  7
SLDTEXTSTYLE3
  0
TEXT
  5
6F2
  8
BORDER
 62
     0
 10
42.4141666666666595
 20
-2.9436411208000002
 30
0.0
 40
2.5
  1
\U+1EAF
 41
0.605
  7
MtXpl_MS_PGothic
  0
TEXT
  5
6F3
  8
BORDER
 62
     0
 10
44.6141666666666694
 20
-2.9436411208000002
 30
0.0
 40
2.5
  1
c sau khi gia cng.
 41
0.605
  7
SLDTEXTSTYLE3
  0
ENDBLK
  5
6F5
  8
0
  0
BLOCK
  8
0
  2
*U152
 70
     1
 10
0.0
 20
0.0
 30
0.0
  3
*U152
  1

  0
TEXT
  5
6F7
  8
BORDER
 62
     0
 10
0.0
 20
-6.4436412287999998
 30
0.0
 40
2.5
  1
2. Kch th
 41
0.605
  7
SLDTEXTSTYLE3
  0
TEXT
  5
6F8
  8
BORDER
 62
     0
 10
12.4024999999999999
 20
-6.4436412287999998
 30
0.0
 40
2.5
  1
\U+01B0
 41
0.605
  7
SLDTEXTSTYLE3
  0
TEXT
  5
6F9
  8
BORDER
 62
     0
 10
13.8169866984993099
 20
-6.4436412287999998
 30
0.0
 40
2.5
  1
\U+1EDB
 41
0.605
  7
MtXpl_MS_PGothic
  0
TEXT
  5
6FA
  8
BORDER
 62
     0
 10
16.0169866984993092
 20
-6.4436412287999998
 30
0.0
 40
2.5
  1
c ch
 41
0.605
  7
SLDTEXTSTYLE3
  0
TEXT
  5
6FB
  8
BORDER
 62
     0
 10
21.4619866984993202
 20
-6.4436412287999998
 30
0.0
 40
2.5
  1
\U+01B0
 41
0.605
  7
SLDTEXTSTYLE3
  0
TEXT
  5
6FC
  8
BORDER
 62
     0
 10
22.8764733969986409
 20
-6.4436412287999998
 30
0.0
 40
2.5
  1
a r tun theo b
 41
0.605
  7
SLDTEXTSTYLE3
  0
TEXT
  5
6FD
  8
BORDER
 62
     0
 10
44.6564733969986278
 20
-6.4436412287999998
 30
0.0
 40
2.5
  1
\U+1EA3
 41
0.605
  7
MtXpl_MS_PGothic
  0
TEXT
  5
6FE
  8
BORDER
 62
     0
 10
46.8564733969986378
 20
-6.4436412287999998
 30
0.0
 40
2.5
  1
n 3D
 41
0.605
  7
SLDTEXTSTYLE3
  0
ENDBLK
  5
700
  8
0
  0
BLOCK
  8
0
  2
*U153
 70
     1
 10
0.0
 20
0.0
 30
0.0
  3
*U153
  1

  0
TEXT
  5
702
  8
BORDER
 62
     0
 10
0.0
 20
-9.7873913367999972
 30
0.0
 40
2.5
  1
3. Dung sai ch
 41
0.605
  7
SLDTEXTSTYLE3
  0
TEXT
  5
703
  8
BORDER
 62
     0
 10
17.3433333333333302
 20
-9.7873913367999972
 30
0.0
 40
2.5
  1
\U+01B0
 41
0.605
  7
SLDTEXTSTYLE3
  0
TEXT
  5
704
  8
BORDER
 62
     0
 10
18.7578200318326509
 20
-9.7873913367999972
 30
0.0
 40
2.5
  1
a r tun theo ISO 2768-m
 41
0.605
  7
SLDTEXTSTYLE3
  0
ENDBLK
  5
706
  8
0
  0
BLOCK
  8
0
  2
*U154
 70
     1
 10
0.0
 20
0.0
 30
0.0
  3
*U154
  1

  0
TEXT
  5
708
  8
BORDER
 10
850.2157820912999568
 20
634.2565539125999976
 30
0.0
 40
6.3499999999999988
  1
\U+2205
 41
0.75
  7
SLDTEXTSTYLE0
  0
ENDBLK
  5
70A
  8
0
  0
BLOCK
  8
0
  2
*U155
 70
     1
 10
0.0
 20
0.0
 30
0.0
  3
*U155
  1

  0
TEXT
  5
70C
  8
BORDER
 10
859.8007547261997843
 20
634.2565539125999976
 30
0.0
 40
6.3499999999999988
  1
500.00
 41
0.75
  7
SLDTEXTSTYLE0
  0
ENDBLK
  5
70E
  8
0
  0
BLOCK
  8
0
  2
*U156
 70
     1
 10
0.0
 20
0.0
 30
0.0
  3
*U156
  1

  0
TEXT
  5
710
  8
BORDER
 10
313.9975259071999858
 20
480.4416402546999052
 30
0.0
 40
6.3499999999999988
  1
60.00
 41
0.75
  7
SLDTEXTSTYLE0
  0
ENDBLK
  5
712
  8
0
  0
BLOCK
  8
0
  2
*U157
 70
     1
 10
0.0
 20
0.0
 30
0.0
  3
*U157
  1

  0
TEXT
  5
714
  8
BORDER
 10
321.3449656202000142
 20
323.7524980312999787
 30
0.0
 40
6.3499999999999988
  1
\U+2205
 41
0.75
  7
SLDTEXTSTYLE0
  0
ENDBLK
  5
716
  8
0
  0
BLOCK
  8
0
  2
*U158
 70
     1
 10
0.0
 20
0.0
 30
0.0
  3
*U158
  1

  0
TEXT
  5
718
  8
BORDER
 10
330.9299382551999997
 20
323.7524980312999787
 30
0.0
 40
6.3499999999999988
  1
3.60
 41
0.75
  7
SLDTEXTSTYLE0
  0
ENDBLK
  5
71A
  8
0
  0
BLOCK
  8
0
  2
*U159
 70
     1
 10
0.0
 20
0.0
 30
0.0
  3
*U159
  1

  0
TEXT
  5
71C
  8
BORDER
 10
311.1001911307000114
 20
354.4368623551000042
 30
0.0
 40
6.3499999999999988
  1
\U+2205
 41
0.75
  7
SLDTEXTSTYLE0
  0
ENDBLK
  5
71E
  8
0
  0
BLOCK
  8
0
  2
*U160
 70
     1
 10
0.0
 20
0.0
 30
0.0
  3
*U160
  1

  0
TEXT
  5
720
  8
BORDER
 10
320.6851637656000094
 20
354.4368623551000042
 30
0.0
 40
6.3499999999999988
  1
5.20
 41
0.75
  7
SLDTEXTSTYLE0
  0
ENDBLK
  5
722
  8
0
  0
BLOCK
  8
0
  2
*U161
 70
     1
 10
0.0
 20
0.0
 30
0.0
  3
*U161
  1

  0
TEXT
  5
724
  8
BORDER
 10
527.8977034496000442
 20
269.7929241557999944
 30
0.0
 40
6.3499999999999988
  1
100.00
 41
0.75
  7
SLDTEXTSTYLE0
  0
ENDBLK
  5
726
  8
0
  0
BLOCK
  8
0
  2
*U162
 70
     1
 10
0.0
 20
0.0
 30
0.0
  3
*U162
  1

  0
TEXT
  5
728
  8
BORDER
 10
656.9685533209000141
 20
270.1657445263999762
 30
0.0
 40
6.3499999999999988
  1
50.00
 41
0.75
  7
SLDTEXTSTYLE0
  0
ENDBLK
  5
72A
  8
0
  0
BLOCK
  8
0
  2
*U163
 70
     1
 10
0.0
 20
0.0
 30
0.0
  3
*U163
  1

  0
TEXT
  5
72C
  8
BORDER
 10
776.4131986331000235
 20
302.1022355868000204
 30
0.0
 40
6.3499999999999988
  1
8.00
 41
0.75
  7
SLDTEXTSTYLE0
  0
ENDBLK
  5
72E
  8
0
  0
BLOCK
  8
0
  2
*U164
 70
     1
 10
0.0
 20
0.0
 30
0.0
  3
*U164
  1

  0
TEXT
  5
730
  8
BORDER
 10
824.7345705072000328
 20
342.1930356692000146
 30
0.0
 40
6.3499999999999988
  1
R2.50
 41
0.75
  7
SLDTEXTSTYLE0
  0
ENDBLK
  5
732
  8
0
  0
BLOCK
  8
0
  2
*U165
 70
     1
 10
0.0
 20
0.0
 30
0.0
  3
*U165
  1

  0
TEXT
  5
734
  8
BORDER
 10
281.6515541440999755
 20
480.4416402546999052
 30
0.0
 40
6.3499999999999988
  1
100.00
 41
0.75
  7
SLDTEXTSTYLE0
  0
ENDBLK
  5
736
  8
0
  0
BLOCK
  8
0
  2
*U166
 70
     1
 10
0.0
 20
0.0
 30
0.0
  3
*U166
  1

  0
TEXT
  5
738
  8
BORDER
 10
723.2656658294999943
 20
747.0885880682000106
 30
0.0
 40
6.3499999999999988
  1
t3
 41
0.75
  7
SLDTEXTSTYLE0
  0
ENDBLK
  5
73A
  8
0
  0
BLOCK
  8
0
  2
*U167
 70
     1
 10
0.0
 20
0.0
 30
0.0
  3
*U167
  1

  0
INSERT
  5
73F
  8
BORDER
  2
_DOT
 10
624.5341997796998612
 20
717.2319587710001088
 30
0.0
 41
1.016
 42
1.016
 43
1.016
 50
199.8471465021785889
  0
POLYLINE
  5
740
  8
BORDER
 66
     1
 10
0.0
 20
0.0
 30
0.0
  0
VERTEX
  5
741
  8
BORDER
 10
625.4898511231467637
 20
717.5769029835447554
 30
0.0
  0
VERTEX
  5
742
  8
BORDER
 10
716.3683908046000397
 20
750.379688772100053
 30
0.0
  0
VERTEX
  5
743
  8
BORDER
 10
722.7183908046000624
 20
750.379688772100053
 30
0.0
  0
SEQEND
  5
744
  8
BORDER
  0
ENDBLK
  5
746
  8
0
  0
ENDSEC
  0
SECTION
  2
ENTITIES
  0
INSERT
  5
78
  8
TRIM
  6
CONTINUOUS
  2
*U38
 10
0.0
 20
0.0
 30
0.0
1001
ACAD
1002
{
1000
R14_HATCH_DATA
1000
78
1011
1.0
1021
0.0
1031
0.0
1021
0.0
1031
0.0
1011
0.0
1021
0.0
1031
0.0
1021
1.0
1031
0.0
1011
0.0
1021
0.0
1031
0.0
1021
0.0
1031
1.0
1040
0.0
1010
0.0
1020
0.0
1030
1.0
1000
SOLID
1070
     1
1070
     0
1071
        1
1071
        0
1071
        6
1070
     1
1040
10.0
1040
0.0
1040
10.0
1040
5.0
1070
     1
1040
10.0
1040
5.0
1040
5.0000000000000018
1040
4.9999999999999991
1070
     1
1040
5.0000000000000018
1040
4.9999999999999991
1040
5.0000000000000009
1040
9.9999999999999982
1070
     1
1040
5.0000000000000009
1040
9.9999999999999982
1040
0.0
1040
9.9999999999999982
1070
     1
1040
0.0
1040
9.9999999999999982
1040
0.0
1040
0.0
1070
     1
1040
0.0
1040
0.0
1040
10.0
1040
0.0
1071
        0
1070
     0
1070
     1
1071
        1
1040
0.0
1040
0.0
1040
0.0
1002
}
  0
INSERT
  5
79
  8
TRIM
  6
CONTINUOUS
  2
*U39
 10
0.0
 20
0.0
 30
0.0
1001
ACAD
1002
{
1000
R14_HATCH_DATA
1000
79
1011
1.0
1021
0.0
1031
0.0
1021
0.0
1031
0.0
1011
0.0
1021
0.0
1031
0.0
1021
1.0
1031
0.0
1011
0.0
1021
0.0
1031
0.0
1021
0.0
1031
1.0
1040
0.0
1010
0.0
1020
0.0
1030
1.0
1000
SOLID
1070
     1
1070
     0
1071
        1
1071
        0
1071
        6
1070
     1
1040
0.0
1040
831.0
1040
4.9999999999999014
1040
831.0
1070
     1
1040
4.9999999999999014
1040
831.0
1040
4.9999999999999014
1040
836.0
1070
     1
1040
4.9999999999999014
1040
836.0
1040
9.999999999999801
1040
836.0
1070
     1
1040
9.999999999999801
1040
836.0
1040
9.9999999999997975
1040
841.0
1070
     1
1040
9.9999999999997975
1040
841.0
1040
0.0
1040
841.0
1070
     1
1040
0.0
1040
841.0
1040
0.0
1040
831.0
1071
        0
1070
     0
1070
     1
1071
        1
1040
0.0
1040
0.0
1040
0.0
1002
}
  0
INSERT
  5
7A
  8
TRIM
  6
CONTINUOUS
  2
*U40
 10
0.0
 20
0.0
 30
0.0
1001
ACAD
1002
{
1000
R14_HATCH_DATA
1000
7A
1011
1.0
1021
0.0
1031
0.0
1021
0.0
1031
0.0
1011
0.0
1021
0.0
1031
0.0
1021
1.0
1031
0.0
1011
0.0
1021
0.0
1031
0.0
1021
0.0
1031
1.0
1040
0.0
1010
0.0
1020
0.0
1030
1.0
1000
SOLID
1070
     1
1070
     0
1071
        1
1071
        0
1071
        6
1070
     1
1040
1184.0
1040
836.0
1040
1184.0
1040
831.0
1070
     1
1040
1184.0
1040
831.0
1040
1189.0
1040
831.0
1070
     1
1040
1189.0
1040
831.0
1040
1189.0
1040
841.0
1070
     1
1040
1189.0
1040
841.0
1040
1179.0
1040
841.0
1070
     1
1040
1179.0
1040
841.0
1040
1179.0
1040
836.0
1070
     1
1040
1179.0
1040
836.0
1040
1184.0
1040
836.0
1071
        0
1070
     0
1070
     1
1071
        1
1040
0.0
1040
0.0
1040
0.0
1002
}
  0
INSERT
  5
7B
  8
TRIM
  6
CONTINUOUS
  2
*U41
 10
0.0
 20
0.0
 30
0.0
1001
ACAD
1002
{
1000
R14_HATCH_DATA
1000
7B
1011
1.0
1021
0.0
1031
0.0
1021
0.0
1031
0.0
1011
0.0
1021
0.0
1031
0.0
1021
1.0
1031
0.0
1011
0.0
1021
0.0
1031
0.0
1021
0.0
1031
1.0
1040
0.0
1010
0.0
1020
0.0
1030
1.0
1000
SOLID
1070
     1
1070
     0
1071
        1
1071
        0
1071
        6
1070
     1
1040
1189.0
1040
10.0000000000000107
1040
1184.0
1040
10.0000000000000107
1070
     1
1040
1184.0
1040
10.0000000000000107
1040
1184.0
1040
5.0
1070
     1
1040
1184.0
1040
5.0
1040
1179.0
1040
5.0
1070
     1
1040
1179.0
1040
5.0
1040
1179.0
1040
0.0
1070
     1
1040
1179.0
1040
0.0
1040
1189.0
1040
0.0
1070
     1
1040
1189.0
1040
0.0
1040
1189.0
1040
10.0000000000000107
1071
        0
1070
     0
1070
     1
1071
        1
1040
0.0
1040
0.0
1040
0.0
1002
}
  0
LINE
  5
7C
  8
BORDER
 10
544.5
 20
836.0
 30
0.0
 11
544.5
 21
831.0
 31
0.0
  0
LINE
  5
7D
  8
BORDER
 10
494.5
 20
836.0
 30
0.0
 11
494.5
 21
831.0
 31
0.0
  0
LINE
  5
7E
  8
BORDER
 10
444.5
 20
836.0
 30
0.0
 11
444.5
 21
831.0
 31
0.0
  0
LINE
  5
7F
  8
BORDER
 10
394.5
 20
836.0
 30
0.0
 11
394.5
 21
831.0
 31
0.0
  0
LINE
  5
80
  8
BORDER
 10
344.5
 20
836.0
 30
0.0
 11
344.5
 21
831.0
 31
0.0
  0
LINE
  5
81
  8
BORDER
 10
294.5
 20
836.0
 30
0.0
 11
294.5
 21
831.0
 31
0.0
  0
LINE
  5
82
  8
BORDER
 10
244.5
 20
836.0
 30
0.0
 11
244.5
 21
831.0
 31
0.0
  0
LINE
  5
83
  8
BORDER
 10
194.5
 20
836.0
 30
0.0
 11
194.5
 21
831.0
 31
0.0
  0
LINE
  5
84
  8
BORDER
 10
144.5
 20
836.0
 30
0.0
 11
144.5
 21
831.0
 31
0.0
  0
LINE
  5
85
  8
BORDER
 10
94.5000000000000142
 20
836.0
 30
0.0
 11
94.5000000000000142
 21
831.0
 31
0.0
  0
LINE
  5
86
  8
BORDER
 10
44.5
 20
836.0
 30
0.0
 11
44.5
 21
831.0
 31
0.0
  0
LINE
  5
87
  8
CONSTRUCTION
 10
594.5
 20
833.0
 30
0.0
 11
544.5
 21
833.0
 31
0.0
  0
LINE
  5
88
  8
CONSTRUCTION
 10
544.5
 20
833.0
 30
0.0
 11
494.5
 21
833.0
 31
0.0
  0
LINE
  5
89
  8
CONSTRUCTION
 10
494.5
 20
833.0
 30
0.0
 11
444.5
 21
833.0
 31
0.0
  0
LINE
  5
8A
  8
CONSTRUCTION
 10
444.5
 20
833.0
 30
0.0
 11
394.5
 21
833.0
 31
0.0
  0
LINE
  5
8B
  8
CONSTRUCTION
 10
394.5
 20
833.0
 30
0.0
 11
344.5
 21
833.0
 31
0.0
  0
LINE
  5
8C
  8
CONSTRUCTION
 10
344.5
 20
833.0
 30
0.0
 11
294.5
 21
833.0
 31
0.0
  0
LINE
  5
8D
  8
CONSTRUCTION
 10
294.5
 20
833.0
 30
0.0
 11
244.5
 21
833.0
 31
0.0
  0
LINE
  5
8E
  8
CONSTRUCTION
 10
244.5
 20
833.0
 30
0.0
 11
194.5
 21
833.0
 31
0.0
  0
LINE
  5
8F
  8
CONSTRUCTION
 10
194.5
 20
833.0
 30
0.0
 11
144.5
 21
833.0
 31
0.0
  0
LINE
  5
90
  8
CONSTRUCTION
 10
144.5
 20
833.0
 30
0.0
 11
94.5000000000000142
 21
833.0
 31
0.0
  0
LINE
  5
91
  8
CONSTRUCTION
 10
94.5000000000000142
 20
833.0
 30
0.0
 11
44.5
 21
833.0
 31
0.0
  0
LINE
  5
92
  8
CONSTRUCTION
 10
44.5
 20
833.0
 30
0.0
 11
45.3926283110000028
 21
833.0
 31
0.0
  0
LINE
  5
93
  8
CONSTRUCTION
 10
44.5
 20
833.0
 30
0.0
 11
32.0
 21
833.0
 31
0.0
  0
LINE
  5
94
  8
BORDER
 10
644.5
 20
836.0
 30
0.0
 11
644.5
 21
831.0
 31
0.0
  0
LINE
  5
95
  8
BORDER
 10
694.5
 20
836.0
 30
0.0
 11
694.5
 21
831.0
 31
0.0
  0
LINE
  5
96
  8
BORDER
 10
744.5
 20
836.0
 30
0.0
 11
744.5
 21
831.0
 31
0.0
  0
LINE
  5
97
  8
CONSTRUCTION
 10
594.5
 20
0.0
 30
0.0
 11
594.5
 21
5.0
 31
0.0
  0
LINE
  5
98
  8
BORDER
 10
794.5
 20
836.0
 30
0.0
 11
794.5
 21
831.0
 31
0.0
  0
LINE
  5
99
  8
BORDER
 10
844.5
 20
836.0
 30
0.0
 11
844.5
 21
831.0
 31
0.0
  0
LINE
  5
9A
  8
BORDER
 10
894.5
 20
836.0
 30
0.0
 11
894.5
 21
831.0
 31
0.0
  0
LINE
  5
9B
  8
BORDER
 10
944.5
 20
836.0
 30
0.0
 11
944.5
 21
831.0
 31
0.0
  0
LINE
  5
9C
  8
BORDER
 10
994.5
 20
836.0
 30
0.0
 11
994.5
 21
831.0
 31
0.0
  0
LINE
  5
9D
  8
BORDER
 10
1044.5
 20
836.0
 30
0.0
 11
1044.5
 21
831.0
 31
0.0
  0
LINE
  5
9E
  8
CONSTRUCTION
 10
0.0
 20
0.0
 30
0.0
 11
1189.0
 21
0.0
 31
0.0
  0
LINE
  5
9F
  8
BORDER
 10
1094.5
 20
836.0
 30
0.0
 11
1094.5
 21
831.0
 31
0.0
  0
LINE
  5
A0
  8
BORDER
 10
1144.5
 20
836.0
 30
0.0
 11
1144.5
 21
831.0
 31
0.0
  0
LINE
  5
A1
  8
CONSTRUCTION
 10
594.5
 20
833.0
 30
0.0
 11
644.5
 21
833.0
 31
0.0
  0
LINE
  5
A2
  8
CONSTRUCTION
 10
644.5
 20
833.0
 30
0.0
 11
694.5
 21
833.0
 31
0.0
  0
LINE
  5
A3
  8
BORDER
 10
1116.0540298161999999
 20
33.5703270607999968
 30
0.0
 11
1059.036352289999968
 21
33.5703270607999968
 31
0.0
  0
LINE
  5
A4
  8
BORDER
 10
1147.5699836286000846
 20
52.0001454479000103
 30
0.0
 11
1147.5699836286000846
 21
33.5703270607999968
 31
0.0
  0
LINE
  5
A5
  8
BORDER
  6
CONTINUOUS
 10
1134.9813812183999744
 20
10.0001454478999996
 30
0.0
 11
1134.9813812183999744
 21
33.5703270607999968
 31
0.0
  0
LINE
  5
A6
  8
BORDER
 10
1179.0
 20
42.5703270607999897
 30
0.0
 11
1116.0540298161999999
 21
42.5703270607999897
 31
0.0
  0
LINE
  5
A7
  8
BORDER
 10
1116.0540298161999999
 20
24.5703270608000004
 30
0.0
 11
1089.036352289999968
 21
24.5703270608000004
 31
0.0
  0
LINE
  5
A8
  8
CONSTRUCTION
 10
1167.2000000000000455
 20
24.5703270608000004
 30
0.0
 11
1179.0
 21
10.0001454478999996
 31
0.0
  0
LINE
  5
A9
  8
BORDER
  6
CONTINUOUS
 10
1167.2000000000000455
 20
10.0001454478999996
 30
0.0
 11
1167.2000000000000455
 21
24.5703270608000004
 31
0.0
  0
LINE
  5
AA
  8
BORDER
  6
CONTINUOUS
 10
1179.0
 20
24.5703270608000004
 30
0.0
 11
1116.0540298161999999
 21
24.5703270608000004
 31
0.0
  0
LINE
  5
AB
  8
BORDER
  6
CONTINUOUS
 10
1152.2000000000000455
 20
10.0001454478999996
 30
0.0
 11
1152.2000000000000455
 21
24.5703270608000004
 31
0.0
  0
LINE
  5
AC
  8
BORDER
 10
1067.714658106800016
 20
14.8656048576999993
 30
0.0
 11
1079.7284011771000678
 21
14.8656048576999993
 31
0.0
  0
LINE
  5
AD
  8
BORDER
 10
1059.036352289999968
 20
52.0001454479000103
 30
0.0
 11
1179.036352289999968
 21
52.0001454479000103
 31
0.0
  0
LINE
  5
AE
  8
BORDER
  6
CONTINUOUS
 10
1059.036352289999968
 20
52.0001454479000103
 30
0.0
 11
1059.036352289999968
 21
10.0001454478999996
 31
0.0
  0
LINE
  5
AF
  8
CONSTRUCTION
 10
694.5
 20
833.0
 30
0.0
 11
744.5
 21
833.0
 31
0.0
  0
LINE
  5
B0
  8
CONSTRUCTION
 10
744.5
 20
833.0
 30
0.0
 11
794.5
 21
833.0
 31
0.0
  0
LINE
  5
B1
  8
BORDER
 10
1116.0540298161999999
 20
52.0001454479000103
 30
0.0
 11
1116.0540298161999999
 21
10.0001454478999996
 31
0.0
  0
LINE
  5
B2
  8
CONSTRUCTION
 10
794.5
 20
833.0
 30
0.0
 11
844.5
 21
833.0
 31
0.0
  0
LINE
  5
B3
  8
CONSTRUCTION
 10
844.5
 20
833.0
 30
0.0
 11
894.5
 21
833.0
 31
0.0
  0
LINE
  5
B4
  8
CONSTRUCTION
 10
894.5
 20
833.0
 30
0.0
 11
944.5
 21
833.0
 31
0.0
  0
LINE
  5
B5
  8
CONSTRUCTION
 10
944.5
 20
833.0
 30
0.0
 11
994.5
 21
833.0
 31
0.0
  0
LINE
  5
B6
  8
CONSTRUCTION
 10
994.5
 20
833.0
 30
0.0
 11
1044.5
 21
833.0
 31
0.0
  0
LINE
  5
B7
  8
CONSTRUCTION
 10
1044.5
 20
833.0
 30
0.0
 11
1094.5
 21
833.0
 31
0.0
  0
LINE
  5
B8
  8
CONSTRUCTION
 10
1094.5
 20
833.0
 30
0.0
 11
1144.5
 21
833.0
 31
0.0
  0
LINE
  5
B9
  8
CONSTRUCTION
 10
1144.5
 20
833.0
 30
0.0
 11
1169.5
 21
833.0
 31
0.0
  0
LINE
  5
BA
  8
BORDER
 10
1179.0
 20
470.5
 30
0.0
 11
1184.0
 21
470.5
 31
0.0
  0
LINE
  5
BB
  8
BORDER
 10
1179.0
 20
520.5
 30
0.0
 11
1184.0
 21
520.5
 31
0.0
  0
LINE
  5
BC
  8
BORDER
 10
1179.0
 20
570.5
 30
0.0
 11
1184.0
 21
570.5
 31
0.0
  0
LINE
  5
BD
  8
BORDER
 10
1179.0
 20
620.5
 30
0.0
 11
1184.0
 21
620.5
 31
0.0
  0
LINE
  5
BE
  8
BORDER
 10
1179.0
 20
670.5
 30
0.0
 11
1184.0
 21
670.5
 31
0.0
  0
LINE
  5
BF
  8
BORDER
 10
1179.0
 20
720.5
 30
0.0
 11
1184.0
 21
720.5
 31
0.0
  0
LINE
  5
C0
  8
BORDER
 10
1179.0
 20
770.5
 30
0.0
 11
1184.0
 21
770.5
 31
0.0
  0
LINE
  5
C1
  8
CONSTRUCTION
 10
1181.5
 20
770.5
 30
0.0
 11
1181.5
 21
820.5
 31
0.0
  0
LINE
  5
C2
  8
CONSTRUCTION
 10
1181.5
 20
770.5
 30
0.0
 11
1181.5
 21
720.5
 31
0.0
  0
LINE
  5
C3
  8
CONSTRUCTION
 10
1181.5
 20
720.5
 30
0.0
 11
1181.5
 21
670.5
 31
0.0
  0
LINE
  5
C4
  8
CONSTRUCTION
 10
1181.5
 20
670.5
 30
0.0
 11
1181.5
 21
620.5
 31
0.0
  0
LINE
  5
C5
  8
CONSTRUCTION
 10
1181.5
 20
620.5
 30
0.0
 11
1181.5
 21
570.5
 31
0.0
  0
LINE
  5
C6
  8
CONSTRUCTION
 10
1181.5
 20
570.5
 30
0.0
 11
1181.5
 21
520.5
 31
0.0
  0
LINE
  5
C7
  8
CONSTRUCTION
 10
1181.5
 20
520.5
 30
0.0
 11
1181.5
 21
470.5
 31
0.0
  0
LINE
  5
C8
  8
CONSTRUCTION
 10
1181.5
 20
470.5
 30
0.0
 11
1181.5
 21
420.5
 31
0.0
  0
LINE
  5
C9
  8
BORDER
 10
1179.0
 20
370.5
 30
0.0
 11
1184.0
 21
370.5
 31
0.0
  0
LINE
  5
CA
  8
BORDER
 10
1179.0
 20
320.5
 30
0.0
 11
1184.0
 21
320.5
 31
0.0
  0
LINE
  5
CB
  8
BORDER
  6
CONTINUOUS
 10
1074.1558991771000819
 20
16.1156048576999993
 30
0.0
 11
1074.1558991771000819
 21
13.6156048576999993
 31
0.0
  0
LINE
  5
CC
  8
BORDER
  6
CONTINUOUS
 10
1074.1558991771000819
 20
13.6156048576999993
 30
0.0
 11
1079.1558991771000819
 21
12.3656048576999993
 31
0.0
  0
LINE
  5
CD
  8
BORDER
  6
CONTINUOUS
 10
1079.1558991771000819
 20
12.3656048576999993
 30
0.0
 11
1079.1558991771000819
 21
17.3656048576999993
 31
0.0
  0
LINE
  5
CE
  8
CONSTRUCTION
 10
0.0
 20
0.0
 30
0.0
 11
0.0
 21
841.0
 31
0.0
  0
LINE
  5
CF
  8
BORDER
 10
1179.0
 20
270.5
 30
0.0
 11
1184.0
 21
270.5
 31
0.0
  0
LINE
  5
D0
  8
CONSTRUCTION
 10
0.0
 20
841.0
 30
0.0
 11
1189.0
 21
841.0
 31
0.0
  0
LINE
  5
D1
  8
CONSTRUCTION
 10
1189.0
 20
0.0
 30
0.0
 11
1189.0
 21
841.0
 31
0.0
  0
LINE
  5
D2
  8
BORDER
 10
15.0
 20
836.0
 30
0.0
 11
1184.0
 21
836.0
 31
0.0
  0
LINE
  5
D3
  8
BORDER
 10
15.0
 20
836.0
 30
0.0
 11
15.0
 21
5.0
 31
0.0
  0
LINE
  5
D4
  8
BORDER
 10
15.0
 20
5.0
 30
0.0
 11
1184.0
 21
5.0
 31
0.0
  0
LINE
  5
D5
  8
BORDER
 10
1184.0
 20
836.0
 30
0.0
 11
1184.0
 21
5.0
 31
0.0
  0
LINE
  5
D6
  8
BORDER
 10
20.0
 20
831.0
 30
0.0
 11
1179.0
 21
831.0
 31
0.0
  0
LINE
  5
D7
  8
BORDER
 10
20.0
 20
831.0
 30
0.0
 11
20.0
 21
10.0001454478999996
 31
0.0
  0
LINE
  5
D8
  8
BORDER
 10
20.0
 20
10.0001454478999996
 30
0.0
 11
1179.0
 21
10.0001454478999996
 31
0.0
  0
LINE
  5
D9
  8
BORDER
 10
1179.0
 20
831.0
 30
0.0
 11
1179.0
 21
10.0001454478999996
 31
0.0
  0
LINE
  5
DA
  8
CONSTRUCTION
 10
594.5
 20
841.0
 30
0.0
 11
594.5
 21
836.0
 31
0.0
  0
LINE
  5
DB
  8
BORDER
 10
1179.0
 20
220.5
 30
0.0
 11
1184.0
 21
220.5
 31
0.0
  0
LINE
  5
DC
  8
BORDER
 10
594.5
 20
836.0
 30
0.0
 11
594.5
 21
826.0
 31
0.0
  0
LINE
  5
DD
  8
BORDER
 10
594.5
 20
5.0
 30
0.0
 11
594.5
 21
10.0001454478999996
 31
0.0
  0
LINE
  5
DE
  8
BORDER
 10
15.0
 20
420.5
 30
0.0
 11
25.0
 21
420.5
 31
0.0
  0
LINE
  5
DF
  8
BORDER
 10
1184.0
 20
420.5
 30
0.0
 11
1174.0
 21
420.5
 31
0.0
  0
LINE
  5
E0
  8
BORDER
 10
544.5
 20
10.0001454478999996
 30
0.0
 11
544.5
 21
5.0
 31
0.0
  0
LINE
  5
E1
  8
CONSTRUCTION
 10
594.5
 20
7.0
 30
0.0
 11
544.5
 21
7.0
 31
0.0
  0
LINE
  5
E2
  8
BORDER
 10
494.5
 20
10.0001454478999996
 30
0.0
 11
494.5
 21
5.0
 31
0.0
  0
LINE
  5
E3
  8
BORDER
 10
444.5
 20
10.0001454478999996
 30
0.0
 11
444.5
 21
5.0
 31
0.0
  0
LINE
  5
E4
  8
BORDER
 10
394.5
 20
10.0001454478999996
 30
0.0
 11
394.5
 21
5.0
 31
0.0
  0
LINE
  5
E5
  8
BORDER
  6
CONTINUOUS
 10
1079.1558991771000819
 20
17.3656048576999993
 30
0.0
 11
1074.1558991771000819
 21
16.1156048576999993
 31
0.0
  0
LINE
  5
E6
  8
BORDER
 10
1179.0859374410999862
 20
33.5703270607999968
 30
0.0
 11
1116.0540298161999999
 21
33.5703270607999968
 31
0.0
  0
LINE
  5
E7
  8
BORDER
 10
344.5
 20
10.0001454478999996
 30
0.0
 11
344.5
 21
5.0
 31
0.0
  0
LINE
  5
E8
  8
BORDER
 10
294.5
 20
10.0001454478999996
 30
0.0
 11
294.5
 21
5.0
 31
0.0
  0
LINE
  5
E9
  8
BORDER
 10
244.5
 20
10.0001454478999996
 30
0.0
 11
244.5
 21
5.0
 31
0.0
  0
LINE
  5
EA
  8
BORDER
 10
194.5
 20
10.0001454478999996
 30
0.0
 11
194.5
 21
5.0
 31
0.0
  0
LINE
  5
EB
  8
BORDER
 10
144.5
 20
10.0001454478999996
 30
0.0
 11
144.5
 21
5.0
 31
0.0
  0
LINE
  5
EC
  8
BORDER
 10
94.5000000000000142
 20
10.0001454478999996
 30
0.0
 11
94.5000000000000142
 21
5.0
 31
0.0
  0
LINE
  5
ED
  8
CONSTRUCTION
 10
544.5
 20
7.0
 30
0.0
 11
494.5
 21
7.0
 31
0.0
  0
LINE
  5
EE
  8
CONSTRUCTION
 10
494.5
 20
7.0
 30
0.0
 11
444.5
 21
7.0
 31
0.0
  0
LINE
  5
EF
  8
CONSTRUCTION
 10
444.5
 20
7.0
 30
0.0
 11
394.5
 21
7.0
 31
0.0
  0
LINE
  5
F0
  8
CONSTRUCTION
 10
394.5
 20
7.0
 30
0.0
 11
344.5
 21
7.0
 31
0.0
  0
LINE
  5
F1
  8
CONSTRUCTION
 10
344.5
 20
7.0
 30
0.0
 11
294.5
 21
7.0
 31
0.0
  0
LINE
  5
F2
  8
CONSTRUCTION
 10
294.5
 20
7.0
 30
0.0
 11
244.5
 21
7.0
 31
0.0
  0
LINE
  5
F3
  8
CONSTRUCTION
 10
244.5
 20
7.0
 30
0.0
 11
194.5
 21
7.0
 31
0.0
  0
LINE
  5
F4
  8
CONSTRUCTION
 10
194.5
 20
7.0
 30
0.0
 11
144.5
 21
7.0
 31
0.0
  0
LINE
  5
F5
  8
BORDER
 10
1179.0
 20
170.5
 30
0.0
 11
1184.0
 21
170.5
 31
0.0
  0
LINE
  5
F6
  8
CONSTRUCTION
 10
144.5
 20
7.0
 30
0.0
 11
94.5000000000000142
 21
7.0
 31
0.0
  0
LINE
  5
F7
  8
CONSTRUCTION
 10
94.5000000000000142
 20
7.0
 30
0.0
 11
44.5
 21
7.0
 31
0.0
  0
LINE
  5
F8
  8
BORDER
 10
44.5
 20
10.0001454478999996
 30
0.0
 11
44.5
 21
5.0
 31
0.0
  0
LINE
  5
F9
  8
CONSTRUCTION
 10
44.5
 20
7.0
 30
0.0
 11
32.0
 21
7.0
 31
0.0
  0
LINE
  5
FA
  8
BORDER
 10
644.5
 20
10.0001454478999996
 30
0.0
 11
644.5
 21
5.0
 31
0.0
  0
LINE
  5
FB
  8
BORDER
 10
694.5
 20
10.0001454478999996
 30
0.0
 11
694.5
 21
5.0
 31
0.0
  0
LINE
  5
FC
  8
BORDER
 10
744.5
 20
10.0001454478999996
 30
0.0
 11
744.5
 21
5.0
 31
0.0
  0
LINE
  5
FD
  8
BORDER
 10
794.5
 20
10.0001454478999996
 30
0.0
 11
794.5
 21
5.0
 31
0.0
  0
LINE
  5
FE
  8
BORDER
 10
844.5
 20
10.0001454478999996
 30
0.0
 11
844.5
 21
5.0
 31
0.0
  0
LINE
  5
FF
  8
BORDER
 10
894.5
 20
10.0001454478999996
 30
0.0
 11
894.5
 21
5.0
 31
0.0
  0
LINE
  5
100
  8
BORDER
 10
944.5
 20
10.0001454478999996
 30
0.0
 11
944.5
 21
5.0
 31
0.0
  0
LINE
  5
101
  8
BORDER
 10
994.5
 20
10.0001454478999996
 30
0.0
 11
994.5
 21
5.0
 31
0.0
  0
LINE
  5
102
  8
BORDER
 10
1044.5
 20
10.0001454478999996
 30
0.0
 11
1044.5
 21
5.0
 31
0.0
  0
LINE
  5
103
  8
BORDER
 10
1094.5381397542998911
 20
10.0001454478999996
 30
0.0
 11
1094.4745747297999969
 21
5.0
 31
0.0
  0
LINE
  5
104
  8
BORDER
 10
1144.5
 20
10.0001454478999996
 30
0.0
 11
1144.5
 21
5.0
 31
0.0
  0
LINE
  5
105
  8
CONSTRUCTION
 10
594.5
 20
7.0
 30
0.0
 11
644.5
 21
7.0
 31
0.0
  0
LINE
  5
106
  8
CONSTRUCTION
 10
644.5
 20
7.0
 30
0.0
 11
694.5
 21
7.0
 31
0.0
  0
LINE
  5
107
  8
CONSTRUCTION
 10
694.5
 20
7.0
 30
0.0
 11
744.5
 21
7.0
 31
0.0
  0
LINE
  5
108
  8
CONSTRUCTION
 10
744.5
 20
7.0
 30
0.0
 11
794.5
 21
7.0
 31
0.0
  0
LINE
  5
109
  8
CONSTRUCTION
 10
794.5
 20
7.0
 30
0.0
 11
844.5
 21
7.0
 31
0.0
  0
LINE
  5
10A
  8
CONSTRUCTION
 10
844.5
 20
7.0
 30
0.0
 11
894.5
 21
7.0
 31
0.0
  0
LINE
  5
10B
  8
CONSTRUCTION
 10
894.5
 20
7.0
 30
0.0
 11
944.5
 21
7.0
 31
0.0
  0
LINE
  5
10C
  8
CONSTRUCTION
 10
944.5
 20
7.0
 30
0.0
 11
994.5
 21
7.0
 31
0.0
  0
LINE
  5
10D
  8
CONSTRUCTION
 10
994.5
 20
7.0
 30
0.0
 11
1044.5
 21
7.0
 31
0.0
  0
LINE
  5
10E
  8
CONSTRUCTION
 10
1044.5
 20
7.0
 30
0.0
 11
1094.5
 21
7.0
 31
0.0
  0
LINE
  5
10F
  8
CONSTRUCTION
 10
1094.5
 20
7.0
 30
0.0
 11
1144.5
 21
7.0
 31
0.0
  0
LINE
  5
110
  8
CONSTRUCTION
 10
1144.5
 20
7.0
 30
0.0
 11
1169.5
 21
7.0
 31
0.0
  0
LINE
  5
111
  8
TRIM
 10
0.0
 20
0.0
 30
0.0
 11
0.0
 21
10.0
 31
0.0
  0
LINE
  5
112
  8
BORDER
 10
1179.0
 20
120.5
 30
0.0
 11
1184.0
 21
120.5
 31
0.0
  0
LINE
  5
113
  8
BORDER
 10
1179.0
 20
70.5
 30
0.0
 11
1184.0
 21
70.5
 31
0.0
  0
LINE
  5
114
  8
TRIM
 10
0.0
 20
10.0
 30
0.0
 11
5.0
 21
10.0
 31
0.0
  0
LINE
  5
115
  8
TRIM
 10
5.0
 20
10.0
 30
0.0
 11
5.0
 21
5.0
 31
0.0
  0
LINE
  5
116
  8
TRIM
 10
5.0
 20
5.0
 30
0.0
 11
10.0
 21
5.0
 31
0.0
  0
LINE
  5
117
  8
TRIM
 10
10.0
 20
5.0
 30
0.0
 11
10.0
 21
0.0
 31
0.0
  0
LINE
  5
118
  8
TRIM
 10
0.0
 20
841.0
 30
0.0
 11
10.0
 21
841.0
 31
0.0
  0
LINE
  5
119
  8
CONSTRUCTION
 10
1181.5
 20
420.5
 30
0.0
 11
1181.5
 21
370.5
 31
0.0
  0
LINE
  5
11A
  8
TRIM
 10
10.0
 20
0.0
 30
0.0
 11
0.0
 21
0.0
 31
0.0
  0
LINE
  5
11B
  8
BORDER
 10
15.0
 20
370.5
 30
0.0
 11
20.0
 21
370.5
 31
0.0
  0
LINE
  5
11C
  8
BORDER
 10
15.0
 20
320.5
 30
0.0
 11
20.0
 21
320.5
 31
0.0
  0
LINE
  5
11D
  8
BORDER
 10
15.0
 20
270.5
 30
0.0
 11
20.0
 21
270.5
 31
0.0
  0
LINE
  5
11E
  8
BORDER
 10
15.0
 20
220.5
 30
0.0
 11
20.0
 21
220.5
 31
0.0
  0
LINE
  5
11F
  8
BORDER
 10
15.0
 20
170.5
 30
0.0
 11
20.0
 21
170.5
 31
0.0
  0
LINE
  5
120
  8
CONSTRUCTION
 10
1181.5
 20
370.5
 30
0.0
 11
1181.5
 21
320.5
 31
0.0
  0
LINE
  5
121
  8
CONSTRUCTION
 10
1181.5
 20
320.5
 30
0.0
 11
1181.5
 21
270.5
 31
0.0
  0
LINE
  5
122
  8
CONSTRUCTION
 10
1181.5
 20
270.5
 30
0.0
 11
1181.5
 21
220.5
 31
0.0
  0
LINE
  5
123
  8
BORDER
 10
15.0
 20
120.5
 30
0.0
 11
20.0
 21
120.5
 31
0.0
  0
LINE
  5
124
  8
CONSTRUCTION
 10
1181.5
 20
220.5
 30
0.0
 11
1181.5
 21
170.5
 31
0.0
  0
LINE
  5
125
  8
CONSTRUCTION
 10
1181.5
 20
170.5
 30
0.0
 11
1181.5
 21
120.5
 31
0.0
  0
LINE
  5
126
  8
BORDER
 10
15.0
 20
70.5
 30
0.0
 11
20.0
 21
70.5
 31
0.0
  0
LINE
  5
127
  8
CONSTRUCTION
 10
1181.5
 20
120.5
 30
0.0
 11
1181.5
 21
70.5
 31
0.0
  0
LINE
  5
128
  8
CONSTRUCTION
 10
1181.5
 20
70.5
 30
0.0
 11
1181.5
 21
20.5
 31
0.0
  0
LINE
  5
129
  8
BORDER
 10
15.0
 20
470.5
 30
0.0
 11
20.0
 21
470.5
 31
0.0
  0
LINE
  5
12A
  8
TRIM
 10
10.0
 20
841.0
 30
0.0
 11
10.0
 21
836.0
 31
0.0
  0
LINE
  5
12B
  8
TRIM
 10
10.0
 20
836.0
 30
0.0
 11
5.0
 21
836.0
 31
0.0
  0
LINE
  5
12C
  8
TRIM
 10
5.0
 20
836.0
 30
0.0
 11
5.0
 21
831.0
 31
0.0
  0
LINE
  5
12D
  8
TRIM
 10
5.0
 20
831.0
 30
0.0
 11
0.0
 21
831.0
 31
0.0
  0
LINE
  5
12E
  8
CONSTRUCTION
 10
17.5
 20
370.5
 30
0.0
 11
17.5
 21
420.5
 31
0.0
  0
LINE
  5
12F
  8
CONSTRUCTION
 10
17.5
 20
370.5
 30
0.0
 11
17.5
 21
320.5
 31
0.0
  0
LINE
  5
130
  8
CONSTRUCTION
 10
17.5
 20
320.5
 30
0.0
 11
17.5
 21
270.5
 31
0.0
  0
LINE
  5
131
  8
CONSTRUCTION
 10
17.5
 20
270.5
 30
0.0
 11
17.5
 21
220.5
 31
0.0
  0
LINE
  5
132
  8
CONSTRUCTION
 10
17.5
 20
220.5
 30
0.0
 11
17.5
 21
170.5
 31
0.0
  0
LINE
  5
133
  8
CONSTRUCTION
 10
17.5
 20
170.5
 30
0.0
 11
17.5
 21
120.5
 31
0.0
  0
LINE
  5
134
  8
CONSTRUCTION
 10
17.5
 20
120.5
 30
0.0
 11
17.5
 21
70.5
 31
0.0
  0
LINE
  5
135
  8
CONSTRUCTION
 10
17.5
 20
70.5
 30
0.0
 11
17.5
 21
20.5
 31
0.0
  0
LINE
  5
136
  8
BORDER
 10
15.0
 20
520.5
 30
0.0
 11
20.0
 21
520.5
 31
0.0
  0
LINE
  5
137
  8
BORDER
 10
15.0
 20
570.5
 30
0.0
 11
20.0
 21
570.5
 31
0.0
  0
LINE
  5
138
  8
BORDER
 10
15.0
 20
620.5
 30
0.0
 11
20.0
 21
620.5
 31
0.0
  0
LINE
  5
139
  8
BORDER
 10
15.0
 20
670.5
 30
0.0
 11
20.0
 21
670.5
 31
0.0
  0
LINE
  5
13A
  8
BORDER
 10
15.0
 20
720.5
 30
0.0
 11
20.0
 21
720.5
 31
0.0
  0
LINE
  5
13B
  8
BORDER
 10
15.0
 20
770.5
 30
0.0
 11
20.0
 21
770.5
 31
0.0
  0
LINE
  5
13C
  8
CONSTRUCTION
 10
17.5
 20
420.5
 30
0.0
 11
17.5
 21
470.5
 31
0.0
  0
LINE
  5
13D
  8
CONSTRUCTION
 10
17.5
 20
470.5
 30
0.0
 11
17.5
 21
520.5
 31
0.0
  0
LINE
  5
13E
  8
CONSTRUCTION
 10
17.5
 20
520.5
 30
0.0
 11
17.5
 21
570.5
 31
0.0
  0
LINE
  5
13F
  8
CONSTRUCTION
 10
17.5
 20
570.5
 30
0.0
 11
17.5
 21
620.5
 31
0.0
  0
LINE
  5
140
  8
CONSTRUCTION
 10
17.5
 20
620.5
 30
0.0
 11
17.5
 21
670.5
 31
0.0
  0
LINE
  5
141
  8
CONSTRUCTION
 10
17.5
 20
670.5
 30
0.0
 11
17.5
 21
720.5
 31
0.0
  0
LINE
  5
142
  8
CONSTRUCTION
 10
17.5
 20
720.5
 30
0.0
 11
17.5
 21
770.5
 31
0.0
  0
LINE
  5
143
  8
CONSTRUCTION
 10
17.5
 20
770.5
 30
0.0
 11
17.5
 21
820.5
 31
0.0
  0
LINE
  5
144
  8
TRIM
 10
0.0
 20
831.0
 30
0.0
 11
0.0
 21
841.0
 31
0.0
  0
LINE
  5
145
  8
TRIM
 10
1179.0
 20
841.0
 30
0.0
 11
1179.0
 21
836.0
 31
0.0
  0
LINE
  5
146
  8
TRIM
 10
1179.0
 20
836.0
 30
0.0
 11
1184.0
 21
836.0
 31
0.0
  0
LINE
  5
147
  8
TRIM
 10
1184.0
 20
831.0
 30
0.0
 11
1189.0
 21
831.0
 31
0.0
  0
LINE
  5
148
  8
TRIM
 10
1189.0
 20
831.0
 30
0.0
 11
1189.0
 21
841.0
 31
0.0
  0
LINE
  5
149
  8
TRIM
 10
1189.0
 20
841.0
 30
0.0
 11
1179.0
 21
841.0
 31
0.0
  0
LINE
  5
14A
  8
TRIM
 10
1184.0
 20
836.0
 30
0.0
 11
1184.0
 21
831.0
 31
0.0
  0
LINE
  5
14B
  8
TRIM
 10
1179.0
 20
0.0
 30
0.0
 11
1179.0
 21
5.0
 31
0.0
  0
LINE
  5
14C
  8
BORDER
 10
1089.036352289999968
 20
24.5703270608000004
 30
0.0
 11
1059.0
 21
24.5703270608000004
 31
0.0
  0
LINE
  5
14D
  8
BORDER
 10
1071.255899177099991
 20
18.0427931076999997
 30
0.0
 11
1071.255899177099991
 21
11.5891294748
 31
0.0
  0
LINE
  5
14E
  8
BORDER
 10
1089.036352289999968
 20
24.5703270608000004
 30
0.0
 11
1089.036352289999968
 21
10.0001454478999996
 31
0.0
  0
LINE
  5
14F
  8
TRIM
 10
1179.0
 20
5.0
 30
0.0
 11
1184.0
 21
5.0
 31
0.0
  0
LINE
  5
150
  8
TRIM
 10
1184.0
 20
5.0
 30
0.0
 11
1184.0
 21
10.0
 31
0.0
  0
LINE
  5
151
  8
TRIM
 10
1184.0
 20
10.0
 30
0.0
 11
1189.0
 21
10.0
 31
0.0
  0
LINE
  5
152
  8
TRIM
 10
1189.0
 20
10.0
 30
0.0
 11
1189.0
 21
0.0
 31
0.0
  0
LINE
  5
153
  8
TRIM
 10
1189.0
 20
0.0
 30
0.0
 11
1179.0
 21
0.0
 31
0.0
  0
CIRCLE
  5
154
  8
BORDER
  6
CONTINUOUS
 10
1071.255899177099991
 20
14.8656048576999993
 30
0.0
 40
1.249999999999946
  0
CIRCLE
  5
155
  8
BORDER
  6
CONTINUOUS
 10
1071.255899177099991
 20
14.8656048576999993
 30
0.0
 40
2.4999999999998921
  0
INSERT
  5
157
  8
0
  2
*U42
 10
0.0
 20
0.0
 30
0.0
  0
INSERT
  5
159
  8
0
  2
*U43
 10
0.0
 20
0.0
 30
0.0
  0
INSERT
  5
15A
  8
0
  2
*U44
 10
0.0
 20
0.0
 30
0.0
  0
INSERT
  5
15B
  8
0
  2
*U45
 10
0.0
 20
0.0
 30
0.0
  0
INSERT
  5
15C
  8
0
  2
*U46
 10
0.0
 20
0.0
 30
0.0
  0
INSERT
  5
15D
  8
0
  2
*U47
 10
0.0
 20
0.0
 30
0.0
  0
INSERT
  5
15E
  8
0
  2
*U48
 10
0.0
 20
0.0
 30
0.0
  0
INSERT
  5
15F
  8
0
  2
*U49
 10
0.0
 20
0.0
 30
0.0
  0
INSERT
  5
160
  8
0
  2
*U50
 10
0.0
 20
0.0
 30
0.0
  0
INSERT
  5
161
  8
0
  2
*U51
 10
0.0
 20
0.0
 30
0.0
  0
INSERT
  5
162
  8
0
  2
*U52
 10
0.0
 20
0.0
 30
0.0
  0
INSERT
  5
163
  8
0
  2
*U53
 10
0.0
 20
0.0
 30
0.0
  0
INSERT
  5
164
  8
0
  2
*U54
 10
0.0
 20
0.0
 30
0.0
  0
INSERT
  5
165
  8
0
  2
*U55
 10
0.0
 20
0.0
 30
0.0
  0
INSERT
  5
166
  8
0
  2
*U56
 10
0.0
 20
0.0
 30
0.0
  0
INSERT
  5
167
  8
0
  2
*U57
 10
0.0
 20
0.0
 30
0.0
  0
INSERT
  5
168
  8
0
  2
*U58
 10
0.0
 20
0.0
 30
0.0
  0
INSERT
  5
169
  8
0
  2
*U59
 10
0.0
 20
0.0
 30
0.0
  0
INSERT
  5
16A
  8
0
  2
*U60
 10
0.0
 20
0.0
 30
0.0
  0
INSERT
  5
16B
  8
0
  2
*U61
 10
0.0
 20
0.0
 30
0.0
  0
INSERT
  5
16C
  8
0
  2
*U62
 10
0.0
 20
0.0
 30
0.0
  0
INSERT
  5
16D
  8
0
  2
*U63
 10
0.0
 20
0.0
 30
0.0
  0
INSERT
  5
16E
  8
0
  2
*U64
 10
0.0
 20
0.0
 30
0.0
  0
INSERT
  5
16F
  8
0
  2
*U65
 10
0.0
 20
0.0
 30
0.0
  0
INSERT
  5
170
  8
0
  2
*U66
 10
0.0
 20
0.0
 30
0.0
  0
INSERT
  5
171
  8
0
  2
*U67
 10
0.0
 20
0.0
 30
0.0
  0
INSERT
  5
172
  8
0
  2
*U68
 10
0.0
 20
0.0
 30
0.0
  0
INSERT
  5
173
  8
0
  2
*U69
 10
0.0
 20
0.0
 30
0.0
  0
INSERT
  5
174
  8
0
  2
*U70
 10
0.0
 20
0.0
 30
0.0
  0
INSERT
  5
175
  8
0
  2
*U71
 10
0.0
 20
0.0
 30
0.0
  0
INSERT
  5
176
  8
0
  2
*U72
 10
0.0
 20
0.0
 30
0.0
  0
INSERT
  5
177
  8
0
  2
*U73
 10
0.0
 20
0.0
 30
0.0
  0
INSERT
  5
178
  8
0
  2
*U74
 10
0.0
 20
0.0
 30
0.0
  0
INSERT
  5
179
  8
0
  2
*U75
 10
0.0
 20
0.0
 30
0.0
  0
INSERT
  5
17A
  8
0
  2
*U76
 10
0.0
 20
0.0
 30
0.0
  0
INSERT
  5
17B
  8
0
  2
*U77
 10
0.0
 20
0.0
 30
0.0
  0
INSERT
  5
17C
  8
0
  2
*U78
 10
0.0
 20
0.0
 30
0.0
  0
INSERT
  5
17D
  8
0
  2
*U79
 10
0.0
 20
0.0
 30
0.0
  0
INSERT
  5
17E
  8
0
  2
*U80
 10
0.0
 20
0.0
 30
0.0
  0
INSERT
  5
17F
  8
0
  2
*U81
 10
0.0
 20
0.0
 30
0.0
  0
INSERT
  5
180
  8
0
  2
*U82
 10
0.0
 20
0.0
 30
0.0
  0
INSERT
  5
181
  8
0
  2
*U83
 10
0.0
 20
0.0
 30
0.0
  0
INSERT
  5
182
  8
0
  2
*U84
 10
0.0
 20
0.0
 30
0.0
  0
INSERT
  5
183
  8
0
  2
*U85
 10
0.0
 20
0.0
 30
0.0
  0
INSERT
  5
184
  8
0
  2
*U86
 10
0.0
 20
0.0
 30
0.0
  0
INSERT
  5
185
  8
0
  2
*U87
 10
0.0
 20
0.0
 30
0.0
  0
INSERT
  5
186
  8
0
  2
*U88
 10
0.0
 20
0.0
 30
0.0
  0
INSERT
  5
187
  8
0
  2
*U89
 10
0.0
 20
0.0
 30
0.0
  0
INSERT
  5
188
  8
0
  2
*U90
 10
0.0
 20
0.0
 30
0.0
  0
INSERT
  5
189
  8
0
  2
*U91
 10
0.0
 20
0.0
 30
0.0
  0
INSERT
  5
18A
  8
0
  2
*U92
 10
0.0
 20
0.0
 30
0.0
  0
INSERT
  5
18B
  8
0
  2
*U93
 10
0.0
 20
0.0
 30
0.0
  0
INSERT
  5
18C
  8
0
  2
*U94
 10
0.0
 20
0.0
 30
0.0
  0
INSERT
  5
18D
  8
0
  2
*U95
 10
0.0
 20
0.0
 30
0.0
  0
INSERT
  5
18E
  8
0
  2
*U96
 10
0.0
 20
0.0
 30
0.0
  0
INSERT
  5
18F
  8
0
  2
*U97
 10
0.0
 20
0.0
 30
0.0
  0
INSERT
  5
190
  8
0
  2
*U98
 10
0.0
 20
0.0
 30
0.0
  0
INSERT
  5
191
  8
0
  2
*U99
 10
0.0
 20
0.0
 30
0.0
  0
INSERT
  5
192
  8
0
  2
*U100
 10
0.0
 20
0.0
 30
0.0
  0
INSERT
  5
193
  8
0
  2
*U101
 10
0.0
 20
0.0
 30
0.0
  0
INSERT
  5
194
  8
0
  2
*U102
 10
0.0
 20
0.0
 30
0.0
  0
INSERT
  5
195
  8
0
  2
*U103
 10
0.0
 20
0.0
 30
0.0
  0
INSERT
  5
196
  8
0
  2
*U104
 10
0.0
 20
0.0
 30
0.0
  0
INSERT
  5
197
  8
0
  2
*U105
 10
0.0
 20
0.0
 30
0.0
  0
INSERT
  5
198
  8
0
  2
*U106
 10
0.0
 20
0.0
 30
0.0
  0
INSERT
  5
199
  8
0
  2
*U107
 10
0.0
 20
0.0
 30
0.0
  0
INSERT
  5
19A
  8
0
  2
*U108
 10
0.0
 20
0.0
 30
0.0
  0
INSERT
  5
19B
  8
0
  2
*U109
 10
0.0
 20
0.0
 30
0.0
  0
INSERT
  5
19C
  8
0
  2
*U110
 10
0.0
 20
0.0
 30
0.0
  0
INSERT
  5
19D
  8
0
  2
*U111
 10
0.0
 20
0.0
 30
0.0
  0
INSERT
  5
19E
  8
0
  2
*U112
 10
0.0
 20
0.0
 30
0.0
  0
INSERT
  5
19F
  8
0
  2
*U113
 10
0.0
 20
0.0
 30
0.0
  0
INSERT
  5
1A0
  8
0
  2
*U114
 10
0.0
 20
0.0
 30
0.0
  0
INSERT
  5
1A1
  8
0
  2
*U115
 10
0.0
 20
0.0
 30
0.0
  0
INSERT
  5
1A2
  8
0
  2
*U116
 10
0.0
 20
0.0
 30
0.0
  0
INSERT
  5
1A3
  8
0
  2
*U117
 10
0.0
 20
0.0
 30
0.0
  0
INSERT
  5
1A4
  8
0
  2
*U118
 10
0.0
 20
0.0
 30
0.0
  0
INSERT
  5
1A5
  8
0
  2
*U119
 10
0.0
 20
0.0
 30
0.0
  0
INSERT
  5
1A6
  8
0
  2
*U120
 10
0.0
 20
0.0
 30
0.0
  0
INSERT
  5
1A7
  8
0
  2
*U121
 10
0.0
 20
0.0
 30
0.0
  0
INSERT
  5
1A8
  8
0
  2
*U122
 10
0.0
 20
0.0
 30
0.0
  0
INSERT
  5
1A9
  8
0
  2
*U123
 10
0.0
 20
0.0
 30
0.0
  0
INSERT
  5
1AA
  8
0
  2
*U124
 10
0.0
 20
0.0
 30
0.0
  0
INSERT
  5
1AB
  8
0
  2
*U125
 10
0.0
 20
0.0
 30
0.0
  0
INSERT
  5
1AD
  8
0
  2
*U126
 10
0.0
 20
0.0
 30
0.0
  0
INSERT
  5
1AE
  8
0
  2
*U127
 10
0.0
 20
0.0
 30
0.0
  0
INSERT
  5
1B4
  8
BORDER
  2
SW_NOTE_0
 10
1061.0713434944000255
 20
21.6258903222000001
 30
0.0
  0
INSERT
  5
1B5
  8
0
  2
*U130
 10
0.0
 20
0.0
 30
0.0
  0
INSERT
  5
1B6
  8
0
  2
*U131
 10
0.0
 20
0.0
 30
0.0
  0
INSERT
  5
1B7
  8
0
  2
*U132
 10
0.0
 20
0.0
 30
0.0
  0
INSERT
  5
1B8
  8
0
  2
*U133
 10
0.0
 20
0.0
 30
0.0
  0
INSERT
  5
1B9
  8
0
  2
*U134
 10
0.0
 20
0.0
 30
0.0
  0
INSERT
  5
1BA
  8
0
  2
*U135
 10
0.0
 20
0.0
 30
0.0
  0
INSERT
  5
1BB
  8
0
  2
*U136
 10
0.0
 20
0.0
 30
0.0
  0
INSERT
  5
1BC
  8
0
  2
*U137
 10
0.0
 20
0.0
 30
0.0
  0
INSERT
  5
1BD
  8
0
  2
*U138
 10
0.0
 20
0.0
 30
0.0
  0
INSERT
  5
1BE
  8
0
  2
*U139
 10
0.0
 20
0.0
 30
0.0
  0
INSERT
  5
1BF
  8
0
  2
*U140
 10
0.0
 20
0.0
 30
0.0
  0
INSERT
  5
1C0
  8
0
  2
*U141
 10
0.0
 20
0.0
 30
0.0
  0
INSERT
  5
1C1
  8
0
  2
*U142
 10
0.0
 20
0.0
 30
0.0
  0
INSERT
  5
1C2
  8
0
  2
*U143
 10
0.0
 20
0.0
 30
0.0
  0
INSERT
  5
1C3
  8
0
  2
*U144
 10
0.0
 20
0.0
 30
0.0
  0
INSERT
  5
1C4
  8
0
  2
*U145
 10
0.0
 20
0.0
 30
0.0
  0
INSERT
  5
1C5
  8
0
  2
*U146
 10
0.0
 20
0.0
 30
0.0
  0
INSERT
  5
1C6
  8
0
  2
*U147
 10
0.0
 20
0.0
 30
0.0
  0
INSERT
  5
1C7
  8
0
  2
*U148
 10
0.0
 20
0.0
 30
0.0
  0
INSERT
  5
1C8
  8
0
  2
*U149
 10
0.0
 20
0.0
 30
0.0
  0
INSERT
  5
1D1
  8
BORDER
  2
SW_NOTE_0_1
 10
1059.3903030665001097
 20
70.3808091667000042
 30
0.0
  0
CIRCLE
  5
1D2
  8
0
  6
CONTINUOUS
 62
     7
 10
395.551461449899989
 20
598.3941749978999951
 30
0.0
 40
1.7999999999999541
  0
CIRCLE
  5
1D3
  8
0
  6
CONTINUOUS
 62
     7
 10
380.551461449899989
 20
566.9219255017000023
 30
0.0
 40
1.7999999999999541
  0
ARC
  5
1D4
  8
0
  6
CONTINUOUS
 62
     7
 10
587.051461449899989
 20
735.1198537860000215
 30
0.0
 40
1.0
 50
0.0
 51
90.8053888852000171
  0
LINE
  5
1D5
  8
0
  6
CONTINUOUS
 62
     7
 10
588.0514615058000345
 20
735.1198495510000157
 30
0.0
 11
588.0514615058000345
 21
732.1444601896000677
 31
0.0
  0
ARC
  5
1D6
  8
0
  6
CONTINUOUS
 62
     7
 10
589.0514614498998753
 20
732.1444533947000082
 30
0.0
 40
1.0
 50
180.0
 51
270.0
  0
LINE
  5
1D7
  8
0
  6
CONTINUOUS
 62
     7
 10
589.0514614369000128
 20
731.1444581631000119
 30
0.0
 11
592.0514614630000096
 21
731.1444581631000119
 31
0.0
  0
ARC
  5
1D8
  8
0
  6
CONTINUOUS
 62
     7
 10
592.0514614498998753
 20
732.1444533947000082
 30
0.0
 40
1.0
 50
270.0
 51
0.0
  0
LINE
  5
1D9
  8
0
  6
CONTINUOUS
 62
     7
 10
593.0514613940998743
 20
732.1444601896000677
 30
0.0
 11
593.0514613940998743
 21
735.1198495510000157
 31
0.0
  0
ARC
  5
1DA
  8
0
  6
CONTINUOUS
 62
     7
 10
594.051461449899989
 20
735.1198537860000215
 30
0.0
 40
1.0
 50
89.1946111147999972
 51
180.0
  0
ARC
  5
1DB
  8
0
  6
CONTINUOUS
 62
     7
 10
590.551461449899989
 20
486.1444533947000082
 30
0.0
 40
249.9999999999998863
 50
65.0911031708999985
 51
89.1946111147999972
  0
ARC
  5
1DC
  8
0
  6
CONTINUOUS
 62
     7
 10
695.4244480822999321
 20
711.9821311076999564
 30
0.0
 40
0.9999999999999124
 50
334.2857142857000099
 51
65.0911031710000003
  0
LINE
  5
1DD
  8
0
  6
CONTINUOUS
 62
     7
 10
696.3254170335001163
 20
711.5482540013998687
 30
0.0
 11
695.0344400322999263
 21
708.8675053002998538
 31
0.0
  0
ARC
  5
1DE
  8
0
  6
CONTINUOUS
 62
     7
 10
695.9354079710000178
 20
708.4336205073999508
 30
0.0
 40
1.000000000000117
 50
154.2857142857000099
 51
244.2857142857000099
  0
LINE
  5
1DF
  8
0
  6
CONTINUOUS
 62
     7
 10
695.5015243804999727
 20
707.5326443794000397
 30
0.0
 11
698.2044311083000139
 21
706.2309981467999478
 31
0.0
  0
ARC
  5
1E0
  8
0
  6
CONTINUOUS
 62
     7
 10
698.638314574699848
 20
707.1319692900000291
 30
0.0
 40
1.0000000000000671
 50
244.2857142857000099
 51
334.2857142857000099
  0
LINE
  5
1E1
  8
0
  6
CONTINUOUS
 62
     7
 10
699.539284578600018
 20
706.6980899456000316
 30
0.0
 11
700.8302615797998669
 21
709.3788237455000854
 31
0.0
  0
ARC
  5
1E2
  8
0
  6
CONTINUOUS
 62
     7
 10
701.7312301576999971
 20
708.9449449339000466
 30
0.0
 40
1.0000000000000051
 50
63.4803254004999928
 51
154.2857142857000099
  0
ARC
  5
1E3
  8
0
  6
CONTINUOUS
 62
     7
 10
590.551461449899989
 20
486.1444533947000082
 30
0.0
 40
250.0
 50
39.3768174567000031
 51
63.4803254004999928
  0
ARC
  5
1E4
  8
0
  6
CONTINUOUS
 62
     7
 10
783.0260535293999737
 20
644.114486640999985
 30
0.0
 40
1.0000000000000451
 50
308.5714285714000198
 51
39.3768174567000031
  0
LINE
  5
1E5
  8
0
  6
CONTINUOUS
 62
     7
 10
783.6495445883999764
 20
643.3326603058000046
 30
0.0
 11
781.3232796110000891
 21
641.4775253417999465
 31
0.0
  0
ARC
  5
1E6
  8
0
  6
CONTINUOUS
 62
     7
 10
781.9467714342998761
 20
640.6956918757000494
 30
0.0
 40
1.0000000000000051
 50
128.5714285713999914
 51
218.5714285713999914
  0
LINE
  5
1E7
  8
0
  6
CONTINUOUS
 62
     7
 10
781.1649398721000352
 20
640.0721968295998749
 30
0.0
 11
783.0354081310000538
 21
637.7267093542000111
 31
0.0
  0
ARC
  5
1E8
  8
0
  6
CONTINUOUS
 62
     7
 10
783.8172408399000233
 20
638.3501974282999072
 30
0.0
 40
1.000000000000077
 50
218.5714285713999914
 51
308.5714285714000198
  0
LINE
  5
1E9
  8
0
  6
CONTINUOUS
 62
     7
 10
784.4407366432001254
 20
637.5683696153998881
 30
0.0
 11
786.7669867194998687
 21
639.4235045793999461
 31
0.0
  0
ARC
  5
1EA
  8
0
  6
CONTINUOUS
 62
     7
 10
787.3904821423999465
 20
638.6416662637000172
 30
0.0
 40
0.9999999999999715
 50
37.7660396862000027
 51
128.5714285713999914
  0
ARC
  5
1EB
  8
0
  6
CONTINUOUS
 62
     7
 10
590.551461449899989
 20
486.1444533947000082
 30
0.0
 40
250.0
 50
13.6625317424000006
 51
37.7660396862000027
  0
ARC
  5
1EC
  8
0
  6
CONTINUOUS
 62
     7
 10
832.5057054691999383
 20
544.9589397145999783
 30
0.0
 40
1.0000000000000879
 50
282.8571428570999728
 51
13.6625317424000006
  0
LINE
  5
1ED
  8
0
  6
CONTINUOUS
 62
     7
 10
832.7282326138999906
 20
543.9840109232000032
 30
0.0
 11
829.8274235642999201
 21
543.3219225290000622
 31
0.0
  0
ARC
  5
1EE
  8
0
  6
CONTINUOUS
 62
     7
 10
830.0499464457001295
 20
542.3469950162000259
 30
0.0
 40
1.0000000000000879
 50
102.8571428571000013
 51
192.8571428571000013
  0
LINE
  5
1EF
  8
0
  6
CONTINUOUS
 62
     7
 10
829.0750192320999759
 20
542.1244726661000186
 30
0.0
 11
829.7425763523999649
 21
539.1996913734000145
 31
0.0
  0
ARC
  5
1F0
  8
0
  6
CONTINUOUS
 62
     7
 10
830.7175092475998781
 20
539.4222112797000364
 30
0.0
 40
1.0000000000000879
 50
192.8571428571000013
 51
282.8571428570999728
  0
LINE
  5
1F1
  8
0
  6
CONTINUOUS
 62
     7
 10
830.9400336660000903
 20
538.4472833160000391
 30
0.0
 11
833.8408278143998587
 21
539.1093717101000493
 31
0.0
  0
ARC
  5
1F2
  8
0
  6
CONTINUOUS
 62
     7
 10
834.0633520068998905
 20
538.1344443292998676
 30
0.0
 40
1.0000000000000631
 50
12.0517539719000002
 51
102.8571428571000013
  0
ARC
  5
1F3
  8
0
  6
CONTINUOUS
 62
     7
 10
590.551461449899989
 20
486.1444533947000082
 30
0.0
 40
250.0000000000001137
 50
347.9482460280999021
 51
12.0517539719000002
  0
ARC
  5
1F4
  8
0
  6
CONTINUOUS
 62
     7
 10
834.0633520068998905
 20
434.1544624600999782
 30
0.0
 40
1.000000000000105
 50
257.1428571429000272
 51
347.9482460280999021
  0
LINE
  5
1F5
  8
0
  6
CONTINUOUS
 62
     7
 10
833.8408278143998587
 20
433.1795350793000239
 30
0.0
 11
830.9400336660000903
 21
433.841623473499908
 31
0.0
  0
ARC
  5
1F6
  8
0
  6
CONTINUOUS
 62
     7
 10
830.7175092475998781
 20
432.86669550969998
 30
0.0
 40
1.0000000000000071
 50
77.1428571428999845
 51
167.1428571428999987
  0
LINE
  5
1F7
  8
0
  6
CONTINUOUS
 62
     7
 10
829.7425763523999649
 20
433.0892154159998881
 30
0.0
 11
829.0750192320999759
 21
430.164434123299884
 31
0.0
  0
ARC
  5
1F8
  8
0
  6
CONTINUOUS
 62
     7
 10
830.0499464457001295
 20
429.9419117731998767
 30
0.0
 40
0.9999999999999776
 50
167.1428571428999987
 51
257.1428571429000272
  0
LINE
  5
1F9
  8
0
  6
CONTINUOUS
 62
     7
 10
829.8274235642999201
 20
428.9669842603998973
 30
0.0
 11
832.7282326138999906
 21
428.3048958662000132
 31
0.0
  0
ARC
  5
1FA
  8
0
  6
CONTINUOUS
 62
     7
 10
832.5057054691999383
 20
427.3299670749000256
 30
0.0
 40
1.0000000000001219
 50
346.3374682575999941
 51
77.1428571428999845
  0
ARC
  5
1FB
  8
0
  6
CONTINUOUS
 62
     7
 10
590.551461449899989
 20
486.1444533947000082
 30
0.0
 40
250.000000000000199
 50
322.2339603138000257
 51
346.3374682575999941
  0
ARC
  5
1FC
  8
0
  6
CONTINUOUS
 62
     7
 10
787.3904821423999465
 20
333.6472405256999991
 30
0.0
 40
1.000000000000095
 50
231.4285714286000086
 51
322.2339603138000257
  0
LINE
  5
1FD
  8
0
  6
CONTINUOUS
 62
     7
 10
786.7669867194998687
 20
332.865402210100001
 30
0.0
 11
784.4407366432001254
 21
334.7205371740000146
 31
0.0
  0
ARC
  5
1FE
  8
0
  6
CONTINUOUS
 62
     7
 10
783.8172408399000233
 20
333.9387093611999831
 30
0.0
 40
1.0000000000000311
 50
51.4285714285999873
 51
141.4285714286000086
  0
LINE
  5
1FF
  8
0
  6
CONTINUOUS
 62
     7
 10
783.0354081310000538
 20
334.5621974352000052
 30
0.0
 11
781.1649398721000352
 21
332.2167099598000277
 31
0.0
  0
ARC
  5
200
  8
0
  6
CONTINUOUS
 62
     7
 10
781.9467714342998761
 20
331.5932149138000113
 30
0.0
 40
1.00000000000004
 50
141.4285714286000086
 51
231.4285714286000086
  0
LINE
  5
201
  8
0
  6
CONTINUOUS
 62
     7
 10
781.3232796110000891
 20
330.811381447600013
 30
0.0
 11
783.6495445883999764
 21
328.9562464836000117
 31
0.0
  0
ARC
  5
202
  8
0
  6
CONTINUOUS
 62
     7
 10
783.0260535293999737
 20
328.1744201483999746
 30
0.0
 40
1.0000000000000451
 50
320.623182543300004
 51
51.4285714285999873
  0
ARC
  5
203
  8
0
  6
CONTINUOUS
 62
     7
 10
590.551461449899989
 20
486.1444533947000082
 30
0.0
 40
250.0000000000001137
 50
296.5196745995000924
 51
320.623182543300004
  0
ARC
  5
204
  8
0
  6
CONTINUOUS
 62
     7
 10
701.7312301576999971
 20
263.3439618555000266
 30
0.0
 40
1.0000000000000051
 50
205.7142857142999901
 51
296.5196745995000924
  0
LINE
  5
205
  8
0
  6
CONTINUOUS
 62
     7
 10
700.8302615797998669
 20
262.9100830438999878
 30
0.0
 11
699.539284578600018
 21
265.5908168437999848
 31
0.0
  0
ARC
  5
206
  8
0
  6
CONTINUOUS
 62
     7
 10
698.638314574699848
 20
265.1569374993999872
 30
0.0
 40
1.0000000000000651
 50
25.7142857143000008
 51
115.7142857143000043
  0
LINE
  5
207
  8
0
  6
CONTINUOUS
 62
     7
 10
698.2044311083000139
 20
266.057908642599898
 30
0.0
 11
695.5015243804999727
 21
264.7562624099999766
 31
0.0
  0
ARC
  5
208
  8
0
  6
CONTINUOUS
 62
     7
 10
695.9354079710000178
 20
263.8552862820000087
 30
0.0
 40
1.0000000000000151
 50
115.7142857143000043
 51
205.7142857142999901
  0
LINE
  5
209
  8
0
  6
CONTINUOUS
 62
     7
 10
695.0344400322999263
 20
263.421401489099992
 30
0.0
 11
696.3254170335001163
 21
260.7406527879999771
 31
0.0
  0
ARC
  5
20A
  8
0
  6
CONTINUOUS
 62
     7
 10
695.4244480822999321
 20
260.3067756817000031
 30
0.0
 40
1.000000000000093
 50
294.9088968291000015
 51
25.7142857143000008
  0
ARC
  5
20B
  8
0
  6
CONTINUOUS
 62
     7
 10
590.551461449899989
 20
486.1444533947000082
 30
0.0
 40
250.0000000000001137
 50
270.8053888851999886
 51
294.9088968291000015
  0
ARC
  5
20C
  8
0
  6
CONTINUOUS
 62
     7
 10
594.051461449899989
 20
237.1690530033999949
 30
0.0
 40
1.0000000000000211
 50
180.0
 51
270.8053888851999886
  0
LINE
  5
20D
  8
0
  6
CONTINUOUS
 62
     7
 10
593.0514613940998743
 20
237.1690572384000006
 30
0.0
 11
593.0514613940998743
 21
240.1444465998000055
 31
0.0
  0
ARC
  5
20E
  8
0
  6
CONTINUOUS
 62
     7
 10
592.0514614498998753
 20
240.1444533947000082
 30
0.0
 40
1.0
 50
0.0
 51
90.0
  0
LINE
  5
20F
  8
0
  6
CONTINUOUS
 62
     7
 10
592.0514614630000096
 20
241.1444486263000044
 30
0.0
 11
589.0514614369000128
 21
241.1444486263000044
 31
0.0
  0
ARC
  5
210
  8
0
  6
CONTINUOUS
 62
     7
 10
589.0514614498998753
 20
240.1444533947000082
 30
0.0
 40
1.0
 50
90.0
 51
180.0
  0
LINE
  5
211
  8
0
  6
CONTINUOUS
 62
     7
 10
588.0514615058000345
 20
240.1444465998000055
 30
0.0
 11
588.0514615058000345
 21
237.1690572384000006
 31
0.0
  0
ARC
  5
212
  8
0
  6
CONTINUOUS
 62
     7
 10
587.051461449899989
 20
237.1690530033999949
 30
0.0
 40
1.0000000000000191
 50
269.1946111148000114
 51
0.0
  0
ARC
  5
213
  8
0
  6
CONTINUOUS
 62
     7
 10
590.551461449899989
 20
486.1444533947000082
 30
0.0
 40
250.0000000000001137
 50
245.0911031708999985
 51
269.1946111148000114
  0
ARC
  5
214
  8
0
  6
CONTINUOUS
 62
     7
 10
485.6784748174999891
 20
260.3067756817000031
 30
0.0
 40
0.9999999999999902
 50
154.2857142857000099
 51
245.0911031708999985
  0
LINE
  5
215
  8
0
  6
CONTINUOUS
 62
     7
 10
484.7775058664000198
 20
260.7406527879999771
 30
0.0
 11
486.0684828675999825
 21
263.421401489099992
 31
0.0
  0
ARC
  5
216
  8
0
  6
CONTINUOUS
 62
     7
 10
485.1675149289000046
 20
263.8552862820000087
 30
0.0
 40
0.9999999999999902
 50
334.2857142857000099
 51
64.2857142856999957
  0
LINE
  5
217
  8
0
  6
CONTINUOUS
 62
     7
 10
485.6013985193999929
 20
264.7562624099999766
 30
0.0
 11
482.8984917916000086
 21
266.057908642599898
 31
0.0
  0
ARC
  5
218
  8
0
  6
CONTINUOUS
 62
     7
 10
482.4646083251998903
 20
265.1569374993999872
 30
0.0
 40
1.00000000000004
 50
64.2857142856999957
 51
154.2857142857000099
  0
LINE
  5
219
  8
0
  6
CONTINUOUS
 62
     7
 10
481.5636383212000169
 20
265.5908168437999848
 30
0.0
 11
480.272661320099985
 21
262.9100830438999878
 31
0.0
  0
ARC
  5
21A
  8
0
  6
CONTINUOUS
 62
     7
 10
479.3716927422000254
 20
263.3439618555000266
 30
0.0
 40
0.9999999999999902
 50
243.4803254004999928
 51
334.2857142857000099
  0
ARC
  5
21B
  8
0
  6
CONTINUOUS
 62
     7
 10
590.551461449899989
 20
486.1444533947000082
 30
0.0
 40
250.0
 50
219.376817456699996
 51
243.4803254004999928
  0
ARC
  5
21C
  8
0
  6
CONTINUOUS
 62
     7
 10
398.0768693704999919
 20
328.1744201483999746
 30
0.0
 40
1.00000000000004
 50
128.5714285713999914
 51
219.376817456699996
  0
LINE
  5
21D
  8
0
  6
CONTINUOUS
 62
     7
 10
397.4533783114999892
 20
328.9562464836000117
 30
0.0
 11
399.7796432888999902
 21
330.811381447600013
 31
0.0
  0
ARC
  5
21E
  8
0
  6
CONTINUOUS
 62
     7
 10
399.1561514655999758
 20
331.5932149138000113
 30
0.0
 40
0.9999999999999968
 50
308.5714285714000198
 51
38.5714285713999985
  0
LINE
  5
21F
  8
0
  6
CONTINUOUS
 62
     7
 10
399.9379830277999872
 20
332.2167099598000277
 30
0.0
 11
398.0675147689000255
 21
334.5621974352000052
 31
0.0
  0
ARC
  5
220
  8
0
  6
CONTINUOUS
 62
     7
 10
397.2856820599999992
 20
333.9387093611999831
 30
0.0
 40
1.0000000000000051
 50
38.5714285713999985
 51
128.5714285713999914
  0
LINE
  5
221
  8
0
  6
CONTINUOUS
 62
     7
 10
396.6621862567000107
 20
334.7205371740000146
 30
0.0
 11
394.3359361803999832
 21
332.865402210100001
 31
0.0
  0
ARC
  5
222
  8
0
  6
CONTINUOUS
 62
     7
 10
393.7124407573999747
 20
333.6472405256999991
 30
0.0
 40
1.0000000000000511
 50
217.7660396862000027
 51
308.5714285714000198
  0
ARC
  5
223
  8
0
  6
CONTINUOUS
 62
     7
 10
590.551461449899989
 20
486.1444533947000082
 30
0.0
 40
250.0000000000001137
 50
193.6625317424000059
 51
217.7660396862000027
  0
ARC
  5
224
  8
0
  6
CONTINUOUS
 62
     7
 10
348.5972174307000273
 20
427.3299670749000256
 30
0.0
 40
1.0000000000000071
 50
102.8571428571000013
 51
193.6625317424000059
  0
LINE
  5
225
  8
0
  6
CONTINUOUS
 62
     7
 10
348.374690285999975
 20
428.3048958662000132
 30
0.0
 11
351.2754993355999886
 21
428.9669842603998973
 31
0.0
  0
ARC
  5
226
  8
0
  6
CONTINUOUS
 62
     7
 10
351.0529764541000191
 20
429.9419117731998767
 30
0.0
 40
1.0000000000000071
 50
282.8571428570999728
 51
12.8571428570999995
  0
LINE
  5
227
  8
0
  6
CONTINUOUS
 62
     7
 10
352.0279036677999898
 20
430.164434123299884
 30
0.0
 11
351.3603465474000132
 21
433.0892154159998881
 31
0.0
  0
ARC
  5
228
  8
0
  6
CONTINUOUS
 62
     7
 10
350.3854136522999738
 20
432.86669550969998
 30
0.0
 40
1.0000000000000191
 50
12.8571428570999995
 51
102.8571428571000013
  0
LINE
  5
229
  8
0
  6
CONTINUOUS
 62
     7
 10
350.162889233899989
 20
433.841623473499908
 30
0.0
 11
347.2620950854999933
 21
433.1795350793000239
 31
0.0
  0
ARC
  5
22A
  8
0
  6
CONTINUOUS
 62
     7
 10
347.0395708930000183
 20
434.1544624600999782
 30
0.0
 40
1.000000000000093
 50
192.0517539719000126
 51
282.8571428570999728
  0
ARC
  5
22B
  8
0
  6
CONTINUOUS
 62
     7
 10
590.551461449899989
 20
486.1444533947000082
 30
0.0
 40
250.0000000000001137
 50
167.9482460280999874
 51
192.0517539719000126
  0
ARC
  5
22C
  8
0
  6
CONTINUOUS
 62
     7
 10
347.0395708930000183
 20
538.1344443292998676
 30
0.0
 40
1.0000000000000879
 50
77.1428571428999845
 51
167.9482460280999874
  0
LINE
  5
22D
  8
0
  6
CONTINUOUS
 62
     7
 10
347.2620950854999933
 20
539.1093717101000493
 30
0.0
 11
350.162889233899989
 21
538.4472833160000391
 31
0.0
  0
ARC
  5
22E
  8
0
  6
CONTINUOUS
 62
     7
 10
350.3854136522999738
 20
539.4222112797000364
 30
0.0
 40
1.0000000000000631
 50
257.1428571429000272
 51
347.1428571429000272
  0
LINE
  5
22F
  8
0
  6
CONTINUOUS
 62
     7
 10
351.3603465474000132
 20
539.1996913734000145
 30
0.0
 11
352.0279036677999898
 21
542.1244726661000186
 31
0.0
  0
ARC
  5
230
  8
0
  6
CONTINUOUS
 62
     7
 10
351.0529764541000191
 20
542.3469950162000259
 30
0.0
 40
1.000000000000032
 50
347.1428571429000272
 51
77.1428571428999845
  0
LINE
  5
231
  8
0
  6
CONTINUOUS
 62
     7
 10
351.2754993355999886
 20
543.3219225290000622
 30
0.0
 11
348.374690285999975
 21
543.9840109232000032
 31
0.0
  0
ARC
  5
232
  8
0
  6
CONTINUOUS
 62
     7
 10
348.5972174307000273
 20
544.9589397145999783
 30
0.0
 40
1.0000000000000251
 50
166.3374682575999941
 51
257.1428571429000272
  0
ARC
  5
233
  8
0
  6
CONTINUOUS
 62
     7
 10
590.551461449899989
 20
486.1444533947000082
 30
0.0
 40
250.0
 50
142.2339603137999973
 51
166.3374682575999941
  0
ARC
  5
234
  8
0
  6
CONTINUOUS
 62
     7
 10
393.7124407575000191
 20
638.6416662637000172
 30
0.0
 40
1.000000000000077
 50
51.4285714285999873
 51
142.2339603137999973
  0
LINE
  5
235
  8
0
  6
CONTINUOUS
 62
     7
 10
394.3359361803999832
 20
639.4235045793999461
 30
0.0
 11
396.6621862567000107
 21
637.5683696153998881
 31
0.0
  0
ARC
  5
236
  8
0
  6
CONTINUOUS
 62
     7
 10
397.2856820599999992
 20
638.3501974282999072
 30
0.0
 40
0.9999999999999613
 50
231.4285714286000086
 51
321.4285714285999802
  0
LINE
  5
237
  8
0
  6
CONTINUOUS
 62
     7
 10
398.0675147689000255
 20
637.7267093542000111
 30
0.0
 11
399.9379830277999872
 21
640.0721968295998749
 31
0.0
  0
ARC
  5
238
  8
0
  6
CONTINUOUS
 62
     7
 10
399.1561514655999758
 20
640.6956918757000494
 30
0.0
 40
0.9999999999999875
 50
321.4285714285999802
 51
51.4285714285999873
  0
LINE
  5
239
  8
0
  6
CONTINUOUS
 62
     7
 10
399.7796432888999902
 20
641.4775253417999465
 30
0.0
 11
397.4533783114999892
 21
643.3326603058000046
 31
0.0
  0
ARC
  5
23A
  8
0
  6
CONTINUOUS
 62
     7
 10
398.0768693704999919
 20
644.114486640999985
 30
0.0
 40
1.000000000000077
 50
140.623182543300004
 51
231.4285714286000086
  0
ARC
  5
23B
  8
0
  6
CONTINUOUS
 62
     7
 10
590.551461449899989
 20
486.1444533947000082
 30
0.0
 40
249.9999999999998863
 50
116.519674599499993
 51
140.623182543300004
  0
ARC
  5
23C
  8
0
  6
CONTINUOUS
 62
     7
 10
479.3716927422000254
 20
708.9449449339000466
 30
0.0
 40
1.00000000000003
 50
25.7142857143000008
 51
116.519674599499993
  0
LINE
  5
23D
  8
0
  6
CONTINUOUS
 62
     7
 10
480.272661320099985
 20
709.3788237455000854
 30
0.0
 11
481.5636383212000169
 21
706.6980899456000316
 31
0.0
  0
ARC
  5
23E
  8
0
  6
CONTINUOUS
 62
     7
 10
482.4646083251998903
 20
707.1319692900000291
 30
0.0
 40
1.000000000000093
 50
205.7142857142999901
 51
295.7142857142999901
  0
LINE
  5
23F
  8
0
  6
CONTINUOUS
 62
     7
 10
482.8984917916000086
 20
706.2309981467999478
 30
0.0
 11
485.6013985193999929
 21
707.5326443794000397
 31
0.0
  0
ARC
  5
240
  8
0
  6
CONTINUOUS
 62
     7
 10
485.1675149289000046
 20
708.4336205073999508
 30
0.0
 40
0.9999999999999655
 50
295.7142857142999901
 51
25.7142857143000008
  0
LINE
  5
241
  8
0
  6
CONTINUOUS
 62
     7
 10
486.0684828675999825
 20
708.8675053002998538
 30
0.0
 11
484.7775058664000198
 21
711.5482540013998687
 31
0.0
  0
ARC
  5
242
  8
0
  6
CONTINUOUS
 62
     7
 10
485.6784748174999891
 20
711.9821311076999564
 30
0.0
 40
1.0000000000001219
 50
114.9088968291000015
 51
205.7142857142999901
  0
ARC
  5
243
  8
0
  6
CONTINUOUS
 62
     7
 10
590.551461449899989
 20
486.1444533947000082
 30
0.0
 40
250.0
 50
90.8053888852000171
 51
114.9088968291000015
  0
LINE
  5
244
  8
0
  6
CONTINUOUS
 62
     7
 10
578.5514613455999324
 20
536.1444541397999046
 30
0.0
 11
578.5514613455999324
 21
436.144452649599998
 31
0.0
  0
LINE
  5
245
  8
0
  6
CONTINUOUS
 62
     7
 10
578.5514613455999324
 20
436.144452649599998
 30
0.0
 11
582.5514610699998457
 21
436.144452649599998
 31
0.0
  0
LINE
  5
246
  8
0
  6
CONTINUOUS
 62
     7
 10
582.5514610699998457
 20
436.144452649599998
 30
0.0
 11
582.5514610699998457
 21
536.1444541397999046
 31
0.0
  0
LINE
  5
247
  8
0
  6
CONTINUOUS
 62
     7
 10
582.5514610699998457
 20
536.1444541397999046
 30
0.0
 11
578.5514613455999324
 21
536.1444541397999046
 31
0.0
  0
LINE
  5
248
  8
0
  6
CONTINUOUS
 62
     7
 10
412.5514583504998996
 20
536.1444541397999046
 30
0.0
 11
408.5514651453999022
 21
536.1444541397999046
 31
0.0
  0
LINE
  5
249
  8
0
  6
CONTINUOUS
 62
     7
 10
408.5514651453999022
 20
536.1444541397999046
 30
0.0
 11
408.5514651453999022
 21
436.144452649599998
 31
0.0
  0
LINE
  5
24A
  8
0
  6
CONTINUOUS
 62
     7
 10
408.5514651453999022
 20
436.144452649599998
 30
0.0
 11
412.5514583504998996
 21
436.144452649599998
 31
0.0
  0
LINE
  5
24B
  8
0
  6
CONTINUOUS
 62
     7
 10
412.5514583504998996
 20
436.144452649599998
 30
0.0
 11
412.5514583504998996
 21
536.1444541397999046
 31
0.0
  0
CIRCLE
  5
24C
  8
0
  6
CONTINUOUS
 62
     7
 10
410.5514614498998753
 20
561.1444533947000082
 30
0.0
 40
2.5999999999999091
  0
CIRCLE
  5
24D
  8
0
  6
CONTINUOUS
 62
     7
 10
580.5514614498998753
 20
411.1444533947000082
 30
0.0
 40
2.6000000000000218
  0
CIRCLE
  5
24E
  8
0
  6
CONTINUOUS
 62
     7
 10
580.5514614498998753
 20
561.1444533947000082
 30
0.0
 40
2.5999999999999091
  0
CIRCLE
  5
24F
  8
0
  6
CONTINUOUS
 62
     7
 10
410.5514614498998753
 20
411.1444533947000082
 30
0.0
 40
2.6000000000000218
  0
LINE
  5
250
  8
0
  6
CONTINUOUS
 62
     7
 10
428.5514609730998927
 20
601.5444548013998656
 30
0.0
 11
436.5514622843999746
 21
601.5444548013998656
 31
0.0
  0
ARC
  5
251
  8
0
  6
CONTINUOUS
 62
     7
 10
436.551461449899989
 20
604.0444533946999854
 30
0.0
 40
2.5000000000001141
 50
270.0
 51
90.0
  0
LINE
  5
252
  8
0
  6
CONTINUOUS
 62
     7
 10
436.5514622843999746
 20
606.5444500329998618
 30
0.0
 11
428.5514609730998927
 21
606.5444500329998618
 31
0.0
  0
ARC
  5
253
  8
0
  6
CONTINUOUS
 62
     7
 10
428.551461449899989
 20
604.0444533946999854
 30
0.0
 40
2.5000000000001141
 50
90.0
 51
270.0
  0
LINE
  5
254
  8
0
  6
CONTINUOUS
 62
     7
 10
752.5514619267997887
 20
606.5444500329998618
 30
0.0
 11
744.551460615499991
 21
606.5444500329998618
 31
0.0
  0
ARC
  5
255
  8
0
  6
CONTINUOUS
 62
     7
 10
744.5514614499001027
 20
604.0444533946999854
 30
0.0
 40
2.5000000000001141
 50
90.0
 51
270.0
  0
LINE
  5
256
  8
0
  6
CONTINUOUS
 62
     7
 10
744.551460615499991
 20
601.5444548013998656
 30
0.0
 11
752.5514619267997887
 21
601.5444548013998656
 31
0.0
  0
ARC
  5
257
  8
0
  6
CONTINUOUS
 62
     7
 10
752.5514614499001027
 20
604.0444533946999854
 30
0.0
 40
2.5000000000001141
 50
270.0
 51
90.0
  0
LINE
  5
258
  8
0
  6
CONTINUOUS
 62
     7
 10
752.5514619267997887
 20
370.7444519880000939
 30
0.0
 11
744.551460615499991
 21
370.7444519880000939
 31
0.0
  0
ARC
  5
259
  8
0
  6
CONTINUOUS
 62
     7
 10
744.5514614499001027
 20
368.2444533946999741
 30
0.0
 40
2.5
 50
90.0
 51
270.0
  0
LINE
  5
25A
  8
0
  6
CONTINUOUS
 62
     7
 10
744.551460615499991
 20
365.744456756399984
 30
0.0
 11
752.5514619267997887
 21
365.744456756399984
 31
0.0
  0
ARC
  5
25B
  8
0
  6
CONTINUOUS
 62
     7
 10
752.5514614499001027
 20
368.2444533946999741
 30
0.0
 40
2.5
 50
270.0
 51
90.0
  0
LINE
  5
25C
  8
0
  6
CONTINUOUS
 62
     7
 10
428.5514609730998927
 20
365.744456756399984
 30
0.0
 11
436.5514622843999746
 21
365.744456756399984
 31
0.0
  0
ARC
  5
25D
  8
0
  6
CONTINUOUS
 62
     7
 10
436.551461449899989
 20
368.2444533946999741
 30
0.0
 40
2.5
 50
270.0
 51
90.0
  0
LINE
  5
25E
  8
0
  6
CONTINUOUS
 62
     7
 10
436.5514622843999746
 20
370.7444519880000939
 30
0.0
 11
428.5514609730998927
 21
370.7444519880000939
 31
0.0
  0
ARC
  5
25F
  8
0
  6
CONTINUOUS
 62
     7
 10
428.551461449899989
 20
368.2444533946999741
 30
0.0
 40
2.5
 50
90.0
 51
270.0
  0
LINE
  5
260
  8
0
  6
CONTINUOUS
 62
     7
 10
490.5514599597998995
 20
684.1444523218000313
 30
0.0
 11
590.551461449899989
 21
684.1444523218000313
 31
0.0
  0
LINE
  5
261
  8
0
  6
CONTINUOUS
 62
     7
 10
590.551461449899989
 20
684.1444523218000313
 30
0.0
 11
590.551461449899989
 21
688.1444604280999329
 31
0.0
  0
LINE
  5
262
  8
0
  6
CONTINUOUS
 62
     7
 10
590.551461449899989
 20
688.1444604280999329
 30
0.0
 11
490.5514599597998995
 21
688.1444604280999329
 31
0.0
  0
LINE
  5
263
  8
0
  6
CONTINUOUS
 62
     7
 10
490.5514599597998995
 20
688.1444604280999329
 30
0.0
 11
490.5514599597998995
 21
684.1444523218000313
 31
0.0
  0
CIRCLE
  5
264
  8
0
  6
CONTINUOUS
 62
     7
 10
475.5514614498998753
 20
286.1444533947000082
 30
0.0
 40
2.6000000000000218
  0
CIRCLE
  5
265
  8
0
  6
CONTINUOUS
 62
     7
 10
605.5514614498998753
 20
286.1444533947000082
 30
0.0
 40
2.60000000000008
  0
CIRCLE
  5
266
  8
0
  6
CONTINUOUS
 62
     7
 10
605.5514614498998753
 20
686.1444533947000082
 30
0.0
 40
2.6000000000000218
  0
CIRCLE
  5
267
  8
0
  6
CONTINUOUS
 62
     7
 10
475.5514614498998753
 20
686.1444533947000082
 30
0.0
 40
2.5999999999999091
  0
LINE
  5
268
  8
0
  6
CONTINUOUS
 62
     7
 10
590.551461449899989
 20
288.144454467599985
 30
0.0
 11
490.5514599597998995
 21
288.144454467599985
 31
0.0
  0
LINE
  5
269
  8
0
  6
CONTINUOUS
 62
     7
 10
490.5514599597998995
 20
288.144454467599985
 30
0.0
 11
490.5514599597998995
 21
284.1444463614000142
 31
0.0
  0
LINE
  5
26A
  8
0
  6
CONTINUOUS
 62
     7
 10
490.5514599597998995
 20
284.1444463614000142
 30
0.0
 11
590.551461449899989
 21
284.1444463614000142
 31
0.0
  0
LINE
  5
26B
  8
0
  6
CONTINUOUS
 62
     7
 10
590.551461449899989
 20
284.1444463614000142
 30
0.0
 11
590.551461449899989
 21
288.144454467599985
 31
0.0
  0
CIRCLE
  5
26C
  8
0
  6
CONTINUOUS
 62
     7
 10
454.5514614498998753
 20
368.2444533946999741
 30
0.0
 40
2.5
  0
CIRCLE
  5
26D
  8
0
  6
CONTINUOUS
 62
     7
 10
726.5514614499001027
 20
669.0444533946998718
 30
0.0
 40
2.5000000000001141
  0
CIRCLE
  5
26E
  8
0
  6
CONTINUOUS
 62
     7
 10
454.5514614498998753
 20
303.2444533946999741
 30
0.0
 40
2.5
  0
CIRCLE
  5
26F
  8
0
  6
CONTINUOUS
 62
     7
 10
726.5514614499001027
 20
303.2444533946999741
 30
0.0
 40
2.5
  0
CIRCLE
  5
270
  8
0
  6
CONTINUOUS
 62
     7
 10
454.5514614498998753
 20
604.0444533946999854
 30
0.0
 40
2.5000000000001141
  0
CIRCLE
  5
271
  8
0
  6
CONTINUOUS
 62
     7
 10
726.5514614499001027
 20
604.0444533946999854
 30
0.0
 40
2.499999999999885
  0
CIRCLE
  5
272
  8
0
  6
CONTINUOUS
 62
     7
 10
726.5514614499001027
 20
368.2444533946999741
 30
0.0
 40
2.5
  0
CIRCLE
  5
273
  8
0
  6
CONTINUOUS
 62
     7
 10
454.5514614498998753
 20
669.0444533946998718
 30
0.0
 40
2.499999999999885
  0
LINE
  5
274
  8
0
  6
CONTINUOUS
 62
     7
 10
390.5514584696999805
 20
516.1444527241999367
 30
0.0
 11
370.55146264199999
 21
516.1444527241999367
 31
0.0
  0
ARC
  5
275
  8
0
  6
CONTINUOUS
 62
     7
 10
370.551461449899989
 20
511.1444533947000082
 30
0.0
 40
5.0
 50
90.0
 51
180.0
  0
LINE
  5
276
  8
0
  6
CONTINUOUS
 62
     7
 10
365.5514674103999937
 20
511.1444537671998773
 30
0.0
 11
365.5514674103999937
 21
461.1444530222000253
 31
0.0
  0
ARC
  5
277
  8
0
  6
CONTINUOUS
 62
     7
 10
370.551461449899989
 20
461.1444533947000082
 30
0.0
 40
5.0
 50
180.0
 51
270.0
  0
LINE
  5
278
  8
0
  6
CONTINUOUS
 62
     7
 10
370.55146264199999
 20
456.1444540653000104
 30
0.0
 11
390.5514584696999805
 21
456.1444540653000104
 31
0.0
  0
ARC
  5
279
  8
0
  6
CONTINUOUS
 62
     7
 10
390.551461449899989
 20
461.1444533947000082
 30
0.0
 40
5.0
 50
270.0
 51
0.0
  0
LINE
  5
27A
  8
0
  6
CONTINUOUS
 62
     7
 10
395.5514686024999946
 20
461.1444530222000253
 30
0.0
 11
395.5514686024999946
 21
511.1444537671998773
 31
0.0
  0
ARC
  5
27B
  8
0
  6
CONTINUOUS
 62
     7
 10
390.551461449899989
 20
511.1444533947000082
 30
0.0
 40
5.0
 50
360.0
 51
90.0
  0
LINE
  5
27C
  8
0
  6
CONTINUOUS
 62
     7
 10
640.5514621949999992
 20
284.1444463614000142
 30
0.0
 11
690.5514629400998956
 21
284.1444463614000142
 31
0.0
  0
LINE
  5
27D
  8
0
  6
CONTINUOUS
 62
     7
 10
690.5514629400998956
 20
284.1444463614000142
 30
0.0
 11
690.5514629400998956
 21
288.144454467599985
 31
0.0
  0
LINE
  5
27E
  8
0
  6
CONTINUOUS
 62
     7
 10
690.5514629400998956
 20
288.144454467599985
 30
0.0
 11
640.5514621949999992
 21
288.144454467599985
 31
0.0
  0
LINE
  5
27F
  8
0
  6
CONTINUOUS
 62
     7
 10
640.5514621949999992
 20
288.144454467599985
 30
0.0
 11
640.5514621949999992
 21
284.1444463614000142
 31
0.0
  0
LINE
  5
280
  8
0
  6
CONTINUOUS
 62
     7
 10
640.5514621949999992
 20
684.1444523218000313
 30
0.0
 11
690.5514629400998956
 21
684.1444523218000313
 31
0.0
  0
LINE
  5
281
  8
0
  6
CONTINUOUS
 62
     7
 10
690.5514629400998956
 20
684.1444523218000313
 30
0.0
 11
690.5514629400998956
 21
688.1444604280999329
 31
0.0
  0
LINE
  5
282
  8
0
  6
CONTINUOUS
 62
     7
 10
690.5514629400998956
 20
688.1444604280999329
 30
0.0
 11
640.5514621949999992
 21
688.1444604280999329
 31
0.0
  0
LINE
  5
283
  8
0
  6
CONTINUOUS
 62
     7
 10
640.5514621949999992
 20
688.1444604280999329
 30
0.0
 11
640.5514621949999992
 21
684.1444523218000313
 31
0.0
  0
LINE
  5
284
  8
0
  6
CONTINUOUS
 62
     7
 10
457.0514665758998945
 20
649.0444542052998713
 30
0.0
 11
457.0514665758998945
 21
654.044449436999912
 31
0.0
  0
ARC
  5
285
  8
0
  6
CONTINUOUS
 62
     7
 10
454.5514614498998753
 20
654.0444533946999854
 30
0.0
 40
2.500000000000056
 50
0.0
 51
180.0
  0
LINE
  5
286
  8
0
  6
CONTINUOUS
 62
     7
 10
452.0514564431999815
 20
654.044449436999912
 30
0.0
 11
452.0514564431999815
 21
649.0444542052998713
 31
0.0
  0
ARC
  5
287
  8
0
  6
CONTINUOUS
 62
     7
 10
454.5514614498998753
 20
649.0444533946998718
 30
0.0
 40
2.500000000000056
 50
180.0
 51
0.0
  0
LINE
  5
288
  8
0
  6
CONTINUOUS
 62
     7
 10
474.5514647878000005
 20
305.7444543722000958
 30
0.0
 11
469.55146210559991
 21
305.7444543722000958
 31
0.0
  0
ARC
  5
289
  8
0
  6
CONTINUOUS
 62
     7
 10
469.551461449899989
 20
303.2444533946999741
 30
0.0
 40
2.5
 50
90.0
 51
270.0
  0
LINE
  5
28A
  8
0
  6
CONTINUOUS
 62
     7
 10
469.55146210559991
 20
300.7444591405999859
 30
0.0
 11
474.5514647878000005
 21
300.7444591405999859
 31
0.0
  0
ARC
  5
28B
  8
0
  6
CONTINUOUS
 62
     7
 10
474.551461449899989
 20
303.2444533946999741
 30
0.0
 40
2.5
 50
270.0
 51
90.0
  0
LINE
  5
28C
  8
0
  6
CONTINUOUS
 62
     7
 10
452.0514564431999815
 20
323.2444525840999745
 30
0.0
 11
452.0514564431999815
 21
318.2444573524999782
 31
0.0
  0
ARC
  5
28D
  8
0
  6
CONTINUOUS
 62
     7
 10
454.5514614498998753
 20
318.2444533946999741
 30
0.0
 40
2.500000000000056
 50
180.0
 51
0.0
  0
LINE
  5
28E
  8
0
  6
CONTINUOUS
 62
     7
 10
457.0514665758998945
 20
318.2444573524999782
 30
0.0
 11
457.0514665758998945
 21
323.2444525840999745
 31
0.0
  0
ARC
  5
28F
  8
0
  6
CONTINUOUS
 62
     7
 10
454.5514614498998753
 20
323.2444533946999741
 30
0.0
 40
2.500000000000056
 50
0.0
 51
180.0
  0
LINE
  5
290
  8
0
  6
CONTINUOUS
 62
     7
 10
724.0514563238998562
 20
323.2444525840999745
 30
0.0
 11
724.0514563238998562
 21
318.2444573524999782
 31
0.0
  0
ARC
  5
291
  8
0
  6
CONTINUOUS
 62
     7
 10
726.5514614499001027
 20
318.2444533946999741
 30
0.0
 40
2.5
 50
180.0
 51
0.0
  0
LINE
  5
292
  8
0
  6
CONTINUOUS
 62
     7
 10
729.0514664566999272
 20
318.2444573524999782
 30
0.0
 11
729.0514664566999272
 21
323.2444525840999745
 31
0.0
  0
ARC
  5
293
  8
0
  6
CONTINUOUS
 62
     7
 10
726.5514614499001027
 20
323.2444533946999741
 30
0.0
 40
2.5
 50
0.0
 51
180.0
  0
LINE
  5
294
  8
0
  6
CONTINUOUS
 62
     7
 10
706.5514581121000219
 20
300.7444591405999859
 30
0.0
 11
711.5514607942999419
 21
300.7444591405999859
 31
0.0
  0
ARC
  5
295
  8
0
  6
CONTINUOUS
 62
     7
 10
711.5514614499001027
 20
303.2444533946999741
 30
0.0
 40
2.5
 50
270.0
 51
90.0
  0
LINE
  5
296
  8
0
  6
CONTINUOUS
 62
     7
 10
711.5514607942999419
 20
305.7444543722000958
 30
0.0
 11
706.5514581121000219
 21
305.7444543722000958
 31
0.0
  0
ARC
  5
297
  8
0
  6
CONTINUOUS
 62
     7
 10
706.5514614499001027
 20
303.2444533946999741
 30
0.0
 40
2.5
 50
90.0
 51
270.0
  0
LINE
  5
298
  8
0
  6
CONTINUOUS
 62
     7
 10
729.0514664566999272
 20
649.0444542052998713
 30
0.0
 11
729.0514664566999272
 21
654.044449436999912
 31
0.0
  0
ARC
  5
299
  8
0
  6
CONTINUOUS
 62
     7
 10
726.5514614499001027
 20
654.0444533946999854
 30
0.0
 40
2.5
 50
0.0
 51
180.0
  0
LINE
  5
29A
  8
0
  6
CONTINUOUS
 62
     7
 10
724.0514563238998562
 20
654.044449436999912
 30
0.0
 11
724.0514563238998562
 21
649.0444542052998713
 31
0.0
  0
ARC
  5
29B
  8
0
  6
CONTINUOUS
 62
     7
 10
726.5514614499001027
 20
649.0444533946998718
 30
0.0
 40
2.5
 50
180.0
 51
0.0
  0
LINE
  5
29C
  8
0
  6
CONTINUOUS
 62
     7
 10
706.5514581121000219
 20
666.5444524171998637
 30
0.0
 11
711.5514607942999419
 21
666.5444524171998637
 31
0.0
  0
ARC
  5
29D
  8
0
  6
CONTINUOUS
 62
     7
 10
711.5514614499001027
 20
669.0444533946998718
 30
0.0
 40
2.5000000000001141
 50
270.0
 51
90.0
  0
LINE
  5
29E
  8
0
  6
CONTINUOUS
 62
     7
 10
711.5514607942999419
 20
671.54444764879986
 30
0.0
 11
706.5514581121000219
 21
671.54444764879986
 31
0.0
  0
ARC
  5
29F
  8
0
  6
CONTINUOUS
 62
     7
 10
706.5514614499001027
 20
669.0444533946998718
 30
0.0
 40
2.5000000000001141
 50
90.0
 51
270.0
  0
LINE
  5
2A0
  8
0
  6
CONTINUOUS
 62
     7
 10
474.5514647878000005
 20
671.54444764879986
 30
0.0
 11
469.55146210559991
 21
671.54444764879986
 31
0.0
  0
ARC
  5
2A1
  8
0
  6
CONTINUOUS
 62
     7
 10
469.551461449899989
 20
669.0444533946998718
 30
0.0
 40
2.5000000000001141
 50
90.0
 51
270.0
  0
LINE
  5
2A2
  8
0
  6
CONTINUOUS
 62
     7
 10
469.55146210559991
 20
666.5444524171998637
 30
0.0
 11
474.5514647878000005
 21
666.5444524171998637
 31
0.0
  0
ARC
  5
2A3
  8
0
  6
CONTINUOUS
 62
     7
 10
474.551461449899989
 20
669.0444533946998718
 30
0.0
 40
2.5000000000001141
 50
270.0
 51
90.0
  0
CIRCLE
  5
2A4
  8
0
  6
CONTINUOUS
 62
     7
 10
805.5514614499001027
 20
486.1444533947000082
 30
0.0
 40
1.800000000000068
  0
CIRCLE
  5
2A5
  8
0
  6
CONTINUOUS
 62
     7
 10
805.5514614499001027
 20
526.1444533947000082
 30
0.0
 40
1.800000000000068
  0
CIRCLE
  5
2A6
  8
0
  6
CONTINUOUS
 62
     7
 10
805.5514614499001027
 20
446.1444533947000082
 30
0.0
 40
1.800000000000068
  0
CIRCLE
  5
2A7
  8
0
  6
CONTINUOUS
 62
     7
 10
395.551461449899989
 20
373.8947317915000212
 30
0.0
 40
1.8000000000000109
  0
CIRCLE
  5
2A8
  8
0
  6
CONTINUOUS
 62
     7
 10
380.551461449899989
 20
405.3669812876999003
 30
0.0
 40
1.8000000000000109
  0
DIMENSION
  5
2A9
  8
BORDER
  2
_D
 10
375.9752454266999848
 20
357.8594288707000146
 30
0.0
 11
867.9081747832999554
 21
637.5891681819000496
 31
0.0
 70
   131
  1
<>
 15
805.1276774732000376
 25
614.4294779186999449
 35
0.0
 40
0.0
  0
DIMENSION
  5
2B3
  8
BORDER
  2
_D_1
 10
324.551461449899989
 20
456.1444533947000082
 30
0.0
 11
324.551461449899989
 21
483.6507830368000214
 31
0.0
 70
   128
  1
<>
 13
370.551461449899989
 23
516.1444533946998945
 33
0.0
 14
370.551461449899989
 24
456.1444533947000082
 34
0.0
 50
90.0
  0
DIMENSION
  5
2BF
  8
BORDER
  2
_D_2
 10
396.7512671663000106
 20
375.2365463253000257
 30
0.0
 11
334.3454147859000045
 21
327.0851123005999739
 31
0.0
 70
   131
  1
<>
 15
394.3516557336000119
 25
372.5529172577000168
 35
0.0
 40
0.0
  0
DIMENSION
  5
2C9
  8
BORDER
  2
_D_3
 10
412.5862289054999792
 20
412.7630087387998969
 30
0.0
 11
324.1006402964000017
 21
357.7694766244999869
 31
0.0
 70
   131
  1
<>
 15
408.5166939943999864
 25
409.525898050599892
 35
0.0
 40
0.0
  0
DIMENSION
  5
2D2
  8
BORDER
  2
_D_4
 10
590.551461449899989
 20
273.0020669378999969
 30
0.0
 11
540.7976107554000009
 21
273.0020669378999969
 31
0.0
 70
   128
  1
<>
 13
490.551461449899989
 23
284.1444533947000082
 33
0.0
 14
590.551461449899989
 24
284.1444533947000082
 34
0.0
  0
DIMENSION
  5
2DD
  8
BORDER
  2
_D_5
 10
690.5514614499001027
 20
273.3748873083999911
 30
0.0
 11
667.5224888635998468
 21
273.3748873083999911
 31
0.0
 70
   128
  1
<>
 13
640.551461449899989
 23
284.1444533947000082
 33
0.0
 14
690.5514614499001027
 24
284.1444533947000082
 34
0.0
  0
DIMENSION
  5
2E8
  8
BORDER
  2
_D_6
 10
752.5514614499001027
 20
305.3113783689000229
 30
0.0
 11
784.6211614812999642
 21
305.3113783689000229
 31
0.0
 70
   128
  1
<>
 13
744.5514614499001027
 23
368.2444533946999741
 33
0.0
 14
752.5514614499001027
 24
368.2444533946999741
 34
0.0
  0
DIMENSION
  5
2F3
  8
BORDER
  2
_D_7
 10
752.5514614499001027
 20
368.2444533946999741
 30
0.0
 11
835.5119321982000429
 21
345.4021784512999034
 31
0.0
 70
   132
  1
<>
 15
754.9133283516999882
 25
367.4249506562999841
 35
0.0
 40
0.0
  0
DIMENSION
  5
2FC
  8
BORDER
  2
_D_8
 10
294.551461449899989
 20
436.1444533947000082
 30
0.0
 11
294.551461449899989
 21
483.6507830368000214
 31
0.0
 70
   128
  1
<>
 13
408.5514614498998753
 23
536.1444533947000082
 33
0.0
 14
408.5514614498998753
 24
436.1444533947000082
 34
0.0
 50
90.0
  0
INSERT
  5
307
  8
0
  2
*U166
 10
0.0
 20
0.0
 30
0.0
  0
INSERT
  5
30E
  8
0
  2
*U167
 10
0.0
 20
0.0
 30
0.0
  0
INSERT
  5
31A
  8
BORDER
  2
SW_CENTERMARKSYMBOL_0
 10
410.5514614498998753
 20
561.1444533947000082
 30
0.0
  0
INSERT
  5
326
  8
BORDER
  2
SW_CENTERMARKSYMBOL_1
 10
580.5514614498998753
 20
411.1444533947000082
 30
0.0
  0
INSERT
  5
332
  8
BORDER
  2
SW_CENTERMARKSYMBOL_2
 10
580.5514614498998753
 20
561.1444533947000082
 30
0.0
  0
INSERT
  5
33E
  8
BORDER
  2
SW_CENTERMARKSYMBOL_3
 10
410.5514614498998753
 20
411.1444533947000082
 30
0.0
  0
INSERT
  5
34A
  8
BORDER
  2
SW_CENTERMARKSYMBOL_4
 10
475.5514614498998753
 20
286.1444533947000082
 30
0.0
  0
INSERT
  5
356
  8
BORDER
  2
SW_CENTERMARKSYMBOL_5
 10
605.5514614498998753
 20
286.1444533947000082
 30
0.0
  0
INSERT
  5
362
  8
BORDER
  2
SW_CENTERMARKSYMBOL_6
 10
605.5514614498998753
 20
686.1444533947000082
 30
0.0
  0
INSERT
  5
36E
  8
BORDER
  2
SW_CENTERMARKSYMBOL_7
 10
475.5514614498998753
 20
686.1444533947000082
 30
0.0
  0
INSERT
  5
37A
  8
BORDER
  2
SW_CENTERMARKSYMBOL_8
 10
454.5514614498998753
 20
368.2444533946999741
 30
0.0
  0
INSERT
  5
386
  8
BORDER
  2
SW_CENTERMARKSYMBOL_9
 10
726.5514614499001027
 20
669.0444533946998718
 30
0.0
  0
INSERT
  5
392
  8
BORDER
  2
SW_CENTERMARKSYMBOL_10
 10
454.5514614498998753
 20
303.2444533946999741
 30
0.0
  0
INSERT
  5
39E
  8
BORDER
  2
SW_CENTERMARKSYMBOL_11
 10
726.5514614499001027
 20
303.2444533946999741
 30
0.0
  0
INSERT
  5
3AA
  8
BORDER
  2
SW_CENTERMARKSYMBOL_12
 10
454.5514614498998753
 20
604.0444533946999854
 30
0.0
  0
INSERT
  5
3B6
  8
BORDER
  2
SW_CENTERMARKSYMBOL_13
 10
726.5514614499001027
 20
604.0444533946999854
 30
0.0
  0
INSERT
  5
3C2
  8
BORDER
  2
SW_CENTERMARKSYMBOL_14
 10
726.5514614499001027
 20
368.2444533946999741
 30
0.0
  0
INSERT
  5
3CE
  8
BORDER
  2
SW_CENTERMARKSYMBOL_15
 10
454.5514614498998753
 20
669.0444533946998718
 30
0.0
  0
INSERT
  5
3DA
  8
BORDER
  2
SW_CENTERMARKSYMBOL_16
 10
805.5514614499001027
 20
486.1444533947000082
 30
0.0
  0
INSERT
  5
3E6
  8
BORDER
  2
SW_CENTERMARKSYMBOL_17
 10
805.5514614499001027
 20
526.1444533947000082
 30
0.0
  0
INSERT
  5
3F2
  8
BORDER
  2
SW_CENTERMARKSYMBOL_18
 10
805.5514614499001027
 20
446.1444533947000082
 30
0.0
  0
INSERT
  5
3FE
  8
BORDER
  2
SW_CENTERMARKSYMBOL_19
 10
395.551461449899989
 20
373.8947317915000212
 30
0.0
  0
INSERT
  5
40A
  8
BORDER
  2
SW_CENTERMARKSYMBOL_20
 10
380.551461449899989
 20
405.3669812876999003
 30
0.0
  0
INSERT
  5
416
  8
BORDER
  2
SW_CENTERMARKSYMBOL_21
 10
380.551461449899989
 20
566.9219255017000023
 30
0.0
  0
INSERT
  5
422
  8
BORDER
  2
SW_CENTERMARKSYMBOL_22
 10
395.551461449899989
 20
598.3941749978999951
 30
0.0
  0
ENDSEC
  0
EOF
