  0
SECTION
  2
HEADER
  9
$ACADVER
  1
AC1009
  9
$INSBASE
 10
0.0
 20
0.0
 30
0.0
  9
$EXTMIN
 10
-0.0000000000000555
 20
0.0
 30
0.0
  9
$EXTMAX
 10
420.0
 20
297.0
 30
0.0
  9
$LIMMIN
 10
0.0
 20
0.0
  9
$LIMMAX
 10
420.0
 20
297.0
  9
$ORTHOMODE
 70
     0
  9
$REGENMODE
 70
     1
  9
$FILLMODE
 70
     1
  9
$QTEXTMODE
 70
     0
  9
$MIRRTEXT
 70
     1
  9
$DRAGMODE
 70
     2
  9
$LTSCALE
 40
1.0
  9
$OSMODE
 70
    37
  9
$ATTMODE
 70
     1
  9
$TEXTSIZE
 40
3.1749999999999989
  9
$TRACEWID
 40
1.0
  9
$TEXTSTYLE
  7
STANDARD
  9
$CLAYER
  8
0
  9
$CELTYPE
  6
BYLAYER
  9
$CECOLOR
 62
   256
  9
$DIMSCALE
 40
1.0
  9
$DIMASZ
 40
3.302
  9
$DIMEXO
 40
1.27
  9
$DIMDLI
 40
3.75
  9
$DIMRND
 40
0.0
  9
$DIMDLE
 40
0.0
  9
$DIMEXE
 40
3.1749999999999989
  9
$DIMTP
 40
0.0
  9
$DIMTM
 40
0.0
  9
$DIMTXT
 40
3.1749999999999989
  9
$DIMCEN
 40
2.5
  9
$DIMTSZ
 40
0.0
  9
$DIMTOL
 70
     0
  9
$DIMLIM
 70
     0
  9
$DIMTIH
 70
     1
  9
$DIMTOH
 70
     1
  9
$DIMSE1
 70
     0
  9
$DIMSE2
 70
     0
  9
$DIMTAD
 70
     0
  9
$DIMZIN
 70
     1
  9
$DIMBLK
  1

  9
$DIMASO
 70
     1
  9
$DIMSHO
 70
     1
  9
$DIMPOST
  1

  9
$DIMAPOST
  1

  9
$DIMALT
 70
     0
  9
$DIMALTD
 70
     3
  9
$DIMALTF
 40
0.0393700787
  9
$DIMLFAC
 40
1.0
  9
$DIMTOFL
 70
     1
  9
$DIMTVP
 40
0.0
  9
$DIMTIX
 70
     0
  9
$DIMSOXD
 70
     0
  9
$DIMSAH
 70
     0
  9
$DIMBLK1
  1

  9
$DIMBLK2
  1

  9
$DIMSTYLE
  2
ISO-25
  9
$DIMCLRD
 70
     0
  9
$DIMCLRE
 70
     0
  9
$DIMCLRT
 70
     0
  9
$DIMTFAC
 40
1.0
  9
$DIMGAP
 40
1.524
  9
$LUNITS
 70
     2
  9
$LUPREC
 70
     2
  9
$SKETCHINC
 40
1.0
  9
$FILLETRAD
 40
10.0
  9
$AUNITS
 70
     0
  9
$AUPREC
 70
     2
  9
$MENU
  1
.
  9
$ELEVATION
 40
0.0
  9
$PELEVATION
 40
0.0
  9
$THICKNESS
 40
0.0
  9
$LIMCHECK
 70
     0
  9
$BLIPMODE
 70
     0
  9
$CHAMFERA
 40
0.0
  9
$CHAMFERB
 40
0.0
  9
$SKPOLY
 70
     0
  9
$TDCREATE
 40
2459583.7472569448873401
  9
$TDUPDATE
 40
2459584.5269328709691763
  9
$TDINDWG
 40
0.0253703819
  9
$TDUSRTIMER
 40
0.0253703819
  9
$USRTIMER
 70
     1
  9
$ANGBASE
 50
0.0
  9
$ANGDIR
 70
     0
  9
$PDMODE
 70
     0
  9
$PDSIZE
 40
-1.0
  9
$PLINEWID
 40
0.0
  9
$COORDS
 70
     1
  9
$SPLFRAME
 70
     0
  9
$SPLINETYPE
 70
     6
  9
$SPLINESEGS
 70
     8
  9
$ATTDIA
 70
     1
  9
$ATTREQ
 70
     1
  9
$HANDLING
 70
     1
  9
$HANDSEED
  5
3E5
  9
$SURFTAB1
 70
     6
  9
$SURFTAB2
 70
     6
  9
$SURFTYPE
 70
     6
  9
$SURFU
 70
     6
  9
$SURFV
 70
     6
  9
$UCSNAME
  2

  9
$UCSORG
 10
0.0
 20
0.0
 30
0.0
  9
$UCSXDIR
 10
1.0
 20
0.0
 30
0.0
  9
$UCSYDIR
 10
0.0
 20
1.0
 30
0.0
  9
$PUCSNAME
  2

  9
$PUCSORG
 10
0.0
 20
0.0
 30
0.0
  9
$PUCSXDIR
 10
1.0
 20
0.0
 30
0.0
  9
$PUCSYDIR
 10
0.0
 20
1.0
 30
0.0
  9
$USERI1
 70
     0
  9
$USERI2
 70
     0
  9
$USERI3
 70
     0
  9
$USERI4
 70
     0
  9
$USERI5
 70
     0
  9
$USERR1
 40
0.0
  9
$USERR2
 40
0.0
  9
$USERR3
 40
0.0
  9
$USERR4
 40
0.0
  9
$USERR5
 40
0.0
  9
$WORLDVIEW
 70
     1
  9
$SHADEDGE
 70
     3
  9
$SHADEDIF
 70
    70
  9
$TILEMODE
 70
     1
  9
$MAXACTVP
 70
    64
  9
$PLIMCHECK
 70
     0
  9
$PEXTMIN
 10
1.0000000000000000E+20
 20
1.0000000000000000E+20
 30
1.0000000000000000E+20
  9
$PEXTMAX
 10
-1.0000000000000000E+20
 20
-1.0000000000000000E+20
 30
-1.0000000000000000E+20
  9
$PLIMMIN
 10
0.0
 20
0.0
  9
$PLIMMAX
 10
420.0
 20
297.0
  9
$UNITMODE
 70
     0
  9
$VISRETAIN
 70
     1
  9
$PLINEGEN
 70
     0
  9
$PSLTSCALE
 70
     1
  0
ENDSEC
  0
SECTION
  2
TABLES
  0
TABLE
  2
VPORT
 70
     1
  0
VPORT
  2
*ACTIVE
 70
     0
 10
0.0
 20
0.0
 11
1.0
 21
1.0
 12
283.5098129792968962
 22
195.9645513916757977
 13
0.0
 23
0.0
 14
10.0
 24
10.0
 15
10.0
 25
10.0
 16
0.0
 26
0.0
 36
1.0
 17
0.0
 27
0.0
 37
0.0
 40
309.6562288165372934
 41
2.4830729166666661
 42
50.0
 43
0.0
 44
0.0
 50
0.0
 51
0.0
 71
     0
 72
  2000
 73
     1
 74
     3
 75
     0
 76
     0
 77
     0
 78
     0
  0
ENDTAB
  0
TABLE
  2
LTYPE
 70
    18
  0
LTYPE
  2
CONTINUOUS
 70
     0
  3
Solid line
 72
    65
 73
     0
 40
0.0
  0
LTYPE
  2
HIDDEN
 70
     0
  3
Hidden __ __ __ __ __ __ __ __ __ __ __ __ __ __
 72
    65
 73
     2
 40
1.905
 49
1.27
 49
-0.635
  0
LTYPE
  2
PHANTOM
 70
     0
  3
Phantom ______  __  __  ______  __  __  ______
 72
    65
 73
     6
 40
12.6999999999999993
 49
6.3499999999999988
 49
-1.27
 49
1.27
 49
-1.27
 49
1.27
 49
-1.27
  0
LTYPE
  2
CENTER
 70
     0
  3
Center ____ _ ____ _ ____ _ ____ _ ____ _ ____
 72
    65
 73
     4
 40
10.1600000000000001
 49
6.3499999999999988
 49
-1.27
 49
1.27
 49
-1.27
  0
LTYPE
  2
CENTERX2
 70
     0
  3
Center (2x) ________  __  ________  __  _____
 72
    65
 73
     4
 40
20.3200000000000003
 49
12.6999999999999993
 49
-2.54
 49
2.54
 49
-2.54
  0
LTYPE
  2
DOT2
 70
     0
  3
Dot (.5x) ........................................
 72
    65
 73
     2
 40
0.635
 49
0.0
 49
-0.635
  0
LTYPE
  2
PHANTOM2
 70
     0
  3
Phantom (.5x) ___ _ _ ___ _ _ ___ _ _ ___ _ _
 72
    65
 73
     6
 40
31.75
 49
15.875
 49
-3.1749999999999989
 49
3.1749999999999989
 49
-3.1749999999999989
 49
3.1749999999999989
 49
-3.1749999999999989
  0
LTYPE
  2
AM_ISO02W050
 70
     0
  3
__ __ __ __ __ __ __ __ __ __ __ __ __ __ __
 72
    65
 73
     2
 40
7.5
 49
6.0
 49
-1.5
  0
LTYPE
  2
AM_ISO08W050
 70
     0
  3
____ . ____ . ____ . ____ . ____ . ____ . ____
 72
    65
 73
     4
 40
18.0
 49
12.0
 49
-1.5
 49
3.0
 49
-1.5
  0
LTYPE
  2
AM_ISO09W050
 70
     0
  3
_____ . . _____ . . _____ . . ____ .. ____
 72
    65
 73
     6
 40
22.5
 49
12.0
 49
-1.5
 49
3.0
 49
-1.5
 49
3.0
 49
-1.5
  0
LTYPE
  2
AMCONSTR
 70
     0
  3
_______________________
 72
    65
 73
     2
 40
9999.0
 49
9999.0
 49
0.0
  0
LTYPE
  2
AM_ISO08W050X2
 70
     0
  3
__ . __ . __ . __ . __ . __
 72
    65
 73
     4
 40
9.0
 49
6.0
 49
-0.75
 49
1.5
 49
-0.75
  0
LTYPE
  2
AM_ISO02W050X2
 70
     0
  3
 _ _ _ _ _ _ _ _ _ _ _ _
 72
    65
 73
     2
 40
3.75
 49
3.0
 49
-0.75
  0
LTYPE
  2
AMZIGZAG
 70
     0
  3
/\/-/\/-/\/-/\/-/\/-/\/
 72
    65
 73
     2
 40
11.0000999999999998
 49
0.0001
 49
-11.0
  0
LTYPE
  2
ACISOWELD
 70
     0
  3
_ _ _ _ _
 72
    65
 73
     2
 40
2.0
 49
2.0
 49
-1.0
  0
LTYPE
  2
ACISOTGL
 70
     0
  3
_ _ _ _ _
 72
    65
 73
     2
 40
3.0
 49
2.0
 49
-1.0
  0
LTYPE
  2
ACISOTGB
 70
     0
  3
__ . . __ . .
 72
    65
 73
     6
 40
9.0
 49
4.0
 49
-1.0
 49
1.0
 49
-1.0
 49
1.0
 49
-1.0
  0
ENDTAB
  0
TABLE
  2
LAYER
 70
     7
  0
LAYER
  2
0
 70
     0
 62
     7
  6
CONTINUOUS
  0
LAYER
  2
BORDER
 70
     0
 62
     7
  6
CONTINUOUS
  0
LAYER
  2
CONSTRUCTION
 70
     0
 62
  -136
  6
CONTINUOUS
  0
LAYER
  2
TRIM
 70
     0
 62
     7
  6
CONTINUOUS
  0
LAYER
  2
TEXT
 70
     0
 62
     7
  6
CONTINUOUS
  0
LAYER
  2
DIMENSIONS
 70
     0
 62
     5
  6
CONTINUOUS
  0
LAYER
  2
AM_5
 70
     0
 62
     3
  6
CONTINUOUS
  0
ENDTAB
  0
TABLE
  2
STYLE
 70
     9
  0
STYLE
  2
STANDARD
 70
     0
 40
0.0
 41
1.0
 50
0.0
 71
     0
 42
3.1749999999999989
  3
txt
  4

  0
STYLE
  2
SLDTEXTSTYLE0
 70
     0
 40
0.0
 41
0.75
 50
0.0
 71
     0
 42
3.1749999999999989
  3
TXT
  4

  0
STYLE
  2
SLDTEXTSTYLE1
 70
     0
 40
0.0
 41
0.605
 50
0.0
 71
     0
 42
3.1749999999999989
  3
TXT
  4

  0
STYLE
  2
SLDTEXTSTYLE2
 70
     0
 40
0.0
 41
0.605
 50
0.0
 71
     0
 42
3.1749999999999989
  3
TXT
  4
bigfont
  0
STYLE
  2
SLDTEXTSTYLE3
 70
     0
 40
0.0
 41
0.57
 50
0.0
 71
     0
 42
3.1749999999999989
  3
TXT
  4

  0
STYLE
  2

 70
     1
 40
0.0
 41
1.0
 50
0.0
 71
     0
 42
3.1749999999999989
  3
genltshp.shx
  4

  0
STYLE
  2
ACISOTS
 70
     0
 40
0.0
 41
1.0
 50
0.0
 71
     0
 42
3.1749999999999989
  3
isocp.shx
  4

  0
STYLE
  2
ACISOGDT
 70
     0
 40
0.0
 41
1.0
 50
0.0
 71
     0
 42
3.1749999999999989
  3
amgdt.shx
  4

  0
STYLE
  2
MtXpl_MS_PGothic
 70
     0
 40
0.0
 41
1.0
 50
0.0
 71
     0
 42
3.1749999999999989
  3
txt
  4

  0
ENDTAB
  0
TABLE
  2
VIEW
 70
     0
  0
ENDTAB
  0
TABLE
  2
UCS
 70
     0
  0
ENDTAB
  0
TABLE
  2
APPID
 70
    11
  0
APPID
  2
ACAD
 70
     0
  0
APPID
  2
MCAD_NO_VIS
 70
     0
  0
APPID
  2
ACAD_TEMP_GRAPHIC
 70
     0
  0
APPID
  2
ACATTRIBSERVICES
 70
     0
  0
APPID
  2
DESIGNERASSEMBLIES
 70
     0
  0
APPID
  2
ACAD_DSTYLE_DIMJAG
 70
     0
  0
APPID
  2
ACAD_DSTYLE_DIMBREAK
 70
     0
  0
APPID
  2
ACAD_NAV_VCDISPLAY
 70
     0
  0
APPID
  2
ACAD_EXEMPT_FROM_CAD_STANDARDS
 70
     0
  0
APPID
  2
ACAECLAYERSTANDARD
 70
     0
  0
APPID
  2
ACAD_MLEADERVER
 70
     0
  0
ENDTAB
  0
TABLE
  2
DIMSTYLE
 70
    10
  0
DIMSTYLE
  2
ISO-25
 70
     0
  3

  4

  5

  6

  7

 40
1.0
 41
2.5
 42
0.625
 43
3.75
 44
1.25
 45
0.0
 46
0.0
 47
0.0
 48
0.0
140
2.5
141
2.5
142
0.0
143
0.0393700787
144
1.0
145
0.0
146
1.0
147
0.625
 71
     0
 72
     0
 73
     0
 74
     0
 75
     0
 76
     0
 77
     1
 78
     8
170
     0
171
     3
172
     1
173
     0
174
     0
175
     0
176
     0
177
     0
178
     0
  0
DIMSTYLE
  2
SLDDIMSTYLE0
 70
     0
  3

  4

  5

  6

  7

 40
1.0
 41
3.302
 42
0.0625
 43
0.38
 44
0.0
 45
0.000000001
 46
0.0
 47
0.0
 48
0.0
140
3.1749999999999989
141
0.09
142
0.0
143
25.3999999999999986
144
1.0
145
0.0
146
1.0
147
0.79375
 71
     0
 72
     0
 73
     1
 74
     1
 75
     0
 76
     0
 77
     0
 78
     4
170
     0
171
     2
172
     0
173
     1
174
     0
175
     0
176
     0
177
     0
178
     0
  0
DIMSTYLE
  2
SLDDIMSTYLE1
 70
     0
  3

  4

  5

  6

  7

 40
1.0
 41
3.302
 42
0.0625
 43
0.38
 44
0.0
 45
0.000000001
 46
0.0
 47
0.0
 48
0.0
140
3.1749999999999989
141
0.09
142
0.0
143
25.3999999999999986
144
1.0
145
0.0
146
1.0
147
0.79375
 71
     0
 72
     0
 73
     1
 74
     1
 75
     0
 76
     0
 77
     0
 78
     4
170
     0
171
     2
172
     1
173
     1
174
     0
175
     0
176
     0
177
     0
178
     0
  0
DIMSTYLE
  2
AM_ISO
 70
     0
  3

  4
"
  5

  6

  7

 40
1.0
 41
3.5
 42
1.0
 43
10.0
 44
1.0
 45
0.0
 46
0.0
 47
0.1
 48
0.1
140
3.5
141
0.0
142
0.0
143
0.0393701
144
1.0
145
0.0
146
0.71
147
1.5
 71
     0
 72
     0
 73
     0
 74
     0
 75
     0
 76
     0
 77
     1
 78
     8
170
     0
171
     2
172
     1
173
     0
174
     0
175
     0
176
   256
177
   256
178
     2
  0
DIMSTYLE
  2
AM_ISO$3
 70
     0
  3

  4
"
  5

  6

  7

 40
1.0
 41
3.5
 42
1.0
 43
10.0
 44
1.0
 45
0.0
 46
0.0
 47
0.1
 48
0.1
140
3.5
141
0.0
142
0.0
143
0.0393701
144
1.0
145
0.0
146
0.71
147
1.5
 71
     0
 72
     0
 73
     0
 74
     1
 75
     0
 76
     0
 77
     1
 78
     8
170
     0
171
     2
172
     0
173
     0
174
     0
175
     0
176
   256
177
   256
178
     2
  0
DIMSTYLE
  2
AM_ISO$4
 70
     0
  3

  4
"
  5

  6

  7

 40
1.0
 41
3.5
 42
1.0
 43
10.0
 44
1.0
 45
0.0
 46
0.0
 47
0.1
 48
0.1
140
3.5
141
0.0
142
0.0
143
0.0393701
144
1.0
145
0.0
146
0.71
147
1.5
 71
     0
 72
     0
 73
     0
 74
     1
 75
     0
 76
     0
 77
     1
 78
     8
170
     0
171
     2
172
     0
173
     0
174
     0
175
     0
176
   256
177
   256
178
     2
  0
DIMSTYLE
  2
AM_ISO$6
 70
     0
  3

  4
"
  5

  6

  7

 40
1.0
 41
3.5
 42
1.0
 43
10.0
 44
1.0
 45
0.0
 46
0.0
 47
0.1
 48
0.1
140
3.5
141
0.0
142
0.0
143
0.0393701
144
1.0
145
0.0
146
0.71
147
1.5
 71
     0
 72
     0
 73
     0
 74
     0
 75
     0
 76
     0
 77
     0
 78
     8
170
     0
171
     2
172
     1
173
     0
174
     0
175
     0
176
   256
177
   256
178
     2
  0
DIMSTYLE
  2
AM_ISO$7
 70
     0
  3

  4
"
  5

  6

  7

 40
1.0
 41
3.5
 42
1.0
 43
10.0
 44
1.0
 45
0.0
 46
0.0
 47
0.1
 48
0.1
140
3.5
141
0.0
142
0.0
143
0.0393701
144
1.0
145
0.0
146
0.71
147
1.5
 71
     0
 72
     0
 73
     0
 74
     0
 75
     0
 76
     0
 77
     1
 78
     8
170
     0
171
     2
172
     1
173
     0
174
     0
175
     0
176
   256
177
   256
178
     2
  0
DIMSTYLE
  2
AM_ISO$SF
 70
     0
  3

  4
"
  5

  6

  7

 40
1.0
 41
3.5
 42
1.0
 43
10.0
 44
1.0
 45
0.0
 46
0.0
 47
0.1
 48
0.1
140
3.5
141
0.0
142
0.0
143
0.0393701
144
1.0
145
0.0
146
0.71
147
1.5
 71
     0
 72
     0
 73
     0
 74
     0
 75
     1
 76
     1
 77
     1
 78
     8
170
     0
171
     2
172
     1
173
     0
174
     0
175
     0
176
   256
177
   256
178
     2
  0
DIMSTYLE
  2
AM_ISO$SH
 70
     0
  3

  4
"
  5

  6
GENAXEH
  7

 40
1.0
 41
3.5
 42
1.0
 43
10.0
 44
1.0
 45
0.0
 46
0.0
 47
0.1
 48
0.1
140
3.5
141
0.0
142
0.0
143
0.0393701
144
2.0
145
0.0
146
0.71
147
1.5
 71
     0
 72
     0
 73
     0
 74
     0
 75
     1
 76
     1
 77
     1
 78
     8
170
     0
171
     2
172
     1
173
     1
174
     0
175
     0
176
   256
177
   256
178
     2
  0
ENDTAB
  0
ENDSEC
  0
SECTION
  2
BLOCKS
  0
BLOCK
  8
0
  2
$MODEL_SPACE
 70
     0
 10
0.0
 20
0.0
 30
0.0
  3
$MODEL_SPACE
  1

  0
ENDBLK
  5
21
  8
0
  0
BLOCK
 67
     1
  8
0
  2
$PAPER_SPACE
 70
     0
 10
0.0
 20
0.0
 30
0.0
  3
$PAPER_SPACE
  1

  0
ENDBLK
  5
1D
 67
     1
  8
0
  0
BLOCK
  8
0
  2
SW_NOTE_0
 70
     0
 10
0.0
 20
0.0
 30
0.0
  3
SW_NOTE_0
  1

  0
INSERT
  5
10C
  8
0
  2
*U40
 10
0.0
 20
0.0
 30
0.0
  0
INSERT
  5
10E
  8
0
  2
*U41
 10
0.0
 20
0.0
 30
0.0
  0
INSERT
  5
10F
  8
0
  2
*U42
 10
0.0
 20
0.0
 30
0.0
  0
INSERT
  5
110
  8
0
  2
*U43
 10
0.0
 20
0.0
 30
0.0
  0
ENDBLK
  5
10B
  8
0
  0
BLOCK
  8
0
  2
SW_NOTE_0_1
 70
     0
 10
0.0
 20
0.0
 30
0.0
  3
SW_NOTE_0_1
  1

  0
INSERT
  5
129
  8
0
  2
*U64
 10
0.0
 20
0.0
 30
0.0
  0
INSERT
  5
12A
  8
0
  2
*U65
 10
0.0
 20
0.0
 30
0.0
  0
ENDBLK
  5
128
  8
0
  0
BLOCK
  8
0
  2
_D
 70
     0
 10
0.0
 20
0.0
 30
0.0
  3
_D
  1

  0
SOLID
  5
163
  8
BORDER
 10
70.8870930442000002
 20
208.1586075948999905
 30
0.0
 11
70.3790930442000047
 21
204.856607594899998
 31
0.0
 12
71.3950930441999958
 22
204.856607594899998
 32
0.0
 13
71.3950930441999958
 23
204.856607594899998
 33
0.0
  0
SOLID
  5
164
  8
BORDER
 10
70.8870930442000002
 20
172.1586075948999905
 30
0.0
 11
71.3950930441999958
 21
175.4606075949000115
 31
0.0
 12
70.3790930442000047
 22
175.4606075949000115
 32
0.0
 13
70.3790930442000047
 23
175.4606075949000115
 33
0.0
  0
LINE
  5
165
  8
BORDER
 10
107.9730379747000057
 20
208.1586075948999905
 30
0.0
 11
67.7120930442000031
 21
208.1586075948999905
 31
0.0
  0
LINE
  5
166
  8
BORDER
 10
107.9730379747000057
 20
172.1586075948999905
 30
0.0
 11
67.7120930442000031
 21
172.1586075948999905
 31
0.0
  0
LINE
  5
167
  8
BORDER
 10
70.8870930442000002
 20
208.1586075948999905
 30
0.0
 11
70.8870930442000002
 21
192.0462611375999131
 31
0.0
  0
LINE
  5
168
  8
BORDER
 10
70.8870930442000002
 20
172.1586075948999905
 30
0.0
 11
70.8870930442000002
 21
187.0059484861000101
 31
0.0
  0
INSERT
  5
169
  8
0
  2
*U71
 10
0.0
 20
0.0
 30
0.0
  0
ENDBLK
  5
162
  8
0
  0
BLOCK
  8
0
  2
_D_1
 70
     0
 10
0.0
 20
0.0
 30
0.0
  3
_D_1
  1

  0
SOLID
  5
16E
  8
BORDER
 10
84.243037974700016
 20
226.2611884000999964
 30
0.0
 11
87.5450379746999943
 21
225.7531884000999867
 31
0.0
 12
87.5450379746999943
 22
226.7691884001000062
 32
0.0
 13
87.5450379746999943
 23
226.7691884001000062
 33
0.0
  0
SOLID
  5
16F
  8
BORDER
 10
339.243037974700087
 20
226.2611884000999964
 30
0.0
 11
335.9410379747000093
 21
226.7691884001000062
 31
0.0
 12
335.9410379747000093
 22
225.7531884000999867
 32
0.0
 13
335.9410379747000093
 23
225.7531884000999867
 33
0.0
  0
LINE
  5
170
  8
BORDER
 10
84.243037974700016
 20
206.4286075949000008
 30
0.0
 11
84.243037974700016
 21
229.4361884001000078
 31
0.0
  0
LINE
  5
171
  8
BORDER
 10
339.243037974700087
 20
206.4286075949000008
 30
0.0
 11
339.243037974700087
 21
229.4361884001000078
 31
0.0
  0
LINE
  5
172
  8
BORDER
 10
84.243037974700016
 20
226.2611884000999964
 30
0.0
 11
212.567412233400006
 21
226.2611884000999964
 31
0.0
  0
LINE
  5
173
  8
BORDER
 10
339.243037974700087
 20
226.2611884000999964
 30
0.0
 11
225.4702587932999904
 21
226.2611884000999964
 31
0.0
  0
INSERT
  5
174
  8
0
  2
*U72
 10
0.0
 20
0.0
 30
0.0
  0
ENDBLK
  5
16D
  8
0
  0
BLOCK
  8
0
  2
_D_2
 70
     0
 10
0.0
 20
0.0
 30
0.0
  3
_D_2
  1

  0
SOLID
  5
17A
  8
BORDER
 10
91.7430379746999876
 20
218.1586075948999905
 30
0.0
 11
88.4410379746999951
 21
218.6666075949000003
 31
0.0
 12
88.4410379746999951
 22
217.6506075949000092
 32
0.0
 13
88.4410379746999951
 23
217.6506075949000092
 33
0.0
  0
SOLID
  5
17B
  8
BORDER
 10
96.7430379746999876
 20
218.1586075948999905
 30
0.0
 11
100.0450379746999943
 21
217.6506075949000092
 31
0.0
 12
100.0450379746999943
 22
218.6666075949000003
 32
0.0
 13
100.0450379746999943
 23
218.6666075949000003
 33
0.0
  0
LINE
  5
17C
  8
BORDER
 10
91.7430379746999876
 20
199.4286075949000008
 30
0.0
 11
91.7430379746999876
 21
221.3336075949000019
 31
0.0
  0
LINE
  5
17D
  8
BORDER
 10
96.7430379746999876
 20
199.4286075949000008
 30
0.0
 11
96.7430379746999876
 21
221.3336075949000019
 31
0.0
  0
LINE
  5
17E
  8
BORDER
 10
91.7430379746999876
 20
218.1586075948999905
 30
0.0
 11
85.3930379747000075
 21
218.1586075948999905
 31
0.0
  0
LINE
  5
17F
  8
BORDER
 10
96.7430379746999876
 20
218.1586075948999905
 30
0.0
 11
103.5167251155999963
 21
218.1586075948999905
 31
0.0
  0
INSERT
  5
180
  8
0
  2
*U73
 10
0.0
 20
0.0
 30
0.0
  0
ENDBLK
  5
179
  8
0
  0
BLOCK
  8
0
  2
GENAXEH
 70
     0
 10
0.0
 20
0.0
 30
0.0
  3
GENAXEH
  1

  0
LINE
  5
21B
  8
0
 10
-1.0
 20
0.0
 30
0.0
 11
1.0
 21
0.0
 31
0.0
  0
ENDBLK
  5
21D
  8
0
  0
BLOCK
  8
0
  2
*S8
 70
     1
 10
0.0
 20
0.0
 30
0.0
  3
*S8
  1

  0
LINE
  5
248
  8
AM_5
 10
218.9316446709185016
 20
147.9037774676907873
 30
0.0
 11
205.5149780042517875
 21
147.9037774676907873
 31
0.0
  0
LINE
  5
249
  8
AM_5
 10
205.5149780042517875
 20
147.9037774676907873
 30
0.0
 11
189.6925749673546022
 21
174.4421851996449959
 31
0.0
  0
TRACE
  5
24A
  8
AM_5
  6
CONTINUOUS
 10
190.1936154984803977
 20
174.7409094223401098
 30
0.0
 11
189.191534436228892
 21
174.1434609769499104
 31
0.0
 12
187.9002296240147984
 22
177.448428398424511
 32
0.0
 13
187.9002296240147984
 23
177.448428398424511
 33
0.0
  0
INSERT
  5
24B
  8
0
  2
*U74
 10
0.0
 20
0.0
 30
0.0
  0
ENDBLK
  5
24D
  8
0
  0
BLOCK
  8
0
  2
*U9
 70
     1
 10
0.0
 20
0.0
 30
0.0
  3
*U9
  1

  0
SOLID
  5
278
  8
TRIM
  6
CONTINUOUS
 10
0.0000000000000555
 20
296.9999999999998863
 30
0.0
 11
-10.0
 21
291.9999999999998863
 31
0.0
 12
0.000000000000027
 22
291.9999999999998863
 32
0.0
 13
0.000000000000027
 23
291.9999999999998863
 33
0.0
210
0.0
220
0.0
230
-1.0
  0
SOLID
  5
279
  8
TRIM
  6
CONTINUOUS
 10
0.0000000000000555
 20
296.9999999999998863
 30
0.0
 11
-9.9999999999999467
 21
296.9999999999998863
 31
0.0
 12
-10.0
 22
291.9999999999998863
 32
0.0
 13
-10.0
 23
291.9999999999998863
 33
0.0
210
0.0
220
0.0
230
-1.0
  0
SOLID
  5
27A
  8
TRIM
  6
CONTINUOUS
 10
0.000000000000027
 20
291.9999999999998863
 30
0.0
 11
-5.0000000000000009
 21
286.9999999999998863
 31
0.0
 12
-0.0000000000000015
 22
286.9999999999998863
 32
0.0
 13
-0.0000000000000015
 23
286.9999999999998863
 33
0.0
210
0.0
220
0.0
230
-1.0
  0
SOLID
  5
27B
  8
TRIM
  6
CONTINUOUS
 10
0.000000000000027
 20
291.9999999999998863
 30
0.0
 11
-5.0000000000000009
 21
291.9999999999998863
 31
0.0
 12
-5.0000000000000009
 22
286.9999999999998863
 32
0.0
 13
-5.0000000000000009
 23
286.9999999999998863
 33
0.0
210
0.0
220
0.0
230
-1.0
  0
LINE
  5
27C
  8
TRIM
  6
CONTINUOUS
 10
-0.000000000000027
 20
291.9999999999998863
 30
0.0
 11
-0.0000000000000555
 21
296.9999999999998863
 31
0.0
  0
LINE
  5
27D
  8
TRIM
  6
CONTINUOUS
 10
9.9999999999999467
 20
296.9999999999998863
 30
0.0
 11
10.0
 21
291.9999999999998863
 31
0.0
  0
LINE
  5
27E
  8
TRIM
  6
CONTINUOUS
 10
0.0000000000000015
 20
286.9999999999998863
 30
0.0
 11
-0.000000000000027
 21
291.9999999999998863
 31
0.0
  0
LINE
  5
27F
  8
TRIM
  6
CONTINUOUS
 10
5.0000000000000009
 20
291.9999999999998863
 30
0.0
 11
5.0000000000000009
 21
286.9999999999998863
 31
0.0
  0
ENDBLK
  5
281
  8
0
  0
BLOCK
  8
0
  2
*U10
 70
     1
 10
0.0
 20
0.0
 30
0.0
  3
*U10
  1

  0
SOLID
  5
283
  8
TRIM
  6
CONTINUOUS
 10
0.0000000000000029
 20
9.9999999999999982
 30
0.0
 11
-4.9999999999999991
 21
4.9999999999999982
 31
0.0
 12
0.0000000000000015
 22
4.9999999999999982
 32
0.0
 13
0.0000000000000015
 23
4.9999999999999982
 33
0.0
210
0.0
220
0.0
230
-1.0
  0
SOLID
  5
284
  8
TRIM
  6
CONTINUOUS
 10
0.0000000000000029
 20
9.9999999999999982
 30
0.0
 11
-4.9999999999999947
 21
9.9999999999999982
 31
0.0
 12
-4.9999999999999991
 22
4.9999999999999982
 32
0.0
 13
-4.9999999999999991
 23
4.9999999999999982
 33
0.0
210
0.0
220
0.0
230
-1.0
  0
SOLID
  5
285
  8
TRIM
  6
CONTINUOUS
 10
0.0000000000000015
 20
4.9999999999999982
 30
0.0
 11
-9.9999999999999982
 21
0.0
 31
0.0
 12
0.0
 22
0.0
 32
0.0
 13
0.0
 23
0.0
 33
0.0
210
0.0
220
0.0
230
-1.0
  0
SOLID
  5
286
  8
TRIM
  6
CONTINUOUS
 10
0.0000000000000015
 20
4.9999999999999982
 30
0.0
 11
-9.9999999999999982
 21
4.9999999999999982
 31
0.0
 12
-9.9999999999999982
 22
0.0
 32
0.0
 13
-9.9999999999999982
 23
0.0
 33
0.0
210
0.0
220
0.0
230
-1.0
  0
LINE
  5
287
  8
TRIM
  6
CONTINUOUS
 10
-0.0000000000000015
 20
4.9999999999999982
 30
0.0
 11
-0.0000000000000029
 21
9.9999999999999982
 31
0.0
  0
LINE
  5
288
  8
TRIM
  6
CONTINUOUS
 10
4.9999999999999947
 20
9.9999999999999982
 30
0.0
 11
4.9999999999999991
 21
4.9999999999999982
 31
0.0
  0
LINE
  5
289
  8
TRIM
  6
CONTINUOUS
 10
0.0
 20
0.0
 30
0.0
 11
-0.0000000000000015
 21
4.9999999999999982
 31
0.0
  0
LINE
  5
28A
  8
TRIM
  6
CONTINUOUS
 10
9.9999999999999982
 20
4.9999999999999982
 30
0.0
 11
9.9999999999999982
 21
0.0
 31
0.0
  0
ENDBLK
  5
28C
  8
0
  0
BLOCK
  8
0
  2
*U11
 70
     1
 10
0.0
 20
0.0
 30
0.0
  3
*U11
  1

  0
SOLID
  5
28E
  8
TRIM
  6
CONTINUOUS
 10
-415.0
 20
9.9999999999988525
 30
0.0
 11
-420.0
 21
5.0000000000000009
 31
0.0
 12
-415.0
 22
5.0000000000000009
 32
0.0
 13
-415.0
 23
5.0000000000000009
 33
0.0
210
0.0
220
0.0
230
-1.0
  0
SOLID
  5
28F
  8
TRIM
  6
CONTINUOUS
 10
-415.0
 20
9.9999999999988525
 30
0.0
 11
-420.0
 21
9.9999999999988525
 31
0.0
 12
-420.0
 22
5.0000000000000009
 32
0.0
 13
-420.0
 23
5.0000000000000009
 33
0.0
210
0.0
220
0.0
230
-1.0
  0
SOLID
  5
290
  8
TRIM
  6
CONTINUOUS
 10
-410.00000000000108
 20
5.0000000000000009
 30
0.0
 11
-420.0
 21
0.0
 31
0.0
 12
-410.00000000000108
 22
0.0
 32
0.0
 13
-410.00000000000108
 23
0.0
 33
0.0
210
0.0
220
0.0
230
-1.0
  0
SOLID
  5
291
  8
TRIM
  6
CONTINUOUS
 10
-410.00000000000108
 20
5.0000000000000009
 30
0.0
 11
-420.0
 21
5.0000000000000009
 31
0.0
 12
-420.0
 22
0.0
 32
0.0
 13
-420.0
 23
0.0
 33
0.0
210
0.0
220
0.0
230
-1.0
  0
LINE
  5
292
  8
TRIM
  6
CONTINUOUS
 10
415.0
 20
5.0000000000000009
 30
0.0
 11
415.0
 21
9.9999999999988525
 31
0.0
  0
LINE
  5
293
  8
TRIM
  6
CONTINUOUS
 10
420.0
 20
9.9999999999988525
 30
0.0
 11
420.0
 21
5.0000000000000009
 31
0.0
  0
LINE
  5
294
  8
TRIM
  6
CONTINUOUS
 10
410.00000000000108
 20
0.0
 30
0.0
 11
410.00000000000108
 21
5.0000000000000009
 31
0.0
  0
LINE
  5
295
  8
TRIM
  6
CONTINUOUS
 10
420.0
 20
5.0000000000000009
 30
0.0
 11
420.0
 21
0.0
 31
0.0
  0
ENDBLK
  5
297
  8
0
  0
BLOCK
  8
0
  2
*U12
 70
     1
 10
0.0
 20
0.0
 30
0.0
  3
*U12
  1

  0
SOLID
  5
299
  8
TRIM
  6
CONTINUOUS
 10
-409.9999999999997726
 20
297.0
 30
0.0
 11
-420.0
 21
292.0000000000002842
 31
0.0
 12
-409.9999999999997726
 22
292.0000000000002842
 32
0.0
 13
-409.9999999999997726
 23
292.0000000000002842
 33
0.0
210
0.0
220
0.0
230
-1.0
  0
SOLID
  5
29A
  8
TRIM
  6
CONTINUOUS
 10
-409.9999999999997726
 20
297.0
 30
0.0
 11
-420.0
 21
297.0
 31
0.0
 12
-420.0
 22
292.0000000000002842
 32
0.0
 13
-420.0
 23
292.0000000000002842
 33
0.0
210
0.0
220
0.0
230
-1.0
  0
SOLID
  5
29B
  8
TRIM
  6
CONTINUOUS
 10
-414.9999999999997726
 20
292.0000000000002842
 30
0.0
 11
-420.0
 21
287.0000000000003979
 31
0.0
 12
-414.9999999999997726
 22
287.0000000000003979
 32
0.0
 13
-414.9999999999997726
 23
287.0000000000003979
 33
0.0
210
0.0
220
0.0
230
-1.0
  0
SOLID
  5
29C
  8
TRIM
  6
CONTINUOUS
 10
-414.9999999999997726
 20
292.0000000000002842
 30
0.0
 11
-420.0
 21
292.0000000000002842
 31
0.0
 12
-420.0
 22
287.0000000000003979
 32
0.0
 13
-420.0
 23
287.0000000000003979
 33
0.0
210
0.0
220
0.0
230
-1.0
  0
LINE
  5
29D
  8
TRIM
  6
CONTINUOUS
 10
409.9999999999997726
 20
292.0000000000002842
 30
0.0
 11
409.9999999999997726
 21
297.0
 31
0.0
  0
LINE
  5
29E
  8
TRIM
  6
CONTINUOUS
 10
420.0
 20
297.0
 30
0.0
 11
420.0
 21
292.0000000000002842
 31
0.0
  0
LINE
  5
29F
  8
TRIM
  6
CONTINUOUS
 10
414.9999999999997726
 20
287.0000000000003979
 30
0.0
 11
414.9999999999997726
 21
292.0000000000002842
 31
0.0
  0
LINE
  5
2A0
  8
TRIM
  6
CONTINUOUS
 10
420.0
 20
292.0000000000002842
 30
0.0
 11
420.0
 21
287.0000000000003979
 31
0.0
  0
ENDBLK
  5
2A2
  8
0
  0
BLOCK
  8
0
  2
*U13
 70
     1
 10
0.0
 20
0.0
 30
0.0
  3
*U13
  1

  0
TEXT
  5
2A4
  8
BORDER
 10
292.1763334045999727
 20
26.3631536842000003
 30
0.0
 40
2.9104166667000002
  1
017_Base_MID_Holder_LR_SR
 41
0.75
  7
SLDTEXTSTYLE0
  0
ENDBLK
  5
2A6
  8
0
  0
BLOCK
  8
0
  2
*U14
 70
     1
 10
0.0
 20
0.0
 30
0.0
  3
*U14
  1

  0
TEXT
  5
2A8
  8
BORDER
 62
     7
 10
16.8157378893666589
 20
72.2420052164999902
 30
0.0
 40
3.5
  1
E
 41
0.605
  7
SLDTEXTSTYLE1
  0
ENDBLK
  5
2AA
  8
0
  0
BLOCK
  8
0
  2
*U15
 70
     1
 10
0.0
 20
0.0
 30
0.0
  3
*U15
  1

  0
TEXT
  5
2AC
  8
BORDER
 62
     7
 10
84.2941666843666724
 20
287.7420052164999902
 30
0.0
 40
3.5
  1
2
 41
0.605
  7
SLDTEXTSTYLE1
  0
ENDBLK
  5
2AE
  8
0
  0
BLOCK
  8
0
  2
*U16
 70
     1
 10
0.0
 20
0.0
 30
0.0
  3
*U16
  1

  0
TEXT
  5
2B0
  8
BORDER
 62
     7
 10
16.7932551914666597
 20
122.2420052165000044
 30
0.0
 40
3.5
  1
D
 41
0.605
  7
SLDTEXTSTYLE1
  0
ENDBLK
  5
2B2
  8
0
  0
BLOCK
  8
0
  2
*U17
 70
     1
 10
0.0
 20
0.0
 30
0.0
  3
*U17
  1

  0
TEXT
  5
2B4
  8
BORDER
 62
     7
 10
16.7807986356666596
 20
172.2420052164999902
 30
0.0
 40
3.5
  1
C
 41
0.605
  7
SLDTEXTSTYLE1
  0
ENDBLK
  5
2B6
  8
0
  0
BLOCK
  8
0
  2
*U18
 70
     1
 10
0.0
 20
0.0
 30
0.0
  3
*U18
  1

  0
TEXT
  5
2B8
  8
BORDER
 62
     7
 10
16.8139149418666705
 20
222.2420052164999902
 30
0.0
 40
3.5
  1
B
 41
0.605
  7
SLDTEXTSTYLE1
  0
ENDBLK
  5
2BA
  8
0
  0
BLOCK
  8
0
  2
*U19
 70
     1
 10
0.0
 20
0.0
 30
0.0
  3
*U19
  1

  0
TEXT
  5
2BC
  8
BORDER
 62
     7
 10
16.775329898366671
 20
272.2420052164999902
 30
0.0
 40
3.5
  1
A
 41
0.605
  7
SLDTEXTSTYLE1
  0
ENDBLK
  5
2BE
  8
0
  0
BLOCK
  8
0
  2
*U20
 70
     1
 10
0.0
 20
0.0
 30
0.0
  3
*U20
  1

  0
TEXT
  5
2C0
  8
BORDER
 62
     7
 10
16.786267333866661
 20
22.2420052165000008
 30
0.0
 40
3.5
  1
F
 41
0.605
  7
SLDTEXTSTYLE1
  0
ENDBLK
  5
2C2
  8
0
  0
BLOCK
  8
0
  2
*U21
 70
     1
 10
0.0
 20
0.0
 30
0.0
  3
*U21
  1

  0
TEXT
  5
2C4
  8
BORDER
 62
     7
 10
411.8139149418665852
 20
222.2420052164999902
 30
0.0
 40
3.5
  1
B
 41
0.605
  7
SLDTEXTSTYLE1
  0
ENDBLK
  5
2C6
  8
0
  0
BLOCK
  8
0
  2
*U22
 70
     1
 10
0.0
 20
0.0
 30
0.0
  3
*U22
  1

  0
TEXT
  5
2C8
  8
BORDER
 62
     7
 10
411.7932551914666988
 20
122.2420052165000044
 30
0.0
 40
3.5
  1
D
 41
0.605
  7
SLDTEXTSTYLE1
  0
ENDBLK
  5
2CA
  8
0
  0
BLOCK
  8
0
  2
*U23
 70
     1
 10
0.0
 20
0.0
 30
0.0
  3
*U23
  1

  0
TEXT
  5
2CC
  8
BORDER
 62
     7
 10
411.7753298983665786
 20
272.2420052164999902
 30
0.0
 40
3.5
  1
A
 41
0.605
  7
SLDTEXTSTYLE1
  0
ENDBLK
  5
2CE
  8
0
  0
BLOCK
  8
0
  2
*U24
 70
     1
 10
0.0
 20
0.0
 30
0.0
  3
*U24
  1

  0
TEXT
  5
2D0
  8
BORDER
 62
     7
 10
411.7807986356667129
 20
172.2420052164999902
 30
0.0
 40
3.5
  1
C
 41
0.605
  7
SLDTEXTSTYLE1
  0
ENDBLK
  5
2D2
  8
0
  0
BLOCK
  8
0
  2
*U25
 70
     1
 10
0.0
 20
0.0
 30
0.0
  3
*U25
  1

  0
TEXT
  5
2D4
  8
BORDER
 62
     7
 10
134.2962933594666026
 20
287.7420052164999902
 30
0.0
 40
3.5
  1
3
 41
0.605
  7
SLDTEXTSTYLE1
  0
ENDBLK
  5
2D6
  8
0
  0
BLOCK
  8
0
  2
*U26
 70
     1
 10
0.0
 20
0.0
 30
0.0
  3
*U26
  1

  0
TEXT
  5
2D8
  8
BORDER
 62
     7
 10
184.2880902702665935
 20
287.7420052164999902
 30
0.0
 40
3.5
  1
4
 41
0.605
  7
SLDTEXTSTYLE1
  0
ENDBLK
  5
2DA
  8
0
  0
BLOCK
  8
0
  2
*U27
 70
     1
 10
0.0
 20
0.0
 30
0.0
  3
*U27
  1

  0
TEXT
  5
2DC
  8
BORDER
 62
     7
 10
334.2978124629667036
 20
287.7420052164999902
 30
0.0
 40
3.5
  1
7
 41
0.605
  7
SLDTEXTSTYLE1
  0
ENDBLK
  5
2DE
  8
0
  0
BLOCK
  8
0
  2
*U28
 70
     1
 10
0.0
 20
0.0
 30
0.0
  3
*U28
  1

  0
TEXT
  5
2E0
  8
BORDER
 62
     7
 10
234.294470528366702
 20
287.7420052164999902
 30
0.0
 40
3.5
  1
5
 41
0.605
  7
SLDTEXTSTYLE1
  0
ENDBLK
  5
2E2
  8
0
  0
BLOCK
  8
0
  2
*U29
 70
     1
 10
0.0
 20
0.0
 30
0.0
  3
*U29
  1

  0
TEXT
  5
2E4
  8
BORDER
 62
     7
 10
284.2947742559666722
 20
287.7420052164999902
 30
0.0
 40
3.5
  1
6
 41
0.605
  7
SLDTEXTSTYLE1
  0
ENDBLK
  5
2E6
  8
0
  0
BLOCK
  8
0
  2
*U30
 70
     1
 10
0.0
 20
0.0
 30
0.0
  3
*U30
  1

  0
TEXT
  5
2E8
  8
BORDER
 62
     7
 10
384.2950780998667142
 20
287.7420052164999902
 30
0.0
 40
3.5
  1
8
 41
0.605
  7
SLDTEXTSTYLE1
  0
ENDBLK
  5
2EA
  8
0
  0
BLOCK
  8
0
  2
*U31
 70
     1
 10
0.0
 20
0.0
 30
0.0
  3
*U31
  1

  0
TEXT
  5
2EC
  8
BORDER
 62
     7
 10
34.7105816226333417
 20
287.7420052164999902
 30
0.0
 40
3.5
  1
1
 41
0.605
  7
SLDTEXTSTYLE1
  0
ENDBLK
  5
2EE
  8
0
  0
BLOCK
  8
0
  2
*U32
 70
     1
 10
0.0
 20
0.0
 30
0.0
  3
*U32
  1

  0
TEXT
  5
2F0
  8
BORDER
 62
     7
 10
284.2947742559666722
 20
5.7576469487999988
 30
0.0
 40
3.5
  1
6
 41
0.605
  7
SLDTEXTSTYLE1
  0
ENDBLK
  5
2F2
  8
0
  0
BLOCK
  8
0
  2
*U33
 70
     1
 10
0.0
 20
0.0
 30
0.0
  3
*U33
  1

  0
TEXT
  5
2F4
  8
BORDER
 62
     7
 10
84.2941666843666724
 20
5.7420052164999991
 30
0.0
 40
3.5
  1
2
 41
0.605
  7
SLDTEXTSTYLE1
  0
ENDBLK
  5
2F6
  8
0
  0
BLOCK
  8
0
  2
*U34
 70
     1
 10
0.0
 20
0.0
 30
0.0
  3
*U34
  1

  0
TEXT
  5
2F8
  8
BORDER
 62
     7
 10
34.7105816226333417
 20
5.7420052164999991
 30
0.0
 40
3.5
  1
1
 41
0.605
  7
SLDTEXTSTYLE1
  0
ENDBLK
  5
2FA
  8
0
  0
BLOCK
  8
0
  2
*U35
 70
     1
 10
0.0
 20
0.0
 30
0.0
  3
*U35
  1

  0
TEXT
  5
2FC
  8
BORDER
 62
     7
 10
234.294470528366702
 20
5.7689110949999991
 30
0.0
 40
3.5
  1
5
 41
0.605
  7
SLDTEXTSTYLE1
  0
ENDBLK
  5
2FE
  8
0
  0
BLOCK
  8
0
  2
*U36
 70
     1
 10
0.0
 20
0.0
 30
0.0
  3
*U36
  1

  0
TEXT
  5
300
  8
BORDER
 62
     7
 10
134.2962933594666026
 20
5.7751494099
 30
0.0
 40
3.5
  1
3
 41
0.605
  7
SLDTEXTSTYLE1
  0
ENDBLK
  5
302
  8
0
  0
BLOCK
  8
0
  2
*U37
 70
     1
 10
0.0
 20
0.0
 30
0.0
  3
*U37
  1

  0
TEXT
  5
304
  8
BORDER
 62
     7
 10
184.2880902702665935
 20
5.7474051372999986
 30
0.0
 40
3.5
  1
4
 41
0.605
  7
SLDTEXTSTYLE1
  0
ENDBLK
  5
306
  8
0
  0
BLOCK
  8
0
  2
*U38
 70
     1
 10
0.0
 20
0.0
 30
0.0
  3
*U38
  1

  0
TEXT
  5
308
  8
BORDER
 62
     7
 10
334.2978124629667036
 20
5.7464387396000003
 30
0.0
 40
3.5
  1
7
 41
0.605
  7
SLDTEXTSTYLE1
  0
ENDBLK
  5
30A
  8
0
  0
BLOCK
  8
0
  2
*U39
 70
     1
 10
0.0
 20
0.0
 30
0.0
  3
*U39
  1

  0
TEXT
  5
30C
  8
BORDER
 62
     7
 10
384.2950780998667142
 20
5.7464387396000003
 30
0.0
 40
3.5
  1
8
 41
0.605
  7
SLDTEXTSTYLE1
  0
ENDBLK
  5
30E
  8
0
  0
BLOCK
  8
0
  2
*U40
 70
     1
 10
0.0
 20
0.0
 30
0.0
  3
*U40
  1

  0
TEXT
  5
310
  8
BORDER
 62
     0
 10
0.0
 20
0.7226693493999999
 30
0.0
 40
2.5
  1
NOTES:
 41
0.605
  7
SLDTEXTSTYLE1
  0
ENDBLK
  5
312
  8
0
  0
BLOCK
  8
0
  2
*U41
 70
     1
 10
0.0
 20
0.0
 30
0.0
  3
*U41
  1

  0
TEXT
  5
315
  8
BORDER
 62
     0
 10
0.0
 20
-2.9436411208000002
 30
0.0
 40
2.5
  1
1. Làm s
 41
0.605
  7
SLDTEXTSTYLE2
  0
TEXT
  5
316
  8
BORDER
 62
     0
 10
9.3774999999999995
 20
-2.9436411208000002
 30
0.0
 40
2.5
  1
\U+1EA1
 41
0.605
  7
MtXpl_MS_PGothic
  0
TEXT
  5
318
  8
BORDER
 62
     0
 10
11.5775000000000006
 20
-2.9436411208000002
 30
0.0
 40
2.5
  1
ch ba via, làm tù c
 41
0.605
  7
SLDTEXTSTYLE2
  0
TEXT
  5
319
  8
BORDER
 62
     0
 10
34.7691666666666634
 20
-2.9436411208000002
 30
0.0
 40
2.5
  1
\U+1EA1
 41
0.605
  7
MtXpl_MS_PGothic
  0
TEXT
  5
31A
  8
BORDER
 62
     0
 10
36.9691666666666734
 20
-2.9436411208000002
 30
0.0
 40
2.5
  1
nh s
 41
0.605
  7
SLDTEXTSTYLE2
  0
TEXT
  5
31B
  8
BORDER
 62
     0
 10
42.4141666666666595
 20
-2.9436411208000002
 30
0.0
 40
2.5
  1
\U+1EAF
 41
0.605
  7
MtXpl_MS_PGothic
  0
TEXT
  5
31C
  8
BORDER
 62
     0
 10
44.6141666666666694
 20
-2.9436411208000002
 30
0.0
 40
2.5
  1
c sau khi gia công.
 41
0.605
  7
SLDTEXTSTYLE2
  0
ENDBLK
  5
31E
  8
0
  0
BLOCK
  8
0
  2
*U42
 70
     1
 10
0.0
 20
0.0
 30
0.0
  3
*U42
  1

  0
TEXT
  5
320
  8
BORDER
 62
     0
 10
0.0
 20
-6.4436412287999998
 30
0.0
 40
2.5
  1
2. Kích th
 41
0.605
  7
SLDTEXTSTYLE2
  0
TEXT
  5
321
  8
BORDER
 62
     0
 10
12.4024999999999999
 20
-6.4436412287999998
 30
0.0
 40
2.5
  1
\U+01B0
 41
0.605
  7
SLDTEXTSTYLE2
  0
TEXT
  5
322
  8
BORDER
 62
     0
 10
13.8169866984993099
 20
-6.4436412287999998
 30
0.0
 40
2.5
  1
\U+1EDB
 41
0.605
  7
MtXpl_MS_PGothic
  0
TEXT
  5
323
  8
BORDER
 62
     0
 10
16.0169866984993092
 20
-6.4436412287999998
 30
0.0
 40
2.5
  1
c ch
 41
0.605
  7
SLDTEXTSTYLE2
  0
TEXT
  5
324
  8
BORDER
 62
     0
 10
21.4619866984993202
 20
-6.4436412287999998
 30
0.0
 40
2.5
  1
\U+01B0
 41
0.605
  7
SLDTEXTSTYLE2
  0
TEXT
  5
325
  8
BORDER
 62
     0
 10
22.8764733969986409
 20
-6.4436412287999998
 30
0.0
 40
2.5
  1
a rõ tuân theo b
 41
0.605
  7
SLDTEXTSTYLE2
  0
TEXT
  5
326
  8
BORDER
 62
     0
 10
44.6564733969986278
 20
-6.4436412287999998
 30
0.0
 40
2.5
  1
\U+1EA3
 41
0.605
  7
MtXpl_MS_PGothic
  0
TEXT
  5
327
  8
BORDER
 62
     0
 10
46.8564733969986378
 20
-6.4436412287999998
 30
0.0
 40
2.5
  1
n 3D
 41
0.605
  7
SLDTEXTSTYLE2
  0
ENDBLK
  5
329
  8
0
  0
BLOCK
  8
0
  2
*U43
 70
     1
 10
0.0
 20
0.0
 30
0.0
  3
*U43
  1

  0
TEXT
  5
32B
  8
BORDER
 62
     0
 10
0.0
 20
-9.7873913367999972
 30
0.0
 40
2.5
  1
3. Dung sai ch
 41
0.605
  7
SLDTEXTSTYLE2
  0
TEXT
  5
32C
  8
BORDER
 62
     0
 10
17.3433333333333302
 20
-9.7873913367999972
 30
0.0
 40
2.5
  1
\U+01B0
 41
0.605
  7
SLDTEXTSTYLE2
  0
TEXT
  5
32D
  8
BORDER
 62
     0
 10
18.7578200318326509
 20
-9.7873913367999972
 30
0.0
 40
2.5
  1
a rõ tuân theo ISO 2768-m
 41
0.605
  7
SLDTEXTSTYLE2
  0
ENDBLK
  5
32F
  8
0
  0
BLOCK
  8
0
  2
*U44
 70
     1
 10
0.0
 20
0.0
 30
0.0
  3
*U44
  1

  0
TEXT
  5
331
  8
BORDER
 10
291.5105479778000017
 20
44.4533268305000036
 30
0.0
 40
1.8
  1
Project:
 41
0.605
  7
SLDTEXTSTYLE1
  0
ENDBLK
  5
333
  8
0
  0
BLOCK
  8
0
  2
*U45
 70
     1
 10
0.0
 20
0.0
 30
0.0
  3
*U45
  1

  0
TEXT
  5
335
  8
BORDER
 10
291.7382663043999855
 20
40.1533837364000021
 30
0.0
 40
2.5
  1
SERVICE ROBOT
 41
0.75
  7
SLDTEXTSTYLE0
  0
ENDBLK
  5
337
  8
0
  0
BLOCK
  8
0
  2
*U46
 70
     1
 10
0.0
 20
0.0
 30
0.0
  3
*U46
  1

  0
TEXT
  5
339
  8
BORDER
 10
291.4087341202999824
 20
30.5103880178999987
 30
0.0
 40
1.8
  1
Description:
 41
0.605
  7
SLDTEXTSTYLE1
  0
ENDBLK
  5
33B
  8
0
  0
BLOCK
  8
0
  2
*U47
 70
     1
 10
0.0
 20
0.0
 30
0.0
  3
*U47
  1

  0
TEXT
  5
33D
  8
BORDER
 10
348.1510503430999961
 20
28.4471649757999998
 30
0.0
 40
1.8520833333
  1
Unit:
 41
0.605
  7
SLDTEXTSTYLE1
  0
ENDBLK
  5
33F
  8
0
  0
BLOCK
  8
0
  2
*U48
 70
     1
 10
0.0
 20
0.0
 30
0.0
  3
*U48
  1

  0
TEXT
  5
341
  8
BORDER
 10
356.0718789994999725
 20
28.4300470766999993
 30
0.0
 40
2.5
  1
mm
 41
0.605
  7
SLDTEXTSTYLE1
  0
ENDBLK
  5
343
  8
0
  0
BLOCK
  8
0
  2
*U49
 70
     1
 10
0.0
 20
0.0
 30
0.0
  3
*U49
  1

  0
TEXT
  5
345
  8
BORDER
 10
350.2095266337000226
 20
16.1234557942999999
 30
0.0
 40
2.5
  1
SS400 t4
 41
0.605
  7
SLDTEXTSTYLE1
  0
ENDBLK
  5
347
  8
0
  0
BLOCK
  8
0
  2
*U50
 70
     1
 10
0.0
 20
0.0
 30
0.0
  3
*U50
  1

  0
TEXT
  5
349
  8
BORDER
 10
372.231466638899974
 20
15.4591415458999997
 30
0.0
 40
2.5
  1
02
 41
0.605
  7
SLDTEXTSTYLE1
  0
ENDBLK
  5
34B
  8
0
  0
BLOCK
  8
0
  2
*U51
 70
     1
 10
0.0
 20
0.0
 30
0.0
  3
*U51
  1

  0
TEXT
  5
34D
  8
BORDER
 10
366.988711436199992
 20
21.9705901391000005
 30
0.0
 40
1.8
  1
Qty:
 41
0.605
  7
SLDTEXTSTYLE1
  0
ENDBLK
  5
34F
  8
0
  0
BLOCK
  8
0
  2
*U52
 70
     1
 10
0.0
 20
0.0
 30
0.0
  3
*U52
  1

  0
TEXT
  5
351
  8
BORDER
 10
387.2805248719998872
 20
28.4300470766999993
 30
0.0
 40
2.5
  1
1:1
 41
0.605
  7
SLDTEXTSTYLE1
  0
ENDBLK
  5
353
  8
0
  0
BLOCK
  8
0
  2
*U53
 70
     1
 10
0.0
 20
0.0
 30
0.0
  3
*U53
  1

  0
TEXT
  5
355
  8
BORDER
 10
401.3158979479999857
 20
15.7290153250000007
 30
0.0
 40
2.6458333333000001
  1
0A
 41
0.605
  7
SLDTEXTSTYLE1
  0
ENDBLK
  5
357
  8
0
  0
BLOCK
  8
0
  2
*U54
 70
     1
 10
0.0
 20
0.0
 30
0.0
  3
*U54
  1

  0
TEXT
  5
359
  8
BORDER
 10
379.1535670217999723
 20
34.6738571670000013
 30
0.0
 40
2.5
  1
2021
 41
0.605
  7
SLDTEXTSTYLE1
  0
ENDBLK
  5
35B
  8
0
  0
BLOCK
  8
0
  2
*U55
 70
     1
 10
0.0
 20
0.0
 30
0.0
  3
*U55
  1

  0
TEXT
  5
35D
  8
BORDER
 10
348.1348922133000201
 20
34.6738571670000013
 30
0.0
 40
2.5
  1
Nguyen Van Tung
 41
0.605
  7
SLDTEXTSTYLE1
  0
ENDBLK
  5
35F
  8
0
  0
BLOCK
  8
0
  2
*U56
 70
     1
 10
0.0
 20
0.0
 30
0.0
  3
*U56
  1

  0
TEXT
  5
361
  8
BORDER
 10
379.1535670217999723
 20
43.9868425293999934
 30
0.0
 40
2.5
  1
2021
 41
0.605
  7
SLDTEXTSTYLE1
  0
ENDBLK
  5
363
  8
0
  0
BLOCK
  8
0
  2
*U57
 70
     1
 10
0.0
 20
0.0
 30
0.0
  3
*U57
  1

  0
TEXT
  5
365
  8
BORDER
 10
347.7590472172000204
 20
43.9868425293999934
 30
0.0
 40
2.5
  1
Le Xuan Tung
 41
0.605
  7
SLDTEXTSTYLE1
  0
ENDBLK
  5
367
  8
0
  0
BLOCK
  8
0
  2
*U58
 70
     1
 10
0.0
 20
0.0
 30
0.0
  3
*U58
  1

  0
TEXT
  5
369
  8
BORDER
 10
368.6768935792999855
 20
28.4471649757999998
 30
0.0
 40
1.8520833333
  1
Drawing Scale:
 41
0.605
  7
SLDTEXTSTYLE1
  0
ENDBLK
  5
36B
  8
0
  0
BLOCK
  8
0
  2
*U59
 70
     1
 10
0.0
 20
0.0
 30
0.0
  3
*U59
  1

  0
TEXT
  5
36D
  8
BORDER
 10
379.1535670217999723
 20
39.7143087883000021
 30
0.0
 40
1.8520833333
  1
Checked/Approved Date:
 41
0.605
  7
SLDTEXTSTYLE1
  0
ENDBLK
  5
36F
  8
0
  0
BLOCK
  8
0
  2
*U60
 70
     1
 10
0.0
 20
0.0
 30
0.0
  3
*U60
  1

  0
TEXT
  5
371
  8
BORDER
 10
379.1535670217999723
 20
48.3587436965999871
 30
0.0
 40
1.8520833333
  1
Drawn Date:
 41
0.605
  7
SLDTEXTSTYLE1
  0
ENDBLK
  5
373
  8
0
  0
BLOCK
  8
0
  2
*U61
 70
     1
 10
0.0
 20
0.0
 30
0.0
  3
*U61
  1

  0
TEXT
  5
375
  8
BORDER
 10
347.7590472172000204
 20
48.3484450480000021
 30
0.0
 40
1.8
  1
Drawn by:
 41
0.605
  7
SLDTEXTSTYLE1
  0
ENDBLK
  5
377
  8
0
  0
BLOCK
  8
0
  2
*U62
 70
     1
 10
0.0
 20
0.0
 30
0.0
  3
*U62
  1

  0
TEXT
  5
379
  8
BORDER
 10
331.379436658100019
 20
13.1557033249999993
 30
0.0
 40
5.0
  1
A0
 41
0.75
  7
SLDTEXTSTYLE0
  0
ENDBLK
  5
37B
  8
0
  0
BLOCK
  8
0
  2
*U63
 70
     1
 10
0.0
 20
0.0
 30
0.0
  3
*U63
  1

  0
TEXT
  5
37D
  8
BORDER
 10
322.6869049393000068
 20
22.1130744105000012
 30
0.0
 40
1.8
  1
Sheet Size:
 41
0.605
  7
SLDTEXTSTYLE1
  0
ENDBLK
  5
37F
  8
0
  0
BLOCK
  8
0
  2
*U64
 70
     1
 10
0.0
 20
0.0
 30
0.0
  3
*U64
  1

  0
TEXT
  5
381
  8
BORDER
 62
     0
 10
0.0
 20
0.5203219316000001
 30
0.0
 40
1.8
  1
Projection Method:
 41
0.605
  7
SLDTEXTSTYLE1
  0
ENDBLK
  5
383
  8
0
  0
BLOCK
  8
0
  2
*U65
 70
     1
 10
0.0
 20
0.0
 30
0.0
  3
*U65
  1

  0
TEXT
  5
385
  8
BORDER
 62
     0
 10
5.4000000000000004
 20
-2.2796779686000002
 30
0.0
 40
1.8
  1
THIRD ANGLE
 41
0.605
  7
SLDTEXTSTYLE1
  0
ENDBLK
  5
387
  8
0
  0
BLOCK
  8
0
  2
*U66
 70
     1
 10
0.0
 20
0.0
 30
0.0
  3
*U66
  1

  0
TEXT
  5
389
  8
BORDER
 10
347.9469697152999856
 20
39.70401013970001
 30
0.0
 40
1.8
  1
Checked/Approved by:
 41
0.605
  7
SLDTEXTSTYLE1
  0
ENDBLK
  5
38B
  8
0
  0
BLOCK
  8
0
  2
*U67
 70
     1
 10
0.0
 20
0.0
 30
0.0
  3
*U67
  1

  0
TEXT
  5
38D
  8
BORDER
 10
385.0419956412999909
 20
15.4591415458999997
 30
0.0
 40
2.5
  1
1 of 1
 41
0.57
  7
SLDTEXTSTYLE3
  0
ENDBLK
  5
38F
  8
0
  0
BLOCK
  8
0
  2
*U68
 70
     1
 10
0.0
 20
0.0
 30
0.0
  3
*U68
  1

  0
TEXT
  5
391
  8
BORDER
 10
348.1173613368999895
 20
21.9705901391000005
 30
0.0
 40
1.8
  1
Material:
 41
0.605
  7
SLDTEXTSTYLE1
  0
ENDBLK
  5
393
  8
0
  0
BLOCK
  8
0
  2
*U69
 70
     1
 10
0.0
 20
0.0
 30
0.0
  3
*U69
  1

  0
TEXT
  5
395
  8
BORDER
 10
398.8602093887998876
 20
21.9705901391000005
 30
0.0
 40
1.8
  1
Revision:
 41
0.605
  7
SLDTEXTSTYLE1
  0
ENDBLK
  5
397
  8
0
  0
BLOCK
  8
0
  2
*U70
 70
     1
 10
0.0
 20
0.0
 30
0.0
  3
*U70
  1

  0
TEXT
  5
399
  8
BORDER
 10
384.4516457766001167
 20
21.9705901391000005
 30
0.0
 40
1.8
  1
Sheet:
 41
0.605
  7
SLDTEXTSTYLE1
  0
ENDBLK
  5
39B
  8
0
  0
BLOCK
  8
0
  2
*U71
 70
     1
 10
0.0
 20
0.0
 30
0.0
  3
*U71
  1

  0
TEXT
  5
39D
  8
BORDER
 10
65.608655645799999
 20
187.9237389090999955
 30
0.0
 40
3.1749999999999989
  1
36.00
 41
0.75
  7
SLDTEXTSTYLE0
  0
ENDBLK
  5
39F
  8
0
  0
BLOCK
  8
0
  2
*U72
 70
     1
 10
0.0
 20
0.0
 30
0.0
  3
*U72
  1

  0
TEXT
  5
3A1
  8
BORDER
 10
212.567412233400006
 20
224.6588224973000081
 30
0.0
 40
3.1749999999999989
  1
255.00
 41
0.75
  7
SLDTEXTSTYLE0
  0
ENDBLK
  5
3A3
  8
0
  0
BLOCK
  8
0
  2
*U73
 70
     1
 10
0.0
 20
0.0
 30
0.0
  3
*U73
  1

  0
TEXT
  5
3A5
  8
BORDER
 10
103.5167251155999963
 20
216.5562416921999898
 30
0.0
 40
3.1749999999999989
  1
5.00
 41
0.75
  7
SLDTEXTSTYLE0
  0
ENDBLK
  5
3A7
  8
0
  0
BLOCK
  8
0
  2
*U74
 70
     1
 10
0.0
 20
0.0
 30
0.0
  3
*U74
  1

  0
TEXT
  5
3E2
  8
AM_5
 62
     2
 10
209.0149780042517875
 20
149.6537774676907873
 30
0.0
 40
5.9500000000000002
  1
t4
  0
ENDBLK
  5
3E4
  8
0
  0
ENDSEC
  0
SECTION
  2
ENTITIES
  0
INSERT
  5
78
  8
TRIM
  6
CONTINUOUS
  2
*U9
 10
0.0
 20
0.0
 30
0.0
1001
ACAD
1002
{
1000
R14_HATCH_DATA
1000
78
1011
1.0
1021
0.0
1031
0.0
1021
0.0
1031
0.0
1011
0.0
1021
0.0
1031
0.0
1021
1.0
1031
0.0
1011
0.0
1021
0.0
1031
0.0
1021
0.0
1031
1.0
1040
0.0
1010
0.0
1020
0.0
1030
1.0
1000
SOLID
1070
     1
1070
     0
1071
        1
1071
        0
1071
        6
1070
     1
1040
10.0
1040
291.9999999999998863
1040
9.9999999999999467
1040
296.9999999999998863
1070
     1
1040
9.9999999999999467
1040
296.9999999999998863
1040
-0.0000000000000551
1040
296.9999999999998863
1070
     1
1040
-0.0000000000000555
1040
296.9999999999998863
1040
0.0000000000000015
1040
286.9999999999998863
1070
     1
1040
0.0000000000000015
1040
286.9999999999998863
1040
5.0000000000000009
1040
286.9999999999998863
1070
     1
1040
5.0000000000000009
1040
286.9999999999998863
1040
5.0000000000000009
1040
291.9999999999998863
1070
     1
1040
5.0000000000000009
1040
291.9999999999998863
1040
10.0
1040
291.9999999999998863
1071
        0
1070
     0
1070
     1
1071
        1
1040
0.0
1040
0.0
1040
0.0
1002
}
  0
INSERT
  5
79
  8
TRIM
  6
CONTINUOUS
  2
*U10
 10
0.0
 20
0.0
 30
0.0
1001
ACAD
1002
{
1000
R14_HATCH_DATA
1000
79
1011
1.0
1021
0.0
1031
0.0
1021
0.0
1031
0.0
1011
0.0
1021
0.0
1031
0.0
1021
1.0
1031
0.0
1011
0.0
1021
0.0
1031
0.0
1021
0.0
1031
1.0
1040
0.0
1010
0.0
1020
0.0
1030
1.0
1000
SOLID
1070
     1
1070
     0
1071
        1
1071
        0
1071
        6
1070
     1
1040
4.9999999999999947
1040
9.9999999999999982
1040
-0.0000000000000027
1040
9.9999999999999982
1070
     1
1040
-0.0000000000000029
1040
9.9999999999999982
1040
0.0
1040
0.0
1070
     1
1040
0.0
1040
0.0
1040
9.9999999999999982
1040
0.0
1070
     1
1040
9.9999999999999982
1040
0.0
1040
9.9999999999999982
1040
4.9999999999999991
1070
     1
1040
9.9999999999999982
1040
4.9999999999999991
1040
4.9999999999999991
1040
4.9999999999999982
1070
     1
1040
4.9999999999999991
1040
4.9999999999999982
1040
4.9999999999999947
1040
9.9999999999999982
1071
        0
1070
     0
1070
     1
1071
        1
1040
0.0
1040
0.0
1040
0.0
1002
}
  0
INSERT
  5
7A
  8
TRIM
  6
CONTINUOUS
  2
*U11
 10
0.0
 20
0.0
 30
0.0
1001
ACAD
1002
{
1000
R14_HATCH_DATA
1000
7A
1011
1.0
1021
0.0
1031
0.0
1021
0.0
1031
0.0
1011
0.0
1021
0.0
1031
0.0
1021
1.0
1031
0.0
1011
0.0
1021
0.0
1031
0.0
1021
0.0
1031
1.0
1040
0.0
1010
0.0
1020
0.0
1030
1.0
1000
SOLID
1070
     1
1070
     0
1071
        1
1071
        0
1071
        6
1070
     1
1040
420.0
1040
9.9999999999988525
1040
415.0
1040
9.9999999999988525
1070
     1
1040
415.0
1040
9.9999999999988525
1040
415.0
1040
5.0000000000000009
1070
     1
1040
415.0
1040
5.0000000000000009
1040
410.00000000000108
1040
5.0000000000000009
1070
     1
1040
410.00000000000108
1040
5.0000000000000009
1040
410.00000000000108
1040
0.0
1070
     1
1040
410.00000000000108
1040
0.0
1040
420.0
1040
0.0
1070
     1
1040
420.0
1040
0.0
1040
420.0
1040
9.9999999999988525
1071
        0
1070
     0
1070
     1
1071
        1
1040
0.0
1040
0.0
1040
0.0
1002
}
  0
INSERT
  5
7B
  8
TRIM
  6
CONTINUOUS
  2
*U12
 10
0.0
 20
0.0
 30
0.0
1001
ACAD
1002
{
1000
R14_HATCH_DATA
1000
7B
1011
1.0
1021
0.0
1031
0.0
1021
0.0
1031
0.0
1011
0.0
1021
0.0
1031
0.0
1021
1.0
1031
0.0
1011
0.0
1021
0.0
1031
0.0
1021
0.0
1031
1.0
1040
0.0
1010
0.0
1020
0.0
1030
1.0
1000
SOLID
1070
     1
1070
     0
1071
        1
1071
        0
1071
        6
1070
     1
1040
414.9999999999997726
1040
292.0000000000002842
1040
414.9999999999997726
1040
287.0000000000003979
1070
     1
1040
414.9999999999997726
1040
287.0000000000003979
1040
420.0
1040
287.0000000000003979
1070
     1
1040
420.0
1040
287.0000000000003979
1040
420.0
1040
297.0
1070
     1
1040
420.0
1040
297.0
1040
409.9999999999997726
1040
297.0
1070
     1
1040
409.9999999999997726
1040
297.0
1040
409.9999999999997726
1040
292.0000000000002842
1070
     1
1040
409.9999999999997726
1040
292.0000000000002842
1040
414.9999999999997726
1040
292.0000000000002842
1071
        0
1070
     0
1070
     1
1071
        1
1040
0.0
1040
0.0
1040
0.0
1002
}
  0
LINE
  5
7C
  8
BORDER
  6
CONTINUOUS
 10
415.0
 20
292.0
 30
0.0
 11
15.0
 21
292.0
 31
0.0
  0
LINE
  5
7D
  8
BORDER
  6
CONTINUOUS
 10
15.0
 20
5.0
 30
0.0
 11
415.0
 21
5.0
 31
0.0
  0
LINE
  5
7E
  8
BORDER
  6
CONTINUOUS
 10
410.0
 20
287.0
 30
0.0
 11
20.0
 21
287.0
 31
0.0
  0
LINE
  5
7F
  8
BORDER
  6
CONTINUOUS
 10
20.0
 20
10.0000000002
 30
0.0
 11
410.0
 21
10.0000000002
 31
0.0
  0
LINE
  5
80
  8
BORDER
  6
CONTINUOUS
 10
415.0
 20
5.0
 30
0.0
 11
415.0
 21
292.0
 31
0.0
  0
LINE
  5
81
  8
BORDER
  6
CONTINUOUS
 10
410.0
 20
10.0000000002
 30
0.0
 11
410.0
 21
287.0
 31
0.0
  0
LINE
  5
82
  8
BORDER
  6
CONTINUOUS
 10
410.0
 20
98.5000000000000142
 30
0.0
 11
415.0
 21
98.5000000000000142
 31
0.0
  0
LINE
  5
83
  8
BORDER
 10
347.0583276541998998
 20
33.7139900561999966
 30
0.0
 11
290.040650127899994
 21
33.7139900561999966
 31
0.0
  0
LINE
  5
84
  8
BORDER
  6
CONTINUOUS
 10
110.0
 20
292.0
 30
0.0
 11
110.0
 21
287.0
 31
0.0
  0
LINE
  5
85
  8
BORDER
  6
CONTINUOUS
 10
160.0
 20
287.0
 30
0.0
 11
160.0
 21
292.0
 31
0.0
  0
LINE
  5
86
  8
BORDER
  6
CONTINUOUS
 10
260.0
 20
287.0
 30
0.0
 11
260.0
 21
292.0
 31
0.0
  0
LINE
  5
87
  8
BORDER
  6
CONTINUOUS
 10
310.0
 20
292.0
 30
0.0
 11
310.0
 21
287.0
 31
0.0
  0
LINE
  5
88
  8
BORDER
  6
CONTINUOUS
 10
360.0
 20
287.0
 30
0.0
 11
360.0
 21
292.0
 31
0.0
  0
LINE
  5
89
  8
TRIM
 10
0.0
 20
0.0
 30
0.0
 11
10.0
 21
0.0
 31
0.0
  0
LINE
  5
8A
  8
TRIM
 10
10.0
 20
0.0
 30
0.0
 11
10.0
 21
5.0
 31
0.0
  0
LINE
  5
8B
  8
TRIM
 10
10.0
 20
5.0
 30
0.0
 11
5.0
 21
5.0
 31
0.0
  0
LINE
  5
8C
  8
BORDER
  6
CONTINUOUS
 10
415.0
 20
248.5
 30
0.0
 11
410.0
 21
248.5
 31
0.0
  0
LINE
  5
8D
  8
BORDER
  6
CONTINUOUS
 10
410.0
 20
198.5
 30
0.0
 11
415.0
 21
198.5
 31
0.0
  0
LINE
  5
8E
  8
TRIM
 10
5.0
 20
5.0
 30
0.0
 11
5.0
 21
10.0
 31
0.0
  0
LINE
  5
8F
  8
BORDER
  6
CONTINUOUS
 10
15.0
 20
48.5
 30
0.0
 11
20.0
 21
48.5
 31
0.0
  0
LINE
  5
90
  8
BORDER
  6
CONTINUOUS
 10
20.0
 20
98.5000000000000142
 30
0.0
 11
15.0
 21
98.5000000000000142
 31
0.0
  0
LINE
  5
91
  8
BORDER
  6
CONTINUOUS
 10
15.0
 20
292.0
 30
0.0
 11
15.0
 21
5.0
 31
0.0
  0
LINE
  5
92
  8
BORDER
  6
CONTINUOUS
 10
20.0
 20
287.0
 30
0.0
 11
20.0
 21
10.0000000002
 31
0.0
  0
LINE
  5
93
  8
BORDER
  6
CONTINUOUS
 10
19.9999997379000014
 20
198.5
 30
0.0
 11
15.0000002621000004
 21
198.5
 31
0.0
  0
LINE
  5
94
  8
BORDER
  6
CONTINUOUS
 10
15.0
 20
248.5
 30
0.0
 11
20.0
 21
248.5
 31
0.0
  0
LINE
  5
95
  8
BORDER
 10
378.5742814665999845
 20
52.1438084431999869
 30
0.0
 11
378.5742814665999845
 21
33.7139900561999966
 31
0.0
  0
LINE
  5
96
  8
BORDER
  6
CONTINUOUS
 10
365.985679056399988
 20
10.1438084431999993
 30
0.0
 11
365.985679056399988
 21
33.7139900561999966
 31
0.0
  0
LINE
  5
97
  8
BORDER
 10
410.0042978380000136
 20
42.7139900561999966
 30
0.0
 11
347.0583276541998998
 21
42.7139900561999966
 31
0.0
  0
LINE
  5
98
  8
BORDER
  6
CONTINUOUS
 10
60.0
 20
287.0
 30
0.0
 11
60.0
 21
292.0
 31
0.0
  0
LINE
  5
99
  8
BORDER
  6
CONTINUOUS
 10
210.0
 20
292.0
 30
0.0
 11
210.0
 21
282.0
 31
0.0
  0
LINE
  5
9A
  8
BORDER
 10
210.0
 20
5.0
 30
0.0
 11
210.0
 21
10.0000000002
 31
0.0
  0
LINE
  5
9B
  8
BORDER
  6
CONTINUOUS
 10
15.0
 20
148.5
 30
0.0
 11
25.0
 21
148.5
 31
0.0
  0
LINE
  5
9C
  8
BORDER
  6
CONTINUOUS
 10
415.0
 20
148.5
 30
0.0
 11
405.0
 21
148.5
 31
0.0
  0
LINE
  5
9D
  8
CONSTRUCTION
 10
0.0
 20
0.0
 30
0.0
 11
420.0
 21
0.0
 31
0.0
  0
LINE
  5
9E
  8
CONSTRUCTION
 10
420.0
 20
0.0
 30
0.0
 11
420.0
 21
297.0
 31
0.0
  0
LINE
  5
9F
  8
BORDER
  6
CONTINUOUS
 10
60.0
 20
5.0
 30
0.0
 11
60.0
 21
10.0000000002
 31
0.0
  0
LINE
  5
A0
  8
BORDER
  6
CONTINUOUS
 10
110.0
 20
10.0000000002
 30
0.0
 11
110.0
 21
5.0
 31
0.0
  0
LINE
  5
A1
  8
BORDER
  6
CONTINUOUS
 10
160.0
 20
5.0
 30
0.0
 11
160.0
 21
10.0000000002
 31
0.0
  0
LINE
  5
A2
  8
BORDER
  6
CONTINUOUS
 10
260.0
 20
5.0
 30
0.0
 11
260.0
 21
10.0000000002
 31
0.0
  0
LINE
  5
A3
  8
BORDER
 10
347.0583276541998998
 20
24.7139900562000001
 30
0.0
 11
320.040650127899994
 21
24.7139900562000001
 31
0.0
  0
LINE
  5
A4
  8
BORDER
  6
CONTINUOUS
 10
398.2042978380000022
 20
10.1438084431999993
 30
0.0
 11
398.2042978380000022
 21
24.7139900562000001
 31
0.0
  0
LINE
  5
A5
  8
BORDER
  6
CONTINUOUS
 10
410.0042978380000136
 20
24.7139900562000001
 30
0.0
 11
347.0583276541998998
 21
24.7139900562000001
 31
0.0
  0
LINE
  5
A6
  8
CONSTRUCTION
 10
398.1999999999999886
 20
24.0000000002
 30
0.0
 11
410.0
 21
9.5000000002
 31
0.0
  0
LINE
  5
A7
  8
BORDER
  6
CONTINUOUS
 10
383.2042978380000022
 20
10.1438084431999993
 30
0.0
 11
383.2042978380000022
 21
24.7139900562000001
 31
0.0
  0
LINE
  5
A8
  8
BORDER
 10
298.7189559447999727
 20
15.0092678530000008
 30
0.0
 11
310.7326990151000246
 21
15.0092678530000008
 31
0.0
  0
LINE
  5
A9
  8
BORDER
 10
290.040650127899994
 20
52.1438084431999869
 30
0.0
 11
410.040650127899994
 21
52.1438084431999869
 31
0.0
  0
LINE
  5
AA
  8
BORDER
  6
CONTINUOUS
 10
290.040650127899994
 20
52.1438084431999869
 30
0.0
 11
290.040650127899994
 21
10.1438084431999993
 31
0.0
  0
LINE
  5
AB
  8
BORDER
 10
347.0583276541998998
 20
52.1438084431999869
 30
0.0
 11
347.0583276541998998
 21
10.1438084431999993
 31
0.0
  0
LINE
  5
AC
  8
BORDER
  6
CONTINUOUS
 10
305.1601970150999819
 20
16.2592678530000008
 30
0.0
 11
305.1601970150999819
 21
13.7592678530000008
 31
0.0
  0
LINE
  5
AD
  8
BORDER
  6
CONTINUOUS
 10
305.1601970150999819
 20
13.7592678530000008
 30
0.0
 11
310.1601970150999819
 21
12.5092678530000008
 31
0.0
  0
LINE
  5
AE
  8
BORDER
  6
CONTINUOUS
 10
310.1601970150999819
 20
12.5092678530000008
 30
0.0
 11
310.1601970150999819
 21
17.5092678530000008
 31
0.0
  0
LINE
  5
AF
  8
BORDER
  6
CONTINUOUS
 10
310.1601970150999819
 20
17.5092678530000008
 30
0.0
 11
305.1601970150999819
 21
16.2592678530000008
 31
0.0
  0
LINE
  5
B0
  8
BORDER
 10
410.0902352790999998
 20
33.7139900561999966
 30
0.0
 11
347.0583276541998998
 21
33.7139900561999966
 31
0.0
  0
LINE
  5
B1
  8
CONSTRUCTION
 10
210.0
 20
297.0
 30
0.0
 11
210.0
 21
292.0
 31
0.0
  0
LINE
  5
B2
  8
BORDER
 10
320.040650127899994
 20
24.7139900562000001
 30
0.0
 11
290.0042978380000136
 21
24.7139900562000001
 31
0.0
  0
LINE
  5
B3
  8
BORDER
 10
302.2601970151000046
 20
18.1864561030000011
 30
0.0
 11
302.2601970151000046
 21
11.7327924701999997
 31
0.0
  0
LINE
  5
B4
  8
BORDER
 10
320.040650127899994
 20
24.7139900562000001
 30
0.0
 11
320.040650127899994
 21
10.1438084431999993
 31
0.0
  0
LINE
  5
B5
  8
TRIM
 10
5.0
 20
10.0
 30
0.0
 11
0.0
 21
10.0
 31
0.0
  0
LINE
  5
B6
  8
TRIM
 10
0.0
 20
10.0
 30
0.0
 11
0.0
 21
0.0
 31
0.0
  0
LINE
  5
B7
  8
TRIM
 10
0.0
 20
297.0
 30
0.0
 11
0.0
 21
287.0
 31
0.0
  0
LINE
  5
B8
  8
TRIM
 10
0.0
 20
287.0
 30
0.0
 11
5.0
 21
287.0
 31
0.0
  0
LINE
  5
B9
  8
TRIM
 10
5.0
 20
287.0
 30
0.0
 11
5.0
 21
292.0
 31
0.0
  0
LINE
  5
BA
  8
TRIM
 10
5.0
 20
292.0
 30
0.0
 11
10.0
 21
292.0
 31
0.0
  0
LINE
  5
BB
  8
CONSTRUCTION
 10
17.5
 20
248.5
 30
0.0
 11
17.5
 21
273.5
 31
0.0
  0
LINE
  5
BC
  8
TRIM
 10
10.0
 20
292.0
 30
0.0
 11
10.0
 21
297.0
 31
0.0
  0
LINE
  5
BD
  8
TRIM
 10
10.0
 20
297.0
 30
0.0
 11
0.0
 21
297.0
 31
0.0
  0
LINE
  5
BE
  8
TRIM
 10
420.0
 20
297.0
 30
0.0
 11
410.0
 21
297.0
 31
0.0
  0
LINE
  5
BF
  8
TRIM
 10
410.0
 20
297.0
 30
0.0
 11
410.0
 21
292.0
 31
0.0
  0
LINE
  5
C0
  8
CONSTRUCTION
 10
210.0
 20
5.0
 30
0.0
 11
210.0
 21
0.0
 31
0.0
  0
LINE
  5
C1
  8
BORDER
  6
CONTINUOUS
 10
360.0
 20
5.0
 30
0.0
 11
360.0
 21
10.0000000002
 31
0.0
  0
LINE
  5
C2
  8
BORDER
  6
CONTINUOUS
 10
310.0
 20
10.0000000002
 30
0.0
 11
310.0
 21
5.0
 31
0.0
  0
LINE
  5
C3
  8
CONSTRUCTION
 10
17.5
 20
98.5000000000000142
 30
0.0
 11
17.5
 21
148.5
 31
0.0
  0
LINE
  5
C4
  8
CONSTRUCTION
 10
17.5
 20
98.5000000000000142
 30
0.0
 11
17.5
 21
48.5
 31
0.0
  0
LINE
  5
C5
  8
CONSTRUCTION
 10
17.5
 20
48.5
 30
0.0
 11
17.5
 21
23.5
 31
0.0
  0
LINE
  5
C6
  8
CONSTRUCTION
 10
420.0
 20
297.0
 30
0.0
 11
0.0
 21
297.0
 31
0.0
  0
LINE
  5
C7
  8
CONSTRUCTION
 10
160.0
 20
7.0000000001
 30
0.0
 11
210.0
 21
7.0000000001
 31
0.0
  0
LINE
  5
C8
  8
CONSTRUCTION
 10
160.0
 20
7.0000000001
 30
0.0
 11
110.0
 21
7.0000000001
 31
0.0
  0
LINE
  5
C9
  8
CONSTRUCTION
 10
210.0
 20
7.0000000001
 30
0.0
 11
260.0
 21
7.0000000001
 31
0.0
  0
LINE
  5
CA
  8
CONSTRUCTION
 10
260.0
 20
7.0000000001
 30
0.0
 11
310.0
 21
7.0000000001
 31
0.0
  0
LINE
  5
CB
  8
CONSTRUCTION
 10
110.0
 20
7.0000000001
 30
0.0
 11
60.0
 21
7.0000000001
 31
0.0
  0
LINE
  5
CC
  8
CONSTRUCTION
 10
60.0
 20
7.0000000001
 30
0.0
 11
35.0
 21
7.0000000001
 31
0.0
  0
LINE
  5
CD
  8
CONSTRUCTION
 10
160.0
 20
289.0
 30
0.0
 11
210.0
 21
289.0
 31
0.0
  0
LINE
  5
CE
  8
CONSTRUCTION
 10
0.0
 20
297.0
 30
0.0
 11
0.0
 21
0.0
 31
0.0
  0
LINE
  5
CF
  8
TRIM
 10
410.0
 20
292.0
 30
0.0
 11
415.0
 21
292.0
 31
0.0
  0
LINE
  5
D0
  8
TRIM
 10
415.0
 20
287.0
 30
0.0
 11
420.0
 21
287.0
 31
0.0
  0
LINE
  5
D1
  8
TRIM
 10
420.0
 20
287.0
 30
0.0
 11
420.0
 21
297.0
 31
0.0
  0
LINE
  5
D2
  8
CONSTRUCTION
 10
310.0
 20
7.0000000001
 30
0.0
 11
360.0
 21
7.0000000001
 31
0.0
  0
LINE
  5
D3
  8
CONSTRUCTION
 10
360.0
 20
7.0000000001
 30
0.0
 11
385.0
 21
7.0000000001
 31
0.0
  0
LINE
  5
D4
  8
CONSTRUCTION
 10
17.5
 20
148.5
 30
0.0
 11
17.5
 21
198.5
 31
0.0
  0
LINE
  5
D5
  8
CONSTRUCTION
 10
17.5
 20
198.5
 30
0.0
 11
17.5
 21
248.5
 31
0.0
  0
LINE
  5
D6
  8
TRIM
 10
415.0
 20
292.0
 30
0.0
 11
415.0
 21
287.0
 31
0.0
  0
LINE
  5
D7
  8
TRIM
 10
410.0
 20
0.0
 30
0.0
 11
410.0
 21
5.0
 31
0.0
  0
LINE
  5
D8
  8
TRIM
 10
410.0
 20
5.0
 30
0.0
 11
415.0
 21
5.0
 31
0.0
  0
LINE
  5
D9
  8
TRIM
 10
415.0
 20
5.0
 30
0.0
 11
415.0
 21
10.0
 31
0.0
  0
LINE
  5
DA
  8
TRIM
 10
415.0
 20
10.0
 30
0.0
 11
420.0
 21
10.0
 31
0.0
  0
LINE
  5
DB
  8
CONSTRUCTION
 10
160.0
 20
289.0
 30
0.0
 11
110.0
 21
289.0
 31
0.0
  0
LINE
  5
DC
  8
TRIM
 10
420.0
 20
10.0
 30
0.0
 11
420.0
 21
0.0
 31
0.0
  0
LINE
  5
DD
  8
TRIM
 10
410.0
 20
0.0
 30
0.0
 11
420.0
 21
0.0
 31
0.0
  0
LINE
  5
DE
  8
CONSTRUCTION
 10
110.0
 20
289.0
 30
0.0
 11
60.0
 21
289.0
 31
0.0
  0
LINE
  5
DF
  8
CONSTRUCTION
 10
60.0
 20
289.0
 30
0.0
 11
35.0
 21
289.0
 31
0.0
  0
LINE
  5
E0
  8
CONSTRUCTION
 10
412.5
 20
23.5
 30
0.0
 11
412.5
 21
48.5
 31
0.0
  0
LINE
  5
E1
  8
CONSTRUCTION
 10
210.0
 20
289.0
 30
0.0
 11
260.0
 21
289.0
 31
0.0
  0
LINE
  5
E2
  8
CONSTRUCTION
 10
260.0
 20
289.0
 30
0.0
 11
310.0
 21
289.0
 31
0.0
  0
LINE
  5
E3
  8
CONSTRUCTION
 10
310.0
 20
289.0
 30
0.0
 11
360.0
 21
289.0
 31
0.0
  0
LINE
  5
E4
  8
CONSTRUCTION
 10
360.0
 20
289.0
 30
0.0
 11
385.0
 21
289.0
 31
0.0
  0
LINE
  5
E5
  8
CONSTRUCTION
 10
412.5
 20
48.5
 30
0.0
 11
412.5
 21
98.5000000000000142
 31
0.0
  0
LINE
  5
E6
  8
CONSTRUCTION
 10
412.5
 20
98.5000000000000142
 30
0.0
 11
412.5
 21
148.5
 31
0.0
  0
LINE
  5
E7
  8
CONSTRUCTION
 10
412.5
 20
148.5
 30
0.0
 11
412.5
 21
198.5
 31
0.0
  0
LINE
  5
E8
  8
CONSTRUCTION
 10
412.5
 20
198.5
 30
0.0
 11
412.5
 21
248.5
 31
0.0
  0
LINE
  5
E9
  8
CONSTRUCTION
 10
412.5
 20
248.5
 30
0.0
 11
412.5
 21
273.5
 31
0.0
  0
CIRCLE
  5
EA
  8
BORDER
  6
CONTINUOUS
 10
302.2601970151000046
 20
15.0092678530000008
 30
0.0
 40
1.250000000000119
  0
CIRCLE
  5
EB
  8
BORDER
  6
CONTINUOUS
 10
302.2601970151000046
 20
15.0092678530000008
 30
0.0
 40
2.4999999999999409
  0
INSERT
  5
ED
  8
0
  2
*U13
 10
0.0
 20
0.0
 30
0.0
  0
INSERT
  5
EF
  8
0
  2
*U14
 10
0.0
 20
0.0
 30
0.0
  0
INSERT
  5
F0
  8
0
  2
*U15
 10
0.0
 20
0.0
 30
0.0
  0
INSERT
  5
F1
  8
0
  2
*U16
 10
0.0
 20
0.0
 30
0.0
  0
INSERT
  5
F2
  8
0
  2
*U17
 10
0.0
 20
0.0
 30
0.0
  0
INSERT
  5
F3
  8
0
  2
*U18
 10
0.0
 20
0.0
 30
0.0
  0
INSERT
  5
F4
  8
0
  2
*U19
 10
0.0
 20
0.0
 30
0.0
  0
INSERT
  5
F5
  8
0
  2
*U20
 10
0.0
 20
0.0
 30
0.0
  0
INSERT
  5
F6
  8
0
  2
*U21
 10
0.0
 20
0.0
 30
0.0
  0
INSERT
  5
F7
  8
0
  2
*U22
 10
0.0
 20
0.0
 30
0.0
  0
INSERT
  5
F8
  8
0
  2
*U23
 10
0.0
 20
0.0
 30
0.0
  0
INSERT
  5
F9
  8
0
  2
*U24
 10
0.0
 20
0.0
 30
0.0
  0
INSERT
  5
FA
  8
0
  2
*U25
 10
0.0
 20
0.0
 30
0.0
  0
INSERT
  5
FB
  8
0
  2
*U26
 10
0.0
 20
0.0
 30
0.0
  0
INSERT
  5
FC
  8
0
  2
*U27
 10
0.0
 20
0.0
 30
0.0
  0
INSERT
  5
FD
  8
0
  2
*U28
 10
0.0
 20
0.0
 30
0.0
  0
INSERT
  5
FE
  8
0
  2
*U29
 10
0.0
 20
0.0
 30
0.0
  0
INSERT
  5
FF
  8
0
  2
*U30
 10
0.0
 20
0.0
 30
0.0
  0
INSERT
  5
100
  8
0
  2
*U31
 10
0.0
 20
0.0
 30
0.0
  0
INSERT
  5
101
  8
0
  2
*U32
 10
0.0
 20
0.0
 30
0.0
  0
INSERT
  5
102
  8
0
  2
*U33
 10
0.0
 20
0.0
 30
0.0
  0
INSERT
  5
103
  8
0
  2
*U34
 10
0.0
 20
0.0
 30
0.0
  0
INSERT
  5
104
  8
0
  2
*U35
 10
0.0
 20
0.0
 30
0.0
  0
INSERT
  5
105
  8
0
  2
*U36
 10
0.0
 20
0.0
 30
0.0
  0
INSERT
  5
106
  8
0
  2
*U37
 10
0.0
 20
0.0
 30
0.0
  0
INSERT
  5
107
  8
0
  2
*U38
 10
0.0
 20
0.0
 30
0.0
  0
INSERT
  5
108
  8
0
  2
*U39
 10
0.0
 20
0.0
 30
0.0
  0
INSERT
  5
111
  8
BORDER
  2
SW_NOTE_0
 10
288.9370233367000083
 20
70.7677553922999749
 30
0.0
  0
INSERT
  5
112
  8
0
  2
*U44
 10
0.0
 20
0.0
 30
0.0
  0
INSERT
  5
113
  8
0
  2
*U45
 10
0.0
 20
0.0
 30
0.0
  0
INSERT
  5
114
  8
0
  2
*U46
 10
0.0
 20
0.0
 30
0.0
  0
INSERT
  5
115
  8
0
  2
*U47
 10
0.0
 20
0.0
 30
0.0
  0
INSERT
  5
116
  8
0
  2
*U48
 10
0.0
 20
0.0
 30
0.0
  0
INSERT
  5
117
  8
0
  2
*U49
 10
0.0
 20
0.0
 30
0.0
  0
INSERT
  5
118
  8
0
  2
*U50
 10
0.0
 20
0.0
 30
0.0
  0
INSERT
  5
119
  8
0
  2
*U51
 10
0.0
 20
0.0
 30
0.0
  0
INSERT
  5
11A
  8
0
  2
*U52
 10
0.0
 20
0.0
 30
0.0
  0
INSERT
  5
11B
  8
0
  2
*U53
 10
0.0
 20
0.0
 30
0.0
  0
INSERT
  5
11C
  8
0
  2
*U54
 10
0.0
 20
0.0
 30
0.0
  0
INSERT
  5
11D
  8
0
  2
*U55
 10
0.0
 20
0.0
 30
0.0
  0
INSERT
  5
11E
  8
0
  2
*U56
 10
0.0
 20
0.0
 30
0.0
  0
INSERT
  5
11F
  8
0
  2
*U57
 10
0.0
 20
0.0
 30
0.0
  0
INSERT
  5
120
  8
0
  2
*U58
 10
0.0
 20
0.0
 30
0.0
  0
INSERT
  5
121
  8
0
  2
*U59
 10
0.0
 20
0.0
 30
0.0
  0
INSERT
  5
122
  8
0
  2
*U60
 10
0.0
 20
0.0
 30
0.0
  0
INSERT
  5
123
  8
0
  2
*U61
 10
0.0
 20
0.0
 30
0.0
  0
INSERT
  5
124
  8
0
  2
*U62
 10
0.0
 20
0.0
 30
0.0
  0
INSERT
  5
125
  8
0
  2
*U63
 10
0.0
 20
0.0
 30
0.0
  0
INSERT
  5
12B
  8
BORDER
  2
SW_NOTE_0_1
 10
291.5760125023999763
 20
21.5520930373000006
 30
0.0
  0
INSERT
  5
12C
  8
0
  2
*U66
 10
0.0
 20
0.0
 30
0.0
  0
INSERT
  5
12E
  8
0
  2
*U67
 10
0.0
 20
0.0
 30
0.0
  0
INSERT
  5
12F
  8
0
  2
*U68
 10
0.0
 20
0.0
 30
0.0
  0
INSERT
  5
130
  8
0
  2
*U69
 10
0.0
 20
0.0
 30
0.0
  0
INSERT
  5
131
  8
0
  2
*U70
 10
0.0
 20
0.0
 30
0.0
  0
LINE
  5
132
  8
0
  6
CONTINUOUS
 62
     7
 10
220.1430379747000075
 20
202.1586075948999905
 30
0.0
 11
221.7430379747000018
 21
202.1586075948999905
 31
0.0
  0
LINE
  5
133
  8
0
  6
CONTINUOUS
 62
     7
 10
220.1430379747000075
 20
198.1586075948999905
 30
0.0
 11
220.1430379747000075
 21
202.1586075948999905
 31
0.0
  0
LINE
  5
134
  8
0
  6
CONTINUOUS
 62
     7
 10
220.1430379747000075
 20
198.1586075948999905
 30
0.0
 11
221.7430379747000018
 21
198.1586075948999905
 31
0.0
  0
LINE
  5
135
  8
0
  6
CONTINUOUS
 62
     7
 10
221.7430379747000018
 20
198.1586075948999905
 30
0.0
 11
221.7430379747000018
 21
195.1586075948999905
 31
0.0
  0
LINE
  5
136
  8
0
  6
CONTINUOUS
 62
     7
 10
226.7430379747000018
 20
195.1586075948999905
 30
0.0
 11
221.7430379747000018
 21
195.1586075948999905
 31
0.0
  0
LINE
  5
137
  8
0
  6
CONTINUOUS
 62
     7
 10
226.7430379747000018
 20
198.1586075948999905
 30
0.0
 11
226.7430379747000018
 21
195.1586075948999905
 31
0.0
  0
LINE
  5
138
  8
0
  6
CONTINUOUS
 62
     7
 10
226.7430379747000018
 20
198.1586075948999905
 30
0.0
 11
228.3430379746999961
 21
198.1586075948999905
 31
0.0
  0
LINE
  5
139
  8
0
  6
CONTINUOUS
 62
     7
 10
228.3430379746999961
 20
198.1586075948999905
 30
0.0
 11
228.3430379746999961
 21
202.1586075948999905
 31
0.0
  0
LINE
  5
13A
  8
0
  6
CONTINUOUS
 62
     7
 10
226.7430379747000018
 20
202.1586075948999905
 30
0.0
 11
228.3430379746999961
 21
202.1586075948999905
 31
0.0
  0
LINE
  5
13B
  8
0
  6
CONTINUOUS
 62
     7
 10
226.7430379747000018
 20
205.1586075948999905
 30
0.0
 11
226.7430379747000018
 21
202.1586075948999905
 31
0.0
  0
LINE
  5
13C
  8
0
  6
CONTINUOUS
 62
     7
 10
259.2430379746999733
 20
205.1586075948999905
 30
0.0
 11
259.2430379746999733
 21
208.1586075948999905
 31
0.0
  0
LINE
  5
13D
  8
0
  6
CONTINUOUS
 62
     7
 10
259.2430379746999733
 20
208.1586075948999905
 30
0.0
 11
309.2430379746999733
 21
208.1586075948999905
 31
0.0
  0
LINE
  5
13E
  8
0
  6
CONTINUOUS
 62
     7
 10
309.2430379746999733
 20
205.1586075948999905
 30
0.0
 11
309.2430379746999733
 21
208.1586075948999905
 31
0.0
  0
LINE
  5
13F
  8
0
  6
CONTINUOUS
 62
     7
 10
309.2430379746999733
 20
205.1586075948999905
 30
0.0
 11
339.243037974700087
 21
205.1586075948999905
 31
0.0
  0
LINE
  5
140
  8
0
  6
CONTINUOUS
 62
     7
 10
339.243037974700087
 20
205.1586075948999905
 30
0.0
 11
339.243037974700087
 21
202.9529808300000013
 31
0.0
  0
ARC
  5
141
  8
0
  6
CONTINUOUS
 62
     7
 10
336.2430379746999733
 20
202.9529808300000013
 30
0.0
 40
3.0000000000026632
 50
274.0648413020999783
 51
359.9999999998998987
  0
LINE
  5
142
  8
0
  6
CONTINUOUS
 62
     7
 10
336.4556940736000001
 20
199.9605274246000022
 30
0.0
 11
271.1809841755999742
 21
195.3218369313999858
 31
0.0
  0
ARC
  5
143
  8
0
  6
CONTINUOUS
 62
     7
 10
271.8898378385000001
 20
185.3469922467000117
 30
0.0
 40
9.9999999999999734
 50
94.0648413020999925
 51
120.0
  0
LINE
  5
144
  8
0
  6
CONTINUOUS
 62
     7
 10
234.2430379747000018
 20
175.1586075948999905
 30
0.0
 11
266.8898378385000001
 21
194.0072462845000132
 31
0.0
  0
LINE
  5
145
  8
0
  6
CONTINUOUS
 62
     7
 10
91.7430379746999876
 20
205.1586075948999905
 30
0.0
 11
91.7430379746999876
 21
202.1586075948999905
 31
0.0
  0
LINE
  5
146
  8
0
  6
CONTINUOUS
 62
     7
 10
91.7430379746999876
 20
202.1586075948999905
 30
0.0
 11
90.1430379746999932
 21
202.1586075948999905
 31
0.0
  0
LINE
  5
147
  8
0
  6
CONTINUOUS
 62
     7
 10
90.1430379746999932
 20
198.1586075948999905
 30
0.0
 11
90.1430379746999932
 21
202.1586075948999905
 31
0.0
  0
LINE
  5
148
  8
0
  6
CONTINUOUS
 62
     7
 10
91.7430379746999876
 20
198.1586075948999905
 30
0.0
 11
90.1430379746999932
 21
198.1586075948999905
 31
0.0
  0
LINE
  5
149
  8
0
  6
CONTINUOUS
 62
     7
 10
91.7430379746999876
 20
198.1586075948999905
 30
0.0
 11
91.7430379746999876
 21
195.1586075948999905
 31
0.0
  0
LINE
  5
14A
  8
0
  6
CONTINUOUS
 62
     7
 10
91.7430379746999876
 20
195.1586075948999905
 30
0.0
 11
96.7430379746999876
 21
195.1586075948999905
 31
0.0
  0
LINE
  5
14B
  8
0
  6
CONTINUOUS
 62
     7
 10
96.7430379746999876
 20
198.1586075948999905
 30
0.0
 11
96.7430379746999876
 21
195.1586075948999905
 31
0.0
  0
LINE
  5
14C
  8
0
  6
CONTINUOUS
 62
     7
 10
98.3430379746999961
 20
198.1586075948999905
 30
0.0
 11
96.7430379746999876
 21
198.1586075948999905
 31
0.0
  0
LINE
  5
14D
  8
0
  6
CONTINUOUS
 62
     7
 10
98.3430379746999961
 20
198.1586075948999905
 30
0.0
 11
98.3430379746999961
 21
202.1586075948999905
 31
0.0
  0
LINE
  5
14E
  8
0
  6
CONTINUOUS
 62
     7
 10
98.3430379746999961
 20
202.1586075948999905
 30
0.0
 11
96.7430379746999876
 21
202.1586075948999905
 31
0.0
  0
LINE
  5
14F
  8
0
  6
CONTINUOUS
 62
     7
 10
96.7430379746999876
 20
205.1586075948999905
 30
0.0
 11
96.7430379746999876
 21
202.1586075948999905
 31
0.0
  0
LINE
  5
150
  8
0
  6
CONTINUOUS
 62
     7
 10
221.7430379747000018
 20
205.1586075948999905
 30
0.0
 11
221.7430379747000018
 21
202.1586075948999905
 31
0.0
  0
LINE
  5
151
  8
0
  6
CONTINUOUS
 62
     7
 10
234.2430379747000018
 20
175.1586075948999905
 30
0.0
 11
209.2430379747000018
 21
175.1586075948999905
 31
0.0
  0
LINE
  5
152
  8
0
  6
CONTINUOUS
 62
     7
 10
209.2430379747000018
 20
172.1586075948999905
 30
0.0
 11
209.2430379747000018
 21
175.1586075948999905
 31
0.0
  0
LINE
  5
153
  8
0
  6
CONTINUOUS
 62
     7
 10
209.2430379747000018
 20
172.1586075948999905
 30
0.0
 11
109.2430379747000018
 21
172.1586075948999905
 31
0.0
  0
LINE
  5
154
  8
0
  6
CONTINUOUS
 62
     7
 10
109.2430379747000018
 20
172.1586075948999905
 30
0.0
 11
109.2430379747000018
 21
175.1586075948999905
 31
0.0
  0
LINE
  5
155
  8
0
  6
CONTINUOUS
 62
     7
 10
109.2430379747000018
 20
175.1586075948999905
 30
0.0
 11
84.243037974700016
 21
175.1586075948999905
 31
0.0
  0
LINE
  5
156
  8
0
  6
CONTINUOUS
 62
     7
 10
84.243037974700016
 20
175.1586075948999905
 30
0.0
 11
84.243037974700016
 21
205.1586075948999905
 31
0.0
  0
LINE
  5
157
  8
0
  6
CONTINUOUS
 62
     7
 10
91.7430379746999876
 20
205.1586075948999905
 30
0.0
 11
84.243037974700016
 21
205.1586075948999905
 31
0.0
  0
LINE
  5
158
  8
0
  6
CONTINUOUS
 62
     7
 10
109.2430379747000018
 20
205.1586075948999905
 30
0.0
 11
109.2430379747000018
 21
208.1586075948999905
 31
0.0
  0
LINE
  5
159
  8
0
  6
CONTINUOUS
 62
     7
 10
209.2430379747000018
 20
208.1586075948999905
 30
0.0
 11
109.2430379747000018
 21
208.1586075948999905
 31
0.0
  0
LINE
  5
15A
  8
0
  6
CONTINUOUS
 62
     7
 10
209.2430379747000018
 20
205.1586075948999905
 30
0.0
 11
209.2430379747000018
 21
208.1586075948999905
 31
0.0
  0
LINE
  5
15B
  8
0
  6
CONTINUOUS
 62
     7
 10
221.7430379747000018
 20
205.1586075948999905
 30
0.0
 11
209.2430379747000018
 21
205.1586075948999905
 31
0.0
  0
LINE
  5
15C
  8
0
  6
CONTINUOUS
 62
     7
 10
109.2430379747000018
 20
205.1586075948999905
 30
0.0
 11
96.7430379746999876
 21
205.1586075948999905
 31
0.0
  0
LINE
  5
15D
  8
0
  6
CONTINUOUS
 62
     7
 10
259.2430379746999733
 20
205.1586075948999905
 30
0.0
 11
226.7430379747000018
 21
205.1586075948999905
 31
0.0
  0
DIMENSION
  5
15E
  8
BORDER
  2
_D
 10
70.8870930442000002
 20
172.1586075948999905
 30
0.0
 11
70.8870930442000002
 21
189.5261048119000122
 31
0.0
 70
   128
  1
<>
 13
109.2430379747000018
 23
208.1586075948999905
 33
0.0
 14
109.2430379747000018
 24
172.1586075948999905
 34
0.0
 50
90.0
  0
DIMENSION
  5
16A
  8
BORDER
  2
_D_1
 10
339.243037974700087
 20
226.2611884000999964
 30
0.0
 11
219.0188355132999902
 21
226.2611884000999964
 31
0.0
 70
   128
  1
<>
 13
84.243037974700016
 23
205.1586075948999905
 33
0.0
 14
339.243037974700087
 24
205.1586075948999905
 34
0.0
  0
DIMENSION
  5
175
  8
BORDER
  2
_D_2
 10
96.7430379746999876
 20
218.1586075948999905
 30
0.0
 11
107.6221766323999987
 21
218.1586075948999905
 31
0.0
 70
   128
  1
<>
 13
91.7430379746999876
 23
198.1586075948999905
 33
0.0
 14
96.7430379746999876
 24
198.1586075948999905
 34
0.0
  0
INSERT
  5
245
  8
AM_5
  2
*S8
 10
0.0
 20
0.0
 30
0.0
  0
ENDSEC
  0
EOF
