  0
SECTION
  2
HEADER
  9
$ACADVER
  1
AC1015
  9
$ACADMAINTVER
 70
     6
  9
$DWGCODEPAGE
  3
ANSI_1252
  9
$INSBASE
 10
0.0
 20
0.0
 30
0.0
  9
$EXTMIN
 10
0.0
 20
0.0
 30
0.0
  9
$EXTMAX
 10
1189.0
 20
841.0
 30
0.0
  9
$LIMMIN
 10
0.0
 20
0.0
  9
$LIMMAX
 10
1189.0
 20
841.0
  9
$ORTHOMODE
 70
     0
  9
$REGENMODE
 70
     1
  9
$FILLMODE
 70
     1
  9
$QTEXTMODE
 70
     0
  9
$MIRRTEXT
 70
     1
  9
$LTSCALE
 40
1.0
  9
$ATTMODE
 70
     1
  9
$TEXTSIZE
 40
3.175
  9
$TRACEWID
 40
1.0
  9
$TEXTSTYLE
  7
Standard
  9
$CLAYER
  8
0
  9
$CELTYPE
  6
ByLayer
  9
$CECOLOR
 62
   256
  9
$CELTSCALE
 40
1.0
  9
$DISPSILH
 70
     0
  9
$DIMSCALE
 40
1.0
  9
$DIMASZ
 40
3.302
  9
$DIMEXO
 40
1.27
  9
$DIMDLI
 40
3.75
  9
$DIMRND
 40
0.0
  9
$DIMDLE
 40
0.0
  9
$DIMEXE
 40
3.175
  9
$DIMTP
 40
0.0
  9
$DIMTM
 40
0.0
  9
$DIMTXT
 40
8.4666666667
  9
$DIMCEN
 40
2.5
  9
$DIMTSZ
 40
0.0
  9
$DIMTOL
 70
     0
  9
$DIMLIM
 70
     0
  9
$DIMTIH
 70
     1
  9
$DIMTOH
 70
     1
  9
$DIMSE1
 70
     0
  9
$DIMSE2
 70
     0
  9
$DIMTAD
 70
     0
  9
$DIMZIN
 70
     1
  9
$DIMBLK
  1

  9
$DIMASO
 70
     1
  9
$DIMSHO
 70
     1
  9
$DIMPOST
  1

  9
$DIMAPOST
  1

  9
$DIMALT
 70
     0
  9
$DIMALTD
 70
     3
  9
$DIMALTF
 40
0.0393700787
  9
$DIMLFAC
 40
1.0
  9
$DIMTOFL
 70
     1
  9
$DIMTVP
 40
0.0
  9
$DIMTIX
 70
     0
  9
$DIMSOXD
 70
     0
  9
$DIMSAH
 70
     0
  9
$DIMBLK1
  1

  9
$DIMBLK2
  1

  9
$DIMSTYLE
  2
ISO-25
  9
$DIMCLRD
 70
     0
  9
$DIMCLRE
 70
     0
  9
$DIMCLRT
 70
     0
  9
$DIMTFAC
 40
1.0
  9
$DIMGAP
 40
1.524
  9
$DIMJUST
 70
     0
  9
$DIMSD1
 70
     0
  9
$DIMSD2
 70
     0
  9
$DIMTOLJ
 70
     0
  9
$DIMTZIN
 70
     1
  9
$DIMALTZ
 70
     0
  9
$DIMALTTZ
 70
     0
  9
$DIMUPT
 70
     0
  9
$DIMDEC
 70
     2
  9
$DIMTDEC
 70
     2
  9
$DIMALTU
 70
     2
  9
$DIMALTTD
 70
     3
  9
$DIMTXSTY
  7
Standard
  9
$DIMAUNIT
 70
     0
  9
$DIMADEC
 70
     2
  9
$DIMALTRND
 40
0.0
  9
$DIMAZIN
 70
     0
  9
$DIMDSEP
 70
    44
  9
$DIMATFIT
 70
     3
  9
$DIMFRAC
 70
     0
  9
$DIMLDRBLK
  1

  9
$DIMLUNIT
 70
     2
  9
$DIMLWD
 70
    -2
  9
$DIMLWE
 70
    -2
  9
$DIMTMOVE
 70
     0
  9
$LUNITS
 70
     2
  9
$LUPREC
 70
     2
  9
$SKETCHINC
 40
1.0
  9
$FILLETRAD
 40
10.0
  9
$AUNITS
 70
     0
  9
$AUPREC
 70
     2
  9
$MENU
  1
.
  9
$ELEVATION
 40
0.0
  9
$PELEVATION
 40
0.0
  9
$THICKNESS
 40
0.0
  9
$LIMCHECK
 70
     0
  9
$CHAMFERA
 40
0.0
  9
$CHAMFERB
 40
0.0
  9
$CHAMFERC
 40
0.0
  9
$CHAMFERD
 40
0.0
  9
$SKPOLY
 70
     0
  9
$TDCREATE
 40
2459583.703858959
  9
$TDUCREATE
 40
2459583.412192292
  9
$TDUPDATE
 40
2459583.703864699
  9
$TDUUPDATE
 40
2459583.412198032
  9
$TDINDWG
 40
0.0000000116
  9
$TDUSRTIMER
 40
0.0000000116
  9
$USRTIMER
 70
     1
  9
$ANGBASE
 50
0.0
  9
$ANGDIR
 70
     0
  9
$PDMODE
 70
     0
  9
$PDSIZE
 40
-1.0
  9
$PLINEWID
 40
0.0
  9
$SPLFRAME
 70
     0
  9
$SPLINETYPE
 70
     6
  9
$SPLINESEGS
 70
     8
  9
$HANDSEED
  5
485
  9
$SURFTAB1
 70
     6
  9
$SURFTAB2
 70
     6
  9
$SURFTYPE
 70
     6
  9
$SURFU
 70
     6
  9
$SURFV
 70
     6
  9
$UCSBASE
  2

  9
$UCSNAME
  2

  9
$UCSORG
 10
0.0
 20
0.0
 30
0.0
  9
$UCSXDIR
 10
1.0
 20
0.0
 30
0.0
  9
$UCSYDIR
 10
0.0
 20
1.0
 30
0.0
  9
$UCSORTHOREF
  2

  9
$UCSORTHOVIEW
 70
     0
  9
$UCSORGTOP
 10
0.0
 20
0.0
 30
0.0
  9
$UCSORGBOTTOM
 10
0.0
 20
0.0
 30
0.0
  9
$UCSORGLEFT
 10
0.0
 20
0.0
 30
0.0
  9
$UCSORGRIGHT
 10
0.0
 20
0.0
 30
0.0
  9
$UCSORGFRONT
 10
0.0
 20
0.0
 30
0.0
  9
$UCSORGBACK
 10
0.0
 20
0.0
 30
0.0
  9
$PUCSBASE
  2

  9
$PUCSNAME
  2

  9
$PUCSORG
 10
0.0
 20
0.0
 30
0.0
  9
$PUCSXDIR
 10
1.0
 20
0.0
 30
0.0
  9
$PUCSYDIR
 10
0.0
 20
1.0
 30
0.0
  9
$PUCSORTHOREF
  2

  9
$PUCSORTHOVIEW
 70
     0
  9
$PUCSORGTOP
 10
0.0
 20
0.0
 30
0.0
  9
$PUCSORGBOTTOM
 10
0.0
 20
0.0
 30
0.0
  9
$PUCSORGLEFT
 10
0.0
 20
0.0
 30
0.0
  9
$PUCSORGRIGHT
 10
0.0
 20
0.0
 30
0.0
  9
$PUCSORGFRONT
 10
0.0
 20
0.0
 30
0.0
  9
$PUCSORGBACK
 10
0.0
 20
0.0
 30
0.0
  9
$USERI1
 70
     0
  9
$USERI2
 70
     0
  9
$USERI3
 70
     0
  9
$USERI4
 70
     0
  9
$USERI5
 70
     0
  9
$USERR1
 40
0.0
  9
$USERR2
 40
0.0
  9
$USERR3
 40
0.0
  9
$USERR4
 40
0.0
  9
$USERR5
 40
0.0
  9
$WORLDVIEW
 70
     1
  9
$SHADEDGE
 70
     3
  9
$SHADEDIF
 70
    70
  9
$TILEMODE
 70
     1
  9
$MAXACTVP
 70
    64
  9
$PINSBASE
 10
0.0
 20
0.0
 30
0.0
  9
$PLIMCHECK
 70
     0
  9
$PEXTMIN
 10
1.0000000000E+20
 20
1.0000000000E+20
 30
1.0000000000E+20
  9
$PEXTMAX
 10
-1.0000000000E+20
 20
-1.0000000000E+20
 30
-1.0000000000E+20
  9
$PLIMMIN
 10
0.0
 20
0.0
  9
$PLIMMAX
 10
420.0
 20
297.0
  9
$UNITMODE
 70
     0
  9
$VISRETAIN
 70
     1
  9
$PLINEGEN
 70
     0
  9
$PSLTSCALE
 70
     1
  9
$TREEDEPTH
 70
  3020
  9
$CMLSTYLE
  2
Standard
  9
$CMLJUST
 70
     0
  9
$CMLSCALE
 40
20.0
  9
$PROXYGRAPHICS
 70
     1
  9
$MEASUREMENT
 70
     1
  9
$CELWEIGHT
370
    -1
  9
$ENDCAPS
280
     0
  9
$JOINSTYLE
280
     0
  9
$LWDISPLAY
290
     1
  9
$INSUNITS
 70
     4
  9
$HYPERLINKBASE
  1

  9
$STYLESHEET
  1

  9
$XEDIT
290
     1
  9
$CEPSNTYPE
380
     0
  9
$PSTYLEMODE
290
     1
  9
$FINGERPRINTGUID
  2
{58652056-f449-401f-9117-32d05ad1bfad}
  9
$VERSIONGUID
  2
{FAEB1C32-E019-11D5-929B-00C0DF256EC4}
  9
$EXTNAMES
290
     1
  9
$PSVPSCALE
 40
0.0
  9
$OLESTARTUP
290
     0
  0
ENDSEC
  0
SECTION
  2
CLASSES
  0
CLASS
  1
ACDBDICTIONARYWDFLT
  2
AcDbDictionaryWithDefault
  3
ObjectDBX Classes
 90
        0
280
     0
281
     0
  0
CLASS
  1
VISUALSTYLE
  2
AcDbVisualStyle
  3
ObjectDBX Classes
 90
     4095
280
     0
281
     0
  0
CLASS
  1
MATERIAL
  2
AcDbMaterial
  3
ObjectDBX Classes
 90
     1153
280
     0
281
     0
  0
CLASS
  1
SCALE
  2
AcDbScale
  3
ObjectDBX Classes
 90
     1153
280
     0
281
     0
  0
CLASS
  1
TABLESTYLE
  2
AcDbTableStyle
  3
ObjectDBX Classes
 90
     4095
280
     0
281
     0
  0
CLASS
  1
MLEADERSTYLE
  2
AcDbMLeaderStyle
  3
ACDB_MLEADERSTYLE_CLASS
 90
     4095
280
     0
281
     0
  0
CLASS
  1
SUN
  2
AcDbSun
  3
SCENEOE
 90
     1153
280
     0
281
     0
  0
CLASS
  1
ACDBPLACEHOLDER
  2
AcDbPlaceHolder
  3
ObjectDBX Classes
 90
        0
280
     0
281
     0
  0
CLASS
  1
LAYOUT
  2
AcDbLayout
  3
ObjectDBX Classes
 90
        0
280
     0
281
     0
  0
ENDSEC
  0
SECTION
  2
TABLES
  0
TABLE
  2
VPORT
  5
8
330
0
100
AcDbSymbolTable
 70
     1
  0
VPORT
  5
29
330
8
100
AcDbSymbolTableRecord
100
AcDbViewportTableRecord
  2
*Active
 70
     0
 10
0.0
 20
0.0
 11
1.0
 21
1.0
 12
594.5
 22
420.5
 13
0.0
 23
0.0
 14
10.0
 24
10.0
 15
10.0
 25
10.0
 16
0.0
 26
0.0
 36
1.0
 17
0.0
 27
0.0
 37
0.0
 40
841.0
 41
1.4137931034
 42
50.0
 43
0.0
 44
0.0
 50
0.0
 51
0.0
 71
     0
 72
  2000
 73
     1
 74
     3
 75
     0
 76
     0
 77
     0
 78
     0
281
     0
 65
     1
110
0.0
120
0.0
130
0.0
111
1.0
121
0.0
131
0.0
112
0.0
122
1.0
132
0.0
 79
     0
146
0.0
  0
ENDTAB
  0
TABLE
  2
LTYPE
  5
5
330
0
100
AcDbSymbolTable
 70
     6
  0
LTYPE
  5
14
330
5
100
AcDbSymbolTableRecord
100
AcDbLinetypeTableRecord
  2
ByBlock
 70
     0
  3

 72
    65
 73
     0
 40
0.0
  0
LTYPE
  5
15
330
5
100
AcDbSymbolTableRecord
100
AcDbLinetypeTableRecord
  2
ByLayer
 70
     0
  3

 72
    65
 73
     0
 40
0.0
  0
LTYPE
  5
16
330
5
100
AcDbSymbolTableRecord
100
AcDbLinetypeTableRecord
  2
Continuous
 70
     0
  3
Solid line
 72
    65
 73
     0
 40
0.0
  0
LTYPE
  5
6E
330
5
100
AcDbSymbolTableRecord
100
AcDbLinetypeTableRecord
  2
HIDDEN
 70
     0
  3
Hidden __ __ __ __ __ __ __ __ __ __ __ __ __ __
 72
    65
 73
     2
 40
1.905
 49
1.27
 74
     0
 49
-0.635
 74
     0
  0
LTYPE
  5
6F
330
5
100
AcDbSymbolTableRecord
100
AcDbLinetypeTableRecord
  2
PHANTOM
 70
     0
  3
Phantom ______  __  __  ______  __  __  ______
 72
    65
 73
     6
 40
12.7
 49
6.35
 74
     0
 49
-1.27
 74
     0
 49
1.27
 74
     0
 49
-1.27
 74
     0
 49
1.27
 74
     0
 49
-1.27
 74
     0
  0
LTYPE
  5
70
330
5
100
AcDbSymbolTableRecord
100
AcDbLinetypeTableRecord
  2
CENTER
 70
     0
  3
Center ____ _ ____ _ ____ _ ____ _ ____ _ ____
 72
    65
 73
     4
 40
10.16
 49
6.35
 74
     0
 49
-1.27
 74
     0
 49
1.27
 74
     0
 49
-1.27
 74
     0
  0
LTYPE
  5
71
330
5
100
AcDbSymbolTableRecord
100
AcDbLinetypeTableRecord
  2
CENTERX2
 70
     0
  3
Center (2x) ________  __  ________  __  _____
 72
    65
 73
     4
 40
20.32
 49
12.7
 74
     0
 49
-2.54
 74
     0
 49
2.54
 74
     0
 49
-2.54
 74
     0
  0
LTYPE
  5
72
330
5
100
AcDbSymbolTableRecord
100
AcDbLinetypeTableRecord
  2
DOT2
 70
     0
  3
Dot (.5x) ........................................
 72
    65
 73
     2
 40
0.635
 49
0.0
 74
     0
 49
-0.635
 74
     0
  0
ENDTAB
  0
TABLE
  2
LAYER
  5
2
330
0
100
AcDbSymbolTable
 70
     6
  0
LAYER
  5
10
330
2
100
AcDbSymbolTableRecord
100
AcDbLayerTableRecord
  2
0
 70
     0
 62
     7
  6
Continuous
370
    -3
390
F
  0
LAYER
  5
73
330
2
100
AcDbSymbolTableRecord
100
AcDbLayerTableRecord
  2
BORDER
 70
     0
 62
     7
  6
Continuous
370
    -3
390
F
  0
LAYER
  5
74
330
2
100
AcDbSymbolTableRecord
100
AcDbLayerTableRecord
  2
CONSTRUCTION
 70
     0
 62
  -136
  6
Continuous
290
     0
370
    -3
390
F
  0
LAYER
  5
75
330
2
100
AcDbSymbolTableRecord
100
AcDbLayerTableRecord
  2
TRIM
 70
     0
 62
     7
  6
Continuous
370
    -3
390
F
  0
LAYER
  5
76
330
2
100
AcDbSymbolTableRecord
100
AcDbLayerTableRecord
  2
TEXT
 70
     0
 62
     7
  6
Continuous
370
    -3
390
F
  0
LAYER
  5
77
330
2
100
AcDbSymbolTableRecord
100
AcDbLayerTableRecord
  2
DIMENSIONS
 70
     0
 62
     5
  6
Continuous
370
    -3
390
F
  0
ENDTAB
  0
TABLE
  2
STYLE
  5
3
330
0
100
AcDbSymbolTable
 70
     5
  0
STYLE
  5
11
330
3
100
AcDbSymbolTableRecord
100
AcDbTextStyleTableRecord
  2
Standard
 70
     0
 40
0.0
 41
1.0
 50
0.0
 71
     0
 42
3.175
  3
txt
  4

  0
STYLE
  5
156
330
3
100
AcDbSymbolTableRecord
100
AcDbTextStyleTableRecord
  2
SLDTEXTSTYLE0
 70
     0
 40
0.0
 41
0.75
 50
0.0
 71
     0
 42
3.175
  3
TXT
  4

  0
STYLE
  5
158
330
3
100
AcDbSymbolTableRecord
100
AcDbTextStyleTableRecord
  2
SLDTEXTSTYLE1
 70
     0
 40
0.0
 41
0.605
 50
0.0
 71
     0
 42
3.175
  3
TXT
  4

  0
STYLE
  5
1AC
330
3
100
AcDbSymbolTableRecord
100
AcDbTextStyleTableRecord
  2
SLDTEXTSTYLE2
 70
     0
 40
0.0
 41
0.57
 50
0.0
 71
     0
 42
3.175
  3
TXT
  4

  0
STYLE
  5
1CD
330
3
100
AcDbSymbolTableRecord
100
AcDbTextStyleTableRecord
  2
SLDTEXTSTYLE3
 70
     0
 40
0.0
 41
0.605
 50
0.0
 71
     0
 42
3.175
  3
TXT
  4
bigfont
  0
ENDTAB
  0
TABLE
  2
VIEW
  5
6
330
0
100
AcDbSymbolTable
 70
     0
  0
ENDTAB
  0
TABLE
  2
UCS
  5
7
330
0
100
AcDbSymbolTable
 70
     0
  0
ENDTAB
  0
TABLE
  2
APPID
  5
9
330
0
100
AcDbSymbolTable
 70
     1
  0
APPID
  5
12
330
9
100
AcDbSymbolTableRecord
100
AcDbRegAppTableRecord
  2
ACAD
 70
     0
  0
ENDTAB
  0
TABLE
  2
DIMSTYLE
  5
A
330
0
100
AcDbSymbolTable
 70
     5
100
AcDbDimStyleTable
  0
DIMSTYLE
105
27
330
A
100
AcDbSymbolTableRecord
100
AcDbDimStyleTableRecord
  2
ISO-25
 70
     0
 41
2.5
 42
0.625
 43
3.75
 44
1.25
 73
     0
 74
     0
 77
     1
 78
     8
140
2.5
141
2.5
143
0.0393700787
147
0.625
171
     3
172
     1
178
     0
271
     2
272
     2
274
     3
278
    44
283
     0
284
     8
340
11
  0
DIMSTYLE
105
290
102
{ACAD_REACTORS
330
28F
102
}
330
A
100
AcDbSymbolTableRecord
100
AcDbDimStyleTableRecord
  2
SLDDIMSTYLE0
 70
     0
 41
3.302
 44
0.0
 45
0.000000001
 78
     4
 79
     1
140
6.35
141
0.0
147
1.5875
173
     1
178
     0
271
     2
272
     2
276
     2
284
    12
340
156
  0
DIMSTYLE
105
29A
102
{ACAD_REACTORS
330
299
330
2AF
330
2B8
102
}
330
A
100
AcDbSymbolTableRecord
100
AcDbDimStyleTableRecord
  2
SLDDIMSTYLE1
 70
     0
 41
3.302
 44
0.0
 45
0.000000001
 78
     4
 79
     1
140
6.35
141
0.0
147
1.5875
173
     1
178
     0
271
     2
272
     2
276
     2
284
    12
340
156
  0
DIMSTYLE
105
2A4
102
{ACAD_REACTORS
330
2A3
102
}
330
A
100
AcDbSymbolTableRecord
100
AcDbDimStyleTableRecord
  2
SLDDIMSTYLE2
 70
     0
 41
3.302
 44
0.0
 45
0.000000001
 78
     4
 79
     1
140
6.35
147
1.5875
173
     1
178
     0
271
     2
272
     2
276
     2
284
    12
340
156
  0
DIMSTYLE
105
2C2
330
A
100
AcDbSymbolTableRecord
100
AcDbDimStyleTableRecord
  2
SLDDIMSTYLE3
 70
     0
 41
1.016
 44
0.0
 45
0.000000001
146
1.016
147
0.0
173
     1
178
     0
271
     0
272
     0
276
     2
340
11
341
2C3
343
2C3
344
2C3
  0
ENDTAB
  0
TABLE
  2
BLOCK_RECORD
  5
1
330
0
100
AcDbSymbolTable
 70
    46
  0
BLOCK_RECORD
  5
1F
330
1
100
AcDbSymbolTableRecord
100
AcDbBlockTableRecord
  2
*Model_Space
340
22
  0
BLOCK_RECORD
  5
1B
330
1
100
AcDbSymbolTableRecord
100
AcDbBlockTableRecord
  2
*Paper_Space
340
1E
  0
BLOCK_RECORD
  5
23
330
1
100
AcDbSymbolTableRecord
100
AcDbBlockTableRecord
  2
*Paper_Space0
340
26
  0
BLOCK_RECORD
  5
1AF
330
1
100
AcDbSymbolTableRecord
100
AcDbBlockTableRecord
  2
SW_NOTE_0
340
0
102
{BLKREFS
331
1B4
102
}
  0
BLOCK_RECORD
  5
1C9
330
1
100
AcDbSymbolTableRecord
100
AcDbBlockTableRecord
  2
SW_NOTE_0_1
340
0
102
{BLKREFS
331
1D1
102
}
  0
BLOCK_RECORD
  5
291
330
1
100
AcDbSymbolTableRecord
100
AcDbBlockTableRecord
  2
_D
340
0
  0
BLOCK_RECORD
  5
29B
330
1
100
AcDbSymbolTableRecord
100
AcDbBlockTableRecord
  2
_D_1
340
0
  0
BLOCK_RECORD
  5
2A5
330
1
100
AcDbSymbolTableRecord
100
AcDbBlockTableRecord
  2
_D_2
340
0
  0
BLOCK_RECORD
  5
2B0
330
1
100
AcDbSymbolTableRecord
100
AcDbBlockTableRecord
  2
_D_3
340
0
  0
BLOCK_RECORD
  5
2B9
330
1
100
AcDbSymbolTableRecord
100
AcDbBlockTableRecord
  2
_D_4
340
0
  0
BLOCK_RECORD
  5
2C3
330
1
100
AcDbSymbolTableRecord
100
AcDbBlockTableRecord
  2
_Dot
340
0
  0
BLOCK_RECORD
  5
2C9
330
1
100
AcDbSymbolTableRecord
100
AcDbBlockTableRecord
  2
SW_CENTERMARKSYMBOL_0
340
0
102
{BLKREFS
331
2D4
102
}
  0
BLOCK_RECORD
  5
2D5
330
1
100
AcDbSymbolTableRecord
100
AcDbBlockTableRecord
  2
SW_CENTERMARKSYMBOL_1
340
0
102
{BLKREFS
331
2E0
102
}
  0
BLOCK_RECORD
  5
2E1
330
1
100
AcDbSymbolTableRecord
100
AcDbBlockTableRecord
  2
SW_CENTERMARKSYMBOL_2
340
0
102
{BLKREFS
331
2EC
102
}
  0
BLOCK_RECORD
  5
2ED
330
1
100
AcDbSymbolTableRecord
100
AcDbBlockTableRecord
  2
SW_CENTERMARKSYMBOL_3
340
0
102
{BLKREFS
331
2F8
102
}
  0
BLOCK_RECORD
  5
2F9
330
1
100
AcDbSymbolTableRecord
100
AcDbBlockTableRecord
  2
SW_CENTERMARKSYMBOL_4
340
0
102
{BLKREFS
331
304
102
}
  0
BLOCK_RECORD
  5
305
330
1
100
AcDbSymbolTableRecord
100
AcDbBlockTableRecord
  2
SW_CENTERMARKSYMBOL_5
340
0
102
{BLKREFS
331
310
102
}
  0
BLOCK_RECORD
  5
311
330
1
100
AcDbSymbolTableRecord
100
AcDbBlockTableRecord
  2
SW_CENTERMARKSYMBOL_6
340
0
102
{BLKREFS
331
31C
102
}
  0
BLOCK_RECORD
  5
31D
330
1
100
AcDbSymbolTableRecord
100
AcDbBlockTableRecord
  2
SW_CENTERMARKSYMBOL_7
340
0
102
{BLKREFS
331
328
102
}
  0
BLOCK_RECORD
  5
329
330
1
100
AcDbSymbolTableRecord
100
AcDbBlockTableRecord
  2
SW_CENTERMARKSYMBOL_8
340
0
102
{BLKREFS
331
334
102
}
  0
BLOCK_RECORD
  5
335
330
1
100
AcDbSymbolTableRecord
100
AcDbBlockTableRecord
  2
SW_CENTERMARKSYMBOL_9
340
0
102
{BLKREFS
331
340
102
}
  0
BLOCK_RECORD
  5
341
330
1
100
AcDbSymbolTableRecord
100
AcDbBlockTableRecord
  2
SW_CENTERMARKSYMBOL_10
340
0
102
{BLKREFS
331
34C
102
}
  0
BLOCK_RECORD
  5
34D
330
1
100
AcDbSymbolTableRecord
100
AcDbBlockTableRecord
  2
SW_CENTERMARKSYMBOL_11
340
0
102
{BLKREFS
331
358
102
}
  0
BLOCK_RECORD
  5
359
330
1
100
AcDbSymbolTableRecord
100
AcDbBlockTableRecord
  2
SW_CENTERMARKSYMBOL_12
340
0
102
{BLKREFS
331
364
102
}
  0
BLOCK_RECORD
  5
365
330
1
100
AcDbSymbolTableRecord
100
AcDbBlockTableRecord
  2
SW_CENTERMARKSYMBOL_13
340
0
102
{BLKREFS
331
370
102
}
  0
BLOCK_RECORD
  5
371
330
1
100
AcDbSymbolTableRecord
100
AcDbBlockTableRecord
  2
SW_CENTERMARKSYMBOL_14
340
0
102
{BLKREFS
331
37C
102
}
  0
BLOCK_RECORD
  5
37D
330
1
100
AcDbSymbolTableRecord
100
AcDbBlockTableRecord
  2
SW_CENTERMARKSYMBOL_15
340
0
102
{BLKREFS
331
388
102
}
  0
BLOCK_RECORD
  5
389
330
1
100
AcDbSymbolTableRecord
100
AcDbBlockTableRecord
  2
SW_CENTERMARKSYMBOL_16
340
0
102
{BLKREFS
331
394
102
}
  0
BLOCK_RECORD
  5
395
330
1
100
AcDbSymbolTableRecord
100
AcDbBlockTableRecord
  2
SW_CENTERMARKSYMBOL_17
340
0
102
{BLKREFS
331
3A0
102
}
  0
BLOCK_RECORD
  5
3A1
330
1
100
AcDbSymbolTableRecord
100
AcDbBlockTableRecord
  2
SW_CENTERMARKSYMBOL_18
340
0
102
{BLKREFS
331
3AC
102
}
  0
BLOCK_RECORD
  5
3AD
330
1
100
AcDbSymbolTableRecord
100
AcDbBlockTableRecord
  2
SW_CENTERMARKSYMBOL_19
340
0
102
{BLKREFS
331
3B8
102
}
  0
BLOCK_RECORD
  5
3B9
330
1
100
AcDbSymbolTableRecord
100
AcDbBlockTableRecord
  2
SW_CENTERMARKSYMBOL_20
340
0
102
{BLKREFS
331
3C4
102
}
  0
BLOCK_RECORD
  5
3C5
330
1
100
AcDbSymbolTableRecord
100
AcDbBlockTableRecord
  2
SW_CENTERMARKSYMBOL_21
340
0
102
{BLKREFS
331
3D0
102
}
  0
BLOCK_RECORD
  5
3D1
330
1
100
AcDbSymbolTableRecord
100
AcDbBlockTableRecord
  2
SW_CENTERMARKSYMBOL_22
340
0
102
{BLKREFS
331
3DC
102
}
  0
BLOCK_RECORD
  5
3DD
330
1
100
AcDbSymbolTableRecord
100
AcDbBlockTableRecord
  2
SW_CENTERMARKSYMBOL_23
340
0
102
{BLKREFS
331
3E8
102
}
  0
BLOCK_RECORD
  5
3E9
330
1
100
AcDbSymbolTableRecord
100
AcDbBlockTableRecord
  2
SW_CENTERMARKSYMBOL_24
340
0
102
{BLKREFS
331
3F4
102
}
  0
BLOCK_RECORD
  5
3F5
330
1
100
AcDbSymbolTableRecord
100
AcDbBlockTableRecord
  2
SW_CENTERMARKSYMBOL_25
340
0
102
{BLKREFS
331
400
102
}
  0
BLOCK_RECORD
  5
401
330
1
100
AcDbSymbolTableRecord
100
AcDbBlockTableRecord
  2
SW_CENTERMARKSYMBOL_26
340
0
102
{BLKREFS
331
40C
102
}
  0
BLOCK_RECORD
  5
40D
330
1
100
AcDbSymbolTableRecord
100
AcDbBlockTableRecord
  2
SW_CENTERMARKSYMBOL_27
340
0
102
{BLKREFS
331
418
102
}
  0
BLOCK_RECORD
  5
419
330
1
100
AcDbSymbolTableRecord
100
AcDbBlockTableRecord
  2
SW_CENTERMARKSYMBOL_28
340
0
102
{BLKREFS
331
424
102
}
  0
BLOCK_RECORD
  5
425
330
1
100
AcDbSymbolTableRecord
100
AcDbBlockTableRecord
  2
SW_CENTERMARKSYMBOL_29
340
0
102
{BLKREFS
331
430
102
}
  0
BLOCK_RECORD
  5
431
330
1
100
AcDbSymbolTableRecord
100
AcDbBlockTableRecord
  2
SW_CENTERMARKSYMBOL_30
340
0
102
{BLKREFS
331
43C
102
}
  0
BLOCK_RECORD
  5
43D
330
1
100
AcDbSymbolTableRecord
100
AcDbBlockTableRecord
  2
SW_CENTERMARKSYMBOL_31
340
0
102
{BLKREFS
331
448
102
}
  0
BLOCK_RECORD
  5
449
330
1
100
AcDbSymbolTableRecord
100
AcDbBlockTableRecord
  2
SW_CENTERMARKSYMBOL_32
340
0
102
{BLKREFS
331
454
102
}
  0
BLOCK_RECORD
  5
455
330
1
100
AcDbSymbolTableRecord
100
AcDbBlockTableRecord
  2
SW_CENTERMARKSYMBOL_33
340
0
102
{BLKREFS
331
460
102
}
  0
BLOCK_RECORD
  5
461
330
1
100
AcDbSymbolTableRecord
100
AcDbBlockTableRecord
  2
SW_CENTERMARKSYMBOL_34
340
0
102
{BLKREFS
331
46C
102
}
  0
BLOCK_RECORD
  5
46D
330
1
100
AcDbSymbolTableRecord
100
AcDbBlockTableRecord
  2
SW_CENTERMARKSYMBOL_35
340
0
102
{BLKREFS
331
478
102
}
  0
BLOCK_RECORD
  5
479
330
1
100
AcDbSymbolTableRecord
100
AcDbBlockTableRecord
  2
SW_CENTERMARKSYMBOL_36
340
0
102
{BLKREFS
331
484
102
}
  0
ENDTAB
  0
ENDSEC
  0
SECTION
  2
BLOCKS
  0
BLOCK
  5
20
330
1F
100
AcDbEntity
  8
0
100
AcDbBlockBegin
  2
*Model_Space
 70
     0
 10
0.0
 20
0.0
 30
0.0
  3
*Model_Space
  1

  0
ENDBLK
  5
21
330
1F
100
AcDbEntity
  8
0
100
AcDbBlockEnd
  0
BLOCK
  5
1C
330
1B
100
AcDbEntity
 67
     1
  8
0
100
AcDbBlockBegin
  2
*Paper_Space
 70
     0
 10
0.0
 20
0.0
 30
0.0
  3
*Paper_Space
  1

  0
ENDBLK
  5
1D
330
1B
100
AcDbEntity
 67
     1
  8
0
100
AcDbBlockEnd
  0
BLOCK
  5
24
330
23
100
AcDbEntity
  8
0
100
AcDbBlockBegin
  2
*Paper_Space0
 70
     0
 10
0.0
 20
0.0
 30
0.0
  3
*Paper_Space0
  1

  0
ENDBLK
  5
25
330
23
100
AcDbEntity
  8
0
100
AcDbBlockEnd
  0
BLOCK
  5
1B0
330
1AF
100
AcDbEntity
  8
0
100
AcDbBlockBegin
  2
SW_NOTE_0
 70
     0
 10
0.0
 20
0.0
 30
0.0
  3
SW_NOTE_0
  1

  0
MTEXT
  5
1B2
330
1AF
100
AcDbEntity
  8
BORDER
 62
     0
100
AcDbMText
 10
0.0
 20
2.3203219316
 30
0.0
 40
1.8
 41
0.0
 71
     1
 72
     1
  1
Projection Method:
  7
SLDTEXTSTYLE1
 73
     1
 44
1.0
  0
MTEXT
  5
1B3
330
1AF
100
AcDbEntity
  8
BORDER
 62
     0
100
AcDbMText
 10
5.4
 20
-0.4796779686
 30
0.0
 40
1.8
 41
0.0
 71
     1
 72
     1
  1
THIRD ANGLE
  7
SLDTEXTSTYLE1
 73
     1
 44
1.0
  0
ENDBLK
  5
1B1
330
1AF
100
AcDbEntity
  8
0
100
AcDbBlockEnd
  0
BLOCK
  5
1CA
330
1C9
100
AcDbEntity
  8
0
100
AcDbBlockBegin
  2
SW_NOTE_0_1
 70
     0
 10
0.0
 20
0.0
 30
0.0
  3
SW_NOTE_0_1
  1

  0
MTEXT
  5
1CC
330
1C9
100
AcDbEntity
  8
BORDER
 62
     0
100
AcDbMText
 10
0.0
 20
3.2226693494
 30
0.0
 40
2.5
 41
0.0
 71
     1
 72
     1
  1
NOTES:
  7
SLDTEXTSTYLE1
 73
     1
 44
1.0
  0
MTEXT
  5
1CE
330
1C9
100
AcDbEntity
  8
BORDER
 62
     0
100
AcDbMText
 10
0.0
 20
-0.2873911208
 30
0.0
 40
2.5
 41
0.0
 71
     1
 72
     1
  1
1. Làm s\U+1EA1ch ba via, làm tù c\U+1EA1nh s\U+1EAFc sau khi gia công.
  7
SLDTEXTSTYLE3
 73
     1
 44
1.0
  0
MTEXT
  5
1CF
330
1C9
100
AcDbEntity
  8
BORDER
 62
     0
100
AcDbMText
 10
0.0
 20
-3.7873912288
 30
0.0
 40
2.5
 41
0.0
 71
     1
 72
     1
  1
2. Kích th\U+01B0\U+1EDBc ch\U+01B0a rõ tuân theo b\U+1EA3n 3D
  7
SLDTEXTSTYLE3
 73
     1
 44
1.0
  0
MTEXT
  5
1D0
330
1C9
100
AcDbEntity
  8
BORDER
 62
     0
100
AcDbMText
 10
0.0
 20
-7.2873913368
 30
0.0
 40
2.5
 41
0.0
 71
     1
 72
     1
  1
3. Dung sai ch\U+01B0a rõ tuân theo ISO 2768-m
  7
SLDTEXTSTYLE3
 73
     1
 44
1.0
  0
ENDBLK
  5
1CB
330
1C9
100
AcDbEntity
  8
0
100
AcDbBlockEnd
  0
BLOCK
  5
292
330
291
100
AcDbEntity
  8
0
100
AcDbBlockBegin
  2
_D
 70
     0
 10
0.0
 20
0.0
 30
0.0
  3
_D
  1

  0
SOLID
  5
294
330
291
100
AcDbEntity
  8
BORDER
100
AcDbTrace
 10
788.0348663444
 20
644.1390371884
 30
0.0
 11
790.7616805346
 21
646.0692579976
 31
0.0
 12
790.0554031033
 22
646.799619682
 32
0.0
 13
790.0554031033
 23
646.799619682
 33
0.0
  0
LINE
  5
295
330
291
100
AcDbEntity
  8
BORDER
100
AcDbLine
 10
788.0348663444
 20
644.1390371884
 30
0.0
 11
860.9459365176
 21
714.645807248
 31
0.0
  0
LINE
  5
296
330
291
100
AcDbEntity
  8
BORDER
100
AcDbLine
 10
860.9459365176
 20
714.645807248
 30
0.0
 11
867.2959365176
 21
714.645807248
 31
0.0
  0
MTEXT
  5
297
330
291
100
AcDbEntity
  8
BORDER
100
AcDbMText
 10
867.2959365176
 20
717.6631929786
 30
0.0
 40
6.35
 41
0.0
 71
     1
 72
     1
  1
%%c
  7
SLDTEXTSTYLE0
 73
     1
 44
1.0
  0
MTEXT
  5
298
330
291
100
AcDbEntity
  8
BORDER
100
AcDbMText
 10
876.8809091525
 20
717.6631929786
 30
0.0
 40
6.35
 41
0.0
 71
     1
 72
     1
  1
500.00
  7
SLDTEXTSTYLE0
 73
     1
 44
1.0
  0
ENDBLK
  5
293
330
291
100
AcDbEntity
  8
0
100
AcDbBlockEnd
  0
BLOCK
  5
29C
330
29B
100
AcDbEntity
  8
0
100
AcDbBlockBegin
  2
_D_1
 70
     0
 10
0.0
 20
0.0
 30
0.0
  3
_D_1
  1

  0
SOLID
  5
29E
330
29B
100
AcDbEntity
  8
BORDER
100
AcDbTrace
 10
757.9609010766
 20
490.3502991945
 30
0.0
 11
761.0745169599
 21
491.5613582894
 31
0.0
 12
760.5665169599
 22
492.4412400996
 32
0.0
 13
760.5665169599
 23
492.4412400996
 33
0.0
  0
LINE
  5
29F
330
29B
100
AcDbEntity
  8
BORDER
100
AcDbLine
 10
757.9609010766
 20
490.3502991945
 30
0.0
 11
857.8931036075
 21
548.0461832264
 31
0.0
  0
LINE
  5
2A0
330
29B
100
AcDbEntity
  8
BORDER
100
AcDbLine
 10
857.8931036075
 20
548.0461832264
 30
0.0
 11
864.2431036075
 21
548.0461832264
 31
0.0
  0
MTEXT
  5
2A1
330
29B
100
AcDbEntity
  8
BORDER
100
AcDbMText
 10
864.2431036075
 20
551.063568957
 30
0.0
 40
6.35
 41
0.0
 71
     1
 72
     1
  1
%%c
  7
SLDTEXTSTYLE0
 73
     1
 44
1.0
  0
MTEXT
  5
2A2
330
29B
100
AcDbEntity
  8
BORDER
100
AcDbMText
 10
873.8280762424
 20
551.063568957
 30
0.0
 40
6.35
 41
0.0
 71
     1
 72
     1
  1
80.00
  7
SLDTEXTSTYLE0
 73
     1
 44
1.0
  0
ENDBLK
  5
29D
330
29B
100
AcDbEntity
  8
0
100
AcDbBlockEnd
  0
BLOCK
  5
2A6
330
2A5
100
AcDbEntity
  8
0
100
AcDbBlockBegin
  2
_D_2
 70
     0
 10
0.0
 20
0.0
 30
0.0
  3
_D_2
  1

  0
SOLID
  5
2A8
330
2A5
100
AcDbEntity
  8
BORDER
100
AcDbTrace
 10
336.3198849252
 20
500.3502991945
 30
0.0
 11
335.8118849252
 21
497.0482991945
 31
0.0
 12
336.8278849252
 22
497.0482991945
 32
0.0
 13
336.8278849252
 23
497.0482991945
 33
0.0
  0
SOLID
  5
2A9
330
2A5
100
AcDbEntity
  8
BORDER
100
AcDbTrace
 10
336.3198849252
 20
440.3502991945
 30
0.0
 11
336.8278849252
 21
443.6522991945
 31
0.0
 12
335.8118849252
 22
443.6522991945
 32
0.0
 13
335.8118849252
 23
443.6522991945
 33
0.0
  0
LINE
  5
2AA
330
2A5
100
AcDbEntity
  8
BORDER
100
AcDbLine
 10
387.0498849252
 20
500.3502991945
 30
0.0
 11
333.1448849252
 21
500.3502991945
 31
0.0
  0
LINE
  5
2AB
330
2A5
100
AcDbEntity
  8
BORDER
100
AcDbLine
 10
387.0498849252
 20
440.3502991945
 30
0.0
 11
333.1448849252
 21
440.3502991945
 31
0.0
  0
LINE
  5
2AC
330
2A5
100
AcDbEntity
  8
BORDER
100
AcDbLine
 10
336.3198849252
 20
500.3502991945
 30
0.0
 11
336.3198849252
 21
474.1452333564
 31
0.0
  0
LINE
  5
2AD
330
2A5
100
AcDbEntity
  8
BORDER
100
AcDbLine
 10
336.3198849252
 20
440.3502991945
 30
0.0
 11
336.3198849252
 21
464.0557893599
 31
0.0
  0
MTEXT
  5
2AE
330
2A5
100
AcDbEntity
  8
BORDER
100
AcDbMText
 10
325.7659493825
 20
472.2413685761
 30
0.0
 40
6.35
 41
0.0
 71
     1
 72
     1
  1
60.00
  7
SLDTEXTSTYLE0
 73
     1
 44
1.0
  0
ENDBLK
  5
2A7
330
2A5
100
AcDbEntity
  8
0
100
AcDbBlockEnd
  0
BLOCK
  5
2B1
330
2B0
100
AcDbEntity
  8
0
100
AcDbBlockBegin
  2
_D_3
 70
     0
 10
0.0
 20
0.0
 30
0.0
  3
_D_3
  1

  0
SOLID
  5
2B3
330
2B0
100
AcDbEntity
  8
BORDER
100
AcDbTrace
 10
444.29144069
 20
359.8067791998
 30
0.0
 11
440.9704735367
 21
359.4428490326
 31
0.0
 12
441.2334336865
 22
358.4614683931
 32
0.0
 13
441.2334336865
 23
358.4614683931
 33
0.0
  0
LINE
  5
2B4
330
2B0
100
AcDbEntity
  8
BORDER
100
AcDbLine
 10
444.29144069
 20
359.8067791998
 30
0.0
 11
389.8057937828
 21
345.2073941119
 31
0.0
  0
LINE
  5
2B5
330
2B0
100
AcDbEntity
  8
BORDER
100
AcDbLine
 10
389.8057937828
 20
345.2073941119
 30
0.0
 11
383.4557937828
 21
345.2073941119
 31
0.0
  0
MTEXT
  5
2B6
330
2B0
100
AcDbEntity
  8
BORDER
100
AcDbMText
 10
357.4548954514
 20
348.2247798425
 30
0.0
 40
6.35
 41
0.0
 71
     1
 72
     1
  1
%%c
  7
SLDTEXTSTYLE0
 73
     1
 44
1.0
  0
MTEXT
  5
2B7
330
2B0
100
AcDbEntity
  8
BORDER
100
AcDbMText
 10
367.0398680863
 20
348.2247798425
 30
0.0
 40
6.35
 41
0.0
 71
     1
 72
     1
  1
4.20
  7
SLDTEXTSTYLE0
 73
     1
 44
1.0
  0
ENDBLK
  5
2B2
330
2B0
100
AcDbEntity
  8
0
100
AcDbBlockEnd
  0
BLOCK
  5
2BA
330
2B9
100
AcDbEntity
  8
0
100
AcDbBlockBegin
  2
_D_4
 70
     0
 10
0.0
 20
0.0
 30
0.0
  3
_D_4
  1

  0
SOLID
  5
2BC
330
2B9
100
AcDbEntity
  8
BORDER
100
AcDbTrace
 10
457.7198849252
 20
481.389529679
 30
0.0
 11
456.5088258303
 21
484.5031455623
 31
0.0
 12
455.6289440201
 22
483.9951455623
 32
0.0
 13
455.6289440201
 23
483.9951455623
 33
0.0
  0
LINE
  5
2BD
330
2B9
100
AcDbEntity
  8
BORDER
100
AcDbLine
 10
457.7198849252
 20
481.389529679
 30
0.0
 11
389.1058865735
 21
600.2324609345
 31
0.0
  0
LINE
  5
2BE
330
2B9
100
AcDbEntity
  8
BORDER
100
AcDbLine
 10
389.1058865735
 20
600.2324609345
 30
0.0
 11
382.7558865735
 21
600.2324609345
 31
0.0
  0
MTEXT
  5
2BF
330
2B9
100
AcDbEntity
  8
BORDER
100
AcDbMText
 10
356.7549882421
 20
603.2498466652
 30
0.0
 40
6.35
 41
0.0
 71
     1
 72
     1
  1
%%c
  7
SLDTEXTSTYLE0
 73
     1
 44
1.0
  0
MTEXT
  5
2C0
330
2B9
100
AcDbEntity
  8
BORDER
100
AcDbMText
 10
366.339960877
 20
603.2498466652
 30
0.0
 40
6.35
 41
0.0
 71
     1
 72
     1
  1
2.40
  7
SLDTEXTSTYLE0
 73
     1
 44
1.0
  0
ENDBLK
  5
2BB
330
2B9
100
AcDbEntity
  8
0
100
AcDbBlockEnd
  0
BLOCK
  5
2C4
330
2C3
100
AcDbEntity
  8
0
100
AcDbBlockBegin
  2
_Dot
 70
     0
 10
0.0
 20
0.0
 30
0.0
  3
_Dot
  1

  0
LWPOLYLINE
  5
2C6
330
2C3
100
AcDbEntity
  8
0
  6
ByBlock
 62
     0
100
AcDbPolyline
 90
        2
 70
     1
 43
0.5
 10
-0.25
 20
0.0
 42
1.0
 10
0.25
 20
0.0
 42
1.0
  0
LINE
  5
2C7
330
2C3
100
AcDbEntity
  8
0
  6
ByBlock
 62
     0
370
    -2
100
AcDbLine
 10
-0.5
 20
0.0
 30
0.0
 11
-1.0
 21
0.0
 31
0.0
  0
ENDBLK
  5
2C5
330
2C3
100
AcDbEntity
  8
0
100
AcDbBlockEnd
  0
BLOCK
  5
2CA
330
2C9
100
AcDbEntity
  8
0
100
AcDbBlockBegin
  2
SW_CENTERMARKSYMBOL_0
 70
     0
 10
0.0
 20
0.0
 30
0.0
  3
SW_CENTERMARKSYMBOL_0
  1

  0
LINE
  5
2CC
330
2C9
100
AcDbEntity
  8
BORDER
 62
     0
100
AcDbLine
 10
0.0
 20
0.0
 30
0.0
 11
0.0
 21
2.54
 31
0.0
  0
LINE
  5
2CD
330
2C9
100
AcDbEntity
  8
BORDER
 62
     0
100
AcDbLine
 10
0.0
 20
0.0
 30
0.0
 11
-2.54
 21
0.0
 31
0.0
  0
LINE
  5
2CE
330
2C9
100
AcDbEntity
  8
BORDER
 62
     0
100
AcDbLine
 10
0.0
 20
0.0
 30
0.0
 11
0.0
 21
-2.54
 31
0.0
  0
LINE
  5
2CF
330
2C9
100
AcDbEntity
  8
BORDER
 62
     0
100
AcDbLine
 10
0.0
 20
0.0
 30
0.0
 11
2.54
 21
0.0
 31
0.0
  0
LINE
  5
2D0
330
2C9
100
AcDbEntity
  8
BORDER
 62
     0
100
AcDbLine
 10
0.0
 20
5.08
 30
0.0
 11
0.0
 21
42.54
 31
0.0
  0
LINE
  5
2D1
330
2C9
100
AcDbEntity
  8
BORDER
 62
     0
100
AcDbLine
 10
-5.08
 20
0.0
 30
0.0
 11
-42.54
 21
0.0
 31
0.0
  0
LINE
  5
2D2
330
2C9
100
AcDbEntity
  8
BORDER
 62
     0
100
AcDbLine
 10
0.0
 20
-5.08
 30
0.0
 11
0.0
 21
-42.54
 31
0.0
  0
LINE
  5
2D3
330
2C9
100
AcDbEntity
  8
BORDER
 62
     0
100
AcDbLine
 10
5.08
 20
0.0
 30
0.0
 11
42.54
 21
0.0
 31
0.0
  0
ENDBLK
  5
2CB
330
2C9
100
AcDbEntity
  8
0
100
AcDbBlockEnd
  0
BLOCK
  5
2D6
330
2D5
100
AcDbEntity
  8
0
100
AcDbBlockBegin
  2
SW_CENTERMARKSYMBOL_1
 70
     0
 10
0.0
 20
0.0
 30
0.0
  3
SW_CENTERMARKSYMBOL_1
  1

  0
LINE
  5
2D8
330
2D5
100
AcDbEntity
  8
BORDER
 62
     0
100
AcDbLine
 10
0.0
 20
0.0
 30
0.0
 11
0.0
 21
2.54
 31
0.0
  0
LINE
  5
2D9
330
2D5
100
AcDbEntity
  8
BORDER
 62
     0
100
AcDbLine
 10
0.0
 20
0.0
 30
0.0
 11
-2.54
 21
0.0
 31
0.0
  0
LINE
  5
2DA
330
2D5
100
AcDbEntity
  8
BORDER
 62
     0
100
AcDbLine
 10
0.0
 20
0.0
 30
0.0
 11
0.0
 21
-2.54
 31
0.0
  0
LINE
  5
2DB
330
2D5
100
AcDbEntity
  8
BORDER
 62
     0
100
AcDbLine
 10
0.0
 20
0.0
 30
0.0
 11
2.54
 21
0.0
 31
0.0
  0
LINE
  5
2DC
330
2D5
100
AcDbEntity
  8
BORDER
 62
     0
100
AcDbLine
 10
0.0
 20
2.54
 30
0.0
 11
0.0
 21
4.64
 31
0.0
  0
LINE
  5
2DD
330
2D5
100
AcDbEntity
  8
BORDER
 62
     0
100
AcDbLine
 10
-2.54
 20
0.0
 30
0.0
 11
-4.64
 21
0.0
 31
0.0
  0
LINE
  5
2DE
330
2D5
100
AcDbEntity
  8
BORDER
 62
     0
100
AcDbLine
 10
0.0
 20
-2.54
 30
0.0
 11
0.0
 21
-4.64
 31
0.0
  0
LINE
  5
2DF
330
2D5
100
AcDbEntity
  8
BORDER
 62
     0
100
AcDbLine
 10
2.54
 20
0.0
 30
0.0
 11
4.64
 21
0.0
 31
0.0
  0
ENDBLK
  5
2D7
330
2D5
100
AcDbEntity
  8
0
100
AcDbBlockEnd
  0
BLOCK
  5
2E2
330
2E1
100
AcDbEntity
  8
0
100
AcDbBlockBegin
  2
SW_CENTERMARKSYMBOL_2
 70
     0
 10
0.0
 20
0.0
 30
0.0
  3
SW_CENTERMARKSYMBOL_2
  1

  0
LINE
  5
2E4
330
2E1
100
AcDbEntity
  8
BORDER
 62
     0
100
AcDbLine
 10
0.0
 20
0.0
 30
0.0
 11
0.0
 21
2.54
 31
0.0
  0
LINE
  5
2E5
330
2E1
100
AcDbEntity
  8
BORDER
 62
     0
100
AcDbLine
 10
0.0
 20
0.0
 30
0.0
 11
-2.54
 21
0.0
 31
0.0
  0
LINE
  5
2E6
330
2E1
100
AcDbEntity
  8
BORDER
 62
     0
100
AcDbLine
 10
0.0
 20
0.0
 30
0.0
 11
0.0
 21
-2.54
 31
0.0
  0
LINE
  5
2E7
330
2E1
100
AcDbEntity
  8
BORDER
 62
     0
100
AcDbLine
 10
0.0
 20
0.0
 30
0.0
 11
2.54
 21
0.0
 31
0.0
  0
LINE
  5
2E8
330
2E1
100
AcDbEntity
  8
BORDER
 62
     0
100
AcDbLine
 10
0.0
 20
2.54
 30
0.0
 11
0.0
 21
4.64
 31
0.0
  0
LINE
  5
2E9
330
2E1
100
AcDbEntity
  8
BORDER
 62
     0
100
AcDbLine
 10
-2.54
 20
0.0
 30
0.0
 11
-4.64
 21
0.0
 31
0.0
  0
LINE
  5
2EA
330
2E1
100
AcDbEntity
  8
BORDER
 62
     0
100
AcDbLine
 10
0.0
 20
-2.54
 30
0.0
 11
0.0
 21
-4.64
 31
0.0
  0
LINE
  5
2EB
330
2E1
100
AcDbEntity
  8
BORDER
 62
     0
100
AcDbLine
 10
2.54
 20
0.0
 30
0.0
 11
4.64
 21
0.0
 31
0.0
  0
ENDBLK
  5
2E3
330
2E1
100
AcDbEntity
  8
0
100
AcDbBlockEnd
  0
BLOCK
  5
2EE
330
2ED
100
AcDbEntity
  8
0
100
AcDbBlockBegin
  2
SW_CENTERMARKSYMBOL_3
 70
     0
 10
0.0
 20
0.0
 30
0.0
  3
SW_CENTERMARKSYMBOL_3
  1

  0
LINE
  5
2F0
330
2ED
100
AcDbEntity
  8
BORDER
 62
     0
100
AcDbLine
 10
0.0
 20
0.0
 30
0.0
 11
0.0
 21
2.54
 31
0.0
  0
LINE
  5
2F1
330
2ED
100
AcDbEntity
  8
BORDER
 62
     0
100
AcDbLine
 10
0.0
 20
0.0
 30
0.0
 11
-2.54
 21
0.0
 31
0.0
  0
LINE
  5
2F2
330
2ED
100
AcDbEntity
  8
BORDER
 62
     0
100
AcDbLine
 10
0.0
 20
0.0
 30
0.0
 11
0.0
 21
-2.54
 31
0.0
  0
LINE
  5
2F3
330
2ED
100
AcDbEntity
  8
BORDER
 62
     0
100
AcDbLine
 10
0.0
 20
0.0
 30
0.0
 11
2.54
 21
0.0
 31
0.0
  0
LINE
  5
2F4
330
2ED
100
AcDbEntity
  8
BORDER
 62
     0
100
AcDbLine
 10
0.0
 20
2.54
 30
0.0
 11
0.0
 21
4.64
 31
0.0
  0
LINE
  5
2F5
330
2ED
100
AcDbEntity
  8
BORDER
 62
     0
100
AcDbLine
 10
-2.54
 20
0.0
 30
0.0
 11
-4.64
 21
0.0
 31
0.0
  0
LINE
  5
2F6
330
2ED
100
AcDbEntity
  8
BORDER
 62
     0
100
AcDbLine
 10
0.0
 20
-2.54
 30
0.0
 11
0.0
 21
-4.64
 31
0.0
  0
LINE
  5
2F7
330
2ED
100
AcDbEntity
  8
BORDER
 62
     0
100
AcDbLine
 10
2.54
 20
0.0
 30
0.0
 11
4.64
 21
0.0
 31
0.0
  0
ENDBLK
  5
2EF
330
2ED
100
AcDbEntity
  8
0
100
AcDbBlockEnd
  0
BLOCK
  5
2FA
330
2F9
100
AcDbEntity
  8
0
100
AcDbBlockBegin
  2
SW_CENTERMARKSYMBOL_4
 70
     0
 10
0.0
 20
0.0
 30
0.0
  3
SW_CENTERMARKSYMBOL_4
  1

  0
LINE
  5
2FC
330
2F9
100
AcDbEntity
  8
BORDER
 62
     0
100
AcDbLine
 10
0.0
 20
0.0
 30
0.0
 11
0.0
 21
2.54
 31
0.0
  0
LINE
  5
2FD
330
2F9
100
AcDbEntity
  8
BORDER
 62
     0
100
AcDbLine
 10
0.0
 20
0.0
 30
0.0
 11
-2.54
 21
0.0
 31
0.0
  0
LINE
  5
2FE
330
2F9
100
AcDbEntity
  8
BORDER
 62
     0
100
AcDbLine
 10
0.0
 20
0.0
 30
0.0
 11
0.0
 21
-2.54
 31
0.0
  0
LINE
  5
2FF
330
2F9
100
AcDbEntity
  8
BORDER
 62
     0
100
AcDbLine
 10
0.0
 20
0.0
 30
0.0
 11
2.54
 21
0.0
 31
0.0
  0
LINE
  5
300
330
2F9
100
AcDbEntity
  8
BORDER
 62
     0
100
AcDbLine
 10
0.0
 20
2.54
 30
0.0
 11
0.0
 21
4.64
 31
0.0
  0
LINE
  5
301
330
2F9
100
AcDbEntity
  8
BORDER
 62
     0
100
AcDbLine
 10
-2.54
 20
0.0
 30
0.0
 11
-4.64
 21
0.0
 31
0.0
  0
LINE
  5
302
330
2F9
100
AcDbEntity
  8
BORDER
 62
     0
100
AcDbLine
 10
0.0
 20
-2.54
 30
0.0
 11
0.0
 21
-4.64
 31
0.0
  0
LINE
  5
303
330
2F9
100
AcDbEntity
  8
BORDER
 62
     0
100
AcDbLine
 10
2.54
 20
0.0
 30
0.0
 11
4.64
 21
0.0
 31
0.0
  0
ENDBLK
  5
2FB
330
2F9
100
AcDbEntity
  8
0
100
AcDbBlockEnd
  0
BLOCK
  5
306
330
305
100
AcDbEntity
  8
0
100
AcDbBlockBegin
  2
SW_CENTERMARKSYMBOL_5
 70
     0
 10
0.0
 20
0.0
 30
0.0
  3
SW_CENTERMARKSYMBOL_5
  1

  0
LINE
  5
308
330
305
100
AcDbEntity
  8
BORDER
 62
     0
100
AcDbLine
 10
0.0
 20
0.0
 30
0.0
 11
0.0
 21
2.54
 31
0.0
  0
LINE
  5
309
330
305
100
AcDbEntity
  8
BORDER
 62
     0
100
AcDbLine
 10
0.0
 20
0.0
 30
0.0
 11
-2.54
 21
0.0
 31
0.0
  0
LINE
  5
30A
330
305
100
AcDbEntity
  8
BORDER
 62
     0
100
AcDbLine
 10
0.0
 20
0.0
 30
0.0
 11
0.0
 21
-2.54
 31
0.0
  0
LINE
  5
30B
330
305
100
AcDbEntity
  8
BORDER
 62
     0
100
AcDbLine
 10
0.0
 20
0.0
 30
0.0
 11
2.54
 21
0.0
 31
0.0
  0
LINE
  5
30C
330
305
100
AcDbEntity
  8
BORDER
 62
     0
100
AcDbLine
 10
0.0
 20
2.54
 30
0.0
 11
0.0
 21
4.64
 31
0.0
  0
LINE
  5
30D
330
305
100
AcDbEntity
  8
BORDER
 62
     0
100
AcDbLine
 10
-2.54
 20
0.0
 30
0.0
 11
-4.64
 21
0.0
 31
0.0
  0
LINE
  5
30E
330
305
100
AcDbEntity
  8
BORDER
 62
     0
100
AcDbLine
 10
0.0
 20
-2.54
 30
0.0
 11
0.0
 21
-4.64
 31
0.0
  0
LINE
  5
30F
330
305
100
AcDbEntity
  8
BORDER
 62
     0
100
AcDbLine
 10
2.54
 20
0.0
 30
0.0
 11
4.64
 21
0.0
 31
0.0
  0
ENDBLK
  5
307
330
305
100
AcDbEntity
  8
0
100
AcDbBlockEnd
  0
BLOCK
  5
312
330
311
100
AcDbEntity
  8
0
100
AcDbBlockBegin
  2
SW_CENTERMARKSYMBOL_6
 70
     0
 10
0.0
 20
0.0
 30
0.0
  3
SW_CENTERMARKSYMBOL_6
  1

  0
LINE
  5
314
330
311
100
AcDbEntity
  8
BORDER
 62
     0
100
AcDbLine
 10
0.0
 20
0.0
 30
0.0
 11
0.0
 21
2.54
 31
0.0
  0
LINE
  5
315
330
311
100
AcDbEntity
  8
BORDER
 62
     0
100
AcDbLine
 10
0.0
 20
0.0
 30
0.0
 11
-2.54
 21
0.0
 31
0.0
  0
LINE
  5
316
330
311
100
AcDbEntity
  8
BORDER
 62
     0
100
AcDbLine
 10
0.0
 20
0.0
 30
0.0
 11
0.0
 21
-2.54
 31
0.0
  0
LINE
  5
317
330
311
100
AcDbEntity
  8
BORDER
 62
     0
100
AcDbLine
 10
0.0
 20
0.0
 30
0.0
 11
2.54
 21
0.0
 31
0.0
  0
LINE
  5
318
330
311
100
AcDbEntity
  8
BORDER
 62
     0
100
AcDbLine
 10
0.0
 20
2.54
 30
0.0
 11
0.0
 21
4.64
 31
0.0
  0
LINE
  5
319
330
311
100
AcDbEntity
  8
BORDER
 62
     0
100
AcDbLine
 10
-2.54
 20
0.0
 30
0.0
 11
-4.64
 21
0.0
 31
0.0
  0
LINE
  5
31A
330
311
100
AcDbEntity
  8
BORDER
 62
     0
100
AcDbLine
 10
0.0
 20
-2.54
 30
0.0
 11
0.0
 21
-4.64
 31
0.0
  0
LINE
  5
31B
330
311
100
AcDbEntity
  8
BORDER
 62
     0
100
AcDbLine
 10
2.54
 20
0.0
 30
0.0
 11
4.64
 21
0.0
 31
0.0
  0
ENDBLK
  5
313
330
311
100
AcDbEntity
  8
0
100
AcDbBlockEnd
  0
BLOCK
  5
31E
330
31D
100
AcDbEntity
  8
0
100
AcDbBlockBegin
  2
SW_CENTERMARKSYMBOL_7
 70
     0
 10
0.0
 20
0.0
 30
0.0
  3
SW_CENTERMARKSYMBOL_7
  1

  0
LINE
  5
320
330
31D
100
AcDbEntity
  8
BORDER
 62
     0
100
AcDbLine
 10
0.0
 20
0.0
 30
0.0
 11
0.0
 21
2.54
 31
0.0
  0
LINE
  5
321
330
31D
100
AcDbEntity
  8
BORDER
 62
     0
100
AcDbLine
 10
0.0
 20
0.0
 30
0.0
 11
-2.54
 21
0.0
 31
0.0
  0
LINE
  5
322
330
31D
100
AcDbEntity
  8
BORDER
 62
     0
100
AcDbLine
 10
0.0
 20
0.0
 30
0.0
 11
0.0
 21
-2.54
 31
0.0
  0
LINE
  5
323
330
31D
100
AcDbEntity
  8
BORDER
 62
     0
100
AcDbLine
 10
0.0
 20
0.0
 30
0.0
 11
2.54
 21
0.0
 31
0.0
  0
LINE
  5
324
330
31D
100
AcDbEntity
  8
BORDER
 62
     0
100
AcDbLine
 10
0.0
 20
2.54
 30
0.0
 11
0.0
 21
4.64
 31
0.0
  0
LINE
  5
325
330
31D
100
AcDbEntity
  8
BORDER
 62
     0
100
AcDbLine
 10
-2.54
 20
0.0
 30
0.0
 11
-4.64
 21
0.0
 31
0.0
  0
LINE
  5
326
330
31D
100
AcDbEntity
  8
BORDER
 62
     0
100
AcDbLine
 10
0.0
 20
-2.54
 30
0.0
 11
0.0
 21
-4.64
 31
0.0
  0
LINE
  5
327
330
31D
100
AcDbEntity
  8
BORDER
 62
     0
100
AcDbLine
 10
2.54
 20
0.0
 30
0.0
 11
4.64
 21
0.0
 31
0.0
  0
ENDBLK
  5
31F
330
31D
100
AcDbEntity
  8
0
100
AcDbBlockEnd
  0
BLOCK
  5
32A
330
329
100
AcDbEntity
  8
0
100
AcDbBlockBegin
  2
SW_CENTERMARKSYMBOL_8
 70
     0
 10
0.0
 20
0.0
 30
0.0
  3
SW_CENTERMARKSYMBOL_8
  1

  0
LINE
  5
32C
330
329
100
AcDbEntity
  8
BORDER
 62
     0
100
AcDbLine
 10
0.0
 20
0.0
 30
0.0
 11
0.0
 21
2.54
 31
0.0
  0
LINE
  5
32D
330
329
100
AcDbEntity
  8
BORDER
 62
     0
100
AcDbLine
 10
0.0
 20
0.0
 30
0.0
 11
-2.54
 21
0.0
 31
0.0
  0
LINE
  5
32E
330
329
100
AcDbEntity
  8
BORDER
 62
     0
100
AcDbLine
 10
0.0
 20
0.0
 30
0.0
 11
0.0
 21
-2.54
 31
0.0
  0
LINE
  5
32F
330
329
100
AcDbEntity
  8
BORDER
 62
     0
100
AcDbLine
 10
0.0
 20
0.0
 30
0.0
 11
2.54
 21
0.0
 31
0.0
  0
LINE
  5
330
330
329
100
AcDbEntity
  8
BORDER
 62
     0
100
AcDbLine
 10
0.0
 20
2.54
 30
0.0
 11
0.0
 21
4.64
 31
0.0
  0
LINE
  5
331
330
329
100
AcDbEntity
  8
BORDER
 62
     0
100
AcDbLine
 10
-2.54
 20
0.0
 30
0.0
 11
-4.64
 21
0.0
 31
0.0
  0
LINE
  5
332
330
329
100
AcDbEntity
  8
BORDER
 62
     0
100
AcDbLine
 10
0.0
 20
-2.54
 30
0.0
 11
0.0
 21
-4.64
 31
0.0
  0
LINE
  5
333
330
329
100
AcDbEntity
  8
BORDER
 62
     0
100
AcDbLine
 10
2.54
 20
0.0
 30
0.0
 11
4.64
 21
0.0
 31
0.0
  0
ENDBLK
  5
32B
330
329
100
AcDbEntity
  8
0
100
AcDbBlockEnd
  0
BLOCK
  5
336
330
335
100
AcDbEntity
  8
0
100
AcDbBlockBegin
  2
SW_CENTERMARKSYMBOL_9
 70
     0
 10
0.0
 20
0.0
 30
0.0
  3
SW_CENTERMARKSYMBOL_9
  1

  0
LINE
  5
338
330
335
100
AcDbEntity
  8
BORDER
 62
     0
100
AcDbLine
 10
0.0
 20
0.0
 30
0.0
 11
0.0
 21
2.54
 31
0.0
  0
LINE
  5
339
330
335
100
AcDbEntity
  8
BORDER
 62
     0
100
AcDbLine
 10
0.0
 20
0.0
 30
0.0
 11
-2.54
 21
0.0
 31
0.0
  0
LINE
  5
33A
330
335
100
AcDbEntity
  8
BORDER
 62
     0
100
AcDbLine
 10
0.0
 20
0.0
 30
0.0
 11
0.0
 21
-2.54
 31
0.0
  0
LINE
  5
33B
330
335
100
AcDbEntity
  8
BORDER
 62
     0
100
AcDbLine
 10
0.0
 20
0.0
 30
0.0
 11
2.54
 21
0.0
 31
0.0
  0
LINE
  5
33C
330
335
100
AcDbEntity
  8
BORDER
 62
     0
100
AcDbLine
 10
0.0
 20
2.54
 30
0.0
 11
0.0
 21
4.64
 31
0.0
  0
LINE
  5
33D
330
335
100
AcDbEntity
  8
BORDER
 62
     0
100
AcDbLine
 10
-2.54
 20
0.0
 30
0.0
 11
-4.64
 21
0.0
 31
0.0
  0
LINE
  5
33E
330
335
100
AcDbEntity
  8
BORDER
 62
     0
100
AcDbLine
 10
0.0
 20
-2.54
 30
0.0
 11
0.0
 21
-4.64
 31
0.0
  0
LINE
  5
33F
330
335
100
AcDbEntity
  8
BORDER
 62
     0
100
AcDbLine
 10
2.54
 20
0.0
 30
0.0
 11
4.64
 21
0.0
 31
0.0
  0
ENDBLK
  5
337
330
335
100
AcDbEntity
  8
0
100
AcDbBlockEnd
  0
BLOCK
  5
342
330
341
100
AcDbEntity
  8
0
100
AcDbBlockBegin
  2
SW_CENTERMARKSYMBOL_10
 70
     0
 10
0.0
 20
0.0
 30
0.0
  3
SW_CENTERMARKSYMBOL_10
  1

  0
LINE
  5
344
330
341
100
AcDbEntity
  8
BORDER
 62
     0
100
AcDbLine
 10
0.0
 20
0.0
 30
0.0
 11
0.0
 21
2.54
 31
0.0
  0
LINE
  5
345
330
341
100
AcDbEntity
  8
BORDER
 62
     0
100
AcDbLine
 10
0.0
 20
0.0
 30
0.0
 11
-2.54
 21
0.0
 31
0.0
  0
LINE
  5
346
330
341
100
AcDbEntity
  8
BORDER
 62
     0
100
AcDbLine
 10
0.0
 20
0.0
 30
0.0
 11
0.0
 21
-2.54
 31
0.0
  0
LINE
  5
347
330
341
100
AcDbEntity
  8
BORDER
 62
     0
100
AcDbLine
 10
0.0
 20
0.0
 30
0.0
 11
2.54
 21
0.0
 31
0.0
  0
LINE
  5
348
330
341
100
AcDbEntity
  8
BORDER
 62
     0
100
AcDbLine
 10
0.0
 20
2.54
 30
0.0
 11
0.0
 21
4.64
 31
0.0
  0
LINE
  5
349
330
341
100
AcDbEntity
  8
BORDER
 62
     0
100
AcDbLine
 10
-2.54
 20
0.0
 30
0.0
 11
-4.64
 21
0.0
 31
0.0
  0
LINE
  5
34A
330
341
100
AcDbEntity
  8
BORDER
 62
     0
100
AcDbLine
 10
0.0
 20
-2.54
 30
0.0
 11
0.0
 21
-4.64
 31
0.0
  0
LINE
  5
34B
330
341
100
AcDbEntity
  8
BORDER
 62
     0
100
AcDbLine
 10
2.54
 20
0.0
 30
0.0
 11
4.64
 21
0.0
 31
0.0
  0
ENDBLK
  5
343
330
341
100
AcDbEntity
  8
0
100
AcDbBlockEnd
  0
BLOCK
  5
34E
330
34D
100
AcDbEntity
  8
0
100
AcDbBlockBegin
  2
SW_CENTERMARKSYMBOL_11
 70
     0
 10
0.0
 20
0.0
 30
0.0
  3
SW_CENTERMARKSYMBOL_11
  1

  0
LINE
  5
350
330
34D
100
AcDbEntity
  8
BORDER
 62
     0
100
AcDbLine
 10
0.0
 20
0.0
 30
0.0
 11
0.0
 21
2.54
 31
0.0
  0
LINE
  5
351
330
34D
100
AcDbEntity
  8
BORDER
 62
     0
100
AcDbLine
 10
0.0
 20
0.0
 30
0.0
 11
-2.54
 21
0.0
 31
0.0
  0
LINE
  5
352
330
34D
100
AcDbEntity
  8
BORDER
 62
     0
100
AcDbLine
 10
0.0
 20
0.0
 30
0.0
 11
0.0
 21
-2.54
 31
0.0
  0
LINE
  5
353
330
34D
100
AcDbEntity
  8
BORDER
 62
     0
100
AcDbLine
 10
0.0
 20
0.0
 30
0.0
 11
2.54
 21
0.0
 31
0.0
  0
LINE
  5
354
330
34D
100
AcDbEntity
  8
BORDER
 62
     0
100
AcDbLine
 10
0.0
 20
2.54
 30
0.0
 11
0.0
 21
4.64
 31
0.0
  0
LINE
  5
355
330
34D
100
AcDbEntity
  8
BORDER
 62
     0
100
AcDbLine
 10
-2.54
 20
0.0
 30
0.0
 11
-4.64
 21
0.0
 31
0.0
  0
LINE
  5
356
330
34D
100
AcDbEntity
  8
BORDER
 62
     0
100
AcDbLine
 10
0.0
 20
-2.54
 30
0.0
 11
0.0
 21
-4.64
 31
0.0
  0
LINE
  5
357
330
34D
100
AcDbEntity
  8
BORDER
 62
     0
100
AcDbLine
 10
2.54
 20
0.0
 30
0.0
 11
4.64
 21
0.0
 31
0.0
  0
ENDBLK
  5
34F
330
34D
100
AcDbEntity
  8
0
100
AcDbBlockEnd
  0
BLOCK
  5
35A
330
359
100
AcDbEntity
  8
0
100
AcDbBlockBegin
  2
SW_CENTERMARKSYMBOL_12
 70
     0
 10
0.0
 20
0.0
 30
0.0
  3
SW_CENTERMARKSYMBOL_12
  1

  0
LINE
  5
35C
330
359
100
AcDbEntity
  8
BORDER
 62
     0
100
AcDbLine
 10
0.0
 20
0.0
 30
0.0
 11
0.0
 21
2.54
 31
0.0
  0
LINE
  5
35D
330
359
100
AcDbEntity
  8
BORDER
 62
     0
100
AcDbLine
 10
0.0
 20
0.0
 30
0.0
 11
-2.54
 21
0.0
 31
0.0
  0
LINE
  5
35E
330
359
100
AcDbEntity
  8
BORDER
 62
     0
100
AcDbLine
 10
0.0
 20
0.0
 30
0.0
 11
0.0
 21
-2.54
 31
0.0
  0
LINE
  5
35F
330
359
100
AcDbEntity
  8
BORDER
 62
     0
100
AcDbLine
 10
0.0
 20
0.0
 30
0.0
 11
2.54
 21
0.0
 31
0.0
  0
LINE
  5
360
330
359
100
AcDbEntity
  8
BORDER
 62
     0
100
AcDbLine
 10
0.0
 20
2.54
 30
0.0
 11
0.0
 21
4.64
 31
0.0
  0
LINE
  5
361
330
359
100
AcDbEntity
  8
BORDER
 62
     0
100
AcDbLine
 10
-2.54
 20
0.0
 30
0.0
 11
-4.64
 21
0.0
 31
0.0
  0
LINE
  5
362
330
359
100
AcDbEntity
  8
BORDER
 62
     0
100
AcDbLine
 10
0.0
 20
-2.54
 30
0.0
 11
0.0
 21
-4.64
 31
0.0
  0
LINE
  5
363
330
359
100
AcDbEntity
  8
BORDER
 62
     0
100
AcDbLine
 10
2.54
 20
0.0
 30
0.0
 11
4.64
 21
0.0
 31
0.0
  0
ENDBLK
  5
35B
330
359
100
AcDbEntity
  8
0
100
AcDbBlockEnd
  0
BLOCK
  5
366
330
365
100
AcDbEntity
  8
0
100
AcDbBlockBegin
  2
SW_CENTERMARKSYMBOL_13
 70
     0
 10
0.0
 20
0.0
 30
0.0
  3
SW_CENTERMARKSYMBOL_13
  1

  0
LINE
  5
368
330
365
100
AcDbEntity
  8
BORDER
 62
     0
100
AcDbLine
 10
0.0
 20
0.0
 30
0.0
 11
0.0
 21
2.54
 31
0.0
  0
LINE
  5
369
330
365
100
AcDbEntity
  8
BORDER
 62
     0
100
AcDbLine
 10
0.0
 20
0.0
 30
0.0
 11
-2.54
 21
0.0
 31
0.0
  0
LINE
  5
36A
330
365
100
AcDbEntity
  8
BORDER
 62
     0
100
AcDbLine
 10
0.0
 20
0.0
 30
0.0
 11
0.0
 21
-2.54
 31
0.0
  0
LINE
  5
36B
330
365
100
AcDbEntity
  8
BORDER
 62
     0
100
AcDbLine
 10
0.0
 20
0.0
 30
0.0
 11
2.54
 21
0.0
 31
0.0
  0
LINE
  5
36C
330
365
100
AcDbEntity
  8
BORDER
 62
     0
100
AcDbLine
 10
0.0
 20
2.54
 30
0.0
 11
0.0
 21
4.64
 31
0.0
  0
LINE
  5
36D
330
365
100
AcDbEntity
  8
BORDER
 62
     0
100
AcDbLine
 10
-2.54
 20
0.0
 30
0.0
 11
-4.64
 21
0.0
 31
0.0
  0
LINE
  5
36E
330
365
100
AcDbEntity
  8
BORDER
 62
     0
100
AcDbLine
 10
0.0
 20
-2.54
 30
0.0
 11
0.0
 21
-4.64
 31
0.0
  0
LINE
  5
36F
330
365
100
AcDbEntity
  8
BORDER
 62
     0
100
AcDbLine
 10
2.54
 20
0.0
 30
0.0
 11
4.64
 21
0.0
 31
0.0
  0
ENDBLK
  5
367
330
365
100
AcDbEntity
  8
0
100
AcDbBlockEnd
  0
BLOCK
  5
372
330
371
100
AcDbEntity
  8
0
100
AcDbBlockBegin
  2
SW_CENTERMARKSYMBOL_14
 70
     0
 10
0.0
 20
0.0
 30
0.0
  3
SW_CENTERMARKSYMBOL_14
  1

  0
LINE
  5
374
330
371
100
AcDbEntity
  8
BORDER
 62
     0
100
AcDbLine
 10
0.0
 20
0.0
 30
0.0
 11
0.0
 21
2.54
 31
0.0
  0
LINE
  5
375
330
371
100
AcDbEntity
  8
BORDER
 62
     0
100
AcDbLine
 10
0.0
 20
0.0
 30
0.0
 11
-2.54
 21
0.0
 31
0.0
  0
LINE
  5
376
330
371
100
AcDbEntity
  8
BORDER
 62
     0
100
AcDbLine
 10
0.0
 20
0.0
 30
0.0
 11
0.0
 21
-2.54
 31
0.0
  0
LINE
  5
377
330
371
100
AcDbEntity
  8
BORDER
 62
     0
100
AcDbLine
 10
0.0
 20
0.0
 30
0.0
 11
2.54
 21
0.0
 31
0.0
  0
LINE
  5
378
330
371
100
AcDbEntity
  8
BORDER
 62
     0
100
AcDbLine
 10
0.0
 20
2.54
 30
0.0
 11
0.0
 21
4.64
 31
0.0
  0
LINE
  5
379
330
371
100
AcDbEntity
  8
BORDER
 62
     0
100
AcDbLine
 10
-2.54
 20
0.0
 30
0.0
 11
-4.64
 21
0.0
 31
0.0
  0
LINE
  5
37A
330
371
100
AcDbEntity
  8
BORDER
 62
     0
100
AcDbLine
 10
0.0
 20
-2.54
 30
0.0
 11
0.0
 21
-4.64
 31
0.0
  0
LINE
  5
37B
330
371
100
AcDbEntity
  8
BORDER
 62
     0
100
AcDbLine
 10
2.54
 20
0.0
 30
0.0
 11
4.64
 21
0.0
 31
0.0
  0
ENDBLK
  5
373
330
371
100
AcDbEntity
  8
0
100
AcDbBlockEnd
  0
BLOCK
  5
37E
330
37D
100
AcDbEntity
  8
0
100
AcDbBlockBegin
  2
SW_CENTERMARKSYMBOL_15
 70
     0
 10
0.0
 20
0.0
 30
0.0
  3
SW_CENTERMARKSYMBOL_15
  1

  0
LINE
  5
380
330
37D
100
AcDbEntity
  8
BORDER
 62
     0
100
AcDbLine
 10
0.0
 20
0.0
 30
0.0
 11
0.0
 21
2.54
 31
0.0
  0
LINE
  5
381
330
37D
100
AcDbEntity
  8
BORDER
 62
     0
100
AcDbLine
 10
0.0
 20
0.0
 30
0.0
 11
-2.54
 21
0.0
 31
0.0
  0
LINE
  5
382
330
37D
100
AcDbEntity
  8
BORDER
 62
     0
100
AcDbLine
 10
0.0
 20
0.0
 30
0.0
 11
0.0
 21
-2.54
 31
0.0
  0
LINE
  5
383
330
37D
100
AcDbEntity
  8
BORDER
 62
     0
100
AcDbLine
 10
0.0
 20
0.0
 30
0.0
 11
2.54
 21
0.0
 31
0.0
  0
LINE
  5
384
330
37D
100
AcDbEntity
  8
BORDER
 62
     0
100
AcDbLine
 10
0.0
 20
2.54
 30
0.0
 11
0.0
 21
4.64
 31
0.0
  0
LINE
  5
385
330
37D
100
AcDbEntity
  8
BORDER
 62
     0
100
AcDbLine
 10
-2.54
 20
0.0
 30
0.0
 11
-4.64
 21
0.0
 31
0.0
  0
LINE
  5
386
330
37D
100
AcDbEntity
  8
BORDER
 62
     0
100
AcDbLine
 10
0.0
 20
-2.54
 30
0.0
 11
0.0
 21
-4.64
 31
0.0
  0
LINE
  5
387
330
37D
100
AcDbEntity
  8
BORDER
 62
     0
100
AcDbLine
 10
2.54
 20
0.0
 30
0.0
 11
4.64
 21
0.0
 31
0.0
  0
ENDBLK
  5
37F
330
37D
100
AcDbEntity
  8
0
100
AcDbBlockEnd
  0
BLOCK
  5
38A
330
389
100
AcDbEntity
  8
0
100
AcDbBlockBegin
  2
SW_CENTERMARKSYMBOL_16
 70
     0
 10
0.0
 20
0.0
 30
0.0
  3
SW_CENTERMARKSYMBOL_16
  1

  0
LINE
  5
38C
330
389
100
AcDbEntity
  8
BORDER
 62
     0
100
AcDbLine
 10
0.0
 20
0.0
 30
0.0
 11
0.0
 21
2.54
 31
0.0
  0
LINE
  5
38D
330
389
100
AcDbEntity
  8
BORDER
 62
     0
100
AcDbLine
 10
0.0
 20
0.0
 30
0.0
 11
-2.54
 21
0.0
 31
0.0
  0
LINE
  5
38E
330
389
100
AcDbEntity
  8
BORDER
 62
     0
100
AcDbLine
 10
0.0
 20
0.0
 30
0.0
 11
0.0
 21
-2.54
 31
0.0
  0
LINE
  5
38F
330
389
100
AcDbEntity
  8
BORDER
 62
     0
100
AcDbLine
 10
0.0
 20
0.0
 30
0.0
 11
2.54
 21
0.0
 31
0.0
  0
LINE
  5
390
330
389
100
AcDbEntity
  8
BORDER
 62
     0
100
AcDbLine
 10
0.0
 20
2.54
 30
0.0
 11
0.0
 21
4.64
 31
0.0
  0
LINE
  5
391
330
389
100
AcDbEntity
  8
BORDER
 62
     0
100
AcDbLine
 10
-2.54
 20
0.0
 30
0.0
 11
-4.64
 21
0.0
 31
0.0
  0
LINE
  5
392
330
389
100
AcDbEntity
  8
BORDER
 62
     0
100
AcDbLine
 10
0.0
 20
-2.54
 30
0.0
 11
0.0
 21
-4.64
 31
0.0
  0
LINE
  5
393
330
389
100
AcDbEntity
  8
BORDER
 62
     0
100
AcDbLine
 10
2.54
 20
0.0
 30
0.0
 11
4.64
 21
0.0
 31
0.0
  0
ENDBLK
  5
38B
330
389
100
AcDbEntity
  8
0
100
AcDbBlockEnd
  0
BLOCK
  5
396
330
395
100
AcDbEntity
  8
0
100
AcDbBlockBegin
  2
SW_CENTERMARKSYMBOL_17
 70
     0
 10
0.0
 20
0.0
 30
0.0
  3
SW_CENTERMARKSYMBOL_17
  1

  0
LINE
  5
398
330
395
100
AcDbEntity
  8
BORDER
 62
     0
100
AcDbLine
 10
0.0
 20
0.0
 30
0.0
 11
0.0
 21
2.54
 31
0.0
  0
LINE
  5
399
330
395
100
AcDbEntity
  8
BORDER
 62
     0
100
AcDbLine
 10
0.0
 20
0.0
 30
0.0
 11
-2.54
 21
0.0
 31
0.0
  0
LINE
  5
39A
330
395
100
AcDbEntity
  8
BORDER
 62
     0
100
AcDbLine
 10
0.0
 20
0.0
 30
0.0
 11
0.0
 21
-2.54
 31
0.0
  0
LINE
  5
39B
330
395
100
AcDbEntity
  8
BORDER
 62
     0
100
AcDbLine
 10
0.0
 20
0.0
 30
0.0
 11
2.54
 21
0.0
 31
0.0
  0
LINE
  5
39C
330
395
100
AcDbEntity
  8
BORDER
 62
     0
100
AcDbLine
 10
0.0
 20
2.54
 30
0.0
 11
0.0
 21
4.54
 31
0.0
  0
LINE
  5
39D
330
395
100
AcDbEntity
  8
BORDER
 62
     0
100
AcDbLine
 10
-2.54
 20
0.0
 30
0.0
 11
-4.54
 21
0.0
 31
0.0
  0
LINE
  5
39E
330
395
100
AcDbEntity
  8
BORDER
 62
     0
100
AcDbLine
 10
0.0
 20
-2.54
 30
0.0
 11
0.0
 21
-4.54
 31
0.0
  0
LINE
  5
39F
330
395
100
AcDbEntity
  8
BORDER
 62
     0
100
AcDbLine
 10
2.54
 20
0.0
 30
0.0
 11
4.54
 21
0.0
 31
0.0
  0
ENDBLK
  5
397
330
395
100
AcDbEntity
  8
0
100
AcDbBlockEnd
  0
BLOCK
  5
3A2
330
3A1
100
AcDbEntity
  8
0
100
AcDbBlockBegin
  2
SW_CENTERMARKSYMBOL_18
 70
     0
 10
0.0
 20
0.0
 30
0.0
  3
SW_CENTERMARKSYMBOL_18
  1

  0
LINE
  5
3A4
330
3A1
100
AcDbEntity
  8
BORDER
 62
     0
100
AcDbLine
 10
0.0
 20
0.0
 30
0.0
 11
0.0
 21
2.54
 31
0.0
  0
LINE
  5
3A5
330
3A1
100
AcDbEntity
  8
BORDER
 62
     0
100
AcDbLine
 10
0.0
 20
0.0
 30
0.0
 11
-2.54
 21
0.0
 31
0.0
  0
LINE
  5
3A6
330
3A1
100
AcDbEntity
  8
BORDER
 62
     0
100
AcDbLine
 10
0.0
 20
0.0
 30
0.0
 11
0.0
 21
-2.54
 31
0.0
  0
LINE
  5
3A7
330
3A1
100
AcDbEntity
  8
BORDER
 62
     0
100
AcDbLine
 10
0.0
 20
0.0
 30
0.0
 11
2.54
 21
0.0
 31
0.0
  0
LINE
  5
3A8
330
3A1
100
AcDbEntity
  8
BORDER
 62
     0
100
AcDbLine
 10
0.0
 20
2.54
 30
0.0
 11
0.0
 21
4.54
 31
0.0
  0
LINE
  5
3A9
330
3A1
100
AcDbEntity
  8
BORDER
 62
     0
100
AcDbLine
 10
-2.54
 20
0.0
 30
0.0
 11
-4.54
 21
0.0
 31
0.0
  0
LINE
  5
3AA
330
3A1
100
AcDbEntity
  8
BORDER
 62
     0
100
AcDbLine
 10
0.0
 20
-2.54
 30
0.0
 11
0.0
 21
-4.54
 31
0.0
  0
LINE
  5
3AB
330
3A1
100
AcDbEntity
  8
BORDER
 62
     0
100
AcDbLine
 10
2.54
 20
0.0
 30
0.0
 11
4.54
 21
0.0
 31
0.0
  0
ENDBLK
  5
3A3
330
3A1
100
AcDbEntity
  8
0
100
AcDbBlockEnd
  0
BLOCK
  5
3AE
330
3AD
100
AcDbEntity
  8
0
100
AcDbBlockBegin
  2
SW_CENTERMARKSYMBOL_19
 70
     0
 10
0.0
 20
0.0
 30
0.0
  3
SW_CENTERMARKSYMBOL_19
  1

  0
LINE
  5
3B0
330
3AD
100
AcDbEntity
  8
BORDER
 62
     0
100
AcDbLine
 10
0.0
 20
0.0
 30
0.0
 11
0.0
 21
2.54
 31
0.0
  0
LINE
  5
3B1
330
3AD
100
AcDbEntity
  8
BORDER
 62
     0
100
AcDbLine
 10
0.0
 20
0.0
 30
0.0
 11
-2.54
 21
0.0
 31
0.0
  0
LINE
  5
3B2
330
3AD
100
AcDbEntity
  8
BORDER
 62
     0
100
AcDbLine
 10
0.0
 20
0.0
 30
0.0
 11
0.0
 21
-2.54
 31
0.0
  0
LINE
  5
3B3
330
3AD
100
AcDbEntity
  8
BORDER
 62
     0
100
AcDbLine
 10
0.0
 20
0.0
 30
0.0
 11
2.54
 21
0.0
 31
0.0
  0
LINE
  5
3B4
330
3AD
100
AcDbEntity
  8
BORDER
 62
     0
100
AcDbLine
 10
0.0
 20
2.54
 30
0.0
 11
0.0
 21
4.54
 31
0.0
  0
LINE
  5
3B5
330
3AD
100
AcDbEntity
  8
BORDER
 62
     0
100
AcDbLine
 10
-2.54
 20
0.0
 30
0.0
 11
-4.54
 21
0.0
 31
0.0
  0
LINE
  5
3B6
330
3AD
100
AcDbEntity
  8
BORDER
 62
     0
100
AcDbLine
 10
0.0
 20
-2.54
 30
0.0
 11
0.0
 21
-4.54
 31
0.0
  0
LINE
  5
3B7
330
3AD
100
AcDbEntity
  8
BORDER
 62
     0
100
AcDbLine
 10
2.54
 20
0.0
 30
0.0
 11
4.54
 21
0.0
 31
0.0
  0
ENDBLK
  5
3AF
330
3AD
100
AcDbEntity
  8
0
100
AcDbBlockEnd
  0
BLOCK
  5
3BA
330
3B9
100
AcDbEntity
  8
0
100
AcDbBlockBegin
  2
SW_CENTERMARKSYMBOL_20
 70
     0
 10
0.0
 20
0.0
 30
0.0
  3
SW_CENTERMARKSYMBOL_20
  1

  0
LINE
  5
3BC
330
3B9
100
AcDbEntity
  8
BORDER
 62
     0
100
AcDbLine
 10
0.0
 20
0.0
 30
0.0
 11
0.0
 21
2.54
 31
0.0
  0
LINE
  5
3BD
330
3B9
100
AcDbEntity
  8
BORDER
 62
     0
100
AcDbLine
 10
0.0
 20
0.0
 30
0.0
 11
-2.54
 21
0.0
 31
0.0
  0
LINE
  5
3BE
330
3B9
100
AcDbEntity
  8
BORDER
 62
     0
100
AcDbLine
 10
0.0
 20
0.0
 30
0.0
 11
0.0
 21
-2.54
 31
0.0
  0
LINE
  5
3BF
330
3B9
100
AcDbEntity
  8
BORDER
 62
     0
100
AcDbLine
 10
0.0
 20
0.0
 30
0.0
 11
2.54
 21
0.0
 31
0.0
  0
LINE
  5
3C0
330
3B9
100
AcDbEntity
  8
BORDER
 62
     0
100
AcDbLine
 10
0.0
 20
2.54
 30
0.0
 11
0.0
 21
4.54
 31
0.0
  0
LINE
  5
3C1
330
3B9
100
AcDbEntity
  8
BORDER
 62
     0
100
AcDbLine
 10
-2.54
 20
0.0
 30
0.0
 11
-4.54
 21
0.0
 31
0.0
  0
LINE
  5
3C2
330
3B9
100
AcDbEntity
  8
BORDER
 62
     0
100
AcDbLine
 10
0.0
 20
-2.54
 30
0.0
 11
0.0
 21
-4.54
 31
0.0
  0
LINE
  5
3C3
330
3B9
100
AcDbEntity
  8
BORDER
 62
     0
100
AcDbLine
 10
2.54
 20
0.0
 30
0.0
 11
4.54
 21
0.0
 31
0.0
  0
ENDBLK
  5
3BB
330
3B9
100
AcDbEntity
  8
0
100
AcDbBlockEnd
  0
BLOCK
  5
3C6
330
3C5
100
AcDbEntity
  8
0
100
AcDbBlockBegin
  2
SW_CENTERMARKSYMBOL_21
 70
     0
 10
0.0
 20
0.0
 30
0.0
  3
SW_CENTERMARKSYMBOL_21
  1

  0
LINE
  5
3C8
330
3C5
100
AcDbEntity
  8
BORDER
 62
     0
100
AcDbLine
 10
0.0
 20
0.0
 30
0.0
 11
0.0
 21
2.54
 31
0.0
  0
LINE
  5
3C9
330
3C5
100
AcDbEntity
  8
BORDER
 62
     0
100
AcDbLine
 10
0.0
 20
0.0
 30
0.0
 11
-2.54
 21
0.0
 31
0.0
  0
LINE
  5
3CA
330
3C5
100
AcDbEntity
  8
BORDER
 62
     0
100
AcDbLine
 10
0.0
 20
0.0
 30
0.0
 11
0.0
 21
-2.54
 31
0.0
  0
LINE
  5
3CB
330
3C5
100
AcDbEntity
  8
BORDER
 62
     0
100
AcDbLine
 10
0.0
 20
0.0
 30
0.0
 11
2.54
 21
0.0
 31
0.0
  0
LINE
  5
3CC
330
3C5
100
AcDbEntity
  8
BORDER
 62
     0
100
AcDbLine
 10
0.0
 20
2.54
 30
0.0
 11
0.0
 21
3.74
 31
0.0
  0
LINE
  5
3CD
330
3C5
100
AcDbEntity
  8
BORDER
 62
     0
100
AcDbLine
 10
-2.54
 20
0.0
 30
0.0
 11
-3.74
 21
0.0
 31
0.0
  0
LINE
  5
3CE
330
3C5
100
AcDbEntity
  8
BORDER
 62
     0
100
AcDbLine
 10
0.0
 20
-2.54
 30
0.0
 11
0.0
 21
-3.74
 31
0.0
  0
LINE
  5
3CF
330
3C5
100
AcDbEntity
  8
BORDER
 62
     0
100
AcDbLine
 10
2.54
 20
0.0
 30
0.0
 11
3.74
 21
0.0
 31
0.0
  0
ENDBLK
  5
3C7
330
3C5
100
AcDbEntity
  8
0
100
AcDbBlockEnd
  0
BLOCK
  5
3D2
330
3D1
100
AcDbEntity
  8
0
100
AcDbBlockBegin
  2
SW_CENTERMARKSYMBOL_22
 70
     0
 10
0.0
 20
0.0
 30
0.0
  3
SW_CENTERMARKSYMBOL_22
  1

  0
LINE
  5
3D4
330
3D1
100
AcDbEntity
  8
BORDER
 62
     0
100
AcDbLine
 10
0.0
 20
0.0
 30
0.0
 11
0.0
 21
2.54
 31
0.0
  0
LINE
  5
3D5
330
3D1
100
AcDbEntity
  8
BORDER
 62
     0
100
AcDbLine
 10
0.0
 20
0.0
 30
0.0
 11
-2.54
 21
0.0
 31
0.0
  0
LINE
  5
3D6
330
3D1
100
AcDbEntity
  8
BORDER
 62
     0
100
AcDbLine
 10
0.0
 20
0.0
 30
0.0
 11
0.0
 21
-2.54
 31
0.0
  0
LINE
  5
3D7
330
3D1
100
AcDbEntity
  8
BORDER
 62
     0
100
AcDbLine
 10
0.0
 20
0.0
 30
0.0
 11
2.54
 21
0.0
 31
0.0
  0
LINE
  5
3D8
330
3D1
100
AcDbEntity
  8
BORDER
 62
     0
100
AcDbLine
 10
0.0
 20
2.54
 30
0.0
 11
0.0
 21
3.74
 31
0.0
  0
LINE
  5
3D9
330
3D1
100
AcDbEntity
  8
BORDER
 62
     0
100
AcDbLine
 10
-2.54
 20
0.0
 30
0.0
 11
-3.74
 21
0.0
 31
0.0
  0
LINE
  5
3DA
330
3D1
100
AcDbEntity
  8
BORDER
 62
     0
100
AcDbLine
 10
0.0
 20
-2.54
 30
0.0
 11
0.0
 21
-3.74
 31
0.0
  0
LINE
  5
3DB
330
3D1
100
AcDbEntity
  8
BORDER
 62
     0
100
AcDbLine
 10
2.54
 20
0.0
 30
0.0
 11
3.74
 21
0.0
 31
0.0
  0
ENDBLK
  5
3D3
330
3D1
100
AcDbEntity
  8
0
100
AcDbBlockEnd
  0
BLOCK
  5
3DE
330
3DD
100
AcDbEntity
  8
0
100
AcDbBlockBegin
  2
SW_CENTERMARKSYMBOL_23
 70
     0
 10
0.0
 20
0.0
 30
0.0
  3
SW_CENTERMARKSYMBOL_23
  1

  0
LINE
  5
3E0
330
3DD
100
AcDbEntity
  8
BORDER
 62
     0
100
AcDbLine
 10
0.0
 20
0.0
 30
0.0
 11
0.0
 21
2.54
 31
0.0
  0
LINE
  5
3E1
330
3DD
100
AcDbEntity
  8
BORDER
 62
     0
100
AcDbLine
 10
0.0
 20
0.0
 30
0.0
 11
-2.54
 21
0.0
 31
0.0
  0
LINE
  5
3E2
330
3DD
100
AcDbEntity
  8
BORDER
 62
     0
100
AcDbLine
 10
0.0
 20
0.0
 30
0.0
 11
0.0
 21
-2.54
 31
0.0
  0
LINE
  5
3E3
330
3DD
100
AcDbEntity
  8
BORDER
 62
     0
100
AcDbLine
 10
0.0
 20
0.0
 30
0.0
 11
2.54
 21
0.0
 31
0.0
  0
LINE
  5
3E4
330
3DD
100
AcDbEntity
  8
BORDER
 62
     0
100
AcDbLine
 10
0.0
 20
2.54
 30
0.0
 11
0.0
 21
3.74
 31
0.0
  0
LINE
  5
3E5
330
3DD
100
AcDbEntity
  8
BORDER
 62
     0
100
AcDbLine
 10
-2.54
 20
0.0
 30
0.0
 11
-3.74
 21
0.0
 31
0.0
  0
LINE
  5
3E6
330
3DD
100
AcDbEntity
  8
BORDER
 62
     0
100
AcDbLine
 10
0.0
 20
-2.54
 30
0.0
 11
0.0
 21
-3.74
 31
0.0
  0
LINE
  5
3E7
330
3DD
100
AcDbEntity
  8
BORDER
 62
     0
100
AcDbLine
 10
2.54
 20
0.0
 30
0.0
 11
3.74
 21
0.0
 31
0.0
  0
ENDBLK
  5
3DF
330
3DD
100
AcDbEntity
  8
0
100
AcDbBlockEnd
  0
BLOCK
  5
3EA
330
3E9
100
AcDbEntity
  8
0
100
AcDbBlockBegin
  2
SW_CENTERMARKSYMBOL_24
 70
     0
 10
0.0
 20
0.0
 30
0.0
  3
SW_CENTERMARKSYMBOL_24
  1

  0
LINE
  5
3EC
330
3E9
100
AcDbEntity
  8
BORDER
 62
     0
100
AcDbLine
 10
0.0
 20
0.0
 30
0.0
 11
0.0
 21
2.54
 31
0.0
  0
LINE
  5
3ED
330
3E9
100
AcDbEntity
  8
BORDER
 62
     0
100
AcDbLine
 10
0.0
 20
0.0
 30
0.0
 11
-2.54
 21
0.0
 31
0.0
  0
LINE
  5
3EE
330
3E9
100
AcDbEntity
  8
BORDER
 62
     0
100
AcDbLine
 10
0.0
 20
0.0
 30
0.0
 11
0.0
 21
-2.54
 31
0.0
  0
LINE
  5
3EF
330
3E9
100
AcDbEntity
  8
BORDER
 62
     0
100
AcDbLine
 10
0.0
 20
0.0
 30
0.0
 11
2.54
 21
0.0
 31
0.0
  0
LINE
  5
3F0
330
3E9
100
AcDbEntity
  8
BORDER
 62
     0
100
AcDbLine
 10
0.0
 20
2.54
 30
0.0
 11
0.0
 21
3.74
 31
0.0
  0
LINE
  5
3F1
330
3E9
100
AcDbEntity
  8
BORDER
 62
     0
100
AcDbLine
 10
-2.54
 20
0.0
 30
0.0
 11
-3.74
 21
0.0
 31
0.0
  0
LINE
  5
3F2
330
3E9
100
AcDbEntity
  8
BORDER
 62
     0
100
AcDbLine
 10
0.0
 20
-2.54
 30
0.0
 11
0.0
 21
-3.74
 31
0.0
  0
LINE
  5
3F3
330
3E9
100
AcDbEntity
  8
BORDER
 62
     0
100
AcDbLine
 10
2.54
 20
0.0
 30
0.0
 11
3.74
 21
0.0
 31
0.0
  0
ENDBLK
  5
3EB
330
3E9
100
AcDbEntity
  8
0
100
AcDbBlockEnd
  0
BLOCK
  5
3F6
330
3F5
100
AcDbEntity
  8
0
100
AcDbBlockBegin
  2
SW_CENTERMARKSYMBOL_25
 70
     0
 10
0.0
 20
0.0
 30
0.0
  3
SW_CENTERMARKSYMBOL_25
  1

  0
LINE
  5
3F8
330
3F5
100
AcDbEntity
  8
BORDER
 62
     0
100
AcDbLine
 10
0.0
 20
0.0
 30
0.0
 11
0.0
 21
2.54
 31
0.0
  0
LINE
  5
3F9
330
3F5
100
AcDbEntity
  8
BORDER
 62
     0
100
AcDbLine
 10
0.0
 20
0.0
 30
0.0
 11
-2.54
 21
0.0
 31
0.0
  0
LINE
  5
3FA
330
3F5
100
AcDbEntity
  8
BORDER
 62
     0
100
AcDbLine
 10
0.0
 20
0.0
 30
0.0
 11
0.0
 21
-2.54
 31
0.0
  0
LINE
  5
3FB
330
3F5
100
AcDbEntity
  8
BORDER
 62
     0
100
AcDbLine
 10
0.0
 20
0.0
 30
0.0
 11
2.54
 21
0.0
 31
0.0
  0
LINE
  5
3FC
330
3F5
100
AcDbEntity
  8
BORDER
 62
     0
100
AcDbLine
 10
0.0
 20
2.54
 30
0.0
 11
0.0
 21
3.74
 31
0.0
  0
LINE
  5
3FD
330
3F5
100
AcDbEntity
  8
BORDER
 62
     0
100
AcDbLine
 10
-2.54
 20
0.0
 30
0.0
 11
-3.74
 21
0.0
 31
0.0
  0
LINE
  5
3FE
330
3F5
100
AcDbEntity
  8
BORDER
 62
     0
100
AcDbLine
 10
0.0
 20
-2.54
 30
0.0
 11
0.0
 21
-3.74
 31
0.0
  0
LINE
  5
3FF
330
3F5
100
AcDbEntity
  8
BORDER
 62
     0
100
AcDbLine
 10
2.54
 20
0.0
 30
0.0
 11
3.74
 21
0.0
 31
0.0
  0
ENDBLK
  5
3F7
330
3F5
100
AcDbEntity
  8
0
100
AcDbBlockEnd
  0
BLOCK
  5
402
330
401
100
AcDbEntity
  8
0
100
AcDbBlockBegin
  2
SW_CENTERMARKSYMBOL_26
 70
     0
 10
0.0
 20
0.0
 30
0.0
  3
SW_CENTERMARKSYMBOL_26
  1

  0
LINE
  5
404
330
401
100
AcDbEntity
  8
BORDER
 62
     0
100
AcDbLine
 10
0.0
 20
0.0
 30
0.0
 11
0.0
 21
2.54
 31
0.0
  0
LINE
  5
405
330
401
100
AcDbEntity
  8
BORDER
 62
     0
100
AcDbLine
 10
0.0
 20
0.0
 30
0.0
 11
-2.54
 21
0.0
 31
0.0
  0
LINE
  5
406
330
401
100
AcDbEntity
  8
BORDER
 62
     0
100
AcDbLine
 10
0.0
 20
0.0
 30
0.0
 11
0.0
 21
-2.54
 31
0.0
  0
LINE
  5
407
330
401
100
AcDbEntity
  8
BORDER
 62
     0
100
AcDbLine
 10
0.0
 20
0.0
 30
0.0
 11
2.54
 21
0.0
 31
0.0
  0
LINE
  5
408
330
401
100
AcDbEntity
  8
BORDER
 62
     0
100
AcDbLine
 10
0.0
 20
2.54
 30
0.0
 11
0.0
 21
3.74
 31
0.0
  0
LINE
  5
409
330
401
100
AcDbEntity
  8
BORDER
 62
     0
100
AcDbLine
 10
-2.54
 20
0.0
 30
0.0
 11
-3.74
 21
0.0
 31
0.0
  0
LINE
  5
40A
330
401
100
AcDbEntity
  8
BORDER
 62
     0
100
AcDbLine
 10
0.0
 20
-2.54
 30
0.0
 11
0.0
 21
-3.74
 31
0.0
  0
LINE
  5
40B
330
401
100
AcDbEntity
  8
BORDER
 62
     0
100
AcDbLine
 10
2.54
 20
0.0
 30
0.0
 11
3.74
 21
0.0
 31
0.0
  0
ENDBLK
  5
403
330
401
100
AcDbEntity
  8
0
100
AcDbBlockEnd
  0
BLOCK
  5
40E
330
40D
100
AcDbEntity
  8
0
100
AcDbBlockBegin
  2
SW_CENTERMARKSYMBOL_27
 70
     0
 10
0.0
 20
0.0
 30
0.0
  3
SW_CENTERMARKSYMBOL_27
  1

  0
LINE
  5
410
330
40D
100
AcDbEntity
  8
BORDER
 62
     0
100
AcDbLine
 10
0.0
 20
0.0
 30
0.0
 11
0.0
 21
2.54
 31
0.0
  0
LINE
  5
411
330
40D
100
AcDbEntity
  8
BORDER
 62
     0
100
AcDbLine
 10
0.0
 20
0.0
 30
0.0
 11
-2.54
 21
0.0
 31
0.0
  0
LINE
  5
412
330
40D
100
AcDbEntity
  8
BORDER
 62
     0
100
AcDbLine
 10
0.0
 20
0.0
 30
0.0
 11
0.0
 21
-2.54
 31
0.0
  0
LINE
  5
413
330
40D
100
AcDbEntity
  8
BORDER
 62
     0
100
AcDbLine
 10
0.0
 20
0.0
 30
0.0
 11
2.54
 21
0.0
 31
0.0
  0
LINE
  5
414
330
40D
100
AcDbEntity
  8
BORDER
 62
     0
100
AcDbLine
 10
0.0
 20
2.54
 30
0.0
 11
0.0
 21
3.74
 31
0.0
  0
LINE
  5
415
330
40D
100
AcDbEntity
  8
BORDER
 62
     0
100
AcDbLine
 10
-2.54
 20
0.0
 30
0.0
 11
-3.74
 21
0.0
 31
0.0
  0
LINE
  5
416
330
40D
100
AcDbEntity
  8
BORDER
 62
     0
100
AcDbLine
 10
0.0
 20
-2.54
 30
0.0
 11
0.0
 21
-3.74
 31
0.0
  0
LINE
  5
417
330
40D
100
AcDbEntity
  8
BORDER
 62
     0
100
AcDbLine
 10
2.54
 20
0.0
 30
0.0
 11
3.74
 21
0.0
 31
0.0
  0
ENDBLK
  5
40F
330
40D
100
AcDbEntity
  8
0
100
AcDbBlockEnd
  0
BLOCK
  5
41A
330
419
100
AcDbEntity
  8
0
100
AcDbBlockBegin
  2
SW_CENTERMARKSYMBOL_28
 70
     0
 10
0.0
 20
0.0
 30
0.0
  3
SW_CENTERMARKSYMBOL_28
  1

  0
LINE
  5
41C
330
419
100
AcDbEntity
  8
BORDER
 62
     0
100
AcDbLine
 10
0.0
 20
0.0
 30
0.0
 11
0.0
 21
2.54
 31
0.0
  0
LINE
  5
41D
330
419
100
AcDbEntity
  8
BORDER
 62
     0
100
AcDbLine
 10
0.0
 20
0.0
 30
0.0
 11
-2.54
 21
0.0
 31
0.0
  0
LINE
  5
41E
330
419
100
AcDbEntity
  8
BORDER
 62
     0
100
AcDbLine
 10
0.0
 20
0.0
 30
0.0
 11
0.0
 21
-2.54
 31
0.0
  0
LINE
  5
41F
330
419
100
AcDbEntity
  8
BORDER
 62
     0
100
AcDbLine
 10
0.0
 20
0.0
 30
0.0
 11
2.54
 21
0.0
 31
0.0
  0
LINE
  5
420
330
419
100
AcDbEntity
  8
BORDER
 62
     0
100
AcDbLine
 10
0.0
 20
2.54
 30
0.0
 11
0.0
 21
3.74
 31
0.0
  0
LINE
  5
421
330
419
100
AcDbEntity
  8
BORDER
 62
     0
100
AcDbLine
 10
-2.54
 20
0.0
 30
0.0
 11
-3.74
 21
0.0
 31
0.0
  0
LINE
  5
422
330
419
100
AcDbEntity
  8
BORDER
 62
     0
100
AcDbLine
 10
0.0
 20
-2.54
 30
0.0
 11
0.0
 21
-3.74
 31
0.0
  0
LINE
  5
423
330
419
100
AcDbEntity
  8
BORDER
 62
     0
100
AcDbLine
 10
2.54
 20
0.0
 30
0.0
 11
3.74
 21
0.0
 31
0.0
  0
ENDBLK
  5
41B
330
419
100
AcDbEntity
  8
0
100
AcDbBlockEnd
  0
BLOCK
  5
426
330
425
100
AcDbEntity
  8
0
100
AcDbBlockBegin
  2
SW_CENTERMARKSYMBOL_29
 70
     0
 10
0.0
 20
0.0
 30
0.0
  3
SW_CENTERMARKSYMBOL_29
  1

  0
LINE
  5
428
330
425
100
AcDbEntity
  8
BORDER
 62
     0
100
AcDbLine
 10
0.0
 20
0.0
 30
0.0
 11
0.0
 21
2.54
 31
0.0
  0
LINE
  5
429
330
425
100
AcDbEntity
  8
BORDER
 62
     0
100
AcDbLine
 10
0.0
 20
0.0
 30
0.0
 11
-2.54
 21
0.0
 31
0.0
  0
LINE
  5
42A
330
425
100
AcDbEntity
  8
BORDER
 62
     0
100
AcDbLine
 10
0.0
 20
0.0
 30
0.0
 11
0.0
 21
-2.54
 31
0.0
  0
LINE
  5
42B
330
425
100
AcDbEntity
  8
BORDER
 62
     0
100
AcDbLine
 10
0.0
 20
0.0
 30
0.0
 11
2.54
 21
0.0
 31
0.0
  0
LINE
  5
42C
330
425
100
AcDbEntity
  8
BORDER
 62
     0
100
AcDbLine
 10
0.0
 20
2.54
 30
0.0
 11
0.0
 21
3.74
 31
0.0
  0
LINE
  5
42D
330
425
100
AcDbEntity
  8
BORDER
 62
     0
100
AcDbLine
 10
-2.54
 20
0.0
 30
0.0
 11
-3.74
 21
0.0
 31
0.0
  0
LINE
  5
42E
330
425
100
AcDbEntity
  8
BORDER
 62
     0
100
AcDbLine
 10
0.0
 20
-2.54
 30
0.0
 11
0.0
 21
-3.74
 31
0.0
  0
LINE
  5
42F
330
425
100
AcDbEntity
  8
BORDER
 62
     0
100
AcDbLine
 10
2.54
 20
0.0
 30
0.0
 11
3.74
 21
0.0
 31
0.0
  0
ENDBLK
  5
427
330
425
100
AcDbEntity
  8
0
100
AcDbBlockEnd
  0
BLOCK
  5
432
330
431
100
AcDbEntity
  8
0
100
AcDbBlockBegin
  2
SW_CENTERMARKSYMBOL_30
 70
     0
 10
0.0
 20
0.0
 30
0.0
  3
SW_CENTERMARKSYMBOL_30
  1

  0
LINE
  5
434
330
431
100
AcDbEntity
  8
BORDER
 62
     0
100
AcDbLine
 10
0.0
 20
0.0
 30
0.0
 11
0.0
 21
2.54
 31
0.0
  0
LINE
  5
435
330
431
100
AcDbEntity
  8
BORDER
 62
     0
100
AcDbLine
 10
0.0
 20
0.0
 30
0.0
 11
-2.54
 21
0.0
 31
0.0
  0
LINE
  5
436
330
431
100
AcDbEntity
  8
BORDER
 62
     0
100
AcDbLine
 10
0.0
 20
0.0
 30
0.0
 11
0.0
 21
-2.54
 31
0.0
  0
LINE
  5
437
330
431
100
AcDbEntity
  8
BORDER
 62
     0
100
AcDbLine
 10
0.0
 20
0.0
 30
0.0
 11
2.54
 21
0.0
 31
0.0
  0
LINE
  5
438
330
431
100
AcDbEntity
  8
BORDER
 62
     0
100
AcDbLine
 10
0.0
 20
2.54
 30
0.0
 11
0.0
 21
3.74
 31
0.0
  0
LINE
  5
439
330
431
100
AcDbEntity
  8
BORDER
 62
     0
100
AcDbLine
 10
-2.54
 20
0.0
 30
0.0
 11
-3.74
 21
0.0
 31
0.0
  0
LINE
  5
43A
330
431
100
AcDbEntity
  8
BORDER
 62
     0
100
AcDbLine
 10
0.0
 20
-2.54
 30
0.0
 11
0.0
 21
-3.74
 31
0.0
  0
LINE
  5
43B
330
431
100
AcDbEntity
  8
BORDER
 62
     0
100
AcDbLine
 10
2.54
 20
0.0
 30
0.0
 11
3.74
 21
0.0
 31
0.0
  0
ENDBLK
  5
433
330
431
100
AcDbEntity
  8
0
100
AcDbBlockEnd
  0
BLOCK
  5
43E
330
43D
100
AcDbEntity
  8
0
100
AcDbBlockBegin
  2
SW_CENTERMARKSYMBOL_31
 70
     0
 10
0.0
 20
0.0
 30
0.0
  3
SW_CENTERMARKSYMBOL_31
  1

  0
LINE
  5
440
330
43D
100
AcDbEntity
  8
BORDER
 62
     0
100
AcDbLine
 10
0.0
 20
0.0
 30
0.0
 11
0.0
 21
2.54
 31
0.0
  0
LINE
  5
441
330
43D
100
AcDbEntity
  8
BORDER
 62
     0
100
AcDbLine
 10
0.0
 20
0.0
 30
0.0
 11
-2.54
 21
0.0
 31
0.0
  0
LINE
  5
442
330
43D
100
AcDbEntity
  8
BORDER
 62
     0
100
AcDbLine
 10
0.0
 20
0.0
 30
0.0
 11
0.0
 21
-2.54
 31
0.0
  0
LINE
  5
443
330
43D
100
AcDbEntity
  8
BORDER
 62
     0
100
AcDbLine
 10
0.0
 20
0.0
 30
0.0
 11
2.54
 21
0.0
 31
0.0
  0
LINE
  5
444
330
43D
100
AcDbEntity
  8
BORDER
 62
     0
100
AcDbLine
 10
0.0
 20
2.54
 30
0.0
 11
0.0
 21
3.74
 31
0.0
  0
LINE
  5
445
330
43D
100
AcDbEntity
  8
BORDER
 62
     0
100
AcDbLine
 10
-2.54
 20
0.0
 30
0.0
 11
-3.74
 21
0.0
 31
0.0
  0
LINE
  5
446
330
43D
100
AcDbEntity
  8
BORDER
 62
     0
100
AcDbLine
 10
0.0
 20
-2.54
 30
0.0
 11
0.0
 21
-3.74
 31
0.0
  0
LINE
  5
447
330
43D
100
AcDbEntity
  8
BORDER
 62
     0
100
AcDbLine
 10
2.54
 20
0.0
 30
0.0
 11
3.74
 21
0.0
 31
0.0
  0
ENDBLK
  5
43F
330
43D
100
AcDbEntity
  8
0
100
AcDbBlockEnd
  0
BLOCK
  5
44A
330
449
100
AcDbEntity
  8
0
100
AcDbBlockBegin
  2
SW_CENTERMARKSYMBOL_32
 70
     0
 10
0.0
 20
0.0
 30
0.0
  3
SW_CENTERMARKSYMBOL_32
  1

  0
LINE
  5
44C
330
449
100
AcDbEntity
  8
BORDER
 62
     0
100
AcDbLine
 10
0.0
 20
0.0
 30
0.0
 11
0.0
 21
2.54
 31
0.0
  0
LINE
  5
44D
330
449
100
AcDbEntity
  8
BORDER
 62
     0
100
AcDbLine
 10
0.0
 20
0.0
 30
0.0
 11
-2.54
 21
0.0
 31
0.0
  0
LINE
  5
44E
330
449
100
AcDbEntity
  8
BORDER
 62
     0
100
AcDbLine
 10
0.0
 20
0.0
 30
0.0
 11
0.0
 21
-2.54
 31
0.0
  0
LINE
  5
44F
330
449
100
AcDbEntity
  8
BORDER
 62
     0
100
AcDbLine
 10
0.0
 20
0.0
 30
0.0
 11
2.54
 21
0.0
 31
0.0
  0
LINE
  5
450
330
449
100
AcDbEntity
  8
BORDER
 62
     0
100
AcDbLine
 10
0.0
 20
2.54
 30
0.0
 11
0.0
 21
3.74
 31
0.0
  0
LINE
  5
451
330
449
100
AcDbEntity
  8
BORDER
 62
     0
100
AcDbLine
 10
-2.54
 20
0.0
 30
0.0
 11
-3.74
 21
0.0
 31
0.0
  0
LINE
  5
452
330
449
100
AcDbEntity
  8
BORDER
 62
     0
100
AcDbLine
 10
0.0
 20
-2.54
 30
0.0
 11
0.0
 21
-3.74
 31
0.0
  0
LINE
  5
453
330
449
100
AcDbEntity
  8
BORDER
 62
     0
100
AcDbLine
 10
2.54
 20
0.0
 30
0.0
 11
3.74
 21
0.0
 31
0.0
  0
ENDBLK
  5
44B
330
449
100
AcDbEntity
  8
0
100
AcDbBlockEnd
  0
BLOCK
  5
456
330
455
100
AcDbEntity
  8
0
100
AcDbBlockBegin
  2
SW_CENTERMARKSYMBOL_33
 70
     0
 10
0.0
 20
0.0
 30
0.0
  3
SW_CENTERMARKSYMBOL_33
  1

  0
LINE
  5
458
330
455
100
AcDbEntity
  8
BORDER
 62
     0
100
AcDbLine
 10
0.0
 20
0.0
 30
0.0
 11
0.0
 21
2.54
 31
0.0
  0
LINE
  5
459
330
455
100
AcDbEntity
  8
BORDER
 62
     0
100
AcDbLine
 10
0.0
 20
0.0
 30
0.0
 11
-2.54
 21
0.0
 31
0.0
  0
LINE
  5
45A
330
455
100
AcDbEntity
  8
BORDER
 62
     0
100
AcDbLine
 10
0.0
 20
0.0
 30
0.0
 11
0.0
 21
-2.54
 31
0.0
  0
LINE
  5
45B
330
455
100
AcDbEntity
  8
BORDER
 62
     0
100
AcDbLine
 10
0.0
 20
0.0
 30
0.0
 11
2.54
 21
0.0
 31
0.0
  0
LINE
  5
45C
330
455
100
AcDbEntity
  8
BORDER
 62
     0
100
AcDbLine
 10
0.0
 20
2.54
 30
0.0
 11
0.0
 21
3.74
 31
0.0
  0
LINE
  5
45D
330
455
100
AcDbEntity
  8
BORDER
 62
     0
100
AcDbLine
 10
-2.54
 20
0.0
 30
0.0
 11
-3.74
 21
0.0
 31
0.0
  0
LINE
  5
45E
330
455
100
AcDbEntity
  8
BORDER
 62
     0
100
AcDbLine
 10
0.0
 20
-2.54
 30
0.0
 11
0.0
 21
-3.74
 31
0.0
  0
LINE
  5
45F
330
455
100
AcDbEntity
  8
BORDER
 62
     0
100
AcDbLine
 10
2.54
 20
0.0
 30
0.0
 11
3.74
 21
0.0
 31
0.0
  0
ENDBLK
  5
457
330
455
100
AcDbEntity
  8
0
100
AcDbBlockEnd
  0
BLOCK
  5
462
330
461
100
AcDbEntity
  8
0
100
AcDbBlockBegin
  2
SW_CENTERMARKSYMBOL_34
 70
     0
 10
0.0
 20
0.0
 30
0.0
  3
SW_CENTERMARKSYMBOL_34
  1

  0
LINE
  5
464
330
461
100
AcDbEntity
  8
BORDER
 62
     0
100
AcDbLine
 10
0.0
 20
0.0
 30
0.0
 11
0.0
 21
2.54
 31
0.0
  0
LINE
  5
465
330
461
100
AcDbEntity
  8
BORDER
 62
     0
100
AcDbLine
 10
0.0
 20
0.0
 30
0.0
 11
-2.54
 21
0.0
 31
0.0
  0
LINE
  5
466
330
461
100
AcDbEntity
  8
BORDER
 62
     0
100
AcDbLine
 10
0.0
 20
0.0
 30
0.0
 11
0.0
 21
-2.54
 31
0.0
  0
LINE
  5
467
330
461
100
AcDbEntity
  8
BORDER
 62
     0
100
AcDbLine
 10
0.0
 20
0.0
 30
0.0
 11
2.54
 21
0.0
 31
0.0
  0
LINE
  5
468
330
461
100
AcDbEntity
  8
BORDER
 62
     0
100
AcDbLine
 10
0.0
 20
2.54
 30
0.0
 11
0.0
 21
3.74
 31
0.0
  0
LINE
  5
469
330
461
100
AcDbEntity
  8
BORDER
 62
     0
100
AcDbLine
 10
-2.54
 20
0.0
 30
0.0
 11
-3.74
 21
0.0
 31
0.0
  0
LINE
  5
46A
330
461
100
AcDbEntity
  8
BORDER
 62
     0
100
AcDbLine
 10
0.0
 20
-2.54
 30
0.0
 11
0.0
 21
-3.74
 31
0.0
  0
LINE
  5
46B
330
461
100
AcDbEntity
  8
BORDER
 62
     0
100
AcDbLine
 10
2.54
 20
0.0
 30
0.0
 11
3.74
 21
0.0
 31
0.0
  0
ENDBLK
  5
463
330
461
100
AcDbEntity
  8
0
100
AcDbBlockEnd
  0
BLOCK
  5
46E
330
46D
100
AcDbEntity
  8
0
100
AcDbBlockBegin
  2
SW_CENTERMARKSYMBOL_35
 70
     0
 10
0.0
 20
0.0
 30
0.0
  3
SW_CENTERMARKSYMBOL_35
  1

  0
LINE
  5
470
330
46D
100
AcDbEntity
  8
BORDER
 62
     0
100
AcDbLine
 10
0.0
 20
0.0
 30
0.0
 11
0.0
 21
2.54
 31
0.0
  0
LINE
  5
471
330
46D
100
AcDbEntity
  8
BORDER
 62
     0
100
AcDbLine
 10
0.0
 20
0.0
 30
0.0
 11
-2.54
 21
0.0
 31
0.0
  0
LINE
  5
472
330
46D
100
AcDbEntity
  8
BORDER
 62
     0
100
AcDbLine
 10
0.0
 20
0.0
 30
0.0
 11
0.0
 21
-2.54
 31
0.0
  0
LINE
  5
473
330
46D
100
AcDbEntity
  8
BORDER
 62
     0
100
AcDbLine
 10
0.0
 20
0.0
 30
0.0
 11
2.54
 21
0.0
 31
0.0
  0
LINE
  5
474
330
46D
100
AcDbEntity
  8
BORDER
 62
     0
100
AcDbLine
 10
0.0
 20
2.54
 30
0.0
 11
0.0
 21
3.74
 31
0.0
  0
LINE
  5
475
330
46D
100
AcDbEntity
  8
BORDER
 62
     0
100
AcDbLine
 10
-2.54
 20
0.0
 30
0.0
 11
-3.74
 21
0.0
 31
0.0
  0
LINE
  5
476
330
46D
100
AcDbEntity
  8
BORDER
 62
     0
100
AcDbLine
 10
0.0
 20
-2.54
 30
0.0
 11
0.0
 21
-3.74
 31
0.0
  0
LINE
  5
477
330
46D
100
AcDbEntity
  8
BORDER
 62
     0
100
AcDbLine
 10
2.54
 20
0.0
 30
0.0
 11
3.74
 21
0.0
 31
0.0
  0
ENDBLK
  5
46F
330
46D
100
AcDbEntity
  8
0
100
AcDbBlockEnd
  0
BLOCK
  5
47A
330
479
100
AcDbEntity
  8
0
100
AcDbBlockBegin
  2
SW_CENTERMARKSYMBOL_36
 70
     0
 10
0.0
 20
0.0
 30
0.0
  3
SW_CENTERMARKSYMBOL_36
  1

  0
LINE
  5
47C
330
479
100
AcDbEntity
  8
BORDER
 62
     0
100
AcDbLine
 10
0.0
 20
0.0
 30
0.0
 11
0.0
 21
2.54
 31
0.0
  0
LINE
  5
47D
330
479
100
AcDbEntity
  8
BORDER
 62
     0
100
AcDbLine
 10
0.0
 20
0.0
 30
0.0
 11
-2.54
 21
0.0
 31
0.0
  0
LINE
  5
47E
330
479
100
AcDbEntity
  8
BORDER
 62
     0
100
AcDbLine
 10
0.0
 20
0.0
 30
0.0
 11
0.0
 21
-2.54
 31
0.0
  0
LINE
  5
47F
330
479
100
AcDbEntity
  8
BORDER
 62
     0
100
AcDbLine
 10
0.0
 20
0.0
 30
0.0
 11
2.54
 21
0.0
 31
0.0
  0
LINE
  5
480
330
479
100
AcDbEntity
  8
BORDER
 62
     0
100
AcDbLine
 10
0.0
 20
2.54
 30
0.0
 11
0.0
 21
3.74
 31
0.0
  0
LINE
  5
481
330
479
100
AcDbEntity
  8
BORDER
 62
     0
100
AcDbLine
 10
-2.54
 20
0.0
 30
0.0
 11
-3.74
 21
0.0
 31
0.0
  0
LINE
  5
482
330
479
100
AcDbEntity
  8
BORDER
 62
     0
100
AcDbLine
 10
0.0
 20
-2.54
 30
0.0
 11
0.0
 21
-3.74
 31
0.0
  0
LINE
  5
483
330
479
100
AcDbEntity
  8
BORDER
 62
     0
100
AcDbLine
 10
2.54
 20
0.0
 30
0.0
 11
3.74
 21
0.0
 31
0.0
  0
ENDBLK
  5
47B
330
479
100
AcDbEntity
  8
0
100
AcDbBlockEnd
  0
ENDSEC
  0
SECTION
  2
ENTITIES
  0
HATCH
  5
78
330
1F
100
AcDbEntity
  8
TRIM
100
AcDbHatch
 10
0.0
 20
0.0
 30
0.0
210
0.0
220
0.0
230
1.0
  2
SOLID
 70
     1
 71
     0
 91
        1
 92
        0
 93
        6
 72
     1
 10
10.0
 20
0.0
 11
10.0
 21
5.000000000000001
 72
     1
 10
10.0
 20
5.000000000000001
 11
5.000000000000003
 21
4.999999999999999
 72
     1
 10
5.000000000000003
 20
4.999999999999999
 11
5.000000000000002
 21
9.999999999999998
 72
     1
 10
5.000000000000002
 20
9.999999999999998
 11
0.0
 21
9.999999999999998
 72
     1
 10
0.0
 20
9.999999999999998
 11
0.0
 21
0.0
 72
     1
 10
0.0
 20
0.0
 11
10.0
 21
0.0
 97
        0
 75
     0
 76
     1
 98
        1
 10
0.0
 20
0.0
  0
HATCH
  5
79
330
1F
100
AcDbEntity
  8
TRIM
100
AcDbHatch
 10
0.0
 20
0.0
 30
0.0
210
0.0
220
0.0
230
1.0
  2
SOLID
 70
     1
 71
     0
 91
        1
 92
        0
 93
        6
 72
     1
 10
0.0
 20
831.0000000000001
 11
4.999999999999901
 21
831.0000000000001
 72
     1
 10
4.999999999999901
 20
831.0000000000001
 11
4.999999999999901
 21
836.0
 72
     1
 10
4.999999999999901
 20
836.0
 11
9.9999999999998
 21
836.0
 72
     1
 10
9.9999999999998
 20
836.0
 11
9.999999999999797
 21
841.0
 72
     1
 10
9.999999999999797
 20
841.0
 11
0.0
 21
841.0
 72
     1
 10
0.0
 20
841.0
 11
0.0
 21
831.0000000000001
 97
        0
 75
     0
 76
     1
 98
        1
 10
0.0
 20
0.0
  0
HATCH
  5
7A
330
1F
100
AcDbEntity
  8
TRIM
100
AcDbHatch
 10
0.0
 20
0.0
 30
0.0
210
0.0
220
0.0
230
1.0
  2
SOLID
 70
     1
 71
     0
 91
        1
 92
        0
 93
        6
 72
     1
 10
1184.0
 20
836.0
 11
1184.0
 21
831.0
 72
     1
 10
1184.0
 20
831.0
 11
1189.0
 21
831.0
 72
     1
 10
1189.0
 20
831.0
 11
1189.0
 21
841.0
 72
     1
 10
1189.0
 20
841.0
 11
1179.0
 21
841.0
 72
     1
 10
1179.0
 20
841.0
 11
1179.0
 21
836.0
 72
     1
 10
1179.0
 20
836.0
 11
1184.0
 21
836.0
 97
        0
 75
     0
 76
     1
 98
        1
 10
0.0
 20
0.0
  0
HATCH
  5
7B
330
1F
100
AcDbEntity
  8
TRIM
100
AcDbHatch
 10
0.0
 20
0.0
 30
0.0
210
0.0
220
0.0
230
1.0
  2
SOLID
 70
     1
 71
     0
 91
        1
 92
        0
 93
        6
 72
     1
 10
1189.0
 20
10.00000000000001
 11
1184.0
 21
10.00000000000001
 72
     1
 10
1184.0
 20
10.00000000000001
 11
1184.0
 21
5.000000000000001
 72
     1
 10
1184.0
 20
5.000000000000001
 11
1179.0
 21
5.000000000000001
 72
     1
 10
1179.0
 20
5.000000000000001
 11
1179.0
 21
0.0
 72
     1
 10
1179.0
 20
0.0
 11
1189.0
 21
0.0
 72
     1
 10
1189.0
 20
0.0
 11
1189.0
 21
10.00000000000001
 97
        0
 75
     0
 76
     1
 98
        1
 10
0.0
 20
0.0
  0
LINE
  5
7C
330
1F
100
AcDbEntity
  8
BORDER
370
    35
100
AcDbLine
 10
544.5
 20
836.0
 30
0.0
 11
544.5
 21
831.0
 31
0.0
  0
LINE
  5
7D
330
1F
100
AcDbEntity
  8
BORDER
370
    35
100
AcDbLine
 10
494.5
 20
836.0
 30
0.0
 11
494.5
 21
831.0
 31
0.0
  0
LINE
  5
7E
330
1F
100
AcDbEntity
  8
BORDER
370
    35
100
AcDbLine
 10
444.5
 20
836.0
 30
0.0
 11
444.5
 21
831.0
 31
0.0
  0
LINE
  5
7F
330
1F
100
AcDbEntity
  8
BORDER
370
    35
100
AcDbLine
 10
394.5
 20
836.0
 30
0.0
 11
394.5
 21
831.0
 31
0.0
  0
LINE
  5
80
330
1F
100
AcDbEntity
  8
BORDER
370
    35
100
AcDbLine
 10
344.5
 20
836.0
 30
0.0
 11
344.5
 21
831.0
 31
0.0
  0
LINE
  5
81
330
1F
100
AcDbEntity
  8
BORDER
370
    35
100
AcDbLine
 10
294.5
 20
836.0
 30
0.0
 11
294.5
 21
831.0
 31
0.0
  0
LINE
  5
82
330
1F
100
AcDbEntity
  8
BORDER
370
    35
100
AcDbLine
 10
244.5
 20
836.0
 30
0.0
 11
244.5
 21
831.0
 31
0.0
  0
LINE
  5
83
330
1F
100
AcDbEntity
  8
BORDER
370
    35
100
AcDbLine
 10
194.5
 20
836.0
 30
0.0
 11
194.5
 21
831.0
 31
0.0
  0
LINE
  5
84
330
1F
100
AcDbEntity
  8
BORDER
370
    35
100
AcDbLine
 10
144.5
 20
836.0
 30
0.0
 11
144.5
 21
831.0
 31
0.0
  0
LINE
  5
85
330
1F
100
AcDbEntity
  8
BORDER
370
    35
100
AcDbLine
 10
94.5
 20
836.0
 30
0.0
 11
94.5
 21
831.0
 31
0.0
  0
LINE
  5
86
330
1F
100
AcDbEntity
  8
BORDER
370
    35
100
AcDbLine
 10
44.5
 20
836.0
 30
0.0
 11
44.5
 21
831.0
 31
0.0
  0
LINE
  5
87
330
1F
100
AcDbEntity
  8
CONSTRUCTION
100
AcDbLine
 10
594.5
 20
833.0
 30
0.0
 11
544.5
 21
833.0
 31
0.0
  0
LINE
  5
88
330
1F
100
AcDbEntity
  8
CONSTRUCTION
100
AcDbLine
 10
544.5
 20
833.0
 30
0.0
 11
494.5
 21
833.0
 31
0.0
  0
LINE
  5
89
330
1F
100
AcDbEntity
  8
CONSTRUCTION
100
AcDbLine
 10
494.5
 20
833.0
 30
0.0
 11
444.5
 21
833.0
 31
0.0
  0
LINE
  5
8A
330
1F
100
AcDbEntity
  8
CONSTRUCTION
100
AcDbLine
 10
444.5
 20
833.0
 30
0.0
 11
394.5
 21
833.0
 31
0.0
  0
LINE
  5
8B
330
1F
100
AcDbEntity
  8
CONSTRUCTION
100
AcDbLine
 10
394.5
 20
833.0
 30
0.0
 11
344.5
 21
833.0
 31
0.0
  0
LINE
  5
8C
330
1F
100
AcDbEntity
  8
CONSTRUCTION
100
AcDbLine
 10
344.5
 20
833.0
 30
0.0
 11
294.5
 21
833.0
 31
0.0
  0
LINE
  5
8D
330
1F
100
AcDbEntity
  8
CONSTRUCTION
100
AcDbLine
 10
294.5
 20
833.0
 30
0.0
 11
244.5
 21
833.0
 31
0.0
  0
LINE
  5
8E
330
1F
100
AcDbEntity
  8
CONSTRUCTION
100
AcDbLine
 10
244.5
 20
833.0
 30
0.0
 11
194.5
 21
833.0
 31
0.0
  0
LINE
  5
8F
330
1F
100
AcDbEntity
  8
CONSTRUCTION
100
AcDbLine
 10
194.5
 20
833.0
 30
0.0
 11
144.5
 21
833.0
 31
0.0
  0
LINE
  5
90
330
1F
100
AcDbEntity
  8
CONSTRUCTION
100
AcDbLine
 10
144.5
 20
833.0
 30
0.0
 11
94.5
 21
833.0
 31
0.0
  0
LINE
  5
91
330
1F
100
AcDbEntity
  8
CONSTRUCTION
100
AcDbLine
 10
94.5
 20
833.0
 30
0.0
 11
44.5
 21
833.0
 31
0.0
  0
LINE
  5
92
330
1F
100
AcDbEntity
  8
CONSTRUCTION
100
AcDbLine
 10
44.5
 20
833.0
 30
0.0
 11
45.392628311
 21
833.0
 31
0.0
  0
LINE
  5
93
330
1F
100
AcDbEntity
  8
CONSTRUCTION
100
AcDbLine
 10
44.5
 20
833.0
 30
0.0
 11
32.0
 21
833.0
 31
0.0
  0
LINE
  5
94
330
1F
100
AcDbEntity
  8
BORDER
370
    35
100
AcDbLine
 10
644.5
 20
836.0
 30
0.0
 11
644.5
 21
831.0
 31
0.0
  0
LINE
  5
95
330
1F
100
AcDbEntity
  8
BORDER
370
    35
100
AcDbLine
 10
694.5
 20
836.0
 30
0.0
 11
694.5
 21
831.0
 31
0.0
  0
LINE
  5
96
330
1F
100
AcDbEntity
  8
BORDER
370
    35
100
AcDbLine
 10
744.5
 20
836.0
 30
0.0
 11
744.5
 21
831.0
 31
0.0
  0
LINE
  5
97
330
1F
100
AcDbEntity
  8
CONSTRUCTION
100
AcDbLine
 10
594.5
 20
0.0
 30
0.0
 11
594.5
 21
5.0
 31
0.0
  0
LINE
  5
98
330
1F
100
AcDbEntity
  8
BORDER
370
    35
100
AcDbLine
 10
794.5
 20
836.0
 30
0.0
 11
794.5
 21
831.0
 31
0.0
  0
LINE
  5
99
330
1F
100
AcDbEntity
  8
BORDER
370
    35
100
AcDbLine
 10
844.5
 20
836.0
 30
0.0
 11
844.5
 21
831.0
 31
0.0
  0
LINE
  5
9A
330
1F
100
AcDbEntity
  8
BORDER
370
    35
100
AcDbLine
 10
894.5
 20
836.0
 30
0.0
 11
894.5
 21
831.0
 31
0.0
  0
LINE
  5
9B
330
1F
100
AcDbEntity
  8
BORDER
370
    35
100
AcDbLine
 10
944.5
 20
836.0
 30
0.0
 11
944.5
 21
831.0
 31
0.0
  0
LINE
  5
9C
330
1F
100
AcDbEntity
  8
BORDER
370
    35
100
AcDbLine
 10
994.5
 20
836.0
 30
0.0
 11
994.5
 21
831.0
 31
0.0
  0
LINE
  5
9D
330
1F
100
AcDbEntity
  8
BORDER
370
    35
100
AcDbLine
 10
1044.5
 20
836.0
 30
0.0
 11
1044.5
 21
831.0
 31
0.0
  0
LINE
  5
9E
330
1F
100
AcDbEntity
  8
CONSTRUCTION
100
AcDbLine
 10
0.0
 20
0.0
 30
0.0
 11
1189.0
 21
0.0
 31
0.0
  0
LINE
  5
9F
330
1F
100
AcDbEntity
  8
BORDER
370
    35
100
AcDbLine
 10
1094.5
 20
836.0
 30
0.0
 11
1094.5
 21
831.0
 31
0.0
  0
LINE
  5
A0
330
1F
100
AcDbEntity
  8
BORDER
370
    35
100
AcDbLine
 10
1144.5
 20
836.0
 30
0.0
 11
1144.5
 21
831.0
 31
0.0
  0
LINE
  5
A1
330
1F
100
AcDbEntity
  8
CONSTRUCTION
100
AcDbLine
 10
594.5
 20
833.0
 30
0.0
 11
644.5
 21
833.0
 31
0.0
  0
LINE
  5
A2
330
1F
100
AcDbEntity
  8
CONSTRUCTION
100
AcDbLine
 10
644.5
 20
833.0
 30
0.0
 11
694.5
 21
833.0
 31
0.0
  0
LINE
  5
A3
330
1F
100
AcDbEntity
  8
BORDER
370
    35
100
AcDbLine
 10
1116.0540298162
 20
33.5703270608
 30
0.0
 11
1059.03635229
 21
33.5703270608
 31
0.0
  0
LINE
  5
A4
330
1F
100
AcDbEntity
  8
BORDER
370
    35
100
AcDbLine
 10
1147.5699836286
 20
52.0001454479
 30
0.0
 11
1147.5699836286
 21
33.5703270608
 31
0.0
  0
LINE
  5
A5
330
1F
100
AcDbEntity
  8
BORDER
  6
Continuous
370
    35
100
AcDbLine
 10
1134.9813812184
 20
10.0001454479
 30
0.0
 11
1134.9813812184
 21
33.5703270608
 31
0.0
  0
LINE
  5
A6
330
1F
100
AcDbEntity
  8
BORDER
370
    35
100
AcDbLine
 10
1179.0
 20
42.5703270608
 30
0.0
 11
1116.0540298162
 21
42.5703270608
 31
0.0
  0
LINE
  5
A7
330
1F
100
AcDbEntity
  8
BORDER
370
    35
100
AcDbLine
 10
1116.0540298162
 20
24.5703270608
 30
0.0
 11
1089.03635229
 21
24.5703270608
 31
0.0
  0
LINE
  5
A8
330
1F
100
AcDbEntity
  8
CONSTRUCTION
100
AcDbLine
 10
1167.2
 20
24.5703270608
 30
0.0
 11
1179.0
 21
10.0001454479
 31
0.0
  0
LINE
  5
A9
330
1F
100
AcDbEntity
  8
BORDER
  6
Continuous
370
    35
100
AcDbLine
 10
1167.2
 20
10.0001454479
 30
0.0
 11
1167.2
 21
24.5703270608
 31
0.0
  0
LINE
  5
AA
330
1F
100
AcDbEntity
  8
BORDER
  6
Continuous
370
    35
100
AcDbLine
 10
1179.0
 20
24.5703270608
 30
0.0
 11
1116.0540298162
 21
24.5703270608
 31
0.0
  0
LINE
  5
AB
330
1F
100
AcDbEntity
  8
BORDER
  6
Continuous
370
    35
100
AcDbLine
 10
1152.2
 20
10.0001454479
 30
0.0
 11
1152.2
 21
24.5703270608
 31
0.0
  0
LINE
  5
AC
330
1F
100
AcDbEntity
  8
BORDER
100
AcDbLine
 10
1067.7146581068
 20
14.8656048577
 30
0.0
 11
1079.7284011771
 21
14.8656048577
 31
0.0
  0
LINE
  5
AD
330
1F
100
AcDbEntity
  8
BORDER
370
    70
100
AcDbLine
 10
1059.03635229
 20
52.0001454479
 30
0.0
 11
1179.03635229
 21
52.0001454479
 31
0.0
  0
LINE
  5
AE
330
1F
100
AcDbEntity
  8
BORDER
  6
Continuous
370
    70
100
AcDbLine
 10
1059.03635229
 20
52.0001454479
 30
0.0
 11
1059.03635229
 21
10.0001454479
 31
0.0
  0
LINE
  5
AF
330
1F
100
AcDbEntity
  8
CONSTRUCTION
100
AcDbLine
 10
694.5
 20
833.0
 30
0.0
 11
744.5
 21
833.0
 31
0.0
  0
LINE
  5
B0
330
1F
100
AcDbEntity
  8
CONSTRUCTION
100
AcDbLine
 10
744.5
 20
833.0
 30
0.0
 11
794.5
 21
833.0
 31
0.0
  0
LINE
  5
B1
330
1F
100
AcDbEntity
  8
BORDER
370
    35
100
AcDbLine
 10
1116.0540298162
 20
52.0001454479
 30
0.0
 11
1116.0540298162
 21
10.0001454479
 31
0.0
  0
LINE
  5
B2
330
1F
100
AcDbEntity
  8
CONSTRUCTION
100
AcDbLine
 10
794.5
 20
833.0
 30
0.0
 11
844.5
 21
833.0
 31
0.0
  0
LINE
  5
B3
330
1F
100
AcDbEntity
  8
CONSTRUCTION
100
AcDbLine
 10
844.5
 20
833.0
 30
0.0
 11
894.5
 21
833.0
 31
0.0
  0
LINE
  5
B4
330
1F
100
AcDbEntity
  8
CONSTRUCTION
100
AcDbLine
 10
894.5
 20
833.0
 30
0.0
 11
944.5
 21
833.0
 31
0.0
  0
LINE
  5
B5
330
1F
100
AcDbEntity
  8
CONSTRUCTION
100
AcDbLine
 10
944.5
 20
833.0
 30
0.0
 11
994.5
 21
833.0
 31
0.0
  0
LINE
  5
B6
330
1F
100
AcDbEntity
  8
CONSTRUCTION
100
AcDbLine
 10
994.5
 20
833.0
 30
0.0
 11
1044.5
 21
833.0
 31
0.0
  0
LINE
  5
B7
330
1F
100
AcDbEntity
  8
CONSTRUCTION
100
AcDbLine
 10
1044.5
 20
833.0
 30
0.0
 11
1094.5
 21
833.0
 31
0.0
  0
LINE
  5
B8
330
1F
100
AcDbEntity
  8
CONSTRUCTION
100
AcDbLine
 10
1094.5
 20
833.0
 30
0.0
 11
1144.5
 21
833.0
 31
0.0
  0
LINE
  5
B9
330
1F
100
AcDbEntity
  8
CONSTRUCTION
100
AcDbLine
 10
1144.5
 20
833.0
 30
0.0
 11
1169.5
 21
833.0
 31
0.0
  0
LINE
  5
BA
330
1F
100
AcDbEntity
  8
BORDER
370
    35
100
AcDbLine
 10
1179.0
 20
470.5
 30
0.0
 11
1184.0
 21
470.5
 31
0.0
  0
LINE
  5
BB
330
1F
100
AcDbEntity
  8
BORDER
370
    35
100
AcDbLine
 10
1179.0
 20
520.5
 30
0.0
 11
1184.0
 21
520.5
 31
0.0
  0
LINE
  5
BC
330
1F
100
AcDbEntity
  8
BORDER
370
    35
100
AcDbLine
 10
1179.0
 20
570.5
 30
0.0
 11
1184.0
 21
570.5
 31
0.0
  0
LINE
  5
BD
330
1F
100
AcDbEntity
  8
BORDER
370
    35
100
AcDbLine
 10
1179.0
 20
620.5
 30
0.0
 11
1184.0
 21
620.5
 31
0.0
  0
LINE
  5
BE
330
1F
100
AcDbEntity
  8
BORDER
370
    35
100
AcDbLine
 10
1179.0
 20
670.5
 30
0.0
 11
1184.0
 21
670.5
 31
0.0
  0
LINE
  5
BF
330
1F
100
AcDbEntity
  8
BORDER
370
    35
100
AcDbLine
 10
1179.0
 20
720.5
 30
0.0
 11
1184.0
 21
720.5
 31
0.0
  0
LINE
  5
C0
330
1F
100
AcDbEntity
  8
BORDER
370
    35
100
AcDbLine
 10
1179.0
 20
770.5
 30
0.0
 11
1184.0
 21
770.5
 31
0.0
  0
LINE
  5
C1
330
1F
100
AcDbEntity
  8
CONSTRUCTION
100
AcDbLine
 10
1181.5
 20
770.5
 30
0.0
 11
1181.5
 21
820.5
 31
0.0
  0
LINE
  5
C2
330
1F
100
AcDbEntity
  8
CONSTRUCTION
100
AcDbLine
 10
1181.5
 20
770.5
 30
0.0
 11
1181.5
 21
720.5
 31
0.0
  0
LINE
  5
C3
330
1F
100
AcDbEntity
  8
CONSTRUCTION
100
AcDbLine
 10
1181.5
 20
720.5
 30
0.0
 11
1181.5
 21
670.5
 31
0.0
  0
LINE
  5
C4
330
1F
100
AcDbEntity
  8
CONSTRUCTION
100
AcDbLine
 10
1181.5
 20
670.5
 30
0.0
 11
1181.5
 21
620.5
 31
0.0
  0
LINE
  5
C5
330
1F
100
AcDbEntity
  8
CONSTRUCTION
100
AcDbLine
 10
1181.5
 20
620.5
 30
0.0
 11
1181.5
 21
570.5
 31
0.0
  0
LINE
  5
C6
330
1F
100
AcDbEntity
  8
CONSTRUCTION
100
AcDbLine
 10
1181.5
 20
570.5
 30
0.0
 11
1181.5
 21
520.5
 31
0.0
  0
LINE
  5
C7
330
1F
100
AcDbEntity
  8
CONSTRUCTION
100
AcDbLine
 10
1181.5
 20
520.5
 30
0.0
 11
1181.5
 21
470.5
 31
0.0
  0
LINE
  5
C8
330
1F
100
AcDbEntity
  8
CONSTRUCTION
100
AcDbLine
 10
1181.5
 20
470.5
 30
0.0
 11
1181.5
 21
420.5
 31
0.0
  0
LINE
  5
C9
330
1F
100
AcDbEntity
  8
BORDER
370
    35
100
AcDbLine
 10
1179.0
 20
370.5
 30
0.0
 11
1184.0
 21
370.5
 31
0.0
  0
LINE
  5
CA
330
1F
100
AcDbEntity
  8
BORDER
370
    35
100
AcDbLine
 10
1179.0
 20
320.5
 30
0.0
 11
1184.0
 21
320.5
 31
0.0
  0
LINE
  5
CB
330
1F
100
AcDbEntity
  8
BORDER
  6
Continuous
370
    35
100
AcDbLine
 10
1074.1558991771
 20
16.1156048577
 30
0.0
 11
1074.1558991771
 21
13.6156048577
 31
0.0
  0
LINE
  5
CC
330
1F
100
AcDbEntity
  8
BORDER
  6
Continuous
370
    35
100
AcDbLine
 10
1074.1558991771
 20
13.6156048577
 30
0.0
 11
1079.1558991771
 21
12.3656048577
 31
0.0
  0
LINE
  5
CD
330
1F
100
AcDbEntity
  8
BORDER
  6
Continuous
370
    35
100
AcDbLine
 10
1079.1558991771
 20
12.3656048577
 30
0.0
 11
1079.1558991771
 21
17.3656048577
 31
0.0
  0
LINE
  5
CE
330
1F
100
AcDbEntity
  8
CONSTRUCTION
100
AcDbLine
 10
0.0
 20
0.0
 30
0.0
 11
0.0
 21
841.0
 31
0.0
  0
LINE
  5
CF
330
1F
100
AcDbEntity
  8
BORDER
370
    35
100
AcDbLine
 10
1179.0
 20
270.5
 30
0.0
 11
1184.0
 21
270.5
 31
0.0
  0
LINE
  5
D0
330
1F
100
AcDbEntity
  8
CONSTRUCTION
100
AcDbLine
 10
0.0
 20
841.0
 30
0.0
 11
1189.0
 21
841.0
 31
0.0
  0
LINE
  5
D1
330
1F
100
AcDbEntity
  8
CONSTRUCTION
100
AcDbLine
 10
1189.0
 20
0.0
 30
0.0
 11
1189.0
 21
841.0
 31
0.0
  0
LINE
  5
D2
330
1F
100
AcDbEntity
  8
BORDER
370
    35
100
AcDbLine
 10
15.0
 20
836.0
 30
0.0
 11
1184.0
 21
836.0
 31
0.0
  0
LINE
  5
D3
330
1F
100
AcDbEntity
  8
BORDER
370
    35
100
AcDbLine
 10
15.0
 20
836.0
 30
0.0
 11
15.0
 21
5.0
 31
0.0
  0
LINE
  5
D4
330
1F
100
AcDbEntity
  8
BORDER
370
    35
100
AcDbLine
 10
15.0
 20
5.0
 30
0.0
 11
1184.0
 21
5.0
 31
0.0
  0
LINE
  5
D5
330
1F
100
AcDbEntity
  8
BORDER
370
    35
100
AcDbLine
 10
1184.0
 20
836.0
 30
0.0
 11
1184.0
 21
5.0
 31
0.0
  0
LINE
  5
D6
330
1F
100
AcDbEntity
  8
BORDER
370
    50
100
AcDbLine
 10
20.0
 20
831.0
 30
0.0
 11
1179.0
 21
831.0
 31
0.0
  0
LINE
  5
D7
330
1F
100
AcDbEntity
  8
BORDER
370
    70
100
AcDbLine
 10
20.0
 20
831.0
 30
0.0
 11
20.0
 21
10.0001454479
 31
0.0
  0
LINE
  5
D8
330
1F
100
AcDbEntity
  8
BORDER
370
    70
100
AcDbLine
 10
20.0
 20
10.0001454479
 30
0.0
 11
1179.0
 21
10.0001454479
 31
0.0
  0
LINE
  5
D9
330
1F
100
AcDbEntity
  8
BORDER
370
    50
100
AcDbLine
 10
1179.0
 20
831.0
 30
0.0
 11
1179.0
 21
10.0001454479
 31
0.0
  0
LINE
  5
DA
330
1F
100
AcDbEntity
  8
CONSTRUCTION
100
AcDbLine
 10
594.5
 20
841.0
 30
0.0
 11
594.5
 21
836.0
 31
0.0
  0
LINE
  5
DB
330
1F
100
AcDbEntity
  8
BORDER
370
    35
100
AcDbLine
 10
1179.0
 20
220.5
 30
0.0
 11
1184.0
 21
220.5
 31
0.0
  0
LINE
  5
DC
330
1F
100
AcDbEntity
  8
BORDER
370
    50
100
AcDbLine
 10
594.5
 20
836.0
 30
0.0
 11
594.5
 21
826.0
 31
0.0
  0
LINE
  5
DD
330
1F
100
AcDbEntity
  8
BORDER
370
    50
100
AcDbLine
 10
594.5
 20
5.0
 30
0.0
 11
594.5
 21
10.0001454479
 31
0.0
  0
LINE
  5
DE
330
1F
100
AcDbEntity
  8
BORDER
370
    50
100
AcDbLine
 10
15.0
 20
420.5
 30
0.0
 11
25.0
 21
420.5
 31
0.0
  0
LINE
  5
DF
330
1F
100
AcDbEntity
  8
BORDER
370
    50
100
AcDbLine
 10
1184.0
 20
420.5
 30
0.0
 11
1174.0
 21
420.5
 31
0.0
  0
LINE
  5
E0
330
1F
100
AcDbEntity
  8
BORDER
370
    35
100
AcDbLine
 10
544.5
 20
10.0001454479
 30
0.0
 11
544.5
 21
5.0
 31
0.0
  0
LINE
  5
E1
330
1F
100
AcDbEntity
  8
CONSTRUCTION
100
AcDbLine
 10
594.5
 20
7.0
 30
0.0
 11
544.5
 21
7.0
 31
0.0
  0
LINE
  5
E2
330
1F
100
AcDbEntity
  8
BORDER
370
    35
100
AcDbLine
 10
494.5
 20
10.0001454479
 30
0.0
 11
494.5
 21
5.0
 31
0.0
  0
LINE
  5
E3
330
1F
100
AcDbEntity
  8
BORDER
370
    35
100
AcDbLine
 10
444.5
 20
10.0001454479
 30
0.0
 11
444.5
 21
5.0
 31
0.0
  0
LINE
  5
E4
330
1F
100
AcDbEntity
  8
BORDER
370
    35
100
AcDbLine
 10
394.5
 20
10.0001454479
 30
0.0
 11
394.5
 21
5.0
 31
0.0
  0
LINE
  5
E5
330
1F
100
AcDbEntity
  8
BORDER
  6
Continuous
370
    35
100
AcDbLine
 10
1079.1558991771
 20
17.3656048577
 30
0.0
 11
1074.1558991771
 21
16.1156048577
 31
0.0
  0
LINE
  5
E6
330
1F
100
AcDbEntity
  8
BORDER
370
    35
100
AcDbLine
 10
1179.0859374411
 20
33.5703270608
 30
0.0
 11
1116.0540298162
 21
33.5703270608
 31
0.0
  0
LINE
  5
E7
330
1F
100
AcDbEntity
  8
BORDER
370
    35
100
AcDbLine
 10
344.5
 20
10.0001454479
 30
0.0
 11
344.5
 21
5.0
 31
0.0
  0
LINE
  5
E8
330
1F
100
AcDbEntity
  8
BORDER
370
    35
100
AcDbLine
 10
294.5
 20
10.0001454479
 30
0.0
 11
294.5
 21
5.0
 31
0.0
  0
LINE
  5
E9
330
1F
100
AcDbEntity
  8
BORDER
370
    35
100
AcDbLine
 10
244.5
 20
10.0001454479
 30
0.0
 11
244.5
 21
5.0
 31
0.0
  0
LINE
  5
EA
330
1F
100
AcDbEntity
  8
BORDER
370
    35
100
AcDbLine
 10
194.5
 20
10.0001454479
 30
0.0
 11
194.5
 21
5.0
 31
0.0
  0
LINE
  5
EB
330
1F
100
AcDbEntity
  8
BORDER
370
    35
100
AcDbLine
 10
144.5
 20
10.0001454479
 30
0.0
 11
144.5
 21
5.0
 31
0.0
  0
LINE
  5
EC
330
1F
100
AcDbEntity
  8
BORDER
370
    35
100
AcDbLine
 10
94.5
 20
10.0001454479
 30
0.0
 11
94.5
 21
5.0
 31
0.0
  0
LINE
  5
ED
330
1F
100
AcDbEntity
  8
CONSTRUCTION
100
AcDbLine
 10
544.5
 20
7.0
 30
0.0
 11
494.5
 21
7.0
 31
0.0
  0
LINE
  5
EE
330
1F
100
AcDbEntity
  8
CONSTRUCTION
100
AcDbLine
 10
494.5
 20
7.0
 30
0.0
 11
444.5
 21
7.0
 31
0.0
  0
LINE
  5
EF
330
1F
100
AcDbEntity
  8
CONSTRUCTION
100
AcDbLine
 10
444.5
 20
7.0
 30
0.0
 11
394.5
 21
7.0
 31
0.0
  0
LINE
  5
F0
330
1F
100
AcDbEntity
  8
CONSTRUCTION
100
AcDbLine
 10
394.5
 20
7.0
 30
0.0
 11
344.5
 21
7.0
 31
0.0
  0
LINE
  5
F1
330
1F
100
AcDbEntity
  8
CONSTRUCTION
100
AcDbLine
 10
344.5
 20
7.0
 30
0.0
 11
294.5
 21
7.0
 31
0.0
  0
LINE
  5
F2
330
1F
100
AcDbEntity
  8
CONSTRUCTION
100
AcDbLine
 10
294.5
 20
7.0
 30
0.0
 11
244.5
 21
7.0
 31
0.0
  0
LINE
  5
F3
330
1F
100
AcDbEntity
  8
CONSTRUCTION
100
AcDbLine
 10
244.5
 20
7.0
 30
0.0
 11
194.5
 21
7.0
 31
0.0
  0
LINE
  5
F4
330
1F
100
AcDbEntity
  8
CONSTRUCTION
100
AcDbLine
 10
194.5
 20
7.0
 30
0.0
 11
144.5
 21
7.0
 31
0.0
  0
LINE
  5
F5
330
1F
100
AcDbEntity
  8
BORDER
370
    35
100
AcDbLine
 10
1179.0
 20
170.5
 30
0.0
 11
1184.0
 21
170.5
 31
0.0
  0
LINE
  5
F6
330
1F
100
AcDbEntity
  8
CONSTRUCTION
100
AcDbLine
 10
144.5
 20
7.0
 30
0.0
 11
94.5
 21
7.0
 31
0.0
  0
LINE
  5
F7
330
1F
100
AcDbEntity
  8
CONSTRUCTION
100
AcDbLine
 10
94.5
 20
7.0
 30
0.0
 11
44.5
 21
7.0
 31
0.0
  0
LINE
  5
F8
330
1F
100
AcDbEntity
  8
BORDER
370
    35
100
AcDbLine
 10
44.5
 20
10.0001454479
 30
0.0
 11
44.5
 21
5.0
 31
0.0
  0
LINE
  5
F9
330
1F
100
AcDbEntity
  8
CONSTRUCTION
100
AcDbLine
 10
44.5
 20
7.0
 30
0.0
 11
32.0
 21
7.0
 31
0.0
  0
LINE
  5
FA
330
1F
100
AcDbEntity
  8
BORDER
370
    35
100
AcDbLine
 10
644.5
 20
10.0001454479
 30
0.0
 11
644.5
 21
5.0
 31
0.0
  0
LINE
  5
FB
330
1F
100
AcDbEntity
  8
BORDER
370
    35
100
AcDbLine
 10
694.5
 20
10.0001454479
 30
0.0
 11
694.5
 21
5.0
 31
0.0
  0
LINE
  5
FC
330
1F
100
AcDbEntity
  8
BORDER
370
    35
100
AcDbLine
 10
744.5
 20
10.0001454479
 30
0.0
 11
744.5
 21
5.0
 31
0.0
  0
LINE
  5
FD
330
1F
100
AcDbEntity
  8
BORDER
370
    35
100
AcDbLine
 10
794.5
 20
10.0001454479
 30
0.0
 11
794.5
 21
5.0
 31
0.0
  0
LINE
  5
FE
330
1F
100
AcDbEntity
  8
BORDER
370
    35
100
AcDbLine
 10
844.5
 20
10.0001454479
 30
0.0
 11
844.5
 21
5.0
 31
0.0
  0
LINE
  5
FF
330
1F
100
AcDbEntity
  8
BORDER
370
    35
100
AcDbLine
 10
894.5
 20
10.0001454479
 30
0.0
 11
894.5
 21
5.0
 31
0.0
  0
LINE
  5
100
330
1F
100
AcDbEntity
  8
BORDER
370
    35
100
AcDbLine
 10
944.5
 20
10.0001454479
 30
0.0
 11
944.5
 21
5.0
 31
0.0
  0
LINE
  5
101
330
1F
100
AcDbEntity
  8
BORDER
370
    35
100
AcDbLine
 10
994.5
 20
10.0001454479
 30
0.0
 11
994.5
 21
5.0
 31
0.0
  0
LINE
  5
102
330
1F
100
AcDbEntity
  8
BORDER
370
    35
100
AcDbLine
 10
1044.5
 20
10.0001454479
 30
0.0
 11
1044.5
 21
5.0
 31
0.0
  0
LINE
  5
103
330
1F
100
AcDbEntity
  8
BORDER
370
    35
100
AcDbLine
 10
1094.5381397543
 20
10.0001454479
 30
0.0
 11
1094.4745747298
 21
5.0
 31
0.0
  0
LINE
  5
104
330
1F
100
AcDbEntity
  8
BORDER
370
    35
100
AcDbLine
 10
1144.5
 20
10.0001454479
 30
0.0
 11
1144.5
 21
5.0
 31
0.0
  0
LINE
  5
105
330
1F
100
AcDbEntity
  8
CONSTRUCTION
100
AcDbLine
 10
594.5
 20
7.0
 30
0.0
 11
644.5
 21
7.0
 31
0.0
  0
LINE
  5
106
330
1F
100
AcDbEntity
  8
CONSTRUCTION
100
AcDbLine
 10
644.5
 20
7.0
 30
0.0
 11
694.5
 21
7.0
 31
0.0
  0
LINE
  5
107
330
1F
100
AcDbEntity
  8
CONSTRUCTION
100
AcDbLine
 10
694.5
 20
7.0
 30
0.0
 11
744.5
 21
7.0
 31
0.0
  0
LINE
  5
108
330
1F
100
AcDbEntity
  8
CONSTRUCTION
100
AcDbLine
 10
744.5
 20
7.0
 30
0.0
 11
794.5
 21
7.0
 31
0.0
  0
LINE
  5
109
330
1F
100
AcDbEntity
  8
CONSTRUCTION
100
AcDbLine
 10
794.5
 20
7.0
 30
0.0
 11
844.5
 21
7.0
 31
0.0
  0
LINE
  5
10A
330
1F
100
AcDbEntity
  8
CONSTRUCTION
100
AcDbLine
 10
844.5
 20
7.0
 30
0.0
 11
894.5
 21
7.0
 31
0.0
  0
LINE
  5
10B
330
1F
100
AcDbEntity
  8
CONSTRUCTION
100
AcDbLine
 10
894.5
 20
7.0
 30
0.0
 11
944.5
 21
7.0
 31
0.0
  0
LINE
  5
10C
330
1F
100
AcDbEntity
  8
CONSTRUCTION
100
AcDbLine
 10
944.5
 20
7.0
 30
0.0
 11
994.5
 21
7.0
 31
0.0
  0
LINE
  5
10D
330
1F
100
AcDbEntity
  8
CONSTRUCTION
100
AcDbLine
 10
994.5
 20
7.0
 30
0.0
 11
1044.5
 21
7.0
 31
0.0
  0
LINE
  5
10E
330
1F
100
AcDbEntity
  8
CONSTRUCTION
100
AcDbLine
 10
1044.5
 20
7.0
 30
0.0
 11
1094.5
 21
7.0
 31
0.0
  0
LINE
  5
10F
330
1F
100
AcDbEntity
  8
CONSTRUCTION
100
AcDbLine
 10
1094.5
 20
7.0
 30
0.0
 11
1144.5
 21
7.0
 31
0.0
  0
LINE
  5
110
330
1F
100
AcDbEntity
  8
CONSTRUCTION
100
AcDbLine
 10
1144.5
 20
7.0
 30
0.0
 11
1169.5
 21
7.0
 31
0.0
  0
LINE
  5
111
330
1F
100
AcDbEntity
  8
TRIM
100
AcDbLine
 10
0.0
 20
0.0
 30
0.0
 11
0.0
 21
10.0
 31
0.0
  0
LINE
  5
112
330
1F
100
AcDbEntity
  8
BORDER
370
    35
100
AcDbLine
 10
1179.0
 20
120.5
 30
0.0
 11
1184.0
 21
120.5
 31
0.0
  0
LINE
  5
113
330
1F
100
AcDbEntity
  8
BORDER
370
    35
100
AcDbLine
 10
1179.0
 20
70.5
 30
0.0
 11
1184.0
 21
70.5
 31
0.0
  0
LINE
  5
114
330
1F
100
AcDbEntity
  8
TRIM
100
AcDbLine
 10
0.0
 20
10.0
 30
0.0
 11
5.0
 21
10.0
 31
0.0
  0
LINE
  5
115
330
1F
100
AcDbEntity
  8
TRIM
100
AcDbLine
 10
5.0
 20
10.0
 30
0.0
 11
5.0
 21
5.0
 31
0.0
  0
LINE
  5
116
330
1F
100
AcDbEntity
  8
TRIM
100
AcDbLine
 10
5.0
 20
5.0
 30
0.0
 11
10.0
 21
5.0
 31
0.0
  0
LINE
  5
117
330
1F
100
AcDbEntity
  8
TRIM
100
AcDbLine
 10
10.0
 20
5.0
 30
0.0
 11
10.0
 21
0.0
 31
0.0
  0
LINE
  5
118
330
1F
100
AcDbEntity
  8
TRIM
100
AcDbLine
 10
0.0
 20
841.0
 30
0.0
 11
10.0
 21
841.0
 31
0.0
  0
LINE
  5
119
330
1F
100
AcDbEntity
  8
CONSTRUCTION
100
AcDbLine
 10
1181.5
 20
420.5
 30
0.0
 11
1181.5
 21
370.5
 31
0.0
  0
LINE
  5
11A
330
1F
100
AcDbEntity
  8
TRIM
100
AcDbLine
 10
10.0
 20
0.0
 30
0.0
 11
0.0
 21
0.0
 31
0.0
  0
LINE
  5
11B
330
1F
100
AcDbEntity
  8
BORDER
370
    35
100
AcDbLine
 10
15.0
 20
370.5
 30
0.0
 11
20.0
 21
370.5
 31
0.0
  0
LINE
  5
11C
330
1F
100
AcDbEntity
  8
BORDER
370
    35
100
AcDbLine
 10
15.0
 20
320.5
 30
0.0
 11
20.0
 21
320.5
 31
0.0
  0
LINE
  5
11D
330
1F
100
AcDbEntity
  8
BORDER
370
    35
100
AcDbLine
 10
15.0
 20
270.5
 30
0.0
 11
20.0
 21
270.5
 31
0.0
  0
LINE
  5
11E
330
1F
100
AcDbEntity
  8
BORDER
370
    35
100
AcDbLine
 10
15.0
 20
220.5
 30
0.0
 11
20.0
 21
220.5
 31
0.0
  0
LINE
  5
11F
330
1F
100
AcDbEntity
  8
BORDER
370
    35
100
AcDbLine
 10
15.0
 20
170.5
 30
0.0
 11
20.0
 21
170.5
 31
0.0
  0
LINE
  5
120
330
1F
100
AcDbEntity
  8
CONSTRUCTION
100
AcDbLine
 10
1181.5
 20
370.5
 30
0.0
 11
1181.5
 21
320.5
 31
0.0
  0
LINE
  5
121
330
1F
100
AcDbEntity
  8
CONSTRUCTION
100
AcDbLine
 10
1181.5
 20
320.5
 30
0.0
 11
1181.5
 21
270.5
 31
0.0
  0
LINE
  5
122
330
1F
100
AcDbEntity
  8
CONSTRUCTION
100
AcDbLine
 10
1181.5
 20
270.5
 30
0.0
 11
1181.5
 21
220.5
 31
0.0
  0
LINE
  5
123
330
1F
100
AcDbEntity
  8
BORDER
370
    35
100
AcDbLine
 10
15.0
 20
120.5
 30
0.0
 11
20.0
 21
120.5
 31
0.0
  0
LINE
  5
124
330
1F
100
AcDbEntity
  8
CONSTRUCTION
100
AcDbLine
 10
1181.5
 20
220.5
 30
0.0
 11
1181.5
 21
170.5
 31
0.0
  0
LINE
  5
125
330
1F
100
AcDbEntity
  8
CONSTRUCTION
100
AcDbLine
 10
1181.5
 20
170.5
 30
0.0
 11
1181.5
 21
120.5
 31
0.0
  0
LINE
  5
126
330
1F
100
AcDbEntity
  8
BORDER
370
    35
100
AcDbLine
 10
15.0
 20
70.5
 30
0.0
 11
20.0
 21
70.5
 31
0.0
  0
LINE
  5
127
330
1F
100
AcDbEntity
  8
CONSTRUCTION
100
AcDbLine
 10
1181.5
 20
120.5
 30
0.0
 11
1181.5
 21
70.5
 31
0.0
  0
LINE
  5
128
330
1F
100
AcDbEntity
  8
CONSTRUCTION
100
AcDbLine
 10
1181.5
 20
70.5
 30
0.0
 11
1181.5
 21
20.5
 31
0.0
  0
LINE
  5
129
330
1F
100
AcDbEntity
  8
BORDER
370
    35
100
AcDbLine
 10
15.0
 20
470.5
 30
0.0
 11
20.0
 21
470.5
 31
0.0
  0
LINE
  5
12A
330
1F
100
AcDbEntity
  8
TRIM
100
AcDbLine
 10
10.0
 20
841.0
 30
0.0
 11
10.0
 21
836.0
 31
0.0
  0
LINE
  5
12B
330
1F
100
AcDbEntity
  8
TRIM
100
AcDbLine
 10
10.0
 20
836.0
 30
0.0
 11
5.0
 21
836.0
 31
0.0
  0
LINE
  5
12C
330
1F
100
AcDbEntity
  8
TRIM
100
AcDbLine
 10
5.0
 20
836.0
 30
0.0
 11
5.0
 21
831.0
 31
0.0
  0
LINE
  5
12D
330
1F
100
AcDbEntity
  8
TRIM
100
AcDbLine
 10
5.0
 20
831.0
 30
0.0
 11
0.0
 21
831.0
 31
0.0
  0
LINE
  5
12E
330
1F
100
AcDbEntity
  8
CONSTRUCTION
100
AcDbLine
 10
17.5
 20
370.5
 30
0.0
 11
17.5
 21
420.5
 31
0.0
  0
LINE
  5
12F
330
1F
100
AcDbEntity
  8
CONSTRUCTION
100
AcDbLine
 10
17.5
 20
370.5
 30
0.0
 11
17.5
 21
320.5
 31
0.0
  0
LINE
  5
130
330
1F
100
AcDbEntity
  8
CONSTRUCTION
100
AcDbLine
 10
17.5
 20
320.5
 30
0.0
 11
17.5
 21
270.5
 31
0.0
  0
LINE
  5
131
330
1F
100
AcDbEntity
  8
CONSTRUCTION
100
AcDbLine
 10
17.5
 20
270.5
 30
0.0
 11
17.5
 21
220.5
 31
0.0
  0
LINE
  5
132
330
1F
100
AcDbEntity
  8
CONSTRUCTION
100
AcDbLine
 10
17.5
 20
220.5
 30
0.0
 11
17.5
 21
170.5
 31
0.0
  0
LINE
  5
133
330
1F
100
AcDbEntity
  8
CONSTRUCTION
100
AcDbLine
 10
17.5
 20
170.5
 30
0.0
 11
17.5
 21
120.5
 31
0.0
  0
LINE
  5
134
330
1F
100
AcDbEntity
  8
CONSTRUCTION
100
AcDbLine
 10
17.5
 20
120.5
 30
0.0
 11
17.5
 21
70.5
 31
0.0
  0
LINE
  5
135
330
1F
100
AcDbEntity
  8
CONSTRUCTION
100
AcDbLine
 10
17.5
 20
70.5
 30
0.0
 11
17.5
 21
20.5
 31
0.0
  0
LINE
  5
136
330
1F
100
AcDbEntity
  8
BORDER
370
    35
100
AcDbLine
 10
15.0
 20
520.5
 30
0.0
 11
20.0
 21
520.5
 31
0.0
  0
LINE
  5
137
330
1F
100
AcDbEntity
  8
BORDER
370
    35
100
AcDbLine
 10
15.0
 20
570.5
 30
0.0
 11
20.0
 21
570.5
 31
0.0
  0
LINE
  5
138
330
1F
100
AcDbEntity
  8
BORDER
370
    35
100
AcDbLine
 10
15.0
 20
620.5
 30
0.0
 11
20.0
 21
620.5
 31
0.0
  0
LINE
  5
139
330
1F
100
AcDbEntity
  8
BORDER
370
    35
100
AcDbLine
 10
15.0
 20
670.5
 30
0.0
 11
20.0
 21
670.5
 31
0.0
  0
LINE
  5
13A
330
1F
100
AcDbEntity
  8
BORDER
370
    35
100
AcDbLine
 10
15.0
 20
720.5
 30
0.0
 11
20.0
 21
720.5
 31
0.0
  0
LINE
  5
13B
330
1F
100
AcDbEntity
  8
BORDER
370
    35
100
AcDbLine
 10
15.0
 20
770.5
 30
0.0
 11
20.0
 21
770.5
 31
0.0
  0
LINE
  5
13C
330
1F
100
AcDbEntity
  8
CONSTRUCTION
100
AcDbLine
 10
17.5
 20
420.5
 30
0.0
 11
17.5
 21
470.5
 31
0.0
  0
LINE
  5
13D
330
1F
100
AcDbEntity
  8
CONSTRUCTION
100
AcDbLine
 10
17.5
 20
470.5
 30
0.0
 11
17.5
 21
520.5
 31
0.0
  0
LINE
  5
13E
330
1F
100
AcDbEntity
  8
CONSTRUCTION
100
AcDbLine
 10
17.5
 20
520.5
 30
0.0
 11
17.5
 21
570.5
 31
0.0
  0
LINE
  5
13F
330
1F
100
AcDbEntity
  8
CONSTRUCTION
100
AcDbLine
 10
17.5
 20
570.5
 30
0.0
 11
17.5
 21
620.5
 31
0.0
  0
LINE
  5
140
330
1F
100
AcDbEntity
  8
CONSTRUCTION
100
AcDbLine
 10
17.5
 20
620.5
 30
0.0
 11
17.5
 21
670.5
 31
0.0
  0
LINE
  5
141
330
1F
100
AcDbEntity
  8
CONSTRUCTION
100
AcDbLine
 10
17.5
 20
670.5
 30
0.0
 11
17.5
 21
720.5
 31
0.0
  0
LINE
  5
142
330
1F
100
AcDbEntity
  8
CONSTRUCTION
100
AcDbLine
 10
17.5
 20
720.5
 30
0.0
 11
17.5
 21
770.5
 31
0.0
  0
LINE
  5
143
330
1F
100
AcDbEntity
  8
CONSTRUCTION
100
AcDbLine
 10
17.5
 20
770.5
 30
0.0
 11
17.5
 21
820.5
 31
0.0
  0
LINE
  5
144
330
1F
100
AcDbEntity
  8
TRIM
100
AcDbLine
 10
0.0
 20
831.0
 30
0.0
 11
0.0
 21
841.0
 31
0.0
  0
LINE
  5
145
330
1F
100
AcDbEntity
  8
TRIM
100
AcDbLine
 10
1179.0
 20
841.0
 30
0.0
 11
1179.0
 21
836.0
 31
0.0
  0
LINE
  5
146
330
1F
100
AcDbEntity
  8
TRIM
100
AcDbLine
 10
1179.0
 20
836.0
 30
0.0
 11
1184.0
 21
836.0
 31
0.0
  0
LINE
  5
147
330
1F
100
AcDbEntity
  8
TRIM
100
AcDbLine
 10
1184.0
 20
831.0
 30
0.0
 11
1189.0
 21
831.0
 31
0.0
  0
LINE
  5
148
330
1F
100
AcDbEntity
  8
TRIM
100
AcDbLine
 10
1189.0
 20
831.0
 30
0.0
 11
1189.0
 21
841.0
 31
0.0
  0
LINE
  5
149
330
1F
100
AcDbEntity
  8
TRIM
100
AcDbLine
 10
1189.0
 20
841.0
 30
0.0
 11
1179.0
 21
841.0
 31
0.0
  0
LINE
  5
14A
330
1F
100
AcDbEntity
  8
TRIM
100
AcDbLine
 10
1184.0
 20
836.0
 30
0.0
 11
1184.0
 21
831.0
 31
0.0
  0
LINE
  5
14B
330
1F
100
AcDbEntity
  8
TRIM
100
AcDbLine
 10
1179.0
 20
0.0
 30
0.0
 11
1179.0
 21
5.0
 31
0.0
  0
LINE
  5
14C
330
1F
100
AcDbEntity
  8
BORDER
370
    35
100
AcDbLine
 10
1089.03635229
 20
24.5703270608
 30
0.0
 11
1059.0
 21
24.5703270608
 31
0.0
  0
LINE
  5
14D
330
1F
100
AcDbEntity
  8
BORDER
100
AcDbLine
 10
1071.2558991771
 20
18.0427931077
 30
0.0
 11
1071.2558991771
 21
11.5891294748
 31
0.0
  0
LINE
  5
14E
330
1F
100
AcDbEntity
  8
BORDER
370
    35
100
AcDbLine
 10
1089.03635229
 20
24.5703270608
 30
0.0
 11
1089.03635229
 21
10.0001454479
 31
0.0
  0
LINE
  5
14F
330
1F
100
AcDbEntity
  8
TRIM
100
AcDbLine
 10
1179.0
 20
5.0
 30
0.0
 11
1184.0
 21
5.0
 31
0.0
  0
LINE
  5
150
330
1F
100
AcDbEntity
  8
TRIM
100
AcDbLine
 10
1184.0
 20
5.0
 30
0.0
 11
1184.0
 21
10.0
 31
0.0
  0
LINE
  5
151
330
1F
100
AcDbEntity
  8
TRIM
100
AcDbLine
 10
1184.0
 20
10.0
 30
0.0
 11
1189.0
 21
10.0
 31
0.0
  0
LINE
  5
152
330
1F
100
AcDbEntity
  8
TRIM
100
AcDbLine
 10
1189.0
 20
10.0
 30
0.0
 11
1189.0
 21
0.0
 31
0.0
  0
LINE
  5
153
330
1F
100
AcDbEntity
  8
TRIM
100
AcDbLine
 10
1189.0
 20
0.0
 30
0.0
 11
1179.0
 21
0.0
 31
0.0
  0
CIRCLE
  5
154
330
1F
100
AcDbEntity
  8
BORDER
  6
Continuous
370
    35
100
AcDbCircle
 10
1071.2558991771
 20
14.8656048577
 30
0.0
 40
1.249999999999946
  0
CIRCLE
  5
155
330
1F
100
AcDbEntity
  8
BORDER
  6
Continuous
370
    35
100
AcDbCircle
 10
1071.2558991771
 20
14.8656048577
 30
0.0
 40
2.499999999999893
  0
MTEXT
  5
157
330
1F
100
AcDbEntity
  8
BORDER
100
AcDbMText
 10
1062.729138727
 20
38.7994804913
 30
0.0
 40
3.175
 41
0.0
 71
     1
 72
     1
  1
013_Base_MID_SR
  7
SLDTEXTSTYLE0
 73
     1
 44
1.0
  0
MTEXT
  5
159
330
1F
100
AcDbEntity
  8
BORDER
 62
     7
100
AcDbMText
 10
17.5045572398
 20
347.7420052165
 30
0.0
 40
3.5
 41
0.0
 71
     2
 72
     1
  1
K
  7
SLDTEXTSTYLE1
 73
     1
 44
1.0
  0
MTEXT
  5
15A
330
1F
100
AcDbEntity
  8
BORDER
 62
     7
100
AcDbMText
 10
17.5312933763
 20
397.7420052165
 30
0.0
 40
3.5
 41
0.0
 71
     2
 72
     1
  1
J
  7
SLDTEXTSTYLE1
 73
     1
 44
1.0
  0
MTEXT
  5
15B
330
1F
100
AcDbEntity
  8
BORDER
 62
     7
100
AcDbMText
 10
17.50850699
 20
447.7420052165
 30
0.0
 40
3.5
 41
0.0
 71
     2
 72
     1
  1
H
  7
SLDTEXTSTYLE1
 73
     1
 44
1.0
  0
MTEXT
  5
15C
330
1F
100
AcDbEntity
  8
BORDER
 62
     7
100
AcDbMText
 10
17.4705295293
 20
497.7420052165
 30
0.0
 40
3.5
 41
0.0
 71
     2
 72
     1
  1
G
  7
SLDTEXTSTYLE1
 73
     1
 44
1.0
  0
MTEXT
  5
15D
330
1F
100
AcDbEntity
  8
BORDER
 62
     7
100
AcDbMText
 10
17.5215712227
 20
597.7420052165
 30
0.0
 40
3.5
 41
0.0
 71
     2
 72
     1
  1
E
  7
SLDTEXTSTYLE1
 73
     1
 44
1.0
  0
MTEXT
  5
15E
330
1F
100
AcDbEntity
  8
BORDER
 62
     7
100
AcDbMText
 10
17.4921006672
 20
547.7420052165
 30
0.0
 40
3.5
 41
0.0
 71
     2
 72
     1
  1
F
  7
SLDTEXTSTYLE1
 73
     1
 44
1.0
  0
MTEXT
  5
15F
330
1F
100
AcDbEntity
  8
BORDER
 62
     7
100
AcDbMText
 10
17.5082031069
 20
297.7420052165
 30
0.0
 40
3.5
 41
0.0
 71
     2
 72
     1
  1
L
  7
SLDTEXTSTYLE1
 73
     1
 44
1.0
  0
MTEXT
  5
160
330
1F
100
AcDbEntity
  8
BORDER
 62
     7
100
AcDbMText
 10
269.5006075893
 20
9.2213323684
 30
0.0
 40
3.5
 41
0.0
 71
     2
 72
     1
  1
6
  7
SLDTEXTSTYLE1
 73
     1
 44
1.0
  0
MTEXT
  5
161
330
1F
100
AcDbEntity
  8
BORDER
 62
     7
100
AcDbMText
 10
519.6269965786
 20
9.2706814009
 30
0.0
 40
3.5
 41
0.0
 71
     2
 72
     1
  1
11
  7
SLDTEXTSTYLE1
 73
     1
 44
1.0
  0
MTEXT
  5
162
330
1F
100
AcDbEntity
  8
BORDER
 62
     7
100
AcDbMText
 10
419.5012152772
 20
9.2213323684
 30
0.0
 40
3.5
 41
0.0
 71
     2
 72
     1
  1
9
  7
SLDTEXTSTYLE1
 73
     1
 44
1.0
  0
MTEXT
  5
163
330
1F
100
AcDbEntity
  8
BORDER
 62
     7
100
AcDbMText
 10
69.5000000177
 20
9.2420052165
 30
0.0
 40
3.5
 41
0.0
 71
     2
 72
     1
  1
2
  7
SLDTEXTSTYLE1
 73
     1
 44
1.0
  0
MTEXT
  5
164
330
1F
100
AcDbEntity
  8
BORDER
 62
     7
100
AcDbMText
 10
32.0634982893
 20
9.2420052165
 30
0.0
 40
3.5
 41
0.0
 71
     2
 72
     1
  1
1
  7
SLDTEXTSTYLE1
 73
     1
 44
1.0
  0
MTEXT
  5
165
330
1F
100
AcDbEntity
  8
BORDER
 62
     7
100
AcDbMText
 10
219.5003038617
 20
9.2706814009
 30
0.0
 40
3.5
 41
0.0
 71
     2
 72
     1
  1
5
  7
SLDTEXTSTYLE1
 73
     1
 44
1.0
  0
MTEXT
  5
166
330
1F
100
AcDbEntity
  8
BORDER
 62
     7
100
AcDbMText
 10
569.563498307
 20
9.2746293235
 30
0.0
 40
3.5
 41
0.0
 71
     2
 72
     1
  1
12
  7
SLDTEXTSTYLE1
 73
     1
 44
1.0
  0
MTEXT
  5
167
330
1F
100
AcDbEntity
  8
BORDER
 62
     7
100
AcDbMText
 10
119.5021266928
 20
9.2667334783
 30
0.0
 40
3.5
 41
0.0
 71
     2
 72
     1
  1
3
  7
SLDTEXTSTYLE1
 73
     1
 44
1.0
  0
MTEXT
  5
168
330
1F
100
AcDbEntity
  8
BORDER
 62
     7
100
AcDbMText
 10
469.5659288261
 20
9.2213323684
 30
0.0
 40
3.5
 41
0.0
 71
     2
 72
     1
  1
10
  7
SLDTEXTSTYLE1
 73
     1
 44
1.0
  0
MTEXT
  5
169
330
1F
100
AcDbEntity
  8
BORDER
 62
     7
100
AcDbMText
 10
169.4939236036
 20
9.2213323684
 30
0.0
 40
3.5
 41
0.0
 71
     2
 72
     1
  1
4
  7
SLDTEXTSTYLE1
 73
     1
 44
1.0
  0
MTEXT
  5
16A
330
1F
100
AcDbEntity
  8
BORDER
 62
     7
100
AcDbMText
 10
319.5036457963
 20
9.2706814009
 30
0.0
 40
3.5
 41
0.0
 71
     2
 72
     1
  1
7
  7
SLDTEXTSTYLE1
 73
     1
 44
1.0
  0
MTEXT
  5
16B
330
1F
100
AcDbEntity
  8
BORDER
 62
     7
100
AcDbMText
 10
369.5009114332
 20
9.2706814009
 30
0.0
 40
3.5
 41
0.0
 71
     2
 72
     1
  1
8
  7
SLDTEXTSTYLE1
 73
     1
 44
1.0
  0
MTEXT
  5
16C
330
1F
100
AcDbEntity
  8
BORDER
 62
     7
100
AcDbMText
 10
17.4990885248
 20
647.7420052165
 30
0.0
 40
3.5
 41
0.0
 71
     2
 72
     1
  1
D
  7
SLDTEXTSTYLE1
 73
     1
 44
1.0
  0
MTEXT
  5
16D
330
1F
100
AcDbEntity
  8
BORDER
 62
     7
100
AcDbMText
 10
17.5197482752
 20
747.7420052165
 30
0.0
 40
3.5
 41
0.0
 71
     2
 72
     1
  1
B
  7
SLDTEXTSTYLE1
 73
     1
 44
1.0
  0
MTEXT
  5
16E
330
1F
100
AcDbEntity
  8
BORDER
 62
     7
100
AcDbMText
 10
17.486631969
 20
697.7420052165
 30
0.0
 40
3.5
 41
0.0
 71
     2
 72
     1
  1
C
  7
SLDTEXTSTYLE1
 73
     1
 44
1.0
  0
MTEXT
  5
16F
330
1F
100
AcDbEntity
  8
BORDER
 62
     7
100
AcDbMText
 10
17.4811632317
 20
797.7420052165
 30
0.0
 40
3.5
 41
0.0
 71
     2
 72
     1
  1
A
  7
SLDTEXTSTYLE1
 73
     1
 44
1.0
  0
MTEXT
  5
170
330
1F
100
AcDbEntity
  8
BORDER
 62
     7
100
AcDbMText
 10
669.5574218929
 20
9.2357343242
 30
0.0
 40
3.5
 41
0.0
 71
     2
 72
     1
  1
14
  7
SLDTEXTSTYLE1
 73
     1
 44
1.0
  0
MTEXT
  5
171
330
1F
100
AcDbEntity
  8
BORDER
 62
     7
100
AcDbMText
 10
719.563802151
 20
9.2916120346
 30
0.0
 40
3.5
 41
0.0
 71
     2
 72
     1
  1
15
  7
SLDTEXTSTYLE1
 73
     1
 44
1.0
  0
MTEXT
  5
172
330
1F
100
AcDbEntity
  8
BORDER
 62
     7
100
AcDbMText
 10
619.5656249821
 20
9.2916120346
 30
0.0
 40
3.5
 41
0.0
 71
     2
 72
     1
  1
13
  7
SLDTEXTSTYLE1
 73
     1
 44
1.0
  0
MTEXT
  5
173
330
1F
100
AcDbEntity
  8
BORDER
 62
     7
100
AcDbMText
 10
769.564105995
 20
9.2905541748
 30
0.0
 40
3.5
 41
0.0
 71
     2
 72
     1
  1
16
  7
SLDTEXTSTYLE1
 73
     1
 44
1.0
  0
MTEXT
  5
174
330
1F
100
AcDbEntity
  8
BORDER
 62
     7
100
AcDbMText
 10
919.564713683
 20
9.2569479534
 30
0.0
 40
3.5
 41
0.0
 71
     2
 72
     1
  1
19
  7
SLDTEXTSTYLE1
 73
     1
 44
1.0
  0
MTEXT
  5
175
330
1F
100
AcDbEntity
  8
BORDER
 62
     7
100
AcDbMText
 10
869.5644096062
 20
9.2569479534
 30
0.0
 40
3.5
 41
0.0
 71
     2
 72
     1
  1
18
  7
SLDTEXTSTYLE1
 73
     1
 44
1.0
  0
MTEXT
  5
176
330
1F
100
AcDbEntity
  8
BORDER
 62
     7
100
AcDbMText
 10
819.5671439692
 20
9.2318380653
 30
0.0
 40
3.5
 41
0.0
 71
     2
 72
     1
  1
17
  7
SLDTEXTSTYLE1
 73
     1
 44
1.0
  0
MTEXT
  5
177
330
1F
100
AcDbEntity
  8
BORDER
 62
     7
100
AcDbMText
 10
1069.5000000354
 20
9.2310462973
 30
0.0
 40
3.5
 41
0.0
 71
     2
 72
     1
  1
22
  7
SLDTEXTSTYLE1
 73
     1
 44
1.0
  0
MTEXT
  5
178
330
1F
100
AcDbEntity
  8
BORDER
 62
     7
100
AcDbMText
 10
1019.563498307
 20
9.2569479534
 30
0.0
 40
3.5
 41
0.0
 71
     2
 72
     1
  1
21
  7
SLDTEXTSTYLE1
 73
     1
 44
1.0
  0
MTEXT
  5
179
330
1F
100
AcDbEntity
  8
BORDER
 62
     7
100
AcDbMText
 10
969.5024305545
 20
9.2569479534
 30
0.0
 40
3.5
 41
0.0
 71
     2
 72
     1
  1
20
  7
SLDTEXTSTYLE1
 73
     1
 44
1.0
  0
MTEXT
  5
17A
330
1F
100
AcDbEntity
  8
BORDER
 62
     7
100
AcDbMText
 10
1119.5021267105
 20
9.2310462973
 30
0.0
 40
3.5
 41
0.0
 71
     2
 72
     1
  1
23
  7
SLDTEXTSTYLE1
 73
     1
 44
1.0
  0
MTEXT
  5
17B
330
1F
100
AcDbEntity
  8
BORDER
 62
     7
100
AcDbMText
 10
1169.4939236213
 20
9.2310462973
 30
0.0
 40
3.5
 41
0.0
 71
     2
 72
     1
  1
24
  7
SLDTEXTSTYLE1
 73
     1
 44
1.0
  0
MTEXT
  5
17C
330
1F
100
AcDbEntity
  8
BORDER
 62
     7
100
AcDbMText
 10
17.4595919605
 20
97.7420052165
 30
0.0
 40
3.5
 41
0.0
 71
     2
 72
     1
  1
Q
  7
SLDTEXTSTYLE1
 73
     1
 44
1.0
  0
MTEXT
  5
17D
330
1F
100
AcDbEntity
  8
BORDER
 62
     7
100
AcDbMText
 10
17.5179253276
 20
147.7420052165
 30
0.0
 40
3.5
 41
0.0
 71
     2
 72
     1
  1
P
  7
SLDTEXTSTYLE1
 73
     1
 44
1.0
  0
MTEXT
  5
17E
330
1F
100
AcDbEntity
  8
BORDER
 62
     7
100
AcDbMText
 10
17.5072916141
 20
197.7420052165
 30
0.0
 40
3.5
 41
0.0
 71
     2
 72
     1
  1
N
  7
SLDTEXTSTYLE1
 73
     1
 44
1.0
  0
MTEXT
  5
17F
330
1F
100
AcDbEntity
  8
BORDER
 62
     7
100
AcDbMText
 10
17.4562499207
 20
247.7420052165
 30
0.0
 40
3.5
 41
0.0
 71
     2
 72
     1
  1
M
  7
SLDTEXTSTYLE1
 73
     1
 44
1.0
  0
MTEXT
  5
180
330
1F
100
AcDbEntity
  8
BORDER
 62
     7
100
AcDbMText
 10
17.4878472285
 20
47.7420052165
 30
0.0
 40
3.5
 41
0.0
 71
     2
 72
     1
  1
R
  7
SLDTEXTSTYLE1
 73
     1
 44
1.0
  0
MTEXT
  5
181
330
1F
100
AcDbEntity
  8
BORDER
 62
     7
100
AcDbMText
 10
869.5644096062
 20
835.2738736199
 30
0.0
 40
3.5
 41
0.0
 71
     2
 72
     1
  1
18
  7
SLDTEXTSTYLE1
 73
     1
 44
1.0
  0
MTEXT
  5
182
330
1F
100
AcDbEntity
  8
BORDER
 62
     7
100
AcDbMText
 10
1169.4939236213
 20
835.2738736199
 30
0.0
 40
3.5
 41
0.0
 71
     2
 72
     1
  1
24
  7
SLDTEXTSTYLE1
 73
     1
 44
1.0
  0
MTEXT
  5
183
330
1F
100
AcDbEntity
  8
BORDER
 62
     7
100
AcDbMText
 10
1119.5021267105
 20
835.2738736199
 30
0.0
 40
3.5
 41
0.0
 71
     2
 72
     1
  1
23
  7
SLDTEXTSTYLE1
 73
     1
 44
1.0
  0
MTEXT
  5
184
330
1F
100
AcDbEntity
  8
BORDER
 62
     7
100
AcDbMText
 10
969.5024305545
 20
835.2738736199
 30
0.0
 40
3.5
 41
0.0
 71
     2
 72
     1
  1
20
  7
SLDTEXTSTYLE1
 73
     1
 44
1.0
  0
MTEXT
  5
185
330
1F
100
AcDbEntity
  8
BORDER
 62
     7
100
AcDbMText
 10
1019.563498307
 20
835.2738736199
 30
0.0
 40
3.5
 41
0.0
 71
     2
 72
     1
  1
21
  7
SLDTEXTSTYLE1
 73
     1
 44
1.0
  0
MTEXT
  5
186
330
1F
100
AcDbEntity
  8
BORDER
 62
     7
100
AcDbMText
 10
1069.5000000354
 20
835.2738736199
 30
0.0
 40
3.5
 41
0.0
 71
     2
 72
     1
  1
22
  7
SLDTEXTSTYLE1
 73
     1
 44
1.0
  0
MTEXT
  5
187
330
1F
100
AcDbEntity
  8
BORDER
 62
     7
100
AcDbMText
 10
919.564713683
 20
835.2738736199
 30
0.0
 40
3.5
 41
0.0
 71
     2
 72
     1
  1
19
  7
SLDTEXTSTYLE1
 73
     1
 44
1.0
  0
MTEXT
  5
188
330
1F
100
AcDbEntity
  8
BORDER
 62
     7
100
AcDbMText
 10
69.5000000177
 20
835.2420052165
 30
0.0
 40
3.5
 41
0.0
 71
     2
 72
     1
  1
2
  7
SLDTEXTSTYLE1
 73
     1
 44
1.0
  0
MTEXT
  5
189
330
1F
100
AcDbEntity
  8
BORDER
 62
     7
100
AcDbMText
 10
32.0634982893
 20
835.2420052165
 30
0.0
 40
3.5
 41
0.0
 71
     2
 72
     1
  1
1
  7
SLDTEXTSTYLE1
 73
     1
 44
1.0
  0
MTEXT
  5
18A
330
1F
100
AcDbEntity
  8
BORDER
 62
     7
100
AcDbMText
 10
119.5021266928
 20
835.2361709749
 30
0.0
 40
3.5
 41
0.0
 71
     2
 72
     1
  1
3
  7
SLDTEXTSTYLE1
 73
     1
 44
1.0
  0
MTEXT
  5
18B
330
1F
100
AcDbEntity
  8
BORDER
 62
     7
100
AcDbMText
 10
269.5006075893
 20
835.2361709749
 30
0.0
 40
3.5
 41
0.0
 71
     2
 72
     1
  1
6
  7
SLDTEXTSTYLE1
 73
     1
 44
1.0
  0
MTEXT
  5
18C
330
1F
100
AcDbEntity
  8
BORDER
 62
     7
100
AcDbMText
 10
219.5003038617
 20
835.2361709749
 30
0.0
 40
3.5
 41
0.0
 71
     2
 72
     1
  1
5
  7
SLDTEXTSTYLE1
 73
     1
 44
1.0
  0
MTEXT
  5
18D
330
1F
100
AcDbEntity
  8
BORDER
 62
     7
100
AcDbMText
 10
169.4939236036
 20
835.2361709749
 30
0.0
 40
3.5
 41
0.0
 71
     2
 72
     1
  1
4
  7
SLDTEXTSTYLE1
 73
     1
 44
1.0
  0
MTEXT
  5
18E
330
1F
100
AcDbEntity
  8
BORDER
 62
     7
100
AcDbMText
 10
319.5036457963
 20
835.2361709749
 30
0.0
 40
3.5
 41
0.0
 71
     2
 72
     1
  1
7
  7
SLDTEXTSTYLE1
 73
     1
 44
1.0
  0
MTEXT
  5
18F
330
1F
100
AcDbEntity
  8
BORDER
 62
     7
100
AcDbMText
 10
519.6269965786
 20
835.2361709749
 30
0.0
 40
3.5
 41
0.0
 71
     2
 72
     1
  1
11
  7
SLDTEXTSTYLE1
 73
     1
 44
1.0
  0
MTEXT
  5
190
330
1F
100
AcDbEntity
  8
BORDER
 62
     7
100
AcDbMText
 10
469.5659288261
 20
835.2361709749
 30
0.0
 40
3.5
 41
0.0
 71
     2
 72
     1
  1
10
  7
SLDTEXTSTYLE1
 73
     1
 44
1.0
  0
MTEXT
  5
191
330
1F
100
AcDbEntity
  8
BORDER
 62
     7
100
AcDbMText
 10
419.5012152772
 20
835.2361709749
 30
0.0
 40
3.5
 41
0.0
 71
     2
 72
     1
  1
9
  7
SLDTEXTSTYLE1
 73
     1
 44
1.0
  0
MTEXT
  5
192
330
1F
100
AcDbEntity
  8
BORDER
 62
     7
100
AcDbMText
 10
369.5009114332
 20
835.2361709749
 30
0.0
 40
3.5
 41
0.0
 71
     2
 72
     1
  1
8
  7
SLDTEXTSTYLE1
 73
     1
 44
1.0
  0
MTEXT
  5
193
330
1F
100
AcDbEntity
  8
BORDER
 62
     7
100
AcDbMText
 10
569.563498307
 20
835.2361709749
 30
0.0
 40
3.5
 41
0.0
 71
     2
 72
     1
  1
12
  7
SLDTEXTSTYLE1
 73
     1
 44
1.0
  0
MTEXT
  5
194
330
1F
100
AcDbEntity
  8
BORDER
 62
     7
100
AcDbMText
 10
819.5671439692
 20
835.2738736199
 30
0.0
 40
3.5
 41
0.0
 71
     2
 72
     1
  1
17
  7
SLDTEXTSTYLE1
 73
     1
 44
1.0
  0
MTEXT
  5
195
330
1F
100
AcDbEntity
  8
BORDER
 62
     7
100
AcDbMText
 10
769.564105995
 20
835.2738736199
 30
0.0
 40
3.5
 41
0.0
 71
     2
 72
     1
  1
16
  7
SLDTEXTSTYLE1
 73
     1
 44
1.0
  0
MTEXT
  5
196
330
1F
100
AcDbEntity
  8
BORDER
 62
     7
100
AcDbMText
 10
719.563802151
 20
835.2738736199
 30
0.0
 40
3.5
 41
0.0
 71
     2
 72
     1
  1
15
  7
SLDTEXTSTYLE1
 73
     1
 44
1.0
  0
MTEXT
  5
197
330
1F
100
AcDbEntity
  8
BORDER
 62
     7
100
AcDbMText
 10
669.5574218929
 20
835.2738736199
 30
0.0
 40
3.5
 41
0.0
 71
     2
 72
     1
  1
14
  7
SLDTEXTSTYLE1
 73
     1
 44
1.0
  0
MTEXT
  5
198
330
1F
100
AcDbEntity
  8
BORDER
 62
     7
100
AcDbMText
 10
619.5656249821
 20
835.2361709749
 30
0.0
 40
3.5
 41
0.0
 71
     2
 72
     1
  1
13
  7
SLDTEXTSTYLE1
 73
     1
 44
1.0
  0
MTEXT
  5
199
330
1F
100
AcDbEntity
  8
BORDER
 62
     7
100
AcDbMText
 10
1181.4811632317
 20
797.7420052165
 30
0.0
 40
3.5
 41
0.0
 71
     2
 72
     1
  1
A
  7
SLDTEXTSTYLE1
 73
     1
 44
1.0
  0
MTEXT
  5
19A
330
1F
100
AcDbEntity
  8
BORDER
 62
     7
100
AcDbMText
 10
1181.4921006672
 20
547.7420052165
 30
0.0
 40
3.5
 41
0.0
 71
     2
 72
     1
  1
F
  7
SLDTEXTSTYLE1
 73
     1
 44
1.0
  0
MTEXT
  5
19B
330
1F
100
AcDbEntity
  8
BORDER
 62
     7
100
AcDbMText
 10
1181.5215712227
 20
597.7420052165
 30
0.0
 40
3.5
 41
0.0
 71
     2
 72
     1
  1
E
  7
SLDTEXTSTYLE1
 73
     1
 44
1.0
  0
MTEXT
  5
19C
330
1F
100
AcDbEntity
  8
BORDER
 62
     7
100
AcDbMText
 10
1181.4990885248
 20
647.7420052165
 30
0.0
 40
3.5
 41
0.0
 71
     2
 72
     1
  1
D
  7
SLDTEXTSTYLE1
 73
     1
 44
1.0
  0
MTEXT
  5
19D
330
1F
100
AcDbEntity
  8
BORDER
 62
     7
100
AcDbMText
 10
1181.486631969
 20
697.7420052165
 30
0.0
 40
3.5
 41
0.0
 71
     2
 72
     1
  1
C
  7
SLDTEXTSTYLE1
 73
     1
 44
1.0
  0
MTEXT
  5
19E
330
1F
100
AcDbEntity
  8
BORDER
 62
     7
100
AcDbMText
 10
1181.5197482752
 20
747.7420052165
 30
0.0
 40
3.5
 41
0.0
 71
     2
 72
     1
  1
B
  7
SLDTEXTSTYLE1
 73
     1
 44
1.0
  0
MTEXT
  5
19F
330
1F
100
AcDbEntity
  8
BORDER
 62
     7
100
AcDbMText
 10
1181.4705295293
 20
497.7420052165
 30
0.0
 40
3.5
 41
0.0
 71
     2
 72
     1
  1
G
  7
SLDTEXTSTYLE1
 73
     1
 44
1.0
  0
MTEXT
  5
1A0
330
1F
100
AcDbEntity
  8
BORDER
 62
     7
100
AcDbMText
 10
1181.50850699
 20
447.7420052165
 30
0.0
 40
3.5
 41
0.0
 71
     2
 72
     1
  1
H
  7
SLDTEXTSTYLE1
 73
     1
 44
1.0
  0
MTEXT
  5
1A1
330
1F
100
AcDbEntity
  8
BORDER
 62
     7
100
AcDbMText
 10
1181.5312933763
 20
397.7420052165
 30
0.0
 40
3.5
 41
0.0
 71
     2
 72
     1
  1
J
  7
SLDTEXTSTYLE1
 73
     1
 44
1.0
  0
MTEXT
  5
1A2
330
1F
100
AcDbEntity
  8
BORDER
 62
     7
100
AcDbMText
 10
1181.5045572398
 20
347.7420052165
 30
0.0
 40
3.5
 41
0.0
 71
     2
 72
     1
  1
K
  7
SLDTEXTSTYLE1
 73
     1
 44
1.0
  0
MTEXT
  5
1A3
330
1F
100
AcDbEntity
  8
BORDER
 62
     7
100
AcDbMText
 10
1181.5082031069
 20
297.7420052165
 30
0.0
 40
3.5
 41
0.0
 71
     2
 72
     1
  1
L
  7
SLDTEXTSTYLE1
 73
     1
 44
1.0
  0
MTEXT
  5
1A4
330
1F
100
AcDbEntity
  8
BORDER
 62
     7
100
AcDbMText
 10
1181.4562499207
 20
247.7420052165
 30
0.0
 40
3.5
 41
0.0
 71
     2
 72
     1
  1
M
  7
SLDTEXTSTYLE1
 73
     1
 44
1.0
  0
MTEXT
  5
1A5
330
1F
100
AcDbEntity
  8
BORDER
 62
     7
100
AcDbMText
 10
1181.5179253276
 20
147.7420052165
 30
0.0
 40
3.5
 41
0.0
 71
     2
 72
     1
  1
P
  7
SLDTEXTSTYLE1
 73
     1
 44
1.0
  0
MTEXT
  5
1A6
330
1F
100
AcDbEntity
  8
BORDER
 62
     7
100
AcDbMText
 10
1181.4595919605
 20
97.7420052165
 30
0.0
 40
3.5
 41
0.0
 71
     2
 72
     1
  1
Q
  7
SLDTEXTSTYLE1
 73
     1
 44
1.0
  0
MTEXT
  5
1A7
330
1F
100
AcDbEntity
  8
BORDER
 62
     7
100
AcDbMText
 10
1181.4878472285
 20
47.7420052165
 30
0.0
 40
3.5
 41
0.0
 71
     2
 72
     1
  1
R
  7
SLDTEXTSTYLE1
 73
     1
 44
1.0
  0
MTEXT
  5
1A8
330
1F
100
AcDbEntity
  8
BORDER
 62
     7
100
AcDbMText
 10
1181.5072916141
 20
197.7420052165
 30
0.0
 40
3.5
 41
0.0
 71
     2
 72
     1
  1
N
  7
SLDTEXTSTYLE1
 73
     1
 44
1.0
  0
MTEXT
  5
1A9
330
1F
100
AcDbEntity
  8
BORDER
100
AcDbMText
 10
1153.9469767685
 20
23.844387424
 30
0.0
 40
1.8
 41
0.0
 71
     1
 72
     1
  1
Sheet:
  7
SLDTEXTSTYLE1
 73
     1
 44
1.0
  0
MTEXT
  5
1AA
330
1F
100
AcDbEntity
  8
BORDER
100
AcDbMText
 10
1168.3555403807
 20
23.844387424
 30
0.0
 40
1.8
 41
0.0
 71
     1
 72
     1
  1
Revision:
  7
SLDTEXTSTYLE1
 73
     1
 44
1.0
  0
MTEXT
  5
1AB
330
1F
100
AcDbEntity
  8
BORDER
100
AcDbMText
 10
1117.6126923288
 20
23.844387424
 30
0.0
 40
1.8
 41
0.0
 71
     1
 72
     1
  1
Material:
  7
SLDTEXTSTYLE1
 73
     1
 44
1.0
  0
MTEXT
  5
1AD
330
1F
100
AcDbEntity
  8
BORDER
100
AcDbMText
 10
1154.5373266333
 20
18.0329388308
 30
0.0
 40
2.5
 41
0.0
 71
     1
 72
     1
  1
1 of 1
  7
SLDTEXTSTYLE2
 73
     1
 44
1.0
  0
MTEXT
  5
1AE
330
1F
100
AcDbEntity
  8
BORDER
100
AcDbMText
 10
1117.4423007072
 20
41.5778074247
 30
0.0
 40
1.8
 41
0.0
 71
     1
 72
     1
  1
Checked/Approved by:
  7
SLDTEXTSTYLE1
 73
     1
 44
1.0
  0
INSERT
  5
1B4
330
1F
100
AcDbEntity
  8
BORDER
100
AcDbBlockReference
  2
SW_NOTE_0
 10
1061.0713434944
 20
21.6258903222
 30
0.0
  0
MTEXT
  5
1B5
330
1F
100
AcDbEntity
  8
BORDER
100
AcDbMText
 10
1097.2642359313
 20
23.9868716954
 30
0.0
 40
1.8
 41
0.0
 71
     2
 72
     1
  1
Sheet Size:
  7
SLDTEXTSTYLE1
 73
     1
 44
1.0
  0
MTEXT
  5
1B6
330
1F
100
AcDbEntity
  8
BORDER
100
AcDbMText
 10
1103.68726765
 20
18.2295006099
 30
0.0
 40
5.0
 41
0.0
 71
     2
 72
     1
  1
A0
  7
SLDTEXTSTYLE0
 73
     1
 44
1.0
  0
MTEXT
  5
1B7
330
1F
100
AcDbEntity
  8
BORDER
100
AcDbMText
 10
1117.2543782092
 20
50.2222423329
 30
0.0
 40
1.8
 41
0.0
 71
     1
 72
     1
  1
Drawn by:
  7
SLDTEXTSTYLE1
 73
     1
 44
1.0
  0
MTEXT
  5
1B8
330
1F
100
AcDbEntity
  8
BORDER
100
AcDbMText
 10
1148.6488980138
 20
50.2846243148
 30
0.0
 40
1.8520833333
 41
0.0
 71
     1
 72
     1
  1
Drawn Date:
  7
SLDTEXTSTYLE1
 73
     1
 44
1.0
  0
MTEXT
  5
1B9
330
1F
100
AcDbEntity
  8
BORDER
100
AcDbMText
 10
1148.6488980138
 20
41.6401894066
 30
0.0
 40
1.8520833333
 41
0.0
 71
     1
 72
     1
  1
Checked/Approved Date:
  7
SLDTEXTSTYLE1
 73
     1
 44
1.0
  0
MTEXT
  5
1BA
330
1F
100
AcDbEntity
  8
BORDER
100
AcDbMText
 10
1138.1722245713
 20
30.373045594
 30
0.0
 40
1.8520833333
 41
0.0
 71
     1
 72
     1
  1
Drawing Scale:
  7
SLDTEXTSTYLE1
 73
     1
 44
1.0
  0
MTEXT
  5
1BB
330
1F
100
AcDbEntity
  8
BORDER
100
AcDbMText
 10
1117.2543782092
 20
46.5606398143
 30
0.0
 40
2.5
 41
0.0
 71
     1
 72
     1
  1
Le Xuan Tung
  7
SLDTEXTSTYLE1
 73
     1
 44
1.0
  0
MTEXT
  5
1BC
330
1F
100
AcDbEntity
  8
BORDER
100
AcDbMText
 10
1148.6488980138
 20
46.5606398143
 30
0.0
 40
2.5
 41
0.0
 71
     1
 72
     1
  1
2021
  7
SLDTEXTSTYLE1
 73
     1
 44
1.0
  0
MTEXT
  5
1BD
330
1F
100
AcDbEntity
  8
BORDER
100
AcDbMText
 10
1117.6302232052
 20
37.2476544519
 30
0.0
 40
2.5
 41
0.0
 71
     1
 72
     1
  1
Nguyen Van Tung
  7
SLDTEXTSTYLE1
 73
     1
 44
1.0
  0
MTEXT
  5
1BE
330
1F
100
AcDbEntity
  8
BORDER
100
AcDbMText
 10
1148.6488980138
 20
37.2476544519
 30
0.0
 40
2.5
 41
0.0
 71
     1
 72
     1
  1
2021
  7
SLDTEXTSTYLE1
 73
     1
 44
1.0
  0
MTEXT
  5
1BF
330
1F
100
AcDbEntity
  8
BORDER
100
AcDbMText
 10
1170.81122894
 20
18.4486459432
 30
0.0
 40
2.6458333333
 41
0.0
 71
     1
 72
     1
  1
0A
  7
SLDTEXTSTYLE1
 73
     1
 44
1.0
  0
MTEXT
  5
1C0
330
1F
100
AcDbEntity
  8
BORDER
100
AcDbMText
 10
1156.775855864
 20
31.0038443616
 30
0.0
 40
2.5
 41
0.0
 71
     1
 72
     1
  1
1:1
  7
SLDTEXTSTYLE1
 73
     1
 44
1.0
  0
MTEXT
  5
1C1
330
1F
100
AcDbEntity
  8
BORDER
100
AcDbMText
 10
1136.4840424281
 20
23.844387424
 30
0.0
 40
1.8
 41
0.0
 71
     1
 72
     1
  1
Qty:
  7
SLDTEXTSTYLE1
 73
     1
 44
1.0
  0
MTEXT
  5
1C2
330
1F
100
AcDbEntity
  8
BORDER
100
AcDbMText
 10
1141.7267976309
 20
18.0329388308
 30
0.0
 40
2.5
 41
0.0
 71
     1
 72
     1
  1
01
  7
SLDTEXTSTYLE1
 73
     1
 44
1.0
  0
MTEXT
  5
1C3
330
1F
100
AcDbEntity
  8
BORDER
100
AcDbMText
 10
1118.6945643856
 20
18.2811430259
 30
0.0
 40
2.5
 41
0.0
 71
     1
 72
     1
  1
SS400 t3
  7
SLDTEXTSTYLE1
 73
     1
 44
1.0
  0
MTEXT
  5
1C4
330
1F
100
AcDbEntity
  8
BORDER
100
AcDbMText
 10
1125.5672099915
 20
31.0038443616
 30
0.0
 40
2.5
 41
0.0
 71
     1
 72
     1
  1
mm
  7
SLDTEXTSTYLE1
 73
     1
 44
1.0
  0
MTEXT
  5
1C5
330
1F
100
AcDbEntity
  8
BORDER
100
AcDbMText
 10
1117.6463813351
 20
30.373045594
 30
0.0
 40
1.8520833333
 41
0.0
 71
     1
 72
     1
  1
Unit:
  7
SLDTEXTSTYLE1
 73
     1
 44
1.0
  0
MTEXT
  5
1C6
330
1F
100
AcDbEntity
  8
BORDER
100
AcDbMText
 10
1060.9040651123
 20
32.3841853028
 30
0.0
 40
1.8
 41
0.0
 71
     1
 72
     1
  1
Description:
  7
SLDTEXTSTYLE1
 73
     1
 44
1.0
  0
MTEXT
  5
1C7
330
1F
100
AcDbEntity
  8
BORDER
100
AcDbMText
 10
1061.2335972963
 20
42.7271810213
 30
0.0
 40
2.5
 41
0.0
 71
     1
 72
     1
  1
SERVICE ROBOT
  7
SLDTEXTSTYLE0
 73
     1
 44
1.0
  0
MTEXT
  5
1C8
330
1F
100
AcDbEntity
  8
BORDER
100
AcDbMText
 10
1061.0058789697
 20
46.3271241154
 30
0.0
 40
1.8
 41
0.0
 71
     1
 72
     1
  1
Project:
  7
SLDTEXTSTYLE1
 73
     1
 44
1.0
  0
INSERT
  5
1D1
330
1F
100
AcDbEntity
  8
BORDER
100
AcDbBlockReference
  2
SW_NOTE_0_1
 10
1059.3903030665
 20
70.3808091667
 30
0.0
  0
LINE
  5
1D2
330
1F
100
AcDbEntity
  8
0
  6
Continuous
 62
     7
370
    25
100
AcDbLine
 10
462.3198849252
 20
362.4502991945
 30
0.0
 11
462.3198849252
 21
342.4502991945
 31
0.0
  0
LINE
  5
1D3
330
1F
100
AcDbEntity
  8
0
  6
Continuous
 62
     7
370
    25
100
AcDbLine
 10
482.3198849252
 20
342.4502991945
 30
0.0
 11
462.3198849252
 21
342.4502991945
 31
0.0
  0
LINE
  5
1D4
330
1F
100
AcDbEntity
  8
0
  6
Continuous
 62
     7
370
    25
100
AcDbLine
 10
482.3198849252
 20
362.4502991945
 30
0.0
 11
482.3198849252
 21
342.4502991945
 31
0.0
  0
LINE
  5
1D5
330
1F
100
AcDbEntity
  8
0
  6
Continuous
 62
     7
370
    25
100
AcDbLine
 10
482.3198849252
 20
362.4502991945
 30
0.0
 11
462.3198849252
 21
362.4502991945
 31
0.0
  0
LINE
  5
1D6
330
1F
100
AcDbEntity
  8
0
  6
Continuous
 62
     7
370
    25
100
AcDbLine
 10
734.3198849252
 20
362.4502991945
 30
0.0
 11
734.3198849252
 21
342.4502991945
 31
0.0
  0
LINE
  5
1D7
330
1F
100
AcDbEntity
  8
0
  6
Continuous
 62
     7
370
    25
100
AcDbLine
 10
734.3198849252
 20
342.4502991945
 30
0.0
 11
754.3198849252
 21
342.4502991945
 31
0.0
  0
LINE
  5
1D8
330
1F
100
AcDbEntity
  8
0
  6
Continuous
 62
     7
370
    25
100
AcDbLine
 10
754.3198849252
 20
362.4502991945
 30
0.0
 11
754.3198849252
 21
342.4502991945
 31
0.0
  0
LINE
  5
1D9
330
1F
100
AcDbEntity
  8
0
  6
Continuous
 62
     7
370
    25
100
AcDbLine
 10
734.3198849252
 20
362.4502991945
 30
0.0
 11
754.3198849252
 21
362.4502991945
 31
0.0
  0
LINE
  5
1DA
330
1F
100
AcDbEntity
  8
0
  6
Continuous
 62
     7
370
    25
100
AcDbLine
 10
754.3198849252
 20
578.2502991945
 30
0.0
 11
754.3198849252
 21
598.2502991945
 31
0.0
  0
LINE
  5
1DB
330
1F
100
AcDbEntity
  8
0
  6
Continuous
 62
     7
370
    25
100
AcDbLine
 10
734.3198849252
 20
598.2502991945
 30
0.0
 11
754.3198849252
 21
598.2502991945
 31
0.0
  0
LINE
  5
1DC
330
1F
100
AcDbEntity
  8
0
  6
Continuous
 62
     7
370
    25
100
AcDbLine
 10
734.3198849252
 20
578.2502991945
 30
0.0
 11
734.3198849252
 21
598.2502991945
 31
0.0
  0
LINE
  5
1DD
330
1F
100
AcDbEntity
  8
0
  6
Continuous
 62
     7
370
    25
100
AcDbLine
 10
734.3198849252
 20
578.2502991945
 30
0.0
 11
754.3198849252
 21
578.2502991945
 31
0.0
  0
LINE
  5
1DE
330
1F
100
AcDbEntity
  8
0
  6
Continuous
 62
     7
370
    25
100
AcDbLine
 10
482.3198849252
 20
578.2502991945
 30
0.0
 11
482.3198849252
 21
598.2502991945
 31
0.0
  0
LINE
  5
1DF
330
1F
100
AcDbEntity
  8
0
  6
Continuous
 62
     7
370
    25
100
AcDbLine
 10
482.3198849252
 20
598.2502991945
 30
0.0
 11
462.3198849252
 21
598.2502991945
 31
0.0
  0
LINE
  5
1E0
330
1F
100
AcDbEntity
  8
0
  6
Continuous
 62
     7
370
    25
100
AcDbLine
 10
462.3198849252
 20
578.2502991945
 30
0.0
 11
462.3198849252
 21
598.2502991945
 31
0.0
  0
LINE
  5
1E1
330
1F
100
AcDbEntity
  8
0
  6
Continuous
 62
     7
370
    25
100
AcDbLine
 10
482.3198849252
 20
578.2502991945
 30
0.0
 11
462.3198849252
 21
578.2502991945
 31
0.0
  0
ARC
  5
1E2
330
1F
100
AcDbEntity
  8
0
  6
Continuous
 62
     7
370
    25
100
AcDbCircle
 10
604.8198849252
 20
719.3256995858
 30
0.0
 40
1.000000000000164
100
AcDbArc
 50
0.0
 51
90.8053888852
  0
LINE
  5
1E3
330
1F
100
AcDbEntity
  8
0
  6
Continuous
 62
     7
370
    25
100
AcDbLine
 10
605.8198849252
 20
719.3256995858
 30
0.0
 11
605.8198849252
 21
716.3502991945
 31
0.0
  0
ARC
  5
1E4
330
1F
100
AcDbEntity
  8
0
  6
Continuous
 62
     7
370
    25
100
AcDbCircle
 10
606.8198849252
 20
716.3502991945
 30
0.0
 40
1.0
100
AcDbArc
 50
180.0
 51
270.0
  0
LINE
  5
1E5
330
1F
100
AcDbEntity
  8
0
  6
Continuous
 62
     7
370
    25
100
AcDbLine
 10
606.8198849252
 20
715.3502991945
 30
0.0
 11
609.8198849252
 21
715.3502991945
 31
0.0
  0
ARC
  5
1E6
330
1F
100
AcDbEntity
  8
0
  6
Continuous
 62
     7
370
    25
100
AcDbCircle
 10
609.8198849252
 20
716.3502991945
 30
0.0
 40
1.0
100
AcDbArc
 50
270.0
 51
0.0
  0
LINE
  5
1E7
330
1F
100
AcDbEntity
  8
0
  6
Continuous
 62
     7
370
    25
100
AcDbLine
 10
610.8198849252
 20
716.3502991945
 30
0.0
 11
610.8198849252
 21
719.3256995858
 31
0.0
  0
ARC
  5
1E8
330
1F
100
AcDbEntity
  8
0
  6
Continuous
 62
     7
370
    25
100
AcDbCircle
 10
611.8198849252
 20
719.3256995858
 30
0.0
 40
1.000000000000162
100
AcDbArc
 50
89.1946111148
 51
180.0
  0
ARC
  5
1E9
330
1F
100
AcDbEntity
  8
0
  6
Continuous
 62
     7
370
    25
100
AcDbCircle
 10
608.3198849252
 20
470.3502991945
 30
0.0
 40
250.0000000000001
100
AcDbArc
 50
65.0911031709
 51
89.1946111148
  0
ARC
  5
1EA
330
1F
100
AcDbEntity
  8
0
  6
Continuous
 62
     7
370
    25
100
AcDbCircle
 10
713.1928715576
 20
696.1879769075
 30
0.0
 40
1.000000000000015
100
AcDbArc
 50
334.2857142857
 51
65.091103171
  0
LINE
  5
1EB
330
1F
100
AcDbEntity
  8
0
  6
Continuous
 62
     7
370
    25
100
AcDbLine
 10
714.0938404255
 20
695.7540931684
 30
0.0
 11
712.8028625784
 21
693.0733500463
 31
0.0
  0
ARC
  5
1EC
330
1F
100
AcDbEntity
  8
0
  6
Continuous
 62
     7
370
    25
100
AcDbCircle
 10
713.7038314463
 20
692.6394663071
 30
0.0
 40
1.000000000000117
100
AcDbArc
 50
154.2857142857
 51
244.2857142857
  0
LINE
  5
1ED
330
1F
100
AcDbEntity
  8
0
  6
Continuous
 62
     7
370
    25
100
AcDbLine
 10
713.2699477071
 20
691.7384974392
 30
0.0
 11
715.9728543109
 21
690.4368462219
 31
0.0
  0
ARC
  5
1EE
330
1F
100
AcDbEntity
  8
0
  6
Continuous
 62
     7
370
    25
100
AcDbCircle
 10
716.40673805
 20
691.3378150898
 30
0.0
 40
1.000000000000015
100
AcDbArc
 50
244.2857142857
 51
334.2857142857
  0
LINE
  5
1EF
330
1F
100
AcDbEntity
  8
0
  6
Continuous
 62
     7
370
    25
100
AcDbLine
 10
717.3077069179
 20
690.9039313507
 30
0.0
 11
718.598684765
 21
693.5846744728
 31
0.0
  0
ARC
  5
1F0
330
1F
100
AcDbEntity
  8
0
  6
Continuous
 62
     7
370
    25
100
AcDbCircle
 10
719.4996536329
 20
693.1507907337
 30
0.0
 40
0.9999999999999034
100
AcDbArc
 50
63.4803254005
 51
154.2857142857
  0
ARC
  5
1F1
330
1F
100
AcDbEntity
  8
0
  6
Continuous
 62
     7
370
    25
100
AcDbCircle
 10
608.3198849252
 20
470.3502991945
 30
0.0
 40
249.9999999999999
100
AcDbArc
 50
39.3768174567
 51
63.4803254005
  0
ARC
  5
1F2
330
1F
100
AcDbEntity
  8
0
  6
Continuous
 62
     7
370
    25
100
AcDbCircle
 10
800.7944770047
 20
628.3203324408
 30
0.0
 40
0.9999999999999877
100
AcDbArc
 50
308.5714285714
 51
39.3768174567
  0
LINE
  5
1F3
330
1F
100
AcDbEntity
  8
0
  6
Continuous
 62
     7
370
    25
100
AcDbLine
 10
801.4179668065
 20
627.5385009583
 30
0.0
 11
799.0917051077
 21
625.6833691579
 31
0.0
  0
ARC
  5
1F4
330
1F
100
AcDbEntity
  8
0
  6
Continuous
 62
     7
370
    25
100
AcDbCircle
 10
799.7151949095
 20
624.9015376754
 30
0.0
 40
1.000000000000077
100
AcDbArc
 50
128.5714285714
 51
218.5714285714
  0
LINE
  5
1F5
330
1F
100
AcDbEntity
  8
0
  6
Continuous
 62
     7
370
    25
100
AcDbLine
 10
798.9333634271
 20
624.2780478736
 30
0.0
 11
800.8038328327
 21
621.9325534262
 31
0.0
  0
ARC
  5
1F6
330
1F
100
AcDbEntity
  8
0
  6
Continuous
 62
     7
370
    25
100
AcDbCircle
 10
801.5856643151
 20
622.556043228
 30
0.0
 40
1.000000000000077
100
AcDbArc
 50
218.5714285714
 51
308.5714285714
  0
LINE
  5
1F7
330
1F
100
AcDbEntity
  8
0
  6
Continuous
 62
     7
370
    25
100
AcDbLine
 10
802.209154117
 20
621.7742117456
 30
0.0
 11
804.5354158158
 21
623.629343546
 31
0.0
  0
ARC
  5
1F8
330
1F
100
AcDbEntity
  8
0
  6
Continuous
 62
     7
370
    25
100
AcDbCircle
 10
805.1589056177
 20
622.8475120635
 30
0.0
 40
0.9999999999999918
100
AcDbArc
 50
37.7660396862
 51
128.5714285714
  0
ARC
  5
1F9
330
1F
100
AcDbEntity
  8
0
  6
Continuous
 62
     7
370
    25
100
AcDbCircle
 10
608.3198849252
 20
470.3502991945
 30
0.0
 40
249.9999999999999
100
AcDbArc
 50
13.6625317424
 51
37.7660396862
  0
ARC
  5
1FA
330
1F
100
AcDbEntity
  8
0
  6
Continuous
 62
     7
370
    25
100
AcDbCircle
 10
850.2741289445
 20
529.1647855143
 30
0.0
 40
1.000000000000025
100
AcDbArc
 50
282.8571428571
 51
13.6625317424
  0
LINE
  5
1FB
330
1F
100
AcDbEntity
  8
0
  6
Continuous
 62
     7
370
    25
100
AcDbLine
 10
850.4966498784
 20
528.1898576021
 30
0.0
 11
847.595848987
 21
527.5277687282
 31
0.0
  0
ARC
  5
1FC
330
1F
100
AcDbEntity
  8
0
  6
Continuous
 62
     7
370
    25
100
AcDbCircle
 10
847.818369921
 20
526.552840816
 30
0.0
 40
1.000000000000088
100
AcDbArc
 50
102.8571428571
 51
192.8571428571
  0
LINE
  5
1FD
330
1F
100
AcDbEntity
  8
0
  6
Continuous
 62
     7
370
    25
100
AcDbLine
 10
846.8434420088
 20
526.330319882
 30
0.0
 11
847.5110048107
 21
523.4055361455
 31
0.0
  0
ARC
  5
1FE
330
1F
100
AcDbEntity
  8
0
  6
Continuous
 62
     7
370
    25
100
AcDbCircle
 10
848.4859327229
 20
523.6280570795
 30
0.0
 40
1.000000000000088
100
AcDbArc
 50
192.8571428571
 51
282.8571428571
  0
LINE
  5
1FF
330
1F
100
AcDbEntity
  8
0
  6
Continuous
 62
     7
370
    25
100
AcDbLine
 10
848.7084536568
 20
522.6531291673
 30
0.0
 11
851.6092545482
 21
523.3152180412
 31
0.0
  0
ARC
  5
200
330
1F
100
AcDbEntity
  8
0
  6
Continuous
 62
     7
370
    25
100
AcDbCircle
 10
851.8317754822
 20
522.3402901291
 30
0.0
 40
1.000000000000117
100
AcDbArc
 50
12.0517539719
 51
102.8571428571
  0
ARC
  5
201
330
1F
100
AcDbEntity
  8
0
  6
Continuous
 62
     7
370
    25
100
AcDbCircle
 10
608.3198849252
 20
470.3502991945
 30
0.0
 40
250.0
100
AcDbArc
 50
347.9482460281
 51
12.0517539719
  0
ARC
  5
202
330
1F
100
AcDbEntity
  8
0
  6
Continuous
 62
     7
370
    25
100
AcDbCircle
 10
851.8317754822
 20
418.3603082599
 30
0.0
 40
1.000000000000033
100
AcDbArc
 50
257.1428571429
 51
347.9482460281
  0
LINE
  5
203
330
1F
100
AcDbEntity
  8
0
  6
Continuous
 62
     7
370
    25
100
AcDbLine
 10
851.6092545482
 20
417.3853803477
 30
0.0
 11
848.7084536568
 21
418.0474692217
 31
0.0
  0
ARC
  5
204
330
1F
100
AcDbEntity
  8
0
  6
Continuous
 62
     7
370
    25
100
AcDbCircle
 10
848.4859327229
 20
417.0725413095
 30
0.0
 40
1.000000000000008
100
AcDbArc
 50
77.1428571429
 51
167.1428571429
  0
LINE
  5
205
330
1F
100
AcDbEntity
  8
0
  6
Continuous
 62
     7
370
    25
100
AcDbLine
 10
847.5110048107
 20
417.2950622435
 30
0.0
 11
846.8434420088
 21
414.3702785069
 31
0.0
  0
ARC
  5
206
330
1F
100
AcDbEntity
  8
0
  6
Continuous
 62
     7
370
    25
100
AcDbCircle
 10
847.818369921
 20
414.1477575729
 30
0.0
 40
1.000000000000033
100
AcDbArc
 50
167.1428571429
 51
257.1428571429
  0
LINE
  5
207
330
1F
100
AcDbEntity
  8
0
  6
Continuous
 62
     7
370
    25
100
AcDbLine
 10
847.595848987
 20
413.1728296608
 30
0.0
 11
850.4966498784
 21
412.5107407868
 31
0.0
  0
ARC
  5
208
330
1F
100
AcDbEntity
  8
0
  6
Continuous
 62
     7
370
    25
100
AcDbCircle
 10
850.2741289445
 20
411.5358128746
 30
0.0
 40
1.000000000000122
100
AcDbArc
 50
346.3374682576
 51
77.1428571429
  0
ARC
  5
209
330
1F
100
AcDbEntity
  8
0
  6
Continuous
 62
     7
370
    25
100
AcDbCircle
 10
608.3198849252
 20
470.3502991945
 30
0.0
 40
250.0
100
AcDbArc
 50
322.2339603138
 51
346.3374682576
  0
ARC
  5
20A
330
1F
100
AcDbEntity
  8
0
  6
Continuous
 62
     7
370
    25
100
AcDbCircle
 10
805.1589056177
 20
317.8530863255
 30
0.0
 40
1.000000000000032
100
AcDbArc
 50
231.4285714286
 51
322.2339603138
  0
LINE
  5
20B
330
1F
100
AcDbEntity
  8
0
  6
Continuous
 62
     7
370
    25
100
AcDbLine
 10
804.5354158158
 20
317.071254843
 30
0.0
 11
802.209154117
 21
318.9263866434
 31
0.0
  0
ARC
  5
20C
330
1F
100
AcDbEntity
  8
0
  6
Continuous
 62
     7
370
    25
100
AcDbCircle
 10
801.5856643151
 20
318.1445551609
 30
0.0
 40
1.000000000000041
100
AcDbArc
 50
51.4285714286
 51
141.4285714286
  0
LINE
  5
20D
330
1F
100
AcDbEntity
  8
0
  6
Continuous
 62
     7
370
    25
100
AcDbLine
 10
800.8038328327
 20
318.7680449628
 30
0.0
 11
798.9333634271
 21
316.4225505154
 31
0.0
  0
ARC
  5
20E
330
1F
100
AcDbEntity
  8
0
  6
Continuous
 62
     7
370
    25
100
AcDbCircle
 10
799.7151949095
 20
315.7990607135
 30
0.0
 40
1.000000000000077
100
AcDbArc
 50
141.4285714286
 51
231.4285714286
  0
LINE
  5
20F
330
1F
100
AcDbEntity
  8
0
  6
Continuous
 62
     7
370
    25
100
AcDbLine
 10
799.0917051077
 20
315.0172292311
 30
0.0
 11
801.4179668065
 21
313.1620974306
 31
0.0
  0
ARC
  5
210
330
1F
100
AcDbEntity
  8
0
  6
Continuous
 62
     7
370
    25
100
AcDbCircle
 10
800.7944770047
 20
312.3802659482
 30
0.0
 40
1.00000000000001
100
AcDbArc
 50
320.6231825433
 51
51.4285714286
  0
ARC
  5
211
330
1F
100
AcDbEntity
  8
0
  6
Continuous
 62
     7
370
    25
100
AcDbCircle
 10
608.3198849252
 20
470.3502991945
 30
0.0
 40
250.0
100
AcDbArc
 50
296.5196745995
 51
320.6231825433
  0
ARC
  5
212
330
1F
100
AcDbEntity
  8
0
  6
Continuous
 62
     7
370
    25
100
AcDbCircle
 10
719.4996536329
 20
247.5498076553
 30
0.0
 40
1.000000000000093
100
AcDbArc
 50
205.7142857143
 51
296.5196745995
  0
LINE
  5
213
330
1F
100
AcDbEntity
  8
0
  6
Continuous
 62
     7
370
    25
100
AcDbLine
 10
718.598684765
 20
247.1159239162
 30
0.0
 11
717.3077069179
 21
249.7966670383
 31
0.0
  0
ARC
  5
214
330
1F
100
AcDbEntity
  8
0
  6
Continuous
 62
     7
370
    25
100
AcDbCircle
 10
716.40673805
 20
249.3627832992
 30
0.0
 40
0.9999999999999902
100
AcDbArc
 50
25.7142857143
 51
115.7142857143
  0
LINE
  5
215
330
1F
100
AcDbEntity
  8
0
  6
Continuous
 62
     7
370
    25
100
AcDbLine
 10
715.9728543109
 20
250.2637521671
 30
0.0
 11
713.2699477071
 21
248.9621009497
 31
0.0
  0
ARC
  5
216
330
1F
100
AcDbEntity
  8
0
  6
Continuous
 62
     7
370
    25
100
AcDbCircle
 10
713.7038314463
 20
248.0611320818
 30
0.0
 40
0.9999999999999655
100
AcDbArc
 50
115.7142857143
 51
205.7142857143
  0
LINE
  5
217
330
1F
100
AcDbEntity
  8
0
  6
Continuous
 62
     7
370
    25
100
AcDbLine
 10
712.8028625784
 20
247.6272483427
 30
0.0
 11
714.0938404255
 21
244.9465052206
 31
0.0
  0
ARC
  5
218
330
1F
100
AcDbEntity
  8
0
  6
Continuous
 62
     7
370
    25
100
AcDbCircle
 10
713.1928715576
 20
244.5126214815
 30
0.0
 40
1.00000000000008
100
AcDbArc
 50
294.9088968291
 51
25.7142857143
  0
ARC
  5
219
330
1F
100
AcDbEntity
  8
0
  6
Continuous
 62
     7
370
    25
100
AcDbCircle
 10
608.3198849252
 20
470.3502991945
 30
0.0
 40
250.0
100
AcDbArc
 50
270.8053888852
 51
294.9088968291
  0
ARC
  5
21A
330
1F
100
AcDbEntity
  8
0
  6
Continuous
 62
     7
370
    25
100
AcDbCircle
 10
611.8198849252
 20
221.3748988032
 30
0.0
 40
1.0
100
AcDbArc
 50
180.0
 51
270.8053888852
  0
LINE
  5
21B
330
1F
100
AcDbEntity
  8
0
  6
Continuous
 62
     7
370
    25
100
AcDbLine
 10
610.8198849252
 20
221.3748988032
 30
0.0
 11
610.8198849252
 21
224.3502991945
 31
0.0
  0
ARC
  5
21C
330
1F
100
AcDbEntity
  8
0
  6
Continuous
 62
     7
370
    25
100
AcDbCircle
 10
609.8198849252
 20
224.3502991945
 30
0.0
 40
1.0
100
AcDbArc
 50
0.0
 51
90.0
  0
LINE
  5
21D
330
1F
100
AcDbEntity
  8
0
  6
Continuous
 62
     7
370
    25
100
AcDbLine
 10
609.8198849252
 20
225.3502991945
 30
0.0
 11
606.8198849252
 21
225.3502991945
 31
0.0
  0
ARC
  5
21E
330
1F
100
AcDbEntity
  8
0
  6
Continuous
 62
     7
370
    25
100
AcDbCircle
 10
606.8198849252
 20
224.3502991945
 30
0.0
 40
1.0
100
AcDbArc
 50
90.0
 51
180.0
  0
LINE
  5
21F
330
1F
100
AcDbEntity
  8
0
  6
Continuous
 62
     7
370
    25
100
AcDbLine
 10
605.8198849252
 20
224.3502991945
 30
0.0
 11
605.8198849252
 21
221.3748988032
 31
0.0
  0
ARC
  5
220
330
1F
100
AcDbEntity
  8
0
  6
Continuous
 62
     7
370
    25
100
AcDbCircle
 10
604.8198849252
 20
221.3748988032
 30
0.0
 40
1.0
100
AcDbArc
 50
269.1946111148
 51
0.0
  0
ARC
  5
221
330
1F
100
AcDbEntity
  8
0
  6
Continuous
 62
     7
370
    25
100
AcDbCircle
 10
608.3198849252
 20
470.3502991945
 30
0.0
 40
250.0000000000001
100
AcDbArc
 50
245.0911031709
 51
269.1946111148
  0
ARC
  5
222
330
1F
100
AcDbEntity
  8
0
  6
Continuous
 62
     7
370
    25
100
AcDbCircle
 10
503.4468982928
 20
244.5126214815
 30
0.0
 40
1.000000000000017
100
AcDbArc
 50
154.2857142857
 51
245.0911031709
  0
LINE
  5
223
330
1F
100
AcDbEntity
  8
0
  6
Continuous
 62
     7
370
    25
100
AcDbLine
 10
502.5459294249
 20
244.9465052206
 30
0.0
 11
503.836907272
 21
247.6272483427
 31
0.0
  0
ARC
  5
224
330
1F
100
AcDbEntity
  8
0
  6
Continuous
 62
     7
370
    25
100
AcDbCircle
 10
502.9359384041
 20
248.0611320818
 30
0.0
 40
1.000000000000016
100
AcDbArc
 50
334.2857142857
 51
64.2857142857
  0
LINE
  5
225
330
1F
100
AcDbEntity
  8
0
  6
Continuous
 62
     7
370
    25
100
AcDbLine
 10
503.3698221433
 20
248.9621009497
 30
0.0
 11
500.6669155395
 21
250.2637521671
 31
0.0
  0
ARC
  5
226
330
1F
100
AcDbEntity
  8
0
  6
Continuous
 62
     7
370
    25
100
AcDbCircle
 10
500.2330318004
 20
249.3627832992
 30
0.0
 40
0.9999999999999902
100
AcDbArc
 50
64.2857142857
 51
154.2857142857
  0
LINE
  5
227
330
1F
100
AcDbEntity
  8
0
  6
Continuous
 62
     7
370
    25
100
AcDbLine
 10
499.3320629325
 20
249.7966670383
 30
0.0
 11
498.0410850854
 21
247.1159239162
 31
0.0
  0
ARC
  5
228
330
1F
100
AcDbEntity
  8
0
  6
Continuous
 62
     7
370
    25
100
AcDbCircle
 10
497.1401162175
 20
247.5498076553
 30
0.0
 40
1.000000000000031
100
AcDbArc
 50
243.4803254005
 51
334.2857142857
  0
ARC
  5
229
330
1F
100
AcDbEntity
  8
0
  6
Continuous
 62
     7
370
    25
100
AcDbCircle
 10
608.3198849252
 20
470.3502991945
 30
0.0
 40
250.0000000000001
100
AcDbArc
 50
219.3768174567
 51
243.4803254005
  0
ARC
  5
22A
330
1F
100
AcDbEntity
  8
0
  6
Continuous
 62
     7
370
    25
100
AcDbCircle
 10
415.8452928457
 20
312.3802659482
 30
0.0
 40
1.000000000000046
100
AcDbArc
 50
128.5714285714
 51
219.3768174567
  0
LINE
  5
22B
330
1F
100
AcDbEntity
  8
0
  6
Continuous
 62
     7
370
    25
100
AcDbLine
 10
415.2218030439
 20
313.1620974306
 30
0.0
 11
417.5480647427
 21
315.0172292311
 31
0.0
  0
ARC
  5
22C
330
1F
100
AcDbEntity
  8
0
  6
Continuous
 62
     7
370
    25
100
AcDbCircle
 10
416.9245749409
 20
315.7990607135
 30
0.0
 40
0.9999999999999967
100
AcDbArc
 50
308.5714285714
 51
38.5714285714
  0
LINE
  5
22D
330
1F
100
AcDbEntity
  8
0
  6
Continuous
 62
     7
370
    25
100
AcDbLine
 10
417.7064064233
 20
316.4225505154
 30
0.0
 11
415.8359370177
 21
318.7680449628
 31
0.0
  0
ARC
  5
22E
330
1F
100
AcDbEntity
  8
0
  6
Continuous
 62
     7
370
    25
100
AcDbCircle
 10
415.0541055353
 20
318.1445551609
 30
0.0
 40
0.9999999999999967
100
AcDbArc
 50
38.5714285714
 51
128.5714285714
  0
LINE
  5
22F
330
1F
100
AcDbEntity
  8
0
  6
Continuous
 62
     7
370
    25
100
AcDbLine
 10
414.4306157334
 20
318.9263866434
 30
0.0
 11
412.1043540346
 21
317.071254843
 31
0.0
  0
ARC
  5
230
330
1F
100
AcDbEntity
  8
0
  6
Continuous
 62
     7
370
    25
100
AcDbCircle
 10
411.4808642327
 20
317.8530863255
 30
0.0
 40
0.9999999999999817
100
AcDbArc
 50
217.7660396862
 51
308.5714285714
  0
ARC
  5
231
330
1F
100
AcDbEntity
  8
0
  6
Continuous
 62
     7
370
    25
100
AcDbCircle
 10
608.3198849252
 20
470.3502991945
 30
0.0
 40
250.0000000000001
100
AcDbArc
 50
193.6625317424
 51
217.7660396862
  0
ARC
  5
232
330
1F
100
AcDbEntity
  8
0
  6
Continuous
 62
     7
370
    25
100
AcDbCircle
 10
366.3656409059
 20
411.5358128746
 30
0.0
 40
1.000000000000054
100
AcDbArc
 50
102.8571428571
 51
193.6625317424
  0
LINE
  5
233
330
1F
100
AcDbEntity
  8
0
  6
Continuous
 62
     7
370
    25
100
AcDbLine
 10
366.143119972
 20
412.5107407868
 30
0.0
 11
369.0439208634
 21
413.1728296608
 31
0.0
  0
ARC
  5
234
330
1F
100
AcDbEntity
  8
0
  6
Continuous
 62
     7
370
    25
100
AcDbCircle
 10
368.8213999294
 20
414.147757573
 30
0.0
 40
1.00000000000002
100
AcDbArc
 50
282.8571428571
 51
12.8571428571
  0
LINE
  5
235
330
1F
100
AcDbEntity
  8
0
  6
Continuous
 62
     7
370
    25
100
AcDbLine
 10
369.7963278416
 20
414.3702785069
 30
0.0
 11
369.1287650397
 21
417.2950622435
 31
0.0
  0
ARC
  5
236
330
1F
100
AcDbEntity
  8
0
  6
Continuous
 62
     7
370
    25
100
AcDbCircle
 10
368.1538371275
 20
417.0725413095
 30
0.0
 40
1.00000000000002
100
AcDbArc
 50
12.8571428571
 51
102.8571428571
  0
LINE
  5
237
330
1F
100
AcDbEntity
  8
0
  6
Continuous
 62
     7
370
    25
100
AcDbLine
 10
367.9313161936
 20
418.0474692217
 30
0.0
 11
365.0305153022
 21
417.3853803477
 31
0.0
  0
ARC
  5
238
330
1F
100
AcDbEntity
  8
0
  6
Continuous
 62
     7
370
    25
100
AcDbCircle
 10
364.8079943682
 20
418.3603082599
 30
0.0
 40
1.000000000000049
100
AcDbArc
 50
192.0517539719
 51
282.8571428571
  0
ARC
  5
239
330
1F
100
AcDbEntity
  8
0
  6
Continuous
 62
     7
370
    25
100
AcDbCircle
 10
608.3198849252
 20
470.3502991945
 30
0.0
 40
250.0000000000001
100
AcDbArc
 50
167.9482460281
 51
192.0517539719
  0
ARC
  5
23A
330
1F
100
AcDbEntity
  8
0
  6
Continuous
 62
     7
370
    25
100
AcDbCircle
 10
364.8079943682
 20
522.3402901291
 30
0.0
 40
1.000000000000076
100
AcDbArc
 50
77.1428571429
 51
167.9482460281
  0
LINE
  5
23B
330
1F
100
AcDbEntity
  8
0
  6
Continuous
 62
     7
370
    25
100
AcDbLine
 10
365.0305153022
 20
523.3152180412
 30
0.0
 11
367.9313161936
 21
522.6531291673
 31
0.0
  0
ARC
  5
23C
330
1F
100
AcDbEntity
  8
0
  6
Continuous
 62
     7
370
    25
100
AcDbCircle
 10
368.1538371275
 20
523.6280570795
 30
0.0
 40
1.000000000000063
100
AcDbArc
 50
257.1428571429
 51
347.1428571429
  0
LINE
  5
23D
330
1F
100
AcDbEntity
  8
0
  6
Continuous
 62
     7
370
    25
100
AcDbLine
 10
369.1287650397
 20
523.4055361455
 30
0.0
 11
369.7963278416
 21
526.330319882
 31
0.0
  0
ARC
  5
23E
330
1F
100
AcDbEntity
  8
0
  6
Continuous
 62
     7
370
    25
100
AcDbCircle
 10
368.8213999294
 20
526.552840816
 30
0.0
 40
1.000000000000076
100
AcDbArc
 50
347.1428571429
 51
77.1428571429
  0
LINE
  5
23F
330
1F
100
AcDbEntity
  8
0
  6
Continuous
 62
     7
370
    25
100
AcDbLine
 10
369.0439208634
 20
527.5277687282
 30
0.0
 11
366.143119972
 21
528.1898576021
 31
0.0
  0
ARC
  5
240
330
1F
100
AcDbEntity
  8
0
  6
Continuous
 62
     7
370
    25
100
AcDbCircle
 10
366.3656409059
 20
529.1647855143
 30
0.0
 40
0.9999999999999649
100
AcDbArc
 50
166.3374682576
 51
257.1428571429
  0
ARC
  5
241
330
1F
100
AcDbEntity
  8
0
  6
Continuous
 62
     7
370
    25
100
AcDbCircle
 10
608.3198849252
 20
470.3502991945
 30
0.0
 40
250.0000000000001
100
AcDbArc
 50
142.2339603138
 51
166.3374682576
  0
ARC
  5
242
330
1F
100
AcDbEntity
  8
0
  6
Continuous
 62
     7
370
    25
100
AcDbCircle
 10
411.4808642327
 20
622.8475120635
 30
0.0
 40
1.000000000000077
100
AcDbArc
 50
51.4285714286
 51
142.2339603138
  0
LINE
  5
243
330
1F
100
AcDbEntity
  8
0
  6
Continuous
 62
     7
370
    25
100
AcDbLine
 10
412.1043540346
 20
623.629343546
 30
0.0
 11
414.4306157334
 21
621.7742117456
 31
0.0
  0
ARC
  5
244
330
1F
100
AcDbEntity
  8
0
  6
Continuous
 62
     7
370
    25
100
AcDbCircle
 10
415.0541055353
 20
622.556043228
 30
0.0
 40
1.000000000000032
100
AcDbArc
 50
231.4285714286
 51
321.4285714286
  0
LINE
  5
245
330
1F
100
AcDbEntity
  8
0
  6
Continuous
 62
     7
370
    25
100
AcDbLine
 10
415.8359370177
 20
621.9325534262
 30
0.0
 11
417.7064064233
 21
624.2780478736
 31
0.0
  0
ARC
  5
246
330
1F
100
AcDbEntity
  8
0
  6
Continuous
 62
     7
370
    25
100
AcDbCircle
 10
416.9245749409
 20
624.9015376754
 30
0.0
 40
1.000000000000041
100
AcDbArc
 50
321.4285714286
 51
51.4285714286
  0
LINE
  5
247
330
1F
100
AcDbEntity
  8
0
  6
Continuous
 62
     7
370
    25
100
AcDbLine
 10
417.5480647427
 20
625.6833691579
 30
0.0
 11
415.2218030439
 21
627.5385009583
 31
0.0
  0
ARC
  5
248
330
1F
100
AcDbEntity
  8
0
  6
Continuous
 62
     7
370
    25
100
AcDbCircle
 10
415.8452928457
 20
628.3203324408
 30
0.0
 40
1.000000000000118
100
AcDbArc
 50
140.6231825433
 51
231.4285714286
  0
ARC
  5
249
330
1F
100
AcDbEntity
  8
0
  6
Continuous
 62
     7
370
    25
100
AcDbCircle
 10
608.3198849252
 20
470.3502991945
 30
0.0
 40
250.0000000000001
100
AcDbArc
 50
116.5196745995
 51
140.6231825433
  0
ARC
  5
24A
330
1F
100
AcDbEntity
  8
0
  6
Continuous
 62
     7
370
    25
100
AcDbCircle
 10
497.1401162175
 20
693.1507907337
 30
0.0
 40
1.000000000000107
100
AcDbArc
 50
25.7142857143
 51
116.5196745995
  0
LINE
  5
24B
330
1F
100
AcDbEntity
  8
0
  6
Continuous
 62
     7
370
    25
100
AcDbLine
 10
498.0410850854
 20
693.5846744728
 30
0.0
 11
499.3320629325
 21
690.9039313507
 31
0.0
  0
ARC
  5
24C
330
1F
100
AcDbEntity
  8
0
  6
Continuous
 62
     7
370
    25
100
AcDbCircle
 10
500.2330318004
 20
691.3378150898
 30
0.0
 40
1.000000000000093
100
AcDbArc
 50
205.7142857143
 51
295.7142857143
  0
LINE
  5
24D
330
1F
100
AcDbEntity
  8
0
  6
Continuous
 62
     7
370
    25
100
AcDbLine
 10
500.6669155395
 20
690.4368462219
 30
0.0
 11
503.3698221433
 21
691.7384974392
 31
0.0
  0
ARC
  5
24E
330
1F
100
AcDbEntity
  8
0
  6
Continuous
 62
     7
370
    25
100
AcDbCircle
 10
502.9359384041
 20
692.6394663071
 30
0.0
 40
0.9999999999999902
100
AcDbArc
 50
295.7142857143
 51
25.7142857143
  0
LINE
  5
24F
330
1F
100
AcDbEntity
  8
0
  6
Continuous
 62
     7
370
    25
100
AcDbLine
 10
503.836907272
 20
693.0733500463
 30
0.0
 11
502.5459294249
 21
695.7540931684
 31
0.0
  0
ARC
  5
250
330
1F
100
AcDbEntity
  8
0
  6
Continuous
 62
     7
370
    25
100
AcDbCircle
 10
503.4468982928
 20
696.1879769075
 30
0.0
 40
1.000000000000068
100
AcDbArc
 50
114.9088968291
 51
205.7142857143
  0
ARC
  5
251
330
1F
100
AcDbEntity
  8
0
  6
Continuous
 62
     7
370
    25
100
AcDbCircle
 10
608.3198849252
 20
470.3502991945
 30
0.0
 40
250.0000000000001
100
AcDbArc
 50
90.8053888852
 51
114.9088968291
  0
CIRCLE
  5
252
330
1F
100
AcDbEntity
  8
0
  6
Continuous
 62
     7
370
    25
100
AcDbCircle
 10
723.3198849252
 20
470.3502991945
 30
0.0
 40
39.99999999999761
  0
CIRCLE
  5
253
330
1F
100
AcDbEntity
  8
0
  6
Continuous
 62
     7
370
    25
100
AcDbCircle
 10
446.3198849252
 20
340.3502991945
 30
0.0
 40
2.099999999999966
  0
CIRCLE
  5
254
330
1F
100
AcDbEntity
  8
0
  6
Continuous
 62
     7
370
    25
100
AcDbCircle
 10
754.3198849252
 20
617.3502991945
 30
0.0
 40
2.100000000000023
  0
CIRCLE
  5
255
330
1F
100
AcDbEntity
  8
0
  6
Continuous
 62
     7
370
    25
100
AcDbCircle
 10
770.3198849252
 20
580.3502991945
 30
0.0
 40
2.099999999999909
  0
CIRCLE
  5
256
330
1F
100
AcDbEntity
  8
0
  6
Continuous
 62
     7
370
    25
100
AcDbCircle
 10
770.3198849252
 20
600.3502991945
 30
0.0
 40
2.100000000000136
  0
CIRCLE
  5
257
330
1F
100
AcDbEntity
  8
0
  6
Continuous
 62
     7
370
    25
100
AcDbCircle
 10
734.3198849252
 20
617.3502991945
 30
0.0
 40
2.100000000000023
  0
CIRCLE
  5
258
330
1F
100
AcDbEntity
  8
0
  6
Continuous
 62
     7
370
    25
100
AcDbCircle
 10
482.3198849252
 20
616.3502991945
 30
0.0
 40
2.100000000000023
  0
CIRCLE
  5
259
330
1F
100
AcDbEntity
  8
0
  6
Continuous
 62
     7
370
    25
100
AcDbCircle
 10
462.3198849252
 20
616.3502991945
 30
0.0
 40
2.100000000000023
  0
CIRCLE
  5
25A
330
1F
100
AcDbEntity
  8
0
  6
Continuous
 62
     7
370
    25
100
AcDbCircle
 10
445.3198849252
 20
600.3502991945
 30
0.0
 40
2.100000000000023
  0
CIRCLE
  5
25B
330
1F
100
AcDbEntity
  8
0
  6
Continuous
 62
     7
370
    25
100
AcDbCircle
 10
462.3198849252
 20
323.3502991945
 30
0.0
 40
2.100000000000023
  0
CIRCLE
  5
25C
330
1F
100
AcDbEntity
  8
0
  6
Continuous
 62
     7
370
    25
100
AcDbCircle
 10
754.3198849252
 20
324.3502991945
 30
0.0
 40
2.100000000000023
  0
CIRCLE
  5
25D
330
1F
100
AcDbEntity
  8
0
  6
Continuous
 62
     7
370
    25
100
AcDbCircle
 10
734.3198849252
 20
324.3502991945
 30
0.0
 40
2.100000000000023
  0
CIRCLE
  5
25E
330
1F
100
AcDbEntity
  8
0
  6
Continuous
 62
     7
370
    25
100
AcDbCircle
 10
446.3198849252
 20
360.3502991945
 30
0.0
 40
2.100000000000023
  0
CIRCLE
  5
25F
330
1F
100
AcDbEntity
  8
0
  6
Continuous
 62
     7
370
    25
100
AcDbCircle
 10
482.3198849252
 20
323.3502991945
 30
0.0
 40
2.100000000000023
  0
CIRCLE
  5
260
330
1F
100
AcDbEntity
  8
0
  6
Continuous
 62
     7
370
    25
100
AcDbCircle
 10
771.3198849252
 20
340.3502991945
 30
0.0
 40
2.099999999999909
  0
CIRCLE
  5
261
330
1F
100
AcDbEntity
  8
0
  6
Continuous
 62
     7
370
    25
100
AcDbCircle
 10
771.3198849252
 20
360.3502991945
 30
0.0
 40
2.099999999999966
  0
CIRCLE
  5
262
330
1F
100
AcDbEntity
  8
0
  6
Continuous
 62
     7
370
    25
100
AcDbCircle
 10
445.3198849252
 20
580.3502991945
 30
0.0
 40
2.099999999999909
  0
CIRCLE
  5
263
330
1F
100
AcDbEntity
  8
0
  6
Continuous
 62
     7
370
    25
100
AcDbCircle
 10
690.8198849252
 20
522.3502991945
 30
0.0
 40
2.0
  0
CIRCLE
  5
264
330
1F
100
AcDbEntity
  8
0
  6
Continuous
 62
     7
370
    25
100
AcDbCircle
 10
740.8198849252
 20
418.3502991945
 30
0.0
 40
2.0
  0
CIRCLE
  5
265
330
1F
100
AcDbEntity
  8
0
  6
Continuous
 62
     7
370
    25
100
AcDbCircle
 10
690.8198849252
 20
418.3502991945
 30
0.0
 40
2.0
  0
CIRCLE
  5
266
330
1F
100
AcDbEntity
  8
0
  6
Continuous
 62
     7
370
    25
100
AcDbCircle
 10
740.8198849252
 20
522.3502991945
 30
0.0
 40
2.0
  0
LINE
  5
267
330
1F
100
AcDbEntity
  8
0
  6
Continuous
 62
     7
370
    25
100
AcDbLine
 10
430.3198849252
 20
520.3502991945
 30
0.0
 11
426.3198849252
 21
520.3502991945
 31
0.0
  0
LINE
  5
268
330
1F
100
AcDbEntity
  8
0
  6
Continuous
 62
     7
370
    25
100
AcDbLine
 10
426.3198849252
 20
520.3502991945
 30
0.0
 11
426.3198849252
 21
420.3502991945
 31
0.0
  0
LINE
  5
269
330
1F
100
AcDbEntity
  8
0
  6
Continuous
 62
     7
370
    25
100
AcDbLine
 10
426.3198849252
 20
420.3502991945
 30
0.0
 11
430.3198849252
 21
420.3502991945
 31
0.0
  0
LINE
  5
26A
330
1F
100
AcDbEntity
  8
0
  6
Continuous
 62
     7
370
    25
100
AcDbLine
 10
430.3198849252
 20
420.3502991945
 30
0.0
 11
430.3198849252
 21
520.3502991945
 31
0.0
  0
LINE
  5
26B
330
1F
100
AcDbEntity
  8
0
  6
Continuous
 62
     7
370
    25
100
AcDbLine
 10
388.3198849252
 20
440.3502991945
 30
0.0
 11
408.3198849252
 21
440.3502991945
 31
0.0
  0
ARC
  5
26C
330
1F
100
AcDbEntity
  8
0
  6
Continuous
 62
     7
370
    25
100
AcDbCircle
 10
408.3198849252
 20
445.3502991945
 30
0.0
 40
5.0
100
AcDbArc
 50
270.0
 51
0.0
  0
LINE
  5
26D
330
1F
100
AcDbEntity
  8
0
  6
Continuous
 62
     7
370
    25
100
AcDbLine
 10
413.3198849252
 20
445.3502991945
 30
0.0
 11
413.3198849252
 21
495.3502991945
 31
0.0
  0
ARC
  5
26E
330
1F
100
AcDbEntity
  8
0
  6
Continuous
 62
     7
370
    25
100
AcDbCircle
 10
408.3198849252
 20
495.3502991945
 30
0.0
 40
5.000000000000057
100
AcDbArc
 50
0.0
 51
90.0
  0
LINE
  5
26F
330
1F
100
AcDbEntity
  8
0
  6
Continuous
 62
     7
370
    25
100
AcDbLine
 10
408.3198849252
 20
500.3502991945
 30
0.0
 11
388.3198849252
 21
500.3502991945
 31
0.0
  0
ARC
  5
270
330
1F
100
AcDbEntity
  8
0
  6
Continuous
 62
     7
370
    25
100
AcDbCircle
 10
388.3198849252
 20
495.3502991945
 30
0.0
 40
5.000000000000057
100
AcDbArc
 50
90.0
 51
180.0
  0
LINE
  5
271
330
1F
100
AcDbEntity
  8
0
  6
Continuous
 62
     7
370
    25
100
AcDbLine
 10
383.3198849252
 20
495.3502991945
 30
0.0
 11
383.3198849252
 21
445.3502991945
 31
0.0
  0
ARC
  5
272
330
1F
100
AcDbEntity
  8
0
  6
Continuous
 62
     7
370
    25
100
AcDbCircle
 10
388.3198849252
 20
445.3502991945
 30
0.0
 40
5.0
100
AcDbArc
 50
180.0
 51
270.0
  0
CIRCLE
  5
273
330
1F
100
AcDbEntity
  8
0
  6
Continuous
 62
     7
370
    25
100
AcDbCircle
 10
608.3198849252
 20
480.3502991945
 30
0.0
 40
1.200000000000045
  0
CIRCLE
  5
274
330
1F
100
AcDbEntity
  8
0
  6
Continuous
 62
     7
370
    25
100
AcDbCircle
 10
583.3198849252
 20
460.3502991945
 30
0.0
 40
1.200000000000045
  0
CIRCLE
  5
275
330
1F
100
AcDbEntity
  8
0
  6
Continuous
 62
     7
370
    25
100
AcDbCircle
 10
628.3198849252
 20
460.3502991945
 30
0.0
 40
1.200000000000045
  0
CIRCLE
  5
276
330
1F
100
AcDbEntity
  8
0
  6
Continuous
 62
     7
370
    25
100
AcDbCircle
 10
608.3198849252
 20
460.3502991945
 30
0.0
 40
1.200000000000045
  0
CIRCLE
  5
277
330
1F
100
AcDbEntity
  8
0
  6
Continuous
 62
     7
370
    25
100
AcDbCircle
 10
558.3198849252
 20
460.3502991945
 30
0.0
 40
1.200000000000045
  0
CIRCLE
  5
278
330
1F
100
AcDbEntity
  8
0
  6
Continuous
 62
     7
370
    25
100
AcDbCircle
 10
533.3198849252
 20
460.3502991945
 30
0.0
 40
1.199999999999932
  0
CIRCLE
  5
279
330
1F
100
AcDbEntity
  8
0
  6
Continuous
 62
     7
370
    25
100
AcDbCircle
 10
508.3198849252
 20
460.3502991945
 30
0.0
 40
1.199999999999932
  0
CIRCLE
  5
27A
330
1F
100
AcDbEntity
  8
0
  6
Continuous
 62
     7
370
    25
100
AcDbCircle
 10
483.3198849252
 20
460.3502991945
 30
0.0
 40
1.199999999999989
  0
CIRCLE
  5
27B
330
1F
100
AcDbEntity
  8
0
  6
Continuous
 62
     7
370
    25
100
AcDbCircle
 10
458.3198849252
 20
460.3502991945
 30
0.0
 40
1.199999999999989
  0
CIRCLE
  5
27C
330
1F
100
AcDbEntity
  8
0
  6
Continuous
 62
     7
370
    25
100
AcDbCircle
 10
458.3198849252
 20
480.3502991945
 30
0.0
 40
1.199999999999989
  0
CIRCLE
  5
27D
330
1F
100
AcDbEntity
  8
0
  6
Continuous
 62
     7
370
    25
100
AcDbCircle
 10
483.3198849252
 20
480.3502991945
 30
0.0
 40
1.199999999999989
  0
CIRCLE
  5
27E
330
1F
100
AcDbEntity
  8
0
  6
Continuous
 62
     7
370
    25
100
AcDbCircle
 10
508.3198849252
 20
480.3502991945
 30
0.0
 40
1.199999999999932
  0
CIRCLE
  5
27F
330
1F
100
AcDbEntity
  8
0
  6
Continuous
 62
     7
370
    25
100
AcDbCircle
 10
533.3198849252
 20
480.3502991945
 30
0.0
 40
1.199999999999932
  0
CIRCLE
  5
280
330
1F
100
AcDbEntity
  8
0
  6
Continuous
 62
     7
370
    25
100
AcDbCircle
 10
558.3198849252
 20
480.3502991945
 30
0.0
 40
1.200000000000045
  0
CIRCLE
  5
281
330
1F
100
AcDbEntity
  8
0
  6
Continuous
 62
     7
370
    25
100
AcDbCircle
 10
583.3198849252
 20
480.3502991945
 30
0.0
 40
1.200000000000045
  0
CIRCLE
  5
282
330
1F
100
AcDbEntity
  8
0
  6
Continuous
 62
     7
370
    25
100
AcDbCircle
 10
628.3198849252
 20
480.3502991945
 30
0.0
 40
1.200000000000045
  0
LINE
  5
283
330
1F
100
AcDbEntity
  8
0
  6
Continuous
 62
     7
370
    25
100
AcDbLine
 10
508.3198849252
 20
268.3502991945
 30
0.0
 11
608.3198849252
 21
268.3502991945
 31
0.0
  0
LINE
  5
284
330
1F
100
AcDbEntity
  8
0
  6
Continuous
 62
     7
370
    25
100
AcDbLine
 10
608.3198849252
 20
268.3502991945
 30
0.0
 11
608.3198849252
 21
272.3502991945
 31
0.0
  0
LINE
  5
285
330
1F
100
AcDbEntity
  8
0
  6
Continuous
 62
     7
370
    25
100
AcDbLine
 10
608.3198849252
 20
272.3502991945
 30
0.0
 11
508.3198849252
 21
272.3502991945
 31
0.0
  0
LINE
  5
286
330
1F
100
AcDbEntity
  8
0
  6
Continuous
 62
     7
370
    25
100
AcDbLine
 10
508.3198849252
 20
272.3502991945
 30
0.0
 11
508.3198849252
 21
268.3502991945
 31
0.0
  0
LINE
  5
287
330
1F
100
AcDbEntity
  8
0
  6
Continuous
 62
     7
370
    25
100
AcDbLine
 10
608.3198849252
 20
672.3502991945
 30
0.0
 11
508.3198849252
 21
672.3502991945
 31
0.0
  0
LINE
  5
288
330
1F
100
AcDbEntity
  8
0
  6
Continuous
 62
     7
370
    25
100
AcDbLine
 10
508.3198849252
 20
672.3502991945
 30
0.0
 11
508.3198849252
 21
668.3502991945
 31
0.0
  0
LINE
  5
289
330
1F
100
AcDbEntity
  8
0
  6
Continuous
 62
     7
370
    25
100
AcDbLine
 10
508.3198849252
 20
668.3502991945
 30
0.0
 11
608.3198849252
 21
668.3502991945
 31
0.0
  0
LINE
  5
28A
330
1F
100
AcDbEntity
  8
0
  6
Continuous
 62
     7
370
    25
100
AcDbLine
 10
608.3198849252
 20
668.3502991945
 30
0.0
 11
608.3198849252
 21
672.3502991945
 31
0.0
  0
LINE
  5
28B
330
1F
100
AcDbEntity
  8
0
  6
Continuous
 62
     7
370
    25
100
AcDbLine
 10
596.3198849252
 20
420.3502991945
 30
0.0
 11
600.3198849252
 21
420.3502991945
 31
0.0
  0
LINE
  5
28C
330
1F
100
AcDbEntity
  8
0
  6
Continuous
 62
     7
370
    25
100
AcDbLine
 10
600.3198849252
 20
420.3502991945
 30
0.0
 11
600.3198849252
 21
520.3502991945
 31
0.0
  0
LINE
  5
28D
330
1F
100
AcDbEntity
  8
0
  6
Continuous
 62
     7
370
    25
100
AcDbLine
 10
600.3198849252
 20
520.3502991945
 30
0.0
 11
596.3198849252
 21
520.3502991945
 31
0.0
  0
LINE
  5
28E
330
1F
100
AcDbEntity
  8
0
  6
Continuous
 62
     7
370
    25
100
AcDbLine
 10
596.3198849252
 20
520.3502991945
 30
0.0
 11
596.3198849252
 21
420.3502991945
 31
0.0
  0
DIMENSION
  5
28F
330
1F
100
AcDbEntity
  8
BORDER
100
AcDbDimension
  2
_D
 10
428.604903506
 20
296.5615612006
 30
0.0
 11
884.9883292096
 21
714.645807248
 31
0.0
 70
   163
  1
<>
 71
     1
 42
-1.0
  3
SLDDIMSTYLE0
100
AcDbDiametricDimension
 15
788.0348663444
 25
644.1390371884
 35
0.0
 40
0.0
  0
DIMENSION
  5
299
330
1F
100
AcDbEntity
  8
BORDER
100
AcDbDimension
  2
_D_1
 10
688.6788687738
 20
450.3502991945
 30
0.0
 11
879.5895245363
 21
548.0461832264
 31
0.0
 70
   163
  1
<>
 71
     1
 42
-1.0
  3
SLDDIMSTYLE1
100
AcDbDiametricDimension
 15
757.9609010766
 25
490.3502991945
 35
0.0
 40
0.0
  0
DIMENSION
  5
2A3
330
1F
100
AcDbEntity
  8
BORDER
100
AcDbDimension
  2
_D_2
 10
336.3198849252
 20
440.3502991945
 30
0.0
 11
336.3198849252
 21
469.1005113581
 31
0.0
 70
   160
  1
<>
 71
     2
 42
-1.0
  3
SLDDIMSTYLE2
100
AcDbAlignedDimension
 13
388.3198849252
 23
500.3502991945
 33
0.0
 14
388.3198849252
 24
440.3502991945
 34
0.0
 50
90.0
100
AcDbRotatedDimension
  0
DIMENSION
  5
2AF
330
1F
100
AcDbEntity
  8
BORDER
100
AcDbDimension
  2
_D_3
 10
448.3483291604
 20
360.8938191892
 30
0.0
 11
370.4553446171
 21
345.2073941119
 31
0.0
 70
   163
  1
<>
 71
     1
 42
-1.0
  3
SLDDIMSTYLE1
100
AcDbDiametricDimension
 15
444.29144069
 25
359.8067791998
 35
0.0
 40
0.0
  0
DIMENSION
  5
2B8
330
1F
100
AcDbEntity
  8
BORDER
100
AcDbDimension
  2
_D_4
 10
458.9198849252
 20
479.3110687099
 30
0.0
 11
369.7554374078
 21
600.2324609345
 31
0.0
 70
   163
  1
<>
 71
     1
 42
-1.0
  3
SLDDIMSTYLE1
100
AcDbDiametricDimension
 15
457.7198849252
 25
481.389529679
 35
0.0
 40
0.0
  0
MTEXT
  5
2C1
330
1F
100
AcDbEntity
  8
BORDER
100
AcDbMText
 10
745.7915405685
 20
743.3955885615
 30
0.0
 40
6.35
 41
0.0
 71
     1
 72
     1
  1
t3
  7
SLDTEXTSTYLE0
 73
     1
 44
1.0
  0
LEADER
  5
2C8
330
1F
100
AcDbEntity
  8
BORDER
100
AcDbLeader
  3
SLDDIMSTYLE3
 76
     3
 10
660.9136668412
 20
668.1718179781
 30
0.0
 10
738.8971264368
 20
740.2647462434
 30
0.0
 10
745.2471264368
 20
740.2647462434
 30
0.0
  0
INSERT
  5
2D4
330
1F
100
AcDbEntity
  8
BORDER
100
AcDbBlockReference
  2
SW_CENTERMARKSYMBOL_0
 10
723.3198849252
 20
470.3502991945
 30
0.0
  0
INSERT
  5
2E0
330
1F
100
AcDbEntity
  8
BORDER
100
AcDbBlockReference
  2
SW_CENTERMARKSYMBOL_1
 10
446.3198849252
 20
340.3502991945
 30
0.0
  0
INSERT
  5
2EC
330
1F
100
AcDbEntity
  8
BORDER
100
AcDbBlockReference
  2
SW_CENTERMARKSYMBOL_2
 10
754.3198849252
 20
617.3502991945
 30
0.0
  0
INSERT
  5
2F8
330
1F
100
AcDbEntity
  8
BORDER
100
AcDbBlockReference
  2
SW_CENTERMARKSYMBOL_3
 10
770.3198849252
 20
580.3502991945
 30
0.0
  0
INSERT
  5
304
330
1F
100
AcDbEntity
  8
BORDER
100
AcDbBlockReference
  2
SW_CENTERMARKSYMBOL_4
 10
770.3198849252
 20
600.3502991945
 30
0.0
  0
INSERT
  5
310
330
1F
100
AcDbEntity
  8
BORDER
100
AcDbBlockReference
  2
SW_CENTERMARKSYMBOL_5
 10
734.3198849252
 20
617.3502991945
 30
0.0
  0
INSERT
  5
31C
330
1F
100
AcDbEntity
  8
BORDER
100
AcDbBlockReference
  2
SW_CENTERMARKSYMBOL_6
 10
482.3198849252
 20
616.3502991945
 30
0.0
  0
INSERT
  5
328
330
1F
100
AcDbEntity
  8
BORDER
100
AcDbBlockReference
  2
SW_CENTERMARKSYMBOL_7
 10
462.3198849252
 20
616.3502991945
 30
0.0
  0
INSERT
  5
334
330
1F
100
AcDbEntity
  8
BORDER
100
AcDbBlockReference
  2
SW_CENTERMARKSYMBOL_8
 10
445.3198849252
 20
600.3502991945
 30
0.0
  0
INSERT
  5
340
330
1F
100
AcDbEntity
  8
BORDER
100
AcDbBlockReference
  2
SW_CENTERMARKSYMBOL_9
 10
462.3198849252
 20
323.3502991945
 30
0.0
  0
INSERT
  5
34C
330
1F
100
AcDbEntity
  8
BORDER
100
AcDbBlockReference
  2
SW_CENTERMARKSYMBOL_10
 10
754.3198849252
 20
324.3502991945
 30
0.0
  0
INSERT
  5
358
330
1F
100
AcDbEntity
  8
BORDER
100
AcDbBlockReference
  2
SW_CENTERMARKSYMBOL_11
 10
734.3198849252
 20
324.3502991945
 30
0.0
  0
INSERT
  5
364
330
1F
100
AcDbEntity
  8
BORDER
100
AcDbBlockReference
  2
SW_CENTERMARKSYMBOL_12
 10
446.3198849252
 20
360.3502991945
 30
0.0
  0
INSERT
  5
370
330
1F
100
AcDbEntity
  8
BORDER
100
AcDbBlockReference
  2
SW_CENTERMARKSYMBOL_13
 10
482.3198849252
 20
323.3502991945
 30
0.0
  0
INSERT
  5
37C
330
1F
100
AcDbEntity
  8
BORDER
100
AcDbBlockReference
  2
SW_CENTERMARKSYMBOL_14
 10
771.3198849252
 20
340.3502991945
 30
0.0
  0
INSERT
  5
388
330
1F
100
AcDbEntity
  8
BORDER
100
AcDbBlockReference
  2
SW_CENTERMARKSYMBOL_15
 10
771.3198849252
 20
360.3502991945
 30
0.0
  0
INSERT
  5
394
330
1F
100
AcDbEntity
  8
BORDER
100
AcDbBlockReference
  2
SW_CENTERMARKSYMBOL_16
 10
445.3198849252
 20
580.3502991945
 30
0.0
  0
INSERT
  5
3A0
330
1F
100
AcDbEntity
  8
BORDER
100
AcDbBlockReference
  2
SW_CENTERMARKSYMBOL_17
 10
690.8198849252
 20
522.3502991945
 30
0.0
  0
INSERT
  5
3AC
330
1F
100
AcDbEntity
  8
BORDER
100
AcDbBlockReference
  2
SW_CENTERMARKSYMBOL_18
 10
740.8198849252
 20
418.3502991945
 30
0.0
  0
INSERT
  5
3B8
330
1F
100
AcDbEntity
  8
BORDER
100
AcDbBlockReference
  2
SW_CENTERMARKSYMBOL_19
 10
690.8198849252
 20
418.3502991945
 30
0.0
  0
INSERT
  5
3C4
330
1F
100
AcDbEntity
  8
BORDER
100
AcDbBlockReference
  2
SW_CENTERMARKSYMBOL_20
 10
740.8198849252
 20
522.3502991945
 30
0.0
  0
INSERT
  5
3D0
330
1F
100
AcDbEntity
  8
BORDER
100
AcDbBlockReference
  2
SW_CENTERMARKSYMBOL_21
 10
608.3198849252
 20
480.3502991945
 30
0.0
  0
INSERT
  5
3DC
330
1F
100
AcDbEntity
  8
BORDER
100
AcDbBlockReference
  2
SW_CENTERMARKSYMBOL_22
 10
583.3198849252
 20
460.3502991945
 30
0.0
  0
INSERT
  5
3E8
330
1F
100
AcDbEntity
  8
BORDER
100
AcDbBlockReference
  2
SW_CENTERMARKSYMBOL_23
 10
628.3198849252
 20
460.3502991945
 30
0.0
  0
INSERT
  5
3F4
330
1F
100
AcDbEntity
  8
BORDER
100
AcDbBlockReference
  2
SW_CENTERMARKSYMBOL_24
 10
608.3198849252
 20
460.3502991945
 30
0.0
  0
INSERT
  5
400
330
1F
100
AcDbEntity
  8
BORDER
100
AcDbBlockReference
  2
SW_CENTERMARKSYMBOL_25
 10
558.3198849252
 20
460.3502991945
 30
0.0
  0
INSERT
  5
40C
330
1F
100
AcDbEntity
  8
BORDER
100
AcDbBlockReference
  2
SW_CENTERMARKSYMBOL_26
 10
533.3198849252
 20
460.3502991945
 30
0.0
  0
INSERT
  5
418
330
1F
100
AcDbEntity
  8
BORDER
100
AcDbBlockReference
  2
SW_CENTERMARKSYMBOL_27
 10
508.3198849252
 20
460.3502991945
 30
0.0
  0
INSERT
  5
424
330
1F
100
AcDbEntity
  8
BORDER
100
AcDbBlockReference
  2
SW_CENTERMARKSYMBOL_28
 10
483.3198849252
 20
460.3502991945
 30
0.0
  0
INSERT
  5
430
330
1F
100
AcDbEntity
  8
BORDER
100
AcDbBlockReference
  2
SW_CENTERMARKSYMBOL_29
 10
458.3198849252
 20
460.3502991945
 30
0.0
  0
INSERT
  5
43C
330
1F
100
AcDbEntity
  8
BORDER
100
AcDbBlockReference
  2
SW_CENTERMARKSYMBOL_30
 10
458.3198849252
 20
480.3502991945
 30
0.0
  0
INSERT
  5
448
330
1F
100
AcDbEntity
  8
BORDER
100
AcDbBlockReference
  2
SW_CENTERMARKSYMBOL_31
 10
483.3198849252
 20
480.3502991945
 30
0.0
  0
INSERT
  5
454
330
1F
100
AcDbEntity
  8
BORDER
100
AcDbBlockReference
  2
SW_CENTERMARKSYMBOL_32
 10
508.3198849252
 20
480.3502991945
 30
0.0
  0
INSERT
  5
460
330
1F
100
AcDbEntity
  8
BORDER
100
AcDbBlockReference
  2
SW_CENTERMARKSYMBOL_33
 10
533.3198849252
 20
480.3502991945
 30
0.0
  0
INSERT
  5
46C
330
1F
100
AcDbEntity
  8
BORDER
100
AcDbBlockReference
  2
SW_CENTERMARKSYMBOL_34
 10
558.3198849252
 20
480.3502991945
 30
0.0
  0
INSERT
  5
478
330
1F
100
AcDbEntity
  8
BORDER
100
AcDbBlockReference
  2
SW_CENTERMARKSYMBOL_35
 10
583.3198849252
 20
480.3502991945
 30
0.0
  0
INSERT
  5
484
330
1F
100
AcDbEntity
  8
BORDER
100
AcDbBlockReference
  2
SW_CENTERMARKSYMBOL_36
 10
628.3198849252
 20
480.3502991945
 30
0.0
  0
ENDSEC
  0
SECTION
  2
OBJECTS
  0
DICTIONARY
  5
C
330
0
100
AcDbDictionary
281
     1
  3
ACAD_GROUP
350
D
  3
ACAD_LAYOUT
350
1A
  3
ACAD_MLINESTYLE
350
17
  3
ACAD_PLOTSETTINGS
350
19
  3
ACAD_PLOTSTYLENAME
350
E
  3
ACAD_SCALELIST
350
47
  0
DICTIONARY
  5
D
102
{ACAD_REACTORS
330
C
102
}
330
C
100
AcDbDictionary
281
     1
  0
DICTIONARY
  5
1A
102
{ACAD_REACTORS
330
C
102
}
330
C
100
AcDbDictionary
281
     1
  3
Layout1
350
1E
  3
Layout2
350
26
  3
Model
350
22
  0
DICTIONARY
  5
17
102
{ACAD_REACTORS
330
C
102
}
330
C
100
AcDbDictionary
281
     1
  3
Standard
350
18
  0
DICTIONARY
  5
19
102
{ACAD_REACTORS
330
C
102
}
330
C
100
AcDbDictionary
281
     1
  0
ACDBDICTIONARYWDFLT
  5
E
102
{ACAD_REACTORS
330
C
102
}
330
C
100
AcDbDictionary
281
     1
  3
Normal
350
F
100
AcDbDictionaryWithDefault
340
F
  0
DICTIONARY
  5
47
102
{ACAD_REACTORS
330
C
102
}
330
C
100
AcDbDictionary
281
     1
  3
A0
350
48
  3
A1
350
49
  3
A2
350
4A
  3
A3
350
4B
  3
A4
350
4C
  3
A5
350
4D
  3
A6
350
4E
  3
A7
350
4F
  3
A8
350
50
  3
A9
350
51
  3
B0
350
52
  3
B1
350
53
  3
B2
350
54
  3
B3
350
55
  3
B4
350
56
  3
B5
350
57
  3
B6
350
58
  3
B7
350
59
  3
B8
350
5A
  3
B9
350
5B
  3
C0
350
5C
  3
C1
350
5D
  3
C2
350
5E
  3
C3
350
5F
  3
C4
350
60
  3
C5
350
61
  3
C6
350
62
  3
C7
350
63
  3
C8
350
64
  3
C9
350
65
  3
D0
350
66
  3
D1
350
67
  3
D2
350
68
  0
LAYOUT
  5
1E
102
{ACAD_REACTORS
330
1A
102
}
330
1A
100
AcDbPlotSettings
  1

  2
none_device
  4

  6

 40
0.0
 41
0.0
 42
0.0
 43
0.0
 44
0.0
 45
0.0
 46
0.0
 47
0.0
 48
0.0
 49
0.0
140
0.0
141
0.0
142
1.0
143
1.0
 70
   688
 72
     1
 73
     0
 74
     5
  7

 75
    16
147
1.0
148
0.0
149
0.0
100
AcDbLayout
  1
Layout1
 70
     1
 71
     1
 10
0.0
 20
0.0
 11
420.0
 21
297.0
 12
0.0
 22
0.0
 32
0.0
 14
1.0000000000E+20
 24
1.0000000000E+20
 34
1.0000000000E+20
 15
-1.0000000000E+20
 25
-1.0000000000E+20
 35
-1.0000000000E+20
146
0.0
 13
0.0
 23
0.0
 33
0.0
 16
1.0
 26
0.0
 36
0.0
 17
0.0
 27
1.0
 37
0.0
 76
     0
330
1B
  0
LAYOUT
  5
26
102
{ACAD_REACTORS
330
1A
102
}
330
1A
100
AcDbPlotSettings
  1

  2
none_device
  4

  6

 40
0.0
 41
0.0
 42
0.0
 43
0.0
 44
0.0
 45
0.0
 46
0.0
 47
0.0
 48
0.0
 49
0.0
140
0.0
141
0.0
142
1.0
143
1.0
 70
   688
 72
     1
 73
     0
 74
     5
  7

 75
    16
147
1.0
148
0.0
149
0.0
100
AcDbLayout
  1
Layout2
 70
     1
 71
     2
 10
0.0
 20
0.0
 11
0.0
 21
0.0
 12
0.0
 22
0.0
 32
0.0
 14
0.0
 24
0.0
 34
0.0
 15
0.0
 25
0.0
 35
0.0
146
0.0
 13
0.0
 23
0.0
 33
0.0
 16
1.0
 26
0.0
 36
0.0
 17
0.0
 27
1.0
 37
0.0
 76
     0
330
23
  0
LAYOUT
  5
22
102
{ACAD_REACTORS
330
1A
102
}
330
1A
100
AcDbPlotSettings
  1

  2
none_device
  4
Letter_(8.50_x_11.00_Inches)
  6

 40
6.35
 41
6.35
 42
6.35000508
 43
6.35000508
 44
215.9
 45
279.4
 46
0.0
 47
0.0
 48
0.0
 49
0.0
140
0.0
141
0.0
142
1.0
143
1.0
 70
  1712
 72
     1
 73
     0
 74
     0
  7

 75
     0
147
1.0
148
0.0
149
0.0
100
AcDbLayout
  1
Model
 70
     1
 71
     0
 10
0.0
 20
0.0
 11
1189.0
 21
841.0
 12
0.0
 22
0.0
 32
0.0
 14
0.0
 24
0.0
 34
0.0
 15
1189.0
 25
841.0
 35
0.0
146
0.0
 13
0.0
 23
0.0
 33
0.0
 16
1.0
 26
0.0
 36
0.0
 17
0.0
 27
1.0
 37
0.0
 76
     0
330
1F
331
29
  0
MLINESTYLE
  5
18
102
{ACAD_REACTORS
330
17
102
}
330
17
100
AcDbMlineStyle
  2
Standard
 70
     0
  3

 62
   256
 51
90.0
 52
90.0
 71
     2
 49
0.5
 62
   256
  6
BYLAYER
 49
-0.5
 62
   256
  6
BYLAYER
  0
ACDBPLACEHOLDER
  5
F
102
{ACAD_REACTORS
330
E
102
}
330
E
  0
SCALE
  5
48
102
{ACAD_REACTORS
330
47
102
}
330
47
100
AcDbScale
 70
     0
300
1:1
140
1.0
141
1.0
290
     1
  0
SCALE
  5
49
102
{ACAD_REACTORS
330
47
102
}
330
47
100
AcDbScale
 70
     0
300
1:2
140
1.0
141
2.0
290
     0
  0
SCALE
  5
4A
102
{ACAD_REACTORS
330
47
102
}
330
47
100
AcDbScale
 70
     0
300
1:4
140
1.0
141
4.0
290
     0
  0
SCALE
  5
4B
102
{ACAD_REACTORS
330
47
102
}
330
47
100
AcDbScale
 70
     0
300
1:5
140
1.0
141
5.0
290
     0
  0
SCALE
  5
4C
102
{ACAD_REACTORS
330
47
102
}
330
47
100
AcDbScale
 70
     0
300
1:8
140
1.0
141
8.0
290
     0
  0
SCALE
  5
4D
102
{ACAD_REACTORS
330
47
102
}
330
47
100
AcDbScale
 70
     0
300
1:10
140
1.0
141
10.0
290
     0
  0
SCALE
  5
4E
102
{ACAD_REACTORS
330
47
102
}
330
47
100
AcDbScale
 70
     0
300
1:16
140
1.0
141
16.0
290
     0
  0
SCALE
  5
4F
102
{ACAD_REACTORS
330
47
102
}
330
47
100
AcDbScale
 70
     0
300
1:20
140
1.0
141
20.0
290
     0
  0
SCALE
  5
50
102
{ACAD_REACTORS
330
47
102
}
330
47
100
AcDbScale
 70
     0
300
1:30
140
1.0
141
30.0
290
     0
  0
SCALE
  5
51
102
{ACAD_REACTORS
330
47
102
}
330
47
100
AcDbScale
 70
     0
300
1:40
140
1.0
141
40.0
290
     0
  0
SCALE
  5
52
102
{ACAD_REACTORS
330
47
102
}
330
47
100
AcDbScale
 70
     0
300
1:50
140
1.0
141
50.0
290
     0
  0
SCALE
  5
53
102
{ACAD_REACTORS
330
47
102
}
330
47
100
AcDbScale
 70
     0
300
1:100
140
1.0
141
100.0
290
     0
  0
SCALE
  5
54
102
{ACAD_REACTORS
330
47
102
}
330
47
100
AcDbScale
 70
     0
300
2:1
140
2.0
141
1.0
290
     0
  0
SCALE
  5
55
102
{ACAD_REACTORS
330
47
102
}
330
47
100
AcDbScale
 70
     0
300
4:1
140
4.0
141
1.0
290
     0
  0
SCALE
  5
56
102
{ACAD_REACTORS
330
47
102
}
330
47
100
AcDbScale
 70
     0
300
8:1
140
8.0
141
1.0
290
     0
  0
SCALE
  5
57
102
{ACAD_REACTORS
330
47
102
}
330
47
100
AcDbScale
 70
     0
300
10:1
140
10.0
141
1.0
290
     0
  0
SCALE
  5
58
102
{ACAD_REACTORS
330
47
102
}
330
47
100
AcDbScale
 70
     0
300
100:1
140
100.0
141
1.0
290
     0
  0
SCALE
  5
59
102
{ACAD_REACTORS
330
47
102
}
330
47
100
AcDbScale
 70
     0
300
1/128" = 1'-0"
140
0.0078125
141
12.0
290
     0
  0
SCALE
  5
5A
102
{ACAD_REACTORS
330
47
102
}
330
47
100
AcDbScale
 70
     0
300
1/64" = 1'-0"
140
0.015625
141
12.0
290
     0
  0
SCALE
  5
5B
102
{ACAD_REACTORS
330
47
102
}
330
47
100
AcDbScale
 70
     0
300
1/32" = 1'-0"
140
0.03125
141
12.0
290
     0
  0
SCALE
  5
5C
102
{ACAD_REACTORS
330
47
102
}
330
47
100
AcDbScale
 70
     0
300
1/16" = 1'-0"
140
0.0625
141
12.0
290
     0
  0
SCALE
  5
5D
102
{ACAD_REACTORS
330
47
102
}
330
47
100
AcDbScale
 70
     0
300
3/32" = 1'-0"
140
0.09375
141
12.0
290
     0
  0
SCALE
  5
5E
102
{ACAD_REACTORS
330
47
102
}
330
47
100
AcDbScale
 70
     0
300
1/8" = 1'-0"
140
0.125
141
12.0
290
     0
  0
SCALE
  5
5F
102
{ACAD_REACTORS
330
47
102
}
330
47
100
AcDbScale
 70
     0
300
3/16" = 1'-0"
140
0.1875
141
12.0
290
     0
  0
SCALE
  5
60
102
{ACAD_REACTORS
330
47
102
}
330
47
100
AcDbScale
 70
     0
300
1/4" = 1'-0"
140
0.25
141
12.0
290
     0
  0
SCALE
  5
61
102
{ACAD_REACTORS
330
47
102
}
330
47
100
AcDbScale
 70
     0
300
3/8" = 1'-0"
140
0.375
141
12.0
290
     0
  0
SCALE
  5
62
102
{ACAD_REACTORS
330
47
102
}
330
47
100
AcDbScale
 70
     0
300
1/2" = 1'-0"
140
0.5
141
12.0
290
     0
  0
SCALE
  5
63
102
{ACAD_REACTORS
330
47
102
}
330
47
100
AcDbScale
 70
     0
300
3/4" = 1'-0"
140
0.75
141
12.0
290
     0
  0
SCALE
  5
64
102
{ACAD_REACTORS
330
47
102
}
330
47
100
AcDbScale
 70
     0
300
1" = 1'-0"
140
1.0
141
12.0
290
     0
  0
SCALE
  5
65
102
{ACAD_REACTORS
330
47
102
}
330
47
100
AcDbScale
 70
     0
300
1-1/2" = 1'-0"
140
1.5
141
12.0
290
     0
  0
SCALE
  5
66
102
{ACAD_REACTORS
330
47
102
}
330
47
100
AcDbScale
 70
     0
300
3" = 1'-0"
140
3.0
141
12.0
290
     0
  0
SCALE
  5
67
102
{ACAD_REACTORS
330
47
102
}
330
47
100
AcDbScale
 70
     0
300
6" = 1'-0"
140
6.0
141
12.0
290
     0
  0
SCALE
  5
68
102
{ACAD_REACTORS
330
47
102
}
330
47
100
AcDbScale
 70
     0
300
1'-0" = 1'-0"
140
12.0
141
12.0
290
     0
  0
ENDSEC
  0
EOF
