  0
SECTION
  2
HEADER
  9
$ACADVER
  1
AC1015
  9
$ACADMAINTVER
 70
     6
  9
$DWGCODEPAGE
  3
ANSI_1252
  9
$INSBASE
 10
0.0
 20
0.0
 30
0.0
  9
$EXTMIN
 10
0.0
 20
0.0
 30
0.0
  9
$EXTMAX
 10
1189.0
 20
841.0
 30
0.0
  9
$LIMMIN
 10
0.0
 20
0.0
  9
$LIMMAX
 10
1189.0
 20
841.0
  9
$ORTHOMODE
 70
     0
  9
$REGENMODE
 70
     1
  9
$FILLMODE
 70
     1
  9
$QTEXTMODE
 70
     0
  9
$MIRRTEXT
 70
     1
  9
$LTSCALE
 40
1.0
  9
$ATTMODE
 70
     1
  9
$TEXTSIZE
 40
3.175
  9
$TRACEWID
 40
1.0
  9
$TEXTSTYLE
  7
Standard
  9
$CLAYER
  8
0
  9
$CELTYPE
  6
ByLayer
  9
$CECOLOR
 62
   256
  9
$CELTSCALE
 40
1.0
  9
$DISPSILH
 70
     0
  9
$DIMSCALE
 40
1.0
  9
$DIMASZ
 40
3.302
  9
$DIMEXO
 40
1.27
  9
$DIMDLI
 40
3.75
  9
$DIMRND
 40
0.0
  9
$DIMDLE
 40
0.0
  9
$DIMEXE
 40
3.175
  9
$DIMTP
 40
0.0
  9
$DIMTM
 40
0.0
  9
$DIMTXT
 40
8.4666666667
  9
$DIMCEN
 40
2.5
  9
$DIMTSZ
 40
0.0
  9
$DIMTOL
 70
     0
  9
$DIMLIM
 70
     0
  9
$DIMTIH
 70
     1
  9
$DIMTOH
 70
     1
  9
$DIMSE1
 70
     0
  9
$DIMSE2
 70
     0
  9
$DIMTAD
 70
     0
  9
$DIMZIN
 70
     1
  9
$DIMBLK
  1

  9
$DIMASO
 70
     1
  9
$DIMSHO
 70
     1
  9
$DIMPOST
  1

  9
$DIMAPOST
  1

  9
$DIMALT
 70
     0
  9
$DIMALTD
 70
     3
  9
$DIMALTF
 40
0.0393700787
  9
$DIMLFAC
 40
1.0
  9
$DIMTOFL
 70
     1
  9
$DIMTVP
 40
0.0
  9
$DIMTIX
 70
     0
  9
$DIMSOXD
 70
     0
  9
$DIMSAH
 70
     0
  9
$DIMBLK1
  1

  9
$DIMBLK2
  1

  9
$DIMSTYLE
  2
ISO-25
  9
$DIMCLRD
 70
     0
  9
$DIMCLRE
 70
     0
  9
$DIMCLRT
 70
     0
  9
$DIMTFAC
 40
1.0
  9
$DIMGAP
 40
1.524
  9
$DIMJUST
 70
     0
  9
$DIMSD1
 70
     0
  9
$DIMSD2
 70
     0
  9
$DIMTOLJ
 70
     0
  9
$DIMTZIN
 70
     1
  9
$DIMALTZ
 70
     0
  9
$DIMALTTZ
 70
     0
  9
$DIMUPT
 70
     0
  9
$DIMDEC
 70
     2
  9
$DIMTDEC
 70
     2
  9
$DIMALTU
 70
     2
  9
$DIMALTTD
 70
     3
  9
$DIMTXSTY
  7
Standard
  9
$DIMAUNIT
 70
     0
  9
$DIMADEC
 70
     2
  9
$DIMALTRND
 40
0.0
  9
$DIMAZIN
 70
     0
  9
$DIMDSEP
 70
    44
  9
$DIMATFIT
 70
     3
  9
$DIMFRAC
 70
     0
  9
$DIMLDRBLK
  1

  9
$DIMLUNIT
 70
     2
  9
$DIMLWD
 70
    -2
  9
$DIMLWE
 70
    -2
  9
$DIMTMOVE
 70
     0
  9
$LUNITS
 70
     2
  9
$LUPREC
 70
     2
  9
$SKETCHINC
 40
1.0
  9
$FILLETRAD
 40
10.0
  9
$AUNITS
 70
     0
  9
$AUPREC
 70
     2
  9
$MENU
  1
.
  9
$ELEVATION
 40
0.0
  9
$PELEVATION
 40
0.0
  9
$THICKNESS
 40
0.0
  9
$LIMCHECK
 70
     0
  9
$CHAMFERA
 40
0.0
  9
$CHAMFERB
 40
0.0
  9
$CHAMFERC
 40
0.0
  9
$CHAMFERD
 40
0.0
  9
$SKPOLY
 70
     0
  9
$TDCREATE
 40
2459583.728684132
  9
$TDUCREATE
 40
2459583.437017465
  9
$TDUPDATE
 40
2459583.728689803
  9
$TDUUPDATE
 40
2459583.437023137
  9
$TDINDWG
 40
0.0000000116
  9
$TDUSRTIMER
 40
0.0000000116
  9
$USRTIMER
 70
     1
  9
$ANGBASE
 50
0.0
  9
$ANGDIR
 70
     0
  9
$PDMODE
 70
     0
  9
$PDSIZE
 40
-1.0
  9
$PLINEWID
 40
0.0
  9
$SPLFRAME
 70
     0
  9
$SPLINETYPE
 70
     6
  9
$SPLINESEGS
 70
     8
  9
$HANDSEED
  5
44B
  9
$SURFTAB1
 70
     6
  9
$SURFTAB2
 70
     6
  9
$SURFTYPE
 70
     6
  9
$SURFU
 70
     6
  9
$SURFV
 70
     6
  9
$UCSBASE
  2

  9
$UCSNAME
  2

  9
$UCSORG
 10
0.0
 20
0.0
 30
0.0
  9
$UCSXDIR
 10
1.0
 20
0.0
 30
0.0
  9
$UCSYDIR
 10
0.0
 20
1.0
 30
0.0
  9
$UCSORTHOREF
  2

  9
$UCSORTHOVIEW
 70
     0
  9
$UCSORGTOP
 10
0.0
 20
0.0
 30
0.0
  9
$UCSORGBOTTOM
 10
0.0
 20
0.0
 30
0.0
  9
$UCSORGLEFT
 10
0.0
 20
0.0
 30
0.0
  9
$UCSORGRIGHT
 10
0.0
 20
0.0
 30
0.0
  9
$UCSORGFRONT
 10
0.0
 20
0.0
 30
0.0
  9
$UCSORGBACK
 10
0.0
 20
0.0
 30
0.0
  9
$PUCSBASE
  2

  9
$PUCSNAME
  2

  9
$PUCSORG
 10
0.0
 20
0.0
 30
0.0
  9
$PUCSXDIR
 10
1.0
 20
0.0
 30
0.0
  9
$PUCSYDIR
 10
0.0
 20
1.0
 30
0.0
  9
$PUCSORTHOREF
  2

  9
$PUCSORTHOVIEW
 70
     0
  9
$PUCSORGTOP
 10
0.0
 20
0.0
 30
0.0
  9
$PUCSORGBOTTOM
 10
0.0
 20
0.0
 30
0.0
  9
$PUCSORGLEFT
 10
0.0
 20
0.0
 30
0.0
  9
$PUCSORGRIGHT
 10
0.0
 20
0.0
 30
0.0
  9
$PUCSORGFRONT
 10
0.0
 20
0.0
 30
0.0
  9
$PUCSORGBACK
 10
0.0
 20
0.0
 30
0.0
  9
$USERI1
 70
     0
  9
$USERI2
 70
     0
  9
$USERI3
 70
     0
  9
$USERI4
 70
     0
  9
$USERI5
 70
     0
  9
$USERR1
 40
0.0
  9
$USERR2
 40
0.0
  9
$USERR3
 40
0.0
  9
$USERR4
 40
0.0
  9
$USERR5
 40
0.0
  9
$WORLDVIEW
 70
     1
  9
$SHADEDGE
 70
     3
  9
$SHADEDIF
 70
    70
  9
$TILEMODE
 70
     1
  9
$MAXACTVP
 70
    64
  9
$PINSBASE
 10
0.0
 20
0.0
 30
0.0
  9
$PLIMCHECK
 70
     0
  9
$PEXTMIN
 10
1.0000000000E+20
 20
1.0000000000E+20
 30
1.0000000000E+20
  9
$PEXTMAX
 10
-1.0000000000E+20
 20
-1.0000000000E+20
 30
-1.0000000000E+20
  9
$PLIMMIN
 10
0.0
 20
0.0
  9
$PLIMMAX
 10
420.0
 20
297.0
  9
$UNITMODE
 70
     0
  9
$VISRETAIN
 70
     1
  9
$PLINEGEN
 70
     0
  9
$PSLTSCALE
 70
     1
  9
$TREEDEPTH
 70
  3020
  9
$CMLSTYLE
  2
Standard
  9
$CMLJUST
 70
     0
  9
$CMLSCALE
 40
20.0
  9
$PROXYGRAPHICS
 70
     1
  9
$MEASUREMENT
 70
     1
  9
$CELWEIGHT
370
    -1
  9
$ENDCAPS
280
     0
  9
$JOINSTYLE
280
     0
  9
$LWDISPLAY
290
     1
  9
$INSUNITS
 70
     4
  9
$HYPERLINKBASE
  1

  9
$STYLESHEET
  1

  9
$XEDIT
290
     1
  9
$CEPSNTYPE
380
     0
  9
$PSTYLEMODE
290
     1
  9
$FINGERPRINTGUID
  2
{00cd8779-851b-4aee-99a0-1af3baa49193}
  9
$VERSIONGUID
  2
{FAEB1C32-E019-11D5-929B-00C0DF256EC4}
  9
$EXTNAMES
290
     1
  9
$PSVPSCALE
 40
0.0
  9
$OLESTARTUP
290
     0
  0
ENDSEC
  0
SECTION
  2
CLASSES
  0
CLASS
  1
ACDBDICTIONARYWDFLT
  2
AcDbDictionaryWithDefault
  3
ObjectDBX Classes
 90
        0
280
     0
281
     0
  0
CLASS
  1
VISUALSTYLE
  2
AcDbVisualStyle
  3
ObjectDBX Classes
 90
     4095
280
     0
281
     0
  0
CLASS
  1
MATERIAL
  2
AcDbMaterial
  3
ObjectDBX Classes
 90
     1153
280
     0
281
     0
  0
CLASS
  1
SCALE
  2
AcDbScale
  3
ObjectDBX Classes
 90
     1153
280
     0
281
     0
  0
CLASS
  1
TABLESTYLE
  2
AcDbTableStyle
  3
ObjectDBX Classes
 90
     4095
280
     0
281
     0
  0
CLASS
  1
MLEADERSTYLE
  2
AcDbMLeaderStyle
  3
ACDB_MLEADERSTYLE_CLASS
 90
     4095
280
     0
281
     0
  0
CLASS
  1
SUN
  2
AcDbSun
  3
SCENEOE
 90
     1153
280
     0
281
     0
  0
CLASS
  1
ACDBPLACEHOLDER
  2
AcDbPlaceHolder
  3
ObjectDBX Classes
 90
        0
280
     0
281
     0
  0
CLASS
  1
LAYOUT
  2
AcDbLayout
  3
ObjectDBX Classes
 90
        0
280
     0
281
     0
  0
ENDSEC
  0
SECTION
  2
TABLES
  0
TABLE
  2
VPORT
  5
8
330
0
100
AcDbSymbolTable
 70
     1
  0
VPORT
  5
29
330
8
100
AcDbSymbolTableRecord
100
AcDbViewportTableRecord
  2
*Active
 70
     0
 10
0.0
 20
0.0
 11
1.0
 21
1.0
 12
594.5
 22
420.5
 13
0.0
 23
0.0
 14
10.0
 24
10.0
 15
10.0
 25
10.0
 16
0.0
 26
0.0
 36
1.0
 17
0.0
 27
0.0
 37
0.0
 40
841.0
 41
1.4137931034
 42
50.0
 43
0.0
 44
0.0
 50
0.0
 51
0.0
 71
     0
 72
  2000
 73
     1
 74
     3
 75
     0
 76
     0
 77
     0
 78
     0
281
     0
 65
     1
110
0.0
120
0.0
130
0.0
111
1.0
121
0.0
131
0.0
112
0.0
122
1.0
132
0.0
 79
     0
146
0.0
  0
ENDTAB
  0
TABLE
  2
LTYPE
  5
5
330
0
100
AcDbSymbolTable
 70
     6
  0
LTYPE
  5
14
330
5
100
AcDbSymbolTableRecord
100
AcDbLinetypeTableRecord
  2
ByBlock
 70
     0
  3

 72
    65
 73
     0
 40
0.0
  0
LTYPE
  5
15
330
5
100
AcDbSymbolTableRecord
100
AcDbLinetypeTableRecord
  2
ByLayer
 70
     0
  3

 72
    65
 73
     0
 40
0.0
  0
LTYPE
  5
16
330
5
100
AcDbSymbolTableRecord
100
AcDbLinetypeTableRecord
  2
Continuous
 70
     0
  3
Solid line
 72
    65
 73
     0
 40
0.0
  0
LTYPE
  5
6E
330
5
100
AcDbSymbolTableRecord
100
AcDbLinetypeTableRecord
  2
HIDDEN
 70
     0
  3
Hidden __ __ __ __ __ __ __ __ __ __ __ __ __ __
 72
    65
 73
     2
 40
1.905
 49
1.27
 74
     0
 49
-0.635
 74
     0
  0
LTYPE
  5
6F
330
5
100
AcDbSymbolTableRecord
100
AcDbLinetypeTableRecord
  2
PHANTOM
 70
     0
  3
Phantom ______  __  __  ______  __  __  ______
 72
    65
 73
     6
 40
12.7
 49
6.35
 74
     0
 49
-1.27
 74
     0
 49
1.27
 74
     0
 49
-1.27
 74
     0
 49
1.27
 74
     0
 49
-1.27
 74
     0
  0
LTYPE
  5
70
330
5
100
AcDbSymbolTableRecord
100
AcDbLinetypeTableRecord
  2
CENTER
 70
     0
  3
Center ____ _ ____ _ ____ _ ____ _ ____ _ ____
 72
    65
 73
     4
 40
10.16
 49
6.35
 74
     0
 49
-1.27
 74
     0
 49
1.27
 74
     0
 49
-1.27
 74
     0
  0
LTYPE
  5
71
330
5
100
AcDbSymbolTableRecord
100
AcDbLinetypeTableRecord
  2
CENTERX2
 70
     0
  3
Center (2x) ________  __  ________  __  _____
 72
    65
 73
     4
 40
20.32
 49
12.7
 74
     0
 49
-2.54
 74
     0
 49
2.54
 74
     0
 49
-2.54
 74
     0
  0
LTYPE
  5
72
330
5
100
AcDbSymbolTableRecord
100
AcDbLinetypeTableRecord
  2
DOT2
 70
     0
  3
Dot (.5x) ........................................
 72
    65
 73
     2
 40
0.635
 49
0.0
 74
     0
 49
-0.635
 74
     0
  0
ENDTAB
  0
TABLE
  2
LAYER
  5
2
330
0
100
AcDbSymbolTable
 70
     6
  0
LAYER
  5
10
330
2
100
AcDbSymbolTableRecord
100
AcDbLayerTableRecord
  2
0
 70
     0
 62
     7
  6
Continuous
370
    -3
390
F
  0
LAYER
  5
73
330
2
100
AcDbSymbolTableRecord
100
AcDbLayerTableRecord
  2
BORDER
 70
     0
 62
     7
  6
Continuous
370
    -3
390
F
  0
LAYER
  5
74
330
2
100
AcDbSymbolTableRecord
100
AcDbLayerTableRecord
  2
CONSTRUCTION
 70
     0
 62
  -136
  6
Continuous
290
     0
370
    -3
390
F
  0
LAYER
  5
75
330
2
100
AcDbSymbolTableRecord
100
AcDbLayerTableRecord
  2
TRIM
 70
     0
 62
     7
  6
Continuous
370
    -3
390
F
  0
LAYER
  5
76
330
2
100
AcDbSymbolTableRecord
100
AcDbLayerTableRecord
  2
TEXT
 70
     0
 62
     7
  6
Continuous
370
    -3
390
F
  0
LAYER
  5
77
330
2
100
AcDbSymbolTableRecord
100
AcDbLayerTableRecord
  2
DIMENSIONS
 70
     0
 62
     5
  6
Continuous
370
    -3
390
F
  0
ENDTAB
  0
TABLE
  2
STYLE
  5
3
330
0
100
AcDbSymbolTable
 70
     5
  0
STYLE
  5
11
330
3
100
AcDbSymbolTableRecord
100
AcDbTextStyleTableRecord
  2
Standard
 70
     0
 40
0.0
 41
1.0
 50
0.0
 71
     0
 42
3.175
  3
txt
  4

  0
STYLE
  5
156
330
3
100
AcDbSymbolTableRecord
100
AcDbTextStyleTableRecord
  2
SLDTEXTSTYLE0
 70
     0
 40
0.0
 41
0.75
 50
0.0
 71
     0
 42
3.175
  3
TXT
  4

  0
STYLE
  5
158
330
3
100
AcDbSymbolTableRecord
100
AcDbTextStyleTableRecord
  2
SLDTEXTSTYLE1
 70
     0
 40
0.0
 41
0.605
 50
0.0
 71
     0
 42
3.175
  3
TXT
  4

  0
STYLE
  5
1AC
330
3
100
AcDbSymbolTableRecord
100
AcDbTextStyleTableRecord
  2
SLDTEXTSTYLE2
 70
     0
 40
0.0
 41
0.57
 50
0.0
 71
     0
 42
3.175
  3
TXT
  4

  0
STYLE
  5
1CD
330
3
100
AcDbSymbolTableRecord
100
AcDbTextStyleTableRecord
  2
SLDTEXTSTYLE3
 70
     0
 40
0.0
 41
0.605
 50
0.0
 71
     0
 42
3.175
  3
TXT
  4
bigfont
  0
ENDTAB
  0
TABLE
  2
VIEW
  5
6
330
0
100
AcDbSymbolTable
 70
     0
  0
ENDTAB
  0
TABLE
  2
UCS
  5
7
330
0
100
AcDbSymbolTable
 70
     0
  0
ENDTAB
  0
TABLE
  2
APPID
  5
9
330
0
100
AcDbSymbolTable
 70
     1
  0
APPID
  5
12
330
9
100
AcDbSymbolTableRecord
100
AcDbRegAppTableRecord
  2
ACAD
 70
     0
  0
ENDTAB
  0
TABLE
  2
DIMSTYLE
  5
A
330
0
100
AcDbSymbolTable
 70
     6
100
AcDbDimStyleTable
  0
DIMSTYLE
105
27
330
A
100
AcDbSymbolTableRecord
100
AcDbDimStyleTableRecord
  2
ISO-25
 70
     0
 41
2.5
 42
0.625
 43
3.75
 44
1.25
 73
     0
 74
     0
 77
     1
 78
     8
140
2.5
141
2.5
143
0.0393700787
147
0.625
171
     3
172
     1
178
     0
271
     2
272
     2
274
     3
278
    44
283
     0
284
     8
340
11
  0
DIMSTYLE
105
2BB
102
{ACAD_REACTORS
330
2BA
102
}
330
A
100
AcDbSymbolTableRecord
100
AcDbDimStyleTableRecord
  2
SLDDIMSTYLE0
 70
     0
 41
3.302
 44
0.0
 45
0.000000001
 78
     4
 79
     1
140
6.35
141
0.0
147
1.5875
173
     1
178
     0
271
     2
272
     2
276
     2
284
    12
340
156
  0
DIMSTYLE
105
2C5
102
{ACAD_REACTORS
330
2C4
102
}
330
A
100
AcDbSymbolTableRecord
100
AcDbDimStyleTableRecord
  2
SLDDIMSTYLE1
 70
     0
 41
3.302
 44
0.0
 45
0.000000001
 78
     4
 79
     1
140
6.35
147
1.5875
173
     1
178
     0
271
     2
272
     2
276
     2
284
    12
340
156
  0
DIMSTYLE
105
2D1
102
{ACAD_REACTORS
330
2D0
330
2DA
330
2E3
102
}
330
A
100
AcDbSymbolTableRecord
100
AcDbDimStyleTableRecord
  2
SLDDIMSTYLE2
 70
     0
 41
3.302
 44
0.0
 45
0.000000001
 78
     4
 79
     1
140
6.35
141
0.0
147
1.5875
173
     1
178
     0
271
     2
272
     2
276
     2
284
    12
340
156
  0
DIMSTYLE
105
2ED
102
{ACAD_REACTORS
330
2EC
102
}
330
A
100
AcDbSymbolTableRecord
100
AcDbDimStyleTableRecord
  2
SLDDIMSTYLE3
 70
     0
 41
3.302
 44
0.0
 45
0.000000001
 78
     4
 79
     1
140
6.35
141
0.0
147
1.5875
173
     1
178
     0
271
     2
272
     2
276
     2
284
    12
340
156
  0
DIMSTYLE
105
2F6
330
A
100
AcDbSymbolTableRecord
100
AcDbDimStyleTableRecord
  2
SLDDIMSTYLE4
 70
     0
 41
1.016
 44
0.0
 45
0.000000001
146
1.016
147
0.0
173
     1
178
     0
271
     0
272
     0
276
     2
340
11
341
2F7
343
2F7
344
2F7
  0
ENDTAB
  0
TABLE
  2
BLOCK_RECORD
  5
1
330
0
100
AcDbSymbolTable
 70
    32
  0
BLOCK_RECORD
  5
1F
330
1
100
AcDbSymbolTableRecord
100
AcDbBlockTableRecord
  2
*Model_Space
340
22
  0
BLOCK_RECORD
  5
1B
330
1
100
AcDbSymbolTableRecord
100
AcDbBlockTableRecord
  2
*Paper_Space
340
1E
  0
BLOCK_RECORD
  5
23
330
1
100
AcDbSymbolTableRecord
100
AcDbBlockTableRecord
  2
*Paper_Space0
340
26
  0
BLOCK_RECORD
  5
1AF
330
1
100
AcDbSymbolTableRecord
100
AcDbBlockTableRecord
  2
SW_NOTE_0
340
0
102
{BLKREFS
331
1B4
102
}
  0
BLOCK_RECORD
  5
1C9
330
1
100
AcDbSymbolTableRecord
100
AcDbBlockTableRecord
  2
SW_NOTE_0_1
340
0
102
{BLKREFS
331
1D1
102
}
  0
BLOCK_RECORD
  5
2BC
330
1
100
AcDbSymbolTableRecord
100
AcDbBlockTableRecord
  2
_D
340
0
  0
BLOCK_RECORD
  5
2C6
330
1
100
AcDbSymbolTableRecord
100
AcDbBlockTableRecord
  2
_D_1
340
0
  0
BLOCK_RECORD
  5
2D2
330
1
100
AcDbSymbolTableRecord
100
AcDbBlockTableRecord
  2
_D_2
340
0
  0
BLOCK_RECORD
  5
2DB
330
1
100
AcDbSymbolTableRecord
100
AcDbBlockTableRecord
  2
_D_3
340
0
  0
BLOCK_RECORD
  5
2E4
330
1
100
AcDbSymbolTableRecord
100
AcDbBlockTableRecord
  2
_D_4
340
0
  0
BLOCK_RECORD
  5
2EE
330
1
100
AcDbSymbolTableRecord
100
AcDbBlockTableRecord
  2
_D_5
340
0
  0
BLOCK_RECORD
  5
2F7
330
1
100
AcDbSymbolTableRecord
100
AcDbBlockTableRecord
  2
_Dot
340
0
  0
BLOCK_RECORD
  5
2FD
330
1
100
AcDbSymbolTableRecord
100
AcDbBlockTableRecord
  2
SW_CENTERMARKSYMBOL_0
340
0
102
{BLKREFS
331
308
102
}
  0
BLOCK_RECORD
  5
309
330
1
100
AcDbSymbolTableRecord
100
AcDbBlockTableRecord
  2
SW_CENTERMARKSYMBOL_1
340
0
102
{BLKREFS
331
314
102
}
  0
BLOCK_RECORD
  5
315
330
1
100
AcDbSymbolTableRecord
100
AcDbBlockTableRecord
  2
SW_CENTERMARKSYMBOL_2
340
0
102
{BLKREFS
331
320
102
}
  0
BLOCK_RECORD
  5
321
330
1
100
AcDbSymbolTableRecord
100
AcDbBlockTableRecord
  2
SW_CENTERMARKSYMBOL_3
340
0
102
{BLKREFS
331
32C
102
}
  0
BLOCK_RECORD
  5
32D
330
1
100
AcDbSymbolTableRecord
100
AcDbBlockTableRecord
  2
SW_CENTERMARKSYMBOL_4
340
0
102
{BLKREFS
331
338
102
}
  0
BLOCK_RECORD
  5
339
330
1
100
AcDbSymbolTableRecord
100
AcDbBlockTableRecord
  2
SW_CENTERMARKSYMBOL_5
340
0
102
{BLKREFS
331
344
102
}
  0
BLOCK_RECORD
  5
345
330
1
100
AcDbSymbolTableRecord
100
AcDbBlockTableRecord
  2
SW_CENTERMARKSYMBOL_6
340
0
102
{BLKREFS
331
350
102
}
  0
BLOCK_RECORD
  5
351
330
1
100
AcDbSymbolTableRecord
100
AcDbBlockTableRecord
  2
SW_CENTERMARKSYMBOL_7
340
0
102
{BLKREFS
331
35C
102
}
  0
BLOCK_RECORD
  5
35D
330
1
100
AcDbSymbolTableRecord
100
AcDbBlockTableRecord
  2
SW_CENTERMARKSYMBOL_8
340
0
102
{BLKREFS
331
368
102
}
  0
BLOCK_RECORD
  5
369
330
1
100
AcDbSymbolTableRecord
100
AcDbBlockTableRecord
  2
SW_CENTERMARKSYMBOL_9
340
0
102
{BLKREFS
331
374
102
}
  0
BLOCK_RECORD
  5
375
330
1
100
AcDbSymbolTableRecord
100
AcDbBlockTableRecord
  2
SW_CENTERMARKSYMBOL_10
340
0
102
{BLKREFS
331
380
102
}
  0
BLOCK_RECORD
  5
381
330
1
100
AcDbSymbolTableRecord
100
AcDbBlockTableRecord
  2
SW_CENTERMARKSYMBOL_11
340
0
102
{BLKREFS
331
38C
102
}
  0
BLOCK_RECORD
  5
38D
330
1
100
AcDbSymbolTableRecord
100
AcDbBlockTableRecord
  2
SW_CENTERMARKSYMBOL_12
340
0
102
{BLKREFS
331
398
102
}
  0
BLOCK_RECORD
  5
399
330
1
100
AcDbSymbolTableRecord
100
AcDbBlockTableRecord
  2
SW_CENTERMARKSYMBOL_13
340
0
102
{BLKREFS
331
3A4
102
}
  0
BLOCK_RECORD
  5
3A5
330
1
100
AcDbSymbolTableRecord
100
AcDbBlockTableRecord
  2
SW_CENTERMARKSYMBOL_14
340
0
102
{BLKREFS
331
3B0
102
}
  0
BLOCK_RECORD
  5
3B1
330
1
100
AcDbSymbolTableRecord
100
AcDbBlockTableRecord
  2
SW_CENTERMARKSYMBOL_15
340
0
102
{BLKREFS
331
3BC
102
}
  0
BLOCK_RECORD
  5
3BD
330
1
100
AcDbSymbolTableRecord
100
AcDbBlockTableRecord
  2
SW_CENTERMARKSYMBOL_16
340
0
102
{BLKREFS
331
3C8
102
}
  0
BLOCK_RECORD
  5
3C9
330
1
100
AcDbSymbolTableRecord
100
AcDbBlockTableRecord
  2
SW_CENTERMARKSYMBOL_17
340
0
102
{BLKREFS
331
3D4
102
}
  0
BLOCK_RECORD
  5
3D5
330
1
100
AcDbSymbolTableRecord
100
AcDbBlockTableRecord
  2
SW_CENTERMARKSYMBOL_18
340
0
102
{BLKREFS
331
3E0
102
}
  0
BLOCK_RECORD
  5
3E1
330
1
100
AcDbSymbolTableRecord
100
AcDbBlockTableRecord
  2
SW_CENTERMARKSYMBOL_19
340
0
102
{BLKREFS
331
432
102
}
  0
BLOCK_RECORD
  5
433
330
1
100
AcDbSymbolTableRecord
100
AcDbBlockTableRecord
  2
SW_CENTERMARKSYMBOL_20
340
0
102
{BLKREFS
331
43E
102
}
  0
BLOCK_RECORD
  5
43F
330
1
100
AcDbSymbolTableRecord
100
AcDbBlockTableRecord
  2
SW_CENTERMARKSYMBOL_21
340
0
102
{BLKREFS
331
44A
102
}
  0
ENDTAB
  0
ENDSEC
  0
SECTION
  2
BLOCKS
  0
BLOCK
  5
20
330
1F
100
AcDbEntity
  8
0
100
AcDbBlockBegin
  2
*Model_Space
 70
     0
 10
0.0
 20
0.0
 30
0.0
  3
*Model_Space
  1

  0
ENDBLK
  5
21
330
1F
100
AcDbEntity
  8
0
100
AcDbBlockEnd
  0
BLOCK
  5
1C
330
1B
100
AcDbEntity
 67
     1
  8
0
100
AcDbBlockBegin
  2
*Paper_Space
 70
     0
 10
0.0
 20
0.0
 30
0.0
  3
*Paper_Space
  1

  0
ENDBLK
  5
1D
330
1B
100
AcDbEntity
 67
     1
  8
0
100
AcDbBlockEnd
  0
BLOCK
  5
24
330
23
100
AcDbEntity
  8
0
100
AcDbBlockBegin
  2
*Paper_Space0
 70
     0
 10
0.0
 20
0.0
 30
0.0
  3
*Paper_Space0
  1

  0
ENDBLK
  5
25
330
23
100
AcDbEntity
  8
0
100
AcDbBlockEnd
  0
BLOCK
  5
1B0
330
1AF
100
AcDbEntity
  8
0
100
AcDbBlockBegin
  2
SW_NOTE_0
 70
     0
 10
0.0
 20
0.0
 30
0.0
  3
SW_NOTE_0
  1

  0
MTEXT
  5
1B2
330
1AF
100
AcDbEntity
  8
BORDER
 62
     0
100
AcDbMText
 10
0.0
 20
2.3203219316
 30
0.0
 40
1.8
 41
0.0
 71
     1
 72
     1
  1
Projection Method:
  7
SLDTEXTSTYLE1
 73
     1
 44
1.0
  0
MTEXT
  5
1B3
330
1AF
100
AcDbEntity
  8
BORDER
 62
     0
100
AcDbMText
 10
5.4
 20
-0.4796779686
 30
0.0
 40
1.8
 41
0.0
 71
     1
 72
     1
  1
THIRD ANGLE
  7
SLDTEXTSTYLE1
 73
     1
 44
1.0
  0
ENDBLK
  5
1B1
330
1AF
100
AcDbEntity
  8
0
100
AcDbBlockEnd
  0
BLOCK
  5
1CA
330
1C9
100
AcDbEntity
  8
0
100
AcDbBlockBegin
  2
SW_NOTE_0_1
 70
     0
 10
0.0
 20
0.0
 30
0.0
  3
SW_NOTE_0_1
  1

  0
MTEXT
  5
1CC
330
1C9
100
AcDbEntity
  8
BORDER
 62
     0
100
AcDbMText
 10
0.0
 20
3.2226693494
 30
0.0
 40
2.5
 41
0.0
 71
     1
 72
     1
  1
NOTES:
  7
SLDTEXTSTYLE1
 73
     1
 44
1.0
  0
MTEXT
  5
1CE
330
1C9
100
AcDbEntity
  8
BORDER
 62
     0
100
AcDbMText
 10
0.0
 20
-0.2873911208
 30
0.0
 40
2.5
 41
0.0
 71
     1
 72
     1
  1
1. Làm s\U+1EA1ch ba via, làm tù c\U+1EA1nh s\U+1EAFc sau khi gia công.
  7
SLDTEXTSTYLE3
 73
     1
 44
1.0
  0
MTEXT
  5
1CF
330
1C9
100
AcDbEntity
  8
BORDER
 62
     0
100
AcDbMText
 10
0.0
 20
-3.7873912288
 30
0.0
 40
2.5
 41
0.0
 71
     1
 72
     1
  1
2. Kích th\U+01B0\U+1EDBc ch\U+01B0a rõ tuân theo b\U+1EA3n 3D
  7
SLDTEXTSTYLE3
 73
     1
 44
1.0
  0
MTEXT
  5
1D0
330
1C9
100
AcDbEntity
  8
BORDER
 62
     0
100
AcDbMText
 10
0.0
 20
-7.2873913368
 30
0.0
 40
2.5
 41
0.0
 71
     1
 72
     1
  1
3. Dung sai ch\U+01B0a rõ tuân theo ISO 2768-m
  7
SLDTEXTSTYLE3
 73
     1
 44
1.0
  0
ENDBLK
  5
1CB
330
1C9
100
AcDbEntity
  8
0
100
AcDbBlockEnd
  0
BLOCK
  5
2BD
330
2BC
100
AcDbEntity
  8
0
100
AcDbBlockBegin
  2
_D
 70
     0
 10
0.0
 20
0.0
 30
0.0
  3
_D
  1

  0
SOLID
  5
2BF
330
2BC
100
AcDbEntity
  8
BORDER
100
AcDbTrace
 10
818.6392487626
 20
593.1583066509
 30
0.0
 11
821.7343788723
 21
594.4158588781
 31
0.0
 12
821.2132588914
 22
595.2880342994
 32
0.0
 13
821.2132588914
 23
595.2880342994
 33
0.0
  0
LINE
  5
2C0
330
2BC
100
AcDbEntity
  8
BORDER
100
AcDbLine
 10
818.6392487626
 20
593.1583066509
 30
0.0
 11
855.7447962105
 21
615.3286656216
 31
0.0
  0
LINE
  5
2C1
330
2BC
100
AcDbEntity
  8
BORDER
100
AcDbLine
 10
855.7447962105
 20
615.3286656216
 30
0.0
 11
862.0947962105
 21
615.3286656216
 31
0.0
  0
MTEXT
  5
2C2
330
2BC
100
AcDbEntity
  8
BORDER
100
AcDbMText
 10
862.0947962105
 20
618.3460513523
 30
0.0
 40
6.35
 41
0.0
 71
     1
 72
     1
  1
%%c
  7
SLDTEXTSTYLE0
 73
     1
 44
1.0
  0
MTEXT
  5
2C3
330
2BC
100
AcDbEntity
  8
BORDER
100
AcDbMText
 10
871.6797688454
 20
618.3460513523
 30
0.0
 40
6.35
 41
0.0
 71
     1
 72
     1
  1
500.00
  7
SLDTEXTSTYLE0
 73
     1
 44
1.0
  0
ENDBLK
  5
2BE
330
2BC
100
AcDbEntity
  8
0
100
AcDbBlockEnd
  0
BLOCK
  5
2C7
330
2C6
100
AcDbEntity
  8
0
100
AcDbBlockBegin
  2
_D_1
 70
     0
 10
0.0
 20
0.0
 30
0.0
  3
_D_1
  1

  0
SOLID
  5
2C9
330
2C6
100
AcDbEntity
  8
BORDER
100
AcDbTrace
 10
885.2153315748
 20
484.9299649032
 30
0.0
 11
884.7073315748
 21
481.6279649032
 31
0.0
 12
885.7233315748
 22
481.6279649032
 32
0.0
 13
885.7233315748
 23
481.6279649032
 33
0.0
  0
SOLID
  5
2CA
330
2C6
100
AcDbEntity
  8
BORDER
100
AcDbTrace
 10
885.2153315748
 20
444.9299649032
 30
0.0
 11
885.7233315748
 21
448.2319649032
 31
0.0
 12
884.7073315748
 22
448.2319649032
 32
0.0
 13
884.7073315748
 23
448.2319649032
 33
0.0
  0
LINE
  5
2CB
330
2C6
100
AcDbEntity
  8
BORDER
100
AcDbLine
 10
812.2991549351
 20
484.9299649032
 30
0.0
 11
888.3903315748
 21
484.9299649032
 31
0.0
  0
LINE
  5
2CC
330
2C6
100
AcDbEntity
  8
BORDER
100
AcDbLine
 10
812.2991549351
 20
444.9299649032
 30
0.0
 11
888.3903315748
 21
444.9299649032
 31
0.0
  0
LINE
  5
2CD
330
2C6
100
AcDbEntity
  8
BORDER
100
AcDbLine
 10
885.2153315748
 20
484.9299649032
 30
0.0
 11
885.2153315748
 21
470.3029908876
 31
0.0
  0
LINE
  5
2CE
330
2C6
100
AcDbEntity
  8
BORDER
100
AcDbLine
 10
885.2153315748
 20
444.9299649032
 30
0.0
 11
885.2153315748
 21
460.213546891
 31
0.0
  0
MTEXT
  5
2CF
330
2C6
100
AcDbEntity
  8
BORDER
100
AcDbMText
 10
874.6613960321
 20
468.3991261072
 30
0.0
 40
6.35
 41
0.0
 71
     1
 72
     1
  1
40.00
  7
SLDTEXTSTYLE0
 73
     1
 44
1.0
  0
ENDBLK
  5
2C8
330
2C6
100
AcDbEntity
  8
0
100
AcDbBlockEnd
  0
BLOCK
  5
2D3
330
2D2
100
AcDbEntity
  8
0
100
AcDbBlockBegin
  2
_D_2
 70
     0
 10
0.0
 20
0.0
 30
0.0
  3
_D_2
  1

  0
SOLID
  5
2D5
330
2D2
100
AcDbEntity
  8
BORDER
100
AcDbTrace
 10
847.3791549351
 20
466.4022080896
 30
0.0
 11
849.4700958402
 21
469.0078239729
 31
0.0
 12
848.59021403
 22
469.5158239729
 32
0.0
 13
848.59021403
 23
469.5158239729
 33
0.0
  0
LINE
  5
2D6
330
2D2
100
AcDbEntity
  8
BORDER
100
AcDbLine
 10
847.3791549351
 20
466.4022080896
 30
0.0
 11
865.8648824091
 21
498.4204272895
 31
0.0
  0
LINE
  5
2D7
330
2D2
100
AcDbEntity
  8
BORDER
100
AcDbLine
 10
865.8648824091
 20
498.4204272895
 30
0.0
 11
872.2148824091
 21
498.4204272895
 31
0.0
  0
MTEXT
  5
2D8
330
2D2
100
AcDbEntity
  8
BORDER
100
AcDbMText
 10
872.2148824091
 20
501.4378130201
 30
0.0
 40
6.35
 41
0.0
 71
     1
 72
     1
  1
%%c
  7
SLDTEXTSTYLE0
 73
     1
 44
1.0
  0
MTEXT
  5
2D9
330
2D2
100
AcDbEntity
  8
BORDER
100
AcDbMText
 10
881.799855044
 20
501.4378130201
 30
0.0
 40
6.35
 41
0.0
 71
     1
 72
     1
  1
3.40
  7
SLDTEXTSTYLE0
 73
     1
 44
1.0
  0
ENDBLK
  5
2D4
330
2D2
100
AcDbEntity
  8
0
100
AcDbBlockEnd
  0
BLOCK
  5
2DC
330
2DB
100
AcDbEntity
  8
0
100
AcDbBlockBegin
  2
_D_3
 70
     0
 10
0.0
 20
0.0
 30
0.0
  3
_D_3
  1

  0
SOLID
  5
2DE
330
2DB
100
AcDbEntity
  8
BORDER
100
AcDbTrace
 10
660.5622942267
 20
485.0298196747
 30
0.0
 11
663.8436800961
 21
485.6573344363
 31
0.0
 12
663.5033225553
 22
486.6146289283
 32
0.0
 13
663.5033225553
 23
486.6146289283
 33
0.0
  0
LINE
  5
2DF
330
2DB
100
AcDbEntity
  8
BORDER
100
AcDbLine
 10
660.5622942267
 20
485.0298196747
 30
0.0
 11
861.1729388828
 21
556.3551498037
 31
0.0
  0
LINE
  5
2E0
330
2DB
100
AcDbEntity
  8
BORDER
100
AcDbLine
 10
861.1729388828
 20
556.3551498037
 30
0.0
 11
867.5229388828
 21
556.3551498037
 31
0.0
  0
MTEXT
  5
2E1
330
2DB
100
AcDbEntity
  8
BORDER
100
AcDbMText
 10
867.5229388828
 20
559.3725355343
 30
0.0
 40
6.35
 41
0.0
 71
     1
 72
     1
  1
%%c
  7
SLDTEXTSTYLE0
 73
     1
 44
1.0
  0
MTEXT
  5
2E2
330
2DB
100
AcDbEntity
  8
BORDER
100
AcDbMText
 10
877.1079115177
 20
559.3725355343
 30
0.0
 40
6.35
 41
0.0
 71
     1
 72
     1
  1
120.00
  7
SLDTEXTSTYLE0
 73
     1
 44
1.0
  0
ENDBLK
  5
2DD
330
2DB
100
AcDbEntity
  8
0
100
AcDbBlockEnd
  0
BLOCK
  5
2E5
330
2E4
100
AcDbEntity
  8
0
100
AcDbBlockBegin
  2
_D_4
 70
     0
 10
0.0
 20
0.0
 30
0.0
  3
_D_4
  1

  0
SOLID
  5
2E7
330
2E4
100
AcDbEntity
  8
BORDER
100
AcDbTrace
 10
784.6802638504
 20
520.3911919996
 30
0.0
 11
788.0153843065
 21
520.5867413376
 31
0.0
 12
787.8023812474
 22
521.5801625457
 32
0.0
 13
787.8023812474
 23
521.5801625457
 33
0.0
  0
LINE
  5
2E8
330
2E4
100
AcDbEntity
  8
BORDER
100
AcDbLine
 10
784.6802638504
 20
520.3911919996
 30
0.0
 11
865.8648824091
 21
537.7982817224
 31
0.0
  0
LINE
  5
2E9
330
2E4
100
AcDbEntity
  8
BORDER
100
AcDbLine
 10
865.8648824091
 20
537.7982817224
 30
0.0
 11
872.2148824091
 21
537.7982817224
 31
0.0
  0
MTEXT
  5
2EA
330
2E4
100
AcDbEntity
  8
BORDER
100
AcDbMText
 10
872.2148824091
 20
540.8156674531
 30
0.0
 40
6.35
 41
0.0
 71
     1
 72
     1
  1
%%c
  7
SLDTEXTSTYLE0
 73
     1
 44
1.0
  0
MTEXT
  5
2EB
330
2E4
100
AcDbEntity
  8
BORDER
100
AcDbMText
 10
881.799855044
 20
540.8156674531
 30
0.0
 40
6.35
 41
0.0
 71
     1
 72
     1
  1
4.40
  7
SLDTEXTSTYLE0
 73
     1
 44
1.0
  0
ENDBLK
  5
2E6
330
2E4
100
AcDbEntity
  8
0
100
AcDbBlockEnd
  0
BLOCK
  5
2EF
330
2EE
100
AcDbEntity
  8
0
100
AcDbBlockBegin
  2
_D_5
 70
     0
 10
0.0
 20
0.0
 30
0.0
  3
_D_5
  1

  0
SOLID
  5
2F1
330
2EE
100
AcDbEntity
  8
BORDER
100
AcDbTrace
 10
807.3690932678
 20
550.8101288647
 30
0.0
 11
810.6385331346
 21
551.4971739559
 31
0.0
 12
810.2808345006
 22
552.4481248943
 32
0.0
 13
810.2808345006
 23
552.4481248943
 33
0.0
  0
LINE
  5
2F2
330
2EE
100
AcDbEntity
  8
BORDER
100
AcDbLine
 10
807.3690932678
 20
550.8101288647
 30
0.0
 11
868.0879698838
 21
573.6494345997
 31
0.0
  0
LINE
  5
2F3
330
2EE
100
AcDbEntity
  8
BORDER
100
AcDbLine
 10
868.0879698838
 20
573.6494345997
 30
0.0
 11
874.4379698838
 21
573.6494345997
 31
0.0
  0
MTEXT
  5
2F4
330
2EE
100
AcDbEntity
  8
BORDER
100
AcDbMText
 10
874.4379698838
 20
576.7902918176
 30
0.0
 40
6.35
 41
0.0
 71
     1
 72
     1
  1
R2.50
  7
SLDTEXTSTYLE0
 73
     1
 44
1.0
  0
ENDBLK
  5
2F0
330
2EE
100
AcDbEntity
  8
0
100
AcDbBlockEnd
  0
BLOCK
  5
2F8
330
2F7
100
AcDbEntity
  8
0
100
AcDbBlockBegin
  2
_Dot
 70
     0
 10
0.0
 20
0.0
 30
0.0
  3
_Dot
  1

  0
LWPOLYLINE
  5
2FA
330
2F7
100
AcDbEntity
  8
0
  6
ByBlock
 62
     0
100
AcDbPolyline
 90
        2
 70
     1
 43
0.5
 10
-0.25
 20
0.0
 42
1.0
 10
0.25
 20
0.0
 42
1.0
  0
LINE
  5
2FB
330
2F7
100
AcDbEntity
  8
0
  6
ByBlock
 62
     0
370
    -2
100
AcDbLine
 10
-0.5
 20
0.0
 30
0.0
 11
-1.0
 21
0.0
 31
0.0
  0
ENDBLK
  5
2F9
330
2F7
100
AcDbEntity
  8
0
100
AcDbBlockEnd
  0
BLOCK
  5
2FE
330
2FD
100
AcDbEntity
  8
0
100
AcDbBlockBegin
  2
SW_CENTERMARKSYMBOL_0
 70
     0
 10
0.0
 20
0.0
 30
0.0
  3
SW_CENTERMARKSYMBOL_0
  1

  0
LINE
  5
300
330
2FD
100
AcDbEntity
  8
BORDER
 62
     0
100
AcDbLine
 10
0.0
 20
0.0
 30
0.0
 11
0.0
 21
2.54
 31
0.0
  0
LINE
  5
301
330
2FD
100
AcDbEntity
  8
BORDER
 62
     0
100
AcDbLine
 10
0.0
 20
0.0
 30
0.0
 11
-2.54
 21
0.0
 31
0.0
  0
LINE
  5
302
330
2FD
100
AcDbEntity
  8
BORDER
 62
     0
100
AcDbLine
 10
0.0
 20
0.0
 30
0.0
 11
0.0
 21
-2.54
 31
0.0
  0
LINE
  5
303
330
2FD
100
AcDbEntity
  8
BORDER
 62
     0
100
AcDbLine
 10
0.0
 20
0.0
 30
0.0
 11
2.54
 21
0.0
 31
0.0
  0
LINE
  5
304
330
2FD
100
AcDbEntity
  8
BORDER
 62
     0
100
AcDbLine
 10
0.0
 20
2.54
 30
0.0
 11
0.0
 21
5.04
 31
0.0
  0
LINE
  5
305
330
2FD
100
AcDbEntity
  8
BORDER
 62
     0
100
AcDbLine
 10
-2.54
 20
0.0
 30
0.0
 11
-5.04
 21
0.0
 31
0.0
  0
LINE
  5
306
330
2FD
100
AcDbEntity
  8
BORDER
 62
     0
100
AcDbLine
 10
0.0
 20
-2.54
 30
0.0
 11
0.0
 21
-5.04
 31
0.0
  0
LINE
  5
307
330
2FD
100
AcDbEntity
  8
BORDER
 62
     0
100
AcDbLine
 10
2.54
 20
0.0
 30
0.0
 11
5.04
 21
0.0
 31
0.0
  0
ENDBLK
  5
2FF
330
2FD
100
AcDbEntity
  8
0
100
AcDbBlockEnd
  0
BLOCK
  5
30A
330
309
100
AcDbEntity
  8
0
100
AcDbBlockBegin
  2
SW_CENTERMARKSYMBOL_1
 70
     0
 10
0.0
 20
0.0
 30
0.0
  3
SW_CENTERMARKSYMBOL_1
  1

  0
LINE
  5
30C
330
309
100
AcDbEntity
  8
BORDER
 62
     0
100
AcDbLine
 10
0.0
 20
0.0
 30
0.0
 11
0.0
 21
2.54
 31
0.0
  0
LINE
  5
30D
330
309
100
AcDbEntity
  8
BORDER
 62
     0
100
AcDbLine
 10
0.0
 20
0.0
 30
0.0
 11
-2.54
 21
0.0
 31
0.0
  0
LINE
  5
30E
330
309
100
AcDbEntity
  8
BORDER
 62
     0
100
AcDbLine
 10
0.0
 20
0.0
 30
0.0
 11
0.0
 21
-2.54
 31
0.0
  0
LINE
  5
30F
330
309
100
AcDbEntity
  8
BORDER
 62
     0
100
AcDbLine
 10
0.0
 20
0.0
 30
0.0
 11
2.54
 21
0.0
 31
0.0
  0
LINE
  5
310
330
309
100
AcDbEntity
  8
BORDER
 62
     0
100
AcDbLine
 10
0.0
 20
2.54
 30
0.0
 11
0.0
 21
5.04
 31
0.0
  0
LINE
  5
311
330
309
100
AcDbEntity
  8
BORDER
 62
     0
100
AcDbLine
 10
-2.54
 20
0.0
 30
0.0
 11
-5.04
 21
0.0
 31
0.0
  0
LINE
  5
312
330
309
100
AcDbEntity
  8
BORDER
 62
     0
100
AcDbLine
 10
0.0
 20
-2.54
 30
0.0
 11
0.0
 21
-5.04
 31
0.0
  0
LINE
  5
313
330
309
100
AcDbEntity
  8
BORDER
 62
     0
100
AcDbLine
 10
2.54
 20
0.0
 30
0.0
 11
5.04
 21
0.0
 31
0.0
  0
ENDBLK
  5
30B
330
309
100
AcDbEntity
  8
0
100
AcDbBlockEnd
  0
BLOCK
  5
316
330
315
100
AcDbEntity
  8
0
100
AcDbBlockBegin
  2
SW_CENTERMARKSYMBOL_2
 70
     0
 10
0.0
 20
0.0
 30
0.0
  3
SW_CENTERMARKSYMBOL_2
  1

  0
LINE
  5
318
330
315
100
AcDbEntity
  8
BORDER
 62
     0
100
AcDbLine
 10
0.0
 20
0.0
 30
0.0
 11
0.0
 21
2.54
 31
0.0
  0
LINE
  5
319
330
315
100
AcDbEntity
  8
BORDER
 62
     0
100
AcDbLine
 10
0.0
 20
0.0
 30
0.0
 11
-2.54
 21
0.0
 31
0.0
  0
LINE
  5
31A
330
315
100
AcDbEntity
  8
BORDER
 62
     0
100
AcDbLine
 10
0.0
 20
0.0
 30
0.0
 11
0.0
 21
-2.54
 31
0.0
  0
LINE
  5
31B
330
315
100
AcDbEntity
  8
BORDER
 62
     0
100
AcDbLine
 10
0.0
 20
0.0
 30
0.0
 11
2.54
 21
0.0
 31
0.0
  0
LINE
  5
31C
330
315
100
AcDbEntity
  8
BORDER
 62
     0
100
AcDbLine
 10
0.0
 20
2.54
 30
0.0
 11
0.0
 21
5.04
 31
0.0
  0
LINE
  5
31D
330
315
100
AcDbEntity
  8
BORDER
 62
     0
100
AcDbLine
 10
-2.54
 20
0.0
 30
0.0
 11
-5.04
 21
0.0
 31
0.0
  0
LINE
  5
31E
330
315
100
AcDbEntity
  8
BORDER
 62
     0
100
AcDbLine
 10
0.0
 20
-2.54
 30
0.0
 11
0.0
 21
-5.04
 31
0.0
  0
LINE
  5
31F
330
315
100
AcDbEntity
  8
BORDER
 62
     0
100
AcDbLine
 10
2.54
 20
0.0
 30
0.0
 11
5.04
 21
0.0
 31
0.0
  0
ENDBLK
  5
317
330
315
100
AcDbEntity
  8
0
100
AcDbBlockEnd
  0
BLOCK
  5
322
330
321
100
AcDbEntity
  8
0
100
AcDbBlockBegin
  2
SW_CENTERMARKSYMBOL_3
 70
     0
 10
0.0
 20
0.0
 30
0.0
  3
SW_CENTERMARKSYMBOL_3
  1

  0
LINE
  5
324
330
321
100
AcDbEntity
  8
BORDER
 62
     0
100
AcDbLine
 10
0.0
 20
0.0
 30
0.0
 11
0.0
 21
2.54
 31
0.0
  0
LINE
  5
325
330
321
100
AcDbEntity
  8
BORDER
 62
     0
100
AcDbLine
 10
0.0
 20
0.0
 30
0.0
 11
-2.54
 21
0.0
 31
0.0
  0
LINE
  5
326
330
321
100
AcDbEntity
  8
BORDER
 62
     0
100
AcDbLine
 10
0.0
 20
0.0
 30
0.0
 11
0.0
 21
-2.54
 31
0.0
  0
LINE
  5
327
330
321
100
AcDbEntity
  8
BORDER
 62
     0
100
AcDbLine
 10
0.0
 20
0.0
 30
0.0
 11
2.54
 21
0.0
 31
0.0
  0
LINE
  5
328
330
321
100
AcDbEntity
  8
BORDER
 62
     0
100
AcDbLine
 10
0.0
 20
2.54
 30
0.0
 11
0.0
 21
5.04
 31
0.0
  0
LINE
  5
329
330
321
100
AcDbEntity
  8
BORDER
 62
     0
100
AcDbLine
 10
-2.54
 20
0.0
 30
0.0
 11
-5.04
 21
0.0
 31
0.0
  0
LINE
  5
32A
330
321
100
AcDbEntity
  8
BORDER
 62
     0
100
AcDbLine
 10
0.0
 20
-2.54
 30
0.0
 11
0.0
 21
-5.04
 31
0.0
  0
LINE
  5
32B
330
321
100
AcDbEntity
  8
BORDER
 62
     0
100
AcDbLine
 10
2.54
 20
0.0
 30
0.0
 11
5.04
 21
0.0
 31
0.0
  0
ENDBLK
  5
323
330
321
100
AcDbEntity
  8
0
100
AcDbBlockEnd
  0
BLOCK
  5
32E
330
32D
100
AcDbEntity
  8
0
100
AcDbBlockBegin
  2
SW_CENTERMARKSYMBOL_4
 70
     0
 10
0.0
 20
0.0
 30
0.0
  3
SW_CENTERMARKSYMBOL_4
  1

  0
LINE
  5
330
330
32D
100
AcDbEntity
  8
BORDER
 62
     0
100
AcDbLine
 10
0.0
 20
0.0
 30
0.0
 11
0.0
 21
2.54
 31
0.0
  0
LINE
  5
331
330
32D
100
AcDbEntity
  8
BORDER
 62
     0
100
AcDbLine
 10
0.0
 20
0.0
 30
0.0
 11
-2.54
 21
0.0
 31
0.0
  0
LINE
  5
332
330
32D
100
AcDbEntity
  8
BORDER
 62
     0
100
AcDbLine
 10
0.0
 20
0.0
 30
0.0
 11
0.0
 21
-2.54
 31
0.0
  0
LINE
  5
333
330
32D
100
AcDbEntity
  8
BORDER
 62
     0
100
AcDbLine
 10
0.0
 20
0.0
 30
0.0
 11
2.54
 21
0.0
 31
0.0
  0
LINE
  5
334
330
32D
100
AcDbEntity
  8
BORDER
 62
     0
100
AcDbLine
 10
0.0
 20
2.54
 30
0.0
 11
0.0
 21
5.04
 31
0.0
  0
LINE
  5
335
330
32D
100
AcDbEntity
  8
BORDER
 62
     0
100
AcDbLine
 10
-2.54
 20
0.0
 30
0.0
 11
-5.04
 21
0.0
 31
0.0
  0
LINE
  5
336
330
32D
100
AcDbEntity
  8
BORDER
 62
     0
100
AcDbLine
 10
0.0
 20
-2.54
 30
0.0
 11
0.0
 21
-5.04
 31
0.0
  0
LINE
  5
337
330
32D
100
AcDbEntity
  8
BORDER
 62
     0
100
AcDbLine
 10
2.54
 20
0.0
 30
0.0
 11
5.04
 21
0.0
 31
0.0
  0
ENDBLK
  5
32F
330
32D
100
AcDbEntity
  8
0
100
AcDbBlockEnd
  0
BLOCK
  5
33A
330
339
100
AcDbEntity
  8
0
100
AcDbBlockBegin
  2
SW_CENTERMARKSYMBOL_5
 70
     0
 10
0.0
 20
0.0
 30
0.0
  3
SW_CENTERMARKSYMBOL_5
  1

  0
LINE
  5
33C
330
339
100
AcDbEntity
  8
BORDER
 62
     0
100
AcDbLine
 10
0.0
 20
0.0
 30
0.0
 11
0.0
 21
2.54
 31
0.0
  0
LINE
  5
33D
330
339
100
AcDbEntity
  8
BORDER
 62
     0
100
AcDbLine
 10
0.0
 20
0.0
 30
0.0
 11
-2.54
 21
0.0
 31
0.0
  0
LINE
  5
33E
330
339
100
AcDbEntity
  8
BORDER
 62
     0
100
AcDbLine
 10
0.0
 20
0.0
 30
0.0
 11
0.0
 21
-2.54
 31
0.0
  0
LINE
  5
33F
330
339
100
AcDbEntity
  8
BORDER
 62
     0
100
AcDbLine
 10
0.0
 20
0.0
 30
0.0
 11
2.54
 21
0.0
 31
0.0
  0
LINE
  5
340
330
339
100
AcDbEntity
  8
BORDER
 62
     0
100
AcDbLine
 10
0.0
 20
2.54
 30
0.0
 11
0.0
 21
5.04
 31
0.0
  0
LINE
  5
341
330
339
100
AcDbEntity
  8
BORDER
 62
     0
100
AcDbLine
 10
-2.54
 20
0.0
 30
0.0
 11
-5.04
 21
0.0
 31
0.0
  0
LINE
  5
342
330
339
100
AcDbEntity
  8
BORDER
 62
     0
100
AcDbLine
 10
0.0
 20
-2.54
 30
0.0
 11
0.0
 21
-5.04
 31
0.0
  0
LINE
  5
343
330
339
100
AcDbEntity
  8
BORDER
 62
     0
100
AcDbLine
 10
2.54
 20
0.0
 30
0.0
 11
5.04
 21
0.0
 31
0.0
  0
ENDBLK
  5
33B
330
339
100
AcDbEntity
  8
0
100
AcDbBlockEnd
  0
BLOCK
  5
346
330
345
100
AcDbEntity
  8
0
100
AcDbBlockBegin
  2
SW_CENTERMARKSYMBOL_6
 70
     0
 10
0.0
 20
0.0
 30
0.0
  3
SW_CENTERMARKSYMBOL_6
  1

  0
LINE
  5
348
330
345
100
AcDbEntity
  8
BORDER
 62
     0
100
AcDbLine
 10
0.0
 20
0.0
 30
0.0
 11
0.0
 21
2.54
 31
0.0
  0
LINE
  5
349
330
345
100
AcDbEntity
  8
BORDER
 62
     0
100
AcDbLine
 10
0.0
 20
0.0
 30
0.0
 11
-2.54
 21
0.0
 31
0.0
  0
LINE
  5
34A
330
345
100
AcDbEntity
  8
BORDER
 62
     0
100
AcDbLine
 10
0.0
 20
0.0
 30
0.0
 11
0.0
 21
-2.54
 31
0.0
  0
LINE
  5
34B
330
345
100
AcDbEntity
  8
BORDER
 62
     0
100
AcDbLine
 10
0.0
 20
0.0
 30
0.0
 11
2.54
 21
0.0
 31
0.0
  0
LINE
  5
34C
330
345
100
AcDbEntity
  8
BORDER
 62
     0
100
AcDbLine
 10
0.0
 20
2.54
 30
0.0
 11
0.0
 21
5.04
 31
0.0
  0
LINE
  5
34D
330
345
100
AcDbEntity
  8
BORDER
 62
     0
100
AcDbLine
 10
-2.54
 20
0.0
 30
0.0
 11
-5.04
 21
0.0
 31
0.0
  0
LINE
  5
34E
330
345
100
AcDbEntity
  8
BORDER
 62
     0
100
AcDbLine
 10
0.0
 20
-2.54
 30
0.0
 11
0.0
 21
-5.04
 31
0.0
  0
LINE
  5
34F
330
345
100
AcDbEntity
  8
BORDER
 62
     0
100
AcDbLine
 10
2.54
 20
0.0
 30
0.0
 11
5.04
 21
0.0
 31
0.0
  0
ENDBLK
  5
347
330
345
100
AcDbEntity
  8
0
100
AcDbBlockEnd
  0
BLOCK
  5
352
330
351
100
AcDbEntity
  8
0
100
AcDbBlockBegin
  2
SW_CENTERMARKSYMBOL_7
 70
     0
 10
0.0
 20
0.0
 30
0.0
  3
SW_CENTERMARKSYMBOL_7
  1

  0
LINE
  5
354
330
351
100
AcDbEntity
  8
BORDER
 62
     0
100
AcDbLine
 10
0.0
 20
0.0
 30
0.0
 11
0.0
 21
2.54
 31
0.0
  0
LINE
  5
355
330
351
100
AcDbEntity
  8
BORDER
 62
     0
100
AcDbLine
 10
0.0
 20
0.0
 30
0.0
 11
-2.54
 21
0.0
 31
0.0
  0
LINE
  5
356
330
351
100
AcDbEntity
  8
BORDER
 62
     0
100
AcDbLine
 10
0.0
 20
0.0
 30
0.0
 11
0.0
 21
-2.54
 31
0.0
  0
LINE
  5
357
330
351
100
AcDbEntity
  8
BORDER
 62
     0
100
AcDbLine
 10
0.0
 20
0.0
 30
0.0
 11
2.54
 21
0.0
 31
0.0
  0
LINE
  5
358
330
351
100
AcDbEntity
  8
BORDER
 62
     0
100
AcDbLine
 10
0.0
 20
2.54
 30
0.0
 11
0.0
 21
5.04
 31
0.0
  0
LINE
  5
359
330
351
100
AcDbEntity
  8
BORDER
 62
     0
100
AcDbLine
 10
-2.54
 20
0.0
 30
0.0
 11
-5.04
 21
0.0
 31
0.0
  0
LINE
  5
35A
330
351
100
AcDbEntity
  8
BORDER
 62
     0
100
AcDbLine
 10
0.0
 20
-2.54
 30
0.0
 11
0.0
 21
-5.04
 31
0.0
  0
LINE
  5
35B
330
351
100
AcDbEntity
  8
BORDER
 62
     0
100
AcDbLine
 10
2.54
 20
0.0
 30
0.0
 11
5.04
 21
0.0
 31
0.0
  0
ENDBLK
  5
353
330
351
100
AcDbEntity
  8
0
100
AcDbBlockEnd
  0
BLOCK
  5
35E
330
35D
100
AcDbEntity
  8
0
100
AcDbBlockBegin
  2
SW_CENTERMARKSYMBOL_8
 70
     0
 10
0.0
 20
0.0
 30
0.0
  3
SW_CENTERMARKSYMBOL_8
  1

  0
LINE
  5
360
330
35D
100
AcDbEntity
  8
BORDER
 62
     0
100
AcDbLine
 10
0.0
 20
0.0
 30
0.0
 11
0.0
 21
2.54
 31
0.0
  0
LINE
  5
361
330
35D
100
AcDbEntity
  8
BORDER
 62
     0
100
AcDbLine
 10
0.0
 20
0.0
 30
0.0
 11
-2.54
 21
0.0
 31
0.0
  0
LINE
  5
362
330
35D
100
AcDbEntity
  8
BORDER
 62
     0
100
AcDbLine
 10
0.0
 20
0.0
 30
0.0
 11
0.0
 21
-2.54
 31
0.0
  0
LINE
  5
363
330
35D
100
AcDbEntity
  8
BORDER
 62
     0
100
AcDbLine
 10
0.0
 20
0.0
 30
0.0
 11
2.54
 21
0.0
 31
0.0
  0
LINE
  5
364
330
35D
100
AcDbEntity
  8
BORDER
 62
     0
100
AcDbLine
 10
0.0
 20
2.54
 30
0.0
 11
0.0
 21
5.04
 31
0.0
  0
LINE
  5
365
330
35D
100
AcDbEntity
  8
BORDER
 62
     0
100
AcDbLine
 10
-2.54
 20
0.0
 30
0.0
 11
-5.04
 21
0.0
 31
0.0
  0
LINE
  5
366
330
35D
100
AcDbEntity
  8
BORDER
 62
     0
100
AcDbLine
 10
0.0
 20
-2.54
 30
0.0
 11
0.0
 21
-5.04
 31
0.0
  0
LINE
  5
367
330
35D
100
AcDbEntity
  8
BORDER
 62
     0
100
AcDbLine
 10
2.54
 20
0.0
 30
0.0
 11
5.04
 21
0.0
 31
0.0
  0
ENDBLK
  5
35F
330
35D
100
AcDbEntity
  8
0
100
AcDbBlockEnd
  0
BLOCK
  5
36A
330
369
100
AcDbEntity
  8
0
100
AcDbBlockBegin
  2
SW_CENTERMARKSYMBOL_9
 70
     0
 10
0.0
 20
0.0
 30
0.0
  3
SW_CENTERMARKSYMBOL_9
  1

  0
LINE
  5
36C
330
369
100
AcDbEntity
  8
BORDER
 62
     0
100
AcDbLine
 10
0.0
 20
0.0
 30
0.0
 11
0.0
 21
2.54
 31
0.0
  0
LINE
  5
36D
330
369
100
AcDbEntity
  8
BORDER
 62
     0
100
AcDbLine
 10
0.0
 20
0.0
 30
0.0
 11
-2.54
 21
0.0
 31
0.0
  0
LINE
  5
36E
330
369
100
AcDbEntity
  8
BORDER
 62
     0
100
AcDbLine
 10
0.0
 20
0.0
 30
0.0
 11
0.0
 21
-2.54
 31
0.0
  0
LINE
  5
36F
330
369
100
AcDbEntity
  8
BORDER
 62
     0
100
AcDbLine
 10
0.0
 20
0.0
 30
0.0
 11
2.54
 21
0.0
 31
0.0
  0
LINE
  5
370
330
369
100
AcDbEntity
  8
BORDER
 62
     0
100
AcDbLine
 10
0.0
 20
2.54
 30
0.0
 11
0.0
 21
5.04
 31
0.0
  0
LINE
  5
371
330
369
100
AcDbEntity
  8
BORDER
 62
     0
100
AcDbLine
 10
-2.54
 20
0.0
 30
0.0
 11
-5.04
 21
0.0
 31
0.0
  0
LINE
  5
372
330
369
100
AcDbEntity
  8
BORDER
 62
     0
100
AcDbLine
 10
0.0
 20
-2.54
 30
0.0
 11
0.0
 21
-5.04
 31
0.0
  0
LINE
  5
373
330
369
100
AcDbEntity
  8
BORDER
 62
     0
100
AcDbLine
 10
2.54
 20
0.0
 30
0.0
 11
5.04
 21
0.0
 31
0.0
  0
ENDBLK
  5
36B
330
369
100
AcDbEntity
  8
0
100
AcDbBlockEnd
  0
BLOCK
  5
376
330
375
100
AcDbEntity
  8
0
100
AcDbBlockBegin
  2
SW_CENTERMARKSYMBOL_10
 70
     0
 10
0.0
 20
0.0
 30
0.0
  3
SW_CENTERMARKSYMBOL_10
  1

  0
LINE
  5
378
330
375
100
AcDbEntity
  8
BORDER
 62
     0
100
AcDbLine
 10
0.0
 20
0.0
 30
0.0
 11
0.0
 21
2.54
 31
0.0
  0
LINE
  5
379
330
375
100
AcDbEntity
  8
BORDER
 62
     0
100
AcDbLine
 10
0.0
 20
0.0
 30
0.0
 11
-2.54
 21
0.0
 31
0.0
  0
LINE
  5
37A
330
375
100
AcDbEntity
  8
BORDER
 62
     0
100
AcDbLine
 10
0.0
 20
0.0
 30
0.0
 11
0.0
 21
-2.54
 31
0.0
  0
LINE
  5
37B
330
375
100
AcDbEntity
  8
BORDER
 62
     0
100
AcDbLine
 10
0.0
 20
0.0
 30
0.0
 11
2.54
 21
0.0
 31
0.0
  0
LINE
  5
37C
330
375
100
AcDbEntity
  8
BORDER
 62
     0
100
AcDbLine
 10
0.0
 20
2.54
 30
0.0
 11
0.0
 21
5.04
 31
0.0
  0
LINE
  5
37D
330
375
100
AcDbEntity
  8
BORDER
 62
     0
100
AcDbLine
 10
-2.54
 20
0.0
 30
0.0
 11
-5.04
 21
0.0
 31
0.0
  0
LINE
  5
37E
330
375
100
AcDbEntity
  8
BORDER
 62
     0
100
AcDbLine
 10
0.0
 20
-2.54
 30
0.0
 11
0.0
 21
-5.04
 31
0.0
  0
LINE
  5
37F
330
375
100
AcDbEntity
  8
BORDER
 62
     0
100
AcDbLine
 10
2.54
 20
0.0
 30
0.0
 11
5.04
 21
0.0
 31
0.0
  0
ENDBLK
  5
377
330
375
100
AcDbEntity
  8
0
100
AcDbBlockEnd
  0
BLOCK
  5
382
330
381
100
AcDbEntity
  8
0
100
AcDbBlockBegin
  2
SW_CENTERMARKSYMBOL_11
 70
     0
 10
0.0
 20
0.0
 30
0.0
  3
SW_CENTERMARKSYMBOL_11
  1

  0
LINE
  5
384
330
381
100
AcDbEntity
  8
BORDER
 62
     0
100
AcDbLine
 10
0.0
 20
0.0
 30
0.0
 11
0.0
 21
2.54
 31
0.0
  0
LINE
  5
385
330
381
100
AcDbEntity
  8
BORDER
 62
     0
100
AcDbLine
 10
0.0
 20
0.0
 30
0.0
 11
-2.54
 21
0.0
 31
0.0
  0
LINE
  5
386
330
381
100
AcDbEntity
  8
BORDER
 62
     0
100
AcDbLine
 10
0.0
 20
0.0
 30
0.0
 11
0.0
 21
-2.54
 31
0.0
  0
LINE
  5
387
330
381
100
AcDbEntity
  8
BORDER
 62
     0
100
AcDbLine
 10
0.0
 20
0.0
 30
0.0
 11
2.54
 21
0.0
 31
0.0
  0
LINE
  5
388
330
381
100
AcDbEntity
  8
BORDER
 62
     0
100
AcDbLine
 10
0.0
 20
2.54
 30
0.0
 11
0.0
 21
5.04
 31
0.0
  0
LINE
  5
389
330
381
100
AcDbEntity
  8
BORDER
 62
     0
100
AcDbLine
 10
-2.54
 20
0.0
 30
0.0
 11
-5.04
 21
0.0
 31
0.0
  0
LINE
  5
38A
330
381
100
AcDbEntity
  8
BORDER
 62
     0
100
AcDbLine
 10
0.0
 20
-2.54
 30
0.0
 11
0.0
 21
-5.04
 31
0.0
  0
LINE
  5
38B
330
381
100
AcDbEntity
  8
BORDER
 62
     0
100
AcDbLine
 10
2.54
 20
0.0
 30
0.0
 11
5.04
 21
0.0
 31
0.0
  0
ENDBLK
  5
383
330
381
100
AcDbEntity
  8
0
100
AcDbBlockEnd
  0
BLOCK
  5
38E
330
38D
100
AcDbEntity
  8
0
100
AcDbBlockBegin
  2
SW_CENTERMARKSYMBOL_12
 70
     0
 10
0.0
 20
0.0
 30
0.0
  3
SW_CENTERMARKSYMBOL_12
  1

  0
LINE
  5
390
330
38D
100
AcDbEntity
  8
BORDER
 62
     0
100
AcDbLine
 10
0.0
 20
0.0
 30
0.0
 11
0.0
 21
2.54
 31
0.0
  0
LINE
  5
391
330
38D
100
AcDbEntity
  8
BORDER
 62
     0
100
AcDbLine
 10
0.0
 20
0.0
 30
0.0
 11
-2.54
 21
0.0
 31
0.0
  0
LINE
  5
392
330
38D
100
AcDbEntity
  8
BORDER
 62
     0
100
AcDbLine
 10
0.0
 20
0.0
 30
0.0
 11
0.0
 21
-2.54
 31
0.0
  0
LINE
  5
393
330
38D
100
AcDbEntity
  8
BORDER
 62
     0
100
AcDbLine
 10
0.0
 20
0.0
 30
0.0
 11
2.54
 21
0.0
 31
0.0
  0
LINE
  5
394
330
38D
100
AcDbEntity
  8
BORDER
 62
     0
100
AcDbLine
 10
0.0
 20
2.54
 30
0.0
 11
0.0
 21
5.04
 31
0.0
  0
LINE
  5
395
330
38D
100
AcDbEntity
  8
BORDER
 62
     0
100
AcDbLine
 10
-2.54
 20
0.0
 30
0.0
 11
-5.04
 21
0.0
 31
0.0
  0
LINE
  5
396
330
38D
100
AcDbEntity
  8
BORDER
 62
     0
100
AcDbLine
 10
0.0
 20
-2.54
 30
0.0
 11
0.0
 21
-5.04
 31
0.0
  0
LINE
  5
397
330
38D
100
AcDbEntity
  8
BORDER
 62
     0
100
AcDbLine
 10
2.54
 20
0.0
 30
0.0
 11
5.04
 21
0.0
 31
0.0
  0
ENDBLK
  5
38F
330
38D
100
AcDbEntity
  8
0
100
AcDbBlockEnd
  0
BLOCK
  5
39A
330
399
100
AcDbEntity
  8
0
100
AcDbBlockBegin
  2
SW_CENTERMARKSYMBOL_13
 70
     0
 10
0.0
 20
0.0
 30
0.0
  3
SW_CENTERMARKSYMBOL_13
  1

  0
LINE
  5
39C
330
399
100
AcDbEntity
  8
BORDER
 62
     0
100
AcDbLine
 10
0.0
 20
0.0
 30
0.0
 11
0.0
 21
2.54
 31
0.0
  0
LINE
  5
39D
330
399
100
AcDbEntity
  8
BORDER
 62
     0
100
AcDbLine
 10
0.0
 20
0.0
 30
0.0
 11
-2.54
 21
0.0
 31
0.0
  0
LINE
  5
39E
330
399
100
AcDbEntity
  8
BORDER
 62
     0
100
AcDbLine
 10
0.0
 20
0.0
 30
0.0
 11
0.0
 21
-2.54
 31
0.0
  0
LINE
  5
39F
330
399
100
AcDbEntity
  8
BORDER
 62
     0
100
AcDbLine
 10
0.0
 20
0.0
 30
0.0
 11
2.54
 21
0.0
 31
0.0
  0
LINE
  5
3A0
330
399
100
AcDbEntity
  8
BORDER
 62
     0
100
AcDbLine
 10
0.0
 20
2.54
 30
0.0
 11
0.0
 21
5.04
 31
0.0
  0
LINE
  5
3A1
330
399
100
AcDbEntity
  8
BORDER
 62
     0
100
AcDbLine
 10
-2.54
 20
0.0
 30
0.0
 11
-5.04
 21
0.0
 31
0.0
  0
LINE
  5
3A2
330
399
100
AcDbEntity
  8
BORDER
 62
     0
100
AcDbLine
 10
0.0
 20
-2.54
 30
0.0
 11
0.0
 21
-5.04
 31
0.0
  0
LINE
  5
3A3
330
399
100
AcDbEntity
  8
BORDER
 62
     0
100
AcDbLine
 10
2.54
 20
0.0
 30
0.0
 11
5.04
 21
0.0
 31
0.0
  0
ENDBLK
  5
39B
330
399
100
AcDbEntity
  8
0
100
AcDbBlockEnd
  0
BLOCK
  5
3A6
330
3A5
100
AcDbEntity
  8
0
100
AcDbBlockBegin
  2
SW_CENTERMARKSYMBOL_14
 70
     0
 10
0.0
 20
0.0
 30
0.0
  3
SW_CENTERMARKSYMBOL_14
  1

  0
LINE
  5
3A8
330
3A5
100
AcDbEntity
  8
BORDER
 62
     0
100
AcDbLine
 10
0.0
 20
0.0
 30
0.0
 11
0.0
 21
2.54
 31
0.0
  0
LINE
  5
3A9
330
3A5
100
AcDbEntity
  8
BORDER
 62
     0
100
AcDbLine
 10
0.0
 20
0.0
 30
0.0
 11
-2.54
 21
0.0
 31
0.0
  0
LINE
  5
3AA
330
3A5
100
AcDbEntity
  8
BORDER
 62
     0
100
AcDbLine
 10
0.0
 20
0.0
 30
0.0
 11
0.0
 21
-2.54
 31
0.0
  0
LINE
  5
3AB
330
3A5
100
AcDbEntity
  8
BORDER
 62
     0
100
AcDbLine
 10
0.0
 20
0.0
 30
0.0
 11
2.54
 21
0.0
 31
0.0
  0
LINE
  5
3AC
330
3A5
100
AcDbEntity
  8
BORDER
 62
     0
100
AcDbLine
 10
0.0
 20
2.54
 30
0.0
 11
0.0
 21
5.04
 31
0.0
  0
LINE
  5
3AD
330
3A5
100
AcDbEntity
  8
BORDER
 62
     0
100
AcDbLine
 10
-2.54
 20
0.0
 30
0.0
 11
-5.04
 21
0.0
 31
0.0
  0
LINE
  5
3AE
330
3A5
100
AcDbEntity
  8
BORDER
 62
     0
100
AcDbLine
 10
0.0
 20
-2.54
 30
0.0
 11
0.0
 21
-5.04
 31
0.0
  0
LINE
  5
3AF
330
3A5
100
AcDbEntity
  8
BORDER
 62
     0
100
AcDbLine
 10
2.54
 20
0.0
 30
0.0
 11
5.04
 21
0.0
 31
0.0
  0
ENDBLK
  5
3A7
330
3A5
100
AcDbEntity
  8
0
100
AcDbBlockEnd
  0
BLOCK
  5
3B2
330
3B1
100
AcDbEntity
  8
0
100
AcDbBlockBegin
  2
SW_CENTERMARKSYMBOL_15
 70
     0
 10
0.0
 20
0.0
 30
0.0
  3
SW_CENTERMARKSYMBOL_15
  1

  0
LINE
  5
3B4
330
3B1
100
AcDbEntity
  8
BORDER
 62
     0
100
AcDbLine
 10
0.0
 20
0.0
 30
0.0
 11
0.0
 21
2.54
 31
0.0
  0
LINE
  5
3B5
330
3B1
100
AcDbEntity
  8
BORDER
 62
     0
100
AcDbLine
 10
0.0
 20
0.0
 30
0.0
 11
-2.54
 21
0.0
 31
0.0
  0
LINE
  5
3B6
330
3B1
100
AcDbEntity
  8
BORDER
 62
     0
100
AcDbLine
 10
0.0
 20
0.0
 30
0.0
 11
0.0
 21
-2.54
 31
0.0
  0
LINE
  5
3B7
330
3B1
100
AcDbEntity
  8
BORDER
 62
     0
100
AcDbLine
 10
0.0
 20
0.0
 30
0.0
 11
2.54
 21
0.0
 31
0.0
  0
LINE
  5
3B8
330
3B1
100
AcDbEntity
  8
BORDER
 62
     0
100
AcDbLine
 10
0.0
 20
2.54
 30
0.0
 11
0.0
 21
4.74
 31
0.0
  0
LINE
  5
3B9
330
3B1
100
AcDbEntity
  8
BORDER
 62
     0
100
AcDbLine
 10
-2.54
 20
0.0
 30
0.0
 11
-4.74
 21
0.0
 31
0.0
  0
LINE
  5
3BA
330
3B1
100
AcDbEntity
  8
BORDER
 62
     0
100
AcDbLine
 10
0.0
 20
-2.54
 30
0.0
 11
0.0
 21
-4.74
 31
0.0
  0
LINE
  5
3BB
330
3B1
100
AcDbEntity
  8
BORDER
 62
     0
100
AcDbLine
 10
2.54
 20
0.0
 30
0.0
 11
4.74
 21
0.0
 31
0.0
  0
ENDBLK
  5
3B3
330
3B1
100
AcDbEntity
  8
0
100
AcDbBlockEnd
  0
BLOCK
  5
3BE
330
3BD
100
AcDbEntity
  8
0
100
AcDbBlockBegin
  2
SW_CENTERMARKSYMBOL_16
 70
     0
 10
0.0
 20
0.0
 30
0.0
  3
SW_CENTERMARKSYMBOL_16
  1

  0
LINE
  5
3C0
330
3BD
100
AcDbEntity
  8
BORDER
 62
     0
100
AcDbLine
 10
0.0
 20
0.0
 30
0.0
 11
0.0
 21
2.54
 31
0.0
  0
LINE
  5
3C1
330
3BD
100
AcDbEntity
  8
BORDER
 62
     0
100
AcDbLine
 10
0.0
 20
0.0
 30
0.0
 11
-2.54
 21
0.0
 31
0.0
  0
LINE
  5
3C2
330
3BD
100
AcDbEntity
  8
BORDER
 62
     0
100
AcDbLine
 10
0.0
 20
0.0
 30
0.0
 11
0.0
 21
-2.54
 31
0.0
  0
LINE
  5
3C3
330
3BD
100
AcDbEntity
  8
BORDER
 62
     0
100
AcDbLine
 10
0.0
 20
0.0
 30
0.0
 11
2.54
 21
0.0
 31
0.0
  0
LINE
  5
3C4
330
3BD
100
AcDbEntity
  8
BORDER
 62
     0
100
AcDbLine
 10
0.0
 20
2.54
 30
0.0
 11
0.0
 21
4.74
 31
0.0
  0
LINE
  5
3C5
330
3BD
100
AcDbEntity
  8
BORDER
 62
     0
100
AcDbLine
 10
-2.54
 20
0.0
 30
0.0
 11
-4.74
 21
0.0
 31
0.0
  0
LINE
  5
3C6
330
3BD
100
AcDbEntity
  8
BORDER
 62
     0
100
AcDbLine
 10
0.0
 20
-2.54
 30
0.0
 11
0.0
 21
-4.74
 31
0.0
  0
LINE
  5
3C7
330
3BD
100
AcDbEntity
  8
BORDER
 62
     0
100
AcDbLine
 10
2.54
 20
0.0
 30
0.0
 11
4.74
 21
0.0
 31
0.0
  0
ENDBLK
  5
3BF
330
3BD
100
AcDbEntity
  8
0
100
AcDbBlockEnd
  0
BLOCK
  5
3CA
330
3C9
100
AcDbEntity
  8
0
100
AcDbBlockBegin
  2
SW_CENTERMARKSYMBOL_17
 70
     0
 10
0.0
 20
0.0
 30
0.0
  3
SW_CENTERMARKSYMBOL_17
  1

  0
LINE
  5
3CC
330
3C9
100
AcDbEntity
  8
BORDER
 62
     0
100
AcDbLine
 10
0.0
 20
0.0
 30
0.0
 11
0.0
 21
2.54
 31
0.0
  0
LINE
  5
3CD
330
3C9
100
AcDbEntity
  8
BORDER
 62
     0
100
AcDbLine
 10
0.0
 20
0.0
 30
0.0
 11
-2.54
 21
0.0
 31
0.0
  0
LINE
  5
3CE
330
3C9
100
AcDbEntity
  8
BORDER
 62
     0
100
AcDbLine
 10
0.0
 20
0.0
 30
0.0
 11
0.0
 21
-2.54
 31
0.0
  0
LINE
  5
3CF
330
3C9
100
AcDbEntity
  8
BORDER
 62
     0
100
AcDbLine
 10
0.0
 20
0.0
 30
0.0
 11
2.54
 21
0.0
 31
0.0
  0
LINE
  5
3D0
330
3C9
100
AcDbEntity
  8
BORDER
 62
     0
100
AcDbLine
 10
0.0
 20
2.54
 30
0.0
 11
0.0
 21
4.74
 31
0.0
  0
LINE
  5
3D1
330
3C9
100
AcDbEntity
  8
BORDER
 62
     0
100
AcDbLine
 10
-2.54
 20
0.0
 30
0.0
 11
-4.74
 21
0.0
 31
0.0
  0
LINE
  5
3D2
330
3C9
100
AcDbEntity
  8
BORDER
 62
     0
100
AcDbLine
 10
0.0
 20
-2.54
 30
0.0
 11
0.0
 21
-4.74
 31
0.0
  0
LINE
  5
3D3
330
3C9
100
AcDbEntity
  8
BORDER
 62
     0
100
AcDbLine
 10
2.54
 20
0.0
 30
0.0
 11
4.74
 21
0.0
 31
0.0
  0
ENDBLK
  5
3CB
330
3C9
100
AcDbEntity
  8
0
100
AcDbBlockEnd
  0
BLOCK
  5
3D6
330
3D5
100
AcDbEntity
  8
0
100
AcDbBlockBegin
  2
SW_CENTERMARKSYMBOL_18
 70
     0
 10
0.0
 20
0.0
 30
0.0
  3
SW_CENTERMARKSYMBOL_18
  1

  0
LINE
  5
3D8
330
3D5
100
AcDbEntity
  8
BORDER
 62
     0
100
AcDbLine
 10
0.0
 20
0.0
 30
0.0
 11
0.0
 21
2.54
 31
0.0
  0
LINE
  5
3D9
330
3D5
100
AcDbEntity
  8
BORDER
 62
     0
100
AcDbLine
 10
0.0
 20
0.0
 30
0.0
 11
-2.54
 21
0.0
 31
0.0
  0
LINE
  5
3DA
330
3D5
100
AcDbEntity
  8
BORDER
 62
     0
100
AcDbLine
 10
0.0
 20
0.0
 30
0.0
 11
0.0
 21
-2.54
 31
0.0
  0
LINE
  5
3DB
330
3D5
100
AcDbEntity
  8
BORDER
 62
     0
100
AcDbLine
 10
0.0
 20
0.0
 30
0.0
 11
2.54
 21
0.0
 31
0.0
  0
LINE
  5
3DC
330
3D5
100
AcDbEntity
  8
BORDER
 62
     0
100
AcDbLine
 10
0.0
 20
2.54
 30
0.0
 11
0.0
 21
4.74
 31
0.0
  0
LINE
  5
3DD
330
3D5
100
AcDbEntity
  8
BORDER
 62
     0
100
AcDbLine
 10
-2.54
 20
0.0
 30
0.0
 11
-4.74
 21
0.0
 31
0.0
  0
LINE
  5
3DE
330
3D5
100
AcDbEntity
  8
BORDER
 62
     0
100
AcDbLine
 10
0.0
 20
-2.54
 30
0.0
 11
0.0
 21
-4.74
 31
0.0
  0
LINE
  5
3DF
330
3D5
100
AcDbEntity
  8
BORDER
 62
     0
100
AcDbLine
 10
2.54
 20
0.0
 30
0.0
 11
4.74
 21
0.0
 31
0.0
  0
ENDBLK
  5
3D7
330
3D5
100
AcDbEntity
  8
0
100
AcDbBlockEnd
  0
BLOCK
  5
3E2
330
3E1
100
AcDbEntity
  8
0
100
AcDbBlockBegin
  2
SW_CENTERMARKSYMBOL_19
 70
     0
 10
0.0
 20
0.0
 30
0.0
  3
SW_CENTERMARKSYMBOL_19
  1

  0
ARC
  5
3E4
330
3E1
100
AcDbEntity
  8
BORDER
 62
     0
100
AcDbCircle
 10
196.1866211359
 20
142.5379236809
 30
0.0
 40
242.5000000000002
100
AcDbArc
 50
216.0
 51
216.6001289895
  0
ARC
  5
3E5
330
3E1
100
AcDbEntity
  8
BORDER
 62
     0
100
AcDbCircle
 10
196.1866211359
 20
142.5379236809
 30
0.0
 40
242.5000000000002
100
AcDbArc
 50
215.3998710105
 51
216.0
  0
ARC
  5
3E6
330
3E1
100
AcDbEntity
  8
BORDER
 62
     0
100
AcDbCircle
 10
196.1866211359
 20
142.5379236809
 30
0.0
 40
242.5000000000001
100
AcDbArc
 50
180.0
 51
180.6001289895
  0
ARC
  5
3E7
330
3E1
100
AcDbEntity
  8
BORDER
 62
     0
100
AcDbCircle
 10
196.1866211359
 20
142.5379236809
 30
0.0
 40
242.5000000000001
100
AcDbArc
 50
179.3998710105
 51
180.0
  0
ARC
  5
3E8
330
3E1
100
AcDbEntity
  8
BORDER
 62
     0
100
AcDbCircle
 10
196.1866211359
 20
142.5379236809
 30
0.0
 40
242.5000000000001
100
AcDbArc
 50
252.0
 51
252.6001289895
  0
ARC
  5
3E9
330
3E1
100
AcDbEntity
  8
BORDER
 62
     0
100
AcDbCircle
 10
196.1866211359
 20
142.5379236809
 30
0.0
 40
242.5000000000002
100
AcDbArc
 50
251.3998710105
 51
252.0
  0
ARC
  5
3EA
330
3E1
100
AcDbEntity
  8
BORDER
 62
     0
100
AcDbCircle
 10
196.1866211359
 20
142.5379236809
 30
0.0
 40
242.5000000000002
100
AcDbArc
 50
288.0
 51
288.6001289895
  0
ARC
  5
3EB
330
3E1
100
AcDbEntity
  8
BORDER
 62
     0
100
AcDbCircle
 10
196.1866211359
 20
142.5379236809
 30
0.0
 40
242.5000000000002
100
AcDbArc
 50
287.3998710105
 51
288.0
  0
ARC
  5
3EC
330
3E1
100
AcDbEntity
  8
BORDER
 62
     0
100
AcDbCircle
 10
196.1866211359
 20
142.5379236809
 30
0.0
 40
242.5000000000001
100
AcDbArc
 50
324.0
 51
324.6001289895
  0
ARC
  5
3ED
330
3E1
100
AcDbEntity
  8
BORDER
 62
     0
100
AcDbCircle
 10
196.1866211359
 20
142.5379236809
 30
0.0
 40
242.5000000000001
100
AcDbArc
 50
323.3998710105
 51
324.0
  0
ARC
  5
3EE
330
3E1
100
AcDbEntity
  8
BORDER
 62
     0
100
AcDbCircle
 10
196.1866211359
 20
142.5379236809
 30
0.0
 40
242.5000000000002
100
AcDbArc
 50
0.0
 51
0.6001289895
  0
ARC
  5
3EF
330
3E1
100
AcDbEntity
  8
BORDER
 62
     0
100
AcDbCircle
 10
196.1866211359
 20
142.5379236809
 30
0.0
 40
242.5000000000002
100
AcDbArc
 50
359.3998710105
 51
0.0
  0
ARC
  5
3F0
330
3E1
100
AcDbEntity
  8
BORDER
 62
     0
100
AcDbCircle
 10
196.1866211359
 20
142.5379236809
 30
0.0
 40
242.5000000000001
100
AcDbArc
 50
36.0
 51
36.6001289895
  0
ARC
  5
3F1
330
3E1
100
AcDbEntity
  8
BORDER
 62
     0
100
AcDbCircle
 10
196.1866211359
 20
142.5379236809
 30
0.0
 40
242.5000000000001
100
AcDbArc
 50
35.3998710105
 51
36.0
  0
ARC
  5
3F2
330
3E1
100
AcDbEntity
  8
BORDER
 62
     0
100
AcDbCircle
 10
196.1866211359
 20
142.5379236809
 30
0.0
 40
242.5000000000001
100
AcDbArc
 50
72.0
 51
72.6001289895
  0
ARC
  5
3F3
330
3E1
100
AcDbEntity
  8
BORDER
 62
     0
100
AcDbCircle
 10
196.1866211359
 20
142.5379236809
 30
0.0
 40
242.5000000000001
100
AcDbArc
 50
71.3998710105
 51
72.0
  0
ARC
  5
3F4
330
3E1
100
AcDbEntity
  8
BORDER
 62
     0
100
AcDbCircle
 10
196.1866211359
 20
142.5379236809
 30
0.0
 40
242.5000000000001
100
AcDbArc
 50
108.0
 51
108.6001289895
  0
ARC
  5
3F5
330
3E1
100
AcDbEntity
  8
BORDER
 62
     0
100
AcDbCircle
 10
196.1866211359
 20
142.5379236809
 30
0.0
 40
242.5000000000001
100
AcDbArc
 50
107.3998710105
 51
108.0
  0
ARC
  5
3F6
330
3E1
100
AcDbEntity
  8
BORDER
 62
     0
100
AcDbCircle
 10
196.1866211359
 20
142.5379236809
 30
0.0
 40
242.5000000000001
100
AcDbArc
 50
144.0
 51
144.6001289895
  0
ARC
  5
3F7
330
3E1
100
AcDbEntity
  8
BORDER
 62
     0
100
AcDbCircle
 10
196.1866211359
 20
142.5379236809
 30
0.0
 40
242.5000000000001
100
AcDbArc
 50
143.3998710105
 51
144.0
  0
ARC
  5
3F8
330
3E1
100
AcDbEntity
  8
BORDER
 62
     0
100
AcDbCircle
 10
196.1866211359
 20
142.5379236809
 30
0.0
 40
242.5000000000001
100
AcDbArc
 50
1.2002579791
 51
34.7997420209
  0
ARC
  5
3F9
330
3E1
100
AcDbEntity
  8
BORDER
 62
     0
100
AcDbCircle
 10
196.1866211359
 20
142.5379236809
 30
0.0
 40
242.5000000000001
100
AcDbArc
 50
37.2002579791
 51
70.7997420209
  0
ARC
  5
3FA
330
3E1
100
AcDbEntity
  8
BORDER
 62
     0
100
AcDbCircle
 10
196.1866211359
 20
142.5379236809
 30
0.0
 40
242.5000000000002
100
AcDbArc
 50
73.2002579791
 51
106.7997420209
  0
ARC
  5
3FB
330
3E1
100
AcDbEntity
  8
BORDER
 62
     0
100
AcDbCircle
 10
196.1866211359
 20
142.5379236809
 30
0.0
 40
242.5000000000002
100
AcDbArc
 50
109.2002579791
 51
142.7997420209
  0
ARC
  5
3FC
330
3E1
100
AcDbEntity
  8
BORDER
 62
     0
100
AcDbCircle
 10
196.1866211359
 20
142.5379236809
 30
0.0
 40
242.5000000000001
100
AcDbArc
 50
145.2002579791
 51
178.7997420209
  0
ARC
  5
3FD
330
3E1
100
AcDbEntity
  8
BORDER
 62
     0
100
AcDbCircle
 10
196.1866211359
 20
142.5379236809
 30
0.0
 40
242.5000000000002
100
AcDbArc
 50
181.2002579791
 51
214.7997420209
  0
ARC
  5
3FE
330
3E1
100
AcDbEntity
  8
BORDER
 62
     0
100
AcDbCircle
 10
196.1866211359
 20
142.5379236809
 30
0.0
 40
242.5000000000002
100
AcDbArc
 50
217.2002579791
 51
250.7997420209
  0
ARC
  5
3FF
330
3E1
100
AcDbEntity
  8
BORDER
 62
     0
100
AcDbCircle
 10
196.1866211359
 20
142.5379236809
 30
0.0
 40
242.5000000000002
100
AcDbArc
 50
253.2002579791
 51
286.7997420209
  0
ARC
  5
400
330
3E1
100
AcDbEntity
  8
BORDER
 62
     0
100
AcDbCircle
 10
196.1866211359
 20
142.5379236809
 30
0.0
 40
242.5000000000001
100
AcDbArc
 50
289.2002579791
 51
322.7997420209
  0
ARC
  5
401
330
3E1
100
AcDbEntity
  8
BORDER
 62
     0
100
AcDbCircle
 10
196.1866211359
 20
142.5379236809
 30
0.0
 40
242.5000000000001
100
AcDbArc
 50
325.2002579791
 51
358.7997420209
  0
LINE
  5
402
330
3E1
100
AcDbEntity
  8
BORDER
 62
     0
100
AcDbLine
 10
0.0
 20
0.0
 30
0.0
 11
-2.0549031657
 21
-1.4929745408
 31
0.0
  0
LINE
  5
403
330
3E1
100
AcDbEntity
  8
BORDER
 62
     0
100
AcDbLine
 10
0.0
 20
0.0
 30
0.0
 11
2.0549031657
 21
1.4929745408
 31
0.0
  0
LINE
  5
404
330
3E1
100
AcDbEntity
  8
BORDER
 62
     0
100
AcDbLine
 10
-2.0549031657
 20
-1.4929745408
 30
0.0
 11
-3.4302320561
 21
-2.4922094697
 31
0.0
  0
LINE
  5
405
330
3E1
100
AcDbEntity
  8
BORDER
 62
     0
100
AcDbLine
 10
2.0549031657
 20
1.4929745408
 30
0.0
 11
3.4302320561
 21
2.4922094697
 31
0.0
  0
LINE
  5
406
330
3E1
100
AcDbEntity
  8
BORDER
 62
     0
100
AcDbLine
 10
196.1866211359
 20
142.5379236809
 30
0.0
 11
196.1866211359
 21
145.0779236809
 31
0.0
  0
LINE
  5
407
330
3E1
100
AcDbEntity
  8
BORDER
 62
     0
100
AcDbLine
 10
196.1866211359
 20
142.5379236809
 30
0.0
 11
193.6466211359
 21
142.5379236809
 31
0.0
  0
LINE
  5
408
330
3E1
100
AcDbEntity
  8
BORDER
 62
     0
100
AcDbLine
 10
196.1866211359
 20
142.5379236809
 30
0.0
 11
196.1866211359
 21
139.9979236809
 31
0.0
  0
LINE
  5
409
330
3E1
100
AcDbEntity
  8
BORDER
 62
     0
100
AcDbLine
 10
196.1866211359
 20
142.5379236809
 30
0.0
 11
198.7266211359
 21
142.5379236809
 31
0.0
  0
LINE
  5
40A
330
3E1
100
AcDbEntity
  8
BORDER
 62
     0
100
AcDbLine
 10
196.1866211359
 20
147.6179236809
 30
0.0
 11
196.1866211359
 21
387.5379236809
 31
0.0
  0
LINE
  5
40B
330
3E1
100
AcDbEntity
  8
BORDER
 62
     0
100
AcDbLine
 10
191.1066211359
 20
142.5379236809
 30
0.0
 11
-48.8133788641
 21
142.5379236809
 31
0.0
  0
LINE
  5
40C
330
3E1
100
AcDbEntity
  8
BORDER
 62
     0
100
AcDbLine
 10
196.1866211359
 20
137.4579236809
 30
0.0
 11
196.1866211359
 21
-102.4620763191
 31
0.0
  0
LINE
  5
40D
330
3E1
100
AcDbEntity
  8
BORDER
 62
     0
100
AcDbLine
 10
201.2666211359
 20
142.5379236809
 30
0.0
 11
441.1866211359
 21
142.5379236809
 31
0.0
  0
LINE
  5
40E
330
3E1
100
AcDbEntity
  8
BORDER
 62
     0
100
AcDbLine
 10
-46.3133788641
 20
142.5379236809
 30
0.0
 11
-48.8533788641
 21
142.5379236809
 31
0.0
  0
LINE
  5
40F
330
3E1
100
AcDbEntity
  8
BORDER
 62
     0
100
AcDbLine
 10
-46.3133788641
 20
142.5379236809
 30
0.0
 11
-43.7733788641
 21
142.5379236809
 31
0.0
  0
LINE
  5
410
330
3E1
100
AcDbEntity
  8
BORDER
 62
     0
100
AcDbLine
 10
-48.8533788641
 20
142.5379236809
 30
0.0
 11
-50.5533788641
 21
142.5379236809
 31
0.0
  0
LINE
  5
411
330
3E1
100
AcDbEntity
  8
BORDER
 62
     0
100
AcDbLine
 10
-43.7733788641
 20
142.5379236809
 30
0.0
 11
-42.0733788641
 21
142.5379236809
 31
0.0
  0
LINE
  5
412
330
3E1
100
AcDbEntity
  8
BORDER
 62
     0
100
AcDbLine
 10
121.25
 20
-88.0932815206
 30
0.0
 11
120.4650968343
 21
-90.508965072
 31
0.0
  0
LINE
  5
413
330
3E1
100
AcDbEntity
  8
BORDER
 62
     0
100
AcDbLine
 10
121.25
 20
-88.0932815206
 30
0.0
 11
122.0349031657
 21
-85.6775979693
 31
0.0
  0
LINE
  5
414
330
3E1
100
AcDbEntity
  8
BORDER
 62
     0
100
AcDbLine
 10
120.4650968343
 20
-90.508965072
 30
0.0
 11
119.9397679439
 21
-92.1257611497
 31
0.0
  0
LINE
  5
415
330
3E1
100
AcDbEntity
  8
BORDER
 62
     0
100
AcDbLine
 10
122.0349031657
 20
-85.6775979693
 30
0.0
 11
122.5602320562
 21
-84.0608018916
 31
0.0
  0
LINE
  5
416
330
3E1
100
AcDbEntity
  8
BORDER
 62
     0
100
AcDbLine
 10
271.1232422719
 20
-88.0932815206
 30
0.0
 11
271.9081454376
 21
-90.508965072
 31
0.0
  0
LINE
  5
417
330
3E1
100
AcDbEntity
  8
BORDER
 62
     0
100
AcDbLine
 10
271.1232422719
 20
-88.0932815206
 30
0.0
 11
270.3383391061
 21
-85.6775979693
 31
0.0
  0
LINE
  5
418
330
3E1
100
AcDbEntity
  8
BORDER
 62
     0
100
AcDbLine
 10
271.9081454376
 20
-90.508965072
 30
0.0
 11
272.433474328
 21
-92.1257611497
 31
0.0
  0
LINE
  5
419
330
3E1
100
AcDbEntity
  8
BORDER
 62
     0
100
AcDbLine
 10
270.3383391061
 20
-85.6775979693
 30
0.0
 11
269.8130102157
 21
-84.0608018916
 31
0.0
  0
LINE
  5
41A
330
3E1
100
AcDbEntity
  8
BORDER
 62
     0
100
AcDbLine
 10
392.3732422719
 20
0.0
 30
0.0
 11
394.4281454376
 21
-1.4929745408
 31
0.0
  0
LINE
  5
41B
330
3E1
100
AcDbEntity
  8
BORDER
 62
     0
100
AcDbLine
 10
392.3732422719
 20
0.0
 30
0.0
 11
390.3183391061
 21
1.4929745408
 31
0.0
  0
LINE
  5
41C
330
3E1
100
AcDbEntity
  8
BORDER
 62
     0
100
AcDbLine
 10
394.4281454376
 20
-1.4929745408
 30
0.0
 11
395.803474328
 21
-2.4922094697
 31
0.0
  0
LINE
  5
41D
330
3E1
100
AcDbEntity
  8
BORDER
 62
     0
100
AcDbLine
 10
390.3183391061
 20
1.4929745408
 30
0.0
 11
388.9430102157
 21
2.4922094697
 31
0.0
  0
LINE
  5
41E
330
3E1
100
AcDbEntity
  8
BORDER
 62
     0
100
AcDbLine
 10
438.6866211359
 20
142.5379236809
 30
0.0
 11
441.2266211359
 21
142.5379236809
 31
0.0
  0
LINE
  5
41F
330
3E1
100
AcDbEntity
  8
BORDER
 62
     0
100
AcDbLine
 10
438.6866211359
 20
142.5379236809
 30
0.0
 11
436.1466211359
 21
142.5379236809
 31
0.0
  0
LINE
  5
420
330
3E1
100
AcDbEntity
  8
BORDER
 62
     0
100
AcDbLine
 10
441.2266211359
 20
142.5379236809
 30
0.0
 11
442.9266211359
 21
142.5379236809
 31
0.0
  0
LINE
  5
421
330
3E1
100
AcDbEntity
  8
BORDER
 62
     0
100
AcDbLine
 10
436.1466211359
 20
142.5379236809
 30
0.0
 11
434.4466211359
 21
142.5379236809
 31
0.0
  0
LINE
  5
422
330
3E1
100
AcDbEntity
  8
BORDER
 62
     0
100
AcDbLine
 10
392.3732422718
 20
285.0758473619
 30
0.0
 11
394.4281454376
 21
286.5688219027
 31
0.0
  0
LINE
  5
423
330
3E1
100
AcDbEntity
  8
BORDER
 62
     0
100
AcDbLine
 10
392.3732422718
 20
285.0758473619
 30
0.0
 11
390.3183391061
 21
283.582872821
 31
0.0
  0
LINE
  5
424
330
3E1
100
AcDbEntity
  8
BORDER
 62
     0
100
AcDbLine
 10
394.4281454376
 20
286.5688219027
 30
0.0
 11
395.803474328
 21
287.5680568316
 31
0.0
  0
LINE
  5
425
330
3E1
100
AcDbEntity
  8
BORDER
 62
     0
100
AcDbLine
 10
390.3183391061
 20
283.582872821
 30
0.0
 11
388.9430102157
 21
282.5836378921
 31
0.0
  0
LINE
  5
426
330
3E1
100
AcDbEntity
  8
BORDER
 62
     0
100
AcDbLine
 10
271.1232422718
 20
373.1691288825
 30
0.0
 11
271.9081454376
 21
375.5848124339
 31
0.0
  0
LINE
  5
427
330
3E1
100
AcDbEntity
  8
BORDER
 62
     0
100
AcDbLine
 10
271.1232422718
 20
373.1691288825
 30
0.0
 11
270.3383391061
 21
370.7534453311
 31
0.0
  0
LINE
  5
428
330
3E1
100
AcDbEntity
  8
BORDER
 62
     0
100
AcDbLine
 10
271.9081454376
 20
375.5848124339
 30
0.0
 11
272.433474328
 21
377.2016085116
 31
0.0
  0
LINE
  5
429
330
3E1
100
AcDbEntity
  8
BORDER
 62
     0
100
AcDbLine
 10
270.3383391061
 20
370.7534453311
 30
0.0
 11
269.8130102157
 21
369.1366492534
 31
0.0
  0
LINE
  5
42A
330
3E1
100
AcDbEntity
  8
BORDER
 62
     0
100
AcDbLine
 10
121.25
 20
373.1691288825
 30
0.0
 11
120.4650968343
 21
375.5848124339
 31
0.0
  0
LINE
  5
42B
330
3E1
100
AcDbEntity
  8
BORDER
 62
     0
100
AcDbLine
 10
121.25
 20
373.1691288825
 30
0.0
 11
122.0349031657
 21
370.7534453311
 31
0.0
  0
LINE
  5
42C
330
3E1
100
AcDbEntity
  8
BORDER
 62
     0
100
AcDbLine
 10
120.4650968343
 20
375.5848124339
 30
0.0
 11
119.9397679438
 21
377.2016085116
 31
0.0
  0
LINE
  5
42D
330
3E1
100
AcDbEntity
  8
BORDER
 62
     0
100
AcDbLine
 10
122.0349031657
 20
370.7534453311
 30
0.0
 11
122.5602320561
 21
369.1366492534
 31
0.0
  0
LINE
  5
42E
330
3E1
100
AcDbEntity
  8
BORDER
 62
     0
100
AcDbLine
 10
0.0
 20
285.0758473618
 30
0.0
 11
-2.0549031657
 21
286.5688219027
 31
0.0
  0
LINE
  5
42F
330
3E1
100
AcDbEntity
  8
BORDER
 62
     0
100
AcDbLine
 10
0.0
 20
285.0758473618
 30
0.0
 11
2.0549031657
 21
283.582872821
 31
0.0
  0
LINE
  5
430
330
3E1
100
AcDbEntity
  8
BORDER
 62
     0
100
AcDbLine
 10
-2.0549031657
 20
286.5688219027
 30
0.0
 11
-3.4302320562
 21
287.5680568316
 31
0.0
  0
LINE
  5
431
330
3E1
100
AcDbEntity
  8
BORDER
 62
     0
100
AcDbLine
 10
2.0549031657
 20
283.582872821
 30
0.0
 11
3.4302320561
 21
282.5836378921
 31
0.0
  0
ENDBLK
  5
3E3
330
3E1
100
AcDbEntity
  8
0
100
AcDbBlockEnd
  0
BLOCK
  5
434
330
433
100
AcDbEntity
  8
0
100
AcDbBlockBegin
  2
SW_CENTERMARKSYMBOL_20
 70
     0
 10
0.0
 20
0.0
 30
0.0
  3
SW_CENTERMARKSYMBOL_20
  1

  0
LINE
  5
436
330
433
100
AcDbEntity
  8
BORDER
 62
     0
100
AcDbLine
 10
0.0
 20
0.0
 30
0.0
 11
0.0
 21
2.54
 31
0.0
  0
LINE
  5
437
330
433
100
AcDbEntity
  8
BORDER
 62
     0
100
AcDbLine
 10
0.0
 20
0.0
 30
0.0
 11
-2.54
 21
0.0
 31
0.0
  0
LINE
  5
438
330
433
100
AcDbEntity
  8
BORDER
 62
     0
100
AcDbLine
 10
0.0
 20
0.0
 30
0.0
 11
0.0
 21
-2.54
 31
0.0
  0
LINE
  5
439
330
433
100
AcDbEntity
  8
BORDER
 62
     0
100
AcDbLine
 10
0.0
 20
0.0
 30
0.0
 11
2.54
 21
0.0
 31
0.0
  0
LINE
  5
43A
330
433
100
AcDbEntity
  8
BORDER
 62
     0
100
AcDbLine
 10
0.0
 20
2.54
 30
0.0
 11
0.0
 21
4.24
 31
0.0
  0
LINE
  5
43B
330
433
100
AcDbEntity
  8
BORDER
 62
     0
100
AcDbLine
 10
-2.54
 20
0.0
 30
0.0
 11
-4.24
 21
0.0
 31
0.0
  0
LINE
  5
43C
330
433
100
AcDbEntity
  8
BORDER
 62
     0
100
AcDbLine
 10
0.0
 20
-2.54
 30
0.0
 11
0.0
 21
-4.24
 31
0.0
  0
LINE
  5
43D
330
433
100
AcDbEntity
  8
BORDER
 62
     0
100
AcDbLine
 10
2.54
 20
0.0
 30
0.0
 11
4.24
 21
0.0
 31
0.0
  0
ENDBLK
  5
435
330
433
100
AcDbEntity
  8
0
100
AcDbBlockEnd
  0
BLOCK
  5
440
330
43F
100
AcDbEntity
  8
0
100
AcDbBlockBegin
  2
SW_CENTERMARKSYMBOL_21
 70
     0
 10
0.0
 20
0.0
 30
0.0
  3
SW_CENTERMARKSYMBOL_21
  1

  0
LINE
  5
442
330
43F
100
AcDbEntity
  8
BORDER
 62
     0
100
AcDbLine
 10
0.0
 20
0.0
 30
0.0
 11
0.0
 21
2.54
 31
0.0
  0
LINE
  5
443
330
43F
100
AcDbEntity
  8
BORDER
 62
     0
100
AcDbLine
 10
0.0
 20
0.0
 30
0.0
 11
-2.54
 21
0.0
 31
0.0
  0
LINE
  5
444
330
43F
100
AcDbEntity
  8
BORDER
 62
     0
100
AcDbLine
 10
0.0
 20
0.0
 30
0.0
 11
0.0
 21
-2.54
 31
0.0
  0
LINE
  5
445
330
43F
100
AcDbEntity
  8
BORDER
 62
     0
100
AcDbLine
 10
0.0
 20
0.0
 30
0.0
 11
2.54
 21
0.0
 31
0.0
  0
LINE
  5
446
330
43F
100
AcDbEntity
  8
BORDER
 62
     0
100
AcDbLine
 10
0.0
 20
2.54
 30
0.0
 11
0.0
 21
4.24
 31
0.0
  0
LINE
  5
447
330
43F
100
AcDbEntity
  8
BORDER
 62
     0
100
AcDbLine
 10
-2.54
 20
0.0
 30
0.0
 11
-4.24
 21
0.0
 31
0.0
  0
LINE
  5
448
330
43F
100
AcDbEntity
  8
BORDER
 62
     0
100
AcDbLine
 10
0.0
 20
-2.54
 30
0.0
 11
0.0
 21
-4.24
 31
0.0
  0
LINE
  5
449
330
43F
100
AcDbEntity
  8
BORDER
 62
     0
100
AcDbLine
 10
2.54
 20
0.0
 30
0.0
 11
4.24
 21
0.0
 31
0.0
  0
ENDBLK
  5
441
330
43F
100
AcDbEntity
  8
0
100
AcDbBlockEnd
  0
ENDSEC
  0
SECTION
  2
ENTITIES
  0
HATCH
  5
78
330
1F
100
AcDbEntity
  8
TRIM
100
AcDbHatch
 10
0.0
 20
0.0
 30
0.0
210
0.0
220
0.0
230
1.0
  2
SOLID
 70
     1
 71
     0
 91
        1
 92
        0
 93
        6
 72
     1
 10
10.0
 20
0.0
 11
10.0
 21
5.000000000000001
 72
     1
 10
10.0
 20
5.000000000000001
 11
5.000000000000003
 21
4.999999999999999
 72
     1
 10
5.000000000000003
 20
4.999999999999999
 11
5.000000000000002
 21
9.999999999999998
 72
     1
 10
5.000000000000002
 20
9.999999999999998
 11
0.0
 21
9.999999999999998
 72
     1
 10
0.0
 20
9.999999999999998
 11
0.0
 21
0.0
 72
     1
 10
0.0
 20
0.0
 11
10.0
 21
0.0
 97
        0
 75
     0
 76
     1
 98
        1
 10
0.0
 20
0.0
  0
HATCH
  5
79
330
1F
100
AcDbEntity
  8
TRIM
100
AcDbHatch
 10
0.0
 20
0.0
 30
0.0
210
0.0
220
0.0
230
1.0
  2
SOLID
 70
     1
 71
     0
 91
        1
 92
        0
 93
        6
 72
     1
 10
0.0
 20
831.0000000000001
 11
4.999999999999901
 21
831.0000000000001
 72
     1
 10
4.999999999999901
 20
831.0000000000001
 11
4.999999999999901
 21
836.0
 72
     1
 10
4.999999999999901
 20
836.0
 11
9.9999999999998
 21
836.0
 72
     1
 10
9.9999999999998
 20
836.0
 11
9.999999999999797
 21
841.0
 72
     1
 10
9.999999999999797
 20
841.0
 11
0.0
 21
841.0
 72
     1
 10
0.0
 20
841.0
 11
0.0
 21
831.0000000000001
 97
        0
 75
     0
 76
     1
 98
        1
 10
0.0
 20
0.0
  0
HATCH
  5
7A
330
1F
100
AcDbEntity
  8
TRIM
100
AcDbHatch
 10
0.0
 20
0.0
 30
0.0
210
0.0
220
0.0
230
1.0
  2
SOLID
 70
     1
 71
     0
 91
        1
 92
        0
 93
        6
 72
     1
 10
1184.0
 20
836.0
 11
1184.0
 21
831.0
 72
     1
 10
1184.0
 20
831.0
 11
1189.0
 21
831.0
 72
     1
 10
1189.0
 20
831.0
 11
1189.0
 21
841.0
 72
     1
 10
1189.0
 20
841.0
 11
1179.0
 21
841.0
 72
     1
 10
1179.0
 20
841.0
 11
1179.0
 21
836.0
 72
     1
 10
1179.0
 20
836.0
 11
1184.0
 21
836.0
 97
        0
 75
     0
 76
     1
 98
        1
 10
0.0
 20
0.0
  0
HATCH
  5
7B
330
1F
100
AcDbEntity
  8
TRIM
100
AcDbHatch
 10
0.0
 20
0.0
 30
0.0
210
0.0
220
0.0
230
1.0
  2
SOLID
 70
     1
 71
     0
 91
        1
 92
        0
 93
        6
 72
     1
 10
1189.0
 20
10.00000000000001
 11
1184.0
 21
10.00000000000001
 72
     1
 10
1184.0
 20
10.00000000000001
 11
1184.0
 21
5.000000000000001
 72
     1
 10
1184.0
 20
5.000000000000001
 11
1179.0
 21
5.000000000000001
 72
     1
 10
1179.0
 20
5.000000000000001
 11
1179.0
 21
0.0
 72
     1
 10
1179.0
 20
0.0
 11
1189.0
 21
0.0
 72
     1
 10
1189.0
 20
0.0
 11
1189.0
 21
10.00000000000001
 97
        0
 75
     0
 76
     1
 98
        1
 10
0.0
 20
0.0
  0
LINE
  5
7C
330
1F
100
AcDbEntity
  8
BORDER
370
    35
100
AcDbLine
 10
544.5
 20
836.0
 30
0.0
 11
544.5
 21
831.0
 31
0.0
  0
LINE
  5
7D
330
1F
100
AcDbEntity
  8
BORDER
370
    35
100
AcDbLine
 10
494.5
 20
836.0
 30
0.0
 11
494.5
 21
831.0
 31
0.0
  0
LINE
  5
7E
330
1F
100
AcDbEntity
  8
BORDER
370
    35
100
AcDbLine
 10
444.5
 20
836.0
 30
0.0
 11
444.5
 21
831.0
 31
0.0
  0
LINE
  5
7F
330
1F
100
AcDbEntity
  8
BORDER
370
    35
100
AcDbLine
 10
394.5
 20
836.0
 30
0.0
 11
394.5
 21
831.0
 31
0.0
  0
LINE
  5
80
330
1F
100
AcDbEntity
  8
BORDER
370
    35
100
AcDbLine
 10
344.5
 20
836.0
 30
0.0
 11
344.5
 21
831.0
 31
0.0
  0
LINE
  5
81
330
1F
100
AcDbEntity
  8
BORDER
370
    35
100
AcDbLine
 10
294.5
 20
836.0
 30
0.0
 11
294.5
 21
831.0
 31
0.0
  0
LINE
  5
82
330
1F
100
AcDbEntity
  8
BORDER
370
    35
100
AcDbLine
 10
244.5
 20
836.0
 30
0.0
 11
244.5
 21
831.0
 31
0.0
  0
LINE
  5
83
330
1F
100
AcDbEntity
  8
BORDER
370
    35
100
AcDbLine
 10
194.5
 20
836.0
 30
0.0
 11
194.5
 21
831.0
 31
0.0
  0
LINE
  5
84
330
1F
100
AcDbEntity
  8
BORDER
370
    35
100
AcDbLine
 10
144.5
 20
836.0
 30
0.0
 11
144.5
 21
831.0
 31
0.0
  0
LINE
  5
85
330
1F
100
AcDbEntity
  8
BORDER
370
    35
100
AcDbLine
 10
94.5
 20
836.0
 30
0.0
 11
94.5
 21
831.0
 31
0.0
  0
LINE
  5
86
330
1F
100
AcDbEntity
  8
BORDER
370
    35
100
AcDbLine
 10
44.5
 20
836.0
 30
0.0
 11
44.5
 21
831.0
 31
0.0
  0
LINE
  5
87
330
1F
100
AcDbEntity
  8
CONSTRUCTION
100
AcDbLine
 10
594.5
 20
833.0
 30
0.0
 11
544.5
 21
833.0
 31
0.0
  0
LINE
  5
88
330
1F
100
AcDbEntity
  8
CONSTRUCTION
100
AcDbLine
 10
544.5
 20
833.0
 30
0.0
 11
494.5
 21
833.0
 31
0.0
  0
LINE
  5
89
330
1F
100
AcDbEntity
  8
CONSTRUCTION
100
AcDbLine
 10
494.5
 20
833.0
 30
0.0
 11
444.5
 21
833.0
 31
0.0
  0
LINE
  5
8A
330
1F
100
AcDbEntity
  8
CONSTRUCTION
100
AcDbLine
 10
444.5
 20
833.0
 30
0.0
 11
394.5
 21
833.0
 31
0.0
  0
LINE
  5
8B
330
1F
100
AcDbEntity
  8
CONSTRUCTION
100
AcDbLine
 10
394.5
 20
833.0
 30
0.0
 11
344.5
 21
833.0
 31
0.0
  0
LINE
  5
8C
330
1F
100
AcDbEntity
  8
CONSTRUCTION
100
AcDbLine
 10
344.5
 20
833.0
 30
0.0
 11
294.5
 21
833.0
 31
0.0
  0
LINE
  5
8D
330
1F
100
AcDbEntity
  8
CONSTRUCTION
100
AcDbLine
 10
294.5
 20
833.0
 30
0.0
 11
244.5
 21
833.0
 31
0.0
  0
LINE
  5
8E
330
1F
100
AcDbEntity
  8
CONSTRUCTION
100
AcDbLine
 10
244.5
 20
833.0
 30
0.0
 11
194.5
 21
833.0
 31
0.0
  0
LINE
  5
8F
330
1F
100
AcDbEntity
  8
CONSTRUCTION
100
AcDbLine
 10
194.5
 20
833.0
 30
0.0
 11
144.5
 21
833.0
 31
0.0
  0
LINE
  5
90
330
1F
100
AcDbEntity
  8
CONSTRUCTION
100
AcDbLine
 10
144.5
 20
833.0
 30
0.0
 11
94.5
 21
833.0
 31
0.0
  0
LINE
  5
91
330
1F
100
AcDbEntity
  8
CONSTRUCTION
100
AcDbLine
 10
94.5
 20
833.0
 30
0.0
 11
44.5
 21
833.0
 31
0.0
  0
LINE
  5
92
330
1F
100
AcDbEntity
  8
CONSTRUCTION
100
AcDbLine
 10
44.5
 20
833.0
 30
0.0
 11
45.392628311
 21
833.0
 31
0.0
  0
LINE
  5
93
330
1F
100
AcDbEntity
  8
CONSTRUCTION
100
AcDbLine
 10
44.5
 20
833.0
 30
0.0
 11
32.0
 21
833.0
 31
0.0
  0
LINE
  5
94
330
1F
100
AcDbEntity
  8
BORDER
370
    35
100
AcDbLine
 10
644.5
 20
836.0
 30
0.0
 11
644.5
 21
831.0
 31
0.0
  0
LINE
  5
95
330
1F
100
AcDbEntity
  8
BORDER
370
    35
100
AcDbLine
 10
694.5
 20
836.0
 30
0.0
 11
694.5
 21
831.0
 31
0.0
  0
LINE
  5
96
330
1F
100
AcDbEntity
  8
BORDER
370
    35
100
AcDbLine
 10
744.5
 20
836.0
 30
0.0
 11
744.5
 21
831.0
 31
0.0
  0
LINE
  5
97
330
1F
100
AcDbEntity
  8
CONSTRUCTION
100
AcDbLine
 10
594.5
 20
0.0
 30
0.0
 11
594.5
 21
5.0
 31
0.0
  0
LINE
  5
98
330
1F
100
AcDbEntity
  8
BORDER
370
    35
100
AcDbLine
 10
794.5
 20
836.0
 30
0.0
 11
794.5
 21
831.0
 31
0.0
  0
LINE
  5
99
330
1F
100
AcDbEntity
  8
BORDER
370
    35
100
AcDbLine
 10
844.5
 20
836.0
 30
0.0
 11
844.5
 21
831.0
 31
0.0
  0
LINE
  5
9A
330
1F
100
AcDbEntity
  8
BORDER
370
    35
100
AcDbLine
 10
894.5
 20
836.0
 30
0.0
 11
894.5
 21
831.0
 31
0.0
  0
LINE
  5
9B
330
1F
100
AcDbEntity
  8
BORDER
370
    35
100
AcDbLine
 10
944.5
 20
836.0
 30
0.0
 11
944.5
 21
831.0
 31
0.0
  0
LINE
  5
9C
330
1F
100
AcDbEntity
  8
BORDER
370
    35
100
AcDbLine
 10
994.5
 20
836.0
 30
0.0
 11
994.5
 21
831.0
 31
0.0
  0
LINE
  5
9D
330
1F
100
AcDbEntity
  8
BORDER
370
    35
100
AcDbLine
 10
1044.5
 20
836.0
 30
0.0
 11
1044.5
 21
831.0
 31
0.0
  0
LINE
  5
9E
330
1F
100
AcDbEntity
  8
CONSTRUCTION
100
AcDbLine
 10
0.0
 20
0.0
 30
0.0
 11
1189.0
 21
0.0
 31
0.0
  0
LINE
  5
9F
330
1F
100
AcDbEntity
  8
BORDER
370
    35
100
AcDbLine
 10
1094.5
 20
836.0
 30
0.0
 11
1094.5
 21
831.0
 31
0.0
  0
LINE
  5
A0
330
1F
100
AcDbEntity
  8
BORDER
370
    35
100
AcDbLine
 10
1144.5
 20
836.0
 30
0.0
 11
1144.5
 21
831.0
 31
0.0
  0
LINE
  5
A1
330
1F
100
AcDbEntity
  8
CONSTRUCTION
100
AcDbLine
 10
594.5
 20
833.0
 30
0.0
 11
644.5
 21
833.0
 31
0.0
  0
LINE
  5
A2
330
1F
100
AcDbEntity
  8
CONSTRUCTION
100
AcDbLine
 10
644.5
 20
833.0
 30
0.0
 11
694.5
 21
833.0
 31
0.0
  0
LINE
  5
A3
330
1F
100
AcDbEntity
  8
BORDER
370
    35
100
AcDbLine
 10
1116.0540298162
 20
33.5703270608
 30
0.0
 11
1059.03635229
 21
33.5703270608
 31
0.0
  0
LINE
  5
A4
330
1F
100
AcDbEntity
  8
BORDER
370
    35
100
AcDbLine
 10
1147.5699836286
 20
52.0001454479
 30
0.0
 11
1147.5699836286
 21
33.5703270608
 31
0.0
  0
LINE
  5
A5
330
1F
100
AcDbEntity
  8
BORDER
  6
Continuous
370
    35
100
AcDbLine
 10
1134.9813812184
 20
10.0001454479
 30
0.0
 11
1134.9813812184
 21
33.5703270608
 31
0.0
  0
LINE
  5
A6
330
1F
100
AcDbEntity
  8
BORDER
370
    35
100
AcDbLine
 10
1179.0
 20
42.5703270608
 30
0.0
 11
1116.0540298162
 21
42.5703270608
 31
0.0
  0
LINE
  5
A7
330
1F
100
AcDbEntity
  8
BORDER
370
    35
100
AcDbLine
 10
1116.0540298162
 20
24.5703270608
 30
0.0
 11
1089.03635229
 21
24.5703270608
 31
0.0
  0
LINE
  5
A8
330
1F
100
AcDbEntity
  8
CONSTRUCTION
100
AcDbLine
 10
1167.2
 20
24.5703270608
 30
0.0
 11
1179.0
 21
10.0001454479
 31
0.0
  0
LINE
  5
A9
330
1F
100
AcDbEntity
  8
BORDER
  6
Continuous
370
    35
100
AcDbLine
 10
1167.2
 20
10.0001454479
 30
0.0
 11
1167.2
 21
24.5703270608
 31
0.0
  0
LINE
  5
AA
330
1F
100
AcDbEntity
  8
BORDER
  6
Continuous
370
    35
100
AcDbLine
 10
1179.0
 20
24.5703270608
 30
0.0
 11
1116.0540298162
 21
24.5703270608
 31
0.0
  0
LINE
  5
AB
330
1F
100
AcDbEntity
  8
BORDER
  6
Continuous
370
    35
100
AcDbLine
 10
1152.2
 20
10.0001454479
 30
0.0
 11
1152.2
 21
24.5703270608
 31
0.0
  0
LINE
  5
AC
330
1F
100
AcDbEntity
  8
BORDER
100
AcDbLine
 10
1067.7146581068
 20
14.8656048577
 30
0.0
 11
1079.7284011771
 21
14.8656048577
 31
0.0
  0
LINE
  5
AD
330
1F
100
AcDbEntity
  8
BORDER
370
    70
100
AcDbLine
 10
1059.03635229
 20
52.0001454479
 30
0.0
 11
1179.03635229
 21
52.0001454479
 31
0.0
  0
LINE
  5
AE
330
1F
100
AcDbEntity
  8
BORDER
  6
Continuous
370
    70
100
AcDbLine
 10
1059.03635229
 20
52.0001454479
 30
0.0
 11
1059.03635229
 21
10.0001454479
 31
0.0
  0
LINE
  5
AF
330
1F
100
AcDbEntity
  8
CONSTRUCTION
100
AcDbLine
 10
694.5
 20
833.0
 30
0.0
 11
744.5
 21
833.0
 31
0.0
  0
LINE
  5
B0
330
1F
100
AcDbEntity
  8
CONSTRUCTION
100
AcDbLine
 10
744.5
 20
833.0
 30
0.0
 11
794.5
 21
833.0
 31
0.0
  0
LINE
  5
B1
330
1F
100
AcDbEntity
  8
BORDER
370
    35
100
AcDbLine
 10
1116.0540298162
 20
52.0001454479
 30
0.0
 11
1116.0540298162
 21
10.0001454479
 31
0.0
  0
LINE
  5
B2
330
1F
100
AcDbEntity
  8
CONSTRUCTION
100
AcDbLine
 10
794.5
 20
833.0
 30
0.0
 11
844.5
 21
833.0
 31
0.0
  0
LINE
  5
B3
330
1F
100
AcDbEntity
  8
CONSTRUCTION
100
AcDbLine
 10
844.5
 20
833.0
 30
0.0
 11
894.5
 21
833.0
 31
0.0
  0
LINE
  5
B4
330
1F
100
AcDbEntity
  8
CONSTRUCTION
100
AcDbLine
 10
894.5
 20
833.0
 30
0.0
 11
944.5
 21
833.0
 31
0.0
  0
LINE
  5
B5
330
1F
100
AcDbEntity
  8
CONSTRUCTION
100
AcDbLine
 10
944.5
 20
833.0
 30
0.0
 11
994.5
 21
833.0
 31
0.0
  0
LINE
  5
B6
330
1F
100
AcDbEntity
  8
CONSTRUCTION
100
AcDbLine
 10
994.5
 20
833.0
 30
0.0
 11
1044.5
 21
833.0
 31
0.0
  0
LINE
  5
B7
330
1F
100
AcDbEntity
  8
CONSTRUCTION
100
AcDbLine
 10
1044.5
 20
833.0
 30
0.0
 11
1094.5
 21
833.0
 31
0.0
  0
LINE
  5
B8
330
1F
100
AcDbEntity
  8
CONSTRUCTION
100
AcDbLine
 10
1094.5
 20
833.0
 30
0.0
 11
1144.5
 21
833.0
 31
0.0
  0
LINE
  5
B9
330
1F
100
AcDbEntity
  8
CONSTRUCTION
100
AcDbLine
 10
1144.5
 20
833.0
 30
0.0
 11
1169.5
 21
833.0
 31
0.0
  0
LINE
  5
BA
330
1F
100
AcDbEntity
  8
BORDER
370
    35
100
AcDbLine
 10
1179.0
 20
470.5
 30
0.0
 11
1184.0
 21
470.5
 31
0.0
  0
LINE
  5
BB
330
1F
100
AcDbEntity
  8
BORDER
370
    35
100
AcDbLine
 10
1179.0
 20
520.5
 30
0.0
 11
1184.0
 21
520.5
 31
0.0
  0
LINE
  5
BC
330
1F
100
AcDbEntity
  8
BORDER
370
    35
100
AcDbLine
 10
1179.0
 20
570.5
 30
0.0
 11
1184.0
 21
570.5
 31
0.0
  0
LINE
  5
BD
330
1F
100
AcDbEntity
  8
BORDER
370
    35
100
AcDbLine
 10
1179.0
 20
620.5
 30
0.0
 11
1184.0
 21
620.5
 31
0.0
  0
LINE
  5
BE
330
1F
100
AcDbEntity
  8
BORDER
370
    35
100
AcDbLine
 10
1179.0
 20
670.5
 30
0.0
 11
1184.0
 21
670.5
 31
0.0
  0
LINE
  5
BF
330
1F
100
AcDbEntity
  8
BORDER
370
    35
100
AcDbLine
 10
1179.0
 20
720.5
 30
0.0
 11
1184.0
 21
720.5
 31
0.0
  0
LINE
  5
C0
330
1F
100
AcDbEntity
  8
BORDER
370
    35
100
AcDbLine
 10
1179.0
 20
770.5
 30
0.0
 11
1184.0
 21
770.5
 31
0.0
  0
LINE
  5
C1
330
1F
100
AcDbEntity
  8
CONSTRUCTION
100
AcDbLine
 10
1181.5
 20
770.5
 30
0.0
 11
1181.5
 21
820.5
 31
0.0
  0
LINE
  5
C2
330
1F
100
AcDbEntity
  8
CONSTRUCTION
100
AcDbLine
 10
1181.5
 20
770.5
 30
0.0
 11
1181.5
 21
720.5
 31
0.0
  0
LINE
  5
C3
330
1F
100
AcDbEntity
  8
CONSTRUCTION
100
AcDbLine
 10
1181.5
 20
720.5
 30
0.0
 11
1181.5
 21
670.5
 31
0.0
  0
LINE
  5
C4
330
1F
100
AcDbEntity
  8
CONSTRUCTION
100
AcDbLine
 10
1181.5
 20
670.5
 30
0.0
 11
1181.5
 21
620.5
 31
0.0
  0
LINE
  5
C5
330
1F
100
AcDbEntity
  8
CONSTRUCTION
100
AcDbLine
 10
1181.5
 20
620.5
 30
0.0
 11
1181.5
 21
570.5
 31
0.0
  0
LINE
  5
C6
330
1F
100
AcDbEntity
  8
CONSTRUCTION
100
AcDbLine
 10
1181.5
 20
570.5
 30
0.0
 11
1181.5
 21
520.5
 31
0.0
  0
LINE
  5
C7
330
1F
100
AcDbEntity
  8
CONSTRUCTION
100
AcDbLine
 10
1181.5
 20
520.5
 30
0.0
 11
1181.5
 21
470.5
 31
0.0
  0
LINE
  5
C8
330
1F
100
AcDbEntity
  8
CONSTRUCTION
100
AcDbLine
 10
1181.5
 20
470.5
 30
0.0
 11
1181.5
 21
420.5
 31
0.0
  0
LINE
  5
C9
330
1F
100
AcDbEntity
  8
BORDER
370
    35
100
AcDbLine
 10
1179.0
 20
370.5
 30
0.0
 11
1184.0
 21
370.5
 31
0.0
  0
LINE
  5
CA
330
1F
100
AcDbEntity
  8
BORDER
370
    35
100
AcDbLine
 10
1179.0
 20
320.5
 30
0.0
 11
1184.0
 21
320.5
 31
0.0
  0
LINE
  5
CB
330
1F
100
AcDbEntity
  8
BORDER
  6
Continuous
370
    35
100
AcDbLine
 10
1074.1558991771
 20
16.1156048577
 30
0.0
 11
1074.1558991771
 21
13.6156048577
 31
0.0
  0
LINE
  5
CC
330
1F
100
AcDbEntity
  8
BORDER
  6
Continuous
370
    35
100
AcDbLine
 10
1074.1558991771
 20
13.6156048577
 30
0.0
 11
1079.1558991771
 21
12.3656048577
 31
0.0
  0
LINE
  5
CD
330
1F
100
AcDbEntity
  8
BORDER
  6
Continuous
370
    35
100
AcDbLine
 10
1079.1558991771
 20
12.3656048577
 30
0.0
 11
1079.1558991771
 21
17.3656048577
 31
0.0
  0
LINE
  5
CE
330
1F
100
AcDbEntity
  8
CONSTRUCTION
100
AcDbLine
 10
0.0
 20
0.0
 30
0.0
 11
0.0
 21
841.0
 31
0.0
  0
LINE
  5
CF
330
1F
100
AcDbEntity
  8
BORDER
370
    35
100
AcDbLine
 10
1179.0
 20
270.5
 30
0.0
 11
1184.0
 21
270.5
 31
0.0
  0
LINE
  5
D0
330
1F
100
AcDbEntity
  8
CONSTRUCTION
100
AcDbLine
 10
0.0
 20
841.0
 30
0.0
 11
1189.0
 21
841.0
 31
0.0
  0
LINE
  5
D1
330
1F
100
AcDbEntity
  8
CONSTRUCTION
100
AcDbLine
 10
1189.0
 20
0.0
 30
0.0
 11
1189.0
 21
841.0
 31
0.0
  0
LINE
  5
D2
330
1F
100
AcDbEntity
  8
BORDER
370
    35
100
AcDbLine
 10
15.0
 20
836.0
 30
0.0
 11
1184.0
 21
836.0
 31
0.0
  0
LINE
  5
D3
330
1F
100
AcDbEntity
  8
BORDER
370
    35
100
AcDbLine
 10
15.0
 20
836.0
 30
0.0
 11
15.0
 21
5.0
 31
0.0
  0
LINE
  5
D4
330
1F
100
AcDbEntity
  8
BORDER
370
    35
100
AcDbLine
 10
15.0
 20
5.0
 30
0.0
 11
1184.0
 21
5.0
 31
0.0
  0
LINE
  5
D5
330
1F
100
AcDbEntity
  8
BORDER
370
    35
100
AcDbLine
 10
1184.0
 20
836.0
 30
0.0
 11
1184.0
 21
5.0
 31
0.0
  0
LINE
  5
D6
330
1F
100
AcDbEntity
  8
BORDER
370
    50
100
AcDbLine
 10
20.0
 20
831.0
 30
0.0
 11
1179.0
 21
831.0
 31
0.0
  0
LINE
  5
D7
330
1F
100
AcDbEntity
  8
BORDER
370
    70
100
AcDbLine
 10
20.0
 20
831.0
 30
0.0
 11
20.0
 21
10.0001454479
 31
0.0
  0
LINE
  5
D8
330
1F
100
AcDbEntity
  8
BORDER
370
    70
100
AcDbLine
 10
20.0
 20
10.0001454479
 30
0.0
 11
1179.0
 21
10.0001454479
 31
0.0
  0
LINE
  5
D9
330
1F
100
AcDbEntity
  8
BORDER
370
    50
100
AcDbLine
 10
1179.0
 20
831.0
 30
0.0
 11
1179.0
 21
10.0001454479
 31
0.0
  0
LINE
  5
DA
330
1F
100
AcDbEntity
  8
CONSTRUCTION
100
AcDbLine
 10
594.5
 20
841.0
 30
0.0
 11
594.5
 21
836.0
 31
0.0
  0
LINE
  5
DB
330
1F
100
AcDbEntity
  8
BORDER
370
    35
100
AcDbLine
 10
1179.0
 20
220.5
 30
0.0
 11
1184.0
 21
220.5
 31
0.0
  0
LINE
  5
DC
330
1F
100
AcDbEntity
  8
BORDER
370
    50
100
AcDbLine
 10
594.5
 20
836.0
 30
0.0
 11
594.5
 21
826.0
 31
0.0
  0
LINE
  5
DD
330
1F
100
AcDbEntity
  8
BORDER
370
    50
100
AcDbLine
 10
594.5
 20
5.0
 30
0.0
 11
594.5
 21
10.0001454479
 31
0.0
  0
LINE
  5
DE
330
1F
100
AcDbEntity
  8
BORDER
370
    50
100
AcDbLine
 10
15.0
 20
420.5
 30
0.0
 11
25.0
 21
420.5
 31
0.0
  0
LINE
  5
DF
330
1F
100
AcDbEntity
  8
BORDER
370
    50
100
AcDbLine
 10
1184.0
 20
420.5
 30
0.0
 11
1174.0
 21
420.5
 31
0.0
  0
LINE
  5
E0
330
1F
100
AcDbEntity
  8
BORDER
370
    35
100
AcDbLine
 10
544.5
 20
10.0001454479
 30
0.0
 11
544.5
 21
5.0
 31
0.0
  0
LINE
  5
E1
330
1F
100
AcDbEntity
  8
CONSTRUCTION
100
AcDbLine
 10
594.5
 20
7.0
 30
0.0
 11
544.5
 21
7.0
 31
0.0
  0
LINE
  5
E2
330
1F
100
AcDbEntity
  8
BORDER
370
    35
100
AcDbLine
 10
494.5
 20
10.0001454479
 30
0.0
 11
494.5
 21
5.0
 31
0.0
  0
LINE
  5
E3
330
1F
100
AcDbEntity
  8
BORDER
370
    35
100
AcDbLine
 10
444.5
 20
10.0001454479
 30
0.0
 11
444.5
 21
5.0
 31
0.0
  0
LINE
  5
E4
330
1F
100
AcDbEntity
  8
BORDER
370
    35
100
AcDbLine
 10
394.5
 20
10.0001454479
 30
0.0
 11
394.5
 21
5.0
 31
0.0
  0
LINE
  5
E5
330
1F
100
AcDbEntity
  8
BORDER
  6
Continuous
370
    35
100
AcDbLine
 10
1079.1558991771
 20
17.3656048577
 30
0.0
 11
1074.1558991771
 21
16.1156048577
 31
0.0
  0
LINE
  5
E6
330
1F
100
AcDbEntity
  8
BORDER
370
    35
100
AcDbLine
 10
1179.0859374411
 20
33.5703270608
 30
0.0
 11
1116.0540298162
 21
33.5703270608
 31
0.0
  0
LINE
  5
E7
330
1F
100
AcDbEntity
  8
BORDER
370
    35
100
AcDbLine
 10
344.5
 20
10.0001454479
 30
0.0
 11
344.5
 21
5.0
 31
0.0
  0
LINE
  5
E8
330
1F
100
AcDbEntity
  8
BORDER
370
    35
100
AcDbLine
 10
294.5
 20
10.0001454479
 30
0.0
 11
294.5
 21
5.0
 31
0.0
  0
LINE
  5
E9
330
1F
100
AcDbEntity
  8
BORDER
370
    35
100
AcDbLine
 10
244.5
 20
10.0001454479
 30
0.0
 11
244.5
 21
5.0
 31
0.0
  0
LINE
  5
EA
330
1F
100
AcDbEntity
  8
BORDER
370
    35
100
AcDbLine
 10
194.5
 20
10.0001454479
 30
0.0
 11
194.5
 21
5.0
 31
0.0
  0
LINE
  5
EB
330
1F
100
AcDbEntity
  8
BORDER
370
    35
100
AcDbLine
 10
144.5
 20
10.0001454479
 30
0.0
 11
144.5
 21
5.0
 31
0.0
  0
LINE
  5
EC
330
1F
100
AcDbEntity
  8
BORDER
370
    35
100
AcDbLine
 10
94.5
 20
10.0001454479
 30
0.0
 11
94.5
 21
5.0
 31
0.0
  0
LINE
  5
ED
330
1F
100
AcDbEntity
  8
CONSTRUCTION
100
AcDbLine
 10
544.5
 20
7.0
 30
0.0
 11
494.5
 21
7.0
 31
0.0
  0
LINE
  5
EE
330
1F
100
AcDbEntity
  8
CONSTRUCTION
100
AcDbLine
 10
494.5
 20
7.0
 30
0.0
 11
444.5
 21
7.0
 31
0.0
  0
LINE
  5
EF
330
1F
100
AcDbEntity
  8
CONSTRUCTION
100
AcDbLine
 10
444.5
 20
7.0
 30
0.0
 11
394.5
 21
7.0
 31
0.0
  0
LINE
  5
F0
330
1F
100
AcDbEntity
  8
CONSTRUCTION
100
AcDbLine
 10
394.5
 20
7.0
 30
0.0
 11
344.5
 21
7.0
 31
0.0
  0
LINE
  5
F1
330
1F
100
AcDbEntity
  8
CONSTRUCTION
100
AcDbLine
 10
344.5
 20
7.0
 30
0.0
 11
294.5
 21
7.0
 31
0.0
  0
LINE
  5
F2
330
1F
100
AcDbEntity
  8
CONSTRUCTION
100
AcDbLine
 10
294.5
 20
7.0
 30
0.0
 11
244.5
 21
7.0
 31
0.0
  0
LINE
  5
F3
330
1F
100
AcDbEntity
  8
CONSTRUCTION
100
AcDbLine
 10
244.5
 20
7.0
 30
0.0
 11
194.5
 21
7.0
 31
0.0
  0
LINE
  5
F4
330
1F
100
AcDbEntity
  8
CONSTRUCTION
100
AcDbLine
 10
194.5
 20
7.0
 30
0.0
 11
144.5
 21
7.0
 31
0.0
  0
LINE
  5
F5
330
1F
100
AcDbEntity
  8
BORDER
370
    35
100
AcDbLine
 10
1179.0
 20
170.5
 30
0.0
 11
1184.0
 21
170.5
 31
0.0
  0
LINE
  5
F6
330
1F
100
AcDbEntity
  8
CONSTRUCTION
100
AcDbLine
 10
144.5
 20
7.0
 30
0.0
 11
94.5
 21
7.0
 31
0.0
  0
LINE
  5
F7
330
1F
100
AcDbEntity
  8
CONSTRUCTION
100
AcDbLine
 10
94.5
 20
7.0
 30
0.0
 11
44.5
 21
7.0
 31
0.0
  0
LINE
  5
F8
330
1F
100
AcDbEntity
  8
BORDER
370
    35
100
AcDbLine
 10
44.5
 20
10.0001454479
 30
0.0
 11
44.5
 21
5.0
 31
0.0
  0
LINE
  5
F9
330
1F
100
AcDbEntity
  8
CONSTRUCTION
100
AcDbLine
 10
44.5
 20
7.0
 30
0.0
 11
32.0
 21
7.0
 31
0.0
  0
LINE
  5
FA
330
1F
100
AcDbEntity
  8
BORDER
370
    35
100
AcDbLine
 10
644.5
 20
10.0001454479
 30
0.0
 11
644.5
 21
5.0
 31
0.0
  0
LINE
  5
FB
330
1F
100
AcDbEntity
  8
BORDER
370
    35
100
AcDbLine
 10
694.5
 20
10.0001454479
 30
0.0
 11
694.5
 21
5.0
 31
0.0
  0
LINE
  5
FC
330
1F
100
AcDbEntity
  8
BORDER
370
    35
100
AcDbLine
 10
744.5
 20
10.0001454479
 30
0.0
 11
744.5
 21
5.0
 31
0.0
  0
LINE
  5
FD
330
1F
100
AcDbEntity
  8
BORDER
370
    35
100
AcDbLine
 10
794.5
 20
10.0001454479
 30
0.0
 11
794.5
 21
5.0
 31
0.0
  0
LINE
  5
FE
330
1F
100
AcDbEntity
  8
BORDER
370
    35
100
AcDbLine
 10
844.5
 20
10.0001454479
 30
0.0
 11
844.5
 21
5.0
 31
0.0
  0
LINE
  5
FF
330
1F
100
AcDbEntity
  8
BORDER
370
    35
100
AcDbLine
 10
894.5
 20
10.0001454479
 30
0.0
 11
894.5
 21
5.0
 31
0.0
  0
LINE
  5
100
330
1F
100
AcDbEntity
  8
BORDER
370
    35
100
AcDbLine
 10
944.5
 20
10.0001454479
 30
0.0
 11
944.5
 21
5.0
 31
0.0
  0
LINE
  5
101
330
1F
100
AcDbEntity
  8
BORDER
370
    35
100
AcDbLine
 10
994.5
 20
10.0001454479
 30
0.0
 11
994.5
 21
5.0
 31
0.0
  0
LINE
  5
102
330
1F
100
AcDbEntity
  8
BORDER
370
    35
100
AcDbLine
 10
1044.5
 20
10.0001454479
 30
0.0
 11
1044.5
 21
5.0
 31
0.0
  0
LINE
  5
103
330
1F
100
AcDbEntity
  8
BORDER
370
    35
100
AcDbLine
 10
1094.5381397543
 20
10.0001454479
 30
0.0
 11
1094.4745747298
 21
5.0
 31
0.0
  0
LINE
  5
104
330
1F
100
AcDbEntity
  8
BORDER
370
    35
100
AcDbLine
 10
1144.5
 20
10.0001454479
 30
0.0
 11
1144.5
 21
5.0
 31
0.0
  0
LINE
  5
105
330
1F
100
AcDbEntity
  8
CONSTRUCTION
100
AcDbLine
 10
594.5
 20
7.0
 30
0.0
 11
644.5
 21
7.0
 31
0.0
  0
LINE
  5
106
330
1F
100
AcDbEntity
  8
CONSTRUCTION
100
AcDbLine
 10
644.5
 20
7.0
 30
0.0
 11
694.5
 21
7.0
 31
0.0
  0
LINE
  5
107
330
1F
100
AcDbEntity
  8
CONSTRUCTION
100
AcDbLine
 10
694.5
 20
7.0
 30
0.0
 11
744.5
 21
7.0
 31
0.0
  0
LINE
  5
108
330
1F
100
AcDbEntity
  8
CONSTRUCTION
100
AcDbLine
 10
744.5
 20
7.0
 30
0.0
 11
794.5
 21
7.0
 31
0.0
  0
LINE
  5
109
330
1F
100
AcDbEntity
  8
CONSTRUCTION
100
AcDbLine
 10
794.5
 20
7.0
 30
0.0
 11
844.5
 21
7.0
 31
0.0
  0
LINE
  5
10A
330
1F
100
AcDbEntity
  8
CONSTRUCTION
100
AcDbLine
 10
844.5
 20
7.0
 30
0.0
 11
894.5
 21
7.0
 31
0.0
  0
LINE
  5
10B
330
1F
100
AcDbEntity
  8
CONSTRUCTION
100
AcDbLine
 10
894.5
 20
7.0
 30
0.0
 11
944.5
 21
7.0
 31
0.0
  0
LINE
  5
10C
330
1F
100
AcDbEntity
  8
CONSTRUCTION
100
AcDbLine
 10
944.5
 20
7.0
 30
0.0
 11
994.5
 21
7.0
 31
0.0
  0
LINE
  5
10D
330
1F
100
AcDbEntity
  8
CONSTRUCTION
100
AcDbLine
 10
994.5
 20
7.0
 30
0.0
 11
1044.5
 21
7.0
 31
0.0
  0
LINE
  5
10E
330
1F
100
AcDbEntity
  8
CONSTRUCTION
100
AcDbLine
 10
1044.5
 20
7.0
 30
0.0
 11
1094.5
 21
7.0
 31
0.0
  0
LINE
  5
10F
330
1F
100
AcDbEntity
  8
CONSTRUCTION
100
AcDbLine
 10
1094.5
 20
7.0
 30
0.0
 11
1144.5
 21
7.0
 31
0.0
  0
LINE
  5
110
330
1F
100
AcDbEntity
  8
CONSTRUCTION
100
AcDbLine
 10
1144.5
 20
7.0
 30
0.0
 11
1169.5
 21
7.0
 31
0.0
  0
LINE
  5
111
330
1F
100
AcDbEntity
  8
TRIM
100
AcDbLine
 10
0.0
 20
0.0
 30
0.0
 11
0.0
 21
10.0
 31
0.0
  0
LINE
  5
112
330
1F
100
AcDbEntity
  8
BORDER
370
    35
100
AcDbLine
 10
1179.0
 20
120.5
 30
0.0
 11
1184.0
 21
120.5
 31
0.0
  0
LINE
  5
113
330
1F
100
AcDbEntity
  8
BORDER
370
    35
100
AcDbLine
 10
1179.0
 20
70.5
 30
0.0
 11
1184.0
 21
70.5
 31
0.0
  0
LINE
  5
114
330
1F
100
AcDbEntity
  8
TRIM
100
AcDbLine
 10
0.0
 20
10.0
 30
0.0
 11
5.0
 21
10.0
 31
0.0
  0
LINE
  5
115
330
1F
100
AcDbEntity
  8
TRIM
100
AcDbLine
 10
5.0
 20
10.0
 30
0.0
 11
5.0
 21
5.0
 31
0.0
  0
LINE
  5
116
330
1F
100
AcDbEntity
  8
TRIM
100
AcDbLine
 10
5.0
 20
5.0
 30
0.0
 11
10.0
 21
5.0
 31
0.0
  0
LINE
  5
117
330
1F
100
AcDbEntity
  8
TRIM
100
AcDbLine
 10
10.0
 20
5.0
 30
0.0
 11
10.0
 21
0.0
 31
0.0
  0
LINE
  5
118
330
1F
100
AcDbEntity
  8
TRIM
100
AcDbLine
 10
0.0
 20
841.0
 30
0.0
 11
10.0
 21
841.0
 31
0.0
  0
LINE
  5
119
330
1F
100
AcDbEntity
  8
CONSTRUCTION
100
AcDbLine
 10
1181.5
 20
420.5
 30
0.0
 11
1181.5
 21
370.5
 31
0.0
  0
LINE
  5
11A
330
1F
100
AcDbEntity
  8
TRIM
100
AcDbLine
 10
10.0
 20
0.0
 30
0.0
 11
0.0
 21
0.0
 31
0.0
  0
LINE
  5
11B
330
1F
100
AcDbEntity
  8
BORDER
370
    35
100
AcDbLine
 10
15.0
 20
370.5
 30
0.0
 11
20.0
 21
370.5
 31
0.0
  0
LINE
  5
11C
330
1F
100
AcDbEntity
  8
BORDER
370
    35
100
AcDbLine
 10
15.0
 20
320.5
 30
0.0
 11
20.0
 21
320.5
 31
0.0
  0
LINE
  5
11D
330
1F
100
AcDbEntity
  8
BORDER
370
    35
100
AcDbLine
 10
15.0
 20
270.5
 30
0.0
 11
20.0
 21
270.5
 31
0.0
  0
LINE
  5
11E
330
1F
100
AcDbEntity
  8
BORDER
370
    35
100
AcDbLine
 10
15.0
 20
220.5
 30
0.0
 11
20.0
 21
220.5
 31
0.0
  0
LINE
  5
11F
330
1F
100
AcDbEntity
  8
BORDER
370
    35
100
AcDbLine
 10
15.0
 20
170.5
 30
0.0
 11
20.0
 21
170.5
 31
0.0
  0
LINE
  5
120
330
1F
100
AcDbEntity
  8
CONSTRUCTION
100
AcDbLine
 10
1181.5
 20
370.5
 30
0.0
 11
1181.5
 21
320.5
 31
0.0
  0
LINE
  5
121
330
1F
100
AcDbEntity
  8
CONSTRUCTION
100
AcDbLine
 10
1181.5
 20
320.5
 30
0.0
 11
1181.5
 21
270.5
 31
0.0
  0
LINE
  5
122
330
1F
100
AcDbEntity
  8
CONSTRUCTION
100
AcDbLine
 10
1181.5
 20
270.5
 30
0.0
 11
1181.5
 21
220.5
 31
0.0
  0
LINE
  5
123
330
1F
100
AcDbEntity
  8
BORDER
370
    35
100
AcDbLine
 10
15.0
 20
120.5
 30
0.0
 11
20.0
 21
120.5
 31
0.0
  0
LINE
  5
124
330
1F
100
AcDbEntity
  8
CONSTRUCTION
100
AcDbLine
 10
1181.5
 20
220.5
 30
0.0
 11
1181.5
 21
170.5
 31
0.0
  0
LINE
  5
125
330
1F
100
AcDbEntity
  8
CONSTRUCTION
100
AcDbLine
 10
1181.5
 20
170.5
 30
0.0
 11
1181.5
 21
120.5
 31
0.0
  0
LINE
  5
126
330
1F
100
AcDbEntity
  8
BORDER
370
    35
100
AcDbLine
 10
15.0
 20
70.5
 30
0.0
 11
20.0
 21
70.5
 31
0.0
  0
LINE
  5
127
330
1F
100
AcDbEntity
  8
CONSTRUCTION
100
AcDbLine
 10
1181.5
 20
120.5
 30
0.0
 11
1181.5
 21
70.5
 31
0.0
  0
LINE
  5
128
330
1F
100
AcDbEntity
  8
CONSTRUCTION
100
AcDbLine
 10
1181.5
 20
70.5
 30
0.0
 11
1181.5
 21
20.5
 31
0.0
  0
LINE
  5
129
330
1F
100
AcDbEntity
  8
BORDER
370
    35
100
AcDbLine
 10
15.0
 20
470.5
 30
0.0
 11
20.0
 21
470.5
 31
0.0
  0
LINE
  5
12A
330
1F
100
AcDbEntity
  8
TRIM
100
AcDbLine
 10
10.0
 20
841.0
 30
0.0
 11
10.0
 21
836.0
 31
0.0
  0
LINE
  5
12B
330
1F
100
AcDbEntity
  8
TRIM
100
AcDbLine
 10
10.0
 20
836.0
 30
0.0
 11
5.0
 21
836.0
 31
0.0
  0
LINE
  5
12C
330
1F
100
AcDbEntity
  8
TRIM
100
AcDbLine
 10
5.0
 20
836.0
 30
0.0
 11
5.0
 21
831.0
 31
0.0
  0
LINE
  5
12D
330
1F
100
AcDbEntity
  8
TRIM
100
AcDbLine
 10
5.0
 20
831.0
 30
0.0
 11
0.0
 21
831.0
 31
0.0
  0
LINE
  5
12E
330
1F
100
AcDbEntity
  8
CONSTRUCTION
100
AcDbLine
 10
17.5
 20
370.5
 30
0.0
 11
17.5
 21
420.5
 31
0.0
  0
LINE
  5
12F
330
1F
100
AcDbEntity
  8
CONSTRUCTION
100
AcDbLine
 10
17.5
 20
370.5
 30
0.0
 11
17.5
 21
320.5
 31
0.0
  0
LINE
  5
130
330
1F
100
AcDbEntity
  8
CONSTRUCTION
100
AcDbLine
 10
17.5
 20
320.5
 30
0.0
 11
17.5
 21
270.5
 31
0.0
  0
LINE
  5
131
330
1F
100
AcDbEntity
  8
CONSTRUCTION
100
AcDbLine
 10
17.5
 20
270.5
 30
0.0
 11
17.5
 21
220.5
 31
0.0
  0
LINE
  5
132
330
1F
100
AcDbEntity
  8
CONSTRUCTION
100
AcDbLine
 10
17.5
 20
220.5
 30
0.0
 11
17.5
 21
170.5
 31
0.0
  0
LINE
  5
133
330
1F
100
AcDbEntity
  8
CONSTRUCTION
100
AcDbLine
 10
17.5
 20
170.5
 30
0.0
 11
17.5
 21
120.5
 31
0.0
  0
LINE
  5
134
330
1F
100
AcDbEntity
  8
CONSTRUCTION
100
AcDbLine
 10
17.5
 20
120.5
 30
0.0
 11
17.5
 21
70.5
 31
0.0
  0
LINE
  5
135
330
1F
100
AcDbEntity
  8
CONSTRUCTION
100
AcDbLine
 10
17.5
 20
70.5
 30
0.0
 11
17.5
 21
20.5
 31
0.0
  0
LINE
  5
136
330
1F
100
AcDbEntity
  8
BORDER
370
    35
100
AcDbLine
 10
15.0
 20
520.5
 30
0.0
 11
20.0
 21
520.5
 31
0.0
  0
LINE
  5
137
330
1F
100
AcDbEntity
  8
BORDER
370
    35
100
AcDbLine
 10
15.0
 20
570.5
 30
0.0
 11
20.0
 21
570.5
 31
0.0
  0
LINE
  5
138
330
1F
100
AcDbEntity
  8
BORDER
370
    35
100
AcDbLine
 10
15.0
 20
620.5
 30
0.0
 11
20.0
 21
620.5
 31
0.0
  0
LINE
  5
139
330
1F
100
AcDbEntity
  8
BORDER
370
    35
100
AcDbLine
 10
15.0
 20
670.5
 30
0.0
 11
20.0
 21
670.5
 31
0.0
  0
LINE
  5
13A
330
1F
100
AcDbEntity
  8
BORDER
370
    35
100
AcDbLine
 10
15.0
 20
720.5
 30
0.0
 11
20.0
 21
720.5
 31
0.0
  0
LINE
  5
13B
330
1F
100
AcDbEntity
  8
BORDER
370
    35
100
AcDbLine
 10
15.0
 20
770.5
 30
0.0
 11
20.0
 21
770.5
 31
0.0
  0
LINE
  5
13C
330
1F
100
AcDbEntity
  8
CONSTRUCTION
100
AcDbLine
 10
17.5
 20
420.5
 30
0.0
 11
17.5
 21
470.5
 31
0.0
  0
LINE
  5
13D
330
1F
100
AcDbEntity
  8
CONSTRUCTION
100
AcDbLine
 10
17.5
 20
470.5
 30
0.0
 11
17.5
 21
520.5
 31
0.0
  0
LINE
  5
13E
330
1F
100
AcDbEntity
  8
CONSTRUCTION
100
AcDbLine
 10
17.5
 20
520.5
 30
0.0
 11
17.5
 21
570.5
 31
0.0
  0
LINE
  5
13F
330
1F
100
AcDbEntity
  8
CONSTRUCTION
100
AcDbLine
 10
17.5
 20
570.5
 30
0.0
 11
17.5
 21
620.5
 31
0.0
  0
LINE
  5
140
330
1F
100
AcDbEntity
  8
CONSTRUCTION
100
AcDbLine
 10
17.5
 20
620.5
 30
0.0
 11
17.5
 21
670.5
 31
0.0
  0
LINE
  5
141
330
1F
100
AcDbEntity
  8
CONSTRUCTION
100
AcDbLine
 10
17.5
 20
670.5
 30
0.0
 11
17.5
 21
720.5
 31
0.0
  0
LINE
  5
142
330
1F
100
AcDbEntity
  8
CONSTRUCTION
100
AcDbLine
 10
17.5
 20
720.5
 30
0.0
 11
17.5
 21
770.5
 31
0.0
  0
LINE
  5
143
330
1F
100
AcDbEntity
  8
CONSTRUCTION
100
AcDbLine
 10
17.5
 20
770.5
 30
0.0
 11
17.5
 21
820.5
 31
0.0
  0
LINE
  5
144
330
1F
100
AcDbEntity
  8
TRIM
100
AcDbLine
 10
0.0
 20
831.0
 30
0.0
 11
0.0
 21
841.0
 31
0.0
  0
LINE
  5
145
330
1F
100
AcDbEntity
  8
TRIM
100
AcDbLine
 10
1179.0
 20
841.0
 30
0.0
 11
1179.0
 21
836.0
 31
0.0
  0
LINE
  5
146
330
1F
100
AcDbEntity
  8
TRIM
100
AcDbLine
 10
1179.0
 20
836.0
 30
0.0
 11
1184.0
 21
836.0
 31
0.0
  0
LINE
  5
147
330
1F
100
AcDbEntity
  8
TRIM
100
AcDbLine
 10
1184.0
 20
831.0
 30
0.0
 11
1189.0
 21
831.0
 31
0.0
  0
LINE
  5
148
330
1F
100
AcDbEntity
  8
TRIM
100
AcDbLine
 10
1189.0
 20
831.0
 30
0.0
 11
1189.0
 21
841.0
 31
0.0
  0
LINE
  5
149
330
1F
100
AcDbEntity
  8
TRIM
100
AcDbLine
 10
1189.0
 20
841.0
 30
0.0
 11
1179.0
 21
841.0
 31
0.0
  0
LINE
  5
14A
330
1F
100
AcDbEntity
  8
TRIM
100
AcDbLine
 10
1184.0
 20
836.0
 30
0.0
 11
1184.0
 21
831.0
 31
0.0
  0
LINE
  5
14B
330
1F
100
AcDbEntity
  8
TRIM
100
AcDbLine
 10
1179.0
 20
0.0
 30
0.0
 11
1179.0
 21
5.0
 31
0.0
  0
LINE
  5
14C
330
1F
100
AcDbEntity
  8
BORDER
370
    35
100
AcDbLine
 10
1089.03635229
 20
24.5703270608
 30
0.0
 11
1059.0
 21
24.5703270608
 31
0.0
  0
LINE
  5
14D
330
1F
100
AcDbEntity
  8
BORDER
100
AcDbLine
 10
1071.2558991771
 20
18.0427931077
 30
0.0
 11
1071.2558991771
 21
11.5891294748
 31
0.0
  0
LINE
  5
14E
330
1F
100
AcDbEntity
  8
BORDER
370
    35
100
AcDbLine
 10
1089.03635229
 20
24.5703270608
 30
0.0
 11
1089.03635229
 21
10.0001454479
 31
0.0
  0
LINE
  5
14F
330
1F
100
AcDbEntity
  8
TRIM
100
AcDbLine
 10
1179.0
 20
5.0
 30
0.0
 11
1184.0
 21
5.0
 31
0.0
  0
LINE
  5
150
330
1F
100
AcDbEntity
  8
TRIM
100
AcDbLine
 10
1184.0
 20
5.0
 30
0.0
 11
1184.0
 21
10.0
 31
0.0
  0
LINE
  5
151
330
1F
100
AcDbEntity
  8
TRIM
100
AcDbLine
 10
1184.0
 20
10.0
 30
0.0
 11
1189.0
 21
10.0
 31
0.0
  0
LINE
  5
152
330
1F
100
AcDbEntity
  8
TRIM
100
AcDbLine
 10
1189.0
 20
10.0
 30
0.0
 11
1189.0
 21
0.0
 31
0.0
  0
LINE
  5
153
330
1F
100
AcDbEntity
  8
TRIM
100
AcDbLine
 10
1189.0
 20
0.0
 30
0.0
 11
1179.0
 21
0.0
 31
0.0
  0
CIRCLE
  5
154
330
1F
100
AcDbEntity
  8
BORDER
  6
Continuous
370
    35
100
AcDbCircle
 10
1071.2558991771
 20
14.8656048577
 30
0.0
 40
1.249999999999946
  0
CIRCLE
  5
155
330
1F
100
AcDbEntity
  8
BORDER
  6
Continuous
370
    35
100
AcDbCircle
 10
1071.2558991771
 20
14.8656048577
 30
0.0
 40
2.499999999999893
  0
MTEXT
  5
157
330
1F
100
AcDbEntity
  8
BORDER
100
AcDbMText
 10
1062.0967704022
 20
38.5871093086
 30
0.0
 40
3.175
 41
0.0
 71
     1
 72
     1
  1
018_Base_Top_Sr
  7
SLDTEXTSTYLE0
 73
     1
 44
1.0
  0
MTEXT
  5
159
330
1F
100
AcDbEntity
  8
BORDER
 62
     7
100
AcDbMText
 10
17.5045572398
 20
347.7420052165
 30
0.0
 40
3.5
 41
0.0
 71
     2
 72
     1
  1
K
  7
SLDTEXTSTYLE1
 73
     1
 44
1.0
  0
MTEXT
  5
15A
330
1F
100
AcDbEntity
  8
BORDER
 62
     7
100
AcDbMText
 10
17.5312933763
 20
397.7420052165
 30
0.0
 40
3.5
 41
0.0
 71
     2
 72
     1
  1
J
  7
SLDTEXTSTYLE1
 73
     1
 44
1.0
  0
MTEXT
  5
15B
330
1F
100
AcDbEntity
  8
BORDER
 62
     7
100
AcDbMText
 10
17.50850699
 20
447.7420052165
 30
0.0
 40
3.5
 41
0.0
 71
     2
 72
     1
  1
H
  7
SLDTEXTSTYLE1
 73
     1
 44
1.0
  0
MTEXT
  5
15C
330
1F
100
AcDbEntity
  8
BORDER
 62
     7
100
AcDbMText
 10
17.4705295293
 20
497.7420052165
 30
0.0
 40
3.5
 41
0.0
 71
     2
 72
     1
  1
G
  7
SLDTEXTSTYLE1
 73
     1
 44
1.0
  0
MTEXT
  5
15D
330
1F
100
AcDbEntity
  8
BORDER
 62
     7
100
AcDbMText
 10
17.5215712227
 20
597.7420052165
 30
0.0
 40
3.5
 41
0.0
 71
     2
 72
     1
  1
E
  7
SLDTEXTSTYLE1
 73
     1
 44
1.0
  0
MTEXT
  5
15E
330
1F
100
AcDbEntity
  8
BORDER
 62
     7
100
AcDbMText
 10
17.4921006672
 20
547.7420052165
 30
0.0
 40
3.5
 41
0.0
 71
     2
 72
     1
  1
F
  7
SLDTEXTSTYLE1
 73
     1
 44
1.0
  0
MTEXT
  5
15F
330
1F
100
AcDbEntity
  8
BORDER
 62
     7
100
AcDbMText
 10
17.5082031069
 20
297.7420052165
 30
0.0
 40
3.5
 41
0.0
 71
     2
 72
     1
  1
L
  7
SLDTEXTSTYLE1
 73
     1
 44
1.0
  0
MTEXT
  5
160
330
1F
100
AcDbEntity
  8
BORDER
 62
     7
100
AcDbMText
 10
269.5006075893
 20
9.2213323684
 30
0.0
 40
3.5
 41
0.0
 71
     2
 72
     1
  1
6
  7
SLDTEXTSTYLE1
 73
     1
 44
1.0
  0
MTEXT
  5
161
330
1F
100
AcDbEntity
  8
BORDER
 62
     7
100
AcDbMText
 10
519.6269965786
 20
9.2706814009
 30
0.0
 40
3.5
 41
0.0
 71
     2
 72
     1
  1
11
  7
SLDTEXTSTYLE1
 73
     1
 44
1.0
  0
MTEXT
  5
162
330
1F
100
AcDbEntity
  8
BORDER
 62
     7
100
AcDbMText
 10
419.5012152772
 20
9.2213323684
 30
0.0
 40
3.5
 41
0.0
 71
     2
 72
     1
  1
9
  7
SLDTEXTSTYLE1
 73
     1
 44
1.0
  0
MTEXT
  5
163
330
1F
100
AcDbEntity
  8
BORDER
 62
     7
100
AcDbMText
 10
69.5000000177
 20
9.2420052165
 30
0.0
 40
3.5
 41
0.0
 71
     2
 72
     1
  1
2
  7
SLDTEXTSTYLE1
 73
     1
 44
1.0
  0
MTEXT
  5
164
330
1F
100
AcDbEntity
  8
BORDER
 62
     7
100
AcDbMText
 10
32.0634982893
 20
9.2420052165
 30
0.0
 40
3.5
 41
0.0
 71
     2
 72
     1
  1
1
  7
SLDTEXTSTYLE1
 73
     1
 44
1.0
  0
MTEXT
  5
165
330
1F
100
AcDbEntity
  8
BORDER
 62
     7
100
AcDbMText
 10
219.5003038617
 20
9.2706814009
 30
0.0
 40
3.5
 41
0.0
 71
     2
 72
     1
  1
5
  7
SLDTEXTSTYLE1
 73
     1
 44
1.0
  0
MTEXT
  5
166
330
1F
100
AcDbEntity
  8
BORDER
 62
     7
100
AcDbMText
 10
569.563498307
 20
9.2746293235
 30
0.0
 40
3.5
 41
0.0
 71
     2
 72
     1
  1
12
  7
SLDTEXTSTYLE1
 73
     1
 44
1.0
  0
MTEXT
  5
167
330
1F
100
AcDbEntity
  8
BORDER
 62
     7
100
AcDbMText
 10
119.5021266928
 20
9.2667334783
 30
0.0
 40
3.5
 41
0.0
 71
     2
 72
     1
  1
3
  7
SLDTEXTSTYLE1
 73
     1
 44
1.0
  0
MTEXT
  5
168
330
1F
100
AcDbEntity
  8
BORDER
 62
     7
100
AcDbMText
 10
469.5659288261
 20
9.2213323684
 30
0.0
 40
3.5
 41
0.0
 71
     2
 72
     1
  1
10
  7
SLDTEXTSTYLE1
 73
     1
 44
1.0
  0
MTEXT
  5
169
330
1F
100
AcDbEntity
  8
BORDER
 62
     7
100
AcDbMText
 10
169.4939236036
 20
9.2213323684
 30
0.0
 40
3.5
 41
0.0
 71
     2
 72
     1
  1
4
  7
SLDTEXTSTYLE1
 73
     1
 44
1.0
  0
MTEXT
  5
16A
330
1F
100
AcDbEntity
  8
BORDER
 62
     7
100
AcDbMText
 10
319.5036457963
 20
9.2706814009
 30
0.0
 40
3.5
 41
0.0
 71
     2
 72
     1
  1
7
  7
SLDTEXTSTYLE1
 73
     1
 44
1.0
  0
MTEXT
  5
16B
330
1F
100
AcDbEntity
  8
BORDER
 62
     7
100
AcDbMText
 10
369.5009114332
 20
9.2706814009
 30
0.0
 40
3.5
 41
0.0
 71
     2
 72
     1
  1
8
  7
SLDTEXTSTYLE1
 73
     1
 44
1.0
  0
MTEXT
  5
16C
330
1F
100
AcDbEntity
  8
BORDER
 62
     7
100
AcDbMText
 10
17.4990885248
 20
647.7420052165
 30
0.0
 40
3.5
 41
0.0
 71
     2
 72
     1
  1
D
  7
SLDTEXTSTYLE1
 73
     1
 44
1.0
  0
MTEXT
  5
16D
330
1F
100
AcDbEntity
  8
BORDER
 62
     7
100
AcDbMText
 10
17.5197482752
 20
747.7420052165
 30
0.0
 40
3.5
 41
0.0
 71
     2
 72
     1
  1
B
  7
SLDTEXTSTYLE1
 73
     1
 44
1.0
  0
MTEXT
  5
16E
330
1F
100
AcDbEntity
  8
BORDER
 62
     7
100
AcDbMText
 10
17.486631969
 20
697.7420052165
 30
0.0
 40
3.5
 41
0.0
 71
     2
 72
     1
  1
C
  7
SLDTEXTSTYLE1
 73
     1
 44
1.0
  0
MTEXT
  5
16F
330
1F
100
AcDbEntity
  8
BORDER
 62
     7
100
AcDbMText
 10
17.4811632317
 20
797.7420052165
 30
0.0
 40
3.5
 41
0.0
 71
     2
 72
     1
  1
A
  7
SLDTEXTSTYLE1
 73
     1
 44
1.0
  0
MTEXT
  5
170
330
1F
100
AcDbEntity
  8
BORDER
 62
     7
100
AcDbMText
 10
669.5574218929
 20
9.2357343242
 30
0.0
 40
3.5
 41
0.0
 71
     2
 72
     1
  1
14
  7
SLDTEXTSTYLE1
 73
     1
 44
1.0
  0
MTEXT
  5
171
330
1F
100
AcDbEntity
  8
BORDER
 62
     7
100
AcDbMText
 10
719.563802151
 20
9.2916120346
 30
0.0
 40
3.5
 41
0.0
 71
     2
 72
     1
  1
15
  7
SLDTEXTSTYLE1
 73
     1
 44
1.0
  0
MTEXT
  5
172
330
1F
100
AcDbEntity
  8
BORDER
 62
     7
100
AcDbMText
 10
619.5656249821
 20
9.2916120346
 30
0.0
 40
3.5
 41
0.0
 71
     2
 72
     1
  1
13
  7
SLDTEXTSTYLE1
 73
     1
 44
1.0
  0
MTEXT
  5
173
330
1F
100
AcDbEntity
  8
BORDER
 62
     7
100
AcDbMText
 10
769.564105995
 20
9.2905541748
 30
0.0
 40
3.5
 41
0.0
 71
     2
 72
     1
  1
16
  7
SLDTEXTSTYLE1
 73
     1
 44
1.0
  0
MTEXT
  5
174
330
1F
100
AcDbEntity
  8
BORDER
 62
     7
100
AcDbMText
 10
919.564713683
 20
9.2569479534
 30
0.0
 40
3.5
 41
0.0
 71
     2
 72
     1
  1
19
  7
SLDTEXTSTYLE1
 73
     1
 44
1.0
  0
MTEXT
  5
175
330
1F
100
AcDbEntity
  8
BORDER
 62
     7
100
AcDbMText
 10
869.5644096062
 20
9.2569479534
 30
0.0
 40
3.5
 41
0.0
 71
     2
 72
     1
  1
18
  7
SLDTEXTSTYLE1
 73
     1
 44
1.0
  0
MTEXT
  5
176
330
1F
100
AcDbEntity
  8
BORDER
 62
     7
100
AcDbMText
 10
819.5671439692
 20
9.2318380653
 30
0.0
 40
3.5
 41
0.0
 71
     2
 72
     1
  1
17
  7
SLDTEXTSTYLE1
 73
     1
 44
1.0
  0
MTEXT
  5
177
330
1F
100
AcDbEntity
  8
BORDER
 62
     7
100
AcDbMText
 10
1069.5000000354
 20
9.2310462973
 30
0.0
 40
3.5
 41
0.0
 71
     2
 72
     1
  1
22
  7
SLDTEXTSTYLE1
 73
     1
 44
1.0
  0
MTEXT
  5
178
330
1F
100
AcDbEntity
  8
BORDER
 62
     7
100
AcDbMText
 10
1019.563498307
 20
9.2569479534
 30
0.0
 40
3.5
 41
0.0
 71
     2
 72
     1
  1
21
  7
SLDTEXTSTYLE1
 73
     1
 44
1.0
  0
MTEXT
  5
179
330
1F
100
AcDbEntity
  8
BORDER
 62
     7
100
AcDbMText
 10
969.5024305545
 20
9.2569479534
 30
0.0
 40
3.5
 41
0.0
 71
     2
 72
     1
  1
20
  7
SLDTEXTSTYLE1
 73
     1
 44
1.0
  0
MTEXT
  5
17A
330
1F
100
AcDbEntity
  8
BORDER
 62
     7
100
AcDbMText
 10
1119.5021267105
 20
9.2310462973
 30
0.0
 40
3.5
 41
0.0
 71
     2
 72
     1
  1
23
  7
SLDTEXTSTYLE1
 73
     1
 44
1.0
  0
MTEXT
  5
17B
330
1F
100
AcDbEntity
  8
BORDER
 62
     7
100
AcDbMText
 10
1169.4939236213
 20
9.2310462973
 30
0.0
 40
3.5
 41
0.0
 71
     2
 72
     1
  1
24
  7
SLDTEXTSTYLE1
 73
     1
 44
1.0
  0
MTEXT
  5
17C
330
1F
100
AcDbEntity
  8
BORDER
 62
     7
100
AcDbMText
 10
17.4595919605
 20
97.7420052165
 30
0.0
 40
3.5
 41
0.0
 71
     2
 72
     1
  1
Q
  7
SLDTEXTSTYLE1
 73
     1
 44
1.0
  0
MTEXT
  5
17D
330
1F
100
AcDbEntity
  8
BORDER
 62
     7
100
AcDbMText
 10
17.5179253276
 20
147.7420052165
 30
0.0
 40
3.5
 41
0.0
 71
     2
 72
     1
  1
P
  7
SLDTEXTSTYLE1
 73
     1
 44
1.0
  0
MTEXT
  5
17E
330
1F
100
AcDbEntity
  8
BORDER
 62
     7
100
AcDbMText
 10
17.5072916141
 20
197.7420052165
 30
0.0
 40
3.5
 41
0.0
 71
     2
 72
     1
  1
N
  7
SLDTEXTSTYLE1
 73
     1
 44
1.0
  0
MTEXT
  5
17F
330
1F
100
AcDbEntity
  8
BORDER
 62
     7
100
AcDbMText
 10
17.4562499207
 20
247.7420052165
 30
0.0
 40
3.5
 41
0.0
 71
     2
 72
     1
  1
M
  7
SLDTEXTSTYLE1
 73
     1
 44
1.0
  0
MTEXT
  5
180
330
1F
100
AcDbEntity
  8
BORDER
 62
     7
100
AcDbMText
 10
17.4878472285
 20
47.7420052165
 30
0.0
 40
3.5
 41
0.0
 71
     2
 72
     1
  1
R
  7
SLDTEXTSTYLE1
 73
     1
 44
1.0
  0
MTEXT
  5
181
330
1F
100
AcDbEntity
  8
BORDER
 62
     7
100
AcDbMText
 10
869.5644096062
 20
835.2738736199
 30
0.0
 40
3.5
 41
0.0
 71
     2
 72
     1
  1
18
  7
SLDTEXTSTYLE1
 73
     1
 44
1.0
  0
MTEXT
  5
182
330
1F
100
AcDbEntity
  8
BORDER
 62
     7
100
AcDbMText
 10
1169.4939236213
 20
835.2738736199
 30
0.0
 40
3.5
 41
0.0
 71
     2
 72
     1
  1
24
  7
SLDTEXTSTYLE1
 73
     1
 44
1.0
  0
MTEXT
  5
183
330
1F
100
AcDbEntity
  8
BORDER
 62
     7
100
AcDbMText
 10
1119.5021267105
 20
835.2738736199
 30
0.0
 40
3.5
 41
0.0
 71
     2
 72
     1
  1
23
  7
SLDTEXTSTYLE1
 73
     1
 44
1.0
  0
MTEXT
  5
184
330
1F
100
AcDbEntity
  8
BORDER
 62
     7
100
AcDbMText
 10
969.5024305545
 20
835.2738736199
 30
0.0
 40
3.5
 41
0.0
 71
     2
 72
     1
  1
20
  7
SLDTEXTSTYLE1
 73
     1
 44
1.0
  0
MTEXT
  5
185
330
1F
100
AcDbEntity
  8
BORDER
 62
     7
100
AcDbMText
 10
1019.563498307
 20
835.2738736199
 30
0.0
 40
3.5
 41
0.0
 71
     2
 72
     1
  1
21
  7
SLDTEXTSTYLE1
 73
     1
 44
1.0
  0
MTEXT
  5
186
330
1F
100
AcDbEntity
  8
BORDER
 62
     7
100
AcDbMText
 10
1069.5000000354
 20
835.2738736199
 30
0.0
 40
3.5
 41
0.0
 71
     2
 72
     1
  1
22
  7
SLDTEXTSTYLE1
 73
     1
 44
1.0
  0
MTEXT
  5
187
330
1F
100
AcDbEntity
  8
BORDER
 62
     7
100
AcDbMText
 10
919.564713683
 20
835.2738736199
 30
0.0
 40
3.5
 41
0.0
 71
     2
 72
     1
  1
19
  7
SLDTEXTSTYLE1
 73
     1
 44
1.0
  0
MTEXT
  5
188
330
1F
100
AcDbEntity
  8
BORDER
 62
     7
100
AcDbMText
 10
69.5000000177
 20
835.2420052165
 30
0.0
 40
3.5
 41
0.0
 71
     2
 72
     1
  1
2
  7
SLDTEXTSTYLE1
 73
     1
 44
1.0
  0
MTEXT
  5
189
330
1F
100
AcDbEntity
  8
BORDER
 62
     7
100
AcDbMText
 10
32.0634982893
 20
835.2420052165
 30
0.0
 40
3.5
 41
0.0
 71
     2
 72
     1
  1
1
  7
SLDTEXTSTYLE1
 73
     1
 44
1.0
  0
MTEXT
  5
18A
330
1F
100
AcDbEntity
  8
BORDER
 62
     7
100
AcDbMText
 10
119.5021266928
 20
835.2361709749
 30
0.0
 40
3.5
 41
0.0
 71
     2
 72
     1
  1
3
  7
SLDTEXTSTYLE1
 73
     1
 44
1.0
  0
MTEXT
  5
18B
330
1F
100
AcDbEntity
  8
BORDER
 62
     7
100
AcDbMText
 10
269.5006075893
 20
835.2361709749
 30
0.0
 40
3.5
 41
0.0
 71
     2
 72
     1
  1
6
  7
SLDTEXTSTYLE1
 73
     1
 44
1.0
  0
MTEXT
  5
18C
330
1F
100
AcDbEntity
  8
BORDER
 62
     7
100
AcDbMText
 10
219.5003038617
 20
835.2361709749
 30
0.0
 40
3.5
 41
0.0
 71
     2
 72
     1
  1
5
  7
SLDTEXTSTYLE1
 73
     1
 44
1.0
  0
MTEXT
  5
18D
330
1F
100
AcDbEntity
  8
BORDER
 62
     7
100
AcDbMText
 10
169.4939236036
 20
835.2361709749
 30
0.0
 40
3.5
 41
0.0
 71
     2
 72
     1
  1
4
  7
SLDTEXTSTYLE1
 73
     1
 44
1.0
  0
MTEXT
  5
18E
330
1F
100
AcDbEntity
  8
BORDER
 62
     7
100
AcDbMText
 10
319.5036457963
 20
835.2361709749
 30
0.0
 40
3.5
 41
0.0
 71
     2
 72
     1
  1
7
  7
SLDTEXTSTYLE1
 73
     1
 44
1.0
  0
MTEXT
  5
18F
330
1F
100
AcDbEntity
  8
BORDER
 62
     7
100
AcDbMText
 10
519.6269965786
 20
835.2361709749
 30
0.0
 40
3.5
 41
0.0
 71
     2
 72
     1
  1
11
  7
SLDTEXTSTYLE1
 73
     1
 44
1.0
  0
MTEXT
  5
190
330
1F
100
AcDbEntity
  8
BORDER
 62
     7
100
AcDbMText
 10
469.5659288261
 20
835.2361709749
 30
0.0
 40
3.5
 41
0.0
 71
     2
 72
     1
  1
10
  7
SLDTEXTSTYLE1
 73
     1
 44
1.0
  0
MTEXT
  5
191
330
1F
100
AcDbEntity
  8
BORDER
 62
     7
100
AcDbMText
 10
419.5012152772
 20
835.2361709749
 30
0.0
 40
3.5
 41
0.0
 71
     2
 72
     1
  1
9
  7
SLDTEXTSTYLE1
 73
     1
 44
1.0
  0
MTEXT
  5
192
330
1F
100
AcDbEntity
  8
BORDER
 62
     7
100
AcDbMText
 10
369.5009114332
 20
835.2361709749
 30
0.0
 40
3.5
 41
0.0
 71
     2
 72
     1
  1
8
  7
SLDTEXTSTYLE1
 73
     1
 44
1.0
  0
MTEXT
  5
193
330
1F
100
AcDbEntity
  8
BORDER
 62
     7
100
AcDbMText
 10
569.563498307
 20
835.2361709749
 30
0.0
 40
3.5
 41
0.0
 71
     2
 72
     1
  1
12
  7
SLDTEXTSTYLE1
 73
     1
 44
1.0
  0
MTEXT
  5
194
330
1F
100
AcDbEntity
  8
BORDER
 62
     7
100
AcDbMText
 10
819.5671439692
 20
835.2738736199
 30
0.0
 40
3.5
 41
0.0
 71
     2
 72
     1
  1
17
  7
SLDTEXTSTYLE1
 73
     1
 44
1.0
  0
MTEXT
  5
195
330
1F
100
AcDbEntity
  8
BORDER
 62
     7
100
AcDbMText
 10
769.564105995
 20
835.2738736199
 30
0.0
 40
3.5
 41
0.0
 71
     2
 72
     1
  1
16
  7
SLDTEXTSTYLE1
 73
     1
 44
1.0
  0
MTEXT
  5
196
330
1F
100
AcDbEntity
  8
BORDER
 62
     7
100
AcDbMText
 10
719.563802151
 20
835.2738736199
 30
0.0
 40
3.5
 41
0.0
 71
     2
 72
     1
  1
15
  7
SLDTEXTSTYLE1
 73
     1
 44
1.0
  0
MTEXT
  5
197
330
1F
100
AcDbEntity
  8
BORDER
 62
     7
100
AcDbMText
 10
669.5574218929
 20
835.2738736199
 30
0.0
 40
3.5
 41
0.0
 71
     2
 72
     1
  1
14
  7
SLDTEXTSTYLE1
 73
     1
 44
1.0
  0
MTEXT
  5
198
330
1F
100
AcDbEntity
  8
BORDER
 62
     7
100
AcDbMText
 10
619.5656249821
 20
835.2361709749
 30
0.0
 40
3.5
 41
0.0
 71
     2
 72
     1
  1
13
  7
SLDTEXTSTYLE1
 73
     1
 44
1.0
  0
MTEXT
  5
199
330
1F
100
AcDbEntity
  8
BORDER
 62
     7
100
AcDbMText
 10
1181.4811632317
 20
797.7420052165
 30
0.0
 40
3.5
 41
0.0
 71
     2
 72
     1
  1
A
  7
SLDTEXTSTYLE1
 73
     1
 44
1.0
  0
MTEXT
  5
19A
330
1F
100
AcDbEntity
  8
BORDER
 62
     7
100
AcDbMText
 10
1181.4921006672
 20
547.7420052165
 30
0.0
 40
3.5
 41
0.0
 71
     2
 72
     1
  1
F
  7
SLDTEXTSTYLE1
 73
     1
 44
1.0
  0
MTEXT
  5
19B
330
1F
100
AcDbEntity
  8
BORDER
 62
     7
100
AcDbMText
 10
1181.5215712227
 20
597.7420052165
 30
0.0
 40
3.5
 41
0.0
 71
     2
 72
     1
  1
E
  7
SLDTEXTSTYLE1
 73
     1
 44
1.0
  0
MTEXT
  5
19C
330
1F
100
AcDbEntity
  8
BORDER
 62
     7
100
AcDbMText
 10
1181.4990885248
 20
647.7420052165
 30
0.0
 40
3.5
 41
0.0
 71
     2
 72
     1
  1
D
  7
SLDTEXTSTYLE1
 73
     1
 44
1.0
  0
MTEXT
  5
19D
330
1F
100
AcDbEntity
  8
BORDER
 62
     7
100
AcDbMText
 10
1181.486631969
 20
697.7420052165
 30
0.0
 40
3.5
 41
0.0
 71
     2
 72
     1
  1
C
  7
SLDTEXTSTYLE1
 73
     1
 44
1.0
  0
MTEXT
  5
19E
330
1F
100
AcDbEntity
  8
BORDER
 62
     7
100
AcDbMText
 10
1181.5197482752
 20
747.7420052165
 30
0.0
 40
3.5
 41
0.0
 71
     2
 72
     1
  1
B
  7
SLDTEXTSTYLE1
 73
     1
 44
1.0
  0
MTEXT
  5
19F
330
1F
100
AcDbEntity
  8
BORDER
 62
     7
100
AcDbMText
 10
1181.4705295293
 20
497.7420052165
 30
0.0
 40
3.5
 41
0.0
 71
     2
 72
     1
  1
G
  7
SLDTEXTSTYLE1
 73
     1
 44
1.0
  0
MTEXT
  5
1A0
330
1F
100
AcDbEntity
  8
BORDER
 62
     7
100
AcDbMText
 10
1181.50850699
 20
447.7420052165
 30
0.0
 40
3.5
 41
0.0
 71
     2
 72
     1
  1
H
  7
SLDTEXTSTYLE1
 73
     1
 44
1.0
  0
MTEXT
  5
1A1
330
1F
100
AcDbEntity
  8
BORDER
 62
     7
100
AcDbMText
 10
1181.5312933763
 20
397.7420052165
 30
0.0
 40
3.5
 41
0.0
 71
     2
 72
     1
  1
J
  7
SLDTEXTSTYLE1
 73
     1
 44
1.0
  0
MTEXT
  5
1A2
330
1F
100
AcDbEntity
  8
BORDER
 62
     7
100
AcDbMText
 10
1181.5045572398
 20
347.7420052165
 30
0.0
 40
3.5
 41
0.0
 71
     2
 72
     1
  1
K
  7
SLDTEXTSTYLE1
 73
     1
 44
1.0
  0
MTEXT
  5
1A3
330
1F
100
AcDbEntity
  8
BORDER
 62
     7
100
AcDbMText
 10
1181.5082031069
 20
297.7420052165
 30
0.0
 40
3.5
 41
0.0
 71
     2
 72
     1
  1
L
  7
SLDTEXTSTYLE1
 73
     1
 44
1.0
  0
MTEXT
  5
1A4
330
1F
100
AcDbEntity
  8
BORDER
 62
     7
100
AcDbMText
 10
1181.4562499207
 20
247.7420052165
 30
0.0
 40
3.5
 41
0.0
 71
     2
 72
     1
  1
M
  7
SLDTEXTSTYLE1
 73
     1
 44
1.0
  0
MTEXT
  5
1A5
330
1F
100
AcDbEntity
  8
BORDER
 62
     7
100
AcDbMText
 10
1181.5179253276
 20
147.7420052165
 30
0.0
 40
3.5
 41
0.0
 71
     2
 72
     1
  1
P
  7
SLDTEXTSTYLE1
 73
     1
 44
1.0
  0
MTEXT
  5
1A6
330
1F
100
AcDbEntity
  8
BORDER
 62
     7
100
AcDbMText
 10
1181.4595919605
 20
97.7420052165
 30
0.0
 40
3.5
 41
0.0
 71
     2
 72
     1
  1
Q
  7
SLDTEXTSTYLE1
 73
     1
 44
1.0
  0
MTEXT
  5
1A7
330
1F
100
AcDbEntity
  8
BORDER
 62
     7
100
AcDbMText
 10
1181.4878472285
 20
47.7420052165
 30
0.0
 40
3.5
 41
0.0
 71
     2
 72
     1
  1
R
  7
SLDTEXTSTYLE1
 73
     1
 44
1.0
  0
MTEXT
  5
1A8
330
1F
100
AcDbEntity
  8
BORDER
 62
     7
100
AcDbMText
 10
1181.5072916141
 20
197.7420052165
 30
0.0
 40
3.5
 41
0.0
 71
     2
 72
     1
  1
N
  7
SLDTEXTSTYLE1
 73
     1
 44
1.0
  0
MTEXT
  5
1A9
330
1F
100
AcDbEntity
  8
BORDER
100
AcDbMText
 10
1153.9469767685
 20
23.844387424
 30
0.0
 40
1.8
 41
0.0
 71
     1
 72
     1
  1
Sheet:
  7
SLDTEXTSTYLE1
 73
     1
 44
1.0
  0
MTEXT
  5
1AA
330
1F
100
AcDbEntity
  8
BORDER
100
AcDbMText
 10
1168.3555403807
 20
23.844387424
 30
0.0
 40
1.8
 41
0.0
 71
     1
 72
     1
  1
Revision:
  7
SLDTEXTSTYLE1
 73
     1
 44
1.0
  0
MTEXT
  5
1AB
330
1F
100
AcDbEntity
  8
BORDER
100
AcDbMText
 10
1117.6126923288
 20
23.844387424
 30
0.0
 40
1.8
 41
0.0
 71
     1
 72
     1
  1
Material:
  7
SLDTEXTSTYLE1
 73
     1
 44
1.0
  0
MTEXT
  5
1AD
330
1F
100
AcDbEntity
  8
BORDER
100
AcDbMText
 10
1154.5373266333
 20
18.0329388308
 30
0.0
 40
2.5
 41
0.0
 71
     1
 72
     1
  1
1 of 1
  7
SLDTEXTSTYLE2
 73
     1
 44
1.0
  0
MTEXT
  5
1AE
330
1F
100
AcDbEntity
  8
BORDER
100
AcDbMText
 10
1117.4423007072
 20
41.5778074247
 30
0.0
 40
1.8
 41
0.0
 71
     1
 72
     1
  1
Checked/Approved by:
  7
SLDTEXTSTYLE1
 73
     1
 44
1.0
  0
INSERT
  5
1B4
330
1F
100
AcDbEntity
  8
BORDER
100
AcDbBlockReference
  2
SW_NOTE_0
 10
1061.0713434944
 20
21.6258903222
 30
0.0
  0
MTEXT
  5
1B5
330
1F
100
AcDbEntity
  8
BORDER
100
AcDbMText
 10
1097.2642359313
 20
23.9868716954
 30
0.0
 40
1.8
 41
0.0
 71
     2
 72
     1
  1
Sheet Size:
  7
SLDTEXTSTYLE1
 73
     1
 44
1.0
  0
MTEXT
  5
1B6
330
1F
100
AcDbEntity
  8
BORDER
100
AcDbMText
 10
1103.68726765
 20
18.2295006099
 30
0.0
 40
5.0
 41
0.0
 71
     2
 72
     1
  1
A0
  7
SLDTEXTSTYLE0
 73
     1
 44
1.0
  0
MTEXT
  5
1B7
330
1F
100
AcDbEntity
  8
BORDER
100
AcDbMText
 10
1117.2543782092
 20
50.2222423329
 30
0.0
 40
1.8
 41
0.0
 71
     1
 72
     1
  1
Drawn by:
  7
SLDTEXTSTYLE1
 73
     1
 44
1.0
  0
MTEXT
  5
1B8
330
1F
100
AcDbEntity
  8
BORDER
100
AcDbMText
 10
1148.6488980138
 20
50.2846243148
 30
0.0
 40
1.8520833333
 41
0.0
 71
     1
 72
     1
  1
Drawn Date:
  7
SLDTEXTSTYLE1
 73
     1
 44
1.0
  0
MTEXT
  5
1B9
330
1F
100
AcDbEntity
  8
BORDER
100
AcDbMText
 10
1148.6488980138
 20
41.6401894066
 30
0.0
 40
1.8520833333
 41
0.0
 71
     1
 72
     1
  1
Checked/Approved Date:
  7
SLDTEXTSTYLE1
 73
     1
 44
1.0
  0
MTEXT
  5
1BA
330
1F
100
AcDbEntity
  8
BORDER
100
AcDbMText
 10
1138.1722245713
 20
30.373045594
 30
0.0
 40
1.8520833333
 41
0.0
 71
     1
 72
     1
  1
Drawing Scale:
  7
SLDTEXTSTYLE1
 73
     1
 44
1.0
  0
MTEXT
  5
1BB
330
1F
100
AcDbEntity
  8
BORDER
100
AcDbMText
 10
1117.2543782092
 20
46.5606398143
 30
0.0
 40
2.5
 41
0.0
 71
     1
 72
     1
  1
Le Xuan Tung
  7
SLDTEXTSTYLE1
 73
     1
 44
1.0
  0
MTEXT
  5
1BC
330
1F
100
AcDbEntity
  8
BORDER
100
AcDbMText
 10
1148.6488980138
 20
46.5606398143
 30
0.0
 40
2.5
 41
0.0
 71
     1
 72
     1
  1
2021
  7
SLDTEXTSTYLE1
 73
     1
 44
1.0
  0
MTEXT
  5
1BD
330
1F
100
AcDbEntity
  8
BORDER
100
AcDbMText
 10
1117.6302232052
 20
37.2476544519
 30
0.0
 40
2.5
 41
0.0
 71
     1
 72
     1
  1
Nguyen Van Tung
  7
SLDTEXTSTYLE1
 73
     1
 44
1.0
  0
MTEXT
  5
1BE
330
1F
100
AcDbEntity
  8
BORDER
100
AcDbMText
 10
1148.6488980138
 20
37.2476544519
 30
0.0
 40
2.5
 41
0.0
 71
     1
 72
     1
  1
2021
  7
SLDTEXTSTYLE1
 73
     1
 44
1.0
  0
MTEXT
  5
1BF
330
1F
100
AcDbEntity
  8
BORDER
100
AcDbMText
 10
1170.81122894
 20
18.4486459432
 30
0.0
 40
2.6458333333
 41
0.0
 71
     1
 72
     1
  1
0A
  7
SLDTEXTSTYLE1
 73
     1
 44
1.0
  0
MTEXT
  5
1C0
330
1F
100
AcDbEntity
  8
BORDER
100
AcDbMText
 10
1156.775855864
 20
31.0038443616
 30
0.0
 40
2.5
 41
0.0
 71
     1
 72
     1
  1
1:1
  7
SLDTEXTSTYLE1
 73
     1
 44
1.0
  0
MTEXT
  5
1C1
330
1F
100
AcDbEntity
  8
BORDER
100
AcDbMText
 10
1136.4840424281
 20
23.844387424
 30
0.0
 40
1.8
 41
0.0
 71
     1
 72
     1
  1
Qty:
  7
SLDTEXTSTYLE1
 73
     1
 44
1.0
  0
MTEXT
  5
1C2
330
1F
100
AcDbEntity
  8
BORDER
100
AcDbMText
 10
1141.7267976309
 20
18.0329388308
 30
0.0
 40
2.5
 41
0.0
 71
     1
 72
     1
  1
01
  7
SLDTEXTSTYLE1
 73
     1
 44
1.0
  0
MTEXT
  5
1C3
330
1F
100
AcDbEntity
  8
BORDER
100
AcDbMText
 10
1119.7048576257
 20
18.6972530792
 30
0.0
 40
2.5
 41
0.0
 71
     1
 72
     1
  1
SS400t3
  7
SLDTEXTSTYLE1
 73
     1
 44
1.0
  0
MTEXT
  5
1C4
330
1F
100
AcDbEntity
  8
BORDER
100
AcDbMText
 10
1125.5672099915
 20
31.0038443616
 30
0.0
 40
2.5
 41
0.0
 71
     1
 72
     1
  1
mm
  7
SLDTEXTSTYLE1
 73
     1
 44
1.0
  0
MTEXT
  5
1C5
330
1F
100
AcDbEntity
  8
BORDER
100
AcDbMText
 10
1117.6463813351
 20
30.373045594
 30
0.0
 40
1.8520833333
 41
0.0
 71
     1
 72
     1
  1
Unit:
  7
SLDTEXTSTYLE1
 73
     1
 44
1.0
  0
MTEXT
  5
1C6
330
1F
100
AcDbEntity
  8
BORDER
100
AcDbMText
 10
1060.9040651123
 20
32.3841853028
 30
0.0
 40
1.8
 41
0.0
 71
     1
 72
     1
  1
Description:
  7
SLDTEXTSTYLE1
 73
     1
 44
1.0
  0
MTEXT
  5
1C7
330
1F
100
AcDbEntity
  8
BORDER
100
AcDbMText
 10
1061.2335972963
 20
42.7271810213
 30
0.0
 40
2.5
 41
0.0
 71
     1
 72
     1
  1
SERVICE ROBOT
  7
SLDTEXTSTYLE0
 73
     1
 44
1.0
  0
MTEXT
  5
1C8
330
1F
100
AcDbEntity
  8
BORDER
100
AcDbMText
 10
1061.0058789697
 20
46.3271241154
 30
0.0
 40
1.8
 41
0.0
 71
     1
 72
     1
  1
Project:
  7
SLDTEXTSTYLE1
 73
     1
 44
1.0
  0
INSERT
  5
1D1
330
1F
100
AcDbEntity
  8
BORDER
100
AcDbBlockReference
  2
SW_NOTE_0_1
 10
1059.3903030665
 20
70.3808091667
 30
0.0
  0
ARC
  5
1D2
330
1F
100
AcDbEntity
  8
0
  6
Continuous
 62
     7
370
    25
100
AcDbCircle
 10
600.5291549351
 20
713.9053652945
 30
0.0
 40
1.00000000000005
100
AcDbArc
 50
0.0
 51
90.8053888852
  0
LINE
  5
1D3
330
1F
100
AcDbEntity
  8
0
  6
Continuous
 62
     7
370
    25
100
AcDbLine
 10
601.529154991
 20
713.9053610595
 30
0.0
 11
601.529154991
 21
710.9299716981
 31
0.0
  0
ARC
  5
1D4
330
1F
100
AcDbEntity
  8
0
  6
Continuous
 62
     7
370
    25
100
AcDbCircle
 10
602.5291549351
 20
710.9299649032
 30
0.0
 40
1.000000000000114
100
AcDbArc
 50
180.0
 51
270.0
  0
LINE
  5
1D5
330
1F
100
AcDbEntity
  8
0
  6
Continuous
 62
     7
370
    25
100
AcDbLine
 10
602.5291549221
 20
709.9299696716
 30
0.0
 11
605.5291549481
 21
709.9299696716
 31
0.0
  0
ARC
  5
1D6
330
1F
100
AcDbEntity
  8
0
  6
Continuous
 62
     7
370
    25
100
AcDbCircle
 10
605.5291549351
 20
710.9299649032
 30
0.0
 40
1.000000000000114
100
AcDbArc
 50
270.0
 51
0.0
  0
LINE
  5
1D7
330
1F
100
AcDbEntity
  8
0
  6
Continuous
 62
     7
370
    25
100
AcDbLine
 10
606.5291548792
 20
710.9299716981
 30
0.0
 11
606.5291548792
 21
713.9053610595
 31
0.0
  0
ARC
  5
1D8
330
1F
100
AcDbEntity
  8
0
  6
Continuous
 62
     7
370
    25
100
AcDbCircle
 10
607.5291549351
 20
713.9053652945
 30
0.0
 40
1.000000000000048
100
AcDbArc
 50
89.1946111148
 51
180.0
  0
ARC
  5
1D9
330
1F
100
AcDbEntity
  8
0
  6
Continuous
 62
     7
370
    25
100
AcDbCircle
 10
604.0291549351
 20
464.9299649032
 30
0.0
 40
250.0000000000001
100
AcDbArc
 50
65.0911031709
 51
89.1946111148
  0
ARC
  5
1DA
330
1F
100
AcDbEntity
  8
0
  6
Continuous
 62
     7
370
    25
100
AcDbCircle
 10
708.9021415675
 20
690.7676426162
 30
0.0
 40
1.000000000000019
100
AcDbArc
 50
334.2857142857
 51
65.0911031709
  0
LINE
  5
1DB
330
1F
100
AcDbEntity
  8
0
  6
Continuous
 62
     7
370
    25
100
AcDbLine
 10
709.8031105187
 20
690.3337655099
 30
0.0
 11
708.5121335175
 21
687.6530168088
 31
0.0
  0
ARC
  5
1DC
330
1F
100
AcDbEntity
  8
0
  6
Continuous
 62
     7
370
    25
100
AcDbCircle
 10
709.4131014562
 20
687.2191320159
 30
0.0
 40
1.000000000000015
100
AcDbArc
 50
154.2857142857
 51
244.2857142857
  0
LINE
  5
1DD
330
1F
100
AcDbEntity
  8
0
  6
Continuous
 62
     7
370
    25
100
AcDbLine
 10
708.9792178657
 20
686.3181558879
 30
0.0
 11
711.6821245935
 21
685.0165096553
 31
0.0
  0
ARC
  5
1DE
330
1F
100
AcDbEntity
  8
0
  6
Continuous
 62
     7
370
    25
100
AcDbCircle
 10
712.1160080599
 20
685.9174807985
 30
0.0
 40
1.000000000000117
100
AcDbArc
 50
244.2857142857
 51
334.2857142857
  0
LINE
  5
1DF
330
1F
100
AcDbEntity
  8
0
  6
Continuous
 62
     7
370
    25
100
AcDbLine
 10
713.0169780638
 20
685.4836014541
 30
0.0
 11
714.307955065
 21
688.1643352541
 31
0.0
  0
ARC
  5
1E0
330
1F
100
AcDbEntity
  8
0
  6
Continuous
 62
     7
370
    25
100
AcDbCircle
 10
715.2089236428
 20
687.7304564424
 30
0.0
 40
1.000000000000107
100
AcDbArc
 50
63.4803254005
 51
154.2857142857
  0
ARC
  5
1E1
330
1F
100
AcDbEntity
  8
0
  6
Continuous
 62
     7
370
    25
100
AcDbCircle
 10
604.0291549351
 20
464.9299649032
 30
0.0
 40
250.0
100
AcDbArc
 50
39.3768174567
 51
63.4803254005
  0
ARC
  5
1E2
330
1F
100
AcDbEntity
  8
0
  6
Continuous
 62
     7
370
    25
100
AcDbCircle
 10
796.5037470146
 20
622.8999981495
 30
0.0
 40
1.000000000000046
100
AcDbArc
 50
308.5714285714
 51
39.3768174567
  0
LINE
  5
1E3
330
1F
100
AcDbEntity
  8
0
  6
Continuous
 62
     7
370
    25
100
AcDbLine
 10
797.1272380736
 20
622.1181718143
 30
0.0
 11
794.8009730961
 21
620.2630368503
 31
0.0
  0
ARC
  5
1E4
330
1F
100
AcDbEntity
  8
0
  6
Continuous
 62
     7
370
    25
100
AcDbCircle
 10
795.4244649194
 20
619.4812033842
 30
0.0
 40
1.000000000000077
100
AcDbArc
 50
128.5714285714
 51
218.5714285714
  0
LINE
  5
1E5
330
1F
100
AcDbEntity
  8
0
  6
Continuous
 62
     7
370
    25
100
AcDbLine
 10
794.6426333573
 20
618.8577083381
 30
0.0
 11
796.5131016161
 21
616.5122208627
 31
0.0
  0
ARC
  5
1E6
330
1F
100
AcDbEntity
  8
0
  6
Continuous
 62
     7
370
    25
100
AcDbCircle
 10
797.294934325
 20
617.1357089368
 30
0.0
 40
0.9999999999999168
100
AcDbArc
 50
218.5714285714
 51
308.5714285714
  0
LINE
  5
1E7
330
1F
100
AcDbEntity
  8
0
  6
Continuous
 62
     7
370
    25
100
AcDbLine
 10
797.9184301283
 20
616.3538811239
 30
0.0
 11
800.2446802046
 21
618.2090160879
 31
0.0
  0
ARC
  5
1E8
330
1F
100
AcDbEntity
  8
0
  6
Continuous
 62
     7
370
    25
100
AcDbCircle
 10
800.8681756276
 20
617.4271777722
 30
0.0
 40
1.000000000000006
100
AcDbArc
 50
37.7660396862
 51
128.5714285714
  0
ARC
  5
1E9
330
1F
100
AcDbEntity
  8
0
  6
Continuous
 62
     7
370
    25
100
AcDbCircle
 10
604.0291549351
 20
464.9299649032
 30
0.0
 40
249.9999999999999
100
AcDbArc
 50
13.6625317424
 51
37.7660396862
  0
ARC
  5
1EA
330
1F
100
AcDbEntity
  8
0
  6
Continuous
 62
     7
370
    25
100
AcDbCircle
 10
845.9833989544
 20
523.7444512231
 30
0.0
 40
1.000000000000088
100
AcDbArc
 50
282.8571428571
 51
13.6625317424
  0
LINE
  5
1EB
330
1F
100
AcDbEntity
  8
0
  6
Continuous
 62
     7
370
    25
100
AcDbLine
 10
846.205926099
 20
522.7695224317
 30
0.0
 11
843.3051170494
 21
522.1074340375
 31
0.0
  0
ARC
  5
1EC
330
1F
100
AcDbEntity
  8
0
  6
Continuous
 62
     7
370
    25
100
AcDbCircle
 10
843.5276399309
 20
521.1325065247
 30
0.0
 40
1.000000000000088
100
AcDbArc
 50
102.8571428571
 51
192.8571428571
  0
LINE
  5
1ED
330
1F
100
AcDbEntity
  8
0
  6
Continuous
 62
     7
370
    25
100
AcDbLine
 10
842.5527127173
 20
520.9099841746
 30
0.0
 11
843.2202698376
 21
517.9852028819
 31
0.0
  0
ARC
  5
1EE
330
1F
100
AcDbEntity
  8
0
  6
Continuous
 62
     7
370
    25
100
AcDbCircle
 10
844.1952027328
 20
518.2077227882
 30
0.0
 40
1.000000000000063
100
AcDbArc
 50
192.8571428571
 51
282.8571428571
  0
LINE
  5
1EF
330
1F
100
AcDbEntity
  8
0
  6
Continuous
 62
     7
370
    25
100
AcDbLine
 10
844.4177271511
 20
517.2327948245
 30
0.0
 11
847.3185212996
 21
517.8948832186
 31
0.0
  0
ARC
  5
1F0
330
1F
100
AcDbEntity
  8
0
  6
Continuous
 62
     7
370
    25
100
AcDbCircle
 10
847.5410454921
 20
516.9199558378
 30
0.0
 40
1.000000000000063
100
AcDbArc
 50
12.0517539719
 51
102.8571428571
  0
ARC
  5
1F1
330
1F
100
AcDbEntity
  8
0
  6
Continuous
 62
     7
370
    25
100
AcDbCircle
 10
604.0291549351
 20
464.9299649032
 30
0.0
 40
250.0
100
AcDbArc
 50
347.9482460281
 51
12.0517539719
  0
ARC
  5
1F2
330
1F
100
AcDbEntity
  8
0
  6
Continuous
 62
     7
370
    25
100
AcDbCircle
 10
847.5410454921
 20
412.9399739686
 30
0.0
 40
1.000000000000033
100
AcDbArc
 50
257.1428571429
 51
347.9482460281
  0
LINE
  5
1F3
330
1F
100
AcDbEntity
  8
0
  6
Continuous
 62
     7
370
    25
100
AcDbLine
 10
847.3185212996
 20
411.9650465878
 30
0.0
 11
844.4177271511
 21
412.627134982
 31
0.0
  0
ARC
  5
1F4
330
1F
100
AcDbEntity
  8
0
  6
Continuous
 62
     7
370
    25
100
AcDbCircle
 10
844.1952027328
 20
411.6522070182
 30
0.0
 40
0.9999999999999823
100
AcDbArc
 50
77.1428571429
 51
167.1428571429
  0
LINE
  5
1F5
330
1F
100
AcDbEntity
  8
0
  6
Continuous
 62
     7
370
    25
100
AcDbLine
 10
843.2202698376
 20
411.8747269245
 30
0.0
 11
842.5527127173
 21
408.9499456318
 31
0.0
  0
ARC
  5
1F6
330
1F
100
AcDbEntity
  8
0
  6
Continuous
 62
     7
370
    25
100
AcDbCircle
 10
843.5276399309
 20
408.7274232817
 30
0.0
 40
0.9999999999999649
100
AcDbArc
 50
167.1428571429
 51
257.1428571429
  0
LINE
  5
1F7
330
1F
100
AcDbEntity
  8
0
  6
Continuous
 62
     7
370
    25
100
AcDbLine
 10
843.3051170494
 20
407.7524957689
 30
0.0
 11
846.205926099
 21
407.0904073747
 31
0.0
  0
ARC
  5
1F8
330
1F
100
AcDbEntity
  8
0
  6
Continuous
 62
     7
370
    25
100
AcDbCircle
 10
845.9833989544
 20
406.1154785834
 30
0.0
 40
1.000000000000012
100
AcDbArc
 50
346.3374682576
 51
77.1428571429
  0
ARC
  5
1F9
330
1F
100
AcDbEntity
  8
0
  6
Continuous
 62
     7
370
    25
100
AcDbCircle
 10
604.0291549351
 20
464.9299649032
 30
0.0
 40
250.0
100
AcDbArc
 50
322.2339603138
 51
346.3374682576
  0
ARC
  5
1FA
330
1F
100
AcDbEntity
  8
0
  6
Continuous
 62
     7
370
    25
100
AcDbCircle
 10
800.8681756276
 20
312.4327520342
 30
0.0
 40
1.000000000000032
100
AcDbArc
 50
231.4285714286
 51
322.2339603138
  0
LINE
  5
1FB
330
1F
100
AcDbEntity
  8
0
  6
Continuous
 62
     7
370
    25
100
AcDbLine
 10
800.2446802046
 20
311.6509137186
 30
0.0
 11
797.9184301283
 21
313.5060486826
 31
0.0
  0
ARC
  5
1FC
330
1F
100
AcDbEntity
  8
0
  6
Continuous
 62
     7
370
    25
100
AcDbCircle
 10
797.294934325
 20
312.7242208697
 30
0.0
 40
1.000000000000041
100
AcDbArc
 50
51.4285714286
 51
141.4285714286
  0
LINE
  5
1FD
330
1F
100
AcDbEntity
  8
0
  6
Continuous
 62
     7
370
    25
100
AcDbLine
 10
796.5131016161
 20
313.3477089437
 30
0.0
 11
794.6426333573
 21
311.0022214683
 31
0.0
  0
ARC
  5
1FE
330
1F
100
AcDbEntity
  8
0
  6
Continuous
 62
     7
370
    25
100
AcDbCircle
 10
795.4244649194
 20
310.3787264223
 30
0.0
 40
0.9999999999999613
100
AcDbArc
 50
141.4285714286
 51
231.4285714286
  0
LINE
  5
1FF
330
1F
100
AcDbEntity
  8
0
  6
Continuous
 62
     7
370
    25
100
AcDbLine
 10
794.8009730961
 20
309.5968929561
 30
0.0
 11
797.1272380736
 21
307.7417579921
 31
0.0
  0
ARC
  5
200
330
1F
100
AcDbEntity
  8
0
  6
Continuous
 62
     7
370
    25
100
AcDbCircle
 10
796.5037470146
 20
306.9599316569
 30
0.0
 40
1.000000000000082
100
AcDbArc
 50
320.6231825433
 51
51.4285714286
  0
ARC
  5
201
330
1F
100
AcDbEntity
  8
0
  6
Continuous
 62
     7
370
    25
100
AcDbCircle
 10
604.0291549351
 20
464.9299649032
 30
0.0
 40
250.0000000000001
100
AcDbArc
 50
296.5196745995
 51
320.6231825433
  0
ARC
  5
202
330
1F
100
AcDbEntity
  8
0
  6
Continuous
 62
     7
370
    25
100
AcDbCircle
 10
715.2089236428
 20
242.129473364
 30
0.0
 40
1.000000000000105
100
AcDbArc
 50
205.7142857143
 51
296.5196745995
  0
LINE
  5
203
330
1F
100
AcDbEntity
  8
0
  6
Continuous
 62
     7
370
    25
100
AcDbLine
 10
714.307955065
 20
241.6955945524
 30
0.0
 11
713.0169780638
 21
244.3763283523
 31
0.0
  0
ARC
  5
204
330
1F
100
AcDbEntity
  8
0
  6
Continuous
 62
     7
370
    25
100
AcDbCircle
 10
712.1160080599
 20
243.9424490079
 30
0.0
 40
0.9999999999999779
100
AcDbArc
 50
25.7142857143
 51
115.7142857143
  0
LINE
  5
205
330
1F
100
AcDbEntity
  8
0
  6
Continuous
 62
     7
370
    25
100
AcDbLine
 10
711.6821245935
 20
244.8434201511
 30
0.0
 11
708.9792178657
 21
243.5417739185
 31
0.0
  0
ARC
  5
206
330
1F
100
AcDbEntity
  8
0
  6
Continuous
 62
     7
370
    25
100
AcDbCircle
 10
709.4131014562
 20
242.6407977905
 30
0.0
 40
1.000000000000015
100
AcDbArc
 50
115.7142857143
 51
205.7142857143
  0
LINE
  5
207
330
1F
100
AcDbEntity
  8
0
  6
Continuous
 62
     7
370
    25
100
AcDbLine
 10
708.5121335175
 20
242.2069129976
 30
0.0
 11
709.8031105187
 21
239.5261642965
 31
0.0
  0
ARC
  5
208
330
1F
100
AcDbEntity
  8
0
  6
Continuous
 62
     7
370
    25
100
AcDbCircle
 10
708.9021415675
 20
239.0922871902
 30
0.0
 40
1.000000000000019
100
AcDbArc
 50
294.9088968291
 51
25.7142857143
  0
ARC
  5
209
330
1F
100
AcDbEntity
  8
0
  6
Continuous
 62
     7
370
    25
100
AcDbCircle
 10
604.0291549351
 20
464.9299649032
 30
0.0
 40
250.0
100
AcDbArc
 50
270.8053888852
 51
294.9088968291
  0
ARC
  5
20A
330
1F
100
AcDbEntity
  8
0
  6
Continuous
 62
     7
370
    25
100
AcDbCircle
 10
607.5291549351
 20
215.9545645119
 30
0.0
 40
1.000000000000022
100
AcDbArc
 50
180.0
 51
270.8053888852
  0
LINE
  5
20B
330
1F
100
AcDbEntity
  8
0
  6
Continuous
 62
     7
370
    25
100
AcDbLine
 10
606.5291548792
 20
215.9545687469
 30
0.0
 11
606.5291548792
 21
218.9299581083
 31
0.0
  0
ARC
  5
20C
330
1F
100
AcDbEntity
  8
0
  6
Continuous
 62
     7
370
    25
100
AcDbCircle
 10
605.5291549351
 20
218.9299649032
 30
0.0
 40
1.0
100
AcDbArc
 50
0.0
 51
90.0
  0
LINE
  5
20D
330
1F
100
AcDbEntity
  8
0
  6
Continuous
 62
     7
370
    25
100
AcDbLine
 10
605.5291549481
 20
219.9299601348
 30
0.0
 11
602.5291549221
 21
219.9299601348
 31
0.0
  0
ARC
  5
20E
330
1F
100
AcDbEntity
  8
0
  6
Continuous
 62
     7
370
    25
100
AcDbCircle
 10
602.5291549351
 20
218.9299649032
 30
0.0
 40
1.0
100
AcDbArc
 50
90.0
 51
180.0
  0
LINE
  5
20F
330
1F
100
AcDbEntity
  8
0
  6
Continuous
 62
     7
370
    25
100
AcDbLine
 10
601.529154991
 20
218.9299581083
 30
0.0
 11
601.529154991
 21
215.9545687469
 31
0.0
  0
ARC
  5
210
330
1F
100
AcDbEntity
  8
0
  6
Continuous
 62
     7
370
    25
100
AcDbCircle
 10
600.5291549351
 20
215.9545645119
 30
0.0
 40
1.00000000000002
100
AcDbArc
 50
269.1946111148
 51
0.0
  0
ARC
  5
211
330
1F
100
AcDbEntity
  8
0
  6
Continuous
 62
     7
370
    25
100
AcDbCircle
 10
604.0291549351
 20
464.9299649032
 30
0.0
 40
250.0000000000001
100
AcDbArc
 50
245.0911031709
 51
269.1946111148
  0
ARC
  5
212
330
1F
100
AcDbEntity
  8
0
  6
Continuous
 62
     7
370
    25
100
AcDbCircle
 10
499.1561683027
 20
239.0922871902
 30
0.0
 40
0.9999999999999949
100
AcDbArc
 50
154.2857142857
 51
245.091103171
  0
LINE
  5
213
330
1F
100
AcDbEntity
  8
0
  6
Continuous
 62
     7
370
    25
100
AcDbLine
 10
498.2551993515
 20
239.5261642965
 30
0.0
 11
499.5461763527
 21
242.2069129976
 31
0.0
  0
ARC
  5
214
330
1F
100
AcDbEntity
  8
0
  6
Continuous
 62
     7
370
    25
100
AcDbCircle
 10
498.645208414
 20
242.6407977905
 30
0.0
 40
1.000000000000016
100
AcDbArc
 50
334.2857142857
 51
64.2857142857
  0
LINE
  5
215
330
1F
100
AcDbEntity
  8
0
  6
Continuous
 62
     7
370
    25
100
AcDbLine
 10
499.0790920045
 20
243.5417739185
 30
0.0
 11
496.3761852767
 21
244.8434201511
 31
0.0
  0
ARC
  5
216
330
1F
100
AcDbEntity
  8
0
  6
Continuous
 62
     7
370
    25
100
AcDbCircle
 10
495.9423018103
 20
243.9424490079
 30
0.0
 40
1.000000000000054
100
AcDbArc
 50
64.2857142857
 51
154.2857142857
  0
LINE
  5
217
330
1F
100
AcDbEntity
  8
0
  6
Continuous
 62
     7
370
    25
100
AcDbLine
 10
495.0413318064
 20
244.3763283523
 30
0.0
 11
493.7503548052
 21
241.6955945524
 31
0.0
  0
ARC
  5
218
330
1F
100
AcDbEntity
  8
0
  6
Continuous
 62
     7
370
    25
100
AcDbCircle
 10
492.8493862274
 20
242.129473364
 30
0.0
 40
1.000000000000056
100
AcDbArc
 50
243.4803254005
 51
334.2857142857
  0
ARC
  5
219
330
1F
100
AcDbEntity
  8
0
  6
Continuous
 62
     7
370
    25
100
AcDbCircle
 10
604.0291549351
 20
464.9299649032
 30
0.0
 40
250.0000000000001
100
AcDbArc
 50
219.3768174567
 51
243.4803254005
  0
ARC
  5
21A
330
1F
100
AcDbEntity
  8
0
  6
Continuous
 62
     7
370
    25
100
AcDbCircle
 10
411.5545628556
 20
306.9599316569
 30
0.0
 40
1.000000000000041
100
AcDbArc
 50
128.5714285714
 51
219.3768174567
  0
LINE
  5
21B
330
1F
100
AcDbEntity
  8
0
  6
Continuous
 62
     7
370
    25
100
AcDbLine
 10
410.9310717966
 20
307.7417579921
 30
0.0
 11
413.2573367741
 21
309.5968929561
 31
0.0
  0
ARC
  5
21C
330
1F
100
AcDbEntity
  8
0
  6
Continuous
 62
     7
370
    25
100
AcDbCircle
 10
412.6338449507
 20
310.3787264223
 30
0.0
 40
1.000000000000032
100
AcDbArc
 50
308.5714285714
 51
38.5714285714
  0
LINE
  5
21D
330
1F
100
AcDbEntity
  8
0
  6
Continuous
 62
     7
370
    25
100
AcDbLine
 10
413.4156765129
 20
311.0022214683
 30
0.0
 11
411.5452082541
 21
313.3477089437
 31
0.0
  0
ARC
  5
21E
330
1F
100
AcDbEntity
  8
0
  6
Continuous
 62
     7
370
    25
100
AcDbCircle
 10
410.7633755452
 20
312.7242208697
 30
0.0
 40
1.000000000000006
100
AcDbArc
 50
38.5714285714
 51
128.5714285714
  0
LINE
  5
21F
330
1F
100
AcDbEntity
  8
0
  6
Continuous
 62
     7
370
    25
100
AcDbLine
 10
410.1398797419
 20
313.5060486826
 30
0.0
 11
407.8136296656
 21
311.6509137186
 31
0.0
  0
ARC
  5
220
330
1F
100
AcDbEntity
  8
0
  6
Continuous
 62
     7
370
    25
100
AcDbCircle
 10
407.1901342426
 20
312.4327520342
 30
0.0
 40
0.9999999999999967
100
AcDbArc
 50
217.7660396862
 51
308.5714285714
  0
ARC
  5
221
330
1F
100
AcDbEntity
  8
0
  6
Continuous
 62
     7
370
    25
100
AcDbCircle
 10
604.0291549351
 20
464.9299649032
 30
0.0
 40
250.0000000000001
100
AcDbArc
 50
193.6625317424
 51
217.7660396862
  0
ARC
  5
222
330
1F
100
AcDbEntity
  8
0
  6
Continuous
 62
     7
370
    25
100
AcDbCircle
 10
362.0749109158
 20
406.1154785834
 30
0.0
 40
1.000000000000063
100
AcDbArc
 50
102.8571428571
 51
193.6625317424
  0
LINE
  5
223
330
1F
100
AcDbEntity
  8
0
  6
Continuous
 62
     7
370
    25
100
AcDbLine
 10
361.8523837712
 20
407.0904073747
 30
0.0
 11
364.7531928208
 21
407.7524957689
 31
0.0
  0
ARC
  5
224
330
1F
100
AcDbEntity
  8
0
  6
Continuous
 62
     7
370
    25
100
AcDbCircle
 10
364.5306699393
 20
408.7274232817
 30
0.0
 40
1.00000000000002
100
AcDbArc
 50
282.8571428571
 51
12.8571428571
  0
LINE
  5
225
330
1F
100
AcDbEntity
  8
0
  6
Continuous
 62
     7
370
    25
100
AcDbLine
 10
365.5055971529
 20
408.9499456318
 30
0.0
 11
364.8380400326
 21
411.8747269245
 31
0.0
  0
ARC
  5
226
330
1F
100
AcDbEntity
  8
0
  6
Continuous
 62
     7
370
    25
100
AcDbCircle
 10
363.8631071374
 20
411.6522070182
 30
0.0
 40
1.000000000000063
100
AcDbArc
 50
12.8571428571
 51
102.8571428571
  0
LINE
  5
227
330
1F
100
AcDbEntity
  8
0
  6
Continuous
 62
     7
370
    25
100
AcDbLine
 10
363.6405827191
 20
412.627134982
 30
0.0
 11
360.7397885706
 21
411.9650465878
 31
0.0
  0
ARC
  5
228
330
1F
100
AcDbEntity
  8
0
  6
Continuous
 62
     7
370
    25
100
AcDbCircle
 10
360.5172643781
 20
412.9399739686
 30
0.0
 40
1.000000000000105
100
AcDbArc
 50
192.0517539719
 51
282.8571428571
  0
ARC
  5
229
330
1F
100
AcDbEntity
  8
0
  6
Continuous
 62
     7
370
    25
100
AcDbCircle
 10
604.0291549351
 20
464.9299649032
 30
0.0
 40
250.0000000000001
100
AcDbArc
 50
167.9482460281
 51
192.0517539719
  0
ARC
  5
22A
330
1F
100
AcDbEntity
  8
0
  6
Continuous
 62
     7
370
    25
100
AcDbCircle
 10
360.5172643781
 20
516.9199558378
 30
0.0
 40
1.000000000000088
100
AcDbArc
 50
77.1428571429
 51
167.9482460281
  0
LINE
  5
22B
330
1F
100
AcDbEntity
  8
0
  6
Continuous
 62
     7
370
    25
100
AcDbLine
 10
360.7397885706
 20
517.8948832186
 30
0.0
 11
363.6405827191
 21
517.2327948245
 31
0.0
  0
ARC
  5
22C
330
1F
100
AcDbEntity
  8
0
  6
Continuous
 62
     7
370
    25
100
AcDbCircle
 10
363.8631071374
 20
518.2077227882
 30
0.0
 40
0.9999999999999823
100
AcDbArc
 50
257.1428571429
 51
347.1428571429
  0
LINE
  5
22D
330
1F
100
AcDbEntity
  8
0
  6
Continuous
 62
     7
370
    25
100
AcDbLine
 10
364.8380400326
 20
517.9852028819
 30
0.0
 11
365.5055971529
 21
520.9099841746
 31
0.0
  0
ARC
  5
22E
330
1F
100
AcDbEntity
  8
0
  6
Continuous
 62
     7
370
    25
100
AcDbCircle
 10
364.5306699393
 20
521.1325065247
 30
0.0
 40
1.000000000000088
100
AcDbArc
 50
347.1428571429
 51
77.1428571429
  0
LINE
  5
22F
330
1F
100
AcDbEntity
  8
0
  6
Continuous
 62
     7
370
    25
100
AcDbLine
 10
364.7531928208
 20
522.1074340375
 30
0.0
 11
361.8523837712
 21
522.7695224317
 31
0.0
  0
ARC
  5
230
330
1F
100
AcDbEntity
  8
0
  6
Continuous
 62
     7
370
    25
100
AcDbCircle
 10
362.0749109158
 20
523.7444512231
 30
0.0
 40
1.000000000000025
100
AcDbArc
 50
166.3374682576
 51
257.1428571429
  0
ARC
  5
231
330
1F
100
AcDbEntity
  8
0
  6
Continuous
 62
     7
370
    25
100
AcDbCircle
 10
604.0291549351
 20
464.9299649032
 30
0.0
 40
250.0
100
AcDbArc
 50
142.2339603138
 51
166.3374682576
  0
ARC
  5
232
330
1F
100
AcDbEntity
  8
0
  6
Continuous
 62
     7
370
    25
100
AcDbCircle
 10
407.1901342426
 20
617.4271777722
 30
0.0
 40
0.9999999999999877
100
AcDbArc
 50
51.4285714286
 51
142.2339603138
  0
LINE
  5
233
330
1F
100
AcDbEntity
  8
0
  6
Continuous
 62
     7
370
    25
100
AcDbLine
 10
407.8136296656
 20
618.2090160879
 30
0.0
 11
410.1398797419
 21
616.3538811239
 31
0.0
  0
ARC
  5
234
330
1F
100
AcDbEntity
  8
0
  6
Continuous
 62
     7
370
    25
100
AcDbCircle
 10
410.7633755452
 20
617.1357089368
 30
0.0
 40
1.000000000000041
100
AcDbArc
 50
231.4285714286
 51
321.4285714286
  0
LINE
  5
235
330
1F
100
AcDbEntity
  8
0
  6
Continuous
 62
     7
370
    25
100
AcDbLine
 10
411.5452082541
 20
616.5122208627
 30
0.0
 11
413.4156765129
 21
618.8577083381
 31
0.0
  0
ARC
  5
236
330
1F
100
AcDbEntity
  8
0
  6
Continuous
 62
     7
370
    25
100
AcDbCircle
 10
412.6338449508
 20
619.4812033842
 30
0.0
 40
1.000000000000077
100
AcDbArc
 50
321.4285714286
 51
51.4285714286
  0
LINE
  5
237
330
1F
100
AcDbEntity
  8
0
  6
Continuous
 62
     7
370
    25
100
AcDbLine
 10
413.2573367741
 20
620.2630368503
 30
0.0
 11
410.9310717966
 21
622.1181718143
 31
0.0
  0
ARC
  5
238
330
1F
100
AcDbEntity
  8
0
  6
Continuous
 62
     7
370
    25
100
AcDbCircle
 10
411.5545628556
 20
622.8999981495
 30
0.0
 40
1.000000000000046
100
AcDbArc
 50
140.6231825433
 51
231.4285714286
  0
ARC
  5
239
330
1F
100
AcDbEntity
  8
0
  6
Continuous
 62
     7
370
    25
100
AcDbCircle
 10
604.0291549351
 20
464.9299649032
 30
0.0
 40
250.0000000000001
100
AcDbArc
 50
116.5196745995
 51
140.6231825433
  0
ARC
  5
23A
330
1F
100
AcDbEntity
  8
0
  6
Continuous
 62
     7
370
    25
100
AcDbCircle
 10
492.8493862274
 20
687.7304564424
 30
0.0
 40
1.000000000000031
100
AcDbArc
 50
25.7142857143
 51
116.5196745995
  0
LINE
  5
23B
330
1F
100
AcDbEntity
  8
0
  6
Continuous
 62
     7
370
    25
100
AcDbLine
 10
493.7503548052
 20
688.1643352541
 30
0.0
 11
495.0413318064
 21
685.4836014541
 31
0.0
  0
ARC
  5
23C
330
1F
100
AcDbEntity
  8
0
  6
Continuous
 62
     7
370
    25
100
AcDbCircle
 10
495.9423018103
 20
685.9174807985
 30
0.0
 40
0.9999999999999675
100
AcDbArc
 50
205.7142857143
 51
295.7142857143
  0
LINE
  5
23D
330
1F
100
AcDbEntity
  8
0
  6
Continuous
 62
     7
370
    25
100
AcDbLine
 10
496.3761852767
 20
685.0165096553
 30
0.0
 11
499.0790920045
 21
686.3181558879
 31
0.0
  0
ARC
  5
23E
330
1F
100
AcDbEntity
  8
0
  6
Continuous
 62
     7
370
    25
100
AcDbCircle
 10
498.645208414
 20
687.2191320159
 30
0.0
 40
1.000000000000068
100
AcDbArc
 50
295.7142857143
 51
25.7142857143
  0
LINE
  5
23F
330
1F
100
AcDbEntity
  8
0
  6
Continuous
 62
     7
370
    25
100
AcDbLine
 10
499.5461763527
 20
687.6530168088
 30
0.0
 11
498.2551993515
 21
690.3337655099
 31
0.0
  0
ARC
  5
240
330
1F
100
AcDbEntity
  8
0
  6
Continuous
 62
     7
370
    25
100
AcDbCircle
 10
499.1561683027
 20
690.7676426162
 30
0.0
 40
1.000000000000015
100
AcDbArc
 50
114.9088968291
 51
205.7142857143
  0
ARC
  5
241
330
1F
100
AcDbEntity
  8
0
  6
Continuous
 62
     7
370
    25
100
AcDbCircle
 10
604.0291549351
 20
464.9299649032
 30
0.0
 40
250.0000000000001
100
AcDbArc
 50
90.8053888852
 51
114.9088968291
  0
LINE
  5
242
330
1F
100
AcDbEntity
  8
0
  6
Continuous
 62
     7
370
    25
100
AcDbLine
 10
442.0291544583
 20
580.3299663099
 30
0.0
 11
450.0291557696
 21
580.3299663099
 31
0.0
  0
ARC
  5
243
330
1F
100
AcDbEntity
  8
0
  6
Continuous
 62
     7
370
    25
100
AcDbCircle
 10
450.0291549351
 20
582.8299649032
 30
0.0
 40
2.5
100
AcDbArc
 50
270.0
 51
90.0
  0
CIRCLE
  5
244
330
1F
100
AcDbEntity
  8
0
  6
Continuous
 62
     7
370
    25
100
AcDbCircle
 10
468.0291549351
 20
347.0299649032
 30
0.0
 40
2.5
  0
CIRCLE
  5
245
330
1F
100
AcDbEntity
  8
0
  6
Continuous
 62
     7
370
    25
100
AcDbCircle
 10
740.0291549351
 20
647.8299649032
 30
0.0
 40
2.5
  0
CIRCLE
  5
246
330
1F
100
AcDbEntity
  8
0
  6
Continuous
 62
     7
370
    25
100
AcDbCircle
 10
468.0291549351
 20
282.0299649032
 30
0.0
 40
2.5
  0
CIRCLE
  5
247
330
1F
100
AcDbEntity
  8
0
  6
Continuous
 62
     7
370
    25
100
AcDbCircle
 10
740.0291549351
 20
282.0299649032
 30
0.0
 40
2.5
  0
CIRCLE
  5
248
330
1F
100
AcDbEntity
  8
0
  6
Continuous
 62
     7
370
    25
100
AcDbCircle
 10
468.0291549351
 20
582.8299649032
 30
0.0
 40
2.5
  0
CIRCLE
  5
249
330
1F
100
AcDbEntity
  8
0
  6
Continuous
 62
     7
370
    25
100
AcDbCircle
 10
740.0291549351
 20
582.8299649032
 30
0.0
 40
2.5
  0
CIRCLE
  5
24A
330
1F
100
AcDbEntity
  8
0
  6
Continuous
 62
     7
370
    25
100
AcDbCircle
 10
740.0291549351
 20
347.0299649032
 30
0.0
 40
2.5
  0
CIRCLE
  5
24B
330
1F
100
AcDbEntity
  8
0
  6
Continuous
 62
     7
370
    25
100
AcDbCircle
 10
468.0291549351
 20
647.8299649032
 30
0.0
 40
2.5
  0
LINE
  5
24C
330
1F
100
AcDbEntity
  8
0
  6
Continuous
 62
     7
370
    25
100
AcDbLine
 10
470.5291600611
 20
627.8299657138
 30
0.0
 11
470.5291600611
 21
632.8299609455
 31
0.0
  0
ARC
  5
24D
330
1F
100
AcDbEntity
  8
0
  6
Continuous
 62
     7
370
    25
100
AcDbCircle
 10
468.0291549351
 20
632.8299649032
 30
0.0
 40
2.500000000000057
100
AcDbArc
 50
0.0
 51
180.0
  0
LINE
  5
24E
330
1F
100
AcDbEntity
  8
0
  6
Continuous
 62
     7
370
    25
100
AcDbLine
 10
465.5291499283
 20
632.8299609455
 30
0.0
 11
465.5291499283
 21
627.8299657138
 31
0.0
  0
ARC
  5
24F
330
1F
100
AcDbEntity
  8
0
  6
Continuous
 62
     7
370
    25
100
AcDbCircle
 10
468.0291549351
 20
627.8299649032
 30
0.0
 40
2.500000000000057
100
AcDbArc
 50
180.0
 51
0.0
  0
LINE
  5
250
330
1F
100
AcDbEntity
  8
0
  6
Continuous
 62
     7
370
    25
100
AcDbLine
 10
488.029158273
 20
284.5299658807
 30
0.0
 11
483.0291555907
 21
284.5299658807
 31
0.0
  0
ARC
  5
251
330
1F
100
AcDbEntity
  8
0
  6
Continuous
 62
     7
370
    25
100
AcDbCircle
 10
483.0291549351
 20
282.0299649032
 30
0.0
 40
2.5
100
AcDbArc
 50
90.0
 51
270.0
  0
LINE
  5
252
330
1F
100
AcDbEntity
  8
0
  6
Continuous
 62
     7
370
    25
100
AcDbLine
 10
483.0291555907
 20
279.5299706491
 30
0.0
 11
488.029158273
 21
279.5299706491
 31
0.0
  0
ARC
  5
253
330
1F
100
AcDbEntity
  8
0
  6
Continuous
 62
     7
370
    25
100
AcDbCircle
 10
488.0291549351
 20
282.0299649032
 30
0.0
 40
2.5
100
AcDbArc
 50
270.0
 51
90.0
  0
LINE
  5
254
330
1F
100
AcDbEntity
  8
0
  6
Continuous
 62
     7
370
    25
100
AcDbLine
 10
465.5291499283
 20
302.0299640926
 30
0.0
 11
465.5291499283
 21
297.029968861
 31
0.0
  0
ARC
  5
255
330
1F
100
AcDbEntity
  8
0
  6
Continuous
 62
     7
370
    25
100
AcDbCircle
 10
468.0291549351
 20
297.0299649032
 30
0.0
 40
2.500000000000057
100
AcDbArc
 50
180.0
 51
0.0
  0
LINE
  5
256
330
1F
100
AcDbEntity
  8
0
  6
Continuous
 62
     7
370
    25
100
AcDbLine
 10
470.5291600611
 20
297.029968861
 30
0.0
 11
470.5291600611
 21
302.0299640926
 31
0.0
  0
ARC
  5
257
330
1F
100
AcDbEntity
  8
0
  6
Continuous
 62
     7
370
    25
100
AcDbCircle
 10
468.0291549351
 20
302.0299649032
 30
0.0
 40
2.500000000000057
100
AcDbArc
 50
0.0
 51
180.0
  0
LINE
  5
258
330
1F
100
AcDbEntity
  8
0
  6
Continuous
 62
     7
370
    25
100
AcDbLine
 10
737.5291498091
 20
302.0299640926
 30
0.0
 11
737.5291498091
 21
297.029968861
 31
0.0
  0
ARC
  5
259
330
1F
100
AcDbEntity
  8
0
  6
Continuous
 62
     7
370
    25
100
AcDbCircle
 10
740.0291549351
 20
297.0299649032
 30
0.0
 40
2.500000000000114
100
AcDbArc
 50
180.0
 51
0.0
  0
LINE
  5
25A
330
1F
100
AcDbEntity
  8
0
  6
Continuous
 62
     7
370
    25
100
AcDbLine
 10
742.5291599419
 20
297.029968861
 30
0.0
 11
742.5291599419
 21
302.0299640926
 31
0.0
  0
ARC
  5
25B
330
1F
100
AcDbEntity
  8
0
  6
Continuous
 62
     7
370
    25
100
AcDbCircle
 10
740.0291549351
 20
302.0299649032
 30
0.0
 40
2.500000000000114
100
AcDbArc
 50
0.0
 51
180.0
  0
LINE
  5
25C
330
1F
100
AcDbEntity
  8
0
  6
Continuous
 62
     7
370
    25
100
AcDbLine
 10
720.0291515972
 20
279.5299706491
 30
0.0
 11
725.0291542794
 21
279.5299706491
 31
0.0
  0
ARC
  5
25D
330
1F
100
AcDbEntity
  8
0
  6
Continuous
 62
     7
370
    25
100
AcDbCircle
 10
725.0291549351
 20
282.0299649032
 30
0.0
 40
2.5
100
AcDbArc
 50
270.0
 51
90.0
  0
LINE
  5
25E
330
1F
100
AcDbEntity
  8
0
  6
Continuous
 62
     7
370
    25
100
AcDbLine
 10
725.0291542794
 20
284.5299658807
 30
0.0
 11
720.0291515972
 21
284.5299658807
 31
0.0
  0
ARC
  5
25F
330
1F
100
AcDbEntity
  8
0
  6
Continuous
 62
     7
370
    25
100
AcDbCircle
 10
720.0291549351
 20
282.0299649032
 30
0.0
 40
2.5
100
AcDbArc
 50
90.0
 51
270.0
  0
LINE
  5
260
330
1F
100
AcDbEntity
  8
0
  6
Continuous
 62
     7
370
    25
100
AcDbLine
 10
742.5291599419
 20
627.8299657138
 30
0.0
 11
742.5291599419
 21
632.8299609455
 31
0.0
  0
ARC
  5
261
330
1F
100
AcDbEntity
  8
0
  6
Continuous
 62
     7
370
    25
100
AcDbCircle
 10
740.0291549351
 20
632.8299649032
 30
0.0
 40
2.500000000000114
100
AcDbArc
 50
0.0
 51
180.0
  0
LINE
  5
262
330
1F
100
AcDbEntity
  8
0
  6
Continuous
 62
     7
370
    25
100
AcDbLine
 10
737.5291498091
 20
632.8299609455
 30
0.0
 11
737.5291498091
 21
627.8299657138
 31
0.0
  0
ARC
  5
263
330
1F
100
AcDbEntity
  8
0
  6
Continuous
 62
     7
370
    25
100
AcDbCircle
 10
740.0291549351
 20
627.8299649032
 30
0.0
 40
2.500000000000114
100
AcDbArc
 50
180.0
 51
0.0
  0
LINE
  5
264
330
1F
100
AcDbEntity
  8
0
  6
Continuous
 62
     7
370
    25
100
AcDbLine
 10
720.0291515972
 20
645.3299639257
 30
0.0
 11
725.0291542794
 21
645.3299639257
 31
0.0
  0
ARC
  5
265
330
1F
100
AcDbEntity
  8
0
  6
Continuous
 62
     7
370
    25
100
AcDbCircle
 10
725.0291549351
 20
647.8299649032
 30
0.0
 40
2.5
100
AcDbArc
 50
270.0
 51
90.0
  0
LINE
  5
266
330
1F
100
AcDbEntity
  8
0
  6
Continuous
 62
     7
370
    25
100
AcDbLine
 10
725.0291542794
 20
650.3299591573
 30
0.0
 11
720.0291515972
 21
650.3299591573
 31
0.0
  0
ARC
  5
267
330
1F
100
AcDbEntity
  8
0
  6
Continuous
 62
     7
370
    25
100
AcDbCircle
 10
720.0291549351
 20
647.8299649032
 30
0.0
 40
2.5
100
AcDbArc
 50
90.0
 51
270.0
  0
LINE
  5
268
330
1F
100
AcDbEntity
  8
0
  6
Continuous
 62
     7
370
    25
100
AcDbLine
 10
488.029158273
 20
650.3299591573
 30
0.0
 11
483.0291555907
 21
650.3299591573
 31
0.0
  0
ARC
  5
269
330
1F
100
AcDbEntity
  8
0
  6
Continuous
 62
     7
370
    25
100
AcDbCircle
 10
483.0291549351
 20
647.8299649032
 30
0.0
 40
2.5
100
AcDbArc
 50
90.0
 51
270.0
  0
LINE
  5
26A
330
1F
100
AcDbEntity
  8
0
  6
Continuous
 62
     7
370
    25
100
AcDbLine
 10
483.0291555907
 20
645.3299639257
 30
0.0
 11
488.029158273
 21
645.3299639257
 31
0.0
  0
ARC
  5
26B
330
1F
100
AcDbEntity
  8
0
  6
Continuous
 62
     7
370
    25
100
AcDbCircle
 10
488.0291549351
 20
647.8299649032
 30
0.0
 40
2.5
100
AcDbArc
 50
270.0
 51
90.0
  0
CIRCLE
  5
26C
330
1F
100
AcDbEntity
  8
0
  6
Continuous
 62
     7
370
    25
100
AcDbCircle
 10
404.0291549351
 20
464.9299649032
 30
0.0
 40
2.5
  0
CIRCLE
  5
26D
330
1F
100
AcDbEntity
  8
0
  6
Continuous
 62
     7
370
    25
100
AcDbCircle
 10
404.0291549351
 20
449.9299649032
 30
0.0
 40
2.499999999999943
  0
CIRCLE
  5
26E
330
1F
100
AcDbEntity
  8
0
  6
Continuous
 62
     7
370
    25
100
AcDbCircle
 10
404.0291549351
 20
434.9299649032
 30
0.0
 40
2.5
  0
CIRCLE
  5
26F
330
1F
100
AcDbEntity
  8
0
  6
Continuous
 62
     7
370
    25
100
AcDbCircle
 10
404.0291549351
 20
494.9299649032
 30
0.0
 40
2.5
  0
CIRCLE
  5
270
330
1F
100
AcDbEntity
  8
0
  6
Continuous
 62
     7
370
    25
100
AcDbCircle
 10
404.0291549351
 20
479.9299649032
 30
0.0
 40
2.5
  0
LINE
  5
271
330
1F
100
AcDbEntity
  8
0
  6
Continuous
 62
     7
370
    25
100
AcDbLine
 10
401.8291594174
 20
422.9299654695
 30
0.0
 11
401.8291594174
 21
417.9299665125
 31
0.0
  0
ARC
  5
272
330
1F
100
AcDbEntity
  8
0
  6
Continuous
 62
     7
370
    25
100
AcDbCircle
 10
404.0291549351
 20
417.9299649032
 30
0.0
 40
2.200000000000045
100
AcDbArc
 50
180.0
 51
0.0
  0
LINE
  5
273
330
1F
100
AcDbEntity
  8
0
  6
Continuous
 62
     7
370
    25
100
AcDbLine
 10
406.2291593935
 20
417.9299665125
 30
0.0
 11
406.2291593935
 21
422.9299654695
 31
0.0
  0
ARC
  5
274
330
1F
100
AcDbEntity
  8
0
  6
Continuous
 62
     7
370
    25
100
AcDbCircle
 10
404.0291549351
 20
422.9299649032
 30
0.0
 40
2.200000000000045
100
AcDbArc
 50
0.0
 51
180.0
  0
LINE
  5
275
330
1F
100
AcDbEntity
  8
0
  6
Continuous
 62
     7
370
    25
100
AcDbLine
 10
406.2291593935
 20
506.929964337
 30
0.0
 11
406.2291593935
 21
511.9299632939
 31
0.0
  0
ARC
  5
276
330
1F
100
AcDbEntity
  8
0
  6
Continuous
 62
     7
370
    25
100
AcDbCircle
 10
404.0291549351
 20
511.9299649032
 30
0.0
 40
2.200000000000045
100
AcDbArc
 50
0.0
 51
180.0
  0
LINE
  5
277
330
1F
100
AcDbEntity
  8
0
  6
Continuous
 62
     7
370
    25
100
AcDbLine
 10
401.8291594174
 20
511.9299632939
 30
0.0
 11
401.8291594174
 21
506.929964337
 31
0.0
  0
ARC
  5
278
330
1F
100
AcDbEntity
  8
0
  6
Continuous
 62
     7
370
    25
100
AcDbCircle
 10
404.0291549351
 20
506.9299649032
 30
0.0
 40
2.200000000000045
100
AcDbArc
 50
180.0
 51
0.0
  0
LINE
  5
279
330
1F
100
AcDbEntity
  8
0
  6
Continuous
 62
     7
370
    25
100
AcDbLine
 10
389.0291513588
 20
427.4299634131
 30
0.0
 11
377.0291568424
 21
427.4299634131
 31
0.0
  0
LINE
  5
27A
330
1F
100
AcDbEntity
  8
0
  6
Continuous
 62
     7
370
    25
100
AcDbLine
 10
377.0291568424
 20
427.4299634131
 30
0.0
 11
377.0291568424
 21
424.429964784
 31
0.0
  0
LINE
  5
27B
330
1F
100
AcDbEntity
  8
0
  6
Continuous
 62
     7
370
    25
100
AcDbLine
 10
377.0291568424
 20
424.429964784
 30
0.0
 11
389.0291513588
 21
424.429964784
 31
0.0
  0
LINE
  5
27C
330
1F
100
AcDbEntity
  8
0
  6
Continuous
 62
     7
370
    25
100
AcDbLine
 10
389.0291513588
 20
424.429964784
 30
0.0
 11
389.0291513588
 21
427.4299634131
 31
0.0
  0
LINE
  5
27D
330
1F
100
AcDbEntity
  8
0
  6
Continuous
 62
     7
370
    25
100
AcDbLine
 10
377.0291568424
 20
502.4299663933
 30
0.0
 11
389.0291513588
 21
502.4299663933
 31
0.0
  0
LINE
  5
27E
330
1F
100
AcDbEntity
  8
0
  6
Continuous
 62
     7
370
    25
100
AcDbLine
 10
389.0291513588
 20
502.4299663933
 30
0.0
 11
389.0291513588
 21
505.4299650224
 31
0.0
  0
LINE
  5
27F
330
1F
100
AcDbEntity
  8
0
  6
Continuous
 62
     7
370
    25
100
AcDbLine
 10
389.0291513588
 20
505.4299650224
 30
0.0
 11
377.0291568424
 21
505.4299650224
 31
0.0
  0
LINE
  5
280
330
1F
100
AcDbEntity
  8
0
  6
Continuous
 62
     7
370
    25
100
AcDbLine
 10
377.0291568424
 20
505.4299650224
 30
0.0
 11
377.0291568424
 21
502.4299663933
 31
0.0
  0
CIRCLE
  5
281
330
1F
100
AcDbEntity
  8
0
  6
Continuous
 62
     7
370
    25
100
AcDbCircle
 10
782.5291549351
 20
379.9299649032
 30
0.0
 40
2.5
  0
CIRCLE
  5
282
330
1F
100
AcDbEntity
  8
0
  6
Continuous
 62
     7
370
    25
100
AcDbCircle
 10
782.5291549351
 20
549.9299649032
 30
0.0
 40
2.5
  0
LINE
  5
283
330
1F
100
AcDbEntity
  8
0
  6
Continuous
 62
     7
370
    25
100
AcDbLine
 10
785.0291492131
 20
357.4299631151
 30
0.0
 11
785.0291492131
 21
362.4299657973
 31
0.0
  0
ARC
  5
284
330
1F
100
AcDbEntity
  8
0
  6
Continuous
 62
     7
370
    25
100
AcDbCircle
 10
782.5291549351
 20
362.4299649032
 30
0.0
 40
2.500000000000114
100
AcDbArc
 50
0.0
 51
180.0
  0
LINE
  5
285
330
1F
100
AcDbEntity
  8
0
  6
Continuous
 62
     7
370
    25
100
AcDbLine
 10
780.0291539814
 20
362.4299657973
 30
0.0
 11
780.0291539814
 21
357.4299631151
 31
0.0
  0
ARC
  5
286
330
1F
100
AcDbEntity
  8
0
  6
Continuous
 62
     7
370
    25
100
AcDbCircle
 10
782.5291549351
 20
357.4299649032
 30
0.0
 40
2.500000000000114
100
AcDbArc
 50
180.0
 51
0.0
  0
LINE
  5
287
330
1F
100
AcDbEntity
  8
0
  6
Continuous
 62
     7
370
    25
100
AcDbLine
 10
805.0291599419
 20
382.429961625
 30
0.0
 11
800.0291498091
 21
382.429961625
 31
0.0
  0
ARC
  5
288
330
1F
100
AcDbEntity
  8
0
  6
Continuous
 62
     7
370
    25
100
AcDbCircle
 10
800.0291549351
 20
379.9299649032
 30
0.0
 40
2.500000000000057
100
AcDbArc
 50
90.0
 51
270.0
  0
LINE
  5
289
330
1F
100
AcDbEntity
  8
0
  6
Continuous
 62
     7
370
    25
100
AcDbLine
 10
800.0291498091
 20
377.4299663933
 30
0.0
 11
805.0291599419
 21
377.4299663933
 31
0.0
  0
ARC
  5
28A
330
1F
100
AcDbEntity
  8
0
  6
Continuous
 62
     7
370
    25
100
AcDbCircle
 10
805.0291549351
 20
379.9299649032
 30
0.0
 40
2.5
100
AcDbArc
 50
270.0
 51
90.0
  0
LINE
  5
28B
330
1F
100
AcDbEntity
  8
0
  6
Continuous
 62
     7
370
    25
100
AcDbLine
 10
805.0291599419
 20
552.4299634131
 30
0.0
 11
800.0291498091
 21
552.4299634131
 31
0.0
  0
ARC
  5
28C
330
1F
100
AcDbEntity
  8
0
  6
Continuous
 62
     7
370
    25
100
AcDbCircle
 10
800.0291549351
 20
549.9299649032
 30
0.0
 40
2.500000000000114
100
AcDbArc
 50
90.0
 51
270.0
  0
LINE
  5
28D
330
1F
100
AcDbEntity
  8
0
  6
Continuous
 62
     7
370
    25
100
AcDbLine
 10
800.0291498091
 20
547.4299681815
 30
0.0
 11
805.0291599419
 21
547.4299681815
 31
0.0
  0
ARC
  5
28E
330
1F
100
AcDbEntity
  8
0
  6
Continuous
 62
     7
370
    25
100
AcDbCircle
 10
805.0291549351
 20
549.9299649032
 30
0.0
 40
2.500000000000114
100
AcDbArc
 50
270.0
 51
90.0
  0
LINE
  5
28F
330
1F
100
AcDbEntity
  8
0
  6
Continuous
 62
     7
370
    25
100
AcDbLine
 10
780.0291539814
 20
572.4299666914
 30
0.0
 11
780.0291539814
 21
567.4299640091
 31
0.0
  0
ARC
  5
290
330
1F
100
AcDbEntity
  8
0
  6
Continuous
 62
     7
370
    25
100
AcDbCircle
 10
782.5291549351
 20
567.4299649032
 30
0.0
 40
2.500000000000114
100
AcDbArc
 50
180.0
 51
0.0
  0
LINE
  5
291
330
1F
100
AcDbEntity
  8
0
  6
Continuous
 62
     7
370
    25
100
AcDbLine
 10
785.0291492131
 20
567.4299640091
 30
0.0
 11
785.0291492131
 21
572.4299666914
 31
0.0
  0
ARC
  5
292
330
1F
100
AcDbEntity
  8
0
  6
Continuous
 62
     7
370
    25
100
AcDbCircle
 10
782.5291549351
 20
572.4299649032
 30
0.0
 40
2.500000000000114
100
AcDbArc
 50
0.0
 51
180.0
  0
CIRCLE
  5
293
330
1F
100
AcDbEntity
  8
0
  6
Continuous
 62
     7
370
    25
100
AcDbCircle
 10
782.5291549351
 20
409.9299649032
 30
0.0
 40
2.199999999999989
  0
CIRCLE
  5
294
330
1F
100
AcDbEntity
  8
0
  6
Continuous
 62
     7
370
    25
100
AcDbCircle
 10
782.5291549351
 20
449.9299649032
 30
0.0
 40
2.199999999999989
  0
CIRCLE
  5
295
330
1F
100
AcDbEntity
  8
0
  6
Continuous
 62
     7
370
    25
100
AcDbCircle
 10
782.5291549351
 20
479.9299649032
 30
0.0
 40
2.199999999999989
  0
CIRCLE
  5
296
330
1F
100
AcDbEntity
  8
0
  6
Continuous
 62
     7
370
    25
100
AcDbCircle
 10
782.5291549351
 20
519.9299649032
 30
0.0
 40
2.199999999999932
  0
LINE
  5
297
330
1F
100
AcDbEntity
  8
0
  6
Continuous
 62
     7
370
    25
100
AcDbLine
 10
797.0291586306
 20
444.9299653502
 30
0.0
 11
811.0291572001
 21
444.9299653502
 31
0.0
  0
ARC
  5
298
330
1F
100
AcDbEntity
  8
0
  6
Continuous
 62
     7
370
    25
100
AcDbCircle
 10
811.0291549351
 20
447.9299649032
 30
0.0
 40
3.0
100
AcDbArc
 50
270.0
 51
0.0
  0
LINE
  5
299
330
1F
100
AcDbEntity
  8
0
  6
Continuous
 62
     7
370
    25
100
AcDbLine
 10
814.0291483786
 20
447.9299639793
 30
0.0
 11
814.0291483786
 21
481.9299658271
 31
0.0
  0
ARC
  5
29A
330
1F
100
AcDbEntity
  8
0
  6
Continuous
 62
     7
370
    25
100
AcDbCircle
 10
811.0291549351
 20
481.9299649032
 30
0.0
 40
3.0
100
AcDbArc
 50
360.0
 51
90.0
  0
LINE
  5
29B
330
1F
100
AcDbEntity
  8
0
  6
Continuous
 62
     7
370
    25
100
AcDbLine
 10
811.0291572001
 20
484.9299644562
 30
0.0
 11
797.0291586306
 21
484.9299644562
 31
0.0
  0
ARC
  5
29C
330
1F
100
AcDbEntity
  8
0
  6
Continuous
 62
     7
370
    25
100
AcDbCircle
 10
797.0291549351
 20
481.9299649032
 30
0.0
 40
3.000000000000114
100
AcDbArc
 50
90.0
 51
180.0
  0
LINE
  5
29D
330
1F
100
AcDbEntity
  8
0
  6
Continuous
 62
     7
370
    25
100
AcDbLine
 10
794.0291525509
 20
481.9299658271
 30
0.0
 11
794.0291525509
 21
447.9299639793
 31
0.0
  0
ARC
  5
29E
330
1F
100
AcDbEntity
  8
0
  6
Continuous
 62
     7
370
    25
100
AcDbCircle
 10
797.0291549351
 20
447.9299649032
 30
0.0
 40
3.000000000000114
100
AcDbArc
 50
180.0
 51
270.0
  0
CIRCLE
  5
29F
330
1F
100
AcDbEntity
  8
0
  6
Continuous
 62
     7
370
    25
100
AcDbCircle
 10
361.5291549351
 20
464.9299649032
 30
0.0
 40
1.700000000000045
  0
CIRCLE
  5
2A0
330
1F
100
AcDbEntity
  8
0
  6
Continuous
 62
     7
370
    25
100
AcDbCircle
 10
407.8425337992
 20
322.3920412223
 30
0.0
 40
1.700000000000025
  0
CIRCLE
  5
2A1
330
1F
100
AcDbEntity
  8
0
  6
Continuous
 62
     7
370
    25
100
AcDbCircle
 10
529.0925337992
 20
234.2987597016
 30
0.0
 40
1.700000000000029
  0
CIRCLE
  5
2A2
330
1F
100
AcDbEntity
  8
0
  6
Continuous
 62
     7
370
    25
100
AcDbCircle
 10
678.965776071
 20
234.2987597016
 30
0.0
 40
1.700000000000029
  0
CIRCLE
  5
2A3
330
1F
100
AcDbEntity
  8
0
  6
Continuous
 62
     7
370
    25
100
AcDbCircle
 10
800.215776071
 20
322.3920412223
 30
0.0
 40
1.700000000000025
  0
CIRCLE
  5
2A4
330
1F
100
AcDbEntity
  8
0
  6
Continuous
 62
     7
370
    25
100
AcDbCircle
 10
846.5291549351
 20
464.9299649032
 30
0.0
 40
1.700000000000045
  0
CIRCLE
  5
2A5
330
1F
100
AcDbEntity
  8
0
  6
Continuous
 62
     7
370
    25
100
AcDbCircle
 10
800.215776071
 20
607.4678885841
 30
0.0
 40
1.7
  0
CIRCLE
  5
2A6
330
1F
100
AcDbEntity
  8
0
  6
Continuous
 62
     7
370
    25
100
AcDbCircle
 10
678.965776071
 20
695.5611701048
 30
0.0
 40
1.700000000000038
  0
CIRCLE
  5
2A7
330
1F
100
AcDbEntity
  8
0
  6
Continuous
 62
     7
370
    25
100
AcDbCircle
 10
529.0925337992
 20
695.5611701048
 30
0.0
 40
1.700000000000038
  0
CIRCLE
  5
2A8
330
1F
100
AcDbEntity
  8
0
  6
Continuous
 62
     7
370
    25
100
AcDbCircle
 10
407.8425337992
 20
607.4678885841
 30
0.0
 40
1.699999999999933
  0
CIRCLE
  5
2A9
330
1F
100
AcDbEntity
  8
0
  6
Continuous
 62
     7
370
    25
100
AcDbCircle
 10
604.0291549351
 20
464.9299649032
 30
0.0
 40
60.0
  0
CIRCLE
  5
2AA
330
1F
100
AcDbEntity
  8
0
  6
Continuous
 62
     7
370
    25
100
AcDbCircle
 10
804.0291549351
 20
414.9299649032
 30
0.0
 40
1.700000000000045
  0
CIRCLE
  5
2AB
330
1F
100
AcDbEntity
  8
0
  6
Continuous
 62
     7
370
    25
100
AcDbCircle
 10
804.0291549351
 20
514.9299649032
 30
0.0
 40
1.699999999999932
  0
ARC
  5
2AC
330
1F
100
AcDbEntity
  8
0
  6
Continuous
 62
     7
370
    25
100
AcDbCircle
 10
442.0291549351
 20
582.8299649032
 30
0.0
 40
2.5
100
AcDbArc
 50
90.0
 51
270.0
  0
LINE
  5
2AD
330
1F
100
AcDbEntity
  8
0
  6
Continuous
 62
     7
370
    25
100
AcDbLine
 10
450.0291557696
 20
349.5299634965
 30
0.0
 11
442.0291544583
 21
349.5299634965
 31
0.0
  0
ARC
  5
2AE
330
1F
100
AcDbEntity
  8
0
  6
Continuous
 62
     7
370
    25
100
AcDbCircle
 10
450.0291549351
 20
347.0299649032
 30
0.0
 40
2.500000000000057
100
AcDbArc
 50
270.0
 51
90.0
  0
LINE
  5
2AF
330
1F
100
AcDbEntity
  8
0
  6
Continuous
 62
     7
370
    25
100
AcDbLine
 10
442.0291544583
 20
344.5299682649
 30
0.0
 11
450.0291557696
 21
344.5299682649
 31
0.0
  0
ARC
  5
2B0
330
1F
100
AcDbEntity
  8
0
  6
Continuous
 62
     7
370
    25
100
AcDbCircle
 10
442.0291549351
 20
347.0299649032
 30
0.0
 40
2.500000000000057
100
AcDbArc
 50
90.0
 51
270.0
  0
LINE
  5
2B1
330
1F
100
AcDbEntity
  8
0
  6
Continuous
 62
     7
370
    25
100
AcDbLine
 10
758.0291541006
 20
344.5299682649
 30
0.0
 11
766.0291554119
 21
344.5299682649
 31
0.0
  0
ARC
  5
2B2
330
1F
100
AcDbEntity
  8
0
  6
Continuous
 62
     7
370
    25
100
AcDbCircle
 10
758.0291549351
 20
347.0299649032
 30
0.0
 40
2.500000000000057
100
AcDbArc
 50
90.0
 51
270.0
  0
LINE
  5
2B3
330
1F
100
AcDbEntity
  8
0
  6
Continuous
 62
     7
370
    25
100
AcDbLine
 10
766.0291554119
 20
349.5299634965
 30
0.0
 11
758.0291541006
 21
349.5299634965
 31
0.0
  0
ARC
  5
2B4
330
1F
100
AcDbEntity
  8
0
  6
Continuous
 62
     7
370
    25
100
AcDbCircle
 10
766.0291549351
 20
347.0299649032
 30
0.0
 40
2.500000000000057
100
AcDbArc
 50
270.0
 51
90.0
  0
LINE
  5
2B5
330
1F
100
AcDbEntity
  8
0
  6
Continuous
 62
     7
370
    25
100
AcDbLine
 10
758.0291541006
 20
580.3299663099
 30
0.0
 11
766.0291554119
 21
580.3299663099
 31
0.0
  0
ARC
  5
2B6
330
1F
100
AcDbEntity
  8
0
  6
Continuous
 62
     7
370
    25
100
AcDbCircle
 10
758.0291549351
 20
582.8299649032
 30
0.0
 40
2.5
100
AcDbArc
 50
90.0
 51
270.0
  0
LINE
  5
2B7
330
1F
100
AcDbEntity
  8
0
  6
Continuous
 62
     7
370
    25
100
AcDbLine
 10
766.0291554119
 20
585.3299615415
 30
0.0
 11
758.0291541006
 21
585.3299615415
 31
0.0
  0
ARC
  5
2B8
330
1F
100
AcDbEntity
  8
0
  6
Continuous
 62
     7
370
    25
100
AcDbCircle
 10
766.0291549351
 20
582.8299649032
 30
0.0
 40
2.5
100
AcDbArc
 50
270.0
 51
90.0
  0
LINE
  5
2B9
330
1F
100
AcDbEntity
  8
0
  6
Continuous
 62
     7
370
    25
100
AcDbLine
 10
450.0291557696
 20
585.3299615415
 30
0.0
 11
442.0291544583
 21
585.3299615415
 31
0.0
  0
DIMENSION
  5
2BA
330
1F
100
AcDbEntity
  8
BORDER
100
AcDbDimension
  2
_D
 10
389.4190611076
 20
336.7016231555
 30
0.0
 11
879.7871889025
 21
615.3286656216
 31
0.0
 70
   163
  1
<>
 71
     1
 42
-1.0
  3
SLDDIMSTYLE0
100
AcDbDiametricDimension
 15
818.6392487626
 25
593.1583066509
 35
0.0
 40
0.0
  0
DIMENSION
  5
2C4
330
1F
100
AcDbEntity
  8
BORDER
100
AcDbDimension
  2
_D_1
 10
885.2153315748
 20
444.9299649032
 30
0.0
 11
885.2153315748
 21
465.2582688893
 31
0.0
 70
   160
  1
<>
 71
     2
 42
-1.0
  3
SLDDIMSTYLE1
100
AcDbAlignedDimension
 13
811.0291549351
 23
484.9299649032
 33
0.0
 14
811.0291549351
 24
444.9299649032
 34
0.0
 50
90.0
100
AcDbRotatedDimension
  0
DIMENSION
  5
2D0
330
1F
100
AcDbEntity
  8
BORDER
100
AcDbDimension
  2
_D_2
 10
845.6791549351
 20
463.4577217168
 30
0.0
 11
885.2153315748
 21
498.4204272895
 31
0.0
 70
   163
  1
<>
 71
     1
 42
-1.0
  3
SLDDIMSTYLE2
100
AcDbDiametricDimension
 15
847.3791549351
 25
466.4022080896
 35
0.0
 40
0.0
  0
DIMENSION
  5
2DA
330
1F
100
AcDbEntity
  8
BORDER
100
AcDbDimension
  2
_D_3
 10
547.4960156435
 20
444.8301101317
 30
0.0
 11
885.2153315748
 21
556.3551498037
 31
0.0
 70
   163
  1
<>
 71
     1
 42
-1.0
  3
SLDDIMSTYLE2
100
AcDbDiametricDimension
 15
660.5622942267
 25
485.0298196747
 35
0.0
 40
0.0
  0
DIMENSION
  5
2E3
330
1F
100
AcDbEntity
  8
BORDER
100
AcDbDimension
  2
_D_4
 10
780.3780460198
 20
519.4687378068
 30
0.0
 11
885.2153315748
 21
537.7982817224
 31
0.0
 70
   163
  1
<>
 71
     1
 42
-1.0
  3
SLDDIMSTYLE2
100
AcDbDiametricDimension
 15
784.6802638504
 25
520.3911919996
 35
0.0
 40
0.0
  0
DIMENSION
  5
2EC
330
1F
100
AcDbEntity
  8
BORDER
100
AcDbDimension
  2
_D_5
 10
805.0291549351
 20
549.9299649032
 30
0.0
 11
885.2153315748
 21
573.6494345997
 31
0.0
 70
   164
  1
<>
 71
     1
 42
-1.0
  3
SLDDIMSTYLE3
100
AcDbRadialDimension
 15
807.3690932678
 25
550.8101288647
 35
0.0
 40
0.0
  0
MTEXT
  5
2F5
330
1F
100
AcDbEntity
  8
BORDER
100
AcDbMText
 10
756.5422621555
 20
709.3486389793
 30
0.0
 40
6.35
 41
0.0
 71
     1
 72
     1
  1
t3
  7
SLDTEXTSTYLE0
 73
     1
 44
1.0
  0
LEADER
  5
2FC
330
1F
100
AcDbEntity
  8
BORDER
100
AcDbLeader
  3
SLDDIMSTYLE4
 76
     3
 10
699.8115819205
 20
648.651828459
 30
0.0
 10
749.5867816092
 20
706.2417577376
 30
0.0
 10
755.9367816092
 20
706.2417577376
 30
0.0
  0
INSERT
  5
308
330
1F
100
AcDbEntity
  8
BORDER
100
AcDbBlockReference
  2
SW_CENTERMARKSYMBOL_0
 10
468.0291549351
 20
347.0299649032
 30
0.0
  0
INSERT
  5
314
330
1F
100
AcDbEntity
  8
BORDER
100
AcDbBlockReference
  2
SW_CENTERMARKSYMBOL_1
 10
740.0291549351
 20
647.8299649032
 30
0.0
  0
INSERT
  5
320
330
1F
100
AcDbEntity
  8
BORDER
100
AcDbBlockReference
  2
SW_CENTERMARKSYMBOL_2
 10
468.0291549351
 20
282.0299649032
 30
0.0
  0
INSERT
  5
32C
330
1F
100
AcDbEntity
  8
BORDER
100
AcDbBlockReference
  2
SW_CENTERMARKSYMBOL_3
 10
740.0291549351
 20
282.0299649032
 30
0.0
  0
INSERT
  5
338
330
1F
100
AcDbEntity
  8
BORDER
100
AcDbBlockReference
  2
SW_CENTERMARKSYMBOL_4
 10
468.0291549351
 20
582.8299649032
 30
0.0
  0
INSERT
  5
344
330
1F
100
AcDbEntity
  8
BORDER
100
AcDbBlockReference
  2
SW_CENTERMARKSYMBOL_5
 10
740.0291549351
 20
582.8299649032
 30
0.0
  0
INSERT
  5
350
330
1F
100
AcDbEntity
  8
BORDER
100
AcDbBlockReference
  2
SW_CENTERMARKSYMBOL_6
 10
740.0291549351
 20
347.0299649032
 30
0.0
  0
INSERT
  5
35C
330
1F
100
AcDbEntity
  8
BORDER
100
AcDbBlockReference
  2
SW_CENTERMARKSYMBOL_7
 10
468.0291549351
 20
647.8299649032
 30
0.0
  0
INSERT
  5
368
330
1F
100
AcDbEntity
  8
BORDER
100
AcDbBlockReference
  2
SW_CENTERMARKSYMBOL_8
 10
404.0291549351
 20
464.9299649032
 30
0.0
  0
INSERT
  5
374
330
1F
100
AcDbEntity
  8
BORDER
100
AcDbBlockReference
  2
SW_CENTERMARKSYMBOL_9
 10
404.0291549351
 20
449.9299649032
 30
0.0
  0
INSERT
  5
380
330
1F
100
AcDbEntity
  8
BORDER
100
AcDbBlockReference
  2
SW_CENTERMARKSYMBOL_10
 10
404.0291549351
 20
434.9299649032
 30
0.0
  0
INSERT
  5
38C
330
1F
100
AcDbEntity
  8
BORDER
100
AcDbBlockReference
  2
SW_CENTERMARKSYMBOL_11
 10
404.0291549351
 20
494.9299649032
 30
0.0
  0
INSERT
  5
398
330
1F
100
AcDbEntity
  8
BORDER
100
AcDbBlockReference
  2
SW_CENTERMARKSYMBOL_12
 10
404.0291549351
 20
479.9299649032
 30
0.0
  0
INSERT
  5
3A4
330
1F
100
AcDbEntity
  8
BORDER
100
AcDbBlockReference
  2
SW_CENTERMARKSYMBOL_13
 10
782.5291549351
 20
379.9299649032
 30
0.0
  0
INSERT
  5
3B0
330
1F
100
AcDbEntity
  8
BORDER
100
AcDbBlockReference
  2
SW_CENTERMARKSYMBOL_14
 10
782.5291549351
 20
549.9299649032
 30
0.0
  0
INSERT
  5
3BC
330
1F
100
AcDbEntity
  8
BORDER
100
AcDbBlockReference
  2
SW_CENTERMARKSYMBOL_15
 10
782.5291549351
 20
409.9299649032
 30
0.0
  0
INSERT
  5
3C8
330
1F
100
AcDbEntity
  8
BORDER
100
AcDbBlockReference
  2
SW_CENTERMARKSYMBOL_16
 10
782.5291549351
 20
449.9299649032
 30
0.0
  0
INSERT
  5
3D4
330
1F
100
AcDbEntity
  8
BORDER
100
AcDbBlockReference
  2
SW_CENTERMARKSYMBOL_17
 10
782.5291549351
 20
479.9299649032
 30
0.0
  0
INSERT
  5
3E0
330
1F
100
AcDbEntity
  8
BORDER
100
AcDbBlockReference
  2
SW_CENTERMARKSYMBOL_18
 10
782.5291549351
 20
519.9299649032
 30
0.0
  0
INSERT
  5
432
330
1F
100
AcDbEntity
  8
BORDER
100
AcDbBlockReference
  2
SW_CENTERMARKSYMBOL_19
 10
407.8425337992
 20
322.3920412223
 30
0.0
  0
INSERT
  5
43E
330
1F
100
AcDbEntity
  8
BORDER
100
AcDbBlockReference
  2
SW_CENTERMARKSYMBOL_20
 10
804.0291549351
 20
414.9299649032
 30
0.0
  0
INSERT
  5
44A
330
1F
100
AcDbEntity
  8
BORDER
100
AcDbBlockReference
  2
SW_CENTERMARKSYMBOL_21
 10
804.0291549351
 20
514.9299649032
 30
0.0
  0
ENDSEC
  0
SECTION
  2
OBJECTS
  0
DICTIONARY
  5
C
330
0
100
AcDbDictionary
281
     1
  3
ACAD_GROUP
350
D
  3
ACAD_LAYOUT
350
1A
  3
ACAD_MLINESTYLE
350
17
  3
ACAD_PLOTSETTINGS
350
19
  3
ACAD_PLOTSTYLENAME
350
E
  3
ACAD_SCALELIST
350
47
  0
DICTIONARY
  5
D
102
{ACAD_REACTORS
330
C
102
}
330
C
100
AcDbDictionary
281
     1
  0
DICTIONARY
  5
1A
102
{ACAD_REACTORS
330
C
102
}
330
C
100
AcDbDictionary
281
     1
  3
Layout1
350
1E
  3
Layout2
350
26
  3
Model
350
22
  0
DICTIONARY
  5
17
102
{ACAD_REACTORS
330
C
102
}
330
C
100
AcDbDictionary
281
     1
  3
Standard
350
18
  0
DICTIONARY
  5
19
102
{ACAD_REACTORS
330
C
102
}
330
C
100
AcDbDictionary
281
     1
  0
ACDBDICTIONARYWDFLT
  5
E
102
{ACAD_REACTORS
330
C
102
}
330
C
100
AcDbDictionary
281
     1
  3
Normal
350
F
100
AcDbDictionaryWithDefault
340
F
  0
DICTIONARY
  5
47
102
{ACAD_REACTORS
330
C
102
}
330
C
100
AcDbDictionary
281
     1
  3
A0
350
48
  3
A1
350
49
  3
A2
350
4A
  3
A3
350
4B
  3
A4
350
4C
  3
A5
350
4D
  3
A6
350
4E
  3
A7
350
4F
  3
A8
350
50
  3
A9
350
51
  3
B0
350
52
  3
B1
350
53
  3
B2
350
54
  3
B3
350
55
  3
B4
350
56
  3
B5
350
57
  3
B6
350
58
  3
B7
350
59
  3
B8
350
5A
  3
B9
350
5B
  3
C0
350
5C
  3
C1
350
5D
  3
C2
350
5E
  3
C3
350
5F
  3
C4
350
60
  3
C5
350
61
  3
C6
350
62
  3
C7
350
63
  3
C8
350
64
  3
C9
350
65
  3
D0
350
66
  3
D1
350
67
  3
D2
350
68
  0
LAYOUT
  5
1E
102
{ACAD_REACTORS
330
1A
102
}
330
1A
100
AcDbPlotSettings
  1

  2
none_device
  4

  6

 40
0.0
 41
0.0
 42
0.0
 43
0.0
 44
0.0
 45
0.0
 46
0.0
 47
0.0
 48
0.0
 49
0.0
140
0.0
141
0.0
142
1.0
143
1.0
 70
   688
 72
     1
 73
     0
 74
     5
  7

 75
    16
147
1.0
148
0.0
149
0.0
100
AcDbLayout
  1
Layout1
 70
     1
 71
     1
 10
0.0
 20
0.0
 11
420.0
 21
297.0
 12
0.0
 22
0.0
 32
0.0
 14
1.0000000000E+20
 24
1.0000000000E+20
 34
1.0000000000E+20
 15
-1.0000000000E+20
 25
-1.0000000000E+20
 35
-1.0000000000E+20
146
0.0
 13
0.0
 23
0.0
 33
0.0
 16
1.0
 26
0.0
 36
0.0
 17
0.0
 27
1.0
 37
0.0
 76
     0
330
1B
  0
LAYOUT
  5
26
102
{ACAD_REACTORS
330
1A
102
}
330
1A
100
AcDbPlotSettings
  1

  2
none_device
  4

  6

 40
0.0
 41
0.0
 42
0.0
 43
0.0
 44
0.0
 45
0.0
 46
0.0
 47
0.0
 48
0.0
 49
0.0
140
0.0
141
0.0
142
1.0
143
1.0
 70
   688
 72
     1
 73
     0
 74
     5
  7

 75
    16
147
1.0
148
0.0
149
0.0
100
AcDbLayout
  1
Layout2
 70
     1
 71
     2
 10
0.0
 20
0.0
 11
0.0
 21
0.0
 12
0.0
 22
0.0
 32
0.0
 14
0.0
 24
0.0
 34
0.0
 15
0.0
 25
0.0
 35
0.0
146
0.0
 13
0.0
 23
0.0
 33
0.0
 16
1.0
 26
0.0
 36
0.0
 17
0.0
 27
1.0
 37
0.0
 76
     0
330
23
  0
LAYOUT
  5
22
102
{ACAD_REACTORS
330
1A
102
}
330
1A
100
AcDbPlotSettings
  1

  2
none_device
  4
Letter_(8.50_x_11.00_Inches)
  6

 40
6.35
 41
6.35
 42
6.35000508
 43
6.35000508
 44
215.9
 45
279.4
 46
0.0
 47
0.0
 48
0.0
 49
0.0
140
0.0
141
0.0
142
1.0
143
1.0
 70
  1712
 72
     1
 73
     0
 74
     0
  7

 75
     0
147
1.0
148
0.0
149
0.0
100
AcDbLayout
  1
Model
 70
     1
 71
     0
 10
0.0
 20
0.0
 11
1189.0
 21
841.0
 12
0.0
 22
0.0
 32
0.0
 14
0.0
 24
0.0
 34
0.0
 15
1189.0
 25
841.0
 35
0.0
146
0.0
 13
0.0
 23
0.0
 33
0.0
 16
1.0
 26
0.0
 36
0.0
 17
0.0
 27
1.0
 37
0.0
 76
     0
330
1F
331
29
  0
MLINESTYLE
  5
18
102
{ACAD_REACTORS
330
17
102
}
330
17
100
AcDbMlineStyle
  2
Standard
 70
     0
  3

 62
   256
 51
90.0
 52
90.0
 71
     2
 49
0.5
 62
   256
  6
BYLAYER
 49
-0.5
 62
   256
  6
BYLAYER
  0
ACDBPLACEHOLDER
  5
F
102
{ACAD_REACTORS
330
E
102
}
330
E
  0
SCALE
  5
48
102
{ACAD_REACTORS
330
47
102
}
330
47
100
AcDbScale
 70
     0
300
1:1
140
1.0
141
1.0
290
     1
  0
SCALE
  5
49
102
{ACAD_REACTORS
330
47
102
}
330
47
100
AcDbScale
 70
     0
300
1:2
140
1.0
141
2.0
290
     0
  0
SCALE
  5
4A
102
{ACAD_REACTORS
330
47
102
}
330
47
100
AcDbScale
 70
     0
300
1:4
140
1.0
141
4.0
290
     0
  0
SCALE
  5
4B
102
{ACAD_REACTORS
330
47
102
}
330
47
100
AcDbScale
 70
     0
300
1:5
140
1.0
141
5.0
290
     0
  0
SCALE
  5
4C
102
{ACAD_REACTORS
330
47
102
}
330
47
100
AcDbScale
 70
     0
300
1:8
140
1.0
141
8.0
290
     0
  0
SCALE
  5
4D
102
{ACAD_REACTORS
330
47
102
}
330
47
100
AcDbScale
 70
     0
300
1:10
140
1.0
141
10.0
290
     0
  0
SCALE
  5
4E
102
{ACAD_REACTORS
330
47
102
}
330
47
100
AcDbScale
 70
     0
300
1:16
140
1.0
141
16.0
290
     0
  0
SCALE
  5
4F
102
{ACAD_REACTORS
330
47
102
}
330
47
100
AcDbScale
 70
     0
300
1:20
140
1.0
141
20.0
290
     0
  0
SCALE
  5
50
102
{ACAD_REACTORS
330
47
102
}
330
47
100
AcDbScale
 70
     0
300
1:30
140
1.0
141
30.0
290
     0
  0
SCALE
  5
51
102
{ACAD_REACTORS
330
47
102
}
330
47
100
AcDbScale
 70
     0
300
1:40
140
1.0
141
40.0
290
     0
  0
SCALE
  5
52
102
{ACAD_REACTORS
330
47
102
}
330
47
100
AcDbScale
 70
     0
300
1:50
140
1.0
141
50.0
290
     0
  0
SCALE
  5
53
102
{ACAD_REACTORS
330
47
102
}
330
47
100
AcDbScale
 70
     0
300
1:100
140
1.0
141
100.0
290
     0
  0
SCALE
  5
54
102
{ACAD_REACTORS
330
47
102
}
330
47
100
AcDbScale
 70
     0
300
2:1
140
2.0
141
1.0
290
     0
  0
SCALE
  5
55
102
{ACAD_REACTORS
330
47
102
}
330
47
100
AcDbScale
 70
     0
300
4:1
140
4.0
141
1.0
290
     0
  0
SCALE
  5
56
102
{ACAD_REACTORS
330
47
102
}
330
47
100
AcDbScale
 70
     0
300
8:1
140
8.0
141
1.0
290
     0
  0
SCALE
  5
57
102
{ACAD_REACTORS
330
47
102
}
330
47
100
AcDbScale
 70
     0
300
10:1
140
10.0
141
1.0
290
     0
  0
SCALE
  5
58
102
{ACAD_REACTORS
330
47
102
}
330
47
100
AcDbScale
 70
     0
300
100:1
140
100.0
141
1.0
290
     0
  0
SCALE
  5
59
102
{ACAD_REACTORS
330
47
102
}
330
47
100
AcDbScale
 70
     0
300
1/128" = 1'-0"
140
0.0078125
141
12.0
290
     0
  0
SCALE
  5
5A
102
{ACAD_REACTORS
330
47
102
}
330
47
100
AcDbScale
 70
     0
300
1/64" = 1'-0"
140
0.015625
141
12.0
290
     0
  0
SCALE
  5
5B
102
{ACAD_REACTORS
330
47
102
}
330
47
100
AcDbScale
 70
     0
300
1/32" = 1'-0"
140
0.03125
141
12.0
290
     0
  0
SCALE
  5
5C
102
{ACAD_REACTORS
330
47
102
}
330
47
100
AcDbScale
 70
     0
300
1/16" = 1'-0"
140
0.0625
141
12.0
290
     0
  0
SCALE
  5
5D
102
{ACAD_REACTORS
330
47
102
}
330
47
100
AcDbScale
 70
     0
300
3/32" = 1'-0"
140
0.09375
141
12.0
290
     0
  0
SCALE
  5
5E
102
{ACAD_REACTORS
330
47
102
}
330
47
100
AcDbScale
 70
     0
300
1/8" = 1'-0"
140
0.125
141
12.0
290
     0
  0
SCALE
  5
5F
102
{ACAD_REACTORS
330
47
102
}
330
47
100
AcDbScale
 70
     0
300
3/16" = 1'-0"
140
0.1875
141
12.0
290
     0
  0
SCALE
  5
60
102
{ACAD_REACTORS
330
47
102
}
330
47
100
AcDbScale
 70
     0
300
1/4" = 1'-0"
140
0.25
141
12.0
290
     0
  0
SCALE
  5
61
102
{ACAD_REACTORS
330
47
102
}
330
47
100
AcDbScale
 70
     0
300
3/8" = 1'-0"
140
0.375
141
12.0
290
     0
  0
SCALE
  5
62
102
{ACAD_REACTORS
330
47
102
}
330
47
100
AcDbScale
 70
     0
300
1/2" = 1'-0"
140
0.5
141
12.0
290
     0
  0
SCALE
  5
63
102
{ACAD_REACTORS
330
47
102
}
330
47
100
AcDbScale
 70
     0
300
3/4" = 1'-0"
140
0.75
141
12.0
290
     0
  0
SCALE
  5
64
102
{ACAD_REACTORS
330
47
102
}
330
47
100
AcDbScale
 70
     0
300
1" = 1'-0"
140
1.0
141
12.0
290
     0
  0
SCALE
  5
65
102
{ACAD_REACTORS
330
47
102
}
330
47
100
AcDbScale
 70
     0
300
1-1/2" = 1'-0"
140
1.5
141
12.0
290
     0
  0
SCALE
  5
66
102
{ACAD_REACTORS
330
47
102
}
330
47
100
AcDbScale
 70
     0
300
3" = 1'-0"
140
3.0
141
12.0
290
     0
  0
SCALE
  5
67
102
{ACAD_REACTORS
330
47
102
}
330
47
100
AcDbScale
 70
     0
300
6" = 1'-0"
140
6.0
141
12.0
290
     0
  0
SCALE
  5
68
102
{ACAD_REACTORS
330
47
102
}
330
47
100
AcDbScale
 70
     0
300
1'-0" = 1'-0"
140
12.0
141
12.0
290
     0
  0
ENDSEC
  0
EOF
